<?xml version="1.0" encoding="UTF-8"?>
<svg version="1.1" xmlns="http://www.w3.org/2000/svg" width="931" height="922">
<path d="M0 0 C307.23 0 614.46 0 931 0 C931 304.26 931 608.52 931 922 C623.77 922 316.54 922 0 922 C0 617.74 0 313.48 0 0 Z " fill="#EEECEB" transform="translate(0,0)"/>
<path d="M0 0 C2.70034228 2.42839405 4.60923533 5.30861539 6.625 8.3125 C7.22763672 9.16972656 7.83027344 10.02695313 8.45117188 10.91015625 C10.32608217 13.5902788 12.16615616 16.29165235 14 19 C15.10089337 20.60853108 16.20243023 22.21662198 17.3046875 23.82421875 C18.90914715 26.16908546 20.51065486 28.51573092 22.10400391 30.86816406 C27.05840606 38.16418417 32.27839315 45.2474179 37.5390625 52.32421875 C40.86824677 56.80552731 44.12504286 61.33609381 47.375 65.875 C52.12306606 72.49691891 57.02919448 78.98154001 62 85.4375 C68.79126553 94.27915714 75.16104028 103.33645535 81.36621094 112.59570312 C83.11184915 115.16459809 84.89867289 117.70091654 86.6953125 120.234375 C87.60277222 121.52480713 87.60277222 121.52480713 88.52856445 122.84130859 C89.69016147 124.49110383 90.86017744 126.13501373 92.03979492 127.77197266 C92.55904541 128.51495605 93.0782959 129.25793945 93.61328125 130.0234375 C94.07516846 130.67231934 94.53705566 131.32120117 95.01293945 131.98974609 C96.26087124 134.53129205 96.34476247 136.20059618 96 139 C94.21336981 141.1491769 92.53604497 142.93903847 90.5 144.8125 C89.97535156 145.31458984 89.45070313 145.81667969 88.91015625 146.33398438 C87.61777468 147.56762133 86.31030401 148.78541625 85 150 C97.67851404 153.33645106 110.94425497 153.14675823 123.97727966 153.23414612 C125.42153457 153.24701314 126.8657861 153.26026358 128.31003433 153.27385849 C132.23246443 153.30969516 136.15491973 153.34017552 140.07740176 153.36969459 C144.32464902 153.40262655 148.57185125 153.44064912 152.81906128 153.47802734 C160.16233112 153.54196834 167.50562155 153.60274371 174.84893608 153.66131783 C185.46590198 153.74600895 196.08282267 153.83555377 206.69973875 153.92625164 C223.92846033 154.07330225 241.15721184 154.21647276 258.38598633 154.35717773 C275.11386845 154.49380036 291.84173365 154.63226617 308.56958008 154.77319336 C309.60212669 154.78189162 310.6346733 154.79058989 311.69850921 154.79955173 C316.87892267 154.8432033 322.05933583 154.88689093 327.23974884 154.93059647 C370.15978673 155.29265298 413.07987524 155.64840172 456 156 C456.06861303 197.86157745 456.12150176 239.72314843 456.15319599 281.58477094 C456.15694827 286.52290402 456.16083122 291.461037 456.16479492 296.39916992 C456.16558185 297.38229525 456.16636878 298.36542058 456.16717956 299.37833758 C456.18024622 315.31308253 456.20390698 331.24779512 456.23145839 347.18252084 C456.25947757 363.52364263 456.27616886 379.86474744 456.28226548 396.20589226 C456.28638918 406.29551824 456.29943014 416.3850528 456.3237494 426.47465064 C456.33956359 433.38622973 456.34441019 440.2977613 456.34050413 447.20935718 C456.33857583 451.20159192 456.3416056 455.19366651 456.35761642 459.18587303 C456.37215301 462.83699995 456.37299342 466.48785813 456.36269668 470.1389971 C456.36081725 472.0932814 456.37381197 474.04756227 456.38724393 476.00180131 C456.38127078 477.1538116 456.37529764 478.30582189 456.36914349 479.49274158 C456.37028265 480.49102633 456.37142181 481.48931108 456.37259549 482.51784688 C456 485 456 485 454.66442853 486.78170365 C451.25721363 489.27565121 447.99631871 489.14358803 443.92431641 489.18945312 C442.62879349 489.2062059 441.33327057 489.22295868 439.99848938 489.24021912 C438.53284853 489.25404969 437.06720615 489.26771964 435.6015625 489.28125 C434.01933936 489.29920147 432.43711999 489.31748814 430.85490417 489.33607483 C426.39853438 489.38675212 421.94211839 489.43038825 417.48566055 489.47252274 C414.61578094 489.50008855 411.74592462 489.52942619 408.87606812 489.55929565 C364.77120041 490.01592769 320.66442902 490.27460577 276.55811214 490.54558945 C273.82705309 490.56241037 271.09599485 490.57935721 268.36493683 490.59634399 C227.57648049 490.84980883 186.78946911 491.09019702 146 491 C146 490.01 146 489.02 146 488 C138.17101253 488.09258729 130.34232556 488.19993375 122.51367188 488.31738281 C119.85222447 488.35664078 117.19086667 488.3904546 114.52929688 488.421875 C110.69643269 488.46770895 106.8639112 488.52567415 103.03125 488.5859375 C101.25578796 488.60326431 101.25578796 488.60326431 99.44445801 488.62094116 C93.29774806 488.72993439 87.88742077 489.1996621 82 491 C82.33 492.98 82.66 494.96 83 497 C83.73476563 496.91363281 84.46953125 496.82726562 85.2265625 496.73828125 C88.94832796 497.0894901 89.94158217 498.41485106 92.375 501.1875 C93.08398438 501.96480469 93.79296875 502.74210937 94.5234375 503.54296875 C96 506 96 506 95.94921875 508.39453125 C94.76489413 511.64533175 93.22465463 514.55241785 91.4375 517.5 C90.86116821 518.45700806 90.86116821 518.45700806 90.27319336 519.43334961 C85.35637264 527.35067727 79.56663651 534.62704003 73.86328125 541.984375 C70.72889141 546.03002173 67.694115 550.12692748 64.75 554.3125 C61.31308194 559.19114568 57.78364554 563.98744288 54.1875 568.75 C48.22298418 576.65698632 42.42024938 584.67469896 36.64111328 592.71777344 C33.93360445 596.48299101 31.21624831 600.24108524 28.5 604 C27.42186931 605.49348547 26.34374431 606.98697506 25.265625 608.48046875 C23.05036298 611.54811348 20.83115883 614.6128571 18.609375 617.67578125 C12.30017657 626.38019739 6.06802648 635.12531528 0 644 C-4.91038538 643.4342874 -8.94040233 641.89776269 -13.3125 639.6875 C-14.00690186 639.33703613 -14.70130371 638.98657227 -15.41674805 638.62548828 C-23.84193909 634.224396 -31.38038266 628.64663596 -39 623 C-40.54242112 621.86904442 -42.08539969 620.73884875 -43.62890625 619.609375 C-47.62909352 616.67653843 -51.61649601 613.72677157 -55.6015625 610.7734375 C-57.95906357 609.03026895 -60.322141 607.29498702 -62.6875 605.5625 C-74.5703435 596.85353526 -86.3101269 587.96601917 -98 579 C-98.65258789 578.49952148 -99.30517578 577.99904297 -99.97753906 577.48339844 C-102.67015038 575.41704449 -105.35995229 573.34719067 -108.046875 571.2734375 C-110.05186938 569.72991008 -112.06250228 568.19368482 -114.078125 566.6640625 C-121.13425024 561.29376028 -127.99785355 555.73121391 -134.80981445 550.05419922 C-139.7154308 545.98885791 -144.71226665 542.21401243 -149.99609375 538.6484375 C-152 537 -152 537 -153.03515625 534.9140625 C-154.29814893 532.40853047 -155.48079024 532.20126983 -158 531 C-160.19275588 529.24465175 -162.32268838 527.46951271 -164.4375 525.625 C-165.05149658 525.09334229 -165.66549316 524.56168457 -166.2980957 524.01391602 C-172.12720459 518.9393118 -177.8540641 513.75958474 -183.46826172 508.44824219 C-184.47146518 507.49972403 -185.47818442 506.55490738 -186.48876953 505.61425781 C-205.09084928 488.24397965 -214.95306224 464.86744262 -225.2578125 442.03125 C-228.068127 435.81406327 -230.98794157 429.6521488 -233.9375 423.5 C-234.38617432 422.56285156 -234.83484863 421.62570312 -235.29711914 420.66015625 C-237.24030782 416.61450715 -239.20631267 412.58761674 -241.25390625 408.59375 C-244.21714339 402.4949174 -245.16816278 396.36406224 -243.38818359 389.71435547 C-242.55785418 387.41961786 -241.64922066 385.18022484 -240.6875 382.9375 C-240.06601043 381.42594394 -239.44491381 379.91422624 -238.82421875 378.40234375 C-237.9467553 376.28296041 -237.06944361 374.16395267 -236.17480469 372.05175781 C-233.92063236 366.46334828 -232.87468713 360.80114528 -231.875 354.875 C-231.70613281 353.91207031 -231.53726563 352.94914062 -231.36328125 351.95703125 C-230.90018085 349.30605493 -230.4465803 346.65380468 -230 344 C-229.82057861 343.04101807 -229.64115723 342.08203613 -229.45629883 341.09399414 C-225.220455 312.37229864 -231.22292145 280.75800653 -243.00463867 254.53076172 C-245.9714257 246.98754015 -243.08502716 239.79803118 -240.01025391 232.72241211 C-238.88588275 230.32291468 -237.73063536 227.94099527 -236.5625 225.5625 C-233.17951792 218.58208173 -229.87789134 211.57418925 -226.67114258 204.51098633 C-197.18272146 139.69663041 -197.18272146 139.69663041 -168.5949707 119.95849609 C-163.17022971 116.19658617 -158.07858744 112.09465214 -152.98217773 107.90283203 C-148.51356681 104.22739819 -144.00109386 100.61925634 -139.4375 97.0625 C-136.02358068 94.39956788 -132.62723388 91.73539847 -129.375 88.875 C-125.61071009 85.58473179 -121.58121964 82.66413001 -117.5703125 79.68359375 C-113.35615221 76.53440543 -109.21064164 73.29785932 -105.0625 70.0625 C-97.73030364 64.34591098 -90.38076176 58.65384596 -83 53 C-82.38398926 52.52804199 -81.76797852 52.05608398 -81.13330078 51.56982422 C-76.88318738 48.31466437 -72.62942855 45.06430723 -68.37451172 41.81542969 C-65.8736554 39.90340341 -63.3762034 37.98698455 -60.87890625 36.0703125 C-10.91899206 -2.220604 -10.91899206 -2.220604 0 0 Z " fill="#D65632" transform="translate(360,137)"/>
<path d="M0 0 C2.70034228 2.42839405 4.60923533 5.30861539 6.625 8.3125 C7.22763672 9.16972656 7.83027344 10.02695313 8.45117188 10.91015625 C10.32608217 13.5902788 12.16615616 16.29165235 14 19 C15.10089337 20.60853108 16.20243023 22.21662198 17.3046875 23.82421875 C18.90914715 26.16908546 20.51065486 28.51573092 22.10400391 30.86816406 C27.05840606 38.16418417 32.27839315 45.2474179 37.5390625 52.32421875 C40.86824677 56.80552731 44.12504286 61.33609381 47.375 65.875 C52.12306606 72.49691891 57.02919448 78.98154001 62 85.4375 C68.79126553 94.27915714 75.16104028 103.33645535 81.36621094 112.59570312 C83.11184915 115.16459809 84.89867289 117.70091654 86.6953125 120.234375 C87.60277222 121.52480713 87.60277222 121.52480713 88.52856445 122.84130859 C89.69016147 124.49110383 90.86017744 126.13501373 92.03979492 127.77197266 C92.55904541 128.51495605 93.0782959 129.25793945 93.61328125 130.0234375 C94.07516846 130.67231934 94.53705566 131.32120117 95.01293945 131.98974609 C96.26087124 134.53129205 96.34476247 136.20059618 96 139 C94.21336981 141.1491769 92.53604497 142.93903847 90.5 144.8125 C89.97535156 145.31458984 89.45070313 145.81667969 88.91015625 146.33398438 C87.61777468 147.56762133 86.31030401 148.78541625 85 150 C86.65 150.66 88.3 151.32 90 152 C90 152.33 90 152.66 90 153 C79.599412 154.3592367 69.30806208 155.20921744 58.8125 155.25 C57.85786865 155.25902344 56.9032373 155.26804687 55.91967773 155.27734375 C50.24654595 155.25338753 45.45515999 154.53517929 40 153 C38.33908458 152.74991898 36.67230412 152.53177851 35 152.375 C34.236875 152.30023438 33.47375 152.22546875 32.6875 152.1484375 C31.8521875 152.07496094 31.8521875 152.07496094 31 152 C31 151.34 31 150.68 31 150 C20.64594713 150.03820061 10.29225181 150.09776971 -0.06151962 150.18390274 C-4.87029039 150.22325081 -9.6788815 150.25550102 -14.48779297 150.27099609 C-19.13701071 150.28624667 -23.78573412 150.3208393 -28.43473053 150.36830902 C-30.19989959 150.38303676 -31.96513927 150.39103602 -33.73036957 150.39188385 C-47.3276005 150.40497101 -57.84574015 152.06908148 -69.5390625 159.54296875 C-73.48976039 161.88203274 -77.71452597 163.39294724 -82 165 C-82.66 165.33 -83.32 165.66 -84 166 C-84.05027344 167.63388672 -84.05027344 167.63388672 -84.1015625 169.30078125 C-85 173 -85 173 -86.54980469 174.22412109 C-88.78886332 175.33076374 -91.05101716 176.2723565 -93.375 177.1875 C-113.66301975 186.00453463 -130.61073852 199.12956006 -146.82421875 214.0078125 C-149.53944761 216.49392869 -152.32084754 218.89816839 -155.11328125 221.296875 C-157.49547981 223.44726542 -159.73653528 225.72563205 -162 228 C-121.10310763 228.04666916 -80.20621895 228.08145462 -39.30930489 228.10213066 C-34.38507691 228.1046295 -29.46084899 228.10721839 -24.53662109 228.10986328 C-23.06727968 228.11065021 -23.06727968 228.11065021 -21.5682546 228.11145304 C-7.98384521 228.11891309 5.60055201 228.13114777 19.18495354 228.14746973 C98.68952461 228.24294272 178.18219426 228.23313236 257.6796875 227.0546875 C258.42011679 227.04376251 259.16054608 227.03283752 259.92341262 227.02158147 C288.21964448 226.60356109 316.51355316 226.13126778 344.80304122 225.37463081 C358.09965085 225.02016743 371.38604278 224.86485502 384.6875 224.90234375 C386.76025355 224.90422317 388.83300756 224.90563978 390.90576172 224.90663147 C396.1988461 224.91033735 401.49190023 224.92005521 406.78497314 224.93133545 C412.25117585 224.94181645 417.71738376 224.94618442 423.18359375 224.95117188 C433.78907534 224.9616968 444.3945351 224.97861645 455 225 C455 226.32 455 227.64 455 229 C404.24142948 230.99763124 353.4726658 232.45520169 302.6875 233.5625 C301.97011658 233.57814735 301.25273315 233.5937947 300.51361084 233.60991621 C239.36975852 234.94100102 178.22089646 235.87485149 117.06803882 236.67470032 C104.0354845 236.84530044 91.00322966 237.01905012 77.97167969 237.25537109 C76.33528666 237.28484201 74.6988934 237.31429978 73.0625 237.34375 C71.86816156 237.36554416 70.67382313 237.38733831 69.44329262 237.4097929 C59.29766358 237.59148208 49.15213015 237.71947744 39.00537109 237.81762695 C38.20201159 237.82551983 37.39865209 237.8334127 36.57094836 237.84154475 C10.33624507 238.09732448 -15.89898262 238.21240057 -42.13480282 238.27326298 C-43.82571859 238.27719685 -45.51663433 238.28114092 -47.20755005 238.28509521 C-48.04426139 238.28704987 -48.88097273 238.28900453 -49.74303895 238.29101843 C-55.5727931 238.30561417 -61.40244937 238.33027837 -67.23214722 238.35943604 C-74.41867148 238.39513619 -81.6050625 238.41544555 -88.79167747 238.41802746 C-92.51519926 238.4197233 -96.23840968 238.42752793 -99.96184921 238.45331383 C-142.79184359 238.73605214 -142.79184359 238.73605214 -160 233 C-164.3587487 232.30999382 -168.30520008 231.98236344 -172.1875 234.31347656 C-174.27385819 236.14617109 -176.13746258 238.06579714 -178 240.125 C-178.65355469 240.79015625 -179.30710937 241.4553125 -179.98046875 242.140625 C-183.51296697 245.85521076 -185.84945072 248.87046781 -187 254 C-186.48993408 254.45858398 -185.97986816 254.91716797 -185.4543457 255.38964844 C-180.04137073 260.4885255 -176.55682344 265.65805806 -173.1875 272.25 C-172.26695465 274.00659001 -171.34386642 275.76185029 -170.41796875 277.515625 C-170.02375732 278.28165039 -169.6295459 279.04767578 -169.22338867 279.83691406 C-168.02911407 282.06508607 -168.02911407 282.06508607 -166.34887695 284.15527344 C-165 286 -165 286 -165 288 C-164.43796875 288.26683594 -163.8759375 288.53367187 -163.296875 288.80859375 C-160.8327333 290.08676249 -158.56107799 291.52555761 -156.25 293.0625 C-155.45078125 293.58972656 -154.6515625 294.11695313 -153.828125 294.66015625 C-153.22484375 295.10230469 -152.6215625 295.54445313 -152 296 C-152 296.33 -152 296.66 -152 297 C-153.65 297 -155.3 297 -157 297 C-156.55527344 298.19496094 -156.11054688 299.38992188 -155.65234375 300.62109375 C-155.07975635 302.2262158 -154.50819638 303.83170463 -153.9375 305.4375 C-153.64294922 306.22060547 -153.34839844 307.00371094 -153.04492188 307.81054688 C-151.0066326 313.6376562 -150.85194921 317.97257168 -152 324 C-152.12818115 324.78238037 -152.2563623 325.56476074 -152.38842773 326.37084961 C-156.30381053 349.62677242 -165.19673395 367.96258175 -180.9375 385.4375 C-183.59627119 388.42940327 -185.64062613 391.17676098 -187 395 C-186.66133173 399.53815478 -184.83199439 401.81721217 -181.8125 405.125 C-181.05582031 405.97320313 -180.29914063 406.82140625 -179.51953125 407.6953125 C-174.57286168 412.22017304 -170.24075942 413.37543588 -163.625 413.6875 C-162.37976563 413.75324219 -161.13453125 413.81898438 -159.8515625 413.88671875 C-158.91054687 413.92410156 -157.96953125 413.96148438 -157 414 C-158.32 414.66 -159.64 415.32 -161 416 C-161 419.20149283 -158.71694716 420.54587028 -156.58251953 422.69555664 C-155.95716309 423.31164795 -155.33180664 423.92773926 -154.6875 424.5625 C-154.0466748 425.19728271 -153.40584961 425.83206543 -152.74560547 426.48608398 C-146.84376118 432.2666575 -140.57155086 437.42497563 -134.06689453 442.51171875 C-131.93363949 444.18688848 -129.8106688 445.87457354 -127.6875 447.5625 C-127.01734863 448.08078369 -126.34719727 448.59906738 -125.65673828 449.13305664 C-122.1993451 451.88543138 -119.47067798 454.54689725 -116.91796875 458.16796875 C-109.88977594 468.00038108 -95.25056765 470.84267466 -84 473 C-81.3361056 473.37956746 -78.67430542 473.69758409 -76 474 C-76 474.33 -76 474.66 -76 475 C-77.98 475 -79.96 475 -82 475 C-79.16997273 483.90089222 -69.04550351 487.69657844 -61.25 491.73828125 C-51.67808708 495.45430033 -41.87879434 495.35327153 -31.75 495.3125 C-30.51490189 495.3122583 -30.51490189 495.3122583 -29.25485229 495.31201172 C-4.67304878 495.27989926 19.90342661 494.08320079 44.45996094 493.06762695 C45.30346509 493.03288867 46.14696924 492.99815039 47.01603413 492.96235943 C51.01830062 492.79731314 55.02043717 492.62993555 59.02238464 492.45732117 C66.3527051 492.14658956 73.66125078 491.92403981 81 492 C81.66 493.65 82.32 495.3 83 497 C83.73476563 496.91363281 84.46953125 496.82726562 85.2265625 496.73828125 C88.94832796 497.0894901 89.94158217 498.41485106 92.375 501.1875 C93.08398438 501.96480469 93.79296875 502.74210937 94.5234375 503.54296875 C96 506 96 506 95.94921875 508.39453125 C94.76489413 511.64533175 93.22465463 514.55241785 91.4375 517.5 C90.86116821 518.45700806 90.86116821 518.45700806 90.27319336 519.43334961 C85.35637264 527.35067727 79.56663651 534.62704003 73.86328125 541.984375 C70.72889141 546.03002173 67.694115 550.12692748 64.75 554.3125 C61.31308194 559.19114568 57.78364554 563.98744288 54.1875 568.75 C48.22298418 576.65698632 42.42024938 584.67469896 36.64111328 592.71777344 C33.93360445 596.48299101 31.21624831 600.24108524 28.5 604 C27.42186931 605.49348547 26.34374431 606.98697506 25.265625 608.48046875 C23.05036298 611.54811348 20.83115883 614.6128571 18.609375 617.67578125 C12.30017657 626.38019739 6.06802648 635.12531528 0 644 C-4.91038538 643.4342874 -8.94040233 641.89776269 -13.3125 639.6875 C-14.00690186 639.33703613 -14.70130371 638.98657227 -15.41674805 638.62548828 C-23.84193909 634.224396 -31.38038266 628.64663596 -39 623 C-40.54242112 621.86904442 -42.08539969 620.73884875 -43.62890625 619.609375 C-47.62909352 616.67653843 -51.61649601 613.72677157 -55.6015625 610.7734375 C-57.95906357 609.03026895 -60.322141 607.29498702 -62.6875 605.5625 C-74.5703435 596.85353526 -86.3101269 587.96601917 -98 579 C-98.65258789 578.49952148 -99.30517578 577.99904297 -99.97753906 577.48339844 C-102.67015038 575.41704449 -105.35995229 573.34719067 -108.046875 571.2734375 C-110.05186938 569.72991008 -112.06250228 568.19368482 -114.078125 566.6640625 C-121.13425024 561.29376028 -127.99785355 555.73121391 -134.80981445 550.05419922 C-139.7154308 545.98885791 -144.71226665 542.21401243 -149.99609375 538.6484375 C-152 537 -152 537 -153.03515625 534.9140625 C-154.29814893 532.40853047 -155.48079024 532.20126983 -158 531 C-160.19275588 529.24465175 -162.32268838 527.46951271 -164.4375 525.625 C-165.05149658 525.09334229 -165.66549316 524.56168457 -166.2980957 524.01391602 C-172.12720459 518.9393118 -177.8540641 513.75958474 -183.46826172 508.44824219 C-184.47146518 507.49972403 -185.47818442 506.55490738 -186.48876953 505.61425781 C-205.09084928 488.24397965 -214.95306224 464.86744262 -225.2578125 442.03125 C-228.068127 435.81406327 -230.98794157 429.6521488 -233.9375 423.5 C-234.38617432 422.56285156 -234.83484863 421.62570312 -235.29711914 420.66015625 C-237.24030782 416.61450715 -239.20631267 412.58761674 -241.25390625 408.59375 C-244.21714339 402.4949174 -245.16816278 396.36406224 -243.38818359 389.71435547 C-242.55785418 387.41961786 -241.64922066 385.18022484 -240.6875 382.9375 C-240.06601043 381.42594394 -239.44491381 379.91422624 -238.82421875 378.40234375 C-237.9467553 376.28296041 -237.06944361 374.16395267 -236.17480469 372.05175781 C-233.92063236 366.46334828 -232.87468713 360.80114528 -231.875 354.875 C-231.70613281 353.91207031 -231.53726563 352.94914062 -231.36328125 351.95703125 C-230.90018085 349.30605493 -230.4465803 346.65380468 -230 344 C-229.82057861 343.04101807 -229.64115723 342.08203613 -229.45629883 341.09399414 C-225.220455 312.37229864 -231.22292145 280.75800653 -243.00463867 254.53076172 C-245.9714257 246.98754015 -243.08502716 239.79803118 -240.01025391 232.72241211 C-238.88588275 230.32291468 -237.73063536 227.94099527 -236.5625 225.5625 C-233.17951792 218.58208173 -229.87789134 211.57418925 -226.67114258 204.51098633 C-197.18272146 139.69663041 -197.18272146 139.69663041 -168.5949707 119.95849609 C-163.17022971 116.19658617 -158.07858744 112.09465214 -152.98217773 107.90283203 C-148.51356681 104.22739819 -144.00109386 100.61925634 -139.4375 97.0625 C-136.02358068 94.39956788 -132.62723388 91.73539847 -129.375 88.875 C-125.61071009 85.58473179 -121.58121964 82.66413001 -117.5703125 79.68359375 C-113.35615221 76.53440543 -109.21064164 73.29785932 -105.0625 70.0625 C-97.73030364 64.34591098 -90.38076176 58.65384596 -83 53 C-82.38398926 52.52804199 -81.76797852 52.05608398 -81.13330078 51.56982422 C-76.88318738 48.31466437 -72.62942855 45.06430723 -68.37451172 41.81542969 C-65.8736554 39.90340341 -63.3762034 37.98698455 -60.87890625 36.0703125 C-10.91899206 -2.220604 -10.91899206 -2.220604 0 0 Z " fill="#34211E" transform="translate(360,137)"/>
<path d="M0 0 C1.76742425 0.06782674 3.53487091 0.13507165 5.30233765 0.20178223 C9.81648016 0.37364008 14.3302866 0.55305613 18.84405518 0.73443604 C23.50522395 0.92026853 28.16668694 1.09841706 32.828125 1.27734375 C41.87269147 1.62558261 50.91687831 1.98257678 59.9609375 2.34375 C59.9609375 10.59375 59.9609375 18.84375 59.9609375 27.34375 C47.58642367 28.4687058 47.58642367 28.4687058 43.25692749 28.53320312 C42.2703566 28.54996094 41.28378571 28.56671875 40.26731873 28.58398438 C39.22696976 28.59751953 38.18662079 28.61105469 37.11474609 28.625 C35.98642868 28.64304687 34.85811127 28.66109375 33.69560242 28.6796875 C31.26545336 28.71804397 28.83527415 28.7545281 26.40507126 28.78930664 C22.55388179 28.84454596 18.70280473 28.90500953 14.85171509 28.96679688 C5.98615881 29.10806417 -2.87950415 29.24187356 -11.74518585 29.375 C-20.53292618 29.50700738 -29.32059675 29.64232112 -38.10819626 29.78344727 C-41.89310208 29.84280862 -45.67805893 29.89708259 -49.46304321 29.95117188 C-51.79258622 29.98802755 -54.12212544 30.02512416 -56.45166016 30.0625 C-57.49605759 30.07603516 -58.54045502 30.08957031 -59.61650085 30.10351562 C-65.48998559 30.20385574 -71.21112225 30.59913024 -77.0390625 31.34375 C-77.0390625 34.31375 -77.0390625 37.28375 -77.0390625 40.34375 C-71.80993396 40.27435036 -66.58156565 40.18613768 -61.35302734 40.08129883 C-59.57837435 40.04826779 -57.80362181 40.02016965 -56.02880859 39.99731445 C-39.55012423 40.18261167 -39.55012423 40.18261167 -25.0390625 33.34375 C-25.6990625 32.35375 -26.3590625 31.36375 -27.0390625 30.34375 C1.6709375 30.34375 30.3809375 30.34375 59.9609375 30.34375 C59.9609375 41.56375 59.9609375 52.78375 59.9609375 64.34375 C43.35968094 64.44805791 26.81317968 64.03620461 10.22265625 63.46875 C7.51742292 63.37837718 4.81215511 63.28905652 2.10688782 63.19970703 C-4.22488296 62.98999128 -10.55653064 62.77677849 -16.88813895 62.56221962 C-24.11209607 62.31759896 -31.33618594 62.07701326 -38.56028807 61.83671951 C-53.38669492 61.3434639 -68.21293356 60.84529374 -83.0390625 60.34375 C-83.0390625 61.00375 -83.0390625 61.66375 -83.0390625 62.34375 C-171.73448997 62.76279474 -260.3970626 61.51227215 -349.0390625 58.34375 C-349.0390625 59.66375 -349.0390625 60.98375 -349.0390625 62.34375 C-348.0490625 62.01375 -347.0590625 61.68375 -346.0390625 61.34375 C-343.31585615 61.25247186 -340.61876524 61.21773781 -337.89575195 61.23022461 C-336.65151459 61.23000557 -336.65151459 61.23000557 -335.38214111 61.2297821 C-332.63884878 61.23047908 -329.89562423 61.23826147 -327.15234375 61.24609375 C-325.25091082 61.24795869 -323.34947741 61.24938224 -321.44804382 61.25038147 C-316.44211502 61.25420064 -311.4362152 61.26402584 -306.43029785 61.27508545 C-301.32267652 61.28531244 -296.2150505 61.28988185 -291.10742188 61.29492188 C-281.08462268 61.30564862 -271.061845 61.32271788 -261.0390625 61.34375 C-261.34951982 63.2607486 -261.66250921 65.17733723 -261.9765625 67.09375 C-262.23759766 68.69476563 -262.23759766 68.69476563 -262.50390625 70.328125 C-262.92219053 72.68517219 -263.45846275 75.021351 -264.0390625 77.34375 C-270.9690625 77.01375 -277.8990625 76.68375 -285.0390625 76.34375 C-285.3690625 77.66375 -285.6990625 78.98375 -286.0390625 80.34375 C-289.18481457 80.40271868 -292.3304211 80.43766603 -295.4765625 80.46875 C-296.35505859 80.48550781 -297.23355469 80.50226563 -298.13867188 80.51953125 C-306.00425777 80.57757985 -313.45363374 80.01728009 -320.0390625 75.34375 C-320.3690625 78.97375 -320.6990625 82.60375 -321.0390625 86.34375 C-349.1233171 87.18256918 -377.16515182 87.44294509 -405.26027727 87.24321485 C-410.4170117 87.20793932 -415.57378673 87.1799741 -420.7305603 87.15110779 C-430.41900504 87.09582754 -440.10739908 87.03433363 -449.79579008 86.97038645 C-460.85819317 86.89768939 -471.9206359 86.83225557 -482.98308682 86.76731598 C-505.66846352 86.63398995 -528.35377822 86.49191925 -551.0390625 86.34375 C-550.89193854 84.2552315 -550.74097461 82.16698326 -550.58837891 80.07885742 C-550.50472076 78.91593674 -550.42106262 77.75301605 -550.33486938 76.55485535 C-550.01885522 73.12439162 -549.359906 69.96670226 -548.4140625 66.65625 C-546.08467496 57.0862539 -547.88796498 49.9567453 -551.19921875 40.8125 C-552.0390625 38.34375 -552.0390625 38.34375 -552.0390625 36.34375 C-550.5540625 35.84875 -550.5540625 35.84875 -549.0390625 35.34375 C-549.55855469 34.96863281 -550.07804687 34.59351563 -550.61328125 34.20703125 C-559.12500297 27.96090644 -566.68385081 20.64514428 -569.671875 10.11328125 C-569.9140625 8.28125 -569.9140625 8.28125 -570.0390625 5.34375 C-570.3690625 4.35375 -570.6990625 3.36375 -571.0390625 2.34375 C-570.25918341 2.34239347 -569.47930431 2.34103694 -568.67579252 2.33963931 C-521.78015957 2.25783964 -474.8845529 2.1664597 -427.988961 2.06369839 C-422.27673912 2.05118909 -416.56451707 2.03875484 -410.85229492 2.02636719 C-409.71575335 2.02390119 -408.57921178 2.0214352 -407.40822955 2.01889448 C-391.55626818 1.98465456 -375.70430375 1.95442752 -359.85232829 1.92752668 C-332.49397515 1.88109559 -305.13565069 1.82649132 -277.77734375 1.7578125 C-276.70794015 1.75514803 -275.63853655 1.75248355 -274.53672677 1.74973834 C-208.12927372 1.58302726 -141.75031964 0.99451579 -75.35524356 -0.30327487 C-50.22771574 -0.78952096 -25.11774187 -1.0348032 0 0 Z " fill="#E55C35" transform="translate(755.0390625,397.65625)"/>
<path d="M0 0 C2.61359748 2.35305194 4.70348474 4.79432522 6.83203125 7.58984375 C10.30072278 11.44602875 13.5456044 12.7960109 18.6484375 13.51171875 C19.87820312 13.56972656 21.10796875 13.62773438 22.375 13.6875 C23.62023437 13.75324219 24.86546875 13.81898438 26.1484375 13.88671875 C27.08945313 13.92410156 28.03046875 13.96148438 29 14 C27.68 14.66 26.36 15.32 25 16 C25 19.20149283 27.28305284 20.54587028 29.41748047 22.69555664 C30.04283691 23.31164795 30.66819336 23.92773926 31.3125 24.5625 C31.9533252 25.19728271 32.59415039 25.83206543 33.25439453 26.48608398 C39.15623882 32.2666575 45.42844914 37.42497563 51.93310547 42.51171875 C54.06636051 44.18688848 56.1893312 45.87457354 58.3125 47.5625 C58.98265137 48.08078369 59.65280273 48.59906738 60.34326172 49.13305664 C63.8006549 51.88543138 66.52932202 54.54689725 69.08203125 58.16796875 C76.11022406 68.00038108 90.74943235 70.84267466 102 73 C104.6638944 73.37956746 107.32569458 73.69758409 110 74 C110 74.33 110 74.66 110 75 C108.02 75 106.04 75 104 75 C106.83002727 83.90089222 116.95449649 87.69657844 124.75 91.73828125 C134.32191292 95.45430033 144.12120566 95.35327153 154.25 95.3125 C155.48509811 95.3122583 155.48509811 95.3122583 156.74514771 95.31201172 C181.32695122 95.27989926 205.90342661 94.08320079 230.45996094 93.06762695 C231.30346509 93.03288867 232.14696924 92.99815039 233.01603413 92.96235943 C237.01830062 92.79731314 241.02043717 92.62993555 245.02238464 92.45732117 C252.3527051 92.14658956 259.66125078 91.92403981 267 92 C267.66 93.65 268.32 95.3 269 97 C269.73476563 96.91363281 270.46953125 96.82726562 271.2265625 96.73828125 C274.94832796 97.0894901 275.94158217 98.41485106 278.375 101.1875 C279.08398438 101.96480469 279.79296875 102.74210938 280.5234375 103.54296875 C282 106 282 106 281.94921875 108.39453125 C280.76489413 111.64533175 279.22465463 114.55241785 277.4375 117.5 C276.86116821 118.45700806 276.86116821 118.45700806 276.27319336 119.43334961 C271.35637264 127.35067727 265.56663651 134.62704003 259.86328125 141.984375 C256.72889141 146.03002173 253.694115 150.12692748 250.75 154.3125 C247.31308194 159.19114568 243.78364554 163.98744288 240.1875 168.75 C234.22298418 176.65698632 228.42024938 184.67469896 222.64111328 192.71777344 C219.93360445 196.48299101 217.21624831 200.24108524 214.5 204 C213.42186931 205.49348547 212.34374431 206.98697506 211.265625 208.48046875 C209.05036298 211.54811348 206.83115883 214.6128571 204.609375 217.67578125 C198.30017657 226.38019739 192.06802648 235.12531528 186 244 C181.08961462 243.4342874 177.05959767 241.89776269 172.6875 239.6875 C171.99309814 239.33703613 171.29869629 238.98657227 170.58325195 238.62548828 C162.15806091 234.224396 154.61961734 228.64663596 147 223 C145.45757888 221.86904442 143.91460031 220.73884875 142.37109375 219.609375 C138.37090648 216.67653843 134.38350399 213.72677157 130.3984375 210.7734375 C128.04093643 209.03026895 125.677859 207.29498702 123.3125 205.5625 C111.4296565 196.85353526 99.6898731 187.96601917 88 179 C87.34741211 178.49952148 86.69482422 177.99904297 86.02246094 177.48339844 C83.32984962 175.41704449 80.64004771 173.34719067 77.953125 171.2734375 C75.94813062 169.72991008 73.93749772 168.19368482 71.921875 166.6640625 C64.86574976 161.29376028 58.00214645 155.73121391 51.19018555 150.05419922 C46.2845692 145.98885791 41.28773335 142.21401243 36.00390625 138.6484375 C34 137 34 137 32.96484375 134.9140625 C31.70185107 132.40853047 30.51920976 132.20126983 28 131 C25.80724412 129.24465175 23.67731162 127.46951271 21.5625 125.625 C20.94850342 125.09334229 20.33450684 124.56168457 19.7019043 124.01391602 C13.87279541 118.9393118 8.1459359 113.75958474 2.53173828 108.44824219 C1.52853482 107.49972403 0.52181558 106.55490738 -0.48876953 105.61425781 C-19.20162812 88.14053642 -29.1931817 64.50225365 -39.5078125 41.5 C-41.02749942 38.11360187 -42.58819867 34.76033829 -44.2421875 31.4375 C-44.57500732 30.76138672 -44.90782715 30.08527344 -45.25073242 29.38867188 C-46.10816211 27.65995776 -46.9810439 25.93893003 -47.85546875 24.21875 C-49.28109256 20.20948714 -49.20698325 17.23165765 -49 13 C-48.43192627 12.86013672 -47.86385254 12.72027344 -47.27856445 12.57617188 C-36.40706932 9.8420892 -26.74891112 7.08788624 -17.49609375 0.63671875 C-11.88356963 -3.04348094 -6.12105098 -2.40529103 0 0 Z " fill="#1F1A1A" transform="translate(174,537)"/>
<path d="M0 0 C2.70034228 2.42839405 4.60923533 5.30861539 6.625 8.3125 C7.22763672 9.16972656 7.83027344 10.02695313 8.45117188 10.91015625 C10.32608217 13.5902788 12.16615616 16.29165235 14 19 C15.10089337 20.60853108 16.20243023 22.21662198 17.3046875 23.82421875 C18.90914715 26.16908546 20.51065486 28.51573092 22.10400391 30.86816406 C27.05840606 38.16418417 32.27839315 45.2474179 37.5390625 52.32421875 C40.86824677 56.80552731 44.12504286 61.33609381 47.375 65.875 C52.12306606 72.49691891 57.02919448 78.98154001 62 85.4375 C68.79126553 94.27915714 75.16104028 103.33645535 81.36621094 112.59570312 C83.11184915 115.16459809 84.89867289 117.70091654 86.6953125 120.234375 C87.60277222 121.52480713 87.60277222 121.52480713 88.52856445 122.84130859 C89.69016147 124.49110383 90.86017744 126.13501373 92.03979492 127.77197266 C92.81867065 128.88644775 92.81867065 128.88644775 93.61328125 130.0234375 C94.07516846 130.67231934 94.53705566 131.32120117 95.01293945 131.98974609 C96.26087124 134.53129205 96.34476247 136.20059618 96 139 C94.21336981 141.1491769 92.53604497 142.93903847 90.5 144.8125 C89.97535156 145.31458984 89.45070313 145.81667969 88.91015625 146.33398438 C87.61777468 147.56762133 86.31030401 148.78541625 85 150 C86.65 150.66 88.3 151.32 90 152 C90 152.33 90 152.66 90 153 C79.599412 154.3592367 69.30806208 155.20921744 58.8125 155.25 C57.85786865 155.25902344 56.9032373 155.26804687 55.91967773 155.27734375 C50.24654595 155.25338753 45.45515999 154.53517929 40 153 C38.33908458 152.74991898 36.67230412 152.53177851 35 152.375 C34.236875 152.30023438 33.47375 152.22546875 32.6875 152.1484375 C32.130625 152.09945312 31.57375 152.05046875 31 152 C31 151.34 31 150.68 31 150 C29.79730469 150.0314209 28.59460938 150.0628418 27.35546875 150.09521484 C-4.67955194 150.85319915 -35.48707172 148.53122603 -67.14053345 143.6713562 C-78.22899346 141.97390656 -89.08166685 141.72166558 -100.27954102 141.79418945 C-103.16626982 141.81236632 -106.05267309 141.81469862 -108.93945312 141.81445312 C-118.50658238 141.83225499 -128.05555149 142.01507336 -137.61328125 142.44921875 C-138.92065498 142.5069622 -138.92065498 142.5069622 -140.25444031 142.56587219 C-144.27200156 142.76843977 -148.06479509 143.11368432 -152 144 C-153.93651019 144.06533435 -155.87502861 144.08584303 -157.8125 144.0625 C-158.78832031 144.05347656 -159.76414063 144.04445313 -160.76953125 144.03515625 C-161.87361328 144.01775391 -161.87361328 144.01775391 -163 144 C-163 141.03 -163 138.06 -163 135 C-161.12616097 134.20558928 -159.25087114 133.41460026 -157.375 132.625 C-156.33085937 132.18414062 -155.28671875 131.74328125 -154.2109375 131.2890625 C-145.24906716 127.69123134 -145.24906716 127.69123134 -140 128 C-140 127.34 -140 126.68 -140 126 C-147.28640866 123.68006154 -154.50387484 121.52463563 -162 120 C-160.63294371 118.38757463 -159.26229251 116.77812453 -157.87890625 115.1796875 C-156.60119353 113.6974345 -155.33862429 112.20202113 -154.08984375 110.6953125 C-148.23786657 103.84795229 -141.64291738 98.57550282 -134.5078125 93.16308594 C-132.73730848 91.79736684 -131.04739167 90.35883771 -129.375 88.875 C-125.61071009 85.58473179 -121.58121964 82.66413001 -117.5703125 79.68359375 C-113.35615221 76.53440543 -109.21064164 73.29785932 -105.0625 70.0625 C-97.73030364 64.34591098 -90.38076176 58.65384596 -83 53 C-82.38398926 52.52804199 -81.76797852 52.05608398 -81.13330078 51.56982422 C-76.88318738 48.31466437 -72.62942855 45.06430723 -68.37451172 41.81542969 C-65.8736554 39.90340341 -63.3762034 37.98698455 -60.87890625 36.0703125 C-10.91899206 -2.220604 -10.91899206 -2.220604 0 0 Z " fill="#221D1F" transform="translate(360,137)"/>
<path d="M0 0 C3.62906974 0.00463182 7.25812251 -0.00251399 10.88718855 -0.00795984 C17.98259117 -0.0167701 25.07795099 -0.01496196 32.17335515 -0.00913456 C38.00923971 -0.00455018 43.84511259 -0.00403387 49.68099844 -0.00618219 C50.52367924 -0.00648866 51.36636003 -0.00679513 52.2345766 -0.00711088 C53.94966324 -0.00775071 55.66474988 -0.00839914 57.37983651 -0.00905606 C73.43406768 -0.01474403 89.48827596 -0.00824331 105.54250336 0.00254467 C119.00893736 0.01132036 132.47533602 0.00996626 145.94176924 0.00070715 C231.23555729 -0.05631451 316.49385849 0.28358029 411.45214236 2.19491029 C414.75795938 2.26268114 418.06378751 2.3298876 421.36961806 2.39699507 C502.03857058 4.03744594 502.03857058 4.03744594 539.95177901 5.79660559 C540.66098494 5.82883718 541.37019087 5.86106878 542.10088789 5.8942771 C548.64967692 6.21481661 555.15169832 6.75789746 561.69787276 7.26144934 C562.68787276 16.50144934 563.67787276 25.74144934 564.69787276 35.26144934 C537.33912736 35.40154276 510.01242353 34.93274529 482.66010039 34.37706012 C468.12839818 34.08187034 453.59635985 33.80414196 439.06431714 33.52630496 C436.74550723 33.48195687 434.42669875 33.43753463 432.10789049 33.39310026 C314.87897456 31.11262096 314.87897456 31.11262096 126.9105612 29.76111364 C121.20764293 29.76210071 115.50474093 29.75818327 109.8018257 29.75263977 C65.08312499 29.71062017 20.48517543 29.8695669 -24.16076982 32.62277746 C-49.92071311 34.20506643 -49.92071311 34.20506643 -55.41150224 30.01535559 C-63.96457683 22.08078845 -63.96457683 22.08078845 -66.30212724 18.26144934 C-66.15856787 14.2571683 -65.12424449 11.36868018 -62.98962724 8.01144934 C-62.58099443 7.34629309 -62.17236162 6.68113684 -61.75134599 5.99582434 C-59.49434294 3.29472095 -57.21487266 2.4074113 -53.75992042 1.85491157 C-52.801223 1.78324326 -51.84252559 1.71157496 -50.85477674 1.63773489 C-49.76183303 1.55511963 -48.66888933 1.47250436 -47.54282612 1.38738561 C-46.35761653 1.30991416 -45.17240694 1.23244272 -43.95128191 1.15262365 C-42.70530023 1.0683689 -41.45931855 0.98411414 -40.17557985 0.8973062 C-26.78663863 0.06247216 -13.41158412 -0.02548001 0 0 Z " fill="#E65C35" transform="translate(238.30212724208832,517.7385506629944)"/>
<path d="M0 0 C3.84609109 0.01048733 7.69214427 0.01042233 11.53824711 0.01001072 C79.99289683 0.01144942 148.43983127 1.46700712 216.87532455 2.93608934 C224.06242075 3.09013186 231.24957459 3.24123137 238.43676758 3.39068604 C278.44109095 4.22288515 318.44462043 5.07328773 358.44194913 6.19873738 C360.66475033 6.26104406 362.88757668 6.32237348 365.11041069 6.38349724 C369.17684505 6.49575318 373.24308822 6.61381 377.30932617 6.73297119 C379.04680839 6.78102118 379.04680839 6.78102118 380.81939125 6.83004189 C388.78642032 7.07208418 396.71833556 7.57510004 404.66455078 8.19561768 C404.66455078 9.18561768 404.66455078 10.17561768 404.66455078 11.19561768 C421.16455078 11.19561768 437.66455078 11.19561768 454.66455078 11.19561768 C453.17955078 17.13561768 453.17955078 17.13561768 451.66455078 23.19561768 C449.35455078 23.19561768 447.04455078 23.19561768 444.66455078 23.19561768 C444.60396484 23.81050049 444.54337891 24.4253833 444.48095703 25.05889893 C444.39716797 25.86714111 444.31337891 26.6753833 444.22705078 27.50811768 C444.14583984 28.30862549 444.06462891 29.1091333 443.98095703 29.93389893 C443.66455078 32.19561768 443.66455078 32.19561768 442.66455078 35.19561768 C424.24298003 35.49489338 405.8692669 35.09752662 387.45910645 34.45309448 C299.88632787 31.39572411 212.28266062 30.67623868 124.66455078 30.19561768 C123.70396822 30.19034058 122.74338566 30.18506348 121.75369453 30.17962646 C56.72412403 29.82267185 -8.30561586 29.50056805 -73.33544922 29.19561768 C-73.33544922 30.51561768 -73.33544922 31.83561768 -73.33544922 33.19561768 C-87.76876963 34.1963872 -100.54805066 30.93657128 -112.33544922 22.19561768 C-114.96044922 19.88311768 -114.96044922 19.88311768 -116.33544922 17.19561768 C-116.46972656 14.9644165 -116.46972656 14.9644165 -116.42138672 12.52764893 C-116.40897949 11.71658691 -116.39657227 10.9055249 -116.38378906 10.06988525 C-116.36783691 9.45137695 -116.35188477 8.83286865 -116.33544922 8.19561768 C-115.39572266 8.18143799 -114.45599609 8.1672583 -113.48779297 8.15264893 C-102.05328493 7.81475978 -90.98088686 6.1568187 -79.73364258 4.09918213 C-53.3458389 -0.5207235 -26.68751617 -0.09021163 0 0 Z " fill="#E35A34" transform="translate(357.33544921875,576.8043823242188)"/>
<path d="M0 0 C1.40329416 0.13698687 2.806615 0.2737008 4.20996094 0.41015625 C6.37848914 0.62147005 8.54692576 0.83358148 10.71514893 1.04800415 C14.99041194 1.47051968 19.26673912 1.87608314 23.54534912 2.26322937 C25.57124301 2.44717518 27.59670324 2.63529912 29.62207031 2.82495117 C32.13123175 3.05953344 34.64097834 3.28797262 37.15136719 3.5090332 C58.59865523 5.56642418 58.59865523 5.56642418 66.25 11.6875 C67.265625 14.95703125 67.265625 14.95703125 67.25 18.6875 C65.46115582 21.08170601 64.00939556 22.70437667 61.8125 24.625 C61.28333984 25.11806641 60.75417969 25.61113281 60.20898438 26.11914062 C58.90668618 27.32757949 57.58054487 28.5102339 56.25 29.6875 C57.9 30.3475 59.55 31.0075 61.25 31.6875 C61.25 32.0175 61.25 32.3475 61.25 32.6875 C50.849412 34.0467367 40.55806208 34.89671744 30.0625 34.9375 C29.10786865 34.94652344 28.1532373 34.95554687 27.16967773 34.96484375 C21.49654595 34.94088753 16.70515999 34.22267929 11.25 32.6875 C9.58908458 32.43741898 7.92230412 32.21927851 6.25 32.0625 C5.486875 31.98773438 4.72375 31.91296875 3.9375 31.8359375 C3.380625 31.78695312 2.82375 31.73796875 2.25 31.6875 C2.25 31.0275 2.25 30.3675 2.25 29.6875 C1.04730469 29.7189209 -0.15539062 29.7503418 -1.39453125 29.78271484 C-33.42955194 30.54069915 -64.23707172 28.21872603 -95.89053345 23.3588562 C-106.97899346 21.66140656 -117.83166685 21.40916558 -129.02954102 21.48168945 C-131.91626982 21.49986632 -134.80267309 21.50219862 -137.68945312 21.50195312 C-147.25658238 21.51975499 -156.80555149 21.70257336 -166.36328125 22.13671875 C-167.23486374 22.17521439 -168.10644623 22.21371002 -169.00444031 22.25337219 C-173.02200156 22.45593977 -176.81479509 22.80118432 -180.75 23.6875 C-182.68651019 23.75283435 -184.62502861 23.77334303 -186.5625 23.75 C-188.02623047 23.73646484 -188.02623047 23.73646484 -189.51953125 23.72265625 C-190.62361328 23.70525391 -190.62361328 23.70525391 -191.75 23.6875 C-191.75 20.7175 -191.75 17.7475 -191.75 14.6875 C-168.32917949 3.70168599 -142.82814855 1.16514959 -117.25345421 1.46200562 C-113.85086365 1.50113095 -110.44863306 1.52004473 -107.04585266 1.53442383 C-99.84290282 1.56825294 -92.64026062 1.62611489 -85.4375 1.6875 C-77.03380811 1.75862554 -68.63028118 1.81955107 -60.22635841 1.85531616 C-56.88876437 1.87462656 -53.5517008 1.91211013 -50.21427917 1.95043945 C-48.16328375 1.96133892 -46.11228361 1.97139388 -44.0612793 1.98046875 C-43.14637222 1.99596771 -42.23146515 2.01146667 -41.28883362 2.0274353 C-35.99652574 2.02873064 -31.74138074 1.3131704 -26.80943012 -0.64022827 C-18.64264295 -3.30616001 -8.34672839 -0.8303107 0 0 Z " fill="#100B0C" transform="translate(388.75,257.3125)"/>
<path d="M0 0 C9.70245595 -0.38638099 20.27174987 -0.53928857 28 6 C28.61875 6.495 29.2375 6.99 29.875 7.5 C31 9 31 9 31 13 C35.455 13.99 35.455 13.99 40 15 C40.495 22.92 40.495 22.92 41 31 C43.475 26.545 43.475 26.545 46 22 C48.475 22.99 48.475 22.99 51 24 C50.66769649 27.54457079 49.55862687 29.84665635 47.625 32.75 C42.91551853 39.99744411 41.70444344 47.47778282 40 56 C50.56 56 61.12 56 72 56 C72.33 54.68 72.66 53.36 73 52 C77.72074497 63.22895647 80.24795049 74.8746913 78 87 C77.88269531 87.72960937 77.76539063 88.45921875 77.64453125 89.2109375 C77.32548828 90.09652344 77.32548828 90.09652344 77 91 C75.515 91.495 75.515 91.495 74 92 C74 91.34 74 90.68 74 90 C73.13197754 90.03552979 72.26395508 90.07105957 71.36962891 90.10766602 C68.15314518 90.23678234 64.93652256 90.36111144 61.71972656 90.48217773 C60.32674778 90.53559149 58.93384107 90.59092043 57.54101562 90.64819336 C55.54056398 90.73012069 53.5398125 90.80462098 51.5390625 90.87890625 C49.73236084 90.94960327 49.73236084 90.94960327 47.88916016 91.02172852 C45 91 45 91 43 90 C43.04450846 93.98427467 43.11470315 97.96723428 43.20751953 101.95068359 C43.24923272 103.9629854 43.27128531 105.97566395 43.29296875 107.98828125 C43.48239687 115.52752031 44.1688535 120.51176803 48 127 C47.75 130.5 47.75 130.5 47 133 C44.16763009 130.35645475 42.78155733 128.56311466 41 125 C40.67 129.95 40.34 134.9 40 140 C37.69 140.33 35.38 140.66 33 141 C33 142.98 33 144.96 33 147 C31.58671871 147.81837442 30.16921654 148.62946219 28.75 149.4375 C27.96109375 149.88996094 27.1721875 150.34242188 26.359375 150.80859375 C22.66298225 152.67514969 19.55401093 153.13893066 15.4375 153.125 C14.67308594 153.12757813 13.90867188 153.13015625 13.12109375 153.1328125 C10.28029317 152.95493548 8.50021484 152.56342881 6.578125 150.3984375 C6.13984375 149.73070312 5.7015625 149.06296875 5.25 148.375 C4.80140625 147.72273437 4.3528125 147.07046875 3.890625 146.3984375 C1.7796716 140.71367703 4.58616833 135.20742434 6.8125 129.9375 C10.50678689 120.72568501 12.07662925 111.21291769 13.61450195 101.44677734 C13.8953889 99.66397243 14.2071596 97.88595216 14.53710938 96.11157227 C18.80444922 67.42631576 12.80399301 35.7089911 0.97705078 9.53686523 C-0.33819435 6.12189468 -0.40963412 3.60478029 0 0 Z " fill="#282020" transform="translate(116,382)"/>
<path d="M0 0 C0.7910614 -0.00029205 1.5821228 -0.00058411 2.39715576 -0.00088501 C4.98892526 0.00049852 7.58040041 0.01601323 10.17211914 0.03173828 C11.9781529 0.03547189 13.7841887 0.03831722 15.59022522 0.04031372 C20.32652451 0.04792277 25.06269969 0.06754766 29.7989502 0.08972168 C34.63881756 0.11023906 39.47870513 0.11932801 44.31860352 0.12939453 C53.80238178 0.15079626 63.28606823 0.18489906 72.76977539 0.22705078 C72.76977539 0.88705078 72.76977539 1.54705078 72.76977539 2.22705078 C73.32665039 2.20384766 73.88352539 2.18064453 74.45727539 2.15673828 C75.60196289 2.12966797 75.60196289 2.12966797 76.76977539 2.10205078 C77.51227539 2.07884766 78.25477539 2.05564453 79.01977539 2.03173828 C81.76977539 2.22705078 81.76977539 2.22705078 85.33227539 3.19580078 C90.7483355 4.62998775 96.19508317 4.6846007 101.76977539 4.85205078 C103.36112305 4.91005859 103.36112305 4.91005859 104.98461914 4.96923828 C107.57950607 5.06274772 110.17439989 5.1484998 112.76977539 5.22705078 C112.76977539 6.87705078 112.76977539 8.52705078 112.76977539 10.22705078 C110.83340499 10.73140772 108.89563393 11.23038952 106.95727539 11.72705078 C105.87833008 12.00548828 104.79938477 12.28392578 103.68774414 12.57080078 C100.76977539 13.22705078 100.76977539 13.22705078 97.76977539 13.22705078 C98.75977539 16.19705078 98.75977539 16.19705078 99.76977539 19.22705078 C131.54753415 19.12092153 163.32527676 19.01091396 195.10300464 18.89593384 C198.90672305 18.88217421 202.71044157 18.86844563 206.51416016 18.85473633 C207.27099747 18.85200802 208.02783479 18.84927972 208.80760657 18.84646874 C219.37328307 18.80844482 229.93896411 18.77208376 240.50465108 18.73709374 C323.36183464 18.50552378 323.36183464 18.50552378 406.21508789 17.72705078 C407.00414874 17.71668958 407.7932096 17.70632838 408.60618138 17.6956532 C429.42078033 17.42033153 450.23235113 17.04870064 471.03930664 16.41064453 C479.61651537 16.16945569 488.1901247 16.18787429 496.76977539 16.22705078 C496.76977539 17.21705078 496.76977539 18.20705078 496.76977539 19.22705078 C474.78236773 20.56877231 452.78680088 21.50190255 430.76977539 22.19580078 C429.77466418 22.22730453 429.77466418 22.22730453 428.75944972 22.25944471 C392.37434838 23.40905772 355.98220521 24.16637818 319.58489704 24.80371284 C316.81099229 24.85242453 314.03709877 24.90174065 311.26320648 24.95115662 C240.73140181 26.20276767 170.20734385 26.504718 99.66533422 26.47831631 C95.89363571 26.4770504 92.12193749 26.47636546 88.3502388 26.47583771 C72.82832953 26.4732385 57.30646846 26.45985743 41.78457904 26.43499708 C38.50616206 26.43023544 35.22774656 26.42694991 31.94932747 26.4240303 C26.8377342 26.41907943 21.72617526 26.40897849 16.61459911 26.39493632 C14.77275365 26.39055156 12.93090366 26.38770324 11.08905327 26.38665891 C1.75726253 26.38004701 -7.54948538 26.23547113 -16.87136841 25.78338623 C-18.06418893 25.72624761 -18.06418893 25.72624761 -19.28110683 25.66795468 C-27.3084354 25.23969805 -35.26523436 24.2897373 -43.23022461 23.22705078 C-43.23022461 20.91705078 -43.23022461 18.60705078 -43.23022461 16.22705078 C-38.65447688 13.60196195 -34.13901863 11.09608961 -29.24194336 9.10986328 C-25.50332343 7.46922619 -21.90995523 5.51978234 -18.29272461 3.62939453 C-12.21728871 0.84740284 -6.63299365 -0.06513533 0 0 Z " fill="#9B412A" transform="translate(318.230224609375,286.77294921875)"/>
<path d="M0 0 C14.24752044 0.84084551 28.52397609 0.80731405 42.79158795 0.91524208 C47.03603724 0.94828779 51.28044316 0.98624783 55.52485657 1.02357483 C62.85714339 1.08740203 70.18945015 1.14819842 77.52178001 1.20686531 C88.12276074 1.29168957 98.723698 1.381195 109.32463071 1.47179913 C126.52894983 1.61871596 143.73329779 1.76190976 160.93766785 1.90272522 C177.63820556 2.03942494 194.33872701 2.17790108 211.03923035 2.31874084 C212.07072607 2.32743911 213.10222179 2.33613737 214.16497495 2.34509922 C219.34030587 2.38875195 224.51563649 2.43243934 229.69096696 2.47614396 C272.54390841 2.83798359 315.39689859 3.19376548 358.24992371 3.54554749 C358.24992371 6.84554749 358.24992371 10.14554749 358.24992371 13.54554749 C273.42651788 18.3054553 188.13561617 16.68526113 98.7604481 16.61757457 C88.17173538 16.60953562 77.58302358 16.60414904 66.99430847 16.60047913 C65.86051293 16.60008504 65.86051293 16.60008504 64.70381243 16.59968299 C60.90833403 16.59837707 57.11285563 16.59711358 53.31737721 16.59587109 C22.29488772 16.58566163 -8.7275932 16.56811493 -39.75007629 16.54554749 C-40.41007629 14.56554749 -41.07007629 12.58554749 -41.75007629 10.54554749 C-34.32507629 9.06054749 -34.32507629 9.06054749 -26.75007629 7.54554749 C-26.75007629 5.56554749 -26.75007629 3.58554749 -26.75007629 1.54554749 C-23.98080621 1.17031604 -21.21149528 0.82079881 -18.43757629 0.48304749 C-17.31705872 0.32739319 -17.31705872 0.32739319 -16.17390442 0.16859436 C-10.72480798 -0.4711781 -5.46083542 -0.36831947 0 0 Z " fill="#DF5D36" transform="translate(457.7500762939453,289.45445251464844)"/>
<path d="M0 0 C50.49 0 100.98 0 153 0 C153 0.66 153 1.32 153 2 C153.94552136 1.99907821 154.89104273 1.99815641 155.86521626 1.99720669 C178.84895058 1.97502837 201.83268352 1.95858434 224.81642628 1.94818783 C235.93108818 1.9430268 247.04574302 1.93598777 258.16040039 1.92456055 C267.84549056 1.91460782 277.53057562 1.90814516 287.21567076 1.90591151 C292.34604029 1.90460541 297.47639518 1.90152586 302.60676003 1.89426994 C307.43211594 1.88750047 312.25745115 1.88538495 317.08281136 1.88689232 C318.85697797 1.88661641 320.63114525 1.88461677 322.40530777 1.88079453 C324.82152587 1.87584284 327.23766509 1.87700722 329.65388489 1.87974548 C330.71467883 1.87537622 330.71467883 1.87537622 331.79690295 1.87091869 C334.81738662 1.88021497 337.10829151 2.03609717 340 3 C339.745504 4.48206495 339.47088238 5.96068615 339.1875 7.4375 C338.96126953 8.67306641 338.96126953 8.67306641 338.73046875 9.93359375 C338.48941406 10.61550781 338.24835938 11.29742188 338 12 C334.75084181 13.08305273 332.34518251 13.15092211 328.92431641 13.18945312 C327.62879349 13.2062059 326.33327057 13.22295868 324.99848938 13.24021912 C323.53284853 13.25404969 322.06720615 13.26771964 320.6015625 13.28125 C319.01933936 13.29920147 317.43711999 13.31748814 315.85490417 13.33607483 C311.39853438 13.38675212 306.94211839 13.43038825 302.48566055 13.47252274 C299.61578094 13.50008855 296.74592462 13.52942619 293.87606812 13.55929565 C249.77120041 14.01592769 205.66442902 14.27460577 161.55811214 14.54558945 C158.82705309 14.56241037 156.09599485 14.57935721 153.36493683 14.59634399 C112.57648049 14.84980883 71.78946911 15.09019702 31 15 C30.67 13.68 30.34 12.36 30 11 C32.64 9.68 35.28 8.36 38 7 C25.34299175 5.56309327 12.67739758 4.24392001 0 3 C0 2.01 0 1.02 0 0 Z " fill="#D25B39" transform="translate(475,613)"/>
<path d="M0 0 C0.07401964 5.80238024 0.12853989 11.60448722 0.16479492 17.40722656 C0.17990462 19.38221013 0.20039328 21.35716004 0.22631836 23.33203125 C0.26260619 26.16675106 0.27970416 29.00102826 0.29296875 31.8359375 C0.30845261 32.72243988 0.32393646 33.60894226 0.33988953 34.52230835 C0.34011612 35.34300812 0.34034271 36.16370789 0.34057617 37.00927734 C0.34723801 37.73319672 0.35389984 38.45711609 0.36076355 39.20297241 C0 41 0 41 -3 43 C-2.34 40.36 -1.68 37.72 -1 35 C-62.71 34.67 -124.42 34.34 -188 34 C-188 33.01 -188 32.02 -188 31 C-188.73476311 31.00092179 -189.46952621 31.00184359 -190.22655487 31.00279331 C-208.12147 31.0248969 -226.01638241 31.04143514 -243.91130829 31.05181217 C-252.56522614 31.05696406 -261.21913488 31.06398566 -269.87304688 31.07543945 C-277.41754681 31.08542012 -284.96204014 31.09186148 -292.5065465 31.09408849 C-296.49968821 31.09538985 -300.49281101 31.09843931 -304.48594666 31.10573006 C-308.24841501 31.11254366 -312.01085675 31.11460613 -315.77333069 31.11310768 C-317.80429423 31.11351171 -319.83525491 31.11887899 -321.86621094 31.12442017 C-328.01543864 31.11750631 -333.9199235 30.91951947 -340 30 C-341.9778506 29.91667048 -343.95790257 29.86944713 -345.9375 29.875 C-346.87464844 29.87242187 -347.81179688 29.86984375 -348.77734375 29.8671875 C-350.97287282 29.75164929 -350.97287282 29.75164929 -352 31 C-354.29821677 31.09932256 -356.5995557 31.12632464 -358.8999176 31.12698364 C-359.63016693 31.12854363 -360.36041625 31.13010362 -361.11279434 31.13171089 C-363.57855288 31.1357238 -366.04425068 31.13253003 -368.51000977 31.12939453 C-370.27055396 31.13074853 -372.03109787 31.13252845 -373.79164124 31.13470459 C-378.58949384 31.13928148 -383.38732504 31.1374877 -388.18517804 31.1343255 C-393.20230497 31.13180043 -398.21943001 31.13414011 -403.23655701 31.13571167 C-411.67113576 31.13753411 -420.10570578 31.13512634 -428.5402832 31.13037109 C-438.28483076 31.12494066 -448.02935735 31.12668195 -457.77390438 31.1321975 C-466.13661489 31.13674125 -474.4993191 31.13737262 -482.86203045 31.13475883 C-487.85784335 31.13320142 -492.85364642 31.13298738 -497.84945869 31.13629532 C-502.55337308 31.1391919 -507.25726061 31.13716552 -511.9611721 31.13140106 C-513.68486105 31.13008251 -515.40855227 31.13045217 -517.1322403 31.13266373 C-519.49192267 31.13541121 -521.85151989 31.13195022 -524.2111969 31.12698364 C-526.18926 31.1264181 -526.18926 31.1264181 -528.20728397 31.12584114 C-532.21018126 30.99302625 -536.03636078 30.55515268 -540 30 C-540 29.67 -540 29.34 -540 29 C-537.36 29 -534.72 29 -532 29 C-532 27.68 -532 26.36 -532 25 C-320.70603107 24.78417707 -320.70603107 24.78417707 -16 31 C-15.34 27.04 -14.68 23.08 -14 19 C-11.69 19 -9.38 19 -7 19 C-5.515 13.06 -5.515 13.06 -4 7 C-20.5 7 -37 7 -54 7 C-54 5.68 -54 4.36 -54 3 C-49.91729158 2.65871535 -45.8337573 2.32847613 -41.75 2 C-40.04070312 1.85691406 -40.04070312 1.85691406 -38.296875 1.7109375 C-30.84607859 1.11826051 -23.47345704 0.87731671 -16 1 C-16 1.66 -16 2.32 -16 3 C-15.09636719 2.7834375 -14.19273437 2.566875 -13.26171875 2.34375 C-12.08222656 2.0653125 -10.90273438 1.786875 -9.6875 1.5 C-7.92986328 1.08234375 -7.92986328 1.08234375 -6.13671875 0.65625 C-3 0 -3 0 0 0 Z " fill="#723323" transform="translate(816,581)"/>
<path d="M0 0 C26.73 0 53.46 0 81 0 C81 10.23 81 20.46 81 31 C-70.10849041 31.384094 -70.10849041 31.384094 -132.4375 30.0625 C-133.99837845 30.029678 -133.99837845 30.029678 -135.59078979 29.99619293 C-161.06384726 29.45701668 -186.53270034 28.76162292 -212 28 C-212 26.68 -212 25.36 -212 24 C-47.21301853 23.60268972 -47.21301853 23.60268972 8.375 24.9375 C9.29904507 24.95938133 10.22309013 24.98126266 11.17513657 25.00380707 C30.46005643 25.46352273 49.73051567 26.0867153 69 27 C69 20.07 69 13.14 69 6 C65.70902344 5.85691406 62.41804688 5.71382813 59.02734375 5.56640625 C57.34884842 5.49342819 57.34884842 5.49342819 55.63644409 5.41897583 C54.65410797 5.37626556 53.67177185 5.3335553 52.65966797 5.28955078 C43.31030273 4.88305664 33.9609375 4.4765625 24.61157227 4.07006836 C23.10228149 4.00444702 23.10228149 4.00444702 21.5625 3.9375 C10.78125 3.46875 10.78125 3.46875 0 3 C0 2.01 0 1.02 0 0 Z " fill="#873623" transform="translate(734,463)"/>
<path d="M0 0 C0.79062332 -0.00014603 1.58124664 -0.00029205 2.39582825 -0.0004425 C5.00382246 0.00025303 7.61174486 0.00802864 10.21972656 0.01586914 C12.03004924 0.01773459 13.84037243 0.0191579 15.6506958 0.02015686 C20.41165566 0.023972 25.17258493 0.03379374 29.93353271 0.04486084 C34.79324937 0.05509652 39.65297098 0.0596591 44.51269531 0.06469727 C54.04526082 0.07541689 63.57780365 0.09248129 73.11035156 0.11352539 C73.11035156 0.77352539 73.11035156 1.43352539 73.11035156 2.11352539 C74.90472656 1.98977539 74.90472656 1.98977539 76.73535156 1.86352539 C83.48025784 1.82035799 89.7477416 4.08617883 96.11035156 6.11352539 C96.11035156 6.77352539 96.11035156 7.43352539 96.11035156 8.11352539 C94.69557021 8.76347836 93.27843669 9.40831262 91.86035156 10.05102539 C91.07144531 10.41067383 90.28253906 10.77032227 89.46972656 11.14086914 C85.92389891 12.60264246 82.83416711 13.24022096 79.00097656 13.21118164 C78.246875 13.20795898 77.49277344 13.20473633 76.71582031 13.20141602 C75.93851562 13.19303711 75.16121094 13.1846582 74.36035156 13.17602539 C73.56757813 13.17151367 72.77480469 13.16700195 71.95800781 13.16235352 C70.00875648 13.15061104 68.05954418 13.13267685 66.11035156 13.11352539 C66.11035156 15.09352539 66.11035156 17.07352539 66.11035156 19.11352539 C31.46035156 19.11352539 -3.18964844 19.11352539 -38.88964844 19.11352539 C-28.66927738 7.18975916 -15.86333652 -0.07675756 0 0 Z " fill="#E25C34" transform="translate(317.8896484375,286.886474609375)"/>
<path d="M0 0 C61.05 0.33 122.1 0.66 185 1 C182 7 182 7 180.11302471 7.86706352 C177.7972545 8.0127553 175.51292427 8.12593805 173.19160461 8.12698364 C172.22621765 8.12980347 171.26083069 8.13262329 170.26618958 8.13552856 C169.21324203 8.13350433 168.16029449 8.1314801 167.07543945 8.12939453 C165.96099457 8.13114685 164.84654968 8.13289917 163.69833374 8.13470459 C160.00330051 8.1391149 156.30831499 8.13618537 152.61328125 8.1328125 C150.03655488 8.13348639 147.45982857 8.13445713 144.88310242 8.13571167 C139.47015726 8.13718804 134.05722995 8.13513412 128.64428711 8.13037109 C122.42906724 8.12496446 116.21388036 8.12666524 109.99866134 8.1321975 C103.98658765 8.13733082 97.97452977 8.13672447 91.96245384 8.13381577 C89.42266014 8.13315378 86.88286559 8.13394913 84.34307289 8.13629532 C52.38451217 8.15931243 52.38451217 8.15931243 44 7 C43.34 6.34 42.68 5.68 42 5 C38.46782421 5.32110689 35.36550494 5.87816502 32 7 C31.67 10.96 31.34 14.92 31 19 C19.80561173 19.68275812 10.16819907 12.58293528 1.6953125 5.89453125 C0 4 0 4 0 0 Z " fill="#E05B35" transform="translate(278,612)"/>
<path d="M0 0 C1.23024399 0.00424484 2.46048798 0.00848969 3.72801208 0.01286316 C7.63010191 0.02956109 11.53166187 0.067198 15.43359375 0.10546875 C18.09048723 0.12223072 20.74737573 0.13421336 23.40429688 0.14648438 C29.8934078 0.17943557 36.3822129 0.22954637 42.87109375 0.29296875 C42.87109375 1.61296875 42.87109375 2.93296875 42.87109375 4.29296875 C40.7055646 4.63361379 38.53859578 4.9651113 36.37109375 5.29296875 C35.16453125 5.47859375 33.95796875 5.66421875 32.71484375 5.85546875 C28.70073545 6.31235913 24.90545549 6.36437338 20.87109375 6.29296875 C20.89429688 7.46730469 20.9175 8.64164063 20.94140625 9.8515625 C21.49209938 49.73092323 21.49209938 49.73092323 8.87109375 63.29296875 C5.06434124 66.06981219 1.65117157 68.29296875 -3.12890625 68.29296875 C-2.39297936 61.86950811 -0.80592494 55.73334091 0.80859375 49.48046875 C3.62068622 38.55367637 5.97953535 27.91677077 6.99609375 16.66796875 C7.08246094 15.75917969 7.16882813 14.85039063 7.2578125 13.9140625 C7.46686277 11.70742076 7.6712308 9.50045821 7.87109375 7.29296875 C4.59970133 7.5997874 1.32910454 7.91440157 -1.94140625 8.23046875 C-2.87017578 8.31748047 -3.79894531 8.40449219 -4.75585938 8.49414062 C-6.09487305 8.6246582 -6.09487305 8.6246582 -7.4609375 8.7578125 C-8.28311768 8.83636475 -9.10529785 8.91491699 -9.95239258 8.99584961 C-12.30378047 9.2484792 -12.30378047 9.2484792 -15.12890625 10.29296875 C-17.81640625 9.85546875 -17.81640625 9.85546875 -20.12890625 9.29296875 C-20.78890625 7.31296875 -21.44890625 5.33296875 -22.12890625 3.29296875 C-14.58324457 0.2543767 -8.08366916 -0.10621 0 0 Z " fill="#D1C8C4" transform="translate(463.12890625,624.70703125)"/>
<path d="M0 0 C0 0.99 0 1.98 0 3 C22.57691344 5.9557519 45.25194982 7.27418673 68 8 C68 8.33 68 8.66 68 9 C-19.45 9 -106.9 9 -197 9 C-197 8.01 -197 7.02 -197 6 C-177.85296526 5.32758739 -158.70723293 4.90059239 -139.55051422 4.62274933 C-135.91343519 4.56984885 -132.27638768 4.51512522 -128.63934326 4.4598999 C-108.08843431 4.14909601 -108.08843431 4.14909601 -98.5234375 4.02587891 C-62.86905153 3.81202353 -62.86905153 3.81202353 -27.39697266 0.63500977 C-18.32617018 -0.58600748 -9.12897323 -0.25151253 0 0 Z " fill="#E47C58" transform="translate(734,616)"/>
<path d="M0 0 C0 0.33 0 0.66 0 1 C-14.19 1 -28.38 1 -43 1 C-43.33 2.32 -43.66 3.64 -44 5 C-50.89808422 5.88195499 -57.67872577 6.19031464 -64.62890625 6.28125 C-65.73564194 6.29965942 -66.84237762 6.31806885 -67.98265076 6.33703613 C-71.50921681 6.39536204 -75.03583232 6.44821198 -78.5625 6.5 C-93.08970777 6.7182702 -107.60117229 6.98625164 -122.1153717 7.66430664 C-129.41703259 8.0029176 -136.68973956 8.11583159 -144 8 C-144 8.99 -144 9.98 -144 11 C-158.19 11 -172.38 11 -187 11 C-182 2 -182 2 -181 1 C-178.72790127 0.87517608 -176.45187628 0.82185605 -174.17651367 0.79467773 C-173.0931125 0.77983259 -173.0931125 0.77983259 -171.98782444 0.76468754 C-169.54790684 0.73268876 -167.10797294 0.70804156 -164.66796875 0.68359375 C-162.92400756 0.66286314 -161.18005008 0.64181896 -159.43609619 0.6204834 C-154.68000544 0.56404562 -149.92386453 0.51486762 -145.16767502 0.46757126 C-142.19803922 0.43760635 -139.2284296 0.40573427 -136.25881958 0.37332153 C-90.83973274 -0.11823552 -45.42107917 -0.10562095 0 0 Z " fill="#E27A5A" transform="translate(703,292)"/>
<path d="M0 0 C50.49 0 100.98 0 153 0 C153 0.99 153 1.98 153 3 C144.97923909 3.31436974 136.95838749 3.62637765 128.9375 3.9375 C127.7522876 3.98357391 126.5670752 4.02964783 125.34594727 4.07711792 C101.74811317 4.99263405 101.74811317 4.99263405 91.06640625 5.3203125 C89.9967588 5.35322136 89.9967588 5.35322136 88.90550232 5.38679504 C85.75084928 5.48260266 82.59613592 5.57333288 79.44116211 5.65795898 C72.26622005 5.8655532 65.14668648 6.32959574 58 7 C60.33593539 9.95336325 61.52438567 10.92131743 65.29980469 11.54589844 C66.57758789 11.5668457 67.85537109 11.58779297 69.171875 11.609375 C69.8542926 11.62591125 70.53671021 11.64244751 71.23980713 11.65948486 C73.40996354 11.70789839 75.57941972 11.72931865 77.75 11.75 C79.22529552 11.77816562 80.70055851 11.80809389 82.17578125 11.83984375 C85.78370198 11.91365225 89.39148972 11.96326894 93 12 C93 12.66 93 13.32 93 14 C80.05385941 15.28132411 67.11877234 15.11327938 54.125 15.0625 C51.87630308 15.05747407 49.62760507 15.0529131 47.37890625 15.04882812 C41.9192467 15.03791117 36.45962857 15.02126001 31 15 C30.67 13.68 30.34 12.36 30 11 C32.64 9.68 35.28 8.36 38 7 C25.34299175 5.56309327 12.67739758 4.24392001 0 3 C0 2.01 0 1.02 0 0 Z " fill="#E4603B" transform="translate(475,613)"/>
<path d="M0 0 C0 0.99 0 1.98 0 3 C-42.57 3.495 -42.57 3.495 -86 4 C-85.01 5.485 -85.01 5.485 -84 7 C-85.55851755 7.82011312 -87.12201716 8.63076213 -88.6875 9.4375 C-89.99267578 10.11619141 -89.99267578 10.11619141 -91.32421875 10.80859375 C-96.74476633 13.22212223 -101.975084 13.13498949 -107.80078125 13.09765625 C-108.63715622 13.0962413 -109.47353119 13.09482635 -110.33525085 13.09336853 C-112.994371 13.08779184 -115.6534055 13.07524365 -118.3125 13.0625 C-120.12044149 13.05748199 -121.9283843 13.05291961 -123.73632812 13.04882812 C-128.15758484 13.03783004 -132.57877793 13.0205815 -137 13 C-137 10.03 -137 7.06 -137 4 C-150.53 4 -164.06 4 -178 4 C-178 3.67 -178 3.34 -178 3 C-156.41590362 2.60763928 -134.83178683 2.21641928 -113.24764538 1.82654572 C-103.22506429 1.64548179 -93.20249014 1.46404896 -83.17993164 1.28173828 C-74.44112679 1.12278008 -65.70230957 0.96452361 -56.96347696 0.80709887 C-52.33922511 0.72377157 -47.71498009 0.64010029 -43.09074974 0.55558777 C-38.73159027 0.4759308 -34.37241474 0.39721748 -30.01322556 0.31920433 C-28.41979542 0.29052581 -26.82637126 0.26151288 -25.23295403 0.23212624 C-16.82145035 0.0771968 -8.4132216 -0.04467167 0 0 Z " fill="#CD4E2E" transform="translate(815,425)"/>
<path d="M0 0 C0.99 0.33 1.98 0.66 3 1 C3 1.66 3 2.32 3 3 C3.63164062 3.09796875 4.26328125 3.1959375 4.9140625 3.296875 C12.79416375 4.61401008 20.35428779 6.70070553 28 9 C26.69691572 18.83757034 21.38620971 25.9924601 14.875 33.1875 C14.10289185 34.05290405 14.10289185 34.05290405 13.31518555 34.93579102 C11.8046875 36.54296875 11.8046875 36.54296875 9 39 C7.68 39 6.36 39 5 39 C-0.39456106 30.75063966 -0.62394278 23.53451751 -0.3125 13.875 C-0.28735769 12.52347927 -0.26455508 11.17191291 -0.24414062 9.8203125 C-0.18566513 6.545685 -0.10375192 3.27345291 0 0 Z " fill="#C3452A" transform="translate(159,472)"/>
<path d="M0 0 C0.99 0 1.98 0 3 0 C3 11.22 3 22.44 3 34 C-13.53941112 34.11281999 -30.02740859 33.70471291 -46.55621338 33.13116455 C-49.24850345 33.03902174 -51.94094274 32.95174119 -54.63339329 32.86443424 C-57.90283261 32.75767691 -61.17211114 32.64622928 -64.44140625 32.53515625 C-66.21832603 32.47727684 -66.21832603 32.47727684 -68.03114319 32.41822815 C-75.37824946 32.15896156 -82.67991152 31.68124921 -90 31 C-90 30.01 -90 29.02 -90 28 C-63.27 28 -36.54 28 -9 28 C-9 20.74 -9 13.48 -9 6 C-7.53867783 8.92264434 -6.65900754 10.92463146 -6 14 C-3.03 14.495 -3.03 14.495 0 15 C0 10.05 0 5.1 0 0 Z " fill="#AB442A" transform="translate(812,366)"/>
<path d="M0 0 C1.28100586 1.43701172 1.28100586 1.43701172 2.71484375 3.4296875 C3.23626953 4.14253906 3.75769531 4.85539062 4.29492188 5.58984375 C4.83697266 6.34394531 5.37902344 7.09804688 5.9375 7.875 C7.00457441 9.3548469 8.07602483 10.83155064 9.15234375 12.3046875 C9.62663818 12.96452637 10.10093262 13.62436523 10.58959961 14.30419922 C12.07838682 16.25810002 12.07838682 16.25810002 15 18 C17.53992207 22.89170177 18 25.30630285 18 31 C7.44 31 -3.12 31 -14 31 C-13.36922806 24.69228057 -10.33113004 0 0 0 Z " fill="#C2442A" transform="translate(170,407)"/>
<path d="M0 0 C1.80174403 0.00560449 3.60349266 0.00987055 5.40524292 0.01286316 C10.116912 0.0242448 14.82829778 0.05365347 19.53985596 0.0869751 C24.359865 0.11782104 29.17992042 0.13139936 34 0.14648438 C43.43501939 0.17853039 52.86982977 0.22964467 62.3046875 0.29296875 C62.3046875 0.95296875 62.3046875 1.61296875 62.3046875 2.29296875 C60.88542969 2.41357666 60.88542969 2.41357666 59.4375 2.53662109 C55.8437999 2.84286574 52.25047077 3.15329944 48.65722656 3.46484375 C47.11760753 3.59777889 45.57789676 3.72965672 44.03808594 3.86035156 C33.42384333 4.76221531 22.86488718 5.89201583 12.3046875 7.29296875 C11.9746875 8.28296875 11.6446875 9.27296875 11.3046875 10.29296875 C10.6655542 10.34831787 10.0264209 10.40366699 9.36791992 10.46069336 C6.40932172 10.71704652 3.45075454 10.97375616 0.4921875 11.23046875 C-0.51263672 11.31748047 -1.51746094 11.40449219 -2.55273438 11.49414062 C-4.05610352 11.6246582 -4.05610352 11.6246582 -5.58984375 11.7578125 C-7.10251831 11.88168335 -7.10251831 11.88168335 -8.64575195 12.00805664 C-10.69582319 12.19958919 -12.74210147 12.43661969 -14.78198242 12.71655273 C-16.23954956 12.90519897 -16.23954956 12.90519897 -17.7265625 13.09765625 C-19.02883789 13.28884033 -19.02883789 13.28884033 -20.35742188 13.48388672 C-22.6953125 13.29296875 -22.6953125 13.29296875 -24.76293945 11.53686523 C-28.6953125 6.54479618 -28.6953125 6.54479618 -28.6953125 3.29296875 C-19.37984333 -0.63930252 -9.90146933 -0.09094225 0 0 Z " fill="#CF5331" transform="translate(328.6953125,286.70703125)"/>
<path d="M0 0 C0 0.66 0 1.32 0 2 C-1.41478135 2.64995297 -2.83191487 3.29478722 -4.25 3.9375 C-5.03890625 4.29714844 -5.8278125 4.65679687 -6.640625 5.02734375 C-11.76539448 7.14003845 -16.4179761 7.17391349 -21.890625 7.15625 C-23.209487 7.15365173 -23.209487 7.15365173 -24.55499268 7.15100098 C-34.65387609 7.07025452 -44.6878285 6.30620015 -54.75 5.5 C-56.63406103 5.35477233 -58.51817567 5.21023836 -60.40234375 5.06640625 C-64.93554981 4.71888047 -69.4679401 4.36215384 -74 4 C-73.67 2.68 -73.34 1.36 -73 0 C-17.23814872 -6.48965599 -17.23814872 -6.48965599 0 0 Z " fill="#D35430" transform="translate(414,293)"/>
<path d="M0 0 C6.27 0 12.54 0 19 0 C19 9.24 19 18.48 19 28 C16.421875 28.495 13.84375 28.99 11.1875 29.5 C10.37949951 29.65662109 9.57149902 29.81324219 8.73901367 29.97460938 C5.77959587 30.53597429 3.01877934 31 0 31 C0 20.77 0 10.54 0 0 Z " fill="#525055" transform="translate(159,441)"/>
<path d="M0 0 C0 10.56 0 21.12 0 32 C-4.95 32 -9.9 32 -15 32 C-14.48041715 27.62065881 -13.94324258 23.31196609 -13 19 C-10.69 19 -8.38 19 -6 19 C-4.515 13.06 -4.515 13.06 -3 7 C-19.5 7 -36 7 -53 7 C-53 5.68 -53 4.36 -53 3 C-48.91729158 2.65871535 -44.8337573 2.32847613 -40.75 2 C-39.04070313 1.85691406 -39.04070313 1.85691406 -37.296875 1.7109375 C-29.84607859 1.11826051 -22.47345704 0.87731671 -15 1 C-15 1.66 -15 2.32 -15 3 C-14.08476563 2.7834375 -13.16953125 2.566875 -12.2265625 2.34375 C-11.03804687 2.0653125 -9.84953125 1.786875 -8.625 1.5 C-7.44164062 1.2215625 -6.25828125 0.943125 -5.0390625 0.65625 C-2 0 -2 0 0 0 Z " fill="#A44028" transform="translate(815,581)"/>
<path d="M0 0 C8.54730344 1.32570421 16.72241148 3.51068141 25 6 C24.74462428 8.1060986 24.47014626 10.20988754 24.1875 12.3125 C24.03667969 13.48425781 23.88585937 14.65601563 23.73046875 15.86328125 C23.00135005 18.99420274 22.50828536 20.09645193 20 22 C17.79077517 20.2719625 15.58260494 18.54260488 13.375 16.8125 C12.75753906 16.32974609 12.14007813 15.84699219 11.50390625 15.34960938 C10.26825894 14.38060175 9.03565542 13.40770001 7.80615234 12.4309082 C6.61709244 11.48888602 5.41961595 10.55737587 4.21337891 9.63745117 C2.75295189 8.49299646 1.36912383 7.25224741 0 6 C-0.375 2.6875 -0.375 2.6875 0 0 Z " fill="#272325" transform="translate(206,666)"/>
<path d="M0 0 C-0.99 3.3 -1.98 6.6 -3 10 C-19.335 10.495 -19.335 10.495 -36 11 C-34.68 10.34 -33.36 9.68 -32 9 C-32.66 7.02 -33.32 5.04 -34 3 C-30.27646345 2.50061945 -26.55269109 2.00336147 -22.828125 1.51171875 C-20.75360322 1.23441023 -18.67958849 0.95235711 -16.609375 0.64453125 C-11.05652094 -0.16039928 -5.59815573 -0.06997695 0 0 Z " fill="#BD4A2C" transform="translate(381,622)"/>
<path d="M0 0 C18.81 0 37.62 0 57 0 C57 0.66 57 1.32 57 2 C56.05382812 2.08040527 55.10765625 2.16081055 54.1328125 2.24365234 C50.5391124 2.54989699 46.94578327 2.86033069 43.35253906 3.171875 C41.81292003 3.30481014 40.27320926 3.43668797 38.73339844 3.56738281 C28.11915583 4.46924656 17.56019968 5.59904708 7 7 C6.67 7.99 6.34 8.98 6 10 C3.69 10 1.38 10 -1 10 C-2 7 -2 7 0 0 Z " fill="#AC4327" transform="translate(334,287)"/>
<path d="M0 0 C4.85982188 0.62768737 8.75806255 2.6734637 13.0625 4.875 C13.76955078 5.22691406 14.47660156 5.57882812 15.20507812 5.94140625 C18.71172167 7.71283745 21.95416783 9.48422174 25 12 C24.55888874 16.85222386 23.54622073 18.73747692 20 22 C17.03991239 19.71059208 14.08223496 17.41809114 11.125 15.125 C10.28324219 14.47402344 9.44148437 13.82304688 8.57421875 13.15234375 C7.76855469 12.52714844 6.96289062 11.90195312 6.1328125 11.2578125 C5.38918457 10.6817627 4.64555664 10.10571289 3.87939453 9.51220703 C2 8 2 8 0 6 C-0.125 2.875 -0.125 2.875 0 0 Z " fill="#292527" transform="translate(234,688)"/>
<path d="M0 0 C2.68507169 5.07180208 3 6.91708123 3 13 C-7.56 13 -18.12 13 -29 13 C-29 11.68 -29 10.36 -29 9 C-22.73 9 -16.46 9 -10 9 C-10 6.03 -10 3.06 -10 0 C-3.375 -1.125 -3.375 -1.125 0 0 Z " fill="#A74532" transform="translate(185,425)"/>
<path d="M0 0 C9.24 0 18.48 0 28 0 C28 4.95 28 9.9 28 15 C24 13 24 13 22.64453125 11.46484375 C20.23189876 9.31582431 17.83406218 9.1468097 14.6875 8.5625 C8.01919506 7.1441857 3.89332741 5.83999112 0 0 Z " fill="#D84F2F" transform="translate(772,428)"/>
<path d="M0 0 C1.98 0.99 3.96 1.98 6 3 C6 10.26 6 17.52 6 25 C2.04 25.99 -1.92 26.98 -6 28 C-4.57261822 18.48412146 -2.43032694 9.29659042 0 0 Z " fill="#141112" transform="translate(150,497)"/>
<path d="M0 0 C1.6256807 0.30893932 3.25052748 0.6222695 4.875 0.9375 C5.77992188 1.11152344 6.68484375 1.28554688 7.6171875 1.46484375 C10 2 10 2 12 3 C12 9.27 12 15.54 12 22 C9.03 22 6.06 22 3 22 C2.49311395 19.45953542 1.99433126 16.91791124 1.5 14.375 C1.35691406 13.66214844 1.21382812 12.94929688 1.06640625 12.21484375 C0.26950574 8.07855065 -0.16034056 4.23566321 0 0 Z " fill="#121112" transform="translate(144,394)"/>
<path d="M0 0 C3.96 0 7.92 0 12 0 C12 6.6 12 13.2 12 20 C11.34 18.68 10.68 17.36 10 16 C6.7 16 3.4 16 0 16 C0 10.72 0 5.44 0 0 Z " fill="#D74D2B" transform="translate(803,428)"/>
<path d="M0 0 C0 0.99 0 1.98 0 3 C-33 3 -66 3 -100 3 C-100 2.67 -100 2.34 -100 2 C-88.58585234 1.73775724 -77.17167446 1.47687527 -65.75745678 1.21769714 C-60.4565346 1.09728913 -55.15562368 0.97642469 -49.85473633 0.85449219 C-44.73246487 0.73668548 -39.61016669 0.62011031 -34.48784828 0.50436401 C-32.54037807 0.46014636 -30.59291763 0.41549615 -28.64546776 0.37039185 C-9.05777857 -0.08272768 -9.05777857 -0.08272768 0 0 Z " fill="#45231B" transform="translate(815,425)"/>
<path d="M0 0 C8.91 0 17.82 0 27 0 C26.34 2.97 25.68 5.94 25 9 C19.194303 8.31465992 13.69920838 6.96776988 8.0625 5.4375 C7.18787109 5.20353516 6.31324219 4.96957031 5.41210938 4.72851562 C3.27374275 4.15594751 1.13644097 3.57970405 -1 3 C-0.67 2.01 -0.34 1.02 0 0 Z " fill="#802111" transform="translate(163,472)"/>
<path d="M0 0 C0.66 0 1.32 0 2 0 C4.36127237 7.08381711 3.35474495 15.71824591 2 23 C1.67 23 1.34 23 1 23 C0.67 15.41 0.34 7.82 0 0 Z " fill="#59433E" transform="translate(131,441)"/>
<path d="M0 0 C0.66 0.33 1.32 0.66 2 1 C0.26461877 2.87002288 -1.4859335 4.71988092 -3.25 6.5625 C-3.74113281 7.09552734 -4.23226562 7.62855469 -4.73828125 8.17773438 C-6.203125 9.69140625 -6.203125 9.69140625 -9 12 C-10.32 11.67 -11.64 11.34 -13 11 C-8.71 7.37 -4.42 3.74 0 0 Z " fill="#3D2C2A" transform="translate(208,244)"/>
</svg>
