<?xml version="1.0" encoding="UTF-8"?>
<svg version="1.1" xmlns="http://www.w3.org/2000/svg" width="298" height="295">
<path d="M0 0 C98.34 0 196.68 0 298 0 C298 97.35 298 194.7 298 295 C199.66 295 101.32 295 0 295 C0 197.65 0 100.3 0 0 Z " fill="#EEECEC" transform="translate(0,0)"/>
<path d="M0 0 C8.12115721 5.09183667 15.52683151 11.02262026 23 17 C24.29424392 18.03258582 25.58851494 19.06513767 26.8828125 20.09765625 C29.4338671 22.13445522 31.98168063 24.17521768 34.52734375 26.21875 C36.61653426 27.89509966 38.71223216 29.56109275 40.81640625 31.21875 C54.01651804 41.63010578 62.9640398 50.81301826 69.875 66.25 C70.37257812 67.32507813 70.87015625 68.40015625 71.3828125 69.5078125 C75 77.47754979 75 77.47754979 75 82 C74.1993432 83.64134644 73.36038856 85.26416141 72.5 86.875 C69.86316422 92.97503034 69.47301652 98.51115725 69.4375 105.125 C69.42332031 106.04265137 69.40914062 106.96030273 69.39453125 107.90576172 C69.50389863 115.54097169 71.67810918 121.7008706 75.2878418 128.38452148 C76.31344332 132.1511547 75.13842137 133.99123046 73.484375 137.48046875 C73.19451721 138.09336258 72.90465942 138.70625641 72.60601807 139.33772278 C71.98584942 140.63545525 71.35650868 141.92883854 70.71875 143.21801758 C69.76759696 145.15172513 68.85901217 147.1014011 67.953125 149.05664062 C62.07364503 161.3745108 53.26150458 169.22313765 42.66650391 177.65869141 C40.02947883 179.78113732 37.43125036 181.9500322 34.82666016 184.11206055 C23.87016495 193.1963048 12.76840761 201.97729323 1 210 C-2.9829507 207.09693382 -5.74962707 203.91087959 -8.5 199.875 C-9.36512813 198.63488802 -10.23105658 197.3953341 -11.09765625 196.15625 C-11.55930176 195.49238281 -12.02094727 194.82851562 -12.49658203 194.14453125 C-15.26809869 190.19113692 -18.10648828 186.28589035 -20.9375 182.375 C-21.49308594 181.60526855 -22.04867187 180.83553711 -22.62109375 180.04248047 C-25.58828569 175.91776127 -25.58828569 175.91776127 -28.67797852 171.88525391 C-30 170 -30 170 -29.9375 168 C-28.57017862 165.08304772 -27.70993948 163.87114869 -25 162 C-18.920424 160.86662698 -12.65017889 160.95668487 -6.48828125 160.96484375 C8.62117359 160.97918348 21.20158226 160.95575555 34 152 C35.051875 151.37738281 36.10375 150.75476563 37.1875 150.11328125 C45.27171089 145.19469886 51.55204213 138.82601403 58 132 C58.66 131.34 59.32 130.68 60 130 C59.4946875 129.51789063 58.989375 129.03578125 58.46875 128.5390625 C57.49421875 127.59160156 57.49421875 127.59160156 56.5 126.625 C55.8503125 125.99851562 55.200625 125.37203125 54.53125 124.7265625 C53 123 53 123 53 121 C31.06986852 119.97261203 9.17691168 119.86428881 -12.77276325 119.89860606 C-17.54656638 119.90496638 -22.32037053 119.90545321 -27.09417725 119.90663147 C-36.08536485 119.90970815 -45.07653993 119.91787079 -54.06772208 119.92798096 C-64.32452277 119.93925761 -74.58132415 119.9446813 -84.83812952 119.94967639 C-105.89209327 119.96005759 -126.94604584 119.97758407 -148 120 C-148 119.67 -148 119.34 -148 119 C-103.03957368 118.36240522 -58.08204838 117.89224962 -13.11666489 117.87661743 C-10.07652205 117.87500743 -7.03638686 117.87145526 -3.99624634 117.86743164 C0.82072695 117.86155293 5.63766857 117.86136584 10.45464325 117.86568069 C12.21440362 117.86666361 13.9741657 117.8661225 15.73392487 117.86384201 C44.49934916 117.83311639 44.49934916 117.83311639 51 120 C50.67 119.2575 50.34 118.515 50 117.75 C49 115 49 115 49 111 C39.1 111 29.2 111 19 111 C19 110.67 19 110.34 19 110 C28.57 110 38.14 110 48 110 C48 106.37 48 102.74 48 99 C50.27448664 91.44870436 53.46816114 86.56291661 59 81 C57.44009455 77.27691075 55.14507379 74.84558715 52.3125 72 C51.48363281 71.154375 50.65476563 70.30875 49.80078125 69.4375 C42.19862807 62.82140016 36.96586165 62.57277653 27.1661377 63.12576294 C23.2312758 63.34511473 19.29357238 63.48907363 15.35546875 63.63671875 C14.05556503 63.68722633 14.05556503 63.68722633 12.72940063 63.73875427 C0.07453304 64.19248343 -12.58897208 64.09294694 -25.25 64.0625 C-27.70711256 64.05822946 -30.16422519 64.05399691 -32.62133789 64.04980469 C-38.41424612 64.03833639 -44.20712089 64.02156268 -50 64 C-50 63.67 -50 63.34 -50 63 C-20.96 62.34 8.08 61.68 38 61 C31.72440162 57.01210137 31.72440162 57.01210137 25 54 C25 53.34 25 52.68 25 52 C16.89382253 49.78759576 8.90813355 49.59649266 0.5625 49.4375 C-23.74602945 48.90974334 -23.74602945 48.90974334 -28.1875 45.6875 C-30 43 -30 43 -29.875 41.2109375 C-28.65040236 38.11664168 -26.77626236 35.59406274 -24.8125 32.9375 C-24.37977783 32.34259766 -23.94705566 31.74769531 -23.5012207 31.13476562 C-22.53932776 29.81532971 -21.57422173 28.49823207 -20.60644531 27.18310547 C-18.86417215 24.8154145 -17.13122244 22.4410486 -15.3984375 20.06640625 C-14.16203069 18.37718509 -12.9250563 16.68837921 -11.6875 15 C-11.10137939 14.19941162 -10.51525879 13.39882324 -9.91137695 12.57397461 C-6.73424737 8.26154105 -3.47911595 4.07311136 0 0 Z " fill="#1D1C1D" transform="translate(185,43)"/>
<path d="M0 0 C1.09691162 0.01982437 2.19382324 0.03964874 3.32397461 0.06007385 C5.58823885 0.1017403 7.8524814 0.14460404 10.11669922 0.1887207 C13.52695394 0.25442557 16.93728197 0.31391166 20.34765625 0.37304688 C30.21682098 0.55360425 40.07953911 0.76975288 49.9375 1.2890625 C50.67105713 1.32615829 51.40461426 1.36325409 52.16040039 1.401474 C55.15522523 1.57658922 57.63718386 1.8621342 60.5 2.81640625 C59.778125 3.53183594 59.05625 4.24726563 58.3125 4.984375 C56.53583038 6.7733826 54.78225996 8.58590638 53.0625 10.4296875 C46.47973074 17.36367158 39.8359988 22.12878889 31.5 26.81640625 C30.25863281 27.63625 30.25863281 27.63625 28.9921875 28.47265625 C24.1182005 31.1006367 18.84010982 30.94172738 13.40727234 30.94338989 C12.71681456 30.94494988 12.02635678 30.94650987 11.31497604 30.94811714 C9.01424256 30.95208816 6.7135757 30.94895273 4.4128418 30.94580078 C2.75842755 30.94715649 1.1040136 30.94893738 -0.55039978 30.95111084 C-5.03344727 30.95566321 -9.5164717 30.95390511 -13.99951959 30.95073175 C-18.6889046 30.94819895 -23.37828764 30.95054807 -28.06767273 30.95211792 C-35.9368017 30.95393602 -43.80592128 30.95154178 -51.67504883 30.94677734 C-60.78420681 30.94132596 -69.89334243 30.94310517 -79.00249988 30.94860375 C-86.81913422 30.95313385 -94.63576182 30.95378622 -102.45239705 30.95116508 C-107.12318392 30.94960295 -111.79396027 30.94940698 -116.46474648 30.95270157 C-120.85024507 30.95557911 -125.23571465 30.95360679 -129.6212101 30.94780731 C-131.23496452 30.94647948 -132.84872135 30.94687421 -134.46247482 30.94906998 C-136.65574693 30.95178036 -138.84892455 30.94840188 -141.04219055 30.94338989 C-142.27236562 30.94301287 -143.50254068 30.94263584 -144.76999378 30.94224739 C-147.5 30.81640625 -147.5 30.81640625 -148.5 29.81640625 C-148.59942865 28.16776668 -148.63080182 26.51491512 -148.6328125 24.86328125 C-148.63410156 23.85136719 -148.63539063 22.83945313 -148.63671875 21.796875 C-148.63285156 20.73082031 -148.62898438 19.66476563 -148.625 18.56640625 C-148.62886719 17.51582031 -148.63273437 16.46523437 -148.63671875 15.3828125 C-148.63542969 14.36574219 -148.63414062 13.34867188 -148.6328125 12.30078125 C-148.63168457 11.36975586 -148.63055664 10.43873047 -148.62939453 9.47949219 C-148.50060089 6.82877329 -148.04640351 4.40845854 -147.5 1.81640625 C-133.86764264 1.55270256 -120.2352356 1.29174355 -106.60276222 1.03410339 C-100.26981702 0.91433473 -93.93689129 0.7936888 -87.60400391 0.67089844 C-81.4701978 0.55200274 -75.3363487 0.43559352 -69.20246506 0.32077026 C-66.88500724 0.27697804 -64.567565 0.23235217 -62.25014114 0.1867981 C-41.50168343 -0.22007672 -20.75026566 -0.40137517 0 0 Z " fill="#D0CED4" transform="translate(185.5,170.18359375)"/>
<path d="M0 0 C5.91698081 0.07860723 10.97646561 1.25950492 16.5 3.3125 C16.5 3.6425 16.5 3.9725 16.5 4.3125 C33 3.9825 49.5 3.6525 66.5 3.3125 C66.5 3.9725 66.5 4.6325 66.5 5.3125 C67.58861328 5.4671875 67.58861328 5.4671875 68.69921875 5.625 C71.77858824 6.38088428 73.71270215 7.51894128 76.3125 9.3125 C77.49779297 10.116875 77.49779297 10.116875 78.70703125 10.9375 C79.29871094 11.39125 79.89039063 11.845 80.5 12.3125 C80.5 12.6425 80.5 12.9725 80.5 13.3125 C81.16 13.3125 81.82 13.3125 82.5 13.3125 C89.6704099 17.97944782 95.59533314 24.18594587 101.5 30.3125 C100.84 31.6325 100.18 32.9525 99.5 34.3125 C98.51 34.3125 97.52 34.3125 96.5 34.3125 C96.83 33.6525 97.16 32.9925 97.5 32.3125 C96.72068115 32.37308594 95.9413623 32.43367188 95.13842773 32.49609375 C28.66466202 37.38145283 -38.96802015 34.53142179 -105.5 32.3125 C-104.18 31.9825 -102.86 31.6525 -101.5 31.3125 C-101.17 28.6725 -100.84 26.0325 -100.5 23.3125 C-102.15 22.9825 -103.8 22.6525 -105.5 22.3125 C-105.83 20.0025 -106.16 17.6925 -106.5 15.3125 C-105.51 15.8075 -105.51 15.8075 -104.5 16.3125 C-103.84 15.6525 -103.18 14.9925 -102.5 14.3125 C-103.82 13.6525 -105.14 12.9925 -106.5 12.3125 C-106.5 9.3425 -106.5 6.3725 -106.5 3.3125 C-78.12 3.3125 -49.74 3.3125 -20.5 3.3125 C-20.5 2.9825 -20.5 2.6525 -20.5 2.3125 C-19.58476563 2.33570312 -18.66953125 2.35890625 -17.7265625 2.3828125 C-15.94378906 2.40988281 -15.94378906 2.40988281 -14.125 2.4375 C-12.34996094 2.47230469 -12.34996094 2.47230469 -10.5390625 2.5078125 C-6.31601074 2.23640814 -4.65255715 0.01798669 0 0 Z " fill="#E1DFE4" transform="translate(143.5,91.6875)"/>
<path d="M0 0 C0.76570312 0.8353125 1.53140625 1.670625 2.3203125 2.53125 C3.10148438 3.3665625 3.88265625 4.201875 4.6875 5.0625 C5.26757812 5.7121875 5.84765625 6.361875 6.4453125 7.03125 C5.7853125 8.35125 5.1253125 9.67125 4.4453125 11.03125 C3.4553125 11.03125 2.4653125 11.03125 1.4453125 11.03125 C1.7753125 10.37125 2.1053125 9.71125 2.4453125 9.03125 C1.66599365 9.09183594 0.8866748 9.15242188 0.08374023 9.21484375 C-66.39002548 14.10020283 -134.02270765 11.25017179 -200.5546875 9.03125 C-199.2346875 8.70125 -197.9146875 8.37125 -196.5546875 8.03125 C-196.2246875 5.39125 -195.8946875 2.75125 -195.5546875 0.03125 C-185.96692691 -0.86988744 -176.44984167 -1.10234199 -166.82885742 -1.06640625 C-165.29627023 -1.06448184 -163.7636824 -1.06302052 -162.23109436 -1.0619812 C-158.95681243 -1.05884481 -155.68255697 -1.05261379 -152.40828514 -1.04391479 C-147.21508873 -1.03026291 -142.02190074 -1.02447094 -136.82868958 -1.01977539 C-124.86537683 -1.00778865 -112.90208674 -0.98575123 -100.93878937 -0.96354675 C-89.97206059 -0.94328984 -79.00533962 -0.92523696 -68.03859597 -0.91533184 C-62.89231505 -0.91039467 -57.74607472 -0.90060385 -52.59981 -0.88690186 C-49.37921564 -0.87936051 -46.15862655 -0.8761105 -42.93802452 -0.8739357 C-41.46279064 -0.87208821 -39.98755757 -0.86853801 -38.51233292 -0.86300278 C-29.66603336 -0.83089917 -20.89556435 -1.11486976 -12.07411671 -1.75343323 C-2.99598011 -2.30882871 -2.99598011 -2.30882871 0 0 Z " fill="#D1CED4" transform="translate(238.5546875,114.96875)"/>
<path d="M0 0 C11.11973105 -0.09706846 22.23227892 -0.11112497 33.34790039 0.22045898 C61.4726251 1.05623698 89.58384652 1.15550283 117.71972656 1.13037109 C124.26466491 1.12460227 130.80956285 1.12801716 137.35449982 1.13394356 C142.47982076 1.13757305 147.60513225 1.13640086 152.73045349 1.13381577 C155.14464829 1.13315684 157.55884399 1.13393796 159.97303772 1.13629532 C173.01997148 1.14627364 185.98693052 0.98825058 199 0 C196.125 9.75 196.125 9.75 195 12 C177.17992041 12.86810667 159.40216078 13.16234944 141.5625 13.125 C140.27277283 13.12378143 138.98304565 13.12256287 137.65423584 13.12130737 C120.3887223 13.1023337 103.13984342 12.91776702 85.8815918 12.4284668 C67.88218307 11.92462975 49.87935668 11.68795863 31.875 11.4375 C30.27777085 11.41514126 28.68054184 11.39277194 27.08331299 11.37039185 C18.05557901 11.24414533 9.02781043 11.12066554 0 11 C0 7.37 0 3.74 0 0 Z " fill="#DCD9DF" transform="translate(38,132)"/>
<path d="M0 0 C0.33 0 0.66 0 1 0 C1.66 2.64 2.32 5.28 3 8 C18.02930001 8.07189619 33.05394024 7.95550343 48.08203125 7.78125 C49.03259274 7.77026276 49.98315422 7.75927551 50.9625206 7.74795532 C58.91650933 7.65551082 66.87045811 7.55978882 74.82440186 7.46356201 C137.67113005 6.7040348 137.67113005 6.7040348 162.42480469 7.37231445 C164.95496451 7.43962739 167.48524428 7.49828048 170.015625 7.55664062 C171.65365877 7.59845457 173.2916803 7.64075165 174.9296875 7.68359375 C175.672258 7.70030624 176.41482849 7.71701874 177.17990112 7.73423767 C180.89118382 7.84100828 184.38634056 8.13040517 188 9 C183.00670003 14.86169997 176.51711165 17.9902439 169 19 C166.63703604 19.08852019 164.27189366 19.12626004 161.90727234 19.12698364 C161.21681456 19.12854363 160.52635678 19.13010362 159.81497604 19.13171089 C157.51424256 19.13568191 155.2135757 19.13254648 152.9128418 19.12939453 C151.25842755 19.13075024 149.6040136 19.13253113 147.94960022 19.13470459 C143.46655273 19.13925696 138.9835283 19.13749886 134.50048041 19.1343255 C129.8110954 19.1317927 125.12171236 19.13414182 120.43232727 19.13571167 C112.5631983 19.13752977 104.69407872 19.13513553 96.82495117 19.13037109 C87.71579319 19.12491971 78.60665757 19.12669892 69.49750012 19.1321975 C61.68086578 19.1367276 53.86423818 19.13737997 46.04760295 19.13475883 C41.37681608 19.1331967 36.70603973 19.13300073 32.03525352 19.13629532 C27.64975493 19.13917286 23.26428535 19.13720054 18.8787899 19.13140106 C17.26503548 19.13007323 15.65127865 19.13046796 14.03752518 19.13266373 C11.84425307 19.13537411 9.65107545 19.13199563 7.45780945 19.12698364 C6.22763438 19.12660662 4.99745932 19.12622959 3.73000622 19.12584114 C1 19 1 19 0 18 C-0.08631874 16.65732587 -0.10706473 15.31025678 -0.09765625 13.96484375 C-0.09443359 13.15595703 -0.09121094 12.34707031 -0.08789062 11.51367188 C-0.07951172 10.66353516 -0.07113281 9.81339844 -0.0625 8.9375 C-0.05798828 8.08349609 -0.05347656 7.22949219 -0.04882812 6.34960938 C-0.03700373 4.23304337 -0.01906769 2.11651315 0 0 Z " fill="#D8D6DC" transform="translate(37,182)"/>
<path d="M0 0 C1.2117326 0.02644293 1.2117326 0.02644293 2.44794464 0.05342007 C5.15067825 0.11475208 7.85280881 0.19067878 10.55517578 0.26635742 C12.47073084 0.31231542 14.38631002 0.35727769 16.3019104 0.40130615 C20.39764415 0.49719912 24.49316139 0.59920445 28.58862305 0.70608521 C38.25434467 0.95802015 47.92077342 1.18012531 57.58715057 1.40521049 C60.84655322 1.48143802 64.10592475 1.55890786 67.36529541 1.63648987 C80.46440448 1.94567615 93.56304602 2.20571444 106.66455078 2.38745117 C107.83777201 2.40374604 107.83777201 2.40374604 109.03469467 2.4203701 C115.60115223 2.51038634 122.16768689 2.59343917 128.73431396 2.67007446 C147.54468904 2.89064924 166.32763871 3.35661818 185.12548828 4.05932617 C186.11548828 8.51432617 186.11548828 8.51432617 187.12548828 13.05932617 C185.9581569 12.98827164 184.79082552 12.9172171 183.58812046 12.8440094 C172.55287185 12.20033185 161.57369155 11.92311999 150.52172852 11.96166992 C148.86029608 11.96359668 147.19886304 11.96505688 145.53742981 11.96609497 C142.00459606 11.96921765 138.47178721 11.97542608 134.93896294 11.98416138 C129.34367444 11.99785528 123.74839371 12.00361271 118.15309143 12.00830078 C106.28971283 12.01932146 94.42635383 12.03888775 82.56298828 12.05932617 C69.71840775 12.08141287 56.87383498 12.10194997 44.02923924 12.11274433 C38.47485147 12.11770213 32.92050075 12.12752271 27.36612785 12.14117432 C23.90983133 12.14866386 20.4535398 12.15195527 16.99723625 12.15414047 C15.40337318 12.15600259 13.80951098 12.15958356 12.21565628 12.16507339 C4.13616562 12.19201404 -3.85196091 12.13253298 -11.87451172 11.05932617 C-11.68701172 8.68432617 -11.68701172 8.68432617 -10.87451172 6.05932617 C-8.31201172 4.74682617 -8.31201172 4.74682617 -5.87451172 4.05932617 C-5.87451172 3.39932617 -5.87451172 2.73932617 -5.87451172 2.05932617 C-7.52451172 2.05932617 -9.17451172 2.05932617 -10.87451172 2.05932617 C-7.12374475 -0.44118514 -4.32631562 -0.13847207 0 0 Z " fill="#DDDBE0" transform="translate(48.87451171875,149.940673828125)"/>
<path d="M0 0 C1.16523193 0.02933624 1.16523193 0.02933624 2.35400391 0.05926514 C9.96634535 0.25936261 17.50716764 0.55793626 25.0625 1.5625 C20.4375 7.3125 20.4375 7.3125 17.0625 9.5625 C15.13708496 9.76504517 15.13708496 9.76504517 12.92773438 9.69775391 C11.67736389 9.66749619 11.67736389 9.66749619 10.4017334 9.6366272 C9.49572388 9.60443085 8.58971436 9.5722345 7.65625 9.5390625 C6.70351196 9.51403656 5.75077393 9.48901062 4.76916504 9.46322632 C1.6999138 9.38105321 -1.3687016 9.28502946 -4.4375 9.1875 C-36.67608386 8.23494828 -68.88074382 8.67240899 -101.125 9.0625 C-105.13476279 9.11091592 -109.1445281 9.15911301 -113.15429688 9.20703125 C-114.62287738 9.22459976 -114.62287738 9.22459976 -116.12112617 9.24252319 C-123.61116075 9.33119076 -131.1012729 9.40957639 -138.59147453 9.48269653 C-143.73160108 9.53434616 -148.87065839 9.60934819 -154.01025391 9.69921875 C-156.21125685 9.7270544 -158.41226545 9.75444946 -160.61328125 9.78125 C-161.5696196 9.80449341 -162.52595795 9.82773682 -163.51127625 9.85168457 C-166.06762695 9.87304688 -166.06762695 9.87304688 -169.9375 9.5625 C-172.0894437 6.33458445 -172.13836443 5.27849191 -171.9375 1.5625 C-114.72779005 -0.66097161 -57.23482221 -1.47740525 0 0 Z " fill="#E6E4E9" transform="translate(209.9375,181.4375)"/>
<path d="M0 0 C0.89320155 2.47391471 1.11469002 3.66919744 0.24023438 6.19140625 C-0.13810547 6.97386719 -0.51644531 7.75632813 -0.90625 8.5625 C-3.28162903 14.14873621 -3.60108544 18.98541643 -3.5 25 C-3.51546875 25.92039063 -3.5309375 26.84078125 -3.546875 27.7890625 C-3.50831322 34.6337783 -1.83888018 39.82714737 1 46 C1.67449243 47.66351501 2.34326864 49.32939348 3 51 C-5.57142857 50.28571429 -5.57142857 50.28571429 -9 47 C-8.01 46.505 -8.01 46.505 -7 46 C-7.33 44.02 -7.66 42.04 -8 40 C-8.99 40.66 -9.98 41.32 -11 42 C-12.9375 42.0625 -12.9375 42.0625 -15 41 C-17.84189975 37.29486108 -19 34.73118747 -19 30 C-17.35 29.67 -15.7 29.34 -14 29 C-14.33 26.36 -14.66 23.72 -15 21 C-16.32 20.67 -17.64 20.34 -19 20 C-18.52389341 15.00088076 -16.96837781 12.02167317 -14 8 C-12.68 8.99 -11.36 9.98 -10 11 C-7.70954986 6.18790099 -7.70954986 6.18790099 -7 1 C-4 0 -4 0 0 0 Z " fill="#1E1B1C" transform="translate(258,123)"/>
<path d="M0 0 C11.11909464 -0.10731123 22.23290933 -0.11110616 33.34790039 0.22045898 C61.4726251 1.05623698 89.58384652 1.15550283 117.71972656 1.13037109 C124.26466491 1.12460227 130.80956285 1.12801716 137.35449982 1.13394356 C142.47982076 1.13757305 147.60513225 1.13640086 152.73045349 1.13381577 C155.14464829 1.13315684 157.55884399 1.13393796 159.97303772 1.13629532 C173.01997148 1.14627364 185.98693052 0.98825058 199 0 C196.125 9.75 196.125 9.75 195 12 C170.35557183 13.4390907 145.67528376 13.09813414 121 13 C121 12.67 121 12.34 121 12 C122.28986816 11.97494385 123.57973633 11.9498877 124.90869141 11.92407227 C129.75821523 11.82890579 134.60763158 11.72896571 139.45703125 11.62768555 C141.54391949 11.5847448 143.63083373 11.54304711 145.71777344 11.50268555 C157.17403667 11.28026049 168.58117219 11.01398395 180 10 C180 9.34 180 8.68 180 8 C172.41 8 164.82 8 157 8 C157 6.68 157 5.36 157 4 C155.89643661 3.98969254 154.79287323 3.97938507 153.65586853 3.96876526 C143.05764203 3.86935661 132.45945304 3.76652539 121.86128902 3.66066074 C116.41771251 3.60638651 110.97413073 3.55316276 105.53051758 3.50268555 C82.19857493 3.28558422 58.8745585 3.01393379 35.55088806 2.33253479 C23.69864578 1.98852005 11.85688499 1.88611316 0 2 C0 1.34 0 0.68 0 0 Z " fill="#A7A4AB" transform="translate(38,132)"/>
<path d="M0 0 C5.91698081 0.07860723 10.97646561 1.25950492 16.5 3.3125 C16.5 3.6425 16.5 3.9725 16.5 4.3125 C33 3.9825 49.5 3.6525 66.5 3.3125 C66.5 3.9725 66.5 4.6325 66.5 5.3125 C18.8157942 6.87441841 -28.8083676 6.34222969 -76.5 5.3125 C-76.5 4.9825 -76.5 4.6525 -76.5 4.3125 C-58.02 3.9825 -39.54 3.6525 -20.5 3.3125 C-20.5 2.9825 -20.5 2.6525 -20.5 2.3125 C-19.58476563 2.33570312 -18.66953125 2.35890625 -17.7265625 2.3828125 C-15.94378906 2.40988281 -15.94378906 2.40988281 -14.125 2.4375 C-12.34996094 2.47230469 -12.34996094 2.47230469 -10.5390625 2.5078125 C-6.31601074 2.23640814 -4.65255715 0.01798669 0 0 Z " fill="#9C99A0" transform="translate(143.5,91.6875)"/>
<path d="M0 0 C0.66 0.33 1.32 0.66 2 1 C11.10368252 2.50556241 20.49480607 2.28444721 29.70117188 2.40136719 C37.30354863 2.50565712 44.03591774 2.65222781 51 6 C51 6.33 51 6.66 51 7 C7.99159787 8.19388403 7.99159787 8.19388403 -12 8 C-12 7.67 -12 7.34 -12 7 C-6.06 6.505 -6.06 6.505 0 6 C-2.64 5.34 -5.28 4.68 -8 4 C-8 3.67 -8 3.34 -8 3 C-5.36 2.67 -2.72 2.34 0 2 C0 1.34 0 0.68 0 0 Z " fill="#E4E1E6" transform="translate(158,89)"/>
<path d="M0 0 C3.3 0 6.6 0 10 0 C10 0.66 10 1.32 10 2 C11.04494629 1.93506348 12.08989258 1.87012695 13.16650391 1.80322266 C29.41982599 0.86085353 45.68661027 0.62740416 61.96218491 0.40766525 C64.39575353 0.37471903 66.82929936 0.34033275 69.2628479 0.30593872 C104.51976886 -0.18080179 139.74962922 0.26818346 175 1 C175 1.33 175 1.66 175 2 C170.57680664 2.85215587 166.402222 3.123619 161.90054321 3.12025452 C161.20937987 3.12110894 160.51821652 3.12196337 159.80610883 3.12284368 C157.5030366 3.12448349 155.20003811 3.11900179 152.89697266 3.11352539 C151.2409363 3.11324317 149.58489981 3.11340194 147.92886353 3.1139679 C143.44174763 3.1142545 138.95465853 3.10837977 134.46754885 3.10139394 C129.77502866 3.09513774 125.08250784 3.09455481 120.38998413 3.09336853 C111.50785343 3.0902619 102.62573506 3.08205751 93.74360979 3.07201904 C83.63000091 3.06083716 73.51639143 3.05534222 63.40277791 3.05032361 C42.60184506 3.03987435 21.80092331 3.02228784 1 3 C0.67 2.01 0.34 1.02 0 0 Z " fill="#959199" transform="translate(37,198)"/>
<path d="M0 0 C-4.56729628 3.62233843 -7.91741497 4.1423271 -13.6953125 4.31640625 C-14.6865361 4.34778183 -14.6865361 4.34778183 -15.69778442 4.37979126 C-17.84007229 4.44587621 -19.98247104 4.50479632 -22.125 4.5625 C-22.84909058 4.58301422 -23.57318115 4.60352844 -24.31921387 4.62466431 C-29.21253412 4.76308392 -34.10606382 4.88544272 -39 5 C-40.53769043 5.03722168 -40.53769043 5.03722168 -42.10644531 5.07519531 C-44.48774424 5.12694361 -46.86828685 5.16310731 -49.25 5.1875 C-50.49265625 5.20167969 -51.7353125 5.21585938 -53.015625 5.23046875 C-55.90887355 5.00703725 -57.56480081 4.52501335 -60 3 C-53.28454794 0.57415388 -46.64905117 0.55287202 -39.5625 0.375 C-38.2938208 0.33705322 -37.0251416 0.29910645 -35.71801758 0.26000977 C-23.81215781 -0.06755179 -11.90923654 -0.10843261 0 0 Z " fill="#DEDCE1" transform="translate(210,200)"/>
<path d="M0 0 C1.29117233 0.00141495 2.58234467 0.0028299 3.91264343 0.00428772 C7.29745525 0.00805328 10.68222217 0.01783038 14.0670166 0.0289917 C17.54011427 0.03933622 21.0132194 0.04381289 24.48632812 0.04882812 C31.26564311 0.05945987 38.04492876 0.07646181 44.82421875 0.09765625 C44.82421875 0.42765625 44.82421875 0.75765625 44.82421875 1.09765625 C43.56146118 1.12738525 43.56146118 1.12738525 42.27319336 1.15771484 C39.12142199 1.2362542 35.9700062 1.3229612 32.81860352 1.41503906 C31.45996612 1.45309704 30.1012359 1.48798846 28.74243164 1.51953125 C26.77858956 1.56568839 24.81505912 1.62454122 22.8515625 1.68359375 C21.67327881 1.71501465 20.49499512 1.74643555 19.28100586 1.77880859 C15.78797231 1.98493425 15.78797231 1.98493425 12.41992188 3.125 C8.19299699 4.26840499 4.60460401 4.26015547 0.265625 4.07421875 C-0.91810448 4.03667984 -0.91810448 4.03667984 -2.12574768 3.99838257 C-4.62207375 3.91685233 -7.11752729 3.82000921 -9.61328125 3.72265625 C-11.31572069 3.66434798 -13.01819493 3.60704629 -14.72070312 3.55078125 C-18.87288876 3.41137463 -23.02436295 3.25824165 -27.17578125 3.09765625 C-27.17578125 2.43765625 -27.17578125 1.77765625 -27.17578125 1.09765625 C-18.09682521 0.26416689 -9.11436378 -0.03844995 0 0 Z " fill="#E5E2E6" transform="translate(141.17578125,199.90234375)"/>
<path d="M0 0 C0.66 0.33 1.32 0.66 2 1 C3.66334107 1.28794852 5.33428847 1.5326933 7.0078125 1.75390625 C7.99394531 1.88603516 8.98007813 2.01816406 9.99609375 2.15429688 C11.54490234 2.35635742 11.54490234 2.35635742 13.125 2.5625 C14.16527344 2.70107422 15.20554688 2.83964844 16.27734375 2.98242188 C18.8511565 3.32480981 21.42536483 3.6638618 24 4 C24 4.33 24 4.66 24 5 C23.39671875 5.04898438 22.7934375 5.09796875 22.171875 5.1484375 C21.37265625 5.22320312 20.5734375 5.29796875 19.75 5.375 C18.96109375 5.44460937 18.1721875 5.51421875 17.359375 5.5859375 C15.00792037 5.86453444 15.00792037 5.86453444 13.19140625 7.01367188 C10.49920683 8.22540156 8.52363528 8.22804039 5.578125 8.1953125 C4.04091797 8.18564453 4.04091797 8.18564453 2.47265625 8.17578125 C1.40917969 8.15902344 0.34570312 8.14226562 -0.75 8.125 C-2.36841797 8.11146484 -2.36841797 8.11146484 -4.01953125 8.09765625 C-6.67991278 8.07411305 -9.33984336 8.04122799 -12 8 C-12 7.67 -12 7.34 -12 7 C-6.06 6.505 -6.06 6.505 0 6 C-2.64 5.34 -5.28 4.68 -8 4 C-8 3.67 -8 3.34 -8 3 C-5.36 2.67 -2.72 2.34 0 2 C0 1.34 0 0.68 0 0 Z " fill="#C3C1C3" transform="translate(158,89)"/>
<path d="M0 0 C8.91 0 17.82 0 27 0 C27 0.66 27 1.32 27 2 C30.63 2 34.26 2 38 2 C38 2.33 38 2.66 38 3 C25.13 3 12.26 3 -1 3 C-0.67 2.01 -0.34 1.02 0 0 Z " fill="#ECEAF0" transform="translate(191,140)"/>
<path d="M0 0 C7.26 0 14.52 0 22 0 C22 0.33 22 0.66 22 1 C16.72 1 11.44 1 6 1 C6 2.65 6 4.3 6 6 C11.94 6.33 17.88 6.66 24 7 C24 7.33 24 7.66 24 8 C20.37515001 8.08681476 16.75056557 8.14032721 13.125 8.1875 C11.57619141 8.22520508 11.57619141 8.22520508 9.99609375 8.26367188 C9.00996094 8.27333984 8.02382813 8.28300781 7.0078125 8.29296875 C5.64100342 8.31653442 5.64100342 8.31653442 4.24658203 8.34057617 C3.50520996 8.22818604 2.76383789 8.1157959 2 8 C0 5 0 5 0 0 Z " fill="#EFEDF1" transform="translate(38,183)"/>
<path d="M0 0 C2.64 0 5.28 0 8 0 C8.08090971 1.62418745 8.13914995 3.24951745 8.1875 4.875 C8.22230469 5.77992188 8.25710937 6.68484375 8.29296875 7.6171875 C8.19628906 8.40351563 8.09960938 9.18984375 8 10 C7.01 10.66 6.02 11.32 5 12 C1.35224614 8.11690718 0.41474367 5.28798182 0 0 Z " fill="#CBC9D2" transform="translate(239,153)"/>
<path d="M0 0 C1.16337891 0.00322266 2.32675781 0.00644531 3.52539062 0.00976562 C4.74033203 0.01814453 5.95527344 0.02652344 7.20703125 0.03515625 C8.43357422 0.03966797 9.66011719 0.04417969 10.92382812 0.04882812 C13.95577793 0.0606256 16.98763031 0.07708704 20.01953125 0.09765625 C20.01953125 0.75765625 20.01953125 1.41765625 20.01953125 2.09765625 C14.40105097 2.89212462 8.94141949 3.28011905 3.26953125 3.28515625 C2.15771484 3.30352539 2.15771484 3.30352539 1.0234375 3.32226562 C-2.79834526 3.33255768 -5.74337516 3.25287909 -8.98046875 1.09765625 C-5.74295197 0.01848399 -3.40295104 -0.01659976 0 0 Z " fill="#D6D3D6" transform="translate(158.98046875,201.90234375)"/>
<path d="M0 0 C0.99 0.66 1.98 1.32 3 2 C3.29296875 4.1640625 3.29296875 4.1640625 3.1875 6.625 C3.16042969 7.44226563 3.13335937 8.25953125 3.10546875 9.1015625 C3.07066406 9.72804687 3.03585938 10.35453125 3 11 C0.36 11 -2.28 11 -5 11 C-4.46884894 6.48521602 -2.63379708 3.65333143 0 0 Z " fill="#D4D3DB" transform="translate(244,131)"/>
<path d="M0 0 C6.80203375 -0.37634203 11.75690073 0.22528921 18 3 C18 3.33 18 3.66 18 4 C12.39 4 6.78 4 1 4 C0.67 2.68 0.34 1.36 0 0 Z " fill="#DCD9DF" transform="translate(191,92)"/>
<path d="M0 0 C3.3 0.33 6.6 0.66 10 1 C10 1.33 10 1.66 10 2 C4.06 2.495 4.06 2.495 -2 3 C-1.34 2.01 -0.68 1.02 0 0 Z M-12.1796875 1.8046875 C-11.08914062 1.82789062 -9.99859375 1.85109375 -8.875 1.875 C-7.77929688 1.89304687 -6.68359375 1.91109375 -5.5546875 1.9296875 C-4.71164063 1.95289062 -3.86859375 1.97609375 -3 2 C-2.67 2.66 -2.34 3.32 -2 4 C-6.84241633 5.33583899 -10.93437617 6.25328119 -16 6 C-16.33 5.34 -16.66 4.68 -17 4 C-15 2 -15 2 -12.1796875 1.8046875 Z " fill="#D5D2D7" transform="translate(138,92)"/>
<path d="M0 0 C4.95 0 9.9 0 15 0 C14.67 0.66 14.34 1.32 14 2 C10.94080612 3.01973129 8.87581975 3.11533602 5.67578125 3.09765625 C4.64775391 3.09443359 3.61972656 3.09121094 2.56054688 3.08789062 C1.48869141 3.07951172 0.41683594 3.07113281 -0.6875 3.0625 C-1.77095703 3.05798828 -2.85441406 3.05347656 -3.97070312 3.04882812 C-6.64719085 3.03703743 -9.32356777 3.02058063 -12 3 C-12 2.67 -12 2.34 -12 2 C-6.06 1.505 -6.06 1.505 0 1 C0 0.67 0 0.34 0 0 Z " fill="#D4CDD6" transform="translate(158,94)"/>
<path d="M0 0 C3.63 0.33 7.26 0.66 11 1 C8.9375 3.0625 8.9375 3.0625 6 5 C2.1875 4.75 2.1875 4.75 -1 4 C-0.67 2.68 -0.34 1.36 0 0 Z " fill="#D8D7DE" transform="translate(213,191)"/>
<path d="M0 0 C0.66 0.33 1.32 0.66 2 1 C1.01 4.63 0.02 8.26 -1 12 C-2.33333333 9.33333333 -3.66666667 6.66666667 -5 4 C-3.35 2.68 -1.7 1.36 0 0 Z " fill="#100F10" transform="translate(250,126)"/>
<path d="M0 0 C-0.33 0.61875 -0.66 1.2375 -1 1.875 C-2.14193235 3.91018344 -2.14193235 3.91018344 -2 6 C-3.65 6.33 -5.3 6.66 -7 7 C-7 4.66666667 -7 2.33333333 -7 0 C-3.86650268 -1.04449911 -3.01031744 -0.93423645 0 0 Z " fill="#E3E1E5" transform="translate(45,144)"/>
<path d="M0 0 C0 0.66 0 1.32 0 2 C4.62 2 9.24 2 14 2 C14 2.33 14 2.66 14 3 C11.24973583 3.05404449 8.50053797 3.09369306 5.75 3.125 C4.97269531 3.14175781 4.19539062 3.15851563 3.39453125 3.17578125 C-3.72431144 3.23662606 -3.72431144 3.23662606 -7 1 C-4 0 -4 0 0 0 Z " fill="#BFBDC0" transform="translate(157,202)"/>
<path d="M0 0 C3.3 0 6.6 0 10 0 C9 2 9 2 8 3 C5.66702567 3.04092937 3.33294775 3.04241723 1 3 C0.67 2.01 0.34 1.02 0 0 Z " fill="#928886" transform="translate(37,198)"/>
<path d="M0 0 C3.63 0 7.26 0 11 0 C11 0.33 11 0.66 11 1 C9.8553125 1.185625 9.8553125 1.185625 8.6875 1.375 C5.79732864 1.88102792 5.79732864 1.88102792 3 4 C2.34 4 1.68 4 1 4 C0.67 4.66 0.34 5.32 0 6 C0 4.02 0 2.04 0 0 Z " fill="#F5F4F8" transform="translate(38,163)"/>
<path d="M0 0 C0.66 2.31 1.32 4.62 2 7 C-1.65316671 5.75023244 -2.78065836 5.32901247 -5 2 C-2 0 -2 0 0 0 Z " fill="#100F10" transform="translate(250,163)"/>
<path d="M0 0 C1.98 0 3.96 0 6 0 C6 2.64 6 5.28 6 8 C5.67 8 5.34 8 5 8 C5 6.35 5 4.7 5 3 C3.68 3 2.36 3 1 3 C0.67 2.01 0.34 1.02 0 0 Z " fill="#E4E4EA" transform="translate(241,154)"/>
<path d="M0 0 C-4.455 1.485 -4.455 1.485 -9 3 C-9 2.01 -9 1.02 -9 0 C-5.32431536 -0.91892116 -3.83619425 -0.95904856 0 0 Z " fill="#D5D3D8" transform="translate(210,201)"/>
<path d="M0 0 C2.64 0 5.28 0 8 0 C8 1.32 8 2.64 8 4 C7.01 4 6.02 4 5 4 C4.67 3.34 4.34 2.68 4 2 C1.98330173 0.86649466 1.98330173 0.86649466 0 0 Z " fill="#353235" transform="translate(239,142)"/>
<path d="M0 0 C0.99 0.99 1.98 1.98 3 3 C2.34 4.65 1.68 6.3 1 8 C0.67 8 0.34 8 0 8 C-1.125 2.25 -1.125 2.25 0 0 Z " fill="#DAD8D7" transform="translate(146,80)"/>
</svg>
