<?xml version="1.0" encoding="UTF-8"?>
<svg version="1.1" xmlns="http://www.w3.org/2000/svg" width="298" height="295">
<path d="M0 0 C98.34 0 196.68 0 298 0 C298 97.35 298 194.7 298 295 C199.66 295 101.32 295 0 295 C0 197.65 0 100.3 0 0 Z " fill="#EFEEEC" transform="translate(0,0)"/>
<path d="M0 0 C1.10851517 2.22594855 2.01793706 4.34816315 2.8828125 6.66796875 C3.14254852 7.34040115 3.40228455 8.01283356 3.66989136 8.7056427 C4.21809652 10.13186157 4.76076844 11.56021765 5.29833984 12.99047852 C6.11696741 15.16615171 6.95335375 17.33430511 7.79296875 19.50195312 C8.32399016 20.89021486 8.85397133 22.27887502 9.3828125 23.66796875 C9.6307254 24.31195114 9.87863831 24.95593353 10.13406372 25.61943054 C11.54439066 29.3945061 12.47131751 33.0057232 13 37 C13.99 37 14.98 37 16 37 C16 37.99 16 38.98 16 40 C16.59691115 39.99907821 17.19382231 39.99815641 17.80882168 39.99720669 C32.31312845 39.97515083 46.81743372 39.95858814 61.3217535 39.94818783 C68.33584634 39.94302502 75.349928 39.93598261 82.36401367 39.92456055 C89.12668068 39.91355312 95.88933364 39.90772381 102.65200996 39.90512276 C105.2385228 39.90326797 107.82503497 39.89964633 110.41154289 39.89426994 C114.02038855 39.88706349 117.62918547 39.88600889 121.23803711 39.88647461 C122.3191275 39.88287933 123.4002179 39.87928406 124.5140686 39.87557983 C125.49148514 39.8769545 126.46890167 39.87832916 127.47593689 39.87974548 C128.33043899 39.87882369 129.18494108 39.8779019 130.06533718 39.87695217 C132 40 132 40 133 41 C134.40103143 52.10984321 134.14728889 63.39916717 134.1328125 74.57421875 C134.13348808 76.43357862 134.13446022 78.2929384 134.13571167 80.15229797 C134.13717557 84.02414807 134.1350758 87.8959749 134.13037109 91.76782227 C134.12466257 96.70325151 134.12796828 101.63862648 134.13394356 106.57405376 C134.13757443 110.40471295 134.13639922 114.23535947 134.13381577 118.06601906 C134.1331541 119.88508931 134.13394798 121.70416075 134.13629532 123.5232296 C134.15714689 144.20806318 134.15714689 144.20806318 133 151 C131.38635957 152.61364043 129.63279239 152.14164417 127.40000916 152.15821838 C126.40576431 152.1680072 125.41151947 152.17779602 124.387146 152.18788147 C123.28735413 152.19363693 122.18756226 152.1993924 121.05444336 152.20532227 C119.32784233 152.22017166 119.32784233 152.22017166 117.56636047 152.23532104 C113.74087621 152.26704662 109.9153795 152.29173703 106.08984375 152.31640625 C103.44568041 152.33696624 100.80152043 152.35796244 98.15736389 152.37937927 C91.89587961 152.42935606 85.63436955 152.47427631 79.37283474 152.51740164 C72.24595156 152.5667315 65.11911508 152.62166534 57.99227703 152.67708123 C43.32822888 152.79097777 28.66413427 152.89780003 14 153 C13.79910357 153.74869008 13.59820715 154.49738016 13.39122295 155.26875782 C13.12497018 156.25440566 12.8587174 157.2400535 12.58439636 158.25556946 C12.19023922 159.71891708 12.19023922 159.71891708 11.78811932 161.21182728 C10.80050541 164.70576289 9.60443667 168.02846465 8.30078125 171.41796875 C8.0608696 172.04608963 7.82095795 172.67421051 7.57377625 173.32136536 C6.82491832 175.27866705 6.06889335 177.23309986 5.3125 179.1875 C4.79574045 180.53431979 4.27946128 181.881324 3.76367188 183.22851562 C2.51463118 186.48781638 1.25915807 189.74459234 0 193 C-3.74032016 192.39664151 -6.7242062 191.32536566 -10.10546875 189.62890625 C-11.56750732 188.89849121 -11.56750732 188.89849121 -13.05908203 188.15332031 C-14.60764893 187.36586426 -14.60764893 187.36586426 -16.1875 186.5625 C-17.25597168 186.02334961 -18.32444336 185.48419922 -19.42529297 184.92871094 C-28.07057936 180.53692096 -36.57640167 175.93468622 -44.99658203 171.12744141 C-46.95058692 170.02780765 -48.92131593 168.96798882 -50.90234375 167.91796875 C-62.2952472 161.81169498 -70.06057998 155.08363306 -75 143 C-75.46535156 141.87207031 -75.93070313 140.74414062 -76.41015625 139.58203125 C-80 130.5724234 -80 130.5724234 -80 127 C-78.9790625 126.70609375 -78.9790625 126.70609375 -77.9375 126.40625 C-71.44280114 124.40256631 -65.3852069 121.89768849 -59.3125 118.875 C-58.25192383 118.35196289 -58.25192383 118.35196289 -57.16992188 117.81835938 C-53.43976257 116.11230387 -53.43976257 116.11230387 -51 113 C-51.84820312 113.51949219 -52.69640625 114.03898437 -53.5703125 114.57421875 C-72.6361255 126 -72.6361255 126 -82 126 C-83.7890625 124.28515625 -83.7890625 124.28515625 -85.625 122.0625 C-86.54152344 120.96615234 -86.54152344 120.96615234 -87.4765625 119.84765625 C-87.97929688 119.23792969 -88.48203125 118.62820312 -89 118 C-89.33 117.67 -89.66 117.34 -90 117 C-90.36690919 111.16223269 -90.44271267 105.32263541 -90.51489258 99.47460938 C-90.5464069 97.5055301 -90.59402912 95.53663696 -90.65844727 93.56835938 C-91.25388477 75.12378877 -91.25388477 75.12378877 -86.24609375 69.16015625 C-83.95968418 67.02267918 -82.75499212 66.08886398 -79.64160156 65.72241211 C-69.95972599 66.69479382 -59.16046541 73.96481921 -51 79 C-54.03249254 75.75122954 -57.56325847 73.96099859 -61.5 72 C-62.15742187 71.65710938 -62.81484375 71.31421875 -63.4921875 70.9609375 C-69.12354151 68.13447246 -74.89240107 66.49435229 -81 65 C-72.33905197 40.25178194 -62.59897739 30.51768157 -39.875 18.125 C-38.57393559 17.41208492 -37.27299219 16.69894896 -35.97216797 15.9855957 C-32.31824796 13.98399158 -28.65968218 11.99104893 -25 10 C-24.11119141 9.51547363 -23.22238281 9.03094727 -22.30664062 8.53173828 C-4.10928771 -1.36976257 -4.10928771 -1.36976257 0 0 Z " fill="#9F7079" transform="translate(126,51)"/>
<path d="M0 0 C1.10851517 2.22594855 2.01793706 4.34816315 2.8828125 6.66796875 C3.14254852 7.34040115 3.40228455 8.01283356 3.66989136 8.7056427 C4.21809652 10.13186157 4.76076844 11.56021765 5.29833984 12.99047852 C6.11696741 15.16615171 6.95335375 17.33430511 7.79296875 19.50195312 C8.32399016 20.89021486 8.85397133 22.27887502 9.3828125 23.66796875 C9.6307254 24.31195114 9.87863831 24.95593353 10.13406372 25.61943054 C11.23311785 28.56131036 12.04557747 31.28736944 12.53857422 34.39575195 C12.69084473 35.25515381 12.84311523 36.11455566 13 37 C13.66 37.33 14.32 37.66 15 38 C10.27213037 41.72943753 5.9177468 41.35415147 0.1875 41.1875 C-1.13797852 41.16719727 -1.13797852 41.16719727 -2.49023438 41.14648438 C-4.66042023 41.11129217 -6.83029033 41.05748985 -9 41 C-8.01 43.64 -7.02 46.28 -6 49 C-8.64 49 -11.28 49 -14 49 C-13.505 51.475 -13.505 51.475 -13 54 C-15.31 52.68 -17.62 51.36 -20 50 C-19.34 48.35 -18.68 46.7 -18 45 C-18.99 44.67 -19.98 44.34 -21 44 C-21.33 45.98 -21.66 47.96 -22 50 C-23.65 49.67 -25.3 49.34 -27 49 C-27 51.31 -27 53.62 -27 56 C-27.721875 55.95875 -28.44375 55.9175 -29.1875 55.875 C-32.20729369 56.00921305 -34.26935729 56.75170619 -37 58 C-36.01 60.97 -35.02 63.94 -34 67 C-38.625 69.125 -38.625 69.125 -42 68 C-41.67 68.99 -41.34 69.98 -41 71 C-41.309375 71.5775 -41.61875 72.155 -41.9375 72.75 C-43.40978898 75.86778843 -43.13077327 78.59989503 -43 82 C-42.34 82 -41.68 82 -41 82 C-41.3403125 80.8553125 -41.3403125 80.8553125 -41.6875 79.6875 C-41.8421875 78.3571875 -41.8421875 78.3571875 -42 77 C-40.625 75.375 -40.625 75.375 -39 74 C-38.505 72.515 -38.505 72.515 -38 71 C-36.35 71.99 -34.7 72.98 -33 74 C-32.505 72.02 -32.505 72.02 -32 70 C-29.69 70 -27.38 70 -25 70 C-26.1858237 73.37503669 -27.27573689 75.64722731 -30 78 C-28.824375 78.4021875 -28.824375 78.4021875 -27.625 78.8125 C-25 80 -25 80 -23 83 C-23.61875 83.0825 -24.2375 83.165 -24.875 83.25 C-27.16088794 83.80583476 -27.16088794 83.80583476 -28.1875 85.9375 C-28.455625 86.618125 -28.72375 87.29875 -29 88 C-29.33 88.66 -29.66 89.32 -30 90 C-30.66 90 -31.32 90 -32 90 C-32 92.31 -32 94.62 -32 97 C-33.8125 97.6875 -33.8125 97.6875 -36 98 C-37.8125 96.8125 -37.8125 96.8125 -39 95 C-38.6875 92.8125 -38.6875 92.8125 -38 91 C-38.99 90.67 -39.98 90.34 -41 90 C-41.66 91.32 -42.32 92.64 -43 94 C-43.33 93.01 -43.66 92.02 -44 91 C-46.64 91 -49.28 91 -52 91 C-51.34 93.64 -50.68 96.28 -50 99 C-42.04345299 99.62056634 -34.13714027 100.04725962 -26.15234375 99.9609375 C-24.39543213 99.94256836 -24.39543213 99.94256836 -22.60302734 99.92382812 C-20.2554775 99.89145259 -17.90806896 99.84602251 -15.56103516 99.78710938 C-14.47999512 99.77228516 -13.39895508 99.75746094 -12.28515625 99.7421875 C-11.31457275 99.7201123 -10.34398926 99.69803711 -9.34399414 99.67529297 C-8.57047607 99.78244629 -7.79695801 99.88959961 -7 100 C-6.01 101.485 -6.01 101.485 -5 103 C-3.35 102.67 -1.7 102.34 0 102 C0.495 105.465 0.495 105.465 1 109 C0.01 109 -0.98 109 -2 109 C-2 107.35 -2 105.7 -2 104 C-2.66 104 -3.32 104 -4 104 C-3.67 104.99 -3.34 105.98 -3 107 C-3.66 107.99 -4.32 108.98 -5 110 C-5.66 109.67 -6.32 109.34 -7 109 C-7 107.02 -7 105.04 -7 103 C-7.66 103 -8.32 103 -9 103 C-8.67 104.98 -8.34 106.96 -8 109 C-9.98 110.485 -9.98 110.485 -12 112 C-12 110.68 -12 109.36 -12 108 C-11.34 108 -10.68 108 -10 108 C-10.66 107.34 -11.32 106.68 -12 106 C-12.66 106 -13.32 106 -14 106 C-14.66 106.99 -15.32 107.98 -16 109 C-17.98 108.505 -17.98 108.505 -20 108 C-19.505 111.465 -19.505 111.465 -19 115 C-22 117 -22 117 -24.1875 116.625 C-24.785625 116.41875 -25.38375 116.2125 -26 116 C-25.34 114.68 -24.68 113.36 -24 112 C-23.67 112 -23.34 112 -23 112 C-22.67 110.35 -22.34 108.7 -22 107 C-22.99 107 -23.98 107 -25 107 C-25.495 108.485 -25.495 108.485 -26 110 C-26.99 109.67 -27.98 109.34 -29 109 C-29 106.69 -29 104.38 -29 102 C-30.10456543 102.07686035 -30.10456543 102.07686035 -31.23144531 102.15527344 C-34.56994171 102.37531309 -37.9094975 102.56299053 -41.25 102.75 C-42.40886719 102.83121094 -43.56773438 102.91242188 -44.76171875 102.99609375 C-45.87675781 103.05410156 -46.99179688 103.11210937 -48.140625 103.171875 C-49.16704102 103.2347168 -50.19345703 103.29755859 -51.25097656 103.36230469 C-54.72064663 102.90502313 -55.82118678 101.65286463 -58 99 C-57.01 98.505 -57.01 98.505 -56 98 C-56 96.68 -56 95.36 -56 94 C-56.66 93.67 -57.32 93.34 -58 93 C-57.7834375 93.58265625 -57.566875 94.1653125 -57.34375 94.765625 C-57 97 -57 97 -57.96875 98.921875 C-62.0986854 103.85251216 -62.0986854 103.85251216 -66.4375 104.5625 C-70.12826501 103.97974763 -73.45241999 103.15839347 -77 102 C-77.33 105.63 -77.66 109.26 -78 113 C-79.98 113.495 -79.98 113.495 -82 114 C-81.83757812 113.08347656 -81.67515625 112.16695313 -81.5078125 111.22265625 C-80.7607873 105.97632206 -80.8547749 100.72636319 -80.875 95.4375 C-80.87113281 94.42236328 -80.86726563 93.40722656 -80.86328125 92.36132812 C-80.86967778 87.46478506 -80.96373652 82.8112233 -82 78 C-80.68 78.33 -79.36 78.66 -78 79 C-77.34 82.63 -76.68 86.26 -76 90 C-73.03 90 -70.06 90 -67 90 C-67 89.34 -67 88.68 -67 88 C-62.125 88.875 -62.125 88.875 -61 90 C-60.443125 89.34 -59.88625 88.68 -59.3125 88 C-57 86 -57 86 -54.25 85.75 C-53.5075 85.8325 -52.765 85.915 -52 86 C-51.67 83.36 -51.34 80.72 -51 78 C-60.63123199 72.20720061 -69.83945974 67.16949307 -81 65 C-72.33905197 40.25178194 -62.59897739 30.51768157 -39.875 18.125 C-38.57393559 17.41208492 -37.27299219 16.69894896 -35.97216797 15.9855957 C-32.31824796 13.98399158 -28.65968218 11.99104893 -25 10 C-24.11119141 9.51547363 -23.22238281 9.03094727 -22.30664062 8.53173828 C-4.10928771 -1.36976257 -4.10928771 -1.36976257 0 0 Z M-18 53 C-17.34 53.33 -16.68 53.66 -16 54 C-16.99 55.485 -16.99 55.485 -18 57 C-18.66 57 -19.32 57 -20 57 C-19 54 -19 54 -18 53 Z " fill="#9D7078" transform="translate(126,51)"/>
<path d="M0 0 C9.71586045 3.03243471 19.16009293 8.28672585 27.5 14.0625 C26.9375 16.9375 26.9375 16.9375 25.5 20.0625 C22 21.25 22 21.25 18.5 22.0625 C17.84 23.0525 17.18 24.0425 16.5 25.0625 C15.84 24.4025 15.18 23.7425 14.5 23.0625 C12.43125966 22.4199765 12.43125966 22.4199765 10.5 22.0625 C10.83 23.0525 11.16 24.0425 11.5 25.0625 C9.85425434 25.08938151 8.20838587 25.10884123 6.5625 25.125 C5.64597656 25.13660156 4.72945312 25.14820313 3.78515625 25.16015625 C1.5 25.0625 1.5 25.0625 0.5 24.0625 C0.10545777 22.21650312 -0.24176866 20.36024178 -0.5625 18.5 C-0.73910156 17.48808594 -0.91570313 16.47617188 -1.09765625 15.43359375 C-1.23042969 14.65113281 -1.36320312 13.86867187 -1.5 13.0625 C-2.16 13.0625 -2.82 13.0625 -3.5 13.0625 C-3.33773926 13.77801025 -3.17547852 14.49352051 -3.00830078 15.23071289 C-2.50882977 18.01330861 -2.3707291 20.54767974 -2.3671875 23.37109375 C-2.36525391 24.86286133 -2.36525391 24.86286133 -2.36328125 26.38476562 C-2.36714844 27.41279297 -2.37101562 28.44082031 -2.375 29.5 C-2.37113281 30.52416016 -2.36726563 31.54832031 -2.36328125 32.60351562 C-2.36966061 37.53157202 -2.45362081 42.2209201 -3.5 47.0625 C-2.84 47.0625 -2.18 47.0625 -1.5 47.0625 C-0.84 43.4325 -0.18 39.8025 0.5 36.0625 C1.45261719 36.20429688 2.40523437 36.34609375 3.38671875 36.4921875 C10.1572667 37.59143114 10.1572667 37.59143114 16.54296875 35.93359375 C19.12533742 32.91199522 19.5 31.02920371 19.5 27.0625 C20.82 27.7225 22.14 28.3825 23.5 29.0625 C23.066875 29.7225 22.63375 30.3825 22.1875 31.0625 C21.19688574 33.9552756 21.19688574 33.9552756 22.4453125 36.03515625 C23.34496596 37.41034083 24.27565003 38.76579661 25.23828125 40.09765625 C26.52862344 42.10707459 27.05877396 43.73178835 27.5 46.0625 C18.25122492 52.4422673 7.05203488 59.7363249 -4.5 60.0625 C-6.6796875 58.4453125 -6.6796875 58.4453125 -8.375 56.1875 C-8.94992188 55.44757813 -9.52484375 54.70765625 -10.1171875 53.9453125 C-10.57351562 53.32398438 -11.02984375 52.70265625 -11.5 52.0625 C-11.83 51.7325 -12.16 51.4025 -12.5 51.0625 C-12.86690919 45.22473269 -12.94271267 39.38513541 -13.01489258 33.53710938 C-13.0464069 31.5680301 -13.09402912 29.59913696 -13.15844727 27.63085938 C-13.75388477 9.18628877 -13.75388477 9.18628877 -8.74609375 3.22265625 C-5.82223833 0.48925538 -4.00416341 -0.40256151 0 0 Z " fill="#A67D85" transform="translate(48.5,116.9375)"/>
<path d="M0 0 C1.11932051 2.27218083 2.04167272 4.44348947 2.91796875 6.80859375 C3.18007645 7.49051285 3.44218414 8.17243195 3.7122345 8.87501526 C4.26455073 10.31805965 4.81142594 11.76319652 5.35327148 13.21020508 C6.1843781 15.42916488 7.03102076 17.64167095 7.88085938 19.85351562 C8.4149796 21.25485912 8.94821289 22.65654107 9.48046875 24.05859375 C9.73354294 24.72322128 9.98661713 25.38784882 10.24736023 26.07261658 C12 30.7647336 12 30.7647336 12 33 C11.34 33 10.68 33 10 33 C10.33 33.99 10.66 34.98 11 36 C10.34 36 9.68 36 9 36 C8.34 34.68 7.68 33.36 7 32 C7.495 33.98 7.495 33.98 8 36 C2.87160006 37.81975482 -1.17684382 35.8599099 -6 34 C-6.33 34.99 -6.66 35.98 -7 37 C-6.34 37.66 -5.68 38.32 -5 39 C-16.85218909 41.71522877 -29.94892317 39.71262968 -42 39 C-38.21875 35.171875 -38.21875 35.171875 -36.25 33.625 C-34.3644469 31.17378097 -34.80071822 28.98922668 -35 26 C-35.66 26.99 -36.32 27.98 -37 29 C-37 27.35 -37 25.7 -37 24 C-34.50914896 23.93080969 -32.35167374 23.90408898 -29.9375 24.5625 C-27.64383315 25.08042477 -26.21398425 24.7116378 -24 24 C-24 23.01 -24 22.02 -24 21 C-19.25 20 -19.25 20 -17 20 C-16.34 19.01 -15.68 18.02 -15 17 C-16.32 17 -17.64 17 -19 17 C-19.99 17 -20.98 17 -22 17 C-22.33 17.66 -22.66 18.32 -23 19 C-27 19 -27 19 -30 18 C-30.33 19.32 -30.66 20.64 -31 22 C-33.64 22.66 -36.28 23.32 -39 24 C-39 23.34 -39 22.68 -39 22 C-39.99 22.33 -40.98 22.66 -42 23 C-42 21.68 -42 20.36 -42 19 C-35.34134368 15.50613091 -28.67553172 12.02632065 -22.00195312 8.56103516 C-20.12925759 7.58722129 -18.2579214 6.61078338 -16.38867188 5.63037109 C-14.18057997 4.47316737 -11.96654699 3.32840073 -9.75 2.1875 C-9.10224609 1.84460937 -8.45449219 1.50171875 -7.78710938 1.1484375 C-3.34324937 -1.11441646 -3.34324937 -1.11441646 0 0 Z M-39 29 C-38.01 29.495 -38.01 29.495 -37 30 C-37.99 30.495 -37.99 30.495 -39 31 C-39 30.34 -39 29.68 -39 29 Z " fill="#9A6D76" transform="translate(126,51)"/>
<path d="M0 0 C2.34058637 2.12780579 3.70700306 4.11562221 5 7 C2.525 6.505 2.525 6.505 0 6 C-0.33 6.99 -0.66 7.98 -1 9 C-1.99 9.66 -2.98 10.32 -4 11 C-3.236875 11.556875 -2.47375 12.11375 -1.6875 12.6875 C0.99485285 14.99557106 2.45988713 16.83871568 4 20 C4 20.99 4 21.98 4 23 C3.34 22.67 2.68 22.34 2 22 C2 22.99 2 23.98 2 25 C2.66 24.67 3.32 24.34 4 24 C4.66 24.66 5.32 25.32 6 26 C5.01 26.99 4.02 27.98 3 29 C3.99 29.33 4.98 29.66 6 30 C6 30.99 6 31.98 6 33 C6.66 33 7.32 33 8 33 C8 32.01 8 31.02 8 30 C8.99 30.33 9.98 30.66 11 31 C10.01 31.495 10.01 31.495 9 32 C9.66 33.65 10.32 35.3 11 37 C10.01 37 9.02 37 8 37 C8.99 37.66 9.98 38.32 11 39 C10.67 39.99 10.34 40.98 10 42 C10.66 42 11.32 42 12 42 C11.67 43.98 11.34 45.96 11 48 C9 48 9 48 6.5 45.5625 C5.675 44.716875 4.85 43.87125 4 43 C3.34 42.67 2.68 42.34 2 42 C1.67 42.66 1.34 43.32 1 44 C-4.66085571 42.71829682 -9.96716625 40.9807539 -15.38671875 38.90234375 C-17.91956888 38.02777218 -20.37191732 37.49892657 -23 37 C-17.5559952 21.44403344 -13.13476284 10.35625532 0 0 Z M13 36 C13.99 36 14.98 36 16 36 C14.84826645 38.46800047 13.95216435 40.04783565 12 42 C12.33 40.02 12.66 38.04 13 36 Z " fill="#9E737B" transform="translate(68,79)"/>
<path d="M0 0 C0.495 0.99 0.495 0.99 1 2 C1.66 2 2.32 2 3 2 C1.84826645 4.46800047 0.95216435 6.04783565 -1 8 C-1.495 7.01 -1.495 7.01 -2 6 C-3.32 6.33 -4.64 6.66 -6 7 C-6 7.99 -6 8.98 -6 10 C-9.41493459 10.85373365 -11.64905965 11.0809485 -15 10 C-15.7425 9.814375 -16.485 9.62875 -17.25 9.4375 C-17.8275 9.293125 -18.405 9.14875 -19 9 C-18.67 9.66 -18.34 10.32 -18 11 C-17.34 10.67 -16.68 10.34 -16 10 C-15.50681818 16.41136364 -15.50681818 16.41136364 -17.9375 19.3125 C-18.618125 19.869375 -19.29875 20.42625 -20 21 C-20.33 21.66 -20.66 22.32 -21 23 C-16.39116952 23.33131516 -11.782371 23.62863505 -7.16845703 23.87988281 C-5.17290968 23.99042203 -3.1781881 24.1156114 -1.18359375 24.2421875 C0.51603516 24.30792969 0.51603516 24.30792969 2.25 24.375 C3.26578125 24.42398438 4.2815625 24.47296875 5.328125 24.5234375 C8.98363054 23.80730045 9.8153746 21.89451415 12 19 C15.66499128 19.12859619 18.53421195 19.84473732 22 21 C22.99 20.67 23.98 20.34 25 20 C24.505 17.03 24.505 17.03 24 14 C26.35953094 16.35953094 26.49141413 17.77895617 27 21 C27.495 19.515 27.495 19.515 28 18 C29.485 18.495 29.485 18.495 31 19 C31 19.99 31 20.98 31 22 C31.66 22.33 32.32 22.66 33 23 C28.48144638 26.39159042 24.76361302 26.45431008 19.33984375 26.4765625 C18.09951134 26.49993179 18.09951134 26.49993179 16.8341217 26.52377319 C14.20192378 26.57114254 11.56998822 26.59900012 8.9375 26.625 C6.3016277 26.6615659 3.6659015 26.70225231 1.03016663 26.74765015 C-0.60692279 26.77473785 -2.24411848 26.79614879 -3.88136292 26.81118774 C-8.05049414 26.83167838 -8.05049414 26.83167838 -12.11643982 27.63485718 C-12.73801468 27.75535431 -13.35958954 27.87585144 -14 28 C-14.66 27.34 -15.32 26.68 -16 26 C-16.66 25.67 -17.32 25.34 -18 25 C-18.33 25.66 -18.66 26.32 -19 27 C-20.43861294 26.91253716 -21.87597508 26.80434652 -23.3125 26.6875 C-24.11300781 26.62949219 -24.91351563 26.57148437 -25.73828125 26.51171875 C-28.39937691 25.90964011 -29.15565927 24.92700026 -31 23 C-31.99 23 -32.98 23 -34 23 C-34.99 23 -35.98 23 -37 23 C-37.33 22.01 -37.66 21.02 -38 20 C-37.34 19.67 -36.68 19.34 -36 19 C-36.99 17.35 -37.98 15.7 -39 14 C-35.56755334 10.34088233 -31.75400881 7.666507 -27 6 C-23.79001384 6.15493146 -21.00454358 6.88483843 -18 8 C-17.67 7.34 -17.34 6.68 -17 6 C-15.68 6 -14.36 6 -13 6 C-12.67 5.01 -12.34 4.02 -12 3 C-10.9790625 3.0928125 -10.9790625 3.0928125 -9.9375 3.1875 C-6.08063875 2.94131737 -3.48920406 1.64197838 0 0 Z M-21 14 C-20.67 14.66 -20.34 15.32 -20 16 C-19.67 15.34 -19.34 14.68 -19 14 C-19.66 14 -20.32 14 -21 14 Z " fill="#946A71" transform="translate(108,66)"/>
<path d="M0 0 C0.495 0.99 0.495 0.99 1 2 C1.66 2.33 2.32 2.66 3 3 C2.67 3.99 2.34 4.98 2 6 C2 6.99 2 7.98 2 9 C2.62567871 9.01981934 3.25135742 9.03963867 3.89599609 9.06005859 C6.72276519 9.15514226 9.54877815 9.26488746 12.375 9.375 C13.35984375 9.4059375 14.3446875 9.436875 15.359375 9.46875 C16.77089844 9.52675781 16.77089844 9.52675781 18.2109375 9.5859375 C19.08024902 9.6173584 19.94956055 9.6487793 20.84521484 9.68115234 C23 10 23 10 25 12 C24.34 12 23.68 12 23 12 C22.814375 13.0828125 22.814375 13.0828125 22.625 14.1875 C22.0095069 16.95721894 21.11555626 19.3970354 20 22 C19.505 21.01 19.505 21.01 19 20 C18.34 19.67 17.68 19.34 17 19 C17.99 19 18.98 19 20 19 C20 18.01 20 17.02 20 16 C17.01384847 16.7108103 17.01384847 16.7108103 15.63671875 18.58203125 C14 20 14 20 11.51953125 20.07421875 C10.62621094 19.94660156 9.73289063 19.81898438 8.8125 19.6875 C7.91144531 19.56761719 7.01039062 19.44773438 6.08203125 19.32421875 C5.39496094 19.21722656 4.70789063 19.11023438 4 19 C3.505 20.485 3.505 20.485 3 22 C1.02 20.68 -0.96 19.36 -3 18 C-3.99 18.495 -3.99 18.495 -5 19 C-6.125 15.25 -6.125 15.25 -5 13 C-5.66 13.33 -6.32 13.66 -7 14 C-7.33 14.99 -7.66 15.98 -8 17 C-10.9296875 16.46289062 -10.9296875 16.46289062 -13.859375 15.92578125 C-16.13379364 15.78612923 -16.13379364 15.78612923 -17.88671875 17.56640625 C-20 19 -20 19 -22.91015625 18.6015625 C-23.95042969 18.27929688 -24.99070312 17.95703125 -26.0625 17.625 C-30.52436553 16.12599063 -30.52436553 16.12599063 -35 17 C-35.33 16.34 -35.66 15.68 -36 15 C-36.99 14.67 -37.98 14.34 -39 14 C-38.34 13.01 -37.68 12.02 -37 11 C-36.01 11.33 -35.02 11.66 -34 12 C-31.88714097 11.77996929 -29.78229115 11.47775606 -27.6875 11.125 C-26.57761719 10.94195312 -25.46773437 10.75890625 -24.32421875 10.5703125 C-22.14444537 10.19634433 -19.96715717 9.80752137 -17.79296875 9.40234375 C-14.63114609 8.9468644 -12.10791735 9.33401771 -9 10 C-8.34 8.68 -7.68 7.36 -7 6 C-6.01 6 -5.02 6 -4 6 C-3.505 6.99 -3.505 6.99 -3 8 C-2.34 8 -1.68 8 -1 8 C-0.67 5.36 -0.34 2.72 0 0 Z " fill="#986C74" transform="translate(113,192)"/>
<path d="M0 0 C21.12 0 42.24 0 64 0 C64 0.33 64 0.66 64 1 C44.2 1.33 24.4 1.66 4 2 C3.01 5.63 2.02 9.26 1 13 C0.14123184 15.48718264 -0.75464934 17.96208828 -1.69921875 20.41796875 C-2.05908623 21.36015007 -2.05908623 21.36015007 -2.42622375 22.32136536 C-3.17508168 24.27866705 -3.93110665 26.23309986 -4.6875 28.1875 C-5.20425955 29.53431979 -5.72053872 30.881324 -6.23632812 32.22851562 C-7.48536882 35.48781638 -8.74084193 38.74459234 -10 42 C-11.65 41.67 -13.3 41.34 -15 41 C-14.61328125 40.14019531 -14.2265625 39.28039062 -13.828125 38.39453125 C-10.29394019 30.37263157 -7.38597635 22.4491633 -5 14 C-5.66 14 -6.32 14 -7 14 C-7.33 14.66 -7.66 15.32 -8 16 C-8.66 14.68 -9.32 13.36 -10 12 C-10.66 12 -11.32 12 -12 12 C-12.66 13.65 -13.32 15.3 -14 17 C-17.875 15.25 -17.875 15.25 -19 13 C-20.65 14.65 -22.3 16.3 -24 18 C-24.33 17.34 -24.66 16.68 -25 16 C-25.66 16.33 -26.32 16.66 -27 17 C-27.66 16.34 -28.32 15.68 -29 15 C-32.0745356 15.7763932 -32.0745356 15.7763932 -34 18 C-34.66 17.01 -35.32 16.02 -36 15 C-37.98 15.99 -37.98 15.99 -40 17 C-40.33 15.35 -40.66 13.7 -41 12 C-40.34 11.67 -39.68 11.34 -39 11 C-39.66 11 -40.32 11 -41 11 C-41.33 10.01 -41.66 9.02 -42 8 C-41 6.4375 -41 6.4375 -39 5 C-36.23385218 5.03273548 -33.73969453 5.50595672 -31 6 C-30.67 5.34 -30.34 4.68 -30 4 C-30.66 3.67 -31.32 3.34 -32 3 C-30.68 3 -29.36 3 -28 3 C-27.979375 3.5775 -27.95875 4.155 -27.9375 4.75 C-26.4233745 8.38390121 -23.44043825 9.24850416 -20 11 C-19.60167969 10.49855469 -19.20335938 9.99710938 -18.79296875 9.48046875 C-17 8 -17 8 -14.73828125 7.92578125 C-13.93777344 8.05339844 -13.13726562 8.18101562 -12.3125 8.3125 C-11.50425781 8.43238281 -10.69601563 8.55226562 -9.86328125 8.67578125 C-9.24839844 8.78277344 -8.63351563 8.88976562 -8 9 C-7.34 8.01 -6.68 7.02 -6 6 C-5.01 6 -4.02 6 -3 6 C-3.33 7.32 -3.66 8.64 -4 10 C-1.49204045 6.56823439 -1.49204045 6.56823439 0 0 Z " fill="#A2777F" transform="translate(136,202)"/>
<path d="M0 0 C1.65 0.66 3.3 1.32 5 2 C4.34 3.65 3.68 5.3 3 7 C3.99 7.99 4.98 8.98 6 10 C5.34 10 4.68 10 4 10 C2.48046291 14.91582077 2.48046291 14.91582077 2 20 C3.9375006 22.18777466 3.9375006 22.18777466 6 24 C5.34 24.33 4.68 24.66 4 25 C4 25.66 4 26.32 4 27 C2.68 26.67 1.36 26.34 0 26 C0 26.66 0 27.32 0 28 C0.66 28 1.32 28 2 28 C1.67 28.66 1.34 29.32 1 30 C-1.5625 30.625 -1.5625 30.625 -4 31 C-4.33 30.01 -4.66 29.02 -5 28 C-6.65 28 -8.3 28 -10 28 C-10.33 28.99 -10.66 29.98 -11 31 C-12.66666667 31 -14.33333333 31 -16 31 C-16.66 31.33 -17.32 31.66 -18 32 C-18.33 32.99 -18.66 33.98 -19 35 C-18.67 35.33 -18.34 35.66 -18 36 C-18 37.32 -18 38.64 -18 40 C-19.98 40.495 -19.98 40.495 -22 41 C-22.2358396 35.22192976 -21.86783046 30.48675196 -20 25 C-16.04 24.505 -16.04 24.505 -12 24 C-12.99 21.03 -13.98 18.06 -15 15 C-13.68 14.34 -12.36 13.68 -11 13 C-10.34 12.01 -9.68 11.02 -9 10 C-8.34 10.66 -7.68 11.32 -7 12 C-6.34 12.33 -5.68 12.66 -5 13 C-5.33 10.36 -5.66 7.72 -6 5 C-3.525 5.495 -3.525 5.495 -1 6 C-0.67 4.02 -0.34 2.04 0 0 Z M6 19 C6.99 19.495 6.99 19.495 8 20 C8 20.66 8 21.32 8 22 C7.34 22 6.68 22 6 22 C6 21.01 6 20.02 6 19 Z " fill="#A1737C" transform="translate(104,94)"/>
<path d="M0 0 C0.99 0 1.98 0 3 0 C4.57079658 4.09181876 6.13726331 8.18526016 7.69970703 12.28027344 C8.2320421 13.67363368 8.76556577 15.0665404 9.30029297 16.45898438 C10.06789756 18.45845906 10.83123788 20.45951617 11.59375 22.4609375 C12.05458984 23.66540527 12.51542969 24.86987305 12.99023438 26.11083984 C14 29 14 29 14 31 C13.34 31 12.68 31 12 31 C12.495 32.485 12.495 32.485 13 34 C12.34 34 11.68 34 11 34 C10.34 32.68 9.68 31.36 9 30 C9.495 31.98 9.495 31.98 10 34 C6.07361883 35.09066144 4.51892786 34.9194152 1 33 C-0.99110401 32.61709538 -2.99100513 32.27395385 -5 32 C-5 31.34 -5 30.68 -5 30 C-6.051875 30.20625 -7.10375 30.4125 -8.1875 30.625 C-12.14425871 31.01418938 -13.50396988 30.61355236 -17 29 C-18.9924325 28.62406934 -20.9918674 28.28020455 -23 28 C-19.87378374 24.60582235 -17.43458973 22.3937282 -13 21 C-13 21.99 -13 22.98 -13 24 C-12.34 23.01 -11.68 22.02 -11 21 C-10.236875 21.309375 -9.47375 21.61875 -8.6875 21.9375 C-6.81210323 22.67893593 -4.91315348 23.36228217 -3 24 C-2.67 23.34 -2.34 22.68 -2 22 C1 22 1 22 3 23 C3.33 22.01 3.66 21.02 4 20 C4.66 20.99 5.32 21.98 6 23 C3.84071065 15.60606981 1.4695482 8.29582259 -1 1 C-0.67 0.67 -0.34 0.34 0 0 Z " fill="#A3767F" transform="translate(124,53)"/>
<path d="M0 0 C1.32 0.33 2.64 0.66 4 1 C4.66 4.63 5.32 8.26 6 12 C8.97 12 11.94 12 15 12 C15 11.34 15 10.68 15 10 C19.75 10.75 19.75 10.75 22 13 C22.046875 15.53125 22.046875 15.53125 21.75 18.5 C21.66234375 19.4796875 21.5746875 20.459375 21.484375 21.46875 C21 24 21 24 19 26 C13.84452833 26.40435072 9.83412897 25.57849109 5 24 C4.67 27.63 4.34 31.26 4 35 C2.02 35.495 2.02 35.495 0 36 C0.16242187 35.08347656 0.32484375 34.16695312 0.4921875 33.22265625 C1.2392127 27.97632206 1.1452251 22.72636319 1.125 17.4375 C1.12886719 16.42236328 1.13273437 15.40722656 1.13671875 14.36132812 C1.13032222 9.46478506 1.03626348 4.8112233 0 0 Z " fill="#682331" transform="translate(44,129)"/>
<path d="M0 0 C2.95183101 2.95183101 3.08663988 5.95511947 4 10 C11.95654701 10.62056634 19.86285973 11.04725962 27.84765625 10.9609375 C29.01893066 10.94869141 30.19020508 10.93644531 31.39697266 10.92382812 C33.7445225 10.89145259 36.09193104 10.84602251 38.43896484 10.78710938 C40.0605249 10.76487305 40.0605249 10.76487305 41.71484375 10.7421875 C42.68542725 10.7201123 43.65601074 10.69803711 44.65600586 10.67529297 C45.42952393 10.78244629 46.20304199 10.88959961 47 11 C47.66 11.99 48.32 12.98 49 14 C50.65 13.67 52.3 13.34 54 13 C54.495 16.465 54.495 16.465 55 20 C54.01 20 53.02 20 52 20 C52 18.35 52 16.7 52 15 C51.34 15 50.68 15 50 15 C50.495 16.485 50.495 16.485 51 18 C50.34 18.99 49.68 19.98 49 21 C48.34 20.67 47.68 20.34 47 20 C47 18.02 47 16.04 47 14 C46.34 14 45.68 14 45 14 C45.495 16.97 45.495 16.97 46 20 C44.68 20.99 43.36 21.98 42 23 C42 21.68 42 20.36 42 19 C42.66 19 43.32 19 44 19 C43.34 18.34 42.68 17.68 42 17 C41.34 17 40.68 17 40 17 C39.34 17.99 38.68 18.98 38 20 C36.68 19.67 35.36 19.34 34 19 C34.495 22.465 34.495 22.465 35 26 C32 28 32 28 29.8125 27.625 C29.214375 27.41875 28.61625 27.2125 28 27 C28.66 25.68 29.32 24.36 30 23 C30.33 23 30.66 23 31 23 C31.33 21.35 31.66 19.7 32 18 C31.01 18 30.02 18 29 18 C28.505 19.485 28.505 19.485 28 21 C27.01 20.67 26.02 20.34 25 20 C25 17.69 25 15.38 25 13 C24.26362305 13.05124023 23.52724609 13.10248047 22.76855469 13.15527344 C19.43005829 13.37531309 16.0905025 13.56299053 12.75 13.75 C11.59113281 13.83121094 10.43226562 13.91242188 9.23828125 13.99609375 C8.12324219 14.05410156 7.00820312 14.11210937 5.859375 14.171875 C4.83295898 14.2347168 3.80654297 14.29755859 2.74902344 14.36230469 C-0.72064663 13.90502313 -1.82118678 12.65286463 -4 10 C-3.34 9.67 -2.68 9.34 -2 9 C-2 7.68 -2 6.36 -2 5 C-1.25 1.25 -1.25 1.25 0 0 Z " fill="#9A6D76" transform="translate(72,140)"/>
<path d="M0 0 C0.99 0.99 1.98 1.98 3 3 C3.66 2.34 4.32 1.68 5 1 C5.99 1.33 6.98 1.66 8 2 C8.66 1.67 9.32 1.34 10 1 C10.66 1.66 11.32 2.32 12 3 C12.66 2.34 13.32 1.68 14 1 C14 9.33333333 14 17.66666667 14 26 C13.34 26 12.68 26 12 26 C12 26.66 12 27.32 12 28 C11.34 28 10.68 28 10 28 C10 28.66 10 29.32 10 30 C10.99 30 11.98 30 13 30 C13.39222105 31.41199578 13.76311059 32.82992764 14.125 34.25 C14.33382813 35.03890625 14.54265625 35.8278125 14.7578125 36.640625 C15.04887069 39.47609512 14.5265081 40.62989531 13 43 C11.70529025 44.37086915 10.37849103 45.71340837 9 47 C8.67 45.68 8.34 44.36 8 43 C7.34 43 6.68 43 6 43 C6 42.34 6 41.68 6 41 C4.68 40.67 3.36 40.34 2 40 C3.24674659 37.50650682 4.69960106 36.53359929 7 35 C7.66 35 8.32 35 9 35 C8.45276317 31.62537285 7.9451 29.91765 6 27 C6 26.34 6 25.68 6 25 C5.34 25 4.68 25 4 25 C3.67 24.34 3.34 23.68 3 23 C1.35 23.66 -0.3 24.32 -2 25 C-1.67 23.35 -1.34 21.7 -1 20 C-0.34 20 0.32 20 1 20 C1.66 19.34 2.32 18.68 3 18 C3.66 18 4.32 18 5 18 C5.33 18.66 5.66 19.32 6 20 C6.66 19.67 7.32 19.34 8 19 C8.43052263 16.44648887 8.43052263 16.44648887 8.5625 13.5 C8.90371389 8.09628611 8.90371389 8.09628611 10 7 C9.1028125 7.2784375 9.1028125 7.2784375 8.1875 7.5625 C6 8 6 8 3 7 C2.34 7.66 1.68 8.32 1 9 C0.08941469 5.92677456 -0.08886184 3.19902639 0 0 Z " fill="#A5777F" transform="translate(245,125)"/>
<path d="M0 0 C19.8 0 39.6 0 60 0 C60 0.33 60 0.66 60 1 C43.5 1.33 27 1.66 10 2 C7.55864799 8.47425895 7.55864799 8.47425895 5.5625 15 C4.41856129 18.92892038 2.90198401 22.31949748 0.97265625 25.9140625 C-0.52105164 29.11743605 -1.33862459 32.47671728 -2.19140625 35.8984375 C-3 38 -3 38 -6 40 C-5.34 37.36 -4.68 34.72 -4 32 C-5.98 32.495 -5.98 32.495 -8 33 C-7.02062664 27.65796347 -5.66764184 22.98749451 -3.5 18 C0.48583917 9.2285066 0.48583917 9.2285066 0 0 Z " fill="#D7D4D0" transform="translate(139,203)"/>
<path d="M0 0 C21.12 0 42.24 0 64 0 C64 0.33 64 0.66 64 1 C44.2 1.33 24.4 1.66 4 2 C3.01 5.63 2.02 9.26 1 13 C0.14123184 15.48718264 -0.75464934 17.96208828 -1.69921875 20.41796875 C-1.9391304 21.04608963 -2.17904205 21.67421051 -2.42622375 22.32136536 C-3.17508168 24.27866705 -3.93110665 26.23309986 -4.6875 28.1875 C-5.20425955 29.53431979 -5.72053872 30.881324 -6.23632812 32.22851562 C-7.48536882 35.48781638 -8.74084193 38.74459234 -10 42 C-11.65 41.67 -13.3 41.34 -15 41 C-14.47212891 39.83210938 -14.47212891 39.83210938 -13.93359375 38.640625 C-10.72927418 31.37861617 -7.86637602 24.05765186 -5.25 16.5625 C-4.95665771 15.72299805 -4.66331543 14.88349609 -4.36108398 14.01855469 C-2.75675549 9.36539979 -1.35602697 4.74609438 0 0 Z " fill="#AB898E" transform="translate(136,202)"/>
<path d="M0 0 C2.35953094 2.35953094 2.49141413 3.77895617 3 7 C3.33 6.01 3.66 5.02 4 4 C4.99 4.33 5.98 4.66 7 5 C7 5.99 7 6.98 7 8 C7.66 8.33 8.32 8.66 9 9 C4.48144638 12.39159042 0.76361302 12.45431008 -4.66015625 12.4765625 C-5.90048866 12.49993179 -5.90048866 12.49993179 -7.1658783 12.52377319 C-9.79807622 12.57114254 -12.43001178 12.59900012 -15.0625 12.625 C-17.6983723 12.6615659 -20.3340985 12.70225231 -22.96983337 12.74765015 C-24.60692279 12.77473785 -26.24411848 12.79614879 -27.88136292 12.81118774 C-32.05049414 12.83167838 -32.05049414 12.83167838 -36.11643982 13.63485718 C-36.73801468 13.75535431 -37.35958954 13.87585144 -38 14 C-38.66 13.34 -39.32 12.68 -40 12 C-40.66 11.67 -41.32 11.34 -42 11 C-42.33 11.66 -42.66 12.32 -43 13 C-51.35010941 12.64989059 -51.35010941 12.64989059 -54.0625 9.9375 C-54.371875 9.298125 -54.68125 8.65875 -55 8 C-53.35 8 -51.7 8 -50 8 C-50 8.66 -50 9.32 -50 10 C-48.7625 9.814375 -47.525 9.62875 -46.25 9.4375 C-42.48796924 9.01427154 -39.01663144 9.07686507 -35.25 9.4375 C-30.83359005 9.85083067 -26.43360374 10.21097654 -22 10.375 C-20.948125 10.42398438 -19.89625 10.47296875 -18.8125 10.5234375 C-15.03103459 9.81966477 -14.24247971 7.99629425 -12 5 C-8.33500872 5.12859619 -5.46578805 5.84473732 -2 7 C-1.01 6.67 -0.02 6.34 1 6 C0.505 3.03 0.505 3.03 0 0 Z " fill="#946770" transform="translate(132,80)"/>
<path d="M0 0 C0.33 0.99 0.66 1.98 1 3 C26.74 3 52.48 3 79 3 C79 3.33 79 3.66 79 4 C73.6541673 4.91934702 68.63541951 5.0681642 63.22265625 4.87890625 C62.41130722 4.85529526 61.59995819 4.83168427 60.76402283 4.80735779 C58.19664142 4.73136277 55.62961191 4.64706652 53.0625 4.5625 C51.31186563 4.50921489 49.56121458 4.45647505 47.81054688 4.40429688 C43.54014576 4.27583562 39.27003995 4.13993369 35 4 C35.495 6.475 35.495 6.475 36 9 C35.34 9.33 34.68 9.66 34 10 C34.66 10.66 35.32 11.32 36 12 C36.66 11.67 37.32 11.34 38 11 C38.66 11.33 39.32 11.66 40 12 C40.33 11.34 40.66 10.68 41 10 C41 11.32 41 12.64 41 14 C40.195625 14.12375 39.39125 14.2475 38.5625 14.375 C37.716875 14.58125 36.87125 14.7875 36 15 C35.67 15.66 35.34 16.32 35 17 C34.67 16.67 34.34 16.34 34 16 C33.34 16.66 32.68 17.32 32 18 C31.34 18 30.68 18 30 18 C28.875 12.375 28.875 12.375 30 9 C29.01 9 28.02 9 27 9 C26.67 9.66 26.34 10.32 26 11 C25 8 25 8 26 4 C15.77 4 5.54 4 -5 4 C-3.35 2.68 -1.7 1.36 0 0 Z " fill="#A0727B" transform="translate(141,88)"/>
<path d="M0 0 C3.62874585 4.73314676 4.11751874 7.07293847 4.0625 13.125 C4.05347656 14.40632812 4.04445313 15.68765625 4.03515625 17.0078125 C4.02355469 17.99523437 4.01195312 18.98265625 4 20 C2.35 20.66 0.7 21.32 -1 22 C-0.608125 22.556875 -0.21625 23.11375 0.1875 23.6875 C1 26 1 26 -0.3125 28.75 C-0.869375 29.4925 -1.42625 30.235 -2 31 C-2.33 31 -2.66 31 -3 31 C-3 29.02 -3 27.04 -3 25 C-3.66 25 -4.32 25 -5 25 C-5.33 23.02 -5.66 21.04 -6 19 C-5.01 19 -4.02 19 -3 19 C-3.01160156 18.39671875 -3.02320313 17.7934375 -3.03515625 17.171875 C-3.04869141 15.97304687 -3.04869141 15.97304687 -3.0625 14.75 C-3.07410156 13.96109375 -3.08570313 13.1721875 -3.09765625 12.359375 C-3.00385306 10.09308998 -2.63241063 8.1711105 -2 6 C-2.66 6 -3.32 6 -4 6 C-4 5.34 -4 4.68 -4 4 C-4.66 4 -5.32 4 -6 4 C-6 3.34 -6 2.68 -6 2 C-4.7934375 1.7834375 -4.7934375 1.7834375 -3.5625 1.5625 C-1.07896294 1.25864751 -1.07896294 1.25864751 0 0 Z " fill="#A3777E" transform="translate(256,171)"/>
<path d="M0 0 C4.95 0.33 9.9 0.66 15 1 C15.09765625 7.93359375 15.09765625 7.93359375 15 10 C14 11 14 11 10.83984375 11.09765625 C8.90818359 11.08025391 8.90818359 11.08025391 6.9375 11.0625 C5.64714844 11.05347656 4.35679688 11.04445312 3.02734375 11.03515625 C2.02832031 11.02355469 1.02929688 11.01195312 0 11 C0 7.37 0 3.74 0 0 Z " fill="#090708" transform="translate(49,141)"/>
<path d="M0 0 C0 0.66 0 1.32 0 2 C1.29233607 3.37310707 2.62437146 4.71034824 4 6 C3.01 6.495 3.01 6.495 2 7 C2 7.66 2 8.32 2 9 C0.68 8.67 -0.64 8.34 -2 8 C-2 8.66 -2 9.32 -2 10 C-1.34 10 -0.68 10 0 10 C-0.33 10.66 -0.66 11.32 -1 12 C-3.5625 12.625 -3.5625 12.625 -6 13 C-6.33 12.01 -6.66 11.02 -7 10 C-10.62885324 9.84850702 -10.62885324 9.84850702 -14 11 C-13.67 9.68 -13.34 8.36 -13 7 C-12.34 7.33 -11.68 7.66 -11 8 C-11 7.34 -11 6.68 -11 6 C-11.66 5.67 -12.32 5.34 -13 5 C-13 4.34 -13 3.68 -13 3 C-12.34 2.67 -11.68 2.34 -11 2 C-11.33 1.34 -11.66 0.68 -12 0 C-8.20640675 -1.89679663 -3.95604392 -1.21724428 0 0 Z M4 1 C4.99 1.495 4.99 1.495 6 2 C6 2.66 6 3.32 6 4 C5.34 4 4.68 4 4 4 C4 3.01 4 2.02 4 1 Z " fill="#A5757E" transform="translate(106,112)"/>
<path d="M0 0 C0.99 0.33 1.98 0.66 3 1 C2.5020163 4.73487777 2.12508244 6.81237635 0 10 C1.98 9.01 3.96 8.02 6 7 C6 7.66 6 8.32 6 9 C8.0745356 10.2236068 8.0745356 10.2236068 11 10 C11.66 11.32 12.32 12.64 13 14 C11.68 13.67 10.36 13.34 9 13 C9 13.66 9 14.32 9 15 C5.88228073 16.60339848 4.60988311 17.18974141 1.1875 16.125 C0.465625 15.75375 -0.25625 15.3825 -1 15 C-1.33 16.98 -1.66 18.96 -2 21 C-3.98 20.67 -5.96 20.34 -8 20 C-5.36 13.4 -2.72 6.8 0 0 Z M7 12 C8 14 8 14 8 14 Z " fill="#A0767E" transform="translate(53,96)"/>
<path d="M0 0 C4.12494151 -0.05784708 8.24977944 -0.09354407 12.375 -0.125 C13.550625 -0.14175781 14.72625 -0.15851563 15.9375 -0.17578125 C17.61972656 -0.18544922 17.61972656 -0.18544922 19.3359375 -0.1953125 C20.37282715 -0.20578613 21.4097168 -0.21625977 22.47802734 -0.22705078 C25 0 25 0 27 2 C26.34 2 25.68 2 25 2 C24.87625 2.721875 24.7525 3.44375 24.625 4.1875 C24.0095069 6.95721894 23.11555626 9.3970354 22 12 C21.67 11.34 21.34 10.68 21 10 C20.34 9.67 19.68 9.34 19 9 C19.99 9 20.98 9 22 9 C22 8.01 22 7.02 22 6 C18.99718822 6.690303 18.99718822 6.690303 17.75 8.625 C16 10 16 10 12.3125 9.6875 C11.219375 9.460625 10.12625 9.23375 9 9 C9 8.01 9 7.02 9 6 C9.804375 5.71125 10.60875 5.4225 11.4375 5.125 C14.1326468 4.26737432 14.1326468 4.26737432 15 2 C12.61435923 2.57584432 10.33317216 3.22227595 8 4 C7.34 3.67 6.68 3.34 6 3 C5.67 3.66 5.34 4.32 5 5 C4.34 4.01 3.68 3.02 3 2 C2.01 1.34 1.02 0.68 0 0 Z " fill="#976A73" transform="translate(111,202)"/>
<path d="M0 0 C0.99 0 1.98 0 3 0 C4.57079658 4.09181876 6.13726331 8.18526016 7.69970703 12.28027344 C8.2320421 13.67363368 8.76556577 15.0665404 9.30029297 16.45898438 C10.06789756 18.45845906 10.83123788 20.45951617 11.59375 22.4609375 C12.05458984 23.66540527 12.51542969 24.86987305 12.99023438 26.11083984 C14 29 14 29 14 31 C13.34 31 12.68 31 12 31 C12.33 31.99 12.66 32.98 13 34 C12.34 34 11.68 34 11 34 C9.55969835 30.18855265 8.1232761 26.37565419 6.6875 22.5625 C6.28337891 21.49322266 5.87925781 20.42394531 5.46289062 19.32226562 C3.17942636 13.25159233 1.00430949 7.16860301 -1 1 C-0.67 0.67 -0.34 0.34 0 0 Z " fill="#AA7E88" transform="translate(124,53)"/>
<path d="M0 0 C0.33 0 0.66 0 1 0 C1.83817576 7.80727962 2.17207489 15.52929909 2.203125 23.37890625 C2.20882507 24.51279282 2.21452515 25.64667938 2.22039795 26.81492615 C2.22977475 29.18886398 2.23635246 31.5628144 2.24023438 33.93676758 C2.25005715 37.58371819 2.28119471 41.23013156 2.3125 44.87695312 C2.31902011 47.19010084 2.32427445 49.50325255 2.328125 51.81640625 C2.3404718 52.9090126 2.3528186 54.00161896 2.36553955 55.12733459 C2.36253845 56.13275803 2.35953735 57.13818146 2.35644531 58.17407227 C2.36009094 59.0602272 2.36373657 59.94638214 2.36749268 60.85939026 C2.24622009 61.56579147 2.12494751 62.27219269 2 63 C0.515 63.99 0.515 63.99 -1 65 C-0.67 43.55 -0.34 22.1 0 0 Z " fill="#DBD8D5" transform="translate(260,134)"/>
<path d="M0 0 C1.32 0.66 2.64 1.32 4 2 C3.3503125 2.99 3.3503125 2.99 2.6875 4 C1.69688574 6.8927756 1.69688574 6.8927756 2.9453125 8.97265625 C3.84496596 10.34784083 4.77565003 11.70329661 5.73828125 13.03515625 C7.02862344 15.04457459 7.55877396 16.66928835 8 19 C5.69 20.32 3.38 21.64 1 23 C0.67 20.69 0.34 18.38 0 16 C-0.66 16 -1.32 16 -2 16 C-2 16.66 -2 17.32 -2 18 C-2.99 18.33 -3.98 18.66 -5 19 C-5.33 18.01 -5.66 17.02 -6 16 C-5.0455673 14.28860343 -4.08340948 12.58035766 -3.05859375 10.91015625 C-1.20345775 7.56269683 0 3.85232727 0 0 Z " fill="#AB828A" transform="translate(68,144)"/>
<path d="M0 0 C5.86258862 1.67502532 10.55475199 3.83212798 14 9 C13.01 9 12.02 9 11 9 C11.33 9.99 11.66 10.98 12 12 C10.35425434 12.02688151 8.70838587 12.04634123 7.0625 12.0625 C6.14597656 12.07410156 5.22945312 12.08570313 4.28515625 12.09765625 C2 12 2 12 1 11 C0.76636119 9.15108054 0.58696365 7.29511969 0.4375 5.4375 C0.35371094 4.42558594 0.26992188 3.41367188 0.18359375 2.37109375 C0.12300781 1.58863281 0.06242187 0.80617187 0 0 Z " fill="#8E666D" transform="translate(48,130)"/>
<path d="M0 0 C1.98 0 3.96 0 6 0 C6.66 2.31 7.32 4.62 8 7 C6.35 7 4.7 7 3 7 C2.67 6.34 2.34 5.68 2 5 C1.34 5.66 0.68 6.32 0 7 C0 7.66 0 8.32 0 9 C-0.99 9.33 -1.98 9.66 -3 10 C-2.979375 10.94875 -2.95875 11.8975 -2.9375 12.875 C-3 16 -3 16 -4 18 C-4.66 18 -5.32 18 -6 18 C-6.33 18.66 -6.66 19.32 -7 20 C-8.36623674 17.26752652 -8.128426 15.01801098 -8 12 C-7.67 11.67 -7.34 11.34 -7 11 C-6.63239269 8.67182036 -6.29758419 6.3381615 -6 4 C-1.125 2 -1.125 2 0 2 C0 1.34 0 0.68 0 0 Z M-10 13 C-9.34 13 -8.68 13 -8 13 C-8.33 13.99 -8.66 14.98 -9 16 C-9.33 15.01 -9.66 14.02 -10 13 Z " fill="#A0757D" transform="translate(84,154)"/>
<path d="M0 0 C1.98 0.66 3.96 1.32 6 2 C5.01 3.485 5.01 3.485 4 5 C4.33 5.66 4.66 6.32 5 7 C5.99 7 6.98 7 8 7 C8.33 5.68 8.66 4.36 9 3 C9.33 3 9.66 3 10 3 C10 6.63 10 10.26 10 14 C8.88625 14.28875 7.7725 14.5775 6.625 14.875 C2.99708908 15.69241329 2.99708908 15.69241329 1 18 C0 17 0 17 -0.09765625 13.18359375 C-0.09098089 11.60153318 -0.07901875 10.01948841 -0.0625 8.4375 C-0.05798828 7.63119141 -0.05347656 6.82488281 -0.04882812 5.99414062 C-0.03700518 3.99606244 -0.01906914 1.99802217 0 0 Z M4 8 C3.67 9.32 3.34 10.64 3 12 C3.99 12.33 4.98 12.66 6 13 C5.67 11.35 5.34 9.7 5 8 C4.67 8 4.34 8 4 8 Z " fill="#AD868E" transform="translate(36,139)"/>
<path d="M0 0 C1.65 0 3.3 0 5 0 C4.60715031 7.85699381 2.19050379 13.86776576 -1 21 C-1.94348794 23.24749566 -2.88122059 25.49741817 -3.8125 27.75 C-4.54166667 29.5 -5.27083333 31.25 -6 33 C-6.66 33 -7.32 33 -8 33 C-7.02062664 27.65796347 -5.66764184 22.98749451 -3.5 18 C0.48583917 9.2285066 0.48583917 9.2285066 0 0 Z " fill="#C1BCB8" transform="translate(139,203)"/>
<path d="M0 0 C0.33 0.99 0.66 1.98 1 3 C26.74 3 52.48 3 79 3 C79 3.33 79 3.66 79 4 C73.09704267 5.05422629 67.45558861 5.04949314 61.47265625 4.87890625 C59.98928017 4.84348976 59.98928017 4.84348976 58.47593689 4.80735779 C55.33796121 4.731191 52.20026215 4.64696618 49.0625 4.5625 C46.92644553 4.50923221 44.79037782 4.45649219 42.65429688 4.40429688 C37.43602926 4.27564001 32.21796475 4.14037841 27 4 C26.67 5.32 26.34 6.64 26 8 C26 6.68 26 5.36 26 4 C15.77 4 5.54 4 -5 4 C-3.35 2.68 -1.7 1.36 0 0 Z " fill="#A58486" transform="translate(141,88)"/>
<path d="M0 0 C2 2 2 2 4 10 C17.86 10.99 17.86 10.99 32 12 C32 12.33 32 12.66 32 13 C27.5168458 13.24220915 23.03345603 13.4571007 18.54785156 13.64697266 C17.02275888 13.71535229 15.49797909 13.7911337 13.97363281 13.87451172 C11.77970408 13.99321842 9.58601958 14.0850834 7.390625 14.171875 C6.7113092 14.21439392 6.03199341 14.25691284 5.33209229 14.30072021 C1.82151758 14.41213373 0.30349635 14.24787743 -2.46191406 11.98925781 C-2.96948242 11.33280273 -3.47705078 10.67634766 -4 10 C-3.34 9.67 -2.68 9.34 -2 9 C-2 7.68 -2 6.36 -2 5 C-1.25 1.25 -1.25 1.25 0 0 Z " fill="#926970" transform="translate(72,140)"/>
<path d="M0 0 C1.65 0 3.3 0 5 0 C5 0.66 5 1.32 5 2 C6.2375 1.814375 7.475 1.62875 8.75 1.4375 C12.41418661 1.02847452 15.77153842 1.06936997 19.4375 1.4375 C26.36958276 2.06735053 33.29472031 2.33216772 40.25 2.5625 C41.48363281 2.60568359 42.71726563 2.64886719 43.98828125 2.69335938 C46.99210867 2.79814405 49.99599975 2.9003154 53 3 C53 3.33 53 3.66 53 4 C52.05157227 4.02505615 51.10314453 4.0501123 50.12597656 4.07592773 C46.59981968 4.1711884 43.07382041 4.27041441 39.54785156 4.37231445 C38.02315614 4.41556707 36.49841531 4.45724885 34.97363281 4.49731445 C32.77915778 4.55525203 30.58490932 4.61887795 28.390625 4.68359375 C27.37165131 4.70866249 27.37165131 4.70866249 26.33209229 4.73423767 C23.67107836 4.81711972 21.23788349 4.93436583 18.66308594 5.64477539 C18.11426758 5.76199951 17.56544922 5.87922363 17 6 C16.34 5.34 15.68 4.68 15 4 C14.34 3.67 13.68 3.34 13 3 C12.67 3.66 12.34 4.32 12 5 C3.64989059 4.64989059 3.64989059 4.64989059 0.9375 1.9375 C0.628125 1.298125 0.31875 0.65875 0 0 Z " fill="#855C63" transform="translate(77,88)"/>
<path d="M0 0 C4.29 0.66 8.58 1.32 13 2 C8.48371532 7.64535585 8.48371532 7.64535585 4.875 9.3125 C4.19179688 9.63863281 3.50859375 9.96476563 2.8046875 10.30078125 C1 11 1 11 -1 11 C-0.67 7.37 -0.34 3.74 0 0 Z " fill="#916870" transform="translate(49,153)"/>
<path d="M0 0 C17.49 0 34.98 0 53 0 C53 0.33 53 0.66 53 1 C36.5 1.33 20 1.66 3 2 C0.4771577 8.7134761 0.4771577 8.7134761 -1.6875 15.5 C-2.06455078 16.78390625 -2.06455078 16.78390625 -2.44921875 18.09375 C-2.63097656 18.7228125 -2.81273437 19.351875 -3 20 C-4 17 -4 17 0 0 Z " fill="#E2E3DF" transform="translate(146,203)"/>
<path d="M0 0 C-2.03807293 7.1178153 -4.40344742 14.06707281 -7 21 C-8.65 20.67 -10.3 20.34 -12 20 C-11.57847656 19.03578125 -11.15695313 18.0715625 -10.72265625 17.078125 C-10.16910968 15.80215324 -9.61573319 14.52610767 -9.0625 13.25 C-8.78470703 12.61578125 -8.50691406 11.9815625 -8.22070312 11.328125 C-7.1246675 8.79271728 -6.08187458 6.37827325 -5.49609375 3.671875 C-4.66289139 0.86391745 -2.80959438 0 0 0 Z " fill="#A77D85" transform="translate(133,223)"/>
<path d="M0 0 C0.66 0 1.32 0 2 0 C0.53533342 7.81432907 -2.09372693 14.92641458 -5 22.3125 C-5.67675781 24.06143555 -5.67675781 24.06143555 -6.3671875 25.84570312 C-9.978216 35.12433701 -9.978216 35.12433701 -12 39 C-12.66 38.67 -13.32 38.34 -14 38 C-13.64695801 37.0620459 -13.29391602 36.1240918 -12.93017578 35.15771484 C-11.61328985 31.6581394 -10.2978836 28.15800931 -8.98291016 24.65771484 C-8.41495076 23.14649675 -7.84659699 21.63542681 -7.27783203 20.12451172 C-6.45760561 17.94538128 -5.63882652 15.76571163 -4.8203125 13.5859375 C-4.56814972 12.91694427 -4.31598694 12.24795105 -4.05618286 11.5586853 C-2.62066735 7.73094501 -1.26748007 3.88658826 0 0 Z " fill="#DDD6D5" transform="translate(139,206)"/>
<path d="M0 0 C0.33 0 0.66 0 1 0 C1 15.18 1 30.36 1 46 C0.67 46 0.34 46 0 46 C0 44.35 0 42.7 0 41 C-0.66 40.67 -1.32 40.34 -2 40 C-1.67 39.34 -1.34 38.68 -1 38 C-1.99 38 -2.98 38 -4 38 C-4 37.34 -4 36.68 -4 36 C-3.34 36 -2.68 36 -2 36 C-2 35.34 -2 34.68 -2 34 C-1.34 34 -0.68 34 0 34 C0 33.34 0 32.68 0 32 C-0.66 31.67 -1.32 31.34 -2 31 C-2 30.01 -2 29.02 -2 28 C-1.34 28 -0.68 28 0 28 C0 25.36 0 22.72 0 20 C-0.66 19.67 -1.32 19.34 -2 19 C-1.34 19 -0.68 19 0 19 C-0.14109986 16.89551062 -0.28804175 14.7914123 -0.4375 12.6875 C-0.55931641 10.92986328 -0.55931641 10.92986328 -0.68359375 9.13671875 C-0.8867371 5.97409042 -0.8867371 5.97409042 -2 3 C-1.34 2.01 -0.68 1.02 0 0 Z " fill="#96656D" transform="translate(259,117)"/>
<path d="M0 0 C4.75 0.75 4.75 0.75 7 3 C7.046875 5.53125 7.046875 5.53125 6.75 8.5 C6.66234375 9.4796875 6.5746875 10.459375 6.484375 11.46875 C6 14 6 14 4 16 C-1.15547167 16.40435072 -5.16587103 15.57849109 -10 14 C-10 13.67 -10 13.34 -10 13 C-5.38 12.67 -0.76 12.34 4 12 C4 9.36 4 6.72 4 4 C2.68 3.34 1.36 2.68 0 2 C0 1.34 0 0.68 0 0 Z " fill="#513439" transform="translate(59,139)"/>
<path d="M0 0 C-0.33 1.65 -0.66 3.3 -1 5 C0.98 5 2.96 5 5 5 C5 5.33 5 5.66 5 6 C2.33333333 6.66666667 -0.33333333 7.33333333 -3 8 C-3.74765625 8.18691406 -4.4953125 8.37382813 -5.265625 8.56640625 C-5.83796875 8.70949219 -6.4103125 8.85257813 -7 9 C-7 8.34 -7 7.68 -7 7 C-7.66 6.67 -8.32 6.34 -9 6 C-9 5.34 -9 4.68 -9 4 C-8.34 3.67 -7.68 3.34 -7 3 C-7.33 2.34 -7.66 1.68 -8 1 C-5.29120665 -0.35439668 -2.99066732 -0.06501451 0 0 Z " fill="#F28F55" transform="translate(102,111)"/>
<path d="M0 0 C0 0.99 0 1.98 0 3 C-8.4719571 9.44174036 -19.51448751 14.18482841 -30 16 C-30.33 15.34 -30.66 14.68 -31 14 C-30.06800781 13.72027344 -29.13601562 13.44054687 -28.17578125 13.15234375 C-18.00878523 9.99360026 -8.91210257 5.94140171 0 0 Z " fill="#DFDAD7" transform="translate(75,163)"/>
<path d="M0 0 C0 5.28 0 10.56 0 16 C-1.32 16 -2.64 16 -4 16 C-3.979375 15.195625 -3.95875 14.39125 -3.9375 13.5625 C-3.70366379 11.06645115 -3.70366379 11.06645115 -5 10 C-5.29102929 6.41063876 -4.95832215 4.0462789 -3 1 C-1 0 -1 0 0 0 Z " fill="#9C6E76" transform="translate(259,94)"/>
<path d="M0 0 C3 1 3 1 3.96728516 2.76245117 C4.23847168 3.51502197 4.5096582 4.26759277 4.7890625 5.04296875 C5.09070313 5.86990234 5.39234375 6.69683594 5.703125 7.54882812 C6.00734375 8.41958984 6.3115625 9.29035156 6.625 10.1875 C6.93695313 11.03892578 7.24890625 11.89035156 7.5703125 12.76757812 C9.14718054 17.16173842 10.43565665 21.34035422 11 26 C10.34 26 9.68 26 9 26 C7.68419784 22.41787056 6.37293509 18.83409597 5.0625 15.25 C4.68931641 14.23421875 4.31613281 13.2184375 3.93164062 12.171875 C3.57392578 11.1921875 3.21621094 10.2125 2.84765625 9.203125 C2.51773682 8.30239258 2.18781738 7.40166016 1.84790039 6.47363281 C1.11186412 4.32634819 0.5075485 2.21065571 0 0 Z " fill="#DED7D6" transform="translate(130,62)"/>
<path d="M0 0 C9.13060707 2.9309789 18.31883072 6.06327209 26 12 C26 12.99 26 13.98 26 15 C24.98421875 14.39671875 23.9684375 13.7934375 22.921875 13.171875 C14.7911706 8.42401118 7.13679561 4.47454881 -2 2 C-1.34 1.34 -0.68 0.68 0 0 Z " fill="#DED8D5" transform="translate(49,116)"/>
<path d="M0 0 C2.64 0.33 5.28 0.66 8 1 C8.125 5.75 8.125 5.75 7 8 C2.25 7.25 2.25 7.25 0 5 C-0.125 2.375 -0.125 2.375 0 0 Z " fill="#A0767F" transform="translate(37,127)"/>
<path d="M0 0 C1.09570312 0.10183594 2.19140625 0.20367187 3.3203125 0.30859375 C4.16335937 0.39238281 5.00640625 0.47617188 5.875 0.5625 C6.205 1.5525 6.535 2.5425 6.875 3.5625 C6.215 3.5625 5.555 3.5625 4.875 3.5625 C4.875 2.9025 4.875 2.2425 4.875 1.5625 C4.111875 1.748125 3.34875 1.93375 2.5625 2.125 C-0.125 2.5625 -0.125 2.5625 -3.125 1.5625 C-3.785 2.8825 -4.445 4.2025 -5.125 5.5625 C-5.455 4.9025 -5.785 4.2425 -6.125 3.5625 C-11.075 3.5625 -16.025 3.5625 -21.125 3.5625 C-17.96774244 1.45766163 -16.72649717 1.25361983 -13.0625 1 C-8.30643352 0.6577867 -4.85142331 -0.46449798 0 0 Z " fill="#8A6067" transform="translate(100.125,201.4375)"/>
<path d="M0 0 C1.98 0.66 3.96 1.32 6 2 C6.33 3.65 6.66 5.3 7 7 C6.01 7.495 6.01 7.495 5 8 C4.67 8.99 4.34 9.98 4 11 C3.01 11 2.02 11 1 11 C0.67 7.37 0.34 3.74 0 0 Z " fill="#956D74" transform="translate(48,130)"/>
<path d="M0 0 C0.33 1.32 0.66 2.64 1 4 C0.01 4.33 -0.98 4.66 -2 5 C-2.73323796 7.01508358 -2.73323796 7.01508358 -3 9 C-3.66 9 -4.32 9 -5 9 C-5.33 9.99 -5.66 10.98 -6 12 C-6.66 11.67 -7.32 11.34 -8 11 C-8.625 8.4375 -8.625 8.4375 -9 6 C-6.75 3.9375 -6.75 3.9375 -4 2 C-1.6875 2.25 -1.6875 2.25 0 3 C0 2.01 0 1.02 0 0 Z " fill="#A1737B" transform="translate(163,92)"/>
<path d="M0 0 C0.66 0.33 1.32 0.66 2 1 C2 2.65 2 4.3 2 6 C-5.28571429 9.57142857 -5.28571429 9.57142857 -10 8 C-7.62630732 5.37644494 -5.03386523 3.78920257 -2 2 C-1.34 1.34 -0.68 0.68 0 0 Z " fill="#997179" transform="translate(56,167)"/>
<path d="M0 0 C4.12494151 -0.05784708 8.24977944 -0.09354407 12.375 -0.125 C13.550625 -0.14175781 14.72625 -0.15851563 15.9375 -0.17578125 C17.61972656 -0.18544922 17.61972656 -0.18544922 19.3359375 -0.1953125 C20.37282715 -0.20578613 21.4097168 -0.21625977 22.47802734 -0.22705078 C25 0 25 0 27 2 C26.34 2 25.68 2 25 2 C24.67 2.66 24.34 3.32 24 4 C24 3.01 24 2.02 24 1 C21.89521396 1.11409682 19.79115423 1.24165361 17.6875 1.375 C15.92986328 1.47941406 15.92986328 1.47941406 14.13671875 1.5859375 C10.84300113 1.78613747 10.84300113 1.78613747 8 4 C7.34 3.67 6.68 3.34 6 3 C5.67 3.66 5.34 4.32 5 5 C4.34 4.01 3.68 3.02 3 2 C2.01 1.34 1.02 0.68 0 0 Z " fill="#80585F" transform="translate(111,202)"/>
<path d="M0 0 C0.66 0 1.32 0 2 0 C2 1.32 2 2.64 2 4 C2.66 4.66 3.32 5.32 4 6 C3.01 6.33 2.02 6.66 1 7 C6.61 7.33 12.22 7.66 18 8 C18 8.33 18 8.66 18 9 C10.74 9 3.48 9 -4 9 C-3.34 7.68 -2.68 6.36 -2 5 C-1.32033324 3.33859237 -0.65061095 1.67299959 0 0 Z " fill="#A47C82" transform="translate(204,194)"/>
<path d="M0 0 C1.98 0.99 1.98 0.99 4 2 C4 1.34 4 0.68 4 0 C4.66 0.33 5.32 0.66 6 1 C6.99 1.33 7.98 1.66 9 2 C9.33333333 3.33333333 9.66666667 4.66666667 10 6 C10.99 6.33 11.98 6.66 13 7 C14.37195574 8.29355827 15.71182656 9.62298702 17 11 C16.67 11.99 16.34 12.98 16 14 C15.59910156 13.55269531 15.19820312 13.10539063 14.78515625 12.64453125 C10.34579639 7.92330728 5.80128351 4.85459982 0 2 C0 1.34 0 0.68 0 0 Z " fill="#B28B93" transform="translate(49,128)"/>
<path d="M0 0 C0.66 0 1.32 0 2 0 C2.66 0.99 3.32 1.98 4 3 C5.32 2.01 6.64 1.02 8 0 C8 2.31 8 4.62 8 7 C5.29120665 8.35439668 2.99066732 8.06501451 0 8 C0 5.36 0 2.72 0 0 Z " fill="#424149" transform="translate(54,143)"/>
<path d="M0 0 C2 1.8125 2 1.8125 4 4 C4 4.99 4 5.98 4 7 C3.34 7 2.68 7 2 7 C1.67 6.34 1.34 5.68 1 5 C0.01 6.98 -0.98 8.96 -2 11 C-2.33 10.01 -2.66 9.02 -3 8 C-3.66 8 -4.32 8 -5 8 C-5 5.69 -5 3.38 -5 1 C-3.02 1.99 -3.02 1.99 -1 3 C-0.67 2.01 -0.34 1.02 0 0 Z " fill="#9D6F78" transform="translate(128,73)"/>
<path d="M0 0 C0.33 0.66 0.66 1.32 1 2 C3.52733235 2.65555119 3.52733235 2.65555119 6 3 C6 4.65 6 6.3 6 8 C5.34 8 4.68 8 4 8 C4 8.66 4 9.32 4 10 C2.68 10.33 1.36 10.66 0 11 C0 7.37 0 3.74 0 0 Z " fill="#110E0F" transform="translate(49,141)"/>
<path d="M0 0 C0.66 0 1.32 0 2 0 C3.4606285 2.64738916 4 3.89448334 4 7 C4.33 7.66 4.66 8.32 5 9 C3.35 9.66 1.7 10.32 0 11 C-2.32883474 7.5067479 -2 6.07077422 -2 2 C-1.34 1.34 -0.68 0.68 0 0 Z " fill="#9A6E75" transform="translate(68,199)"/>
<path d="M0 0 C0.99 0 1.98 0 3 0 C3.19294408 4.82360189 2.75747614 8.49646738 1 13 C0.01 12.67 -0.98 12.34 -2 12 C-1.34 8.04 -0.68 4.08 0 0 Z " fill="#682330" transform="translate(46,152)"/>
<path d="M0 0 C0.33 0 0.66 0 1 0 C1 2.97 1 5.94 1 9 C-0.32 9.33 -1.64 9.66 -3 10 C-3.66 10.66 -4.32 11.32 -5 12 C-6.23076923 5.6 -6.23076923 5.6 -5.0625 2.5625 C-4.711875 2.046875 -4.36125 1.53125 -4 1 C-3.67 1.99 -3.34 2.98 -3 4 C-2.34 4 -1.68 4 -1 4 C-0.67 2.68 -0.34 1.36 0 0 Z " fill="#A97F86" transform="translate(259,106)"/>
<path d="M0 0 C4.75 1.875 4.75 1.875 7 3 C6.67 3.99 6.34 4.98 6 6 C5.01 6 4.02 6 3 6 C3 5.01 3 4.02 3 3 C2.34 3 1.68 3 1 3 C1 3.99 1 4.98 1 6 C0.01 6.33 -0.98 6.66 -2 7 C-3.68538601 8.99665314 -3.68538601 8.99665314 -5 11 C-4.48847632 7.21472479 -3.79154158 5.55891312 -1 3 C-0.67 2.01 -0.34 1.02 0 0 Z " fill="#A3767E" transform="translate(162,99)"/>
<path d="M0 0 C0.66 0 1.32 0 2 0 C2 2.31 2 4.62 2 7 C0.1875 7.6875 0.1875 7.6875 -2 8 C-3.75 6.5625 -3.75 6.5625 -5 5 C-4.01 3.68 -3.02 2.36 -2 1 C-1.67 1.33 -1.34 1.66 -1 2 C-0.67 1.34 -0.34 0.68 0 0 Z " fill="#9A646F" transform="translate(92,141)"/>
<path d="M0 0 C16.335 0.495 16.335 0.495 33 1 C33 1.33 33 1.66 33 2 C17.16 2.495 17.16 2.495 1 3 C0.67 2.01 0.34 1.02 0 0 Z " fill="#664349" transform="translate(71,151)"/>
<path d="M0 0 C3.125 0.375 3.125 0.375 6 1 C6.84454356 4.37817425 7.10844919 6.67465243 6 10 C5.01 9.67 4.02 9.34 3 9 C2.855625 8.38125 2.71125 7.7625 2.5625 7.125 C1.8127546 4.2926285 0.40269349 3.55012483 -2 2 C-1.34 1.34 -0.68 0.68 0 0 Z " fill="#9C6E77" transform="translate(115,215)"/>
<path d="M0 0 C2.56616632 3.84924948 2.55097676 6.4349304 3 11 C2.01 11 1.02 11 0 11 C-3 5.25 -3 5.25 -3 3 C-2.01 3 -1.02 3 0 3 C0 2.01 0 1.02 0 0 Z " fill="#A17A81" transform="translate(54,189)"/>
<path d="M0 0 C1.9375 0.3125 1.9375 0.3125 4 1 C4.33 1.99 4.66 2.98 5 4 C4.34 4 3.68 4 3 4 C2.34 5.32 1.68 6.64 1 8 C-0.32 7.67 -1.64 7.34 -3 7 C-1.125 2.25 -1.125 2.25 0 0 Z " fill="#AA818A" transform="translate(47,164)"/>
<path d="M0 0 C0.99 1.32 1.98 2.64 3 4 C-0.63 3.34 -4.26 2.68 -8 2 C-7.814375 2.886875 -7.62875 3.77375 -7.4375 4.6875 C-7.01957516 7.85178811 -7.19222258 9.94839642 -8 13 C-8.33 13 -8.66 13 -9 13 C-9 9.04 -9 5.08 -9 1 C-4 0 -4 0 0 0 Z " fill="#B18891" transform="translate(45,125)"/>
<path d="M0 0 C0.33 0.99 0.66 1.98 1 3 C7.93 3 14.86 3 22 3 C22 3.33 22 3.66 22 4 C13.09 4 4.18 4 -5 4 C-3.35 2.68 -1.7 1.36 0 0 Z " fill="#AF9A99" transform="translate(141,88)"/>
<path d="M0 0 C2.64 0.33 5.28 0.66 8 1 C4.55384615 5.8 4.55384615 5.8 1.75 6.8125 C0.88375 6.9053125 0.88375 6.9053125 0 7 C-1.125 2.25 -1.125 2.25 0 0 Z " fill="#8D656C" transform="translate(54,154)"/>
<path d="M0 0 C3.875 4.75 3.875 4.75 5 7 C2.36 7.33 -0.28 7.66 -3 8 C-2.45276317 4.62537285 -1.9451 2.91765 0 0 Z " fill="#9E767F" transform="translate(40,159)"/>
<path d="M0 0 C0.99 0 1.98 0 3 0 C3 1.98 3 3.96 3 6 C2.34 6 1.68 6 1 6 C0.01 7.485 0.01 7.485 -1 9 C-1.66 8.34 -2.32 7.68 -3 7 C-2.61121812 3.98694043 -1.73543126 2.60314689 0 0 Z " fill="#A2747D" transform="translate(101,158)"/>
<path d="M0 0 C1 2 1 2 0.3125 4.5625 C-1 7 -1 7 -2.875 7.75 C-3.57625 7.8325 -4.2775 7.915 -5 8 C-6.33588366 8.32296089 -7.66966561 8.65489233 -9 9 C-8.06725891 7.87105124 -7.12859878 6.74699124 -6.1875 5.625 C-5.66542969 4.99851562 -5.14335938 4.37203125 -4.60546875 3.7265625 C-3 2 -3 2 0 0 Z " fill="#946F75" transform="translate(67,80)"/>
<path d="M0 0 C5.75 0.875 5.75 0.875 8 2 C8 3.65 8 5.3 8 7 C7.01 6.67 6.02 6.34 5 6 C5 5.34 5 4.68 5 4 C2.03 3.505 2.03 3.505 -1 3 C-0.67 2.01 -0.34 1.02 0 0 Z " fill="#976F77" transform="translate(50,119)"/>
<path d="M0 0 C0.29296875 6.0546875 0.29296875 6.0546875 0 8 C-0.99 8.66 -1.98 9.32 -3 10 C-3.144375 9.38125 -3.28875 8.7625 -3.4375 8.125 C-3.93152225 5.96741678 -3.93152225 5.96741678 -5 4 C-5 3.01 -5 2.02 -5 1 C-3 0 -3 0 0 0 Z " fill="#AA7D85" transform="translate(257,162)"/>
<path d="M0 0 C0.99 0 1.98 0 3 0 C3 3.3 3 6.6 3 10 C2.01 10 1.02 10 0 10 C0 6.7 0 3.4 0 0 Z " fill="#7C3041" transform="translate(46,142)"/>
<path d="M0 0 C0.33 0 0.66 0 1 0 C1.1875 2.875 1.1875 2.875 1 6 C0.01 6.66 -0.98 7.32 -2 8 C-4.8475987 7.24451463 -7.36772716 6.31613642 -10 5 C-9.67 4.01 -9.34 3.02 -9 2 C-8.67 2.66 -8.34 3.32 -8 4 C-7.34 4 -6.68 4 -6 4 C-6 4.66 -6 5.32 -6 6 C-3.49034386 5.29660434 -3.49034386 5.29660434 -1 4 C-0.11306697 1.95894361 -0.11306697 1.95894361 0 0 Z " fill="#9D717A" transform="translate(84,81)"/>
<path d="M0 0 C0 4.29 0 8.58 0 13 C-3 10 -3 10 -3.29296875 7.73828125 C-3.25816406 6.93777344 -3.22335937 6.13726562 -3.1875 5.3125 C-3.16042969 4.50425781 -3.13335937 3.69601563 -3.10546875 2.86328125 C-3.07066406 2.24839844 -3.03585937 1.63351563 -3 1 C-1 0 -1 0 0 0 Z " fill="#996A72" transform="translate(260,164)"/>
<path d="M0 0 C2.6875 0.3125 2.6875 0.3125 5 1 C5 2.98 5 4.96 5 7 C2.36 5.68 -0.28 4.36 -3 3 C-2.01 2.01 -1.02 1.02 0 0 Z " fill="#9A7278" transform="translate(73,213)"/>
<path d="M0 0 C-0.99 0.33 -1.98 0.66 -3 1 C-2.67 1.99 -2.34 2.98 -2 4 C-5.3 4 -8.6 4 -12 4 C-7.99899414 0.12023674 -5.51903037 -0.43286513 0 0 Z " fill="#6E5157" transform="translate(62,138)"/>
<path d="M0 0 C0.99 0.66 1.98 1.32 3 2 C3 2.66 3 3.32 3 4 C3.66 4.33 4.32 4.66 5 5 C4.195625 5.28875 3.39125 5.5775 2.5625 5.875 C-0.1326468 6.73262568 -0.1326468 6.73262568 -1 9 C-1.80967438 6.08517222 -2.21845993 4.53886783 -1.0625 1.6875 C-0.711875 1.130625 -0.36125 0.57375 0 0 Z " fill="#9A6C74" transform="translate(88,122)"/>
<path d="M0 0 C0.99 0.33 1.98 0.66 3 1 C3 4.63 3 8.26 3 12 C2.67 12 2.34 12 2 12 C2 10.35 2 8.7 2 7 C1.34 6.67 0.68 6.34 0 6 C0.33 5.34 0.66 4.68 1 4 C0.01 4 -0.98 4 -2 4 C-2 3.34 -2 2.68 -2 2 C-1.34 2 -0.68 2 0 2 C0 1.34 0 0.68 0 0 Z " fill="#9C6C76" transform="translate(257,151)"/>
<path d="M0 0 C-1.25 1.5 -1.25 1.5 -3 3 C-4.32 3 -5.64 3 -7 3 C-7.33 3.66 -7.66 4.32 -8 5 C-11.0625 5.625 -11.0625 5.625 -14 6 C-13.67 4.68 -13.34 3.36 -13 2 C-11.8553125 2.061875 -11.8553125 2.061875 -10.6875 2.125 C-6.58707945 1.93428277 -4.39278562 -0.23744787 0 0 Z " fill="#AC7A84" transform="translate(106,117)"/>
<path d="M0 0 C1.90608098 3.21182149 2.22266247 5.53882603 2.125 9.25 C2.10695313 10.14203125 2.08890625 11.0340625 2.0703125 11.953125 C2.04710937 12.62859375 2.02390625 13.3040625 2 14 C1.01 14.495 1.01 14.495 0 15 C-1.0024305 9.65370398 -0.84888195 5.37625234 0 0 Z " fill="#AB7F86" transform="translate(254,175)"/>
<path d="M0 0 C2.50037734 2.17424117 3.43628586 3.73045798 4 7 C3.34 7 2.68 7 2 7 C1.67 6.34 1.34 5.68 1 5 C-0.65 5.66 -2.3 6.32 -4 7 C-3.67 5.35 -3.34 3.7 -3 2 C-2.34 2 -1.68 2 -1 2 C-0.67 1.34 -0.34 0.68 0 0 Z " fill="#A97A84" transform="translate(247,143)"/>
<path d="M0 0 C0.94875 0.04125 1.8975 0.0825 2.875 0.125 C2.545 1.775 2.215 3.425 1.875 5.125 C3.855 5.125 5.835 5.125 7.875 5.125 C7.875 5.455 7.875 5.785 7.875 6.125 C5.565 6.455 3.255 6.785 0.875 7.125 C0.875 5.805 0.875 4.485 0.875 3.125 C-2.095 2.63 -2.095 2.63 -5.125 2.125 C-3.125 0.125 -3.125 0.125 0 0 Z " fill="#D3816A" transform="translate(99.125,110.875)"/>
<path d="M0 0 C4.8 2.46153846 4.8 2.46153846 5.8125 5.1875 C5.874375 5.785625 5.93625 6.38375 6 7 C4.02 7 2.04 7 0 7 C0 4.69 0 2.38 0 0 Z " fill="#AD7F87" transform="translate(112,145)"/>
<path d="M0 0 C2.76223278 2.76223278 2.57856291 5.20706617 3 9 C2.01 8.67 1.02 8.34 0 8 C0 7.01 0 6.02 0 5 C-0.66 4.67 -1.32 4.34 -2 4 C-1.34 2.68 -0.68 1.36 0 0 Z " fill="#824D57" transform="translate(72,140)"/>
<path d="M0 0 C1.32 0.66 2.64 1.32 4 2 C4 2.99 4 3.98 4 5 C2.35 5.66 0.7 6.32 -1 7 C-1.04254356 5.00045254 -1.04080783 2.99958364 -1 1 C-0.67 0.67 -0.34 0.34 0 0 Z " fill="#9E6F78" transform="translate(124,213)"/>
<path d="M0 0 C1.98 0.66 3.96 1.32 6 2 C4.02 2.99 4.02 2.99 2 4 C2.33 4.33 2.66 4.66 3 5 C2.01 5.99 1.02 6.98 0 8 C0 5.36 0 2.72 0 0 Z " fill="#9D757B" transform="translate(49,153)"/>
<path d="M0 0 C0.99 0.33 1.98 0.66 3 1 C1.125 6.75 1.125 6.75 0 9 C-0.66 9 -1.32 9 -2 9 C-1.34 6.03 -0.68 3.06 0 0 Z " fill="#C9C4C0" transform="translate(133,227)"/>
<path d="M0 0 C1.9375 0.3125 1.9375 0.3125 4 1 C4.33 1.99 4.66 2.98 5 4 C4.34 4 3.68 4 3 4 C2.67 4.99 2.34 5.98 2 7 C1.34 7 0.68 7 0 7 C0 4.69 0 2.38 0 0 Z " fill="#A2747C" transform="translate(79,91)"/>
<path d="M0 0 C0.99 0.33 1.98 0.66 3 1 C3 1.99 3 2.98 3 4 C3.66 4.33 4.32 4.66 5 5 C3.35 5.66 1.7 6.32 0 7 C-0.93423645 3.98968256 -1.04449911 3.13349732 0 0 Z " fill="#9C747D" transform="translate(136,84)"/>
<path d="M0 0 C0 0.99 0 1.98 0 3 C-2.3125 3.6875 -2.3125 3.6875 -5 4 C-6.8125 2.5625 -6.8125 2.5625 -8 1 C-5.29120665 -0.35439668 -2.99066732 -0.06501451 0 0 Z " fill="#9C7379" transform="translate(78,77)"/>
<path d="M0 0 C0.99 0.99 1.98 1.98 3 3 C3.66 3.33 4.32 3.66 5 4 C3.35 5.65 1.7 7.3 0 9 C0 6.03 0 3.06 0 0 Z " fill="#9B6972" transform="translate(235,153)"/>
<path d="M0 0 C0.33 0 0.66 0 1 0 C1 2.31 1 4.62 1 7 C-0.32 7 -1.64 7 -3 7 C-3.33 5.68 -3.66 4.36 -4 3 C-3.01 3 -2.02 3 -1 3 C-0.67 2.01 -0.34 1.02 0 0 Z " fill="#A27680" transform="translate(45,135)"/>
<path d="M0 0 C0.33 0.66 0.66 1.32 1 2 C1.99 2 2.98 2 4 2 C2.768606 4.46278801 1.21935077 5.42497687 -1 7 C-1.99 5.68 -2.98 4.36 -4 3 C-2.68 2.01 -1.36 1.02 0 0 Z " fill="#9A6B73" transform="translate(247,96)"/>
<path d="M0 0 C1 3 1 3 -0.3125 6.625 C-2 10 -2 10 -4 11 C-2.25 3.375 -2.25 3.375 0 0 Z " fill="#E2E1DD" transform="translate(137,232)"/>
<path d="M0 0 C0.99 0.99 1.98 1.98 3 3 C1.25 7.875 1.25 7.875 -1 9 C-0.67 6.03 -0.34 3.06 0 0 Z " fill="#7F5D63" transform="translate(66,143)"/>
<path d="M0 0 C0.33 0.99 0.66 1.98 1 3 C-0.4375 5.6875 -0.4375 5.6875 -2 8 C-2.66 6.68 -3.32 5.36 -4 4 C-2.68 2.68 -1.36 1.36 0 0 Z " fill="#A3767E" transform="translate(124,230)"/>
<path d="M0 0 C2.15377564 2.62198774 3.40072174 4.64404172 4 8 C2.02 8 0.04 8 -2 8 C-1.67 7.4225 -1.34 6.845 -1 6.25 C0.27075898 3.80116138 0.27075898 3.80116138 0 0 Z " fill="#A17A81" transform="translate(58,196)"/>
<path d="M0 0 C0.66 0.33 1.32 0.66 2 1 C1.625 2.9375 1.625 2.9375 1 5 C-1.95664519 6.4783226 -4.74229737 6.06032783 -8 6 C-8 5.67 -8 5.34 -8 5 C-6.576875 4.87625 -6.576875 4.87625 -5.125 4.75 C-1.89538209 4.34925077 -1.89538209 4.34925077 -0.625 1.9375 C-0.41875 1.298125 -0.2125 0.65875 0 0 Z " fill="#E2E2DE" transform="translate(260,198)"/>
<path d="M0 0 C0 2.31 0 4.62 0 7 C-0.99 7.495 -0.99 7.495 -2 8 C-2.12375 7.030625 -2.2475 6.06125 -2.375 5.0625 C-2.58125 4.051875 -2.7875 3.04125 -3 2 C-3.66 1.67 -4.32 1.34 -5 1 C-2 0 -2 0 0 0 Z " fill="#A37980" transform="translate(61,175)"/>
<path d="M0 0 C0.66 1.32 1.32 2.64 2 4 C2.66 4 3.32 4 4 4 C3.67 4.99 3.34 5.98 3 7 C1.35 6.67 -0.3 6.34 -2 6 C-1.34 4.02 -0.68 2.04 0 0 Z " fill="#A58086" transform="translate(47,110)"/>
<path d="M0 0 C0.99 0 1.98 0 3 0 C3 1.98 3 3.96 3 6 C1.02 6.99 1.02 6.99 -1 8 C-0.835 7.05125 -0.67 6.1025 -0.5 5.125 C0.0526635 2.19831099 0.0526635 2.19831099 0 0 Z " fill="#92676F" transform="translate(75,159)"/>
<path d="M0 0 C0.99 0.66 1.98 1.32 3 2 C2.67 2.99 2.34 3.98 2 5 C0.68 5 -0.64 5 -2 5 C-2.33 4.01 -2.66 3.02 -3 2 C-2.34 2 -1.68 2 -1 2 C-0.67 1.34 -0.34 0.68 0 0 Z " fill="#AC7D85" transform="translate(254,126)"/>
<path d="M0 0 C2.97 0 5.94 0 9 0 C8 2 8 2 6.0625 2.6875 C4 3 4 3 2 2 C1.67 2.66 1.34 3.32 1 4 C0.67 2.68 0.34 1.36 0 0 Z " fill="#996C74" transform="translate(118,92)"/>
<path d="M0 0 C0 1.98 0 3.96 0 6 C-0.99 6.495 -0.99 6.495 -2 7 C-2.66 6.01 -3.32 5.02 -4 4 C-4.66 3.34 -5.32 2.68 -6 2 C-2.25 0 -2.25 0 0 0 Z " fill="#92686F" transform="translate(69,170)"/>
<path d="M0 0 C0.66 0 1.32 0 2 0 C2 1.65 2 3.3 2 5 C1.34 5 0.68 5 0 5 C0 5.66 0 6.32 0 7 C-0.66 7 -1.32 7 -2 7 C-1.34 4.69 -0.68 2.38 0 0 Z " fill="#956871" transform="translate(76,130)"/>
<path d="M0 0 C0.66 1.32 1.32 2.64 2 4 C1.01 4.99 0.02 5.98 -1 7 C-1.66 6.34 -2.32 5.68 -3 5 C-2 2 -2 2 0 0 Z " fill="#9F727A" transform="translate(258,113)"/>
</svg>
