<?xml version="1.0" encoding="UTF-8"?>
<svg version="1.1" xmlns="http://www.w3.org/2000/svg" width="931" height="922">
<path d="M0 0 C307.23 0 614.46 0 931 0 C931 304.26 931 608.52 931 922 C623.77 922 316.54 922 0 922 C0 617.74 0 313.48 0 0 Z " fill="#EDEBEA" transform="translate(0,0)"/>
<path d="M0 0 C3.20374378 1.52033161 5.60336749 3.6303761 8.12890625 6.06640625 C8.65476318 6.56438721 9.18062012 7.06236816 9.72241211 7.57543945 C18.74715122 16.21871628 25.89996654 25.51648295 32.83837891 35.8515625 C35.59935961 39.93308834 38.42667152 43.96811233 41.25390625 48.00390625 C41.84445801 48.84727539 42.43500977 49.69064453 43.04345703 50.55957031 C48.54608417 58.39905273 54.14696308 66.16538132 59.77441406 73.91552734 C61.38394944 76.13586328 62.98783412 78.36016667 64.58984375 80.5859375 C70.24766909 88.4446946 75.94415188 96.27277518 81.69140625 104.06640625 C82.27801025 104.8658667 82.86461426 105.66532715 83.46899414 106.48901367 C85.95146306 109.86797869 88.44031849 113.23276165 91.0390625 116.5234375 C96.11971449 123.07362552 96.11971449 123.07362552 97.25390625 127.69140625 C95.14750128 135.96656862 89.83908311 142.68437575 83.37890625 148.12890625 C80.94060124 149.34805875 79.303596 149.28950607 76.57650757 149.34286499 C75.56193985 149.36514664 74.54737213 149.38742828 73.50205994 149.41038513 C72.38424637 149.43012894 71.2664328 149.44987274 70.11474609 149.47021484 C68.94046555 149.4948027 67.766185 149.51939056 66.55632019 149.54472351 C63.32617921 149.61190274 60.09598381 149.675046 56.86574507 149.73729277 C53.47383538 149.804349 50.08209318 149.87886709 46.69033813 149.95327759 C35.13623516 150.20557895 23.58198873 150.44957433 12.02734375 150.67578125 C5.64934171 150.80072148 -0.72838395 150.93533527 -7.10596502 151.08021224 C-10.47440121 151.1562996 -13.84267568 151.22601212 -17.21144485 151.28669357 C-42.44105289 151.65842222 -42.44105289 151.65842222 -66.62109375 158.31640625 C-67.6575 158.72536133 -67.6575 158.72536133 -68.71484375 159.14257812 C-70.35536006 159.79194916 -71.98913206 160.45832625 -73.62109375 161.12890625 C-73.62109375 161.78890625 -73.62109375 162.44890625 -73.62109375 163.12890625 C-74.20084961 163.27440918 -74.78060547 163.41991211 -75.37792969 163.56982422 C-82.7206956 165.57410699 -89.16632663 168.69122935 -95.87109375 172.25390625 C-96.97066406 172.83285645 -98.07023438 173.41180664 -99.203125 174.00830078 C-110.68286324 180.1191945 -121.63332169 186.74500999 -131.62109375 195.12890625 C-132.430625 195.804375 -133.24015625 196.47984375 -134.07421875 197.17578125 C-138.29917411 200.83049724 -142.05707167 204.53387566 -145.484375 208.94921875 C-151.15454935 215.96149484 -157.42431982 222.33984444 -163.7878418 228.72119141 C-165.82778767 230.7732138 -167.84829992 232.84324323 -169.86914062 234.9140625 C-171.1746345 236.22900409 -172.48123533 237.54284781 -173.7890625 238.85546875 C-174.38607468 239.47201324 -174.98308685 240.08855774 -175.59819031 240.7237854 C-179.12411745 244.21219044 -181.43982635 245.91160668 -186.62109375 246.12890625 C-184.88786518 250.32186637 -181.98807367 253.48267101 -179.05859375 256.87890625 C-178.52717773 257.50216797 -177.99576172 258.12542969 -177.44824219 258.76757812 C-173.69899604 263.09034423 -169.75375929 266.83768251 -165.16796875 270.28515625 C-162.98994484 272.88118474 -163.3446124 274.84799427 -163.62109375 278.12890625 C-161.97109375 278.12890625 -160.32109375 278.12890625 -158.62109375 278.12890625 C-155.23156569 284.81781535 -153.80608365 291.70863983 -152.48046875 299.0234375 C-152.20952393 300.48311951 -152.20952393 300.48311951 -151.93310547 301.97229004 C-151.49113733 304.35701546 -151.05393689 306.74251074 -150.62109375 309.12890625 C-149.39519531 309.1539624 -148.16929687 309.17901855 -146.90625 309.20483398 C-122.13964497 309.71389332 -97.37852229 310.27737337 -72.62109375 311.12890625 C-72.62109375 311.45890625 -72.62109375 311.78890625 -72.62109375 312.12890625 C-97.37109375 312.12890625 -122.12109375 312.12890625 -147.62109375 312.12890625 C-147.62109375 321.69890625 -147.62109375 331.26890625 -147.62109375 341.12890625 C-148.94109375 344.75890625 -150.26109375 348.38890625 -151.62109375 352.12890625 C-152.16560451 354.07793447 -152.6740909 356.03847652 -153.10546875 358.015625 C-153.31816406 358.97275391 -153.53085938 359.92988281 -153.75 360.91601562 C-153.95496094 361.87314453 -154.15992188 362.83027344 -154.37109375 363.81640625 C-154.59152344 364.81607422 -154.81195313 365.81574219 -155.0390625 366.84570312 C-155.57309348 369.27206125 -156.10033674 371.69967125 -156.62109375 374.12890625 C-155.76281982 374.04588257 -155.76281982 374.04588257 -154.88720703 373.96118164 C-152.17384333 373.7008959 -149.45998112 373.44617197 -146.74609375 373.19140625 C-145.84761719 373.10439453 -144.94914062 373.01738281 -144.0234375 372.92773438 C-140.89098661 372.6360924 -137.75712658 372.37929182 -134.62109375 372.12890625 C-133.52608708 372.04097368 -132.43108042 371.95304111 -131.30289173 371.86244392 C-115.35058679 370.78993222 -99.36408052 370.98620295 -83.38432133 370.99818158 C-78.87013484 371.00046493 -74.35595208 370.99694103 -69.84176636 370.99420166 C-61.0085106 370.98977151 -52.17526338 370.99070951 -43.3420073 370.9936143 C-36.13186171 370.99588533 -28.92171849 370.99617352 -21.71157265 370.99509048 C-20.16385616 370.99486064 -20.16385616 370.99486064 -18.58487267 370.99462614 C-16.48730689 370.99430635 -14.38974111 370.99398213 -12.29217533 370.99365355 C7.36108439 370.99080521 27.01433944 370.99407246 46.66759839 370.99945392 C63.39160117 371.00389276 80.11559697 371.00316909 96.83959961 370.99853516 C116.36242893 370.99312806 135.88525413 370.99110966 155.40808409 370.99414742 C157.51049181 370.99446587 159.61289952 370.99478024 161.71530724 370.99509048 C162.74901181 370.99524476 163.78271638 370.99539904 164.84774533 370.99555799 C171.99526218 370.99640712 179.14277631 370.99497575 186.29029274 370.99261093 C292.50903779 370.9605555 292.50903779 370.9605555 339.81640625 372.65625 C361.79719272 373.42620732 383.79473823 373.47864633 405.78662109 373.66113281 C411.84865631 373.71221969 417.91065389 373.76744093 423.97265625 373.82226562 C435.77470713 373.92841832 447.57679129 374.03015327 459.37890625 374.12890625 C459.70890625 373.13890625 460.03890625 372.14890625 460.37890625 371.12890625 C460.70890625 371.12890625 461.03890625 371.12890625 461.37890625 371.12890625 C461.37890625 373.43890625 461.37890625 375.74890625 461.37890625 378.12890625 C451.63468245 378.17518289 441.89048466 378.21075161 432.14617348 378.23253059 C427.62182365 378.24298176 423.09754884 378.25716515 418.57324219 378.27978516 C414.20959101 378.30146618 409.84601212 378.31346483 405.48231125 378.31866074 C403.81488278 378.32236504 402.1474584 378.32959832 400.48006058 378.34036636 C398.1501933 378.35481845 395.82062731 378.35688686 393.49072266 378.35595703 C392.79660782 378.36314758 392.10249298 378.37033813 391.38734436 378.37774658 C386.60701057 378.35701057 386.60701057 378.35701057 384.37890625 376.12890625 C381.45518765 375.84617368 381.45518765 375.84617368 378.12890625 375.94140625 C377.01 375.94785156 375.89109375 375.95429688 374.73828125 375.9609375 C371.49094509 376.0437678 371.49094509 376.0437678 368.79462624 376.63164806 C364.29763293 377.28631728 359.90655057 377.27522059 355.36801147 377.25300598 C353.81483453 377.24894657 353.81483453 377.24894657 352.23028028 377.24480516 C338.62438765 377.16736644 325.02483511 376.73596088 311.42477307 376.35845776 C268.85609258 375.18213855 226.31730385 374.8392967 183.7343932 374.89006903 C174.39930793 374.90087934 165.0642302 374.90038865 155.72913988 374.89991149 C139.04874708 374.89941931 122.36837399 374.90834694 105.68798828 374.9230957 C89.65673465 374.93726216 73.62549826 374.94426166 57.59423828 374.94360352 C56.10250796 374.94354358 56.10250796 374.94354358 54.58064167 374.94348244 C53.09095471 374.9434219 53.09095471 374.9434219 51.57117307 374.94336015 C33.03848248 374.94266524 14.5057989 374.94857654 -4.02688939 374.95751337 C-9.57098318 374.96006613 -15.11507572 374.96144866 -20.65917007 374.96184416 C-67.46286237 374.8868541 -67.46286237 374.8868541 -114.25927734 375.5769043 C-115.06463275 375.59625648 -115.86998816 375.61560867 -116.69974828 375.63554728 C-124.31439091 375.82734618 -131.89063619 376.133442 -139.47089291 376.9184761 C-142.15545086 377.18120129 -144.81136422 377.24290461 -147.5078125 377.2265625 C-148.46494141 377.22333984 -149.42207031 377.22011719 -150.40820312 377.21679688 C-151.36533203 377.20841797 -152.32246094 377.20003906 -153.30859375 377.19140625 C-154.30826172 377.18689453 -155.30792969 377.18238281 -156.33789062 377.17773438 C-158.76569172 377.1661181 -161.19335775 377.14978793 -163.62109375 377.12890625 C-163.87503906 378.17046875 -164.12898438 379.21203125 -164.390625 380.28515625 C-166.88576119 388.97986397 -174.08340316 396.1428333 -180.62109375 402.12890625 C-173.3157786 426.43173683 -149.52848563 445.55447328 -129.40014648 459.171875 C-125.73347505 461.65638595 -122.15586297 464.1866988 -118.68359375 466.94140625 C-115.83168985 469.19576838 -112.96282953 471.40184723 -109.99609375 473.50390625 C-108.98675781 474.22707031 -108.98675781 474.22707031 -107.95703125 474.96484375 C-105.58383219 476.31774907 -105.58383219 476.31774907 -102.48828125 476.45703125 C-97.13262589 477.38750875 -93.05669805 479.83228976 -88.37109375 482.50390625 C-87.0253125 483.24640625 -87.0253125 483.24640625 -85.65234375 484.00390625 C-81.85491324 486.13001255 -78.68117197 488.0309779 -75.62109375 491.12890625 C-48.15190848 505.76329296 -16.49379172 504.42152574 13.75390625 504.62890625 C69.01752494 505.00844581 69.01752494 505.00844581 84.37890625 510.12890625 C84.99765625 510.21140625 85.61640625 510.29390625 86.25390625 510.37890625 C90.0097371 511.70449361 92.5171525 514.652475 94.49609375 518.04296875 C96.4371192 522.62928553 96.188255 527.05773818 94.38671875 531.66796875 C90.58154894 538.95583635 85.67385274 545.55265198 80.81787109 552.16308594 C79.31270942 554.21934005 77.82263771 556.28583174 76.3359375 558.35546875 C69.01738293 568.54103947 61.5986505 578.65080632 54.14501953 588.73779297 C51.80283267 591.9088433 49.46436248 595.0826225 47.12646484 598.25683594 C45.96204748 599.83737227 44.7970089 601.41745113 43.63134766 602.99707031 C40.68995462 606.9840912 37.75815296 610.97757369 34.84375 614.984375 C27.76798414 624.69082419 20.45869374 634.13144315 12.80810547 643.39111328 C9.62013166 647.26743674 6.50372978 651.20163559 3.37890625 655.12890625 C0.38516278 654.51942877 -1.74501735 653.59026054 -4.28125 651.8984375 C-4.98282227 651.43236084 -5.68439453 650.96628418 -6.40722656 650.48608398 C-7.15842773 649.97634033 -7.90962891 649.46659668 -8.68359375 648.94140625 C-9.47217773 648.41039307 -10.26076172 647.87937988 -11.07324219 647.33227539 C-26.30358416 636.98881081 -40.87552116 625.76828222 -55.21875 614.23828125 C-56.45693921 613.24337502 -57.69522154 612.24858468 -58.93359375 611.25390625 C-59.55210205 610.75673096 -60.17061035 610.25955566 -60.80786133 609.74731445 C-65.50292013 605.98776679 -70.26754295 602.3275008 -75.05859375 598.69140625 C-81.41101254 593.86755176 -87.640648 588.91616743 -93.81225586 583.86352539 C-98.04372861 580.40131631 -102.31099717 576.99264488 -106.62109375 573.62890625 C-113.76279292 568.04970942 -120.79419115 562.33873513 -127.8125 556.60546875 C-129.41344855 555.29843084 -131.01707351 553.99467269 -132.62109375 552.69140625 C-142.81811746 544.39150323 -152.80940997 535.84958757 -162.77661133 527.27612305 C-163.59488403 526.57289917 -163.59488403 526.57289917 -164.4296875 525.85546875 C-165.22656982 525.16952637 -165.22656982 525.16952637 -166.03955078 524.46972656 C-167.08726872 523.58147912 -168.14555816 522.70554148 -169.21435547 521.84277344 C-174.5174926 517.55953457 -178.41839472 512.45550373 -182.62109375 507.12890625 C-183.40613281 506.18273437 -184.19117188 505.2365625 -185 504.26171875 C-202.25681127 482.93307561 -213.37865854 456.36454919 -224.30859375 431.37890625 C-224.70643066 430.46963379 -225.10426758 429.56036133 -225.51416016 428.62353516 C-231.62109375 414.40778795 -231.62109375 414.40778795 -231.62109375 409.12890625 C-232.61109375 409.12890625 -233.60109375 409.12890625 -234.62109375 409.12890625 C-233.06836483 400.16314892 -229.34122039 391.63624162 -225.62109375 383.37890625 C-212.26985518 352.38618536 -209.15687979 311.00952134 -220.87109375 279.00390625 C-221.74074062 277.02424427 -222.66114652 275.06639136 -223.62109375 273.12890625 C-223.9365918 272.48775879 -224.25208984 271.84661133 -224.57714844 271.18603516 C-225.95249083 268.39840668 -227.3307177 265.61396801 -228.76660156 262.85693359 C-229.74963462 260.96136194 -230.69438088 259.05259706 -231.62109375 257.12890625 C-231.93272461 256.49936035 -232.24435547 255.86981445 -232.56542969 255.22119141 C-235.53246574 248.50410469 -234.9943894 242.76657153 -232.42382812 235.95751953 C-230.8237321 232.32513553 -229.11953489 228.75369028 -227.37109375 225.19140625 C-226.73596892 223.87137104 -226.10211932 222.55072157 -225.46948242 221.22949219 C-224.16946226 218.51981087 -222.86090831 215.81449019 -221.54638672 213.11181641 C-219.72410853 209.35642195 -217.95140494 205.58004776 -216.1875 201.796875 C-199.42221597 166.00531447 -176.06972187 135.50701522 -144.62109375 111.12890625 C-141.77514028 108.81083707 -138.94898422 106.46895415 -136.12109375 104.12890625 C-134.64227707 102.9097316 -133.16311816 101.69097193 -131.68359375 100.47265625 C-130.63171875 99.60640625 -130.63171875 99.60640625 -129.55859375 98.72265625 C-126.23149906 95.98585255 -122.89468035 93.2609831 -119.55859375 90.53515625 C-115.7399821 87.40714458 -111.93058545 84.2680137 -108.12109375 81.12890625 C-96.99730094 71.96435586 -96.99730094 71.96435586 -91.46875 67.453125 C-89.3067961 65.68856729 -87.14863199 63.91970293 -84.9921875 62.1484375 C-76.77260278 55.41395097 -68.43311505 48.86887747 -59.96875 42.4453125 C-56.26379931 39.63001822 -52.59705245 36.76875883 -48.93676758 33.89575195 C-40.07775118 26.94887779 -31.0587378 20.27074474 -21.88085938 13.75195312 C-19.5303924 12.0637612 -17.20753899 10.34195806 -14.88671875 8.61328125 C-13.36077843 7.49335148 -11.83474026 6.37355502 -10.30859375 5.25390625 C-9.60919678 4.7232959 -8.9097998 4.19268555 -8.18920898 3.64599609 C-3.39450285 0.16694276 -3.39450285 0.16694276 0 0 Z " fill="#1C1B1C" transform="translate(350.62109375,131.87109375)"/>
<path d="M0 0 C1.1250293 0.04898437 2.25005859 0.09796875 3.40917969 0.1484375 C14.51058145 0.69786074 25.53630634 1.85018857 36.578125 3.09375 C73.20485672 7.11700904 110.36189813 5.96411846 147.15309039 5.94780041 C152.51290409 5.94548624 157.87271462 5.94524229 163.23252869 5.94631577 C164.00675036 5.946469 164.78097204 5.94662223 165.57865497 5.94678011 C167.15395312 5.94709999 168.72925126 5.94742421 170.3045494 5.9477527 C184.99879479 5.95058769 199.6930339 5.9473566 214.38727826 5.94195233 C226.7925312 5.93752901 239.19777459 5.93827626 251.60302734 5.94287109 C355.99354755 6.03682038 355.99354755 6.03682038 460.375 4.8125 C462.21243523 4.77857147 462.21243523 4.77857147 464.08699036 4.74395752 C476.65606139 4.50925684 489.22421506 4.24233665 501.79198742 3.94647408 C530.7049367 3.26708102 559.62580865 2.60484565 588.54718018 2.45901489 C591.01837923 2.44489456 593.4895512 2.4241779 595.96063232 2.39620972 C599.27482639 2.36103856 602.58798788 2.35203275 605.90234375 2.3515625 C606.83297134 2.33727707 607.76359894 2.32299164 608.72242737 2.30827332 C615.60023559 2.35616421 622.59578805 3.67525229 628.03330994 8.18911743 C632.89258218 13.61589148 633.68499715 19.60828996 633.67578125 26.625 C633.68220894 27.7229187 633.68220894 27.7229187 633.68876648 28.84301758 C633.69448117 30.38263927 633.69503126 31.92228794 633.69067383 33.46191406 C633.68750903 35.80580966 633.71102359 38.14844712 633.73632812 40.4921875 C633.73860109 41.99479009 633.73930463 43.49739604 633.73828125 45 C633.747491 45.69391846 633.75670074 46.38783691 633.76618958 47.1027832 C633.71277578 52.77008639 632.15678727 56.66206708 628.5625 61 C624.01810012 64.7653599 620.28346495 66.23453321 614.375 65.8125 C614.375 67.7925 614.375 69.7725 614.375 71.8125 C619.325 71.8125 624.275 71.8125 629.375 71.8125 C620.30434332 78.61549251 611.78560073 78.98129845 600.88793945 78.9296875 C599.17350505 78.92508011 599.17350505 78.92508011 597.42443562 78.92037964 C584.35918959 78.85155292 571.30626694 78.4345542 558.24882531 78.00518799 C552.36004983 77.81363256 546.47086943 77.63457931 540.58175361 77.45384979 C539.0337978 77.40634285 537.48584556 77.35871945 535.93789685 77.31098175 C517.7062874 76.74936667 499.47274395 76.27092701 481.23828125 75.8125 C480.02391593 75.78195597 480.02391593 75.78195597 478.78501797 75.75079489 C466.96692288 75.45396922 455.14866757 75.1638501 443.33033276 74.87674236 C440.65508643 74.81171209 437.97984465 74.74649726 435.30460358 74.68125153 C386.2891526 73.48681725 337.27474134 72.41606771 288.25 71.6875 C286.97744228 71.66858704 285.70488457 71.64967407 284.3937645 71.63018799 C269.0346384 71.4030797 253.67535407 71.18789246 238.31599712 70.97704697 C211.91925064 70.61445569 185.52273268 70.23552768 159.12639952 69.84402704 C157.00963262 69.81264282 154.89286449 69.78134206 152.77609634 69.75004196 C120.15855364 69.26691369 87.54364684 68.76346442 54.9375 67.75 C53.63073303 67.70979736 52.32396606 67.66959473 50.9776001 67.62817383 C47.44448899 67.5167464 43.91166992 67.39925122 40.37890625 67.27734375 C39.41371567 67.24511215 38.44852509 67.21288055 37.4540863 67.17967224 C30.7410708 66.93001356 24.06490237 66.41750518 17.375 65.8125 C17.12105469 64.78511719 16.86710937 63.75773437 16.60546875 62.69921875 C14.80956658 55.45957023 12.98598686 48.23415104 10.98828125 41.046875 C10.41970472 38.97537326 9.8869623 36.89862674 9.375 34.8125 C7.725 34.8125 6.075 34.8125 4.375 34.8125 C4.375 33.966875 4.375 33.12125 4.375 32.25 C3.10905916 27.89832837 1.20461027 26.65053889 -2.234375 23.8671875 C-6.79945229 19.943608 -10.65298906 15.32182064 -14.625 10.8125 C-15.2128125 10.17441406 -15.800625 9.53632813 -16.40625 8.87890625 C-17.8125 7.3125 -17.8125 7.3125 -19.625 4.8125 C-19.295 3.8225 -18.965 2.8325 -18.625 1.8125 C-12.50927766 -0.77362501 -6.53147327 -0.32312568 0 0 Z " fill="#D1CFD5" transform="translate(182.625,375.1875)"/>
<path d="M0 0 C5.86519412 -0.00100352 11.73038212 -0.00561793 17.59557366 -0.01099443 C37.05022873 -0.02846052 56.50486221 -0.03785085 75.95952519 -0.03633349 C77.51407752 -0.03621362 77.51407752 -0.03621362 79.10003495 -0.03609133 C80.1376954 -0.03600957 81.17535585 -0.03592781 82.24446056 -0.03584357 C99.20572552 -0.03502382 116.1669032 -0.05437093 133.1281428 -0.08236806 C150.6485283 -0.11105691 168.16887097 -0.12491213 185.68928057 -0.12318051 C195.48584055 -0.12251761 205.2823076 -0.12797282 215.07884622 -0.14953661 C223.37593883 -0.16769018 231.6728958 -0.17213998 239.96999963 -0.15851776 C244.19783474 -0.15197273 248.42540891 -0.15192885 252.65321946 -0.16922426 C256.51940786 -0.18488015 260.38512658 -0.18216949 264.25130299 -0.164656 C265.65078761 -0.1615708 267.05030669 -0.16527543 268.44975068 -0.17637615 C270.34850332 -0.19044491 272.24739885 -0.17754951 274.14614987 -0.1632638 C275.72904641 -0.1639159 275.72904641 -0.1639159 277.34392065 -0.16458118 C280.95146874 0.46672019 282.64363522 1.7456985 285.19598222 4.33451414 C285.50848222 7.58451414 285.50848222 7.58451414 285.19598222 10.33451414 C283.94706608 10.81649877 282.69679413 11.29497091 281.44598222 11.77201414 C280.74988847 12.03885008 280.05379472 12.30568602 279.33660722 12.58060789 C277.30539218 13.29598107 275.29245312 13.84817067 273.19598222 14.33451414 C272.86200434 17.20864539 272.86200434 17.20864539 273.19598222 20.33451414 C275.46652201 22.88887141 278.21462469 23.75907432 281.35223222 24.91654539 C282.43214433 25.31643675 282.43214433 25.31643675 283.53387284 25.72440672 C284.08236894 25.92574217 284.63086503 26.12707762 285.19598222 26.33451414 C285.28376028 30.501046 285.33663494 34.6673369 285.38348222 38.83451414 C285.4211873 40.59408445 285.4211873 40.59408445 285.45965409 42.38920164 C285.51642328 49.12581187 285.0807158 54.21675893 282.19598222 60.33451414 C275.66120603 61.43817833 269.13078055 61.72019629 262.51629472 62.01810789 C260.565495 62.10780096 260.565495 62.10780096 258.5752852 62.19930601 C254.15755883 62.39922449 249.7393481 62.58683789 245.32098222 62.77201414 C244.54670381 62.80469137 243.77242539 62.8373686 242.974684 62.87103605 C210.97493083 64.21402662 178.96796071 64.90485657 146.94598222 65.45951414 C145.84596124 65.47889414 144.74594026 65.49827414 143.61258531 65.51824141 C127.63804879 65.79949337 111.66308828 66.03644296 95.68748081 66.24771965 C91.20234085 66.30717987 86.71723948 66.36900703 82.23215079 66.43221158 C12.46533518 67.41337597 -57.2991737 67.52322609 -127.07137802 67.51970232 C-139.38001826 67.51928425 -151.68862877 67.52904115 -163.99726036 67.54295524 C-176.86325857 67.55737869 -189.72924222 67.56422366 -202.5952487 67.56336147 C-209.73032452 67.56303385 -216.86536828 67.56559152 -224.00043654 67.57653952 C-230.65005503 67.58668756 -237.29959448 67.58624962 -243.94922042 67.57902288 C-246.36086034 67.57798935 -248.77250472 67.58026516 -251.18413711 67.58638334 C-272.48153602 67.63687563 -293.54293999 66.16820683 -314.67926192 63.58451414 C-316.82458882 63.32444373 -318.97137253 63.0794867 -321.11847091 62.83451414 C-322.50204077 62.66873244 -323.88550949 62.50210375 -325.26886153 62.33451414 C-326.48178878 62.19013914 -327.69471602 62.04576414 -328.94439864 61.89701414 C-331.80401778 61.33451414 -331.80401778 61.33451414 -333.80401778 59.33451414 C-333.47753442 55.8993414 -331.96794376 54.06846072 -329.67901778 51.58451414 C-329.04350997 50.88713133 -328.40800216 50.18974852 -327.75323653 49.47123289 C-327.10999434 48.7661157 -326.46675216 48.06099852 -325.80401778 47.33451414 C-324.69912976 46.02262134 -323.59495343 44.71012878 -322.49151778 43.39701414 C-308.54559152 27.60394532 -290.22697366 17.96189493 -271.80401778 8.33451414 C-270.45291915 7.62283079 -270.45291915 7.62283079 -269.07452559 6.89677 C-268.20021895 6.44567869 -267.32591231 5.99458738 -266.42511153 5.52982664 C-265.64708175 5.12651121 -264.86905196 4.72319578 -264.06744552 4.30765867 C-260.63638196 2.83249749 -257.51638173 2.54075658 -253.80401778 2.33451414 C-253.80401778 2.66451414 -253.80401778 2.99451414 -253.80401778 3.33451414 C-223.15610342 3.4372118 -192.51122356 3.47611216 -161.86651778 2.95951414 C-160.85396926 2.94413603 -159.84142074 2.92875792 -158.79818892 2.9129138 C-146.84300215 2.72573534 -134.90251457 2.39679364 -122.95785689 1.86838865 C-81.97169402 0.09704402 -41.01731941 0.00558296 0 0 Z " fill="#D7D5DB" transform="translate(530.8040177822113,292.66548585891724)"/>
<path d="M0 0 C2.58907621 -0.00107723 5.17815218 -0.00302239 7.76722717 -0.00575256 C14.01986723 -0.01073768 20.27245336 -0.00521307 26.52508672 0.00409774 C33.93400476 0.01470856 41.34291244 0.01440514 48.75183664 0.01392516 C62.10751787 0.01342611 75.46317513 0.02251478 88.81884766 0.03710938 C101.49105272 0.05094834 114.16323649 0.05824218 126.83544922 0.05761719 C206.8732664 0.05457479 286.899621 0.32982147 366.93310547 1.24291992 C368.2687442 1.25814981 368.2687442 1.25814981 369.63136554 1.27368736 C375.44143839 1.34021551 381.25148919 1.40845554 387.06152344 1.47827148 C387.77449329 1.48679815 388.48746315 1.49532481 389.22203815 1.50410986 C414.83857266 1.8127922 440.44745738 2.37525432 466.05476761 3.11900711 C468.12151266 3.17864267 470.18829696 3.23668844 472.25509644 3.29440308 C491.18943712 3.83378495 510.04472723 4.85306599 528.93310547 6.24291992 C528.94856246 8.28324255 528.96396538 10.32356562 528.97897339 12.3638916 C528.99123361 13.93328956 529.00640642 15.50266542 529.02319336 17.07202148 C529.0269397 18.09247559 529.0269397 18.09247559 529.03076172 19.13354492 C529.03599854 19.82480469 529.04123535 20.51606445 529.04663086 21.22827148 C528.92722552 23.34726688 528.4577912 25.19115617 527.93310547 27.24291992 C527.79389762 31.14073969 527.89715319 34.49375929 528.93310547 38.24291992 C477.11074064 38.44442024 425.29058804 38.53245689 373.47216797 37.79760742 C372.70386256 37.78674063 371.93555716 37.77587385 371.14396977 37.76467776 C362.44608378 37.64134439 353.74825608 37.514123 345.05044556 37.3855896 C284.02811838 36.48423532 223.01846609 36.04133882 161.9891243 36.05444336 C157.11088762 36.05546859 152.2326528 36.05488896 147.35441619 36.05380094 C54.49622432 34.42416804 54.49622432 34.42416804 -38.06689453 39.24291992 C-37.40689453 40.23291992 -36.74689453 41.22291992 -36.06689453 42.24291992 C-35.80929174 44.93744514 -35.977894 47.52840367 -36.06689453 50.24291992 C-41.48152828 51.0928915 -44.65449175 48.19784416 -48.81689453 45.18041992 C-49.88641357 44.42486816 -49.88641357 44.42486816 -50.97753906 43.65405273 C-55.41715623 40.49748594 -59.76287211 37.23695858 -64.01611328 33.83276367 C-66.20245083 32.13783151 -68.4602741 30.60089362 -70.75439453 29.05541992 C-75.27404512 25.93301147 -79.45757408 22.49558439 -83.62939453 18.93041992 C-84.24967529 18.40230713 -84.86995605 17.87419434 -85.5090332 17.33007812 C-89.93909152 13.49852594 -89.93909152 13.49852594 -91.06689453 11.24291992 C-90.40689453 11.24291992 -89.74689453 11.24291992 -89.06689453 11.24291992 C-89.06689453 9.59291992 -89.06689453 7.94291992 -89.06689453 6.24291992 C-84.57763606 5.70208335 -80.08745792 5.16973655 -75.59643555 4.64379883 C-74.08316774 4.46554462 -72.57012753 4.28534253 -71.05737305 4.1027832 C-47.39111689 1.25104315 -23.83311421 -0.05881182 0 0 Z " fill="#CFCCD3" transform="translate(286.06689453125,558.757080078125)"/>
<path d="M0 0 C0.33 0 0.66 0 1 0 C1 9.24 1 18.48 1 28 C4.196875 27.690625 7.39375 27.38125 10.6875 27.0625 C20.94059274 26.17033017 31.18868833 25.70584259 41.47436523 25.44189453 C42.25775359 25.42108834 43.04114195 25.40028214 43.84826934 25.37884545 C64.40109693 24.84517002 84.95508972 24.85285581 105.51348042 24.8656745 C111.03083286 24.86827572 116.54818397 24.86583866 122.0655365 24.86428833 C131.35139265 24.86248387 140.63724078 24.86482211 149.9230957 24.86962891 C159.29386926 24.87442565 168.66462686 24.8744784 178.03540039 24.86962891 C231.36583604 24.84283368 284.67910956 24.92705945 338 26 C339.3548131 26.02693124 340.709627 26.05382187 342.06444168 26.08067322 C359.63879023 26.42954432 377.21245976 26.80737194 394.78597188 27.19585484 C410.87404171 27.55140891 426.96232428 27.8967974 443.05078125 28.234375 C443.83173951 28.2507683 444.61269778 28.26716159 445.41732144 28.28405166 C481.58875105 29.04196431 517.7623462 29.63956685 553.9375 30.1875 C554.64426313 30.1982158 555.35102627 30.20893161 556.07920647 30.21997213 C573.71936453 30.48729909 591.35962053 30.74768969 609 31 C609.05831395 35.04160556 609.09370212 39.08310205 609.125 43.125 C609.14175781 44.26710938 609.15851562 45.40921875 609.17578125 46.5859375 C609.18544922 48.24882812 609.18544922 48.24882812 609.1953125 49.9453125 C609.21102295 51.46922607 609.21102295 51.46922607 609.22705078 53.02392578 C608.97841818 56.28288429 608.14878364 58.95115207 607 62 C593.99275092 62.0234475 580.98550709 62.04107667 567.97824097 62.05181217 C561.93470499 62.05697159 555.89118375 62.06393843 549.84765625 62.07543945 C503.35308874 62.16145023 503.35308874 62.16145023 484.05503273 61.43047142 C432.17413479 59.53014426 380.21113213 59.83611137 328.30472231 59.83274293 C322.15068144 59.83224026 315.99664203 59.82993031 309.84260178 59.82724571 C289.38711005 59.81850802 268.93162345 59.81381739 248.47612984 59.81457619 C246.84197389 59.81463612 246.84197389 59.81463612 245.17480469 59.81469727 C244.08398891 59.81473815 242.99317312 59.81477903 241.86930232 59.81482115 C224.10793285 59.8152295 206.34658439 59.80559448 188.58522101 59.7915589 C170.18992682 59.77714027 151.79464287 59.77029117 133.39934289 59.77115268 C123.13368797 59.77148192 112.86805529 59.76885371 102.60240555 59.75797462 C93.89155608 59.74879838 85.18073905 59.74675345 76.46988679 59.75348405 C72.04646762 59.75670881 67.62311045 59.75695513 63.19969749 59.7481308 C44.17508921 59.7124483 25.32197016 60.13251455 6.34734154 61.57104015 C1.21083201 61.95295516 -3.85086917 62.08702305 -9 62 C-7.96455229 54.92898209 -6.61282916 47.95925309 -5 41 C-4.8340332 40.27047119 -4.66806641 39.54094238 -4.49707031 38.78930664 C-3.21785917 33.38030433 -3.21785917 33.38030433 -1.96337891 31.19042969 C-0.63808854 28.17712377 -0.67236209 25.54975942 -0.5859375 22.265625 C-0.54726562 20.97011719 -0.50859375 19.67460937 -0.46875 18.33984375 C-0.43729733 16.97656716 -0.40604993 15.61328582 -0.375 14.25 C-0.33679531 12.87106972 -0.29774213 11.49216266 -0.2578125 10.11328125 C-0.16351996 6.74232282 -0.0779178 3.37137022 0 0 Z " fill="#D7D5DA" transform="translate(203,444)"/>
<path d="M0 0 C11.92590808 -0.12854141 23.76519644 0.21138973 35.67319087 0.84299094 C60.57467848 2.13456424 85.43435264 2.27179695 110.36353028 2.2174722 C116.45133989 2.2065397 122.5391506 2.20766771 128.62696838 2.2071991 C139.12415991 2.2048628 149.62132859 2.19545584 160.11850929 2.18089485 C171.12006466 2.165696 182.12160954 2.15530583 193.12317467 2.15081596 C193.81415617 2.15053336 194.50513767 2.15025076 195.21705801 2.14995959 C198.72859252 2.1485544 202.24012706 2.1472425 205.75166162 2.1459735 C230.4907801 2.13693617 255.22988539 2.11939558 279.96899414 2.09594727 C281.4573056 2.0945397 282.94561705 2.09313231 284.43392851 2.0917251 C285.17132789 2.0910275 285.90872726 2.0903299 286.66847207 2.08961116 C290.39895615 2.08608245 294.12944023 2.08255818 297.85992432 2.07904053 C298.96944417 2.07799284 298.96944417 2.07799284 300.10137856 2.07692398 C317.30952752 2.06071824 334.51767819 2.04710988 351.72583008 2.03442383 C352.46385755 2.03387771 353.20188503 2.0333316 353.96227697 2.03276893 C370.8506398 2.02029485 387.73900286 2.0090432 404.62736797 2.00016689 C405.33925643 1.9997915 406.05114489 1.99941611 406.78460572 1.99902934 C413.19194491 1.99566123 419.59928412 1.9923422 426.00662347 1.9892792 C441.89913233 1.98167861 457.79162968 1.97116853 473.68413037 1.95309038 C484.74796025 1.94051583 495.81178896 1.93136589 506.87562457 1.92552502 C512.8483693 1.92222396 518.82110026 1.91728248 524.7938385 1.90771103 C597.13935059 1.79500205 597.13935059 1.79500205 620 5 C621 6 621 6 621.25 9 C621.17664584 14.07191625 619.93355906 19.754747 616.5703125 23.66015625 C612.34874066 27.26214416 608.4761739 28.39115528 603 28 C603 29.98 603 31.96 603 34 C607.95 34 612.9 34 618 34 C608.92934332 40.80299251 600.41060073 41.16879845 589.51293945 41.1171875 C587.79850505 41.11258011 587.79850505 41.11258011 586.04943562 41.10787964 C572.98418959 41.03905292 559.93126694 40.6220542 546.87382531 40.19268799 C540.98504983 40.00113256 535.09586943 39.82207931 529.20675361 39.64134979 C527.6587978 39.59384285 526.11084556 39.54621945 524.56289685 39.49848175 C506.3312874 38.93686667 488.09774395 38.45842701 469.86328125 38 C469.05370437 37.97963731 468.24412748 37.95927463 467.41001797 37.93829489 C455.59192288 37.64146922 443.77366757 37.3513501 431.95533276 37.06424236 C429.28008643 36.99921209 426.60484465 36.93399726 423.92960358 36.86875153 C374.9141526 35.67431725 325.89974134 34.60356771 276.875 33.875 C275.60244228 33.85608704 274.32988457 33.83717407 273.0187645 33.81768799 C257.6596384 33.5905797 242.30035407 33.37539246 226.94099712 33.16454697 C200.54425064 32.80195569 174.14773268 32.42302768 147.75139952 32.03152704 C145.63463262 32.00014282 143.51786449 31.96884206 141.40109634 31.93754196 C108.78355364 31.45441369 76.16864684 30.95096442 43.5625 29.9375 C42.25573303 29.89729736 40.94896606 29.85709473 39.6026001 29.81567383 C36.06948899 29.7042464 32.53666992 29.58675122 29.00390625 29.46484375 C27.55612038 29.41649635 27.55612038 29.41649635 26.0790863 29.36717224 C19.3660708 29.11751356 12.68990237 28.60500518 6 28 C3.57112603 18.70896751 1.41382168 9.51042852 0 0 Z " fill="#DCDADF" transform="translate(194,413)"/>
<path d="M0 0 C7.37619173 0.00729064 14.75238072 0.01067768 22.12857544 0.01305056 C84.77651235 0.03379803 147.42152594 0.12968058 210.06180573 1.19484329 C212.00709356 1.22746513 212.00709356 1.22746513 213.99168015 1.260746 C222.28357112 1.40112111 230.57509801 1.55515753 238.86649323 1.72218704 C239.87199785 1.74169104 240.87750248 1.76119503 241.91347694 1.78129005 C244.67642173 1.83634675 247.43917118 1.89711707 250.20194244 1.96022415 C250.97706586 1.97532909 251.75218927 1.99043404 252.55080128 2.0059967 C258.13017084 2.14419918 263.64097891 2.64011516 269.18680573 3.25734329 C269.18680573 4.24734329 269.18680573 5.23734329 269.18680573 6.25734329 C251.89139471 7.1290681 234.60654662 7.5319332 217.29227448 7.79249954 C214.56247369 7.83537961 211.83268643 7.87909709 209.10289764 7.92273331 C203.41760209 8.01311323 197.73227255 8.10101048 192.04691315 8.18727493 C185.55252897 8.28583866 179.05821086 8.3880775 172.56391639 8.49237353 C166.22029472 8.59418556 159.87663768 8.69360484 153.53296089 8.7919178 C150.87778587 8.83308841 148.22262813 8.87508828 145.56747246 8.91751671 C128.43915818 9.18940314 111.31729344 9.31425448 94.18680573 9.25734329 C94.18680573 10.24734329 94.18680573 11.23734329 94.18680573 12.25734329 C88.51258344 12.30708026 82.83849034 12.3432215 77.16410065 12.36720657 C75.2369948 12.37721416 73.30990394 12.39082439 71.38285065 12.4082222 C68.6000166 12.4327025 65.81738472 12.44387907 63.03446198 12.45265579 C62.18408859 12.46297836 61.33371521 12.47330093 60.45757294 12.48393631 C54.79156984 12.48497989 49.66179616 11.71044133 44.18680573 10.25734329 C44.21774323 11.46390579 44.21774323 11.46390579 44.24930573 12.69484329 C44.18680573 15.25734329 44.18680573 15.25734329 43.18680573 16.25734329 C40.08283628 16.77833311 36.99439662 17.22777407 33.87430573 17.63234329 C32.891315 17.76100784 31.90832428 17.88967239 30.89554596 18.02223587 C15.38203559 19.95688393 -0.2295446 21.04984017 -15.81319427 22.25734329 C-15.81319427 23.57734329 -15.81319427 24.89734329 -15.81319427 26.25734329 C-18.37909604 27.20767728 -19.47861253 27.39292163 -22.05928802 26.34718704 C-25.13091807 25.13160579 -27.91737138 24.64848889 -31.18819427 24.19484329 C-32.26842865 24.03886673 -33.34866302 23.88289017 -34.46163177 23.72218704 C-45.38480025 22.43905865 -56.36438503 22.11500319 -67.35240173 22.0581131 C-69.50341493 22.04594859 -71.65425855 22.02641553 -73.80519867 22.00499344 C-79.91017861 21.94462835 -86.01513367 21.88991842 -92.12032318 21.8559761 C-156.24420555 21.48011366 -156.24420555 21.48011366 -180.81319427 6.25734329 C-181.14319427 5.26734329 -181.47319427 4.27734329 -181.81319427 3.25734329 C-121.45986849 -1.6635296 -60.48596113 -0.06163715 0 0 Z " fill="#AAA6AE" transform="translate(452.81319427490234,615.7426567077637)"/>
<path d="M0 0 C5.86519412 -0.00100352 11.73038212 -0.00561793 17.59557366 -0.01099443 C37.05022873 -0.02846052 56.50486221 -0.03785085 75.95952519 -0.03633349 C77.51407752 -0.03621362 77.51407752 -0.03621362 79.10003495 -0.03609133 C80.1376954 -0.03600957 81.17535585 -0.03592781 82.24446056 -0.03584357 C99.20572552 -0.03502382 116.1669032 -0.05437093 133.1281428 -0.08236806 C150.6485283 -0.11105691 168.16887097 -0.12491213 185.68928057 -0.12318051 C195.48584055 -0.12251761 205.2823076 -0.12797282 215.07884622 -0.14953661 C223.37593883 -0.16769018 231.6728958 -0.17213998 239.96999963 -0.15851776 C244.19783474 -0.15197273 248.42540891 -0.15192885 252.65321946 -0.16922426 C256.51940786 -0.18488015 260.38512658 -0.18216949 264.25130299 -0.164656 C265.65078761 -0.1615708 267.05030669 -0.16527543 268.44975068 -0.17637615 C270.34850332 -0.19044491 272.24739885 -0.17754951 274.14614987 -0.1632638 C275.72904641 -0.1639159 275.72904641 -0.1639159 277.34392065 -0.16458118 C281.03274536 0.48094316 282.68773619 1.56384153 285.19598222 4.33451414 C285.19598222 6.31451414 285.19598222 8.29451414 285.19598222 10.33451414 C274.63598222 10.33451414 264.07598222 10.33451414 253.19598222 10.33451414 C253.19598222 8.35451414 253.19598222 6.37451414 253.19598222 4.33451414 C252.55041368 4.38953596 251.90484513 4.44455778 251.23971391 4.50124693 C234.18931535 5.93405589 217.17143735 6.85639642 200.07098222 7.39701414 C198.8308336 7.43809294 197.59068498 7.47917173 196.31295609 7.52149534 C173.19511878 8.28368614 150.07568655 8.70911432 126.94744706 8.99296141 C115.53528751 9.13638197 104.13490562 9.31695032 92.72818589 9.70332193 C73.26013884 10.3601752 53.80608727 10.4979872 34.32834363 10.5015564 C30.70887357 10.50283032 27.08940961 10.50734366 23.46994209 10.51164865 C11.72438807 10.52521947 -0.02114833 10.52521732 -11.76670814 10.52248955 C-14.80921999 10.52201333 -17.85173114 10.52216509 -20.894243 10.52254438 C-77.37690065 10.52941965 -133.84895384 10.28450588 -190.32555556 9.43058395 C-192.55667234 9.39697415 -194.78779616 9.36387336 -197.01892257 9.33090925 C-205.40295875 9.20669842 -213.78684249 9.0756216 -222.17060256 8.93394423 C-224.66506706 8.89181109 -227.15954831 8.85065616 -229.65404677 8.81058455 C-233.0332322 8.75527357 -236.4122684 8.69440438 -239.79132247 8.63163328 C-240.75510314 8.61652802 -241.71888381 8.60142277 -242.71186996 8.58585978 C-249.11149698 8.45803386 -255.43737654 7.99134605 -261.80401778 7.33451414 C-261.80401778 6.67451414 -261.80401778 6.01451414 -261.80401778 5.33451414 C-262.46401778 5.00451414 -263.12401778 4.67451414 -263.80401778 4.33451414 C-260.50401778 3.67451414 -257.20401778 3.01451414 -253.80401778 2.33451414 C-253.80401778 2.66451414 -253.80401778 2.99451414 -253.80401778 3.33451414 C-223.15610342 3.4372118 -192.51122356 3.47611216 -161.86651778 2.95951414 C-160.85396926 2.94413603 -159.84142074 2.92875792 -158.79818892 2.9129138 C-146.84300215 2.72573534 -134.90251457 2.39679364 -122.95785689 1.86838865 C-81.97169402 0.09704402 -41.01731941 0.00558296 0 0 Z " fill="#9B969D" transform="translate(530.8040177822113,292.66548585891724)"/>
<path d="M0 0 C4.98355257 0.62766334 9.99526281 1.01495573 15 1.4375 C15.7646759 1.50314148 16.52935181 1.56878296 17.31719971 1.63641357 C34.90497709 3.12133912 52.52307338 3.7646957 70.16015625 4.35327148 C71.23278717 4.39007523 72.30541809 4.42687897 73.41055298 4.46479797 C75.42830883 4.53319195 77.44619274 4.59794354 79.46420288 4.65837097 C84.0628532 4.81273323 88.47401474 5.08688742 93 6 C92.67 6.99 92.34 7.98 92 9 C90.95924316 9.03314301 89.91848633 9.06628601 88.84619141 9.10043335 C76.6428099 9.4892208 64.43948919 9.87989155 52.2361908 10.27127838 C49.00532501 10.37482933 45.77445267 10.47817404 42.5435791 10.58148193 C19.03000834 11.3338238 -4.48156323 12.10873877 -27.99023438 13.0020752 C-77.98759713 14.88746107 -127.97479511 15.16451855 -178 15 C-177.68969727 12.60595703 -177.68969727 12.60595703 -177 10 C-174.57587227 8.64598271 -172.53274901 7.7523363 -169.9375 6.875 C-169.31294922 6.63652344 -168.68839844 6.39804687 -168.04492188 6.15234375 C-151.60117478 0.26252146 -134.43333188 0.37272124 -117.19921875 0.015625 C-114.50988574 -0.04881255 -111.82058726 -0.11414025 -109.13130188 -0.18048096 C-103.51617967 -0.31694156 -97.90090369 -0.44329374 -92.28540039 -0.56298828 C-85.84698533 -0.70030657 -79.40902952 -0.85180725 -72.97113103 -1.01141715 C-66.71358997 -1.16637472 -60.45588006 -1.31289092 -54.1980381 -1.45514679 C-51.5649579 -1.51554655 -48.93191794 -1.57773083 -46.2989254 -1.64183807 C-7.69664342 -2.56554781 -7.69664342 -2.56554781 0 0 Z " fill="#DBD8DC" transform="translate(454,282)"/>
<path d="M0 0 C4.51418649 0.00228335 9.02836925 -0.00124055 13.54255497 -0.00397992 C22.37581073 -0.00841008 31.20905795 -0.00747207 40.04231403 -0.00456728 C47.25245962 -0.00229625 54.46260284 -0.00200807 61.67274868 -0.0030911 C63.22046518 -0.00332095 63.22046518 -0.00332095 64.79944867 -0.00355544 C66.89701444 -0.00387524 68.99458022 -0.00419945 71.092146 -0.00452803 C90.74540572 -0.00737637 110.39866077 -0.00410913 130.05191972 0.00127234 C146.7759225 0.00571118 163.4999183 0.00498751 180.22392094 0.00035357 C199.74675026 -0.00505353 219.26957546 -0.00707192 238.79240543 -0.00403416 C240.89481314 -0.00371571 242.99722085 -0.00340134 245.09962857 -0.0030911 C246.13333314 -0.00293682 247.16703771 -0.00278255 248.23206666 -0.0026236 C255.37958351 -0.00177447 262.52709764 -0.00320583 269.67461407 -0.00557065 C375.89335912 -0.03762608 375.89335912 -0.03762608 423.20072758 1.65806842 C445.18151406 2.42802574 467.17905956 2.48046475 489.17094243 2.66295123 C495.23297764 2.71403811 501.29497523 2.76925935 507.35697758 2.82408404 C519.15902846 2.93023674 530.96111262 3.03197169 542.76322758 3.13072467 C543.09322758 2.14072467 543.42322758 1.15072467 543.76322758 0.13072467 C544.09322758 0.13072467 544.42322758 0.13072467 544.76322758 0.13072467 C544.76322758 2.44072467 544.76322758 4.75072467 544.76322758 7.13072467 C535.01900378 7.17700131 525.27480599 7.21257003 515.53049481 7.23434901 C511.00614499 7.24480017 506.48187017 7.25898357 501.95756352 7.28160357 C497.59391234 7.3032846 493.23033345 7.31528325 488.86663258 7.32047915 C487.19920411 7.32418346 485.53177973 7.33141674 483.86438191 7.34218478 C481.53451463 7.35663686 479.20494865 7.35870528 476.87504399 7.35777545 C475.83387173 7.36856128 475.83387173 7.36856128 474.77166569 7.379565 C469.9913319 7.35882899 469.9913319 7.35882899 467.76322758 5.13072467 C464.83950899 4.8479921 464.83950899 4.8479921 461.51322758 4.94322467 C459.83486821 4.95289264 459.83486821 4.95289264 458.12260258 4.96275592 C454.87526642 5.04558622 454.87526642 5.04558622 452.17894757 5.63346648 C447.68195426 6.2881357 443.2908719 6.27703901 438.75233281 6.2548244 C437.19915587 6.25076499 437.19915587 6.25076499 435.61460161 6.24662358 C422.00870898 6.16918486 408.40915644 5.7377793 394.80909441 5.36027617 C352.24041391 4.18395697 309.70162519 3.84111512 267.11871453 3.89188745 C257.78362926 3.90269776 248.44855154 3.90220707 239.11346121 3.9017299 C222.43306841 3.90123772 205.75269532 3.91016536 189.07230961 3.92491412 C173.04105598 3.93908058 157.00981959 3.94608008 140.97855961 3.94542193 C139.98407273 3.94538198 138.98958585 3.94534202 137.964963 3.94530085 C136.47527605 3.94524032 136.47527605 3.94524032 134.9554944 3.94517857 C116.42280381 3.94448366 97.89012023 3.95039496 79.35743194 3.95933178 C73.81333815 3.96188454 68.26924561 3.96326707 62.72515126 3.96366258 C15.92145896 3.88867251 15.92145896 3.88867251 -30.87495601 4.57872272 C-32.08298912 4.60775099 -32.08298912 4.60775099 -33.31542695 4.6373657 C-40.90916492 4.82863805 -48.46441887 5.13023365 -56.02312839 5.92184424 C-59.16111487 6.21794603 -62.27451241 6.22709306 -65.42427242 6.19322467 C-66.53157711 6.18420123 -67.63888179 6.17517779 -68.77974117 6.16588092 C-69.59056148 6.15427936 -70.40138179 6.14267779 -71.23677242 6.13072467 C-71.23677242 5.47072467 -71.23677242 4.81072467 -71.23677242 4.13072467 C-72.22677242 4.13072467 -73.21677242 4.13072467 -74.23677242 4.13072467 C-73.90677242 3.47072467 -73.57677242 2.81072467 -73.23677242 2.13072467 C-72.6645898 2.10566852 -72.09240718 2.08061236 -71.5028857 2.05479693 C-68.78913337 1.93533549 -66.07545434 1.81427439 -63.36177242 1.69322467 C-62.01405757 1.63425006 -62.01405757 1.63425006 -60.63911617 1.57408404 C-59.70454586 1.53218951 -58.76997554 1.49029498 -57.80708492 1.44713092 C-56.81243315 1.40285905 -55.81778139 1.35858718 -54.79298866 1.31297374 C-52.50010147 1.19546779 -50.2082288 1.05475097 -47.9185704 0.88562465 C-31.96760087 -0.21865304 -15.9800293 -0.01197884 0 0 Z " fill="#262526" transform="translate(267.23677241802216,502.8692753314972)"/>
<path d="M0 0 C19.84507417 -0.07008918 39.6901232 -0.12298774 59.53529549 -0.15543652 C68.7498094 -0.17090368 77.96424639 -0.19199034 87.17871094 -0.22631836 C95.21028345 -0.25622531 103.24180025 -0.2755761 111.27342689 -0.28226548 C115.52590257 -0.28617555 119.77821888 -0.2953616 124.03064346 -0.31719017 C128.03446594 -0.3375758 132.03806361 -0.34382962 136.04193306 -0.33932304 C137.51007751 -0.34014732 138.9782296 -0.34610071 140.44632912 -0.35761642 C142.45416425 -0.37259124 144.46212042 -0.36715472 146.47000122 -0.36076355 C148.154117 -0.36491162 148.154117 -0.36491162 149.87225533 -0.36914349 C153.44683758 0.05273678 155.89165092 1.2281409 159 3 C159 3.99 159 4.98 159 6 C131.28 6 103.56 6 75 6 C75 7.32 75 8.64 75 10 C76.25554687 9.98839844 77.51109375 9.97679687 78.8046875 9.96484375 C87.27321259 9.91074797 95.58656141 9.89659822 104 11 C103.67 11.66 103.34 12.32 103 13 C93.97516083 13.11714361 84.95059321 13.20533561 75.92515278 13.25906086 C71.73180628 13.28487892 67.53898918 13.31974983 63.34594727 13.37719727 C17.35108144 13.99057719 17.35108144 13.99057719 0 3 C0 2.01 0 1.02 0 0 Z " fill="#DEDBE0" transform="translate(278,622)"/>
<path d="M0 0 C0.495 1.485 0.495 1.485 1 3 C1.81082031 2.96519531 2.62164062 2.93039062 3.45703125 2.89453125 C11.17510971 2.70584714 17.68380681 3.53683275 25 6 C25.33 7.65 25.66 9.3 26 11 C17.42 11.66 8.84 12.32 0 13 C0 14.32 0 15.64 0 17 C-2.56590177 17.95033399 -3.66541826 18.13557834 -6.24609375 17.08984375 C-9.31772379 15.8742625 -12.1041771 15.3911456 -15.375 14.9375 C-16.45523438 14.78152344 -17.53546875 14.62554688 -18.6484375 14.46484375 C-29.71907515 13.16420756 -40.86195591 12.84773706 -51.99768639 12.73963928 C-54.20757159 12.71805807 -56.41734056 12.69110394 -58.62715149 12.66296387 C-64.10623023 12.59420923 -69.58539554 12.53401116 -75.0645752 12.47393799 C-79.72476857 12.42254144 -84.38489516 12.36761215 -89.04499245 12.30812073 C-91.19832347 12.28201847 -93.35166318 12.26093646 -95.50505066 12.2401123 C-103.37559632 12.14913492 -111.16660623 11.78973782 -119 11 C-119 10.67 -119 10.34 -119 10 C-98.21 9.67 -77.42 9.34 -56 9 C-69.86 8.01 -69.86 8.01 -84 7 C-84 5.68 -84 4.36 -84 3 C-56.28 3 -28.56 3 0 3 C0 2.01 0 1.02 0 0 Z " fill="#BCB9BC" transform="translate(437,625)"/>
<path d="M0 0 C38.94 0 77.88 0 118 0 C116 9 116 9 115 10 C112.43503168 10.1110331 109.89673529 10.15738937 107.33081055 10.16113281 C106.52754333 10.16609772 105.72427612 10.17106262 104.89666748 10.17617798 C102.226676 10.19083944 99.55674395 10.19760874 96.88671875 10.203125 C95.03684995 10.20887386 93.18698117 10.21463163 91.33711243 10.22039795 C87.45235922 10.23091975 83.56762679 10.23675446 79.68286133 10.24023438 C74.70254834 10.24571684 69.72250908 10.26973457 64.74228191 10.29820633 C60.91873879 10.3168232 57.09526164 10.32203784 53.27167702 10.32357025 C51.43564167 10.32660025 49.59960757 10.33464046 47.76361656 10.34775543 C45.19465679 10.36479369 42.62636626 10.36294107 40.05737305 10.35644531 C38.91713432 10.37026749 38.91713432 10.37026749 37.75386047 10.3843689 C33.46498623 10.35036486 31.18702866 9.87944881 28 7 C24.94951863 6.23752861 24.94951863 6.23752861 21.5625 5.875 C20.33402344 5.7203125 19.10554688 5.565625 17.83984375 5.40625 C12.23403394 4.81316331 6.62567506 4.35510906 1 4 C0.67 2.68 0.34 1.36 0 0 Z " fill="#EBE8EF" transform="translate(219,475)"/>
<path d="M0 0 C0.76254593 0.03616928 1.52509186 0.07233856 2.31074524 0.10960388 C8.27976389 0.46233174 13.85582744 1.60831812 19.5 3.625 C19.5 4.945 19.5 6.265 19.5 7.625 C3.31796308 10.84197763 -12.75723942 11.15718813 -29.18774414 11.12597656 C-32.87772175 11.1199808 -36.56642826 11.15117273 -40.25615788 11.19109344 C-43.12234058 11.21686761 -45.98820766 11.21985965 -48.85449028 11.21620178 C-50.21688578 11.21789062 -51.57929621 11.22751062 -52.941576 11.24534607 C-54.82819126 11.26741373 -56.71511752 11.25466573 -58.60180664 11.24023438 C-59.67177383 11.24228882 -60.74174103 11.24434326 -61.84413147 11.24645996 C-64.5 10.625 -64.5 10.625 -66.36863708 8.21154785 C-67.5 5.625 -67.5 5.625 -67.5 3.625 C-62.73692563 2.67238513 -58.3333472 2.54166643 -53.5 2.625 C-53.5 1.965 -53.5 1.305 -53.5 0.625 C-47.72427494 0.45443181 -41.94837733 0.29426686 -36.17211914 0.14282227 C-34.21631534 0.09018755 -32.2605796 0.03494439 -30.30493164 -0.02319336 C-20.1879667 -0.32220415 -10.11318299 -0.50214704 0 0 Z " fill="#D5D3D6" transform="translate(442.5,280.375)"/>
<path d="M0 0 C1.81446041 2.15168743 3.40973055 4.25427067 5 6.5625 C5.65742188 7.47612305 5.65742188 7.47612305 6.328125 8.40820312 C12.87305359 17.72289819 14 25.50644066 14 37 C5.75 37 -2.5 37 -11 37 C-11.11511868 32.8173545 -11.21452349 28.64024614 -11.2746582 24.45727539 C-11.29973147 23.03618709 -11.33379999 21.61522687 -11.37719727 20.19458008 C-11.43817858 18.14632538 -11.46627762 16.09978117 -11.48828125 14.05078125 C-11.51446533 12.82012939 -11.54064941 11.58947754 -11.56762695 10.3215332 C-10.84142602 6.07208643 -9.28171974 4.69792764 -6 2 C-3 0 -3 0 0 0 Z " fill="#C8C6CE" transform="translate(170,407)"/>
<path d="M0 0 C8.25 0 16.5 0 25 0 C24.2390948 7.60905199 23.71295609 11.82600017 20.3125 18.125 C19.95671875 18.81078125 19.6009375 19.4965625 19.234375 20.203125 C16.59050941 25.18761712 13.61843365 29.65787962 10 34 C5.21282878 32.40427626 2.50772536 29.33055041 0 25 C-0.82691426 20.61642689 -0.6671173 16.44023548 -0.4375 12 C-0.2209375 6.06 -0.2209375 6.06 0 0 Z " fill="#D0CFD6" transform="translate(159,478)"/>
<path d="M0 0 C6.27 0 12.54 0 19 0 C19.33 8.25 19.66 16.5 20 25 C21.98 25.99 23.96 26.98 26 28 C26 29.65 26 31.3 26 33 C25.67 32.34 25.34 31.68 25 31 C16.75 31 8.5 31 0 31 C0 20.77 0 10.54 0 0 Z " fill="#444147" transform="translate(159,447)"/>
<path d="M0 0 C0.76254593 0.03616928 1.52509186 0.07233856 2.31074524 0.10960388 C8.27976389 0.46233174 13.85582744 1.60831812 19.5 3.625 C19.5 4.945 19.5 6.265 19.5 7.625 C12.7168636 9.04502108 6.43302093 9.85231216 -0.5 9.625 C-0.995 8.14 -0.995 8.14 -1.5 6.625 C-2.33015625 6.64820313 -3.1603125 6.67140625 -4.015625 6.6953125 C-17.89401557 6.89855253 -31.67322268 5.72088286 -45.5 4.625 C-45.5 3.635 -45.5 2.645 -45.5 1.625 C-48.14 1.625 -50.78 1.625 -53.5 1.625 C-53.5 1.295 -53.5 0.965 -53.5 0.625 C-47.72427494 0.45443181 -41.94837733 0.29426686 -36.17211914 0.14282227 C-34.21631534 0.09018755 -32.2605796 0.03494439 -30.30493164 -0.02319336 C-20.1879667 -0.32220415 -10.11318299 -0.50214704 0 0 Z " fill="#BDBABE" transform="translate(442.5,280.375)"/>
<path d="M0 0 C0 0.66 0 1.32 0 2 C-2 3.625 -2 3.625 -4 5 C-1.65269212 6.32621385 0.70164258 7.63580199 3.0625 8.9375 C3.71927734 9.31068359 4.37605469 9.68386719 5.05273438 10.06835938 C9.44077463 12.46773114 13.00873138 13.59109243 18 14 C17.67 16.31 17.34 18.62 17 21 C8.71322529 21.20761501 0.66398522 20.59336951 -7.5625 19.625 C-8.73619141 19.49867188 -9.90988281 19.37234375 -11.11914062 19.2421875 C-12.23611328 19.11328125 -13.35308594 18.984375 -14.50390625 18.8515625 C-15.51267822 18.73635254 -16.5214502 18.62114258 -17.56079102 18.50244141 C-20 18 -20 18 -22 16 C-21.30132812 15.44570313 -20.60265625 14.89140625 -19.8828125 14.3203125 C-18.97273437 13.59585937 -18.06265625 12.87140625 -17.125 12.125 C-16.22007812 11.40570313 -15.31515625 10.68640625 -14.3828125 9.9453125 C-11.99734824 8.06439526 -11.99734824 8.06439526 -10 6 C-9.01 6 -8.02 6 -7 6 C-7 5.01 -7 4.02 -7 3 C-2.77777778 0 -2.77777778 0 0 0 Z " fill="#D9D9DE" transform="translate(253,305)"/>
<path d="M0 0 C0.47050781 0.40484619 0.94101563 0.80969238 1.42578125 1.22680664 C2.04839844 1.76168701 2.67101562 2.29656738 3.3125 2.84765625 C3.92738281 3.37625244 4.54226562 3.90484863 5.17578125 4.44946289 C6.76551126 5.80069085 8.38071695 7.12183252 10 8.4375 C12 11 12 11 12.125 14.375 C10.44584443 19.78561238 8.48358271 23.41768458 3.62109375 26.515625 C-0.5547304 28.68132813 -4.34503831 30.21863143 -9 31 C-6.60471932 20.47337177 -3.31780699 10.26480091 0 0 Z " fill="#111011" transform="translate(153,497)"/>
<path d="M0 0 C0.33 0 0.66 0 1 0 C1 2.31 1 4.62 1 7 C-8.7442238 7.04627664 -18.48842159 7.08184536 -28.23273277 7.10362434 C-32.7570826 7.11407551 -37.28135741 7.1282589 -41.80566406 7.15087891 C-46.16931524 7.17255993 -50.53289413 7.18455858 -54.896595 7.18975449 C-56.56402347 7.19345879 -58.23144785 7.20069207 -59.89884567 7.21146011 C-62.22871295 7.2259122 -64.55827894 7.22798061 -66.88818359 7.22705078 C-67.92935585 7.23783661 -67.92935585 7.23783661 -68.99156189 7.24884033 C-73.77189568 7.22810432 -73.77189568 7.22810432 -76 5 C-78.32275177 4.59952556 -80.65739357 4.2602896 -83 4 C-83 3.67 -83 3.34 -83 3 C-55.94 3 -28.88 3 -1 3 C-0.67 2.01 -0.34 1.02 0 0 Z " fill="#444344" transform="translate(811,503)"/>
<path d="M0 0 C1.01449219 -0.00386719 2.02898438 -0.00773437 3.07421875 -0.01171875 C4.13253906 -0.00011719 5.19085937 0.01148438 6.28125 0.0234375 C7.33957031 0.01183594 8.39789062 0.00023437 9.48828125 -0.01171875 C11.01001953 -0.00591797 11.01001953 -0.00591797 12.5625 0 C13.9556543 0.00507568 13.9556543 0.00507568 15.37695312 0.01025391 C17.78125 0.3984375 17.78125 0.3984375 19.60742188 1.54833984 C20.78125 3.3984375 20.78125 3.3984375 20.78125 9.3984375 C10.55125 9.3984375 0.32125 9.3984375 -10.21875 9.3984375 C-7.09455337 0.02584761 -7.09455337 0.02584761 0 0 Z " fill="#8F8684" transform="translate(795.21875,293.6015625)"/>
<path d="M0 0 C4.29 0 8.58 0 13 0 C13 4.29 13 8.58 13 13 C2.77 13 -7.46 13 -18 13 C-18 11.68 -18 10.36 -18 9 C-12.72 9 -7.44 9 -2 9 C-1.34 6.03 -0.68 3.06 0 0 Z " fill="#F1F0F4" transform="translate(799,400)"/>
<path d="M0 0 C3.15771423 3.15771423 2.62506773 6.62579022 3 11 C7.29 11 11.58 11 16 11 C18.03435531 14.72965139 19 16.66905042 19 21 C12.73 21 6.46 21 0 21 C0 14.07 0 7.14 0 0 Z " fill="#E1E1E7" transform="translate(159,420)"/>
<path d="M0 0 C1.1875 1.6875 1.1875 1.6875 2 4 C1.2109375 6.7109375 1.2109375 6.7109375 -1 9 C-4.13254983 9.76476129 -7.16524287 9.69729183 -10.375 9.625 C-11.65117188 9.65400391 -11.65117188 9.65400391 -12.953125 9.68359375 C-17.47945395 9.64834197 -19.42763202 9.44549548 -23.1015625 6.5859375 C-25 4 -25 4 -25 2 C-16.58173087 0.30117812 -8.58077055 -0.24911914 0 0 Z " fill="#E1DEE4" transform="translate(735,507)"/>
<path d="M0 0 C1.81643761 3.11389304 2.2719038 5.40777709 2.25 9 C2.25515625 9.845625 2.2603125 10.69125 2.265625 11.5625 C1.98531155 14.13478811 1.2948187 15.7803108 0 18 C-4.44436245 14.94994734 -8.27658851 11.93026768 -12 8 C-12.598125 7.401875 -13.19625 6.80375 -13.8125 6.1875 C-14.204375 5.795625 -14.59625 5.40375 -15 5 C-14.67 4.01 -14.34 3.02 -14 2 C-9.23982707 0.19113429 -5.06323209 -0.20666253 0 0 Z " fill="#C0BFC4" transform="translate(178,375)"/>
</svg>
