<?xml version="1.0" encoding="UTF-8"?>
<svg version="1.1" xmlns="http://www.w3.org/2000/svg" width="294" height="298">
<path d="M0 0 C97.02 0 194.04 0 294 0 C294 98.34 294 196.68 294 298 C196.98 298 99.96 298 0 298 C0 199.66 0 101.32 0 0 Z " fill="#EFEDEC" transform="translate(0,0)"/>
<path d="M0 0 C0.92548645 -0.00281982 1.8509729 -0.00563965 2.80450439 -0.00854492 C4.33962677 -0.00550858 4.33962677 -0.00550858 5.90576172 -0.00241089 C6.97719421 -0.00416321 8.04862671 -0.00591553 9.15252686 -0.00772095 C12.71351719 -0.01214189 16.27445833 -0.00920062 19.83544922 -0.00582886 C22.29785166 -0.00650183 24.76025404 -0.00747179 27.22265625 -0.00872803 C32.3911197 -0.01020533 37.5595659 -0.0080494 42.72802734 -0.00338745 C49.36985649 0.00230985 56.01164524 -0.00096898 62.6534729 -0.00695992 C67.74048164 -0.01056465 72.82748072 -0.00942734 77.91448975 -0.00683212 C80.36423752 -0.00616261 82.81398615 -0.00699211 85.26373291 -0.00931168 C88.68089132 -0.01183677 92.09798329 -0.00799962 95.51513672 -0.00241089 C96.53855164 -0.00443512 97.56196655 -0.00645935 98.61639404 -0.00854492 C100.00462372 -0.00431519 100.00462372 -0.00431519 101.42089844 0 C102.22985565 0.00037703 103.03881287 0.00075405 103.87228394 0.0011425 C105.71044922 0.12698364 105.71044922 0.12698364 106.71044922 1.12698364 C106.80573142 4.10996578 106.83597097 7.06974709 106.82397461 10.05300903 C106.82412064 10.98949783 106.82426666 11.92598663 106.82441711 12.89085388 C106.82371759 16.00213904 106.81592337 19.11336513 106.80810547 22.22463989 C106.80624143 24.37555407 106.80481746 26.52646867 106.80381775 28.67738342 C106.79999146 34.35080122 106.79016024 40.0241936 106.77911377 45.69760132 C106.76890202 51.4820013 106.76432064 57.26640538 106.75927734 63.05081177 C106.74853807 74.40954692 106.73146033 85.76826317 106.71044922 97.12698364 C105.72044922 97.12698364 104.73044922 97.12698364 103.71044922 97.12698364 C102.03986092 99.24940427 102.03986092 99.24940427 100.58544922 101.93948364 C100.06724609 102.83280396 99.54904297 103.72612427 99.01513672 104.64651489 C97.61281385 107.15029987 97.61281385 107.15029987 96.71044922 110.12698364 C93.59846857 108.62862259 90.65698772 106.92764606 87.71044922 105.12698364 C86.72044922 108.09698364 85.73044922 111.06698364 84.71044922 114.12698364 C83.72044922 114.12698364 82.73044922 114.12698364 81.71044922 114.12698364 C81.38044922 113.13698364 81.05044922 112.14698364 80.71044922 111.12698364 C79.59669922 111.62198364 79.59669922 111.62198364 78.46044922 112.12698364 C75.71044922 113.12698364 75.71044922 113.12698364 71.71044922 113.12698364 C71.21544922 114.61198364 71.21544922 114.61198364 70.71044922 116.12698364 C69.39044922 114.80698364 68.07044922 113.48698364 66.71044922 112.12698364 C67.20544922 117.07698364 67.20544922 117.07698364 67.71044922 122.12698364 C66.72044922 122.12698364 65.73044922 122.12698364 64.71044922 122.12698364 C63.62763672 120.98229614 63.62763672 120.98229614 62.52294922 119.81448364 C59.0385116 116.48490992 56.25943774 115.59191215 51.71044922 114.12698364 C52.04044922 114.45698364 52.37044922 114.78698364 52.71044922 115.12698364 C53.08544922 117.50198364 53.08544922 117.50198364 52.71044922 120.12698364 C50.21044922 121.93948364 50.21044922 121.93948364 47.71044922 123.12698364 C46.63519728 120.47469552 45.61588771 117.8432991 44.71044922 115.12698364 C43.96794922 114.98260864 43.22544922 114.83823364 42.46044922 114.68948364 C40.19780244 114.22666953 37.95098852 113.68711847 35.71044922 113.12698364 C34.39044922 115.76698364 33.07044922 118.40698364 31.71044922 121.12698364 C30.24912705 118.2043393 29.36945676 116.20235218 28.71044922 113.12698364 C28.14455078 113.41057739 27.57865234 113.69417114 26.99560547 113.98635864 C25.4887798 114.73848359 23.97578874 115.47839836 22.45654297 116.20510864 C17.42715412 118.75809791 14.65674949 120.54758954 12.71044922 126.12698364 C17.66044922 125.13698364 17.66044922 125.13698364 22.71044922 124.12698364 C22.71044922 124.78698364 22.71044922 125.44698364 22.71044922 126.12698364 C21.17919922 127.20510864 21.17919922 127.20510864 19.21044922 128.37698364 C17.25140008 129.62594722 17.25140008 129.62594722 15.71044922 131.12698364 C15.46023352 134.21064235 15.46023352 134.21064235 15.71044922 137.12698364 C12.75190609 140.45534466 7.92328667 141.90725042 3.71044922 143.12698364 C2.72044922 143.12698364 1.73044922 143.12698364 0.71044922 143.12698364 C0.71044922 143.78698364 0.71044922 144.44698364 0.71044922 145.12698364 C0.05044922 145.12698364 -0.60955078 145.12698364 -1.28955078 145.12698364 C-1.28955078 146.44698364 -1.28955078 147.76698364 -1.28955078 149.12698364 C3.33044922 149.45698364 7.95044922 149.78698364 12.71044922 150.12698364 C13.71044922 153.12698364 13.71044922 153.12698364 12.77294922 155.31448364 C12.42232422 155.91260864 12.07169922 156.51073364 11.71044922 157.12698364 C12.37044922 157.12698364 13.03044922 157.12698364 13.71044922 157.12698364 C13.05044922 158.77698364 12.39044922 160.42698364 11.71044922 162.12698364 C16.66044922 162.12698364 21.61044922 162.12698364 26.71044922 162.12698364 C27.70044922 159.15698364 27.70044922 159.15698364 28.71044922 156.12698364 C29.66683662 154.43491363 30.65455853 152.75881471 31.71044922 151.12698364 C30.72044922 151.12698364 29.73044922 151.12698364 28.71044922 151.12698364 C28.05044922 152.11698364 27.39044922 153.10698364 26.71044922 154.12698364 C24.32763672 154.41995239 24.32763672 154.41995239 21.58544922 154.31448364 C20.67537109 154.28741333 19.76529297 154.26034302 18.82763672 154.23245239 C18.12896484 154.19764771 17.43029297 154.16284302 16.71044922 154.12698364 C17.37044922 152.47698364 18.03044922 150.82698364 18.71044922 149.12698364 C19.94794922 149.20948364 21.18544922 149.29198364 22.46044922 149.37698364 C25.91141008 149.40651202 25.91141008 149.40651202 28.71044922 147.43948364 C29.37044922 146.67635864 30.03044922 145.91323364 30.71044922 145.12698364 C32.76889328 143.76686775 34.87184763 142.51718939 37.00341797 141.27542114 C38.86631344 140.2256526 38.86631344 140.2256526 39.71044922 138.12698364 C40.37044922 138.12698364 41.03044922 138.12698364 41.71044922 138.12698364 C41.39995196 139.56491756 41.08697162 141.00231544 40.77294922 142.43948364 C40.59892578 143.23999146 40.42490234 144.04049927 40.24560547 144.86526489 C39.71044922 147.12698364 39.71044922 147.12698364 38.71044922 150.12698364 C38.08654297 150.24944458 37.46263672 150.37190552 36.81982422 150.49807739 C34.47506406 150.94909738 34.47506406 150.94909738 33.22607422 153.41213989 C32.80841797 154.32866333 32.39076172 155.24518677 31.96044922 156.18948364 C31.53248047 157.10858521 31.10451172 158.02768677 30.66357422 158.97463989 C30.34904297 159.68491333 30.03451172 160.39518677 29.71044922 161.12698364 C30.70044922 161.45698364 31.69044922 161.78698364 32.71044922 162.12698364 C32.99919922 161.36385864 33.28794922 160.60073364 33.58544922 159.81448364 C34.71044922 157.12698364 34.71044922 157.12698364 36.71044922 154.12698364 C39.33544922 153.93948364 39.33544922 153.93948364 41.71044922 154.12698364 C39.83544922 159.87698364 39.83544922 159.87698364 38.71044922 162.12698364 C41.921063 161.43812568 41.921063 161.43812568 43.08544922 158.56448364 C43.62169922 157.76010864 44.15794922 156.95573364 44.71044922 156.12698364 C47.39794922 155.81448364 47.39794922 155.81448364 49.71044922 156.12698364 C49.38044922 157.77698364 49.05044922 159.42698364 48.71044922 161.12698364 C49.70044922 161.45698364 50.69044922 161.78698364 51.71044922 162.12698364 C51.97857422 161.15760864 52.24669922 160.18823364 52.52294922 159.18948364 C52.91482422 158.17885864 53.30669922 157.16823364 53.71044922 156.12698364 C56.71044922 155.12698364 56.71044922 155.12698364 59.14794922 154.87698364 C62.65529709 153.8504428 63.69704255 152.11237974 65.71044922 149.12698364 C66.41930816 147.8155946 67.10501374 146.48921347 67.71044922 145.12698364 C69.03044922 145.45698364 70.35044922 145.78698364 71.71044922 146.12698364 C73.09347849 143.36092511 73.03707695 140.89289318 73.24560547 137.80667114 C73.33261719 136.54983521 73.41962891 135.29299927 73.50927734 133.99807739 C73.59725982 132.66605221 73.68514924 131.33402087 73.77294922 130.00198364 C73.8643555 128.66211319 73.95614762 127.322269 74.04833984 125.98245239 C74.27284856 122.69753537 74.4933805 119.41239933 74.71044922 116.12698364 C76.64794922 115.56448364 76.64794922 115.56448364 78.71044922 115.12698364 C81.03670728 117.4532417 80.13772212 123.26668947 80.17895508 126.48318481 C80.04556641 135.05781081 77.4111733 142.39783369 74.35546875 150.31692505 C73.55890587 152.55224572 73.0740522 154.78427582 72.71044922 157.12698364 C75.16269616 157.02084528 75.16269616 157.02084528 77.71044922 156.12698364 C79.08511547 153.65062352 79.08511547 153.65062352 79.71044922 151.12698364 C81.71044922 154.12698364 81.71044922 154.12698364 81.71044922 156.12698364 C84.61473852 156.01905543 84.61473852 156.01905543 87.71044922 155.12698364 C89.50013948 152.70025797 89.50013948 152.70025797 90.71044922 150.12698364 C91.37044922 149.79698364 92.03044922 149.46698364 92.71044922 149.12698364 C92.71044922 151.10698364 92.71044922 153.08698364 92.71044922 155.12698364 C95.22128036 153.87156807 95.58170368 152.62634877 96.71044922 150.12698364 C97.37044922 150.12698364 98.03044922 150.12698364 98.71044922 150.12698364 C98.99694336 149.54174927 99.2834375 148.95651489 99.57861328 148.35354614 C100.26975176 146.99392945 100.99369686 145.64960583 101.77197266 144.33792114 C104.89741657 138.86184047 105.20878813 134.34500787 104.96044922 128.12698364 C104.94240234 127.25686646 104.92435547 126.38674927 104.90576172 125.49026489 C104.85913358 123.36868457 104.78740998 121.24768029 104.71044922 119.12698364 C104.59443359 120.35803833 104.47841797 121.58909302 104.35888672 122.85745239 C103.93534907 126.23014955 103.27995183 128.59343891 101.33544922 131.43948364 C100.70509766 132.39274536 100.70509766 132.39274536 100.06201172 133.36526489 C98.72470877 135.10839678 97.27587029 136.58991186 95.71044922 138.12698364 C95.90251555 134.10348632 96.145714 130.08462192 96.39794922 126.06448364 C96.45144531 124.93075317 96.50494141 123.79702271 96.56005859 122.62893677 C97.03041018 115.61456312 97.81448805 111.30873057 102.71044922 106.12698364 C103.37044922 106.12698364 104.03044922 106.12698364 104.71044922 106.12698364 C105.70044922 110.08698364 106.69044922 114.04698364 107.71044922 118.12698364 C108.74169922 117.09573364 109.77294922 116.06448364 110.83544922 115.00198364 C112.59326172 113.24417114 112.59326172 113.24417114 114.71044922 112.12698364 C118.85564672 113.01877912 122.0316108 114.78062374 125.52294922 117.12698364 C131.1391485 120.8068285 136.88903763 124.20786823 142.69604492 127.57424927 C146.80011726 129.96395018 150.78821366 132.44853393 154.71044922 135.12698364 C153.16305139 141.44289315 149.47991953 146.31461872 145.89794922 151.62698364 C140.61065371 159.58857789 135.53006495 167.62352508 130.71044922 175.87698364 C130.17170166 176.7975354 129.6329541 177.71808716 129.07788086 178.66653442 C128.0667278 180.3950201 127.05588357 182.12368649 126.04541016 183.85256958 C113.57296762 205.10225404 97.77800005 214.3153608 74.71044922 222.12698364 C71.55749142 221.91678646 68.84314339 221.4462744 65.81542969 220.59280396 C61.56631022 219.65249777 57.16940223 219.89222209 52.83544922 219.87698364 C51.80274902 219.8708606 50.77004883 219.86473755 49.70605469 219.85842896 C42.63643386 219.90046394 36.58315654 220.64405643 29.84326172 222.86135864 C25.10901128 223.26276641 21.87787862 221.20353202 17.71044922 219.12698364 C16.06897433 218.41245928 14.42303227 217.70811639 12.77294922 217.01370239 C-6.11785372 208.8669632 -15.36335361 199.83284868 -25.41455078 181.81448364 C-31.08643558 171.81007665 -37.03539235 162.05508264 -43.38720703 152.46682739 C-43.85787598 151.75510376 -44.32854492 151.04338013 -44.81347656 150.31008911 C-45.8606706 148.76129502 -46.93492356 147.23064264 -48.02734375 145.71340942 C-48.58695801 144.92305298 -49.14657227 144.13269653 -49.72314453 143.31838989 C-50.49549438 142.25600098 -50.49549438 142.25600098 -51.28344727 141.17214966 C-52.28955078 139.12698364 -52.28955078 139.12698364 -52.11938477 136.99978638 C-50.71603637 133.83265324 -47.75353315 132.40564062 -44.91455078 130.62698364 C-44.26059326 130.20481567 -43.60663574 129.78264771 -42.93286133 129.34768677 C-40.7260464 127.92848669 -38.50804566 126.52784573 -36.28955078 125.12698364 C-34.59515168 124.04425833 -32.90115169 122.96090823 -31.20751953 121.87698364 C-27.91225859 119.77652862 -24.61556255 117.67849051 -21.30908203 115.59573364 C-20.62950439 115.16712036 -19.94992676 114.73850708 -19.24975586 114.29690552 C-17.31749456 113.14366151 -15.30223167 112.13332409 -13.28955078 111.12698364 C-10.97955078 113.10698364 -8.66955078 115.08698364 -6.28955078 117.12698364 C-6.27924332 115.67594742 -6.26893585 114.22491119 -6.25831604 112.72990417 C-6.16076982 99.08830495 -6.05811353 85.4467513 -5.95021152 71.80523014 C-5.89486369 64.79116059 -5.8413792 57.77708596 -5.79223633 50.76296997 C-5.74484974 44.0002643 -5.69233006 37.23761667 -5.63661003 30.47497368 C-5.61615143 27.88847593 -5.5974443 25.30196375 -5.58047676 22.71544075 C-5.55651009 19.10655596 -5.52644531 15.49777164 -5.49487305 11.88894653 C-5.48911758 10.80785614 -5.48336212 9.72676575 -5.47743225 8.61291504 C-5.46764343 7.6354985 -5.45785461 6.65808197 -5.44776917 5.65104675 C-5.44131661 4.79654466 -5.43486406 3.94204256 -5.42821598 3.06164646 C-5.16478572 -0.61374387 -3.20545614 0.00149395 0 0 Z " fill="#C85F34" transform="translate(96.28955078125,36.873016357421875)"/>
<path d="M0 0 C0.66 0 1.32 0 2 0 C2.99 3.96 3.98 7.92 5 12 C6.03125 10.96875 7.0625 9.9375 8.125 8.875 C9.8828125 7.1171875 9.8828125 7.1171875 12 6 C16.1451975 6.89179548 19.32116158 8.65364009 22.8125 11 C28.42869928 14.67984486 34.17858841 18.08088459 39.9855957 21.44726562 C44.08966804 23.83696653 48.07776444 26.32155029 52 29 C50.45260217 35.31590951 46.76947031 40.18763508 43.1875 45.5 C37.9002045 53.46159424 32.81961574 61.49654144 28 69.75 C27.46125244 70.67055176 26.92250488 71.59110352 26.36743164 72.53955078 C25.35627858 74.26803646 24.34543435 75.99670285 23.33496094 77.72558594 C10.86251841 98.9752704 -4.93244917 108.18837716 -28 116 C-31.1529578 115.78980281 -33.86730583 115.31929076 -36.89501953 114.46582031 C-41.144139 113.52551413 -45.54104699 113.76523845 -49.875 113.75 C-50.9077002 113.74387695 -51.94040039 113.73775391 -53.00439453 113.73144531 C-60.07401535 113.7734803 -66.12729267 114.51707279 -72.8671875 116.734375 C-77.60143794 117.13578277 -80.8325706 115.07654837 -85 113 C-86.64147489 112.28547564 -88.28741695 111.58113275 -89.9375 110.88671875 C-108.82830294 102.73997956 -118.07380282 93.70586504 -128.125 75.6875 C-133.7968848 65.68309301 -139.74584157 55.928099 -146.09765625 46.33984375 C-146.5683252 45.62812012 -147.03899414 44.91639648 -147.52392578 44.18310547 C-148.57111982 42.63431138 -149.64537278 41.10365899 -150.73779297 39.58642578 C-151.29740723 38.79606934 -151.85702148 38.00571289 -152.43359375 37.19140625 C-152.94849365 36.48314697 -153.46339355 35.7748877 -153.99389648 35.04516602 C-155 33 -155 33 -154.82983398 30.87280273 C-153.42648559 27.7056696 -150.46398237 26.27865698 -147.625 24.5 C-146.64406372 23.86674805 -146.64406372 23.86674805 -145.64331055 23.22070312 C-143.43649562 21.80150305 -141.21849488 20.40086208 -139 19 C-137.3056009 17.91727469 -135.61160091 16.83392458 -133.91796875 15.75 C-130.62270781 13.64954498 -127.32601177 11.55150686 -124.01953125 9.46875 C-123.00016479 8.82583008 -123.00016479 8.82583008 -121.96020508 8.16992188 C-120.01504307 7.00897825 -118.03865583 5.98588633 -116 5 C-111.24222423 7.84360087 -108.43331824 10.31179215 -107.0234375 15.8046875 C-106.47739405 19.52477443 -106.19323641 23.24638264 -106 27 C-105.67 27 -105.34 27 -105 27 C-104.505 34.92 -104.505 34.92 -104 43 C-97.07 43.495 -97.07 43.495 -90 44 C-89 47 -89 47 -89.9375 49.1875 C-90.288125 49.785625 -90.63875 50.38375 -91 51 C-90.34 51 -89.68 51 -89 51 C-89.66 52.65 -90.32 54.3 -91 56 C-86.05 56 -81.1 56 -76 56 C-75.01 53.03 -75.01 53.03 -74 50 C-73.0436126 48.30792999 -72.05589069 46.63183107 -71 45 C-71.99 45 -72.98 45 -74 45 C-74.66 45.99 -75.32 46.98 -76 48 C-78.3828125 48.29296875 -78.3828125 48.29296875 -81.125 48.1875 C-82.03507812 48.16042969 -82.94515625 48.13335937 -83.8828125 48.10546875 C-84.58148438 48.07066406 -85.28015625 48.03585938 -86 48 C-85.34 46.35 -84.68 44.7 -84 43 C-82.7625 43.0825 -81.525 43.165 -80.25 43.25 C-76.79903914 43.27952837 -76.79903914 43.27952837 -74 41.3125 C-73.34 40.549375 -72.68 39.78625 -72 39 C-69.94155594 37.6398841 -67.83860159 36.39020575 -65.70703125 35.1484375 C-63.84413578 34.09866896 -63.84413578 34.09866896 -63 32 C-62.34 32 -61.68 32 -61 32 C-61.31049726 33.43793392 -61.6234776 34.8753318 -61.9375 36.3125 C-62.11152344 37.11300781 -62.28554687 37.91351563 -62.46484375 38.73828125 C-63 41 -63 41 -64 44 C-64.93585938 44.18369141 -64.93585938 44.18369141 -65.890625 44.37109375 C-68.23538516 44.82211374 -68.23538516 44.82211374 -69.484375 47.28515625 C-69.90203125 48.20167969 -70.3196875 49.11820313 -70.75 50.0625 C-71.17796875 50.98160156 -71.6059375 51.90070313 -72.046875 52.84765625 C-72.51867187 53.91306641 -72.51867187 53.91306641 -73 55 C-71.515 55.495 -71.515 55.495 -70 56 C-69.71125 55.236875 -69.4225 54.47375 -69.125 53.6875 C-68 51 -68 51 -66 48 C-63.375 47.8125 -63.375 47.8125 -61 48 C-62.875 53.75 -62.875 53.75 -64 56 C-60.78938622 55.31114204 -60.78938622 55.31114204 -59.625 52.4375 C-59.08875 51.633125 -58.5525 50.82875 -58 50 C-55.3125 49.6875 -55.3125 49.6875 -53 50 C-53.33 51.65 -53.66 53.3 -54 55 C-52.515 55.495 -52.515 55.495 -51 56 C-50.731875 55.030625 -50.46375 54.06125 -50.1875 53.0625 C-49.5996875 51.5465625 -49.5996875 51.5465625 -49 50 C-46 49 -46 49 -43.5625 48.75 C-40.05515213 47.72345916 -39.01340667 45.9853961 -37 43 C-36.29114106 41.68861096 -35.60543548 40.36222983 -35 39 C-33.02 39.495 -33.02 39.495 -31 40 C-29.61697073 37.23394146 -29.67337227 34.76590954 -29.46484375 31.6796875 C-29.37783203 30.42285156 -29.29082031 29.16601562 -29.20117188 27.87109375 C-29.1131894 26.53906856 -29.02529998 25.20703723 -28.9375 23.875 C-28.84609372 22.53512955 -28.7543016 21.19528536 -28.66210938 19.85546875 C-28.43760066 16.57055173 -28.21706872 13.28541569 -28 10 C-26.0625 9.4375 -26.0625 9.4375 -24 9 C-21.67374194 11.32625806 -22.5727271 17.13970583 -22.53149414 20.35620117 C-22.6648828 28.93082717 -25.29927592 36.27085005 -28.35498047 44.18994141 C-29.15154335 46.42526208 -29.63639702 48.65729218 -30 51 C-27.54775306 50.89386164 -27.54775306 50.89386164 -25 50 C-23.62533375 47.52363988 -23.62533375 47.52363988 -23 45 C-21 48 -21 48 -21 50 C-18.0957107 49.89207179 -18.0957107 49.89207179 -15 49 C-13.21030974 46.57327433 -13.21030974 46.57327433 -12 44 C-11.34 43.67 -10.68 43.34 -10 43 C-10 44.98 -10 46.96 -10 49 C-7.48916886 47.74458443 -7.12874554 46.49936512 -6 44 C-5.34 44 -4.68 44 -4 44 C-3.71350586 43.41476563 -3.42701172 42.82953125 -3.13183594 42.2265625 C-2.44069745 40.86694581 -1.71675236 39.52262219 -0.93847656 38.2109375 C2.18696735 32.73485683 2.49833891 28.21802422 2.25 22 C2.23195312 21.12988281 2.21390625 20.25976562 2.1953125 19.36328125 C2.14868436 17.24170093 2.07696077 15.12069665 2 13 C1.88398438 14.23105469 1.76796875 15.46210938 1.6484375 16.73046875 C1.22489985 20.10316591 0.56950261 22.46645527 -1.375 25.3125 C-1.79523438 25.94800781 -2.21546875 26.58351562 -2.6484375 27.23828125 C-3.98574045 28.98141313 -5.43457893 30.46292822 -7 32 C-6.80793367 27.97650268 -6.56473522 23.95763828 -6.3125 19.9375 C-6.25900391 18.80376953 -6.20550781 17.67003906 -6.15039062 16.50195312 C-5.68003904 9.48757948 -4.89596117 5.18174692 0 0 Z " fill="#C95F35" transform="translate(199,143)"/>
<path d="M0 0 C2 2 2 2 2.1953125 5.6953125 C2.182009 7.17200108 2.15814835 8.64862358 2.125 10.125 C2.11597656 10.87910156 2.10695313 11.63320312 2.09765625 12.41015625 C2.0740687 14.27357254 2.03819719 16.13682593 2 18 C0 15 0 15 0 11 C-4.19156664 15.05184776 -6.19736425 17.66441743 -6.6328125 23.54296875 C-6.75849609 25.15268555 -6.75849609 25.15268555 -6.88671875 26.79492188 C-6.96535156 27.91447266 -7.04398437 29.03402344 -7.125 30.1875 C-7.25455078 31.88422852 -7.25455078 31.88422852 -7.38671875 33.61523438 C-7.59895415 36.40966714 -7.80305481 39.20445481 -8 42 C-7.47599609 41.04287109 -7.47599609 41.04287109 -6.94140625 40.06640625 C-6.48636719 39.24011719 -6.03132813 38.41382813 -5.5625 37.5625 C-5.11003906 36.73878906 -4.65757812 35.91507813 -4.19140625 35.06640625 C-3 33 -3 33 -2 32 C-1.60333773 29.81980521 -1.25684763 27.6303537 -0.9375 25.4375 C-0.76089844 24.23996094 -0.58429688 23.04242188 -0.40234375 21.80859375 C-0.26957031 20.88175781 -0.13679688 19.95492187 0 19 C0.33 19 0.66 19 1 19 C1.14680981 22.81208602 1.23457102 26.6234332 1.3125 30.4375 C1.35439453 31.50677734 1.39628906 32.57605469 1.43945312 33.67773438 C1.57014064 42.22469796 -0.27006818 48.05692922 -6.1875 54.3125 C-6.785625 54.869375 -7.38375 55.42625 -8 56 C-9.23512079 58.13309192 -9.23512079 58.13309192 -10 60 C-10.66 60 -11.32 60 -12 60 C-12.33 58.35 -12.66 56.7 -13 55 C-13.86625 56.4540625 -13.86625 56.4540625 -14.75 57.9375 C-17 61 -17 61 -19.0625 62.0625 C-21 62 -21 62 -22.6875 60.6875 C-24 59 -24 59 -25 57 C-25.66 58.65 -26.32 60.3 -27 62 C-28.65 62 -30.3 62 -32 62 C-31.6671887 56.56408202 -30.3759312 52.22296454 -28.4375 47.125 C-25.25135556 38.47498522 -25.53100953 30.09841506 -26 21 C-27.32 21 -28.64 21 -30 21 C-29.98839844 22.26714844 -29.97679687 23.53429687 -29.96484375 24.83984375 C-29.95545581 26.53906101 -29.94635669 28.23827989 -29.9375 29.9375 C-29.92912109 30.76830078 -29.92074219 31.59910156 -29.91210938 32.45507812 C-29.85441852 47.28162778 -29.85441852 47.28162778 -33 52 C-34.98 51.505 -34.98 51.505 -37 51 C-37.5775 52.093125 -38.155 53.18625 -38.75 54.3125 C-40.46718813 57.28895942 -41.86825615 59.38667741 -45 61 C-47.75 61.1875 -47.75 61.1875 -50 61 C-50.99 62.98 -51.98 64.96 -53 67 C-54.32 66.67 -55.64 66.34 -57 66 C-56.34 64.35 -55.68 62.7 -55 61 C-57.40877257 61.11341534 -57.40877257 61.11341534 -60 62 C-61.0409066 63.64142963 -62.04504326 65.30712215 -63 67 C-63.99 67 -64.98 67 -66 67 C-64.125 61.25 -64.125 61.25 -63 59 C-65.37897003 58.95489639 -65.37897003 58.95489639 -68 60 C-69.67849824 62.2308475 -70.75999263 64.47405906 -72 67 C-73.32 66.67 -74.64 66.34 -76 66 C-74.02 62.37 -72.04 58.74 -70 55 C-68.68 55 -67.36 55 -66 55 C-65.86722656 54.38511719 -65.73445313 53.77023438 -65.59765625 53.13671875 C-65.42105469 52.32847656 -65.24445313 51.52023438 -65.0625 50.6875 C-64.88847656 49.88699219 -64.71445313 49.08648437 -64.53515625 48.26171875 C-64 46 -64 46 -63 43 C-63.66 43 -64.32 43 -65 43 C-65.2784375 43.86625 -65.2784375 43.86625 -65.5625 44.75 C-67.73128715 48.14462336 -70.40994626 49.20497313 -74 51 C-74.66 51 -75.32 51 -76 51 C-76.66 52.32 -77.32 53.64 -78 55 C-80.64 54.67 -83.28 54.34 -86 54 C-86.33 55.32 -86.66 56.64 -87 58 C-85.54257537 58.08096803 -84.08387193 58.13917774 -82.625 58.1875 C-81.40683594 58.23970703 -81.40683594 58.23970703 -80.1640625 58.29296875 C-79.44992188 58.19628906 -78.73578125 58.09960938 -78 58 C-77.34 57.01 -76.68 56.02 -76 55 C-74.68 55.33 -73.36 55.66 -72 56 C-73.98 59.63 -75.96 63.26 -78 67 C-82.95 67 -87.9 67 -93 67 C-92.34 65.35 -91.68 63.7 -91 62 C-91.66 62 -92.32 62 -93 62 C-92.505 59.03 -92.505 59.03 -92 56 C-96.62 55.34 -101.24 54.68 -106 54 C-106 52.68 -106 51.36 -106 50 C-105.34 50 -104.68 50 -104 50 C-104 49.34 -104 48.68 -104 48 C-103.07316406 47.68546875 -102.14632812 47.3709375 -101.19140625 47.046875 C-99.99386719 46.61890625 -98.79632813 46.1909375 -97.5625 45.75 C-96.36753906 45.33234375 -95.17257813 44.9146875 -93.94140625 44.484375 C-90.88752105 43.33543707 -90.88752105 43.33543707 -90.10546875 40.953125 C-90.07066406 40.30859375 -90.03585938 39.6640625 -90 39 C-89.59429097 35.7543278 -89.06442243 35.05946686 -86.5625 32.75 C-84 31 -84 31 -82 31 C-82 30.34 -82 29.68 -82 29 C-82.721875 29.33 -83.44375 29.66 -84.1875 30 C-87.01697427 31.00603529 -89.02895466 31.16977402 -92 31 C-91.52147104 26.69323935 -89.17347304 24.76834883 -86 22 C-80.90729866 18.2772651 -80.90729866 18.2772651 -78 17 C-77.01 17.33 -76.02 17.66 -75 18 C-73.8125 21.5625 -73.8125 21.5625 -73 25 C-71.68 22.36 -70.36 19.72 -69 17 C-60.65327696 19.08668076 -60.65327696 19.08668076 -58.79296875 21.6875 C-57.80150147 23.4251953 -56.89471697 25.21056606 -56 27 C-55.01 26.34 -54.02 25.68 -53 25 C-52.71943824 22.19438238 -52.73289132 20.53421737 -54 18 C-48.61774638 19.54783764 -44.06345609 20.93654391 -40 25 C-40 25.66 -40 26.32 -40 27 C-39.01 27 -38.02 27 -37 27 C-37.33 23.7 -37.66 20.4 -38 17 C-35 18 -35 18 -34 20 C-33.67 19.34 -33.34 18.68 -33 18 C-30.93359375 17.1484375 -30.93359375 17.1484375 -28.4375 16.375 C-27.61121094 16.11460937 -26.78492188 15.85421875 -25.93359375 15.5859375 C-25.29550781 15.39257812 -24.65742188 15.19921875 -24 15 C-23.01 16.32 -22.02 17.64 -21 19 C-19.68 16.03 -18.36 13.06 -17 10 C-12.87384964 11.03153759 -11.1540179 12.28404014 -8 15 C-7.86271484 13.92685547 -7.86271484 13.92685547 -7.72265625 12.83203125 C-6.87165786 9.49703757 -5.46671273 7.45460827 -3.4375 4.6875 C-2.79683594 3.80449219 -2.15617187 2.92148438 -1.49609375 2.01171875 C-1.00238281 1.34785156 -0.50867188 0.68398437 0 0 Z " fill="#8EA0C6" transform="translate(201,132)"/>
<path d="M0 0 C0.66 0 1.32 0 2 0 C2.99 3.96 3.98 7.92 5 12 C6.03125 10.96875 7.0625 9.9375 8.125 8.875 C9.8828125 7.1171875 9.8828125 7.1171875 12 6 C16.1451975 6.89179548 19.32116158 8.65364009 22.8125 11 C28.42869928 14.67984486 34.17858841 18.08088459 39.9855957 21.44726562 C44.08966804 23.83696653 48.07776444 26.32155029 52 29 C50.45260233 35.31590885 46.76948017 40.18763553 43.1875 45.5 C36.72872794 55.22568182 30.67232014 65.1237789 24.8046875 75.21484375 C22.29187979 79.53552035 19.6722756 83.77623838 17 88 C13.5625 86.75 13.5625 86.75 10 85 C9.25 83.125 9.25 83.125 9 81 C8.01810813 79.32260138 7.01866229 77.65532623 6 76 C5.67 75.01 5.34 74.02 5 73 C4.67 72.13375 4.34 71.2675 4 70.375 C1.76876595 62.84458509 1.85943306 55.07473896 1.90234375 47.27734375 C1.9037587 46.29125626 1.90517365 45.30516876 1.90663147 44.28919983 C1.9121823 41.17193432 1.9247254 38.05474342 1.9375 34.9375 C1.94252136 32.81054792 1.94708315 30.6835947 1.95117188 28.55664062 C1.96213558 23.37106546 1.97936575 18.18554533 2 13 C1.85739746 14.26996826 1.71479492 15.53993652 1.56787109 16.84838867 C1.19153944 20.19986652 0.55683017 22.48500311 -1.375 25.3125 C-2.00535156 26.26576172 -2.00535156 26.26576172 -2.6484375 27.23828125 C-3.98574045 28.98141313 -5.43457893 30.46292822 -7 32 C-6.80793367 27.97650268 -6.56473522 23.95763828 -6.3125 19.9375 C-6.25900391 18.80376953 -6.20550781 17.67003906 -6.15039062 16.50195312 C-5.68003904 9.48757948 -4.89596117 5.18174692 0 0 Z " fill="#BD552E" transform="translate(199,143)"/>
<path d="M0 0 C1.30182669 0.88100364 2.59111172 1.78055401 3.875 2.6875 C4.59429687 3.18636719 5.31359375 3.68523437 6.0546875 4.19921875 C9.06807828 6.98872307 9.87705607 9.87571258 10.31884766 13.91577148 C10.35026855 14.97352783 10.38168945 16.03128418 10.4140625 17.12109375 C10.47207031 18.89709961 10.47207031 18.89709961 10.53125 20.70898438 C10.5621875 21.93939453 10.593125 23.16980469 10.625 24.4375 C10.68300781 26.2309082 10.68300781 26.2309082 10.7421875 28.06054688 C11.86787136 65.34882482 11.86787136 65.34882482 3 78 C2.30889392 79.32083103 1.63356698 80.65062418 1 82 C0.34 82 -0.32 82 -1 82 C-1.66 82.66 -2.32 83.32 -3 84 C-3.4964502 83.1495813 -3.4964502 83.1495813 -4.00292969 82.28198242 C-9.93896352 72.13087432 -15.90772604 62.00573335 -22.1875 52.0625 C-22.673396 51.29244629 -23.15929199 50.52239258 -23.65991211 49.72900391 C-26.04409975 45.97996969 -28.47782913 42.27740596 -31.0078125 38.625 C-31.71707886 37.59427368 -31.71707886 37.59427368 -32.44067383 36.54272461 C-33.3298002 35.25927488 -34.2300712 33.98344648 -35.14331055 32.71704102 C-36.71584431 30.45077086 -37.95002572 28.66429224 -38.16015625 25.87109375 C-36.31335106 22.89257629 -33.53284051 21.32202946 -30.625 19.5 C-29.64515137 18.86674805 -29.64515137 18.86674805 -28.64550781 18.22070312 C-26.43865409 16.80031806 -24.22025126 15.39934135 -22 14 C-20.29412118 12.91690234 -18.58839617 11.83356238 -16.8828125 10.75 C-12.87841327 8.21103083 -8.86584459 5.68544626 -4.84667969 3.16992188 C-3.21596659 2.13682072 -1.60620692 1.07080461 0 0 Z " fill="#BD562E" transform="translate(82,148)"/>
<path d="M0 0 C1.1875 3.5625 1.1875 3.5625 2 7 C3.32 4.36 4.64 1.72 6 -1 C14.34672304 1.08668076 14.34672304 1.08668076 16.20703125 3.6875 C17.19849853 5.4251953 18.10528303 7.21056606 19 9 C19.99 8.34 20.98 7.68 22 7 C22.28056176 4.19438238 22.26710868 2.53421737 21 0 C26.38225362 1.54783764 30.93654391 2.93654391 35 7 C35 7.66 35 8.32 35 9 C35.99 9 36.98 9 38 9 C37.67 9.66 37.34 10.32 37 11 C36.01 10.67 35.02 10.34 34 10 C34 12.64 34 15.28 34 18 C34.66 18 35.32 18 36 18 C35.505 20.475 35.505 20.475 35 23 C33.68 23.33 32.36 23.66 31 24 C31.33 22.35 31.66 20.7 32 19 C26.71851499 19.95396869 26.71851499 19.95396869 23.125 23.6875 C21.95077212 27.14494876 21.362825 30.37174997 21 34 C21.66 34 22.32 34 23 34 C23.495 36.97 23.495 36.97 24 40 C21.69 40 19.38 40 17 40 C17.33 39.01 17.66 38.02 18 37 C17.01 36.67 16.02 36.34 15 36 C15.64300189 34.51960029 16.28948499 33.04071218 16.9375 31.5625 C17.29714844 30.73878906 17.65679687 29.91507813 18.02734375 29.06640625 C19 27 19 27 20 26 C20.36760731 23.67182036 20.70241581 21.3381615 21 19 C18.69 19.66 16.38 20.32 14 21 C13.505 23.475 13.505 23.475 13 26 C12.01 25.67 11.02 25.34 10 25 C9.7215625 25.86625 9.7215625 25.86625 9.4375 26.75 C7.26871285 30.14462336 4.59005374 31.20497313 1 33 C0.34 33 -0.32 33 -1 33 C-1.66 34.32 -2.32 35.64 -3 37 C-5.64 36.67 -8.28 36.34 -11 36 C-11.33 37.32 -11.66 38.64 -12 40 C-10.54257537 40.08096803 -9.08387193 40.13917774 -7.625 40.1875 C-6.40683594 40.23970703 -6.40683594 40.23970703 -5.1640625 40.29296875 C-4.44992188 40.19628906 -3.73578125 40.09960938 -3 40 C-2.34 39.01 -1.68 38.02 -1 37 C0.32 37.33 1.64 37.66 3 38 C1.02 41.63 -0.96 45.26 -3 49 C-7.95 49 -12.9 49 -18 49 C-17.34 47.35 -16.68 45.7 -16 44 C-16.66 44 -17.32 44 -18 44 C-17.505 41.03 -17.505 41.03 -17 38 C-21.62 37.34 -26.24 36.68 -31 36 C-31 34.68 -31 33.36 -31 32 C-30.34 32 -29.68 32 -29 32 C-29 31.34 -29 30.68 -29 30 C-28.07316406 29.68546875 -27.14632812 29.3709375 -26.19140625 29.046875 C-24.99386719 28.61890625 -23.79632813 28.1909375 -22.5625 27.75 C-21.36753906 27.33234375 -20.17257813 26.9146875 -18.94140625 26.484375 C-15.88752105 25.33543707 -15.88752105 25.33543707 -15.10546875 22.953125 C-15.07066406 22.30859375 -15.03585938 21.6640625 -15 21 C-14.59429097 17.7543278 -14.06442243 17.05946686 -11.5625 14.75 C-9 13 -9 13 -7 13 C-7 12.34 -7 11.68 -7 11 C-8.0828125 11.495 -8.0828125 11.495 -9.1875 12 C-12.01697427 13.00603529 -14.02895466 13.16977402 -17 13 C-16.52147104 8.69323935 -14.17347304 6.76834883 -11 4 C-3.7967033 -1.26556777 -3.7967033 -1.26556777 0 0 Z " fill="#96A7CB" transform="translate(126,150)"/>
<path d="M0 0 C19.25996533 -1.00545063 19.25996533 -1.00545063 27 5 C32.10502418 9.63177736 36.57131779 15.50794562 39 22 C39 26.75282219 38.14111293 29.46624795 35 33 C34.505 33.99 34.505 33.99 34 35 C27.42230152 34.11454059 27.42230152 34.11454059 25.07373047 33.47753906 C20.84582399 32.50393592 16.44409598 32.76484581 12.125 32.75 C10.58030029 32.74190308 10.58030029 32.74190308 9.00439453 32.73364258 C1.84491616 32.78023476 -4.38597383 33.55460304 -11.2578125 35.63671875 C-14 36 -14 36 -16.8671875 34.76953125 C-17.57101563 34.18558594 -18.27484375 33.60164063 -19 33 C-19 32.01 -19 31.02 -19 30 C-19.66 30 -20.32 30 -21 30 C-20.690625 29.443125 -20.38125 28.88625 -20.0625 28.3125 C-18.93727674 25.86348466 -18.47463077 23.64437145 -18 21 C-17 18 -17 18 -15 16 C-13.04869521 13.24252554 -13.04869521 13.24252554 -12.0859375 11.01171875 C-10.86746727 8.75448074 -9.57411938 7.46797476 -7.625 5.8125 C-7.03976563 5.30332031 -6.45453125 4.79414063 -5.8515625 4.26953125 C-3.88975091 2.92440727 -2.323911 2.42485598 0 2 C0 1.34 0 0.68 0 0 Z " fill="#BA542C" transform="translate(137,224)"/>
<path d="M0 0 C0.99 0.66 1.98 1.32 3 2 C3.99 1.34 4.98 0.68 6 0 C7.2458735 3.84638724 7.1519235 7.69028886 7.125 11.6875 C7.12161621 12.39994873 7.11823242 13.11239746 7.11474609 13.84643555 C6.98086569 27.52870147 6.98086569 27.52870147 4 32 C2.68 31.67 1.36 31.34 0 31 C-0.5775 32.093125 -1.155 33.18625 -1.75 34.3125 C-3.46718813 37.28895942 -4.86825615 39.38667741 -8 41 C-10.75 41.1875 -10.75 41.1875 -13 41 C-13.99 42.98 -14.98 44.96 -16 47 C-17.32 46.67 -18.64 46.34 -20 46 C-19.34 44.35 -18.68 42.7 -18 41 C-20.40877257 41.11341534 -20.40877257 41.11341534 -23 42 C-24.0409066 43.64142963 -25.04504326 45.30712215 -26 47 C-26.99 47 -27.98 47 -29 47 C-27.125 41.25 -27.125 41.25 -26 39 C-28.37897003 38.95489639 -28.37897003 38.95489639 -31 40 C-32.67849824 42.2308475 -33.75999263 44.47405906 -35 47 C-36.32 46.67 -37.64 46.34 -39 46 C-37.02 42.37 -35.04 38.74 -33 35 C-31.68 35 -30.36 35 -29 35 C-28.83564453 34.14728516 -28.83564453 34.14728516 -28.66796875 33.27734375 C-27.62425 28.19451831 -26.65601388 23.4877476 -24 19 C-20.3125 17.5625 -20.3125 17.5625 -17 17 C-16.69900926 22.11684258 -17.11614083 24.78512891 -20 29 C-20.69822617 30.65369357 -21.37498605 32.31727014 -22 34 C-21.34 34.33 -20.68 34.66 -20 35 C-20 35.66 -20 36.32 -20 37 C-18.35 37 -16.7 37 -15 37 C-15 35.35 -15 33.7 -15 32 C-15.66 32 -16.32 32 -17 32 C-17.49687278 25.91330845 -16.69296147 22.73456598 -13 18 C-9.25 17.0625 -9.25 17.0625 -6 17 C-6.495 19.475 -6.495 19.475 -7 22 C-6.01 21.67 -5.02 21.34 -4 21 C-2.78130071 18.49552484 -2.78130071 18.49552484 -2 16 C-2.66 16 -3.32 16 -4 16 C-4 13.36 -4 10.72 -4 8 C-3.01 8 -2.02 8 -1 8 C-0.67 5.36 -0.34 2.72 0 0 Z " fill="#BDD1E0" transform="translate(164,152)"/>
<path d="M0 0 C0 5.28 0 10.56 0 16 C1.13179687 16.20496094 2.26359375 16.40992188 3.4296875 16.62109375 C4.91148761 16.89306972 6.39325685 17.16521387 7.875 17.4375 C8.62136719 17.57220703 9.36773437 17.70691406 10.13671875 17.84570312 C15.7734375 18.88671875 15.7734375 18.88671875 18 20 C18 21.65 18 23.3 18 25 C17.34 25 16.68 25 16 25 C16 25.66 16 26.32 16 27 C14.90945312 26.84015625 13.81890625 26.6803125 12.6953125 26.515625 C-1.16165775 24.79796979 -15.56315821 25.08771331 -29 29 C-28.96132773 20.08604095 -26.27334568 12.70537623 -20.22265625 6.04296875 C-13.73449528 0.20788307 -8.55149262 -0.2280398 0 0 Z " fill="#A84623" transform="translate(152,231)"/>
<path d="M0 0 C5.38225362 1.54783764 9.93654391 2.93654391 14 7 C14 7.66 14 8.32 14 9 C14.99 9 15.98 9 17 9 C16.67 9.66 16.34 10.32 16 11 C15.01 10.67 14.02 10.34 13 10 C13 12.64 13 15.28 13 18 C13.66 18 14.32 18 15 18 C14.505 20.475 14.505 20.475 14 23 C12.68 23.33 11.36 23.66 10 24 C10.33 22.35 10.66 20.7 11 19 C5.71851499 19.95396869 5.71851499 19.95396869 2.125 23.6875 C0.95077212 27.14494876 0.362825 30.37174997 0 34 C0.66 34 1.32 34 2 34 C2.33 35.98 2.66 37.96 3 40 C0.69 40 -1.62 40 -4 40 C-3.67 39.01 -3.34 38.02 -3 37 C-4.485 36.505 -4.485 36.505 -6 36 C-5.35699811 34.51960029 -4.71051501 33.04071218 -4.0625 31.5625 C-3.70285156 30.73878906 -3.34320313 29.91507813 -2.97265625 29.06640625 C-2 27 -2 27 -1 26 C-0.63239269 23.67182036 -0.29758419 21.3381615 0 19 C-2.31 19.66 -4.62 20.32 -7 21 C-7.33 22.65 -7.66 24.3 -8 26 C-8.99 25.67 -9.98 25.34 -11 25 C-11.66 26.32 -12.32 27.64 -13 29 C-13 26.66666667 -13 24.33333333 -13 22 C-14.65 21.67 -16.3 21.34 -18 21 C-18.2475 21.61875 -18.495 22.2375 -18.75 22.875 C-20.20628639 25.35068687 -21.37812506 25.95125002 -24 27 C-24 26.34 -24 25.68 -24 25 C-24.66 24.67 -25.32 24.34 -26 24 C-24.41906946 22.87162591 -22.83515284 21.74743482 -21.25 20.625 C-20.36828125 19.99851563 -19.4865625 19.37203125 -18.578125 18.7265625 C-16 17 -16 17 -13.734375 15.9609375 C-11.64348733 15.05807951 -11.64348733 15.05807951 -11 12 C-12.32 12 -13.64 12 -15 12 C-13.25 8.125 -13.25 8.125 -11 7 C-10.34444881 4.47266765 -10.34444881 4.47266765 -10 2 C-8.68 2 -7.36 2 -6 2 C-4.68 4.31 -3.36 6.62 -2 9 C-1.01 8.34 -0.02 7.68 1 7 C1.28056176 4.19438238 1.26710868 2.53421737 0 0 Z " fill="#95A3C7" transform="translate(147,150)"/>
<path d="M0 0 C0.66 0 1.32 0 2 0 C2.99 3.96 3.98 7.92 5 12 C5.99 11.67 6.98 11.34 8 11 C8.76085017 20.72644935 9.18647228 30.38675053 9.18530273 40.14428711 C9.18751055 42.19730766 9.2058378 44.24980636 9.22460938 46.30273438 C9.25763194 54.38890727 8.65060063 62.07431144 7 70 C6.01 70 5.02 70 4 70 C1.2179286 58.38869411 1.77663388 46.60404538 1.875 34.75 C1.88504933 32.63672299 1.89417173 30.52344136 1.90234375 28.41015625 C1.92420371 23.27332183 1.95862623 18.13671279 2 13 C1.85739746 14.26996826 1.71479492 15.53993652 1.56787109 16.84838867 C1.19153944 20.19986652 0.55683017 22.48500311 -1.375 25.3125 C-2.00535156 26.26576172 -2.00535156 26.26576172 -2.6484375 27.23828125 C-3.98574045 28.98141313 -5.43457893 30.46292822 -7 32 C-6.80793367 27.97650268 -6.56473522 23.95763828 -6.3125 19.9375 C-6.25900391 18.80376953 -6.20550781 17.67003906 -6.15039062 16.50195312 C-5.68003904 9.48757948 -4.89596117 5.18174692 0 0 Z " fill="#76270C" transform="translate(199,143)"/>
<path d="M0 0 C1.1875 3.5625 1.1875 3.5625 2 7 C3.32 4.36 4.64 1.72 6 -1 C10 0 10 0 11 1 C11.375 3.75 11.375 3.75 11 7 C8.5 9.875 8.5 9.875 6 12 C7.32 12 8.64 12 10 12 C9.64537771 14.77687284 9.24613432 15.79131005 7.07421875 17.6328125 C6.28660156 18.12523437 5.49898437 18.61765625 4.6875 19.125 C3.90761719 19.62257812 3.12773437 20.12015625 2.32421875 20.6328125 C0.25120977 21.85222955 -1.83311354 22.95870445 -4 24 C-3.67 24.66 -3.34 25.32 -3 26 C-3.99 27.32 -4.98 28.64 -6 30 C-6.33 28.35 -6.66 26.7 -7 25 C-7.639375 25.185625 -8.27875 25.37125 -8.9375 25.5625 C-9.618125 25.706875 -10.29875 25.85125 -11 26 C-12 25 -12 25 -12.25 21.1875 C-12.2187153 18.28323678 -12.05995888 17.10901615 -10.625 14.5 C-9 13 -9 13 -7 13 C-7 12.34 -7 11.68 -7 11 C-8.0828125 11.495 -8.0828125 11.495 -9.1875 12 C-12.01697427 13.00603529 -14.02895466 13.16977402 -17 13 C-16.52147104 8.69323935 -14.17347304 6.76834883 -11 4 C-3.7967033 -1.26556777 -3.7967033 -1.26556777 0 0 Z " fill="#9797B3" transform="translate(126,150)"/>
<path d="M0 0 C2 2 2 2 2.1953125 5.6953125 C2.182009 7.17200108 2.15814835 8.64862358 2.125 10.125 C2.11597656 10.87910156 2.10695312 11.63320312 2.09765625 12.41015625 C2.0740687 14.27357254 2.03819719 16.13682593 2 18 C0 15 0 15 0 11 C-4.00697321 14.87340743 -6.17704882 17.47353185 -6.6328125 23.10546875 C-6.71660156 24.08837891 -6.80039063 25.07128906 -6.88671875 26.08398438 C-7.00466797 27.62022461 -7.00466797 27.62022461 -7.125 29.1875 C-7.21136719 30.22326172 -7.29773438 31.25902344 -7.38671875 32.32617188 C-7.59885449 34.88358608 -7.80296419 37.44138541 -8 40 C-8.33 40 -8.66 40 -9 40 C-9.495 35.05 -9.495 35.05 -10 30 C-12.27733832 33.41600748 -12.62779248 35.96091086 -13.2421875 39.94140625 C-14 42 -14 42 -18 44 C-18 36.41 -18 28.82 -18 21 C-19.98 21.99 -19.98 21.99 -22 23 C-22.33 22.34 -22.66 21.68 -23 21 C-25.31 21 -27.62 21 -30 21 C-30.33 21.99 -30.66 22.98 -31 24 C-31.33 23.01 -31.66 22.02 -32 21 C-32.99 21.66 -33.98 22.32 -35 23 C-35.99 23 -36.98 23 -38 23 C-38 21.02 -38 19.04 -38 17 C-35 18 -35 18 -34 20 C-33.67 19.34 -33.34 18.68 -33 18 C-30.93359375 17.1484375 -30.93359375 17.1484375 -28.4375 16.375 C-27.61121094 16.11460937 -26.78492188 15.85421875 -25.93359375 15.5859375 C-25.29550781 15.39257812 -24.65742188 15.19921875 -24 15 C-23.01 16.32 -22.02 17.64 -21 19 C-19.02 14.545 -19.02 14.545 -17 10 C-12.87384964 11.03153759 -11.1540179 12.28404014 -8 15 C-7.90847656 14.28457031 -7.81695312 13.56914062 -7.72265625 12.83203125 C-6.87165786 9.49703757 -5.46671273 7.45460827 -3.4375 4.6875 C-2.47650391 3.36298828 -2.47650391 3.36298828 -1.49609375 2.01171875 C-1.00238281 1.34785156 -0.50867188 0.68398437 0 0 Z " fill="#93A1C9" transform="translate(201,132)"/>
<path d="M0 0 C0.8971875 0.5259375 0.8971875 0.5259375 1.8125 1.0625 C4.10813214 2.33304698 4.10813214 2.33304698 7 1 C7.33 8.26 7.66 15.52 8 23 C8.99 22.67 9.98 22.34 11 22 C11.04898438 21.39671875 11.09796875 20.7934375 11.1484375 20.171875 C11.22320312 19.37265625 11.29796875 18.5734375 11.375 17.75 C11.44460937 16.96109375 11.51421875 16.1721875 11.5859375 15.359375 C12.01507113 12.914123 12.78600638 11.15163097 14 9 C14.66 9.33 15.32 9.66 16 10 C16.43995881 18.59141782 16.46309065 25.46853452 12 33 C4.25 33.125 4.25 33.125 2 32 C1.34 31.01 0.68 30.02 0 29 C-0.33 28.67 -0.66 28.34 -1 28 C-1.01679563 25.92545653 -0.96256686 23.85026768 -0.87890625 21.77734375 C-0.83056641 20.51728516 -0.78222656 19.25722656 -0.73242188 17.95898438 C-0.67589183 16.61848492 -0.61924973 15.27799018 -0.5625 13.9375 C-0.50929396 12.59311754 -0.45655347 11.24871657 -0.40429688 9.90429688 C-0.27412455 6.60265343 -0.13914389 3.30127557 0 0 Z " fill="#C3D7E6" transform="translate(176,152)"/>
<path d="M0 0 C1.9375 0.75 1.9375 0.75 4 2 C5.17182289 5.27358938 5.19741534 8.57296253 5.31640625 12.0234375 C5.35830078 13.21066406 5.40019531 14.39789063 5.44335938 15.62109375 C5.48267578 16.85988281 5.52199219 18.09867188 5.5625 19.375 C5.60568359 20.57511719 5.64886719 21.77523437 5.69335938 23.01171875 C6.52788423 47.67656439 6.52788423 47.67656439 4 60 C3.34 60 2.68 60 2 60 C-3.53939749 40.90886224 -1.72850299 19.59998928 0 0 Z " fill="#6C1E07" transform="translate(87,153)"/>
<path d="M0 0 C0.30099074 5.11684258 -0.11614083 7.78512891 -3 12 C-3.69822617 13.65369357 -4.37498605 15.31727014 -5 17 C-4.34 17.33 -3.68 17.66 -3 18 C-3 18.66 -3 19.32 -3 20 C-0.36 20.33 2.28 20.66 5 21 C3.02 25.455 3.02 25.455 1 30 C-0.32 29.67 -1.64 29.34 -3 29 C-2.34 27.35 -1.68 25.7 -1 24 C-3.40877257 24.11341534 -3.40877257 24.11341534 -6 25 C-7.0409066 26.64142963 -8.04504326 28.30712215 -9 30 C-9.99 30 -10.98 30 -12 30 C-10.125 24.25 -10.125 24.25 -9 22 C-11.37897003 21.95489639 -11.37897003 21.95489639 -14 23 C-15.67849824 25.2308475 -16.75999263 27.47405906 -18 30 C-19.32 29.67 -20.64 29.34 -22 29 C-20.02 25.37 -18.04 21.74 -16 18 C-14.68 18 -13.36 18 -12 18 C-11.89042969 17.43152344 -11.78085938 16.86304688 -11.66796875 16.27734375 C-10.62336946 11.19023013 -9.51638781 6.56677788 -7 2 C-4.46801416 0.5796177 -2.88259301 0 0 0 Z " fill="#70DBAF" transform="translate(147,169)"/>
<path d="M0 0 C0.66 0.33 1.32 0.66 2 1 C2 1.66 2 2.32 2 3 C2.9590625 2.7215625 2.9590625 2.7215625 3.9375 2.4375 C9.37188833 1.66115881 14.39240177 1.92826785 19 5 C20.1875 8.625 20.1875 8.625 21 12 C21.639375 12.12375 22.27875 12.2475 22.9375 12.375 C23.618125 12.58125 24.29875 12.7875 25 13 C25.33 13.66 25.66 14.32 26 15 C26.78375 15.433125 27.5675 15.86625 28.375 16.3125 C31.3204503 18.20600376 32.41904675 19.92130157 34 23 C29.47362373 21.3896546 25.57464567 19.05973334 21.5 16.5625 C20.84902344 16.16740234 20.19804687 15.77230469 19.52734375 15.36523438 C18.88925781 14.97787109 18.25117188 14.59050781 17.59375 14.19140625 C16.97894775 13.81846436 16.36414551 13.44552246 15.73071289 13.0612793 C14.19347486 12.11863947 12.67169 11.15090198 11.15234375 10.1796875 C9.09798629 8.72433274 9.09798629 8.72433274 7.0625 9.5625 C6.381875 10.036875 5.70125 10.51125 5 11 C3.9275 11.70125 2.855 12.4025 1.75 13.125 C0.8425 13.74375 -0.065 14.3625 -1 15 C-1.02693575 12.87506859 -1.04636628 10.75004088 -1.0625 8.625 C-1.07410156 7.44164062 -1.08570313 6.25828125 -1.09765625 5.0390625 C-1 2 -1 2 0 0 Z " fill="#CDC9C6" transform="translate(204,141)"/>
<path d="M0 0 C7.58911118 3.19541523 12.5892422 7.47982912 16.5 14.8125 C17 17 17 17 16 20 C10.39 19.01 4.78 18.02 -1 17 C-1.020625 14.380625 -1.04125 11.76125 -1.0625 9.0625 C-1.071604 8.2362915 -1.08070801 7.41008301 -1.09008789 6.55883789 C-1.09723945 4.70566241 -1.0502852 2.85250692 -1 1 C-0.67 0.67 -0.34 0.34 0 0 Z " fill="#B24D27" transform="translate(152,231)"/>
<path d="M0 0 C5.38225362 1.54783764 9.93654391 2.93654391 14 7 C14 7.66 14 8.32 14 9 C14.99 9 15.98 9 17 9 C16.67 9.66 16.34 10.32 16 11 C15.01 10.67 14.02 10.34 13 10 C13 12.64 13 15.28 13 18 C13.66 18 14.32 18 15 18 C14.67 19.65 14.34 21.3 14 23 C12.68 23.33 11.36 23.66 10 24 C10.33 22.35 10.66 20.7 11 19 C9.02 19.33 7.04 19.66 5 20 C5.66 19.01 6.32 18.02 7 17 C7.66 17 8.32 17 9 17 C10.03321725 13.71249056 10.20141923 12.42202124 8.6875 9.25 C7.19565595 6.91148898 7.19565595 6.91148898 5 6 C5.061875 7.216875 5.12375 8.43375 5.1875 9.6875 C5.20822824 13.57750046 4.37275814 15.83632249 2 19 C0.35 18.67 -1.3 18.34 -3 18 C-3.35347628 12.60948668 -3.35347628 12.60948668 -3 10 C-1 8.3125 -1 8.3125 1 7 C1.34791629 4.14708645 1.2872642 2.5745284 0 0 Z " fill="#9AA2C4" transform="translate(147,150)"/>
<path d="M0 0 C0.99 0.33 1.98 0.66 3 1 C3.84737273 14.27550618 1.9043593 24.6515239 -3 37 C-3.33 36.34 -3.66 35.68 -4 35 C-6.64 35.66 -9.28 36.32 -12 37 C-11.01 34.03 -11.01 34.03 -10 31 C-8.33333333 31 -6.66666667 31 -5 31 C-3.61797288 28.23594575 -3.71083958 25.80080636 -3.53515625 22.71484375 C-3.41817383 20.83635742 -3.41817383 20.83635742 -3.29882812 18.91992188 C-3.18031981 16.92290992 -3.06185226 14.92588717 -2.95043945 12.9284668 C-2.84124923 11.00259756 -2.71964872 9.07744444 -2.59765625 7.15234375 C-2.53070557 5.99726318 -2.46375488 4.84218262 -2.39477539 3.65209961 C-2.26449951 2.77690674 -2.13422363 1.90171387 -2 1 C-1.34 0.67 -0.68 0.34 0 0 Z " fill="#BF6544" transform="translate(173,152)"/>
<path d="M0 0 C0.66 0 1.32 0 2 0 C3.5912689 4.873261 4.21192221 8.80790596 4 14 C3.34 13.67 2.68 13.34 2 13 C1.938125 14.155 1.87625 15.31 1.8125 16.5 C1.0285416 22.89664604 -2.50176145 27.58322317 -7 32 C-6.80793367 27.97650268 -6.56473522 23.95763828 -6.3125 19.9375 C-6.25900391 18.80376953 -6.20550781 17.67003906 -6.15039062 16.50195312 C-5.68003904 9.48757948 -4.89596117 5.18174692 0 0 Z " fill="#C25E39" transform="translate(199,143)"/>
<path d="M0 0 C1.32 0 2.64 0 4 0 C4 0.66 4 1.32 4 2 C3.34 2 2.68 2 2 2 C2 6.29 2 10.58 2 15 C2.66 15 3.32 15 4 15 C3.4140625 21.15234375 3.4140625 21.15234375 3 23 C2.34 23.33 1.68 23.66 1 24 C0.34 23.67 -0.32 23.34 -1 23 C-1.66 24.32 -2.32 25.64 -3 27 C-3 24.66666667 -3 22.33333333 -3 20 C-4.65 19.67 -6.3 19.34 -8 19 C-8.2475 19.61875 -8.495 20.2375 -8.75 20.875 C-10.20628639 23.35068687 -11.37812506 23.95125002 -14 25 C-14 24.34 -14 23.68 -14 23 C-14.66 22.67 -15.32 22.34 -16 22 C-14.41906946 20.87162591 -12.83515284 19.74743482 -11.25 18.625 C-10.36828125 17.99851563 -9.4865625 17.37203125 -8.578125 16.7265625 C-6 15 -6 15 -3.734375 13.9609375 C-1.64348733 13.05807951 -1.64348733 13.05807951 -1 10 C-2.32 10 -3.64 10 -5 10 C-3.25 6.125 -3.25 6.125 -1 5 C-0.34444881 2.47266765 -0.34444881 2.47266765 0 0 Z " fill="#8B96B9" transform="translate(137,152)"/>
<path d="M0 0 C2.0625 0.4375 2.0625 0.4375 4 1 C3.67 1.66 3.34 2.32 3 3 C4.45742463 3.08096803 5.91612807 3.13917774 7.375 3.1875 C8.59316406 3.23970703 8.59316406 3.23970703 9.8359375 3.29296875 C10.55007812 3.19628906 11.26421875 3.09960938 12 3 C12.66 2.01 13.32 1.02 14 0 C15.32 0.33 16.64 0.66 18 1 C16.02 4.63 14.04 8.26 12 12 C7.05 12 2.1 12 -3 12 C-2.34 10.35 -1.68 8.7 -1 7 C-1.66 7 -2.32 7 -3 7 C-1.125 1.125 -1.125 1.125 0 0 Z " fill="#6CDBB1" transform="translate(111,187)"/>
<path d="M0 0 C0 1.32 0 2.64 0 4 C-1.65 4 -3.3 4 -5 4 C-5 4.99 -5 5.98 -5 7 C-4.34 7 -3.68 7 -3 7 C-3 6.34 -3 5.68 -3 5 C-2.34 5.33 -1.68 5.66 -1 6 C-0.67 5.67 -0.34 5.34 0 5 C2.0625 5.4375 2.0625 5.4375 4 6 C4 6.66 4 7.32 4 8 C-0.95 8.33 -5.9 8.66 -11 9 C-11 9.66 -11 10.32 -11 11 C-9.35 11 -7.7 11 -6 11 C-6.33 12.65 -6.66 14.3 -7 16 C-10.63 16 -14.26 16 -18 16 C-18 15.34 -18 14.68 -18 14 C-18.66 13.67 -19.32 13.34 -20 13 C-20 9 -20 9 -18 7 C-17.67 6.01 -17.34 5.02 -17 4 C-14.69 4.33 -12.38 4.66 -10 5 C-10 5.66 -10 6.32 -10 7 C-8.68 7 -7.36 7 -6 7 C-6.57344937 4.13275314 -6.8614515 3.1385485 -9 1 C-5.94152152 0.45627049 -3.11227195 0 0 0 Z " fill="#D07756" transform="translate(136,90)"/>
<path d="M0 0 C2.64 0 5.28 0 8 0 C7.67 0.66 7.34 1.32 7 2 C3.9375 2.625 3.9375 2.625 1 3 C0.67 2.01 0.34 1.02 0 0 Z M0 3 C0.33 3.66 0.66 4.32 1 5 C2.2375 4.95875 3.475 4.9175 4.75 4.875 C10.56816316 4.875 16.35582101 5.57354603 22 7 C22.66 7.66 23.32 8.32 24 9 C19.62426048 9.59332061 15.42471556 10.13827236 11 10 C13.475 10.495 13.475 10.495 16 11 C16 11.66 16 12.32 16 13 C11.05 13 6.1 13 1 13 C1 12.34 1 11.68 1 11 C1.99 10.67 2.98 10.34 4 10 C0.04 9.67 -3.92 9.34 -8 9 C-6 7 -6 7 -3.375 6.875 C-2.59125 6.91625 -1.8075 6.9575 -1 7 C-0.67 5.68 -0.34 4.36 0 3 Z " fill="#C4613A" transform="translate(140,243)"/>
<path d="M0 0 C0.33 0 0.66 0 1 0 C1.14680981 3.81208602 1.23457102 7.6234332 1.3125 11.4375 C1.3753418 13.04141602 1.3753418 13.04141602 1.43945312 14.67773438 C1.55188818 22.03098714 0.41872039 27.04506736 -4 33 C-4.66 33.66 -5.32 34.32 -6 35 C-6.99 35 -7.98 35 -9 35 C-10.15837626 30.94568308 -9.83691257 28.78187881 -8 25 C-7.34 25 -6.68 25 -6 25 C-5.81824219 23.95199219 -5.81824219 23.95199219 -5.6328125 22.8828125 C-5.46523437 21.97273438 -5.29765625 21.06265625 -5.125 20.125 C-4.96257812 19.22007812 -4.80015625 18.31515625 -4.6328125 17.3828125 C-4 15 -4 15 -2 13 C-1.54337847 10.80708918 -1.179588 8.59414111 -0.875 6.375 C-0.70742187 5.18648437 -0.53984375 3.99796875 -0.3671875 2.7734375 C-0.24601563 1.85820312 -0.12484375 0.94296875 0 0 Z " fill="#B7CADA" transform="translate(201,151)"/>
<path d="M0 0 C0.66 0.33 1.32 0.66 2 1 C2.43995881 9.59141782 2.46309065 16.46853452 -2 24 C-4.64 24 -7.28 24 -10 24 C-9.67 23.34 -9.34 22.68 -9 22 C-8.76827173 19.45384991 -8.58105471 16.92603775 -8.4375 14.375 C-8.39431641 13.66859375 -8.35113281 12.9621875 -8.30664062 12.234375 C-8.20055249 10.48981463 -8.09977111 8.74493303 -8 7 C-7.67 7 -7.34 7 -7 7 C-6.67 9.31 -6.34 11.62 -6 14 C-5.01 13.67 -4.02 13.34 -3 13 C-2.95101562 12.39671875 -2.90203125 11.7934375 -2.8515625 11.171875 C-2.73941406 9.97304687 -2.73941406 9.97304687 -2.625 8.75 C-2.55539063 7.96109375 -2.48578125 7.1721875 -2.4140625 6.359375 C-1.98492887 3.914123 -1.21399362 2.15163097 0 0 Z " fill="#BBD0E0" transform="translate(190,161)"/>
<path d="M0 0 C2.14907614 3.22361421 2.21426255 4.21233562 1.5390625 7.89453125 C0.14522429 13.33858047 -1.21989814 18.51658178 -5.625 22.1875 C-6.40875 22.455625 -7.1925 22.72375 -8 23 C-8.66 22.67 -9.32 22.34 -10 22 C-10.36521739 14.69565217 -10.36521739 14.69565217 -8.6875 11.5 C-7 10 -7 10 -4 10 C-3.896875 9.0925 -3.79375 8.185 -3.6875 7.25 C-2.99585051 3.98038425 -2.17865079 2.46282263 0 0 Z " fill="#BCCEDE" transform="translate(124,153)"/>
<path d="M0 0 C2 2 2 2 2.1953125 5.6953125 C2.182009 7.17200108 2.15814835 8.64862358 2.125 10.125 C2.11597656 10.87910156 2.10695312 11.63320312 2.09765625 12.41015625 C2.0740687 14.27357254 2.03819719 16.13682593 2 18 C0 15 0 15 0 11 C-4.4484637 15.30018158 -6.222924 17.95532196 -6.625 24.1875 C-6.69976562 25.27417969 -6.77453125 26.36085937 -6.8515625 27.48046875 C-6.90054688 28.31191406 -6.94953125 29.14335937 -7 30 C-7.33 30 -7.66 30 -8 30 C-8 25.71 -8 21.42 -8 17 C-9.32 16.34 -10.64 15.68 -12 15 C-15.80434783 12.39130435 -15.80434783 12.39130435 -17 10 C-13.12867972 10.57352893 -10.91827204 12.48704352 -8 15 C-7.90847656 14.28457031 -7.81695312 13.56914062 -7.72265625 12.83203125 C-6.87165786 9.49703757 -5.46671273 7.45460827 -3.4375 4.6875 C-2.79683594 3.80449219 -2.15617188 2.92148438 -1.49609375 2.01171875 C-1.00238281 1.34785156 -0.50867188 0.68398437 0 0 Z " fill="#8988A4" transform="translate(201,132)"/>
<path d="M0 0 C1 1 1 1 1.09765625 3.72265625 C1.08605469 4.82480469 1.07445312 5.92695313 1.0625 7.0625 C1.05347656 8.16722656 1.04445312 9.27195313 1.03515625 10.41015625 C1.02355469 11.26480469 1.01195312 12.11945313 1 13 C-2.63 13 -6.26 13 -10 13 C-10 9.04 -10 5.08 -10 1 C-6.74696956 -0.62651522 -3.60774398 -0.11453156 0 0 Z M-9 8 C-8.67 8.99 -8.34 9.98 -8 11 C-4.535 10.505 -4.535 10.505 -1 10 C-1 9.34 -1 8.68 -1 8 C-3.64 8 -6.28 8 -9 8 Z " fill="#171212" transform="translate(149,235)"/>
<path d="M0 0 C6.16529701 0.31616908 10.17268433 3.49215061 15 7 C13.90931332 10.77545388 13.0916909 13.47043472 10 16 C5.11453114 11.61560487 5.11453114 11.61560487 4.5 8.3125 C4.2525 7.1678125 4.2525 7.1678125 4 6 C1.52363988 4.62533375 1.52363988 4.62533375 -1 4 C-0.67 2.68 -0.34 1.36 0 0 Z " fill="#C96036" transform="translate(236,165)"/>
<path d="M0 0 C0.33 0 0.66 0 1 0 C1.3667694 3.70719912 1.71616284 7.41584073 2.0625 11.125 C2.16626953 12.17171875 2.27003906 13.2184375 2.37695312 14.296875 C2.84635583 19.41174583 3.17647025 23.94523472 2 29 C1.83201738 31.70886941 1.83201738 31.70886941 2 34 C2.33 34.33 2.66 34.66 3 35 C3.26218917 36.95185273 3.46028318 38.91251673 3.625 40.875 C3.72039062 41.94492188 3.81578125 43.01484375 3.9140625 44.1171875 C4 47 4 47 3 50 C3.32670903 52.00109278 3.65977214 54.00116131 4 56 C3.67 56.66 3.34 57.32 3 58 C2.34 58 1.68 58 1 58 C0.13298788 50.81629059 -0.13504331 43.75507995 -0.09765625 36.5234375 C-0.0962413 35.47217682 -0.09482635 34.42091614 -0.09336853 33.33779907 C-0.08782087 30.01683572 -0.07527842 26.69594259 -0.0625 23.375 C-0.05747823 21.1080739 -0.05291651 18.84114673 -0.04882812 16.57421875 C-0.03786865 11.04945566 -0.02118357 5.52473285 0 0 Z " fill="#DB7341" transform="translate(91,111)"/>
<path d="M0 0 C0 1.98 0 3.96 0 6 C-0.66 5.34 -1.32 4.68 -2 4 C-3.32 6.97 -4.64 9.94 -6 13 C-6.33 12.34 -6.66 11.68 -7 11 C-8.0828125 11.495 -8.0828125 11.495 -9.1875 12 C-12.01697427 13.00603529 -14.02895466 13.16977402 -17 13 C-16.52147104 8.69323935 -14.17347304 6.76834883 -11 4 C-3.7967033 -1.26556777 -3.7967033 -1.26556777 0 0 Z " fill="#BDC8D5" transform="translate(126,150)"/>
<path d="M0 0 C0.30117104 5.11990769 -0.08967161 7.79619232 -3 12 C-4.0150089 13.99242489 -5.01873444 15.99074195 -6 18 C-7.65 18 -9.3 18 -11 18 C-10.71515154 16.26969709 -10.42180062 14.54079286 -10.125 12.8125 C-9.96257812 11.84957031 -9.80015625 10.88664063 -9.6328125 9.89453125 C-9.01232914 7.05639438 -8.27698271 4.60908697 -7 2 C-4.52858057 0.7025048 -2.79207427 0 0 0 Z " fill="#BFD2E2" transform="translate(147,169)"/>
<path d="M0 0 C0.73605469 0.05671875 1.47210938 0.1134375 2.23046875 0.171875 C4.02952468 0.31206118 5.82741939 0.46701786 7.625 0.625 C6.965 1.285 6.305 1.945 5.625 2.625 C4.635 2.625 3.645 2.625 2.625 2.625 C2.625 3.285 2.625 3.945 2.625 4.625 C-3.315 5.945 -9.255 7.265 -15.375 8.625 C-15.045 6.315 -14.715 4.005 -14.375 1.625 C-9.29127302 -0.47584617 -5.34122593 -0.48293182 0 0 Z " fill="#B34F2A" transform="translate(138.375,251.375)"/>
<path d="M0 0 C0.99 0.33 1.98 0.66 3 1 C2.45819263 5.12945075 1.20641582 7.50416914 -1.375 10.75 C-1.98085938 11.52859375 -2.58671875 12.3071875 -3.2109375 13.109375 C-5 15 -5 15 -8 16 C-11.03438975 11.63047876 -11.03438975 11.63047876 -10.89453125 9.06640625 C-9.61873601 6.11926353 -7.7492962 4.99408072 -5.125 3.1875 C-4.24070312 2.56230469 -3.35640625 1.93710938 -2.4453125 1.29296875 C-1.63835938 0.86628906 -0.83140625 0.43960938 0 0 Z " fill="#CA6137" transform="translate(55,165)"/>
<path d="M0 0 C0.33 0 0.66 0 1 0 C1.18175781 0.91523438 1.36351562 1.83046875 1.55078125 2.7734375 C1.80214844 3.96195313 2.05351562 5.15046875 2.3125 6.375 C2.55613281 7.55835938 2.79976562 8.74171875 3.05078125 9.9609375 C3.73763609 13.27925004 3.73763609 13.27925004 7 15 C6.34 19.95 5.68 24.9 5 30 C4.01 30 3.02 30 2 30 C-0.2054634 19.95726488 -0.20430975 10.21548751 0 0 Z " fill="#953A19" transform="translate(201,183)"/>
<path d="M0 0 C0.33 0 0.66 0 1 0 C1.33 1.98 1.66 3.96 2 6 C2.66 5.67 3.32 5.34 4 5 C4 6.65 4 8.3 4 10 C6.97 10.33 9.94 10.66 13 11 C8.8204355 13.78637633 6.85331323 12.79562512 2 12 C1.855625 13.134375 1.71125 14.26875 1.5625 15.4375 C1 19 1 19 0 20 C-1.66617115 20.04063832 -3.33388095 20.042721 -5 20 C-4.45484328 12.91296261 -2.39081395 6.67203894 0 0 Z " fill="#96A5CA" transform="translate(174,174)"/>
<path d="M0 0 C0.66 0.33 1.32 0.66 2 1 C2.4928871 15.64969986 2.4928871 15.64969986 0 21 C-2.078125 22.24609375 -2.078125 22.24609375 -4 23 C-4.44219653 6.6632948 -4.44219653 6.6632948 0 0 Z " fill="#C4633F" transform="translate(187,153)"/>
<path d="M0 0 C6.93 0 13.86 0 21 0 C21 0.66 21 1.32 21 2 C24.465 1.505 24.465 1.505 28 1 C28.33 1.66 28.66 2.32 29 3 C27.35 3.66 25.7 4.32 24 5 C24 4.34 24 3.68 24 3 C18.06 3 12.12 3 6 3 C6 3.66 6 4.32 6 5 C4.02 5.66 2.04 6.32 0 7 C0 4.69 0 2.38 0 0 Z " fill="#BF5830" transform="translate(92,38)"/>
<path d="M0 0 C1.32 0.66 2.64 1.32 4 2 C3.69475674 5.64647953 3.37959487 9.29203348 3.0625 12.9375 C2.97548828 13.97841797 2.88847656 15.01933594 2.79882812 16.09179688 C2.66831055 17.57583008 2.66831055 17.57583008 2.53515625 19.08984375 C2.456604 20.00628662 2.37805176 20.92272949 2.29711914 21.86694336 C2 24 2 24 1 25 C0.84344973 26.48638992 0.74933057 27.97949127 0.68359375 29.47265625 C0.64169922 30.37177734 0.59980469 31.27089844 0.55664062 32.19726562 C0.51732422 33.14279297 0.47800781 34.08832031 0.4375 35.0625 C0.39431641 36.01189453 0.35113281 36.96128906 0.30664062 37.93945312 C0.20020724 40.29281353 0.09818992 42.64628354 0 45 C-0.33 45 -0.66 45 -1 45 C-1.20638953 13.67959553 -1.20638953 13.67959553 0 0 Z " fill="#852F13" transform="translate(87,153)"/>
<path d="M0 0 C-0.78246094 0.33773437 -1.56492187 0.67546875 -2.37109375 1.0234375 C-3.38300781 1.46945313 -4.39492187 1.91546875 -5.4375 2.375 C-6.44683594 2.81585938 -7.45617187 3.25671875 -8.49609375 3.7109375 C-11.12143547 4.75076286 -11.12143547 4.75076286 -12 7 C-11.13048706 6.98428955 -11.13048706 6.98428955 -10.2434082 6.96826172 C-7.59981679 6.92651385 -4.95629495 6.90061462 -2.3125 6.875 C-1.40048828 6.85824219 -0.48847656 6.84148437 0.45117188 6.82421875 C5.06848227 6.79063831 8.81932331 6.76443815 13 9 C13 9.33 13 9.66 13 10 C11.11197917 9.96744792 9.22395833 9.93489583 7.3359375 9.90234375 C4.90448011 9.94354802 4.90448011 9.94354802 2.1875 10.5625 C-1.55621096 11.07634268 -4.65004824 10.65989792 -8.375 10.0625 C-9.62023437 9.86785156 -10.86546875 9.67320312 -12.1484375 9.47265625 C-13.08945313 9.31667969 -14.03046875 9.16070312 -15 9 C-15 7.68 -15 6.36 -15 5 C-14.34 5 -13.68 5 -13 5 C-13 4.34 -13 3.68 -13 3 C-11.21189234 2.30329584 -9.41937948 1.61788811 -7.625 0.9375 C-6.62726563 0.55464844 -5.62953125 0.17179688 -4.6015625 -0.22265625 C-2 -1 -2 -1 0 0 Z " fill="#9F7A7E" transform="translate(110,177)"/>
<path d="M0 0 C0.66 0.33 1.32 0.66 2 1 C1.34 2.32 0.68 3.64 0 5 C3.3 4.34 6.6 3.68 10 3 C10 3.66 10 4.32 10 5 C8.46875 6.078125 8.46875 6.078125 6.5 7.25 C4.55167723 8.49141604 4.55167723 8.49141604 3 10 C2.4136018 13.21276343 2.4136018 13.21276343 3 16 C2.67 15.34 2.34 14.68 2 14 C0.68 14 -0.64 14 -2 14 C-3.125 9.25 -3.125 9.25 -2 7 C-2.66 7 -3.32 7 -4 7 C-4 5.35 -4 3.7 -4 2 C-2.125 0.9375 -2.125 0.9375 0 0 Z " fill="#C06E54" transform="translate(109,158)"/>
<path d="M0 0 C1.65 0 3.3 0 5 0 C4.34978666 10.29130762 4.34978666 10.29130762 1 14 C-1.6875 14.3125 -1.6875 14.3125 -4 14 C-4.49940808 7.88225104 -3.24900602 4.97504047 0 0 Z " fill="#C9DAE6" transform="translate(151,170)"/>
<path d="M0 0 C0.66 0.66 1.32 1.32 2 2 C1.01 3.485 1.01 3.485 0 5 C0 5.99 0 6.98 0 8 C-0.928125 8.20625 -1.85625 8.4125 -2.8125 8.625 C-8.29056456 10.15795634 -13.09926188 13.18185403 -18 16 C-18 13.828125 -18 13.828125 -17 11 C-14.5407127 8.90561942 -11.79566461 7.35438484 -9 5.75 C-7.5204637 4.87041313 -6.04127827 3.9902357 -4.5625 3.109375 C-3.90378906 2.72749023 -3.24507812 2.34560547 -2.56640625 1.95214844 C-1.01461995 1.09360245 -1.01461995 1.09360245 0 0 Z " fill="#C65E35" transform="translate(80,149)"/>
<path d="M0 0 C1.32 0.66 2.64 1.32 4 2 C4 9.59 4 17.18 4 25 C3.67 25 3.34 25 3 25 C2.67 21.7 2.34 18.4 2 15 C1.34 15 0.68 15 0 15 C-0.33 12.36 -0.66 9.72 -1 7 C-2.32 7.99 -3.64 8.98 -5 10 C-5 8.68 -5 7.36 -5 6 C-4.34 6 -3.68 6 -3 6 C-2.87625 5.38125 -2.7525 4.7625 -2.625 4.125 C-2 2 -2 2 0 0 Z " fill="#8E9CC2" transform="translate(189,147)"/>
<path d="M0 0 C2.64 0 5.28 0 8 0 C8 16.83 8 33.66 8 51 C7.67 51 7.34 51 7 51 C7 35.82 7 20.64 7 5 C5.35 5 3.7 5 2 5 C1.34 3.35 0.68 1.7 0 0 Z " fill="#B84F25" transform="translate(195,38)"/>
<path d="M0 0 C0.6875 1.625 0.6875 1.625 1 4 C-0.4375 7.25 -0.4375 7.25 -2 10 C-2.99 10 -3.98 10 -5 10 C-5.04125 10.598125 -5.0825 11.19625 -5.125 11.8125 C-6 14 -6 14 -9.0625 15.75 C-10.031875 16.1625 -11.00125 16.575 -12 17 C-12.625 15.125 -12.625 15.125 -13 13 C-12.34 12.34 -11.68 11.68 -11 11 C-10.34 10.01 -9.68 9.02 -9 8 C-7.86304725 6.94617352 -6.69381672 5.92644563 -5.5 4.9375 C-3.58008878 3.33892985 -1.76869276 1.76869276 0 0 Z " fill="#B54E28" transform="translate(133,229)"/>
<path d="M0 0 C1.65 0 3.3 0 5 0 C5.47181905 3.96328 5.17601286 6.25902018 2.75 9.375 C0 12 0 12 -4 12 C-4.2475 12.61875 -4.495 13.2375 -4.75 13.875 C-6.20628639 16.35068687 -7.37812506 16.95125002 -10 18 C-10 17.34 -10 16.68 -10 16 C-10.66 15.67 -11.32 15.34 -12 15 C-10.41906946 13.87162591 -8.83515284 12.74743482 -7.25 11.625 C-6.36828125 10.99851563 -5.4865625 10.37203125 -4.578125 9.7265625 C-2 8 -2 8 0.265625 6.9609375 C2.35651267 6.05807951 2.35651267 6.05807951 3 3 C1.68 3 0.36 3 -1 3 C-0.67 2.01 -0.34 1.02 0 0 Z " fill="#A26D69" transform="translate(133,159)"/>
<path d="M0 0 C3 1 3 1 4.8125 3.25 C6 6 6 6 5.5 8.5625 C3.71770523 11.458729 1.73291652 13.00030499 -1 15 C-2.0173873 15.98230498 -3.02596117 16.97469597 -4 18 C-3.24427481 12.45801527 -3.24427481 12.45801527 -2 10.125 C-0.46106189 6.85475651 -0.35853508 3.58535082 0 0 Z " fill="#C96138" transform="translate(152,156)"/>
<path d="M0 0 C12.21 0 24.42 0 37 0 C33.54602565 3.45397435 32.30872286 4.56375905 28 6 C27.67 5.01 27.34 4.02 27 3 C25.02 3 23.04 3 21 3 C21 2.34 21 1.68 21 1 C14.07 1 7.14 1 0 1 C0 0.67 0 0.34 0 0 Z " fill="#C46642" transform="translate(92,37)"/>
<path d="M0 0 C1.24142712 4.96570849 0.37261666 7.15547062 -1 12 C-0.01 12 0.98 12 2 12 C1.67 12.66 1.34 13.32 1 14 C-0.65 14 -2.3 14 -4 14 C-5.32 16.31 -6.64 18.62 -8 21 C-9.32 20.67 -10.64 20.34 -12 20 C-10.02 16.37 -8.04 12.74 -6 9 C-4.68 9 -3.36 9 -2 9 C-1.34 6.03 -0.68 3.06 0 0 Z " fill="#86BEA7" transform="translate(137,178)"/>
<path d="M0 0 C2 3 2 3 1.7578125 5.26171875 C1.54898438 6.06222656 1.34015625 6.86273438 1.125 7.6875 C0.92132813 8.49574219 0.71765625 9.30398437 0.5078125 10.13671875 C0.34023437 10.75160156 0.17265625 11.36648437 0 12 C0.66 12 1.32 12 2 12 C2.33 13.98 2.66 15.96 3 18 C0.69 18 -1.62 18 -4 18 C-3.67 17.01 -3.34 16.02 -3 15 C-3.99 14.67 -4.98 14.34 -6 14 C-5.73445312 13.40832031 -5.46890625 12.81664062 -5.1953125 12.20703125 C-3.38863385 8.1650823 -1.59873147 4.1300563 0 0 Z " fill="#B0A1A7" transform="translate(147,172)"/>
<path d="M0 0 C0.93065133 2.60582371 1.14917407 3.64198224 0.0625 6.25 C-0.288125 6.8275 -0.63875 7.405 -1 8 C-1.66 8 -2.32 8 -3 8 C-3.33 11.3 -3.66 14.6 -4 18 C-3.01 18.33 -2.02 18.66 -1 19 C-1.66 19.33 -2.32 19.66 -3 20 C-4.13350534 22.01669827 -4.13350534 22.01669827 -5 24 C-5.66 24 -6.32 24 -7 24 C-7.144375 23.21625 -7.28875 22.4325 -7.4375 21.625 C-7.87798925 19.03578982 -7.87798925 19.03578982 -9 17 C-8.14453125 14.86328125 -8.14453125 14.86328125 -6.8125 12.3125 C-6.12027344 10.98025391 -6.12027344 10.98025391 -5.4140625 9.62109375 C-3.6646698 6.3784349 -1.86507472 3.17753471 0 0 Z " fill="#A9A1AC" transform="translate(196,168)"/>
<path d="M0 0 C1.44010481 0.25662245 2.8770687 0.53090821 4.3125 0.8125 C5.11300781 0.96332031 5.91351563 1.11414063 6.73828125 1.26953125 C9.27254353 2.08802356 10.24220897 3.05081625 12 5 C12.825 5.45375 13.65 5.9075 14.5 6.375 C17.35957481 8.23372362 18.45863559 9.99839562 20 13 C15.39731718 11.35554633 11.36169249 9.00052105 7.1875 6.5 C6.49462891 6.09652344 5.80175781 5.69304687 5.08789062 5.27734375 C3.35576555 4.24318829 1.67269436 3.12775368 0 2 C0 1.34 0 0.68 0 0 Z " fill="#C6C2BE" transform="translate(218,151)"/>
<path d="M0 0 C0.33 0 0.66 0 1 0 C1.23737365 8.91469911 0.79362465 17.25607982 -1 26 C-1.66 26 -2.32 26 -3 26 C-4.00345742 20.01993617 -3.94774678 15.84324035 -2 10 C-1.27215274 6.67828095 -0.63193292 3.34117727 0 0 Z " fill="#953919" transform="translate(92,187)"/>
<path d="M0 0 C0.66 0.33 1.32 0.66 2 1 C0.37660195 2.70884005 -1.29319053 4.37446717 -3 6 C-3.66 6 -4.32 6 -5 6 C-5.66 7.65 -6.32 9.3 -7 11 C-10.3 11 -13.6 11 -17 11 C-16.34 9.35 -15.68 7.7 -15 6 C-13.7625 6.0825 -12.525 6.165 -11.25 6.25 C-8.01932512 6.26139568 -7.29437422 6.2386818 -4.6875 4.125 C-4.130625 3.42375 -3.57375 2.7225 -3 2 C-2.01 1.34 -1.02 0.68 0 0 Z " fill="#BF6348" transform="translate(130,180)"/>
<path d="M0 0 C0.33 6.6 0.66 13.2 1 20 C0.01 20 -0.98 20 -2 20 C-1.67 16.04 -1.34 12.08 -1 8 C-1.66 8 -2.32 8 -3 8 C-3.33 9.98 -3.66 11.96 -4 14 C-4.33 14 -4.66 14 -5 14 C-5.08114106 12.22992286 -5.13925505 10.45877902 -5.1875 8.6875 C-5.22230469 7.70136719 -5.25710937 6.71523437 -5.29296875 5.69921875 C-5 3 -5 3 -3.61328125 1.14453125 C-2 0 -2 0 0 0 Z " fill="#742A12" transform="translate(207,154)"/>
<path d="M0 0 C3.96 0 7.92 0 12 0 C11.34 1.65 10.68 3.3 10 5 C5.05 5 0.1 5 -5 5 C-4.67 4.34 -4.34 3.68 -4 3 C-3.01 3.33 -2.02 3.66 -1 4 C-0.67 2.68 -0.34 1.36 0 0 Z " fill="#89B589" transform="translate(113,194)"/>
<path d="M0 0 C13.2 0 26.4 0 40 0 C39.01 0.66 38.02 1.32 37 2 C36.67 2.99 36.34 3.98 36 5 C35.01 4.34 34.02 3.68 33 3 C33.33 2.34 33.66 1.68 34 1 C32.68 1 31.36 1 30 1 C30.34786708 2.97536745 30.34786708 2.97536745 31 5 C31.66 5.33 32.32 5.66 33 6 C31.35 6 29.7 6 28 6 C28.33 5.34 28.66 4.68 29 4 C28.67 3.34 28.34 2.68 28 2 C14.14 1.505 14.14 1.505 0 1 C0 0.67 0 0.34 0 0 Z " fill="#C15227" transform="translate(129,37)"/>
<path d="M0 0 C1.65 0 3.3 0 5 0 C5.8125 2.1875 5.8125 2.1875 6 5 C3.03455796 8.750412 0.36488014 10.30254661 -4 12 C-4.33 12.99 -4.66 13.98 -5 15 C-5.33 13.68 -5.66 12.36 -6 11 C-5.21625 10.938125 -4.4325 10.87625 -3.625 10.8125 C-0.79513881 10.25498969 -0.79513881 10.25498969 0.4375 7.625 C0.623125 6.75875 0.80875 5.8925 1 5 C0.34 4.01 -0.32 3.02 -1 2 C-0.67 1.34 -0.34 0.68 0 0 Z " fill="#97A3C4" transform="translate(129,171)"/>
<path d="M0 0 C1.69752187 0.25245197 3.38471545 0.57645775 5.0625 0.9375 C5.98160156 1.13214844 6.90070313 1.32679688 7.84765625 1.52734375 C8.91306641 1.76130859 8.91306641 1.76130859 10 2 C9 5 9 5 7.3125 5.9375 C6.1678125 6.4634375 6.1678125 6.4634375 5 7 C2.98817543 8.31542376 0.98600337 9.6459068 -1 11 C-1.02688151 9.35425434 -1.04634123 7.70838587 -1.0625 6.0625 C-1.07410156 5.14597656 -1.08570313 4.22945312 -1.09765625 3.28515625 C-1 1 -1 1 0 0 Z " fill="#B5AFAB" transform="translate(204,145)"/>
<path d="M0 0 C3.465 1.98 3.465 1.98 7 4 C7 5.98 7 7.96 7 10 C5.02 10.99 5.02 10.99 3 12 C-1 6.375 -1 6.375 -1 3 C-0.67 2.01 -0.34 1.02 0 0 Z " fill="#C85E35" transform="translate(214,150)"/>
<path d="M0 0 C0.33 0 0.66 0 1 0 C1 2.31 1 4.62 1 7 C1.66 7.33 2.32 7.66 3 8 C2.01 10.97 1.02 13.94 0 17 C-0.33 16.34 -0.66 15.68 -1 15 C-3.64 15.66 -6.28 16.32 -9 17 C-8.34 15.02 -7.68 13.04 -7 11 C-5.33333333 11 -3.66666667 11 -2 11 C-0.85185003 8.70370006 -0.69230191 6.92301914 -0.4375 4.375 C-0.35371094 3.55773437 -0.26992187 2.74046875 -0.18359375 1.8984375 C-0.12300781 1.27195313 -0.06242188 0.64546875 0 0 Z " fill="#B96143" transform="translate(170,172)"/>
<path d="M0 0 C3.69230769 0.69230769 3.69230769 0.69230769 5 2 C5.25 4.9375 5.25 4.9375 5 8 C2 10 2 10 -2 10 C-1.85950482 8.52031676 -1.71245174 7.04125484 -1.5625 5.5625 C-1.48128906 4.73878906 -1.40007812 3.91507813 -1.31640625 3.06640625 C-1 1 -1 1 0 0 Z " fill="#AAB2C2" transform="translate(132,149)"/>
<path d="M0 0 C0.33 0 0.66 0 1 0 C1.33 2.31 1.66 4.62 2 7 C2.99 6.67 3.98 6.34 5 6 C4.125 11.75 4.125 11.75 3 14 C3.99 14.33 4.98 14.66 6 15 C6 15.66 6 16.32 6 17 C3.36 17 0.72 17 -2 17 C-1.67 16.34 -1.34 15.68 -1 15 C-0.76827173 12.45384991 -0.58105471 9.92603775 -0.4375 7.375 C-0.39431641 6.66859375 -0.35113281 5.9621875 -0.30664062 5.234375 C-0.20055249 3.48981463 -0.09977111 1.74493303 0 0 Z " fill="#B2C5D7" transform="translate(182,168)"/>
<path d="M0 0 C0.5775 0.37125 1.155 0.7425 1.75 1.125 C-0.71153846 5.925 -0.71153846 5.925 -3.4375 6.9375 C-4.035625 6.999375 -4.63375 7.06125 -5.25 7.125 C-5.58 8.445 -5.91 9.765 -6.25 11.125 C-6.91 11.125 -7.57 11.125 -8.25 11.125 C-8.4453125 5.0703125 -8.4453125 5.0703125 -8.25 3.125 C-3.69 -1.435 -3.69 -1.435 0 0 Z " fill="#A5B4D1" transform="translate(129.25,174.875)"/>
<path d="M0 0 C3 1 3 1 4 3 C4.06996014 4.70702735 4.08440154 6.41668003 4.0625 8.125 C4.05347656 9.03507813 4.04445313 9.94515625 4.03515625 10.8828125 C4.02355469 11.58148438 4.01195313 12.28015625 4 13 C1 11.3125 1 11.3125 -2 9 C-2.71960316 5.4019842 -1.84085049 3.10643519 0 0 Z " fill="#DAD7D3" transform="translate(87,142)"/>
<path d="M0 0 C0.66 1.32 1.32 2.64 2 4 C0.35 4.66 -1.3 5.32 -3 6 C-3 6.66 -3 7.32 -3 8 C-4.98 8.33 -6.96 8.66 -9 9 C-9 8.34 -9 7.68 -9 7 C-9.66 6.67 -10.32 6.34 -11 6 C-10.34 5.01 -9.68 4.02 -9 3 C-6.67284 2.62599214 -4.33882138 2.29235267 -2 2 C-1.34 1.34 -0.68 0.68 0 0 Z " fill="#BA6E57" transform="translate(160,189)"/>
<path d="M0 0 C2.64 0 5.28 0 8 0 C8 0.66 8 1.32 8 2 C7.34 2 6.68 2 6 2 C5.896875 2.721875 5.79375 3.44375 5.6875 4.1875 C4.92653591 7.30053492 3.9090983 9.43005998 2 12 C1.01 12 0.02 12 -1 12 C0.05875074 8.59687262 1.00902154 5.98646769 3 3 C2.01 3 1.02 3 0 3 C0 2.01 0 1.02 0 0 Z " fill="#68D6AA" transform="translate(136,187)"/>
<path d="M0 0 C0.89332031 0.47566406 1.78664062 0.95132813 2.70703125 1.44140625 C3.60808594 1.91449219 4.50914062 2.38757813 5.4375 2.875 C6.12457031 3.24753906 6.81164062 3.62007812 7.51953125 4.00390625 C7.18953125 5.32390625 6.85953125 6.64390625 6.51953125 8.00390625 C2.70712193 7.4887158 1.14011945 6.7436121 -1.48046875 4.00390625 C-2.47046875 4.00390625 -3.46046875 4.00390625 -4.48046875 4.00390625 C-4.81046875 2.68390625 -5.14046875 1.36390625 -5.48046875 0.00390625 C-2.48046875 -0.99609375 -2.48046875 -0.99609375 0 0 Z " fill="#C55D34" transform="translate(227.48046875,157.99609375)"/>
<path d="M0 0 C0.66 0 1.32 0 2 0 C2.33 2.31 2.66 4.62 3 7 C3.66 7 4.32 7 5 7 C4.67 8.65 4.34 10.3 4 12 C2.68 12.33 1.36 12.66 0 13 C0.33 11.35 0.66 9.7 1 8 C-0.98 8.33 -2.96 8.66 -5 9 C-4.34 8.01 -3.68 7.02 -3 6 C-2.34 6 -1.68 6 -1 6 C-0.67 4.02 -0.34 2.04 0 0 Z " fill="#A798A3" transform="translate(157,161)"/>
<path d="M0 0 C3.52269485 -0.4025937 4.79940808 -0.13372795 7.8125 1.875 C8.534375 2.57625 9.25625 3.2775 10 4 C10 4.66 10 5.32 10 6 C10.99 6 11.98 6 13 6 C12.67 6.66 12.34 7.32 12 8 C11.01 7.67 10.02 7.34 9 7 C9 8.65 9 10.3 9 12 C8.9175 11.38125 8.835 10.7625 8.75 10.125 C8.22658559 7.84696322 8.22658559 7.84696322 6.1875 7.125 C3.02541584 5.49878529 1.81486286 2.98156041 0 0 Z " fill="#96A0C2" transform="translate(151,153)"/>
<path d="M0 0 C1.77155654 0.11429397 3.54226229 0.24183037 5.3125 0.375 C6.79169922 0.47941406 6.79169922 0.47941406 8.30078125 0.5859375 C11 1 11 1 14 3 C15.1875 6.625 15.1875 6.625 16 10 C12.66191229 8.95088672 11.04118025 8.04443133 8.625 5.4375 C5.41708066 2.45871775 3.29301247 2.25253015 -1 2 C-0.67 1.34 -0.34 0.68 0 0 Z " fill="#DBD9D5" transform="translate(209,143)"/>
<path d="M0 0 C0.90105469 0.00902344 1.80210937 0.01804688 2.73046875 0.02734375 C3.41753906 0.03894531 4.10460937 0.05054688 4.8125 0.0625 C4.4825 1.3825 4.1525 2.7025 3.8125 4.0625 C-2.6225 4.5575 -2.6225 4.5575 -9.1875 5.0625 C-8.8575 3.7425 -8.5275 2.4225 -8.1875 1.0625 C-5.17259443 0.05753148 -3.14568308 -0.04085303 0 0 Z " fill="#A34320" transform="translate(147.1875,230.9375)"/>
<path d="M0 0 C0.66 0 1.32 0 2 0 C2.18404336 5.33725746 1.72559022 8.92473465 0 14 C-0.45563382 17.32462477 -0.74873715 20.6542368 -1 24 C-1.33 24 -1.66 24 -2 24 C-2.05425013 21.12474331 -2.09379277 18.25052354 -2.125 15.375 C-2.14175781 14.56675781 -2.15851563 13.75851563 -2.17578125 12.92578125 C-2.21420986 8.19906185 -1.82737094 4.44612298 0 0 Z " fill="#6B2108" transform="translate(204,162)"/>
<path d="M0 0 C-0.33 0.66 -0.66 1.32 -1 2 C-1.66 1.67 -2.32 1.34 -3 1 C-3 1.99 -3 2.98 -3 4 C-3.639375 4.103125 -4.27875 4.20625 -4.9375 4.3125 C-5.618125 4.539375 -6.29875 4.76625 -7 5 C-7.33 5.99 -7.66 6.98 -8 8 C-8.33 7.01 -8.66 6.02 -9 5 C-9.99 5.66 -10.98 6.32 -12 7 C-12.99 7 -13.98 7 -15 7 C-15 5.02 -15 3.04 -15 1 C-12 2 -12 2 -11 4 C-10.67 3.34 -10.34 2.68 -10 2 C-3.6 -1.2 -3.6 -1.2 0 0 Z " fill="#A79DA5" transform="translate(178,148)"/>
<path d="M0 0 C0 0.99 0 1.98 0 3 C0.66 3.33 1.32 3.66 2 4 C-3.445 5.485 -3.445 5.485 -9 7 C-9 5.35 -9 3.7 -9 2 C-5.62902617 0.50178941 -3.79557881 0 0 0 Z " fill="#A34424" transform="translate(132,253)"/>
<path d="M0 0 C0.66 0 1.32 0 2 0 C1.69078116 1.45903258 1.37751201 2.91720722 1.0625 4.375 C0.88847656 5.18710938 0.71445313 5.99921875 0.53515625 6.8359375 C0 9 0 9 -1 11 C-2.65 10.67 -4.3 10.34 -6 10 C-5.49259538 5.60249328 -2.91706686 3.13051078 0 0 Z " fill="#C56642" transform="translate(136,175)"/>
<path d="M0 0 C-0.33 1.65 -0.66 3.3 -1 5 C-4.63 5 -8.26 5 -12 5 C-12.33 3.68 -12.66 2.36 -13 1 C-8.62426048 0.40667939 -4.42471556 -0.13827236 0 0 Z " fill="#CD7F64" transform="translate(130,101)"/>
<path d="M0 0 C0 1.32 0 2.64 0 4 C-1.65 4 -3.3 4 -5 4 C-5 4.99 -5 5.98 -5 7 C-4.34 7 -3.68 7 -3 7 C-3 6.34 -3 5.68 -3 5 C-2.34 5.33 -1.68 5.66 -1 6 C-0.67 5.67 -0.34 5.34 0 5 C2.0625 5.4375 2.0625 5.4375 4 6 C4 6.66 4 7.32 4 8 C0.7 8 -2.6 8 -6 8 C-6.185625 6.824375 -6.185625 6.824375 -6.375 5.625 C-6.79117993 2.85942178 -6.79117993 2.85942178 -9 1 C-5.94152152 0.45627049 -3.11227195 0 0 0 Z " fill="#C2765C" transform="translate(136,90)"/>
<path d="M0 0 C3.39647413 0.11035961 6.79188789 0.24087444 10.1875 0.375 C11.14720703 0.4059375 12.10691406 0.436875 13.09570312 0.46875 C14.02705078 0.50742188 14.95839844 0.54609375 15.91796875 0.5859375 C16.77156982 0.6173584 17.6251709 0.6487793 18.50463867 0.68115234 C21.26214422 1.03349578 23.46999969 1.87071247 26 3 C26 3.33 26 3.66 26 4 C16.78372955 4.30892527 8.08785235 3.39049107 -1 2 C-0.67 1.34 -0.34 0.68 0 0 Z " fill="#958C9F" transform="translate(97,183)"/>
<path d="M0 0 C0.33 0 0.66 0 1 0 C1.8125 2.6875 1.8125 2.6875 2 6 C-0.25 8.875 -0.25 8.875 -3 11 C-3.99 11 -4.98 11 -6 11 C-5.67 8.69 -5.34 6.38 -5 4 C-4.34 4.33 -3.68 4.66 -3 5 C-2.525625 4.175 -2.05125 3.35 -1.5625 2.5 C-1.046875 1.675 -0.53125 0.85 0 0 Z " fill="#A0AFD1" transform="translate(128,160)"/>
<path d="M0 0 C0.66 0.33 1.32 0.66 2 1 C2 5.62 2 10.24 2 15 C1.67 15 1.34 15 1 15 C0.67 13.35 0.34 11.7 0 10 C-0.66 10 -1.32 10 -2 10 C-2.33 10.99 -2.66 11.98 -3 13 C-2.88490339 11.58249437 -2.75746342 10.16598831 -2.625 8.75 C-2.55539063 7.96109375 -2.48578125 7.1721875 -2.4140625 6.359375 C-1.98492887 3.914123 -1.21399362 2.15163097 0 0 Z " fill="#B3BFCD" transform="translate(190,161)"/>
<path d="M0 0 C0.33 0 0.66 0 1 0 C1 7.92 1 15.84 1 24 C0.67 24 0.34 24 0 24 C-0.103125 22.88625 -0.20625 21.7725 -0.3125 20.625 C-0.539375 19.42875 -0.76625 18.2325 -1 17 C-1.99 16.34 -2.98 15.68 -4 15 C-3.34 14.34 -2.68 13.68 -2 13 C-1.54337847 10.80708918 -1.179588 8.59414111 -0.875 6.375 C-0.70742187 5.18648437 -0.53984375 3.99796875 -0.3671875 2.7734375 C-0.24601563 1.85820312 -0.12484375 0.94296875 0 0 Z " fill="#7E83A3" transform="translate(201,151)"/>
<path d="M0 0 C0 0.66 0 1.32 0 2 C-0.56589844 2.25394531 -1.13179687 2.50789062 -1.71484375 2.76953125 C-2.44832031 3.11371094 -3.18179688 3.45789063 -3.9375 3.8125 C-4.66839844 4.14894531 -5.39929688 4.48539063 -6.15234375 4.83203125 C-8.33029489 5.93600134 -8.33029489 5.93600134 -9 9 C-7.35 9 -5.7 9 -4 9 C-7.22791555 11.1519437 -8.28400809 11.20086443 -12 11 C-11.52591957 6.73327616 -9.11692878 4.7544952 -6 2 C-3.75361682 0.65217009 -2.60554166 0 0 0 Z " fill="#A7A0AE" transform="translate(121,152)"/>
<path d="M0 0 C3.87132028 0.57352893 6.08172796 2.48704352 9 5 C9.33 4.01 9.66 3.02 10 2 C10 3.32 10 4.64 10 6 C10.66 6.33 11.32 6.66 12 7 C11.67 7.33 11.34 7.66 11 8 C10.76572222 10.01594582 10.58663876 12.038474 10.4375 14.0625 C10.35371094 15.16722656 10.26992187 16.27195313 10.18359375 17.41015625 C10.12300781 18.26480469 10.06242188 19.11945313 10 20 C9.67 20 9.34 20 9 20 C9 15.71 9 11.42 9 7 C7.68 6.34 6.36 5.68 5 5 C1.19565217 2.39130435 1.19565217 2.39130435 0 0 Z " fill="#967A83" transform="translate(184,142)"/>
<path d="M0 0 C1.125 3.75 1.125 3.75 0 6 C1.32 6 2.64 6 4 6 C3.67 7.65 3.34 9.3 3 11 C1.35 11 -0.3 11 -2 11 C-1.125 3.375 -1.125 3.375 0 0 Z " fill="#928FA8" transform="translate(171,183)"/>
<path d="M0 0 C0.66 0.33 1.32 0.66 2 1 C2 3.64 2 6.28 2 9 C3.32 9.33 4.64 9.66 6 10 C5.34 10.66 4.68 11.32 4 12 C1.375 11.625 1.375 11.625 -1 11 C-1.22174933 9.54364629 -1.42698698 8.08477044 -1.625 6.625 C-1.74101563 5.81289062 -1.85703125 5.00078125 -1.9765625 4.1640625 C-1.98429687 3.44992188 -1.99203125 2.73578125 -2 2 C-1.34 1.34 -0.68 0.68 0 0 Z " fill="#AABACF" transform="translate(113,166)"/>
<path d="M0 0 C0.99 0.33 1.98 0.66 3 1 C2.38125 1.2475 1.7625 1.495 1.125 1.75 C-1.13746494 2.82143729 -1.13746494 2.82143729 -2 5 C-3.24508396 7.49016793 -4.46716796 7.98686718 -7 9 C-7 8.34 -7 7.68 -7 7 C-7.66 6.67 -8.32 6.34 -9 6 C-7.57140593 4.96674014 -6.13177617 3.94872366 -4.6875 2.9375 C-3.88699219 2.36902344 -3.08648437 1.80054688 -2.26171875 1.21484375 C-1.51535156 0.81394531 -0.76898438 0.41304687 0 0 Z " fill="#BF6F5A" transform="translate(130,168)"/>
<path d="M0 0 C3.26023324 0.22484367 4.93132641 0.5260489 7.625 2.25 C3.89534861 4.28435531 1.95594958 5.25 -2.375 5.25 C-2.375 4.59 -2.375 3.93 -2.375 3.25 C-3.365 2.92 -4.355 2.59 -5.375 2.25 C-3.375 0.25 -3.375 0.25 0 0 Z " fill="#BF5830" transform="translate(191.375,37.75)"/>
<path d="M0 0 C6.75 -0.125 6.75 -0.125 9 1 C9 1.66 9 2.32 9 3 C8.34 3 7.68 3 7 3 C7 3.66 7 4.32 7 5 C4.03 4.505 4.03 4.505 1 4 C0.67 2.68 0.34 1.36 0 0 Z " fill="#A24321" transform="translate(161,253)"/>
<path d="M0 0 C0.33 0 0.66 0 1 0 C1 3.3 1 6.6 1 10 C0.01 10 -0.98 10 -2 10 C-1.67 12.64 -1.34 15.28 -1 18 C-1.33 17.34 -1.66 16.68 -2 16 C-2.66 16 -3.32 16 -4 16 C-4 13.36 -4 10.72 -4 8 C-3.01 8 -2.02 8 -1 8 C-0.67 5.36 -0.34 2.72 0 0 Z " fill="#A9BDD5" transform="translate(164,152)"/>
<path d="M0 0 C2.32590854 3.63423209 2.16265833 6.77088331 2 11 C1.67 10.01 1.34 9.02 1 8 C0.01 8.33 -0.98 8.66 -2 9 C-2.6875 6.1875 -2.6875 6.1875 -3 3 C-1.5625 1.125 -1.5625 1.125 0 0 Z " fill="#B3C8D8" transform="translate(169,152)"/>
<path d="M0 0 C1.11375 0.4640625 1.11375 0.4640625 2.25 0.9375 C5.1643216 2.12849006 5.1643216 2.12849006 9 3 C9 6.63 9 10.26 9 14 C8.67 14 8.34 14 8 14 C8 10.7 8 7.4 8 4 C6.02 4.99 6.02 4.99 4 6 C3.67 5.34 3.34 4.68 3 4 C2.01 4 1.02 4 0 4 C0 2.68 0 1.36 0 0 Z " fill="#ADB9CB" transform="translate(175,149)"/>
<path d="M0 0 C0.66 0 1.32 0 2 0 C2 0.66 2 1.32 2 2 C2.66 2.33 3.32 2.66 4 3 C3.01 3 2.02 3 1 3 C1 3.66 1 4.32 1 5 C-0.32 4.34 -1.64 3.68 -3 3 C-3 3.66 -3 4.32 -3 5 C-3.66 5 -4.32 5 -5 5 C-5.33 5.99 -5.66 6.98 -6 8 C-7.0625 6.125 -7.0625 6.125 -8 4 C-7.67 3.34 -7.34 2.68 -7 2 C-4.69 2 -2.38 2 0 2 C0 1.34 0 0.68 0 0 Z " fill="#BE572F" transform="translate(181,38)"/>
<path d="M0 0 C2.97 0.33 5.94 0.66 9 1 C9 1.66 9 2.32 9 3 C8.01 3.33 7.02 3.66 6 4 C6 4.66 6 5.32 6 6 C4.35 6 2.7 6 1 6 C0.67 4.02 0.34 2.04 0 0 Z " fill="#312E34" transform="translate(139,236)"/>
<path d="M0 0 C0.66 0.99 1.32 1.98 2 3 C1.21069203 5.48935591 0.1651105 7.669779 -1 10 C-2.32 9.67 -3.64 9.34 -5 9 C-3.35 6.03 -1.7 3.06 0 0 Z " fill="#74DDB2" transform="translate(130,189)"/>
<path d="M0 0 C0.99 0.495 0.99 0.495 2 1 C3.53668865 1.22467831 5.07968054 1.40796805 6.625 1.5625 C7.44226563 1.64628906 8.25953125 1.73007813 9.1015625 1.81640625 C9.72804687 1.87699219 10.35453125 1.93757812 11 2 C9.3125 4.0625 9.3125 4.0625 7 6 C4.375 6.0625 4.375 6.0625 2 5 C0.6875 2.4375 0.6875 2.4375 0 0 Z " fill="#A8BACE" transform="translate(149,187)"/>
<path d="M0 0 C0.66 0.33 1.32 0.66 2 1 C-0.64 2.65 -3.28 4.3 -6 6 C-5.67 6.66 -5.34 7.32 -5 8 C-5.99 9.32 -6.98 10.64 -8 12 C-9 11 -9 11 -9.25 8.625 C-9 6 -9 6 -7.875 4.375 C-5.37181987 2.53933457 -2.8544415 1.21465596 0 0 Z " fill="#A38085" transform="translate(128,168)"/>
<path d="M0 0 C1.32 0 2.64 0 4 0 C4 0.66 4 1.32 4 2 C4.99 2.33 5.98 2.66 7 3 C6 5 6 5 2.9375 6.125 C1.968125 6.41375 0.99875 6.7025 0 7 C0 4.69 0 2.38 0 0 Z " fill="#B24F2A" transform="translate(92,38)"/>
<path d="M0 0 C2.64 0 5.28 0 8 0 C7.67 0.66 7.34 1.32 7 2 C3.9375 2.625 3.9375 2.625 1 3 C0.67 2.01 0.34 1.02 0 0 Z M0 3 C0.33 3.66 0.66 4.32 1 5 C3.97 5 6.94 5 10 5 C10 5.33 10 5.66 10 6 C6.37 6 2.74 6 -1 6 C-0.67 5.01 -0.34 4.02 0 3 Z " fill="#6F585A" transform="translate(140,243)"/>
<path d="M0 0 C0.33 0.66 0.66 1.32 1 2 C4.27555608 2.47001033 4.27555608 2.47001033 8.0625 2.625 C9.99802734 2.73714844 9.99802734 2.73714844 11.97265625 2.8515625 C13.47119141 2.92503906 13.47119141 2.92503906 15 3 C15.33 3.99 15.66 4.98 16 6 C10.43109483 5.52013969 5.32932432 4.70084819 0 3 C0 2.01 0 1.02 0 0 Z " fill="#C3684A" transform="translate(94,184)"/>
<path d="M0 0 C0.66 1.32 1.32 2.64 2 4 C2.66 3.67 3.32 3.34 4 3 C4 7.95 4 12.9 4 18 C3.67 18 3.34 18 3 18 C2.67 14.7 2.34 11.4 2 8 C1.34 8 0.68 8 0 8 C0 5.36 0 2.72 0 0 Z " fill="#9793A8" transform="translate(189,154)"/>
<path d="M0 0 C1.69752187 0.25245197 3.38471545 0.57645775 5.0625 0.9375 C5.98160156 1.13214844 6.90070313 1.32679688 7.84765625 1.52734375 C8.91306641 1.76130859 8.91306641 1.76130859 10 2 C9.67 2.99 9.34 3.98 9 5 C7.68 5 6.36 5 5 5 C5 4.34 5 3.68 5 3 C3.35 2.67 1.7 2.34 0 2 C0.33 4.64 0.66 7.28 1 10 C0.01 10.495 0.01 10.495 -1 11 C-1.02688151 9.35425434 -1.04634123 7.70838587 -1.0625 6.0625 C-1.07410156 5.14597656 -1.08570313 4.22945312 -1.09765625 3.28515625 C-1 1 -1 1 0 0 Z " fill="#C1BDB8" transform="translate(204,145)"/>
<path d="M0 0 C1.5159375 0.2475 1.5159375 0.2475 3.0625 0.5 C6.76262933 0.96985769 10.27607391 1.07599849 14 1 C14 1.33 14 1.66 14 2 C6.575 3.485 6.575 3.485 -1 5 C-0.67 3.35 -0.34 1.7 0 0 Z " fill="#953919" transform="translate(125,248)"/>
<path d="M0 0 C0.66 0 1.32 0 2 0 C3.4606285 2.64738916 4 3.89448334 4 7 C5.65 6.67 7.3 6.34 9 6 C8 8 8 8 6.125 8.8125 C4 9 4 9 2.375 7.6875 C1.92125 7.130625 1.4675 6.57375 1 6 C0.34 5.34 -0.32 4.68 -1 4 C-0.625 1.875 -0.625 1.875 0 0 Z " fill="#9D7B82" transform="translate(176,185)"/>
<path d="M0 0 C0.33 0.66 0.66 1.32 1 2 C2.32 2 3.64 2 5 2 C4.67 3.32 4.34 4.64 4 6 C2.0625 6.5625 2.0625 6.5625 0 7 C-1 6 -1 6 -1.125 3.5 C-1 1 -1 1 0 0 Z " fill="#C26544" transform="translate(106,170)"/>
<path d="M0 0 C1.1875 1.625 1.1875 1.625 2 4 C0.625 7.25 0.625 7.25 -1 10 C-1.66 10 -2.32 10 -3 10 C-3.36923077 4.58461538 -3.36923077 4.58461538 -1.5 1.625 C-1.005 1.08875 -0.51 0.5525 0 0 Z " fill="#CEE0EC" transform="translate(124,153)"/>
<path d="M0 0 C2.97 0 5.94 0 9 0 C8.67 0.99 8.34 1.98 8 3 C5.03 3 2.06 3 -1 3 C-0.67 2.01 -0.34 1.02 0 0 Z " fill="#6DD7AC" transform="translate(115,196)"/>
<path d="M0 0 C1.67542976 0.28604898 3.34385343 0.61781233 5 1 C4.67 2.32 4.34 3.64 4 5 C1.69 5.66 -0.62 6.32 -3 7 C-1.125 1.125 -1.125 1.125 0 0 Z " fill="#B9735B" transform="translate(164,182)"/>
<path d="M0 0 C2.35448165 2.55068845 2.98327924 3.71017358 3.1875 7.25 C3.125625 8.1575 3.06375 9.065 3 10 C0.03 9.505 0.03 9.505 -3 9 C-2.34 8.01 -1.68 7.02 -1 6 C-0.60986284 4.0103005 -0.26797351 2.00980131 0 0 Z " fill="#8D97B7" transform="translate(118,176)"/>
<path d="M0 0 C1.32 0 2.64 0 4 0 C4 0.66 4 1.32 4 2 C3.34 2 2.68 2 2 2 C2 5.3 2 8.6 2 12 C1.67 12 1.34 12 1 12 C1 10.35 1 8.7 1 7 C-0.32 6.67 -1.64 6.34 -3 6 C-2.34 5.67 -1.68 5.34 -1 5 C-0.34444881 2.47266765 -0.34444881 2.47266765 0 0 Z " fill="#8E8BA5" transform="translate(137,152)"/>
<path d="M0 0 C1.98 0.66 3.96 1.32 6 2 C6 4.62834278 5.80210238 7.08186701 5.5 9.6875 C5.4071875 10.49574219 5.314375 11.30398437 5.21875 12.13671875 C5.1465625 12.75160156 5.074375 13.36648437 5 14 C4.67 14 4.34 14 4 14 C3.814375 12.14375 3.814375 12.14375 3.625 10.25 C3.23644599 7.1082633 2.68021488 4.73034918 1 2 C0.67 1.34 0.34 0.68 0 0 Z " fill="#9C838F" transform="translate(147,150)"/>
<path d="M0 0 C0.66 0 1.32 0 2 0 C3.5912689 4.873261 4.21192221 8.80790596 4 14 C3.67 14 3.34 14 3 14 C2.67 11.03 2.34 8.06 2 5 C1.01 5 0.02 5 -1 5 C-0.67 3.35 -0.34 1.7 0 0 Z " fill="#A66553" transform="translate(199,143)"/>
<path d="M0 0 C2.31 0.33 4.62 0.66 7 1 C7 1.66 7 2.32 7 3 C6.01 3 5.02 3 4 3 C4 3.66 4 4.32 4 5 C3.34 5 2.68 5 2 5 C1.67 5.66 1.34 6.32 1 7 C1 6.01 1 5.02 1 4 C0.34 3.67 -0.32 3.34 -1 3 C-0.67 2.01 -0.34 1.02 0 0 Z " fill="#D27049" transform="translate(119,94)"/>
<path d="M0 0 C0 2.31 0 4.62 0 7 C-0.99 7.495 -0.99 7.495 -2 8 C-2 6.35 -2 4.7 -2 3 C-3.65 3.33 -5.3 3.66 -7 4 C-7 3.34 -7 2.68 -7 2 C-2.25 0 -2.25 0 0 0 Z " fill="#ADBED4" transform="translate(147,169)"/>
<path d="M0 0 C1.60080151 4.00200378 0.29279692 7.04556236 -1 11 C-1.66 10.34 -2.32 9.68 -3 9 C-2.6442194 5.62008426 -1.64284201 2.95711562 0 0 Z " fill="#822D0F" transform="translate(90,193)"/>
<path d="M0 0 C0.33 0 0.66 0 1 0 C1.33 4.62 1.66 9.24 2 14 C1.01 14 0.02 14 -1 14 C-0.67 9.38 -0.34 4.76 0 0 Z " fill="#863114" transform="translate(206,160)"/>
<path d="M0 0 C0.66 0.33 1.32 0.66 2 1 C1.42415568 3.38564077 0.77772405 5.66682784 0 8 C0 7.34 0 6.68 0 6 C-1.32 6 -2.64 6 -4 6 C-3.6875 4.125 -3.6875 4.125 -3 2 C-2.01 1.34 -1.02 0.68 0 0 Z " fill="#A78183" transform="translate(111,166)"/>
<path d="M0 0 C0.66 0 1.32 0 2 0 C2 2.97 2 5.94 2 9 C1.01 8.34 0.02 7.68 -1 7 C-0.67 4.69 -0.34 2.38 0 0 Z " fill="#C9CAC7" transform="translate(89,146)"/>
<path d="M0 0 C0.66 0.33 1.32 0.66 2 1 C2 1.66 2 2.32 2 3 C4.97 3.33 7.94 3.66 11 4 C11 4.33 11 4.66 11 5 C7.04 5 3.08 5 -1 5 C-0.67 3.35 -0.34 1.7 0 0 Z " fill="#D5D2CD" transform="translate(204,141)"/>
<path d="M0 0 C1.13732426 3.40401948 0.83989957 5.77456664 0.0625 9.25 C-0.13214844 10.14203125 -0.32679687 11.0340625 -0.52734375 11.953125 C-0.68332031 12.62859375 -0.83929688 13.3040625 -1 14 C-1.33 14 -1.66 14 -2 14 C-2.05410687 12.22950311 -2.09284119 10.45853151 -2.125 8.6875 C-2.14820312 7.70136719 -2.17140625 6.71523437 -2.1953125 5.69921875 C-2 3 -2 3 0 0 Z " fill="#D86934" transform="translate(93,130)"/>
<path d="M0 0 C1.65 0 3.3 0 5 0 C5 1.32 5 2.64 5 4 C2.03 4 -0.94 4 -4 4 C-2.68 3.67 -1.36 3.34 0 3 C0 2.01 0 1.02 0 0 Z " fill="#C57A61" transform="translate(135,99)"/>
<path d="M0 0 C0.66 0 1.32 0 2 0 C2 2.31 2 4.62 2 7 C1.01 7 0.02 7 -1 7 C-1.04254356 5.00045254 -1.04080783 2.99958364 -1 1 C-0.67 0.67 -0.34 0.34 0 0 Z " fill="#933818" transform="translate(204,206)"/>
<path d="M0 0 C0.66 0 1.32 0 2 0 C4 3 4 3 4 6 C2.35 6 0.7 6 -1 6 C-0.67 4.02 -0.34 2.04 0 0 Z " fill="#C1684C" transform="translate(144,184)"/>
<path d="M0 0 C0.66 0.33 1.32 0.66 2 1 C-3.14285714 6.57142857 -3.14285714 6.57142857 -7 7 C-5.55609075 3.19333016 -3.65047197 1.73397418 0 0 Z " fill="#B57569" transform="translate(130,180)"/>
<path d="M0 0 C0.33 0 0.66 0 1 0 C1.33 1.98 1.66 3.96 2 6 C2.66 5.67 3.32 5.34 4 5 C4 6.65 4 8.3 4 10 C2.68 9.67 1.36 9.34 0 9 C0 6.03 0 3.06 0 0 Z " fill="#AFBED2" transform="translate(174,174)"/>
<path d="M0 0 C0.33 0.99 0.66 1.98 1 3 C-0.5 4.5625 -0.5 4.5625 -3 6 C-5.77437543 5.96823234 -8.25286467 5.50364148 -11 5 C-8.5132579 3.5653411 -6.6883811 2.9511186 -3.8125 2.5 C-2.4203125 2.2525 -2.4203125 2.2525 -1 2 C-0.67 1.34 -0.34 0.68 0 0 Z " fill="#91A1C3" transform="translate(117,179)"/>
<path d="M0 0 C1.32 0 2.64 0 4 0 C3.67 1.65 3.34 3.3 3 5 C4.32 4.67 5.64 4.34 7 4 C6.67 4.99 6.34 5.98 6 7 C3.9375 7.6875 3.9375 7.6875 2 8 C2 5.69 2 3.38 2 1 C1.34 0.67 0.68 0.34 0 0 Z " fill="#B6C0CE" transform="translate(154,169)"/>
<path d="M0 0 C2.475 0.99 2.475 0.99 5 2 C5 2.99 5 3.98 5 5 C3.35 5.33 1.7 5.66 0 6 C0 4.02 0 2.04 0 0 Z " fill="#95A0C1" transform="translate(129,162)"/>
<path d="M0 0 C-0.33 0.66 -0.66 1.32 -1 2 C-1.66 1.67 -2.32 1.34 -3 1 C-3 1.99 -3 2.98 -3 4 C-3.99 4.33 -4.98 4.66 -6 5 C-6 4.34 -6 3.68 -6 3 C-7.32 2.67 -8.64 2.34 -10 2 C-3.375 -1.125 -3.375 -1.125 0 0 Z " fill="#A2A1AF" transform="translate(178,148)"/>
<path d="M0 0 C0 4.29908251 -1.7148681 6.37067287 -4 10 C-4.99 10.495 -4.99 10.495 -6 11 C-4.74194623 6.49197399 -3.09592835 3.5087188 0 0 Z " fill="#A74321" transform="translate(132,237)"/>
<path d="M0 0 C1.0326802 2.78823655 1.04509293 3.8677274 0.0625 6.75 C-0.288125 7.4925 -0.63875 8.235 -1 9 C-1.99 8.34 -2.98 7.68 -4 7 C-3.34 5.35 -2.68 3.7 -2 2 C-1.34 2 -0.68 2 0 2 C0 1.34 0 0.68 0 0 Z " fill="#948A9D" transform="translate(140,167)"/>
<path d="M0 0 C2.03125 3.75 2.03125 3.75 1.75 6 C0.96713323 8.08764473 0.05252193 10.03529239 -1 12 C-2.09898702 8.70303895 -1.87124444 7.59505097 -1.0625 4.3125 C-0.86785156 3.50425781 -0.67320313 2.69601563 -0.47265625 1.86328125 C-0.31667969 1.24839844 -0.16070312 0.63351563 0 0 Z " fill="#AB939E" transform="translate(126,154)"/>
<path d="M0 0 C0.36923077 6.4 0.36923077 6.4 -1.5 9.4375 C-1.995 9.953125 -2.49 10.46875 -3 11 C-2.70703125 8.98177083 -2.4140625 6.96354167 -2.12109375 4.9453125 C-1.8315703 2.91859333 -1.8315703 2.91859333 -3 1 C-1 0 -1 0 0 0 Z " fill="#E4E6E3" transform="translate(91,128)"/>
<path d="M0 0 C0 0.33 0 0.66 0 1 C-8.57142857 2.42857143 -8.57142857 2.42857143 -12 0 C-7.66726186 -0.92844389 -4.33273814 -0.92844389 0 0 Z " fill="#C05932" transform="translate(164,251)"/>
<path d="M0 0 C0.33 0.66 0.66 1.32 1 2 C1.99 2 2.98 2 4 2 C3.1875 3.9375 3.1875 3.9375 2 6 C1.01 6.33 0.02 6.66 -1 7 C-0.67 4.69 -0.34 2.38 0 0 Z " fill="#B76852" transform="translate(168,192)"/>
<path d="M0 0 C0.99 0 1.98 0 3 0 C2.67 1.98 2.34 3.96 2 6 C2.66 6.33 3.32 6.66 4 7 C3.01 7.33 2.02 7.66 1 8 C0.40267181 5.23735711 0 2.83967231 0 0 Z " fill="#9C797E" transform="translate(188,184)"/>
<path d="M0 0 C2.16874252 0.50603992 3.99967627 0.99983813 6 2 C5.67 2.99 5.34 3.98 5 5 C3.35 4.67 1.7 4.34 0 4 C0 2.68 0 1.36 0 0 Z " fill="#9993AD" transform="translate(144,164)"/>
<path d="M0 0 C0 0.66 0 1.32 0 2 C-1.28650706 2.69710731 -2.57940665 3.38242876 -3.875 4.0625 C-4.95394531 4.63677734 -4.95394531 4.63677734 -6.0546875 5.22265625 C-6.69664063 5.47917969 -7.33859375 5.73570312 -8 6 C-8.66 5.67 -9.32 5.34 -10 5 C-8.71186658 4.16121545 -7.41936744 3.32913217 -6.125 2.5 C-5.40570313 2.0359375 -4.68640625 1.571875 -3.9453125 1.09375 C-2 0 -2 0 0 0 Z " fill="#B19EA2" transform="translate(121,152)"/>
<path d="M0 0 C0.66 0 1.32 0 2 0 C1.8125 2.3125 1.8125 2.3125 1 5 C-1.5625 6.8125 -1.5625 6.8125 -4 8 C-3.34 6.35 -2.68 4.7 -2 3 C-1.34 3 -0.68 3 0 3 C0 2.01 0 1.02 0 0 Z " fill="#8B9AC2" transform="translate(199,137)"/>
<path d="M0 0 C0.99 0.33 1.98 0.66 3 1 C3.144375 1.78375 3.28875 2.5675 3.4375 3.375 C3.87798925 5.96421018 3.87798925 5.96421018 5 8 C4.01 9.485 4.01 9.485 3 11 C2.01 7.37 1.02 3.74 0 0 Z " fill="#C35A32" transform="translate(167,243)"/>
<path d="M0 0 C1.32 0.33 2.64 0.66 4 1 C3.34 2.32 2.68 3.64 2 5 C0.68 4.34 -0.64 3.68 -2 3 C-1.34 2.01 -0.68 1.02 0 0 Z " fill="#7AD8AE" transform="translate(125,187)"/>
<path d="M0 0 C-0.6875 2.4375 -0.6875 2.4375 -2 5 C-4.625 5.8125 -4.625 5.8125 -7 6 C-6.34 5.67 -5.68 5.34 -5 5 C-4.835 4.34 -4.67 3.68 -4.5 3 C-4.335 2.34 -4.17 1.68 -4 1 C-2 0 -2 0 0 0 Z " fill="#8D94B2" transform="translate(187,186)"/>
<path d="M0 0 C0.33 0 0.66 0 1 0 C1.33 2.31 1.66 4.62 2 7 C2.66 6.67 3.32 6.34 4 6 C3.67 7.32 3.34 8.64 3 10 C2.01 10 1.02 10 0 10 C0 6.7 0 3.4 0 0 Z " fill="#B4ABAE" transform="translate(182,168)"/>
<path d="M0 0 C0.33 0.99 0.66 1.98 1 3 C1.66 3.33 2.32 3.66 3 4 C1.35 5.65 -0.3 7.3 -2 9 C-1.51421457 5.87709365 -1.0013988 3.00419641 0 0 Z " fill="#C3745A" transform="translate(150,165)"/>
<path d="M0 0 C2.79872437 2.52788007 4.45773019 4.20411134 5 8 C4.01 8.33 3.02 8.66 2 9 C1.34 6.03 0.68 3.06 0 0 Z " fill="#C46849" transform="translate(153,156)"/>
<path d="M0 0 C1.32 0.66 2.64 1.32 4 2 C3.67 2.99 3.34 3.98 3 5 C2.01 5.33 1.02 5.66 0 6 C-1.24546405 3.50907189 -0.7767578 2.58919267 0 0 Z " fill="#95AAD2" transform="translate(140,160)"/>
<path d="M0 0 C0.66 0 1.32 0 2 0 C2 1.65 2 3.3 2 5 C0.02 5.99 0.02 5.99 -2 7 C-1.34 4.69 -0.68 2.38 0 0 Z " fill="#B9CDDE" transform="translate(133,151)"/>
<path d="M0 0 C1.65 0 3.3 0 5 0 C5 0.99 5 1.98 5 3 C2.69 3.33 0.38 3.66 -2 4 C-1.34 2.68 -0.68 1.36 0 0 Z " fill="#C36D43" transform="translate(141,193)"/>
<path d="M0 0 C0.33 0.66 0.66 1.32 1 2 C-3.43076923 4.09230769 -3.43076923 4.09230769 -6.3125 3.625 C-6.869375 3.41875 -7.42625 3.2125 -8 3 C-7.67 2.34 -7.34 1.68 -7 1 C-4.67843403 0.59270772 -2.3431213 0.25561323 0 0 Z " fill="#9C848F" transform="translate(158,191)"/>
<path d="M0 0 C0.33 0 0.66 0 1 0 C1.33 2.31 1.66 4.62 2 7 C1.01 7.495 1.01 7.495 0 8 C-0.33 7.01 -0.66 6.02 -1 5 C-1.66 5 -2.32 5 -3 5 C-1.125 1.125 -1.125 1.125 0 0 Z " fill="#B96348" transform="translate(188,186)"/>
<path d="M0 0 C2.31 0 4.62 0 7 0 C6.67 0.66 6.34 1.32 6 2 C3.35139573 2.59355614 0.70802678 2.74209269 -2 3 C-1.34 2.67 -0.68 2.34 0 2 C0 1.34 0 0.68 0 0 Z " fill="#CC8771" transform="translate(123,97)"/>
</svg>
