<?xml version="1.0" encoding="UTF-8"?>
<svg version="1.1" xmlns="http://www.w3.org/2000/svg" width="295" height="298">
<path d="M0 0 C97.35 0 194.7 0 295 0 C295 98.34 295 196.68 295 298 C197.65 298 100.3 298 0 298 C0 199.66 0 101.32 0 0 Z " fill="#EFEDEC" transform="translate(0,0)"/>
<path d="M0 0 C13.67302562 -0.0231205 27.34604664 -0.04091359 41.01908779 -0.05181217 C47.36730576 -0.05704164 53.7155104 -0.06414044 60.0637207 -0.07543945 C66.18448582 -0.08626606 72.30523809 -0.09227635 78.42601204 -0.09487724 C80.76690943 -0.0967319 83.10780609 -0.10035329 85.44869804 -0.10573006 C88.71508202 -0.11293748 91.98141215 -0.11399107 95.24780273 -0.11352539 C96.226035 -0.11712067 97.20426727 -0.12071594 98.21214294 -0.12442017 C99.09700378 -0.1230455 99.98186462 -0.12167084 100.89353943 -0.12025452 C101.66692374 -0.12117631 102.44030806 -0.1220981 103.23712826 -0.12304783 C105 0 105 0 106 1 C106.10569732 2.50066496 106.14238842 4.00624971 106.15148926 5.51060486 C106.15983292 6.48513107 106.16817657 7.45965729 106.17677307 8.4637146 C106.18095749 9.5416629 106.18514191 10.61961121 106.18945312 11.73022461 C106.20189308 13.42274605 106.20189308 13.42274605 106.21458435 15.14945984 C106.23203023 17.60873421 106.24718447 20.06802563 106.26036072 22.52732658 C106.28131053 26.41357239 106.30833945 30.29973254 106.33703613 34.18592834 C106.39685684 42.43641988 106.44899857 50.68694991 106.5 58.9375 C106.55906997 68.49039803 106.62137287 78.04324948 106.69187927 87.59607124 C106.71854301 91.4350412 106.73930492 95.27401515 106.7598877 99.11302185 C106.7764853 101.45547692 106.79335666 103.79793007 106.81054688 106.14038086 C106.81473129 107.21630493 106.81891571 108.292229 106.82322693 109.40075684 C106.83157059 110.37810287 106.83991425 111.35544891 106.84851074 112.3624115 C106.85366447 113.21469298 106.85881821 114.06697447 106.86412811 114.94508266 C106.87108898 117.06486812 106.87108898 117.06486812 108 119 C109.98 117.02 109.98 117.02 112 115 C114.88003366 116.35349565 117.36624164 117.89784064 119.9140625 119.80078125 C120.666875 120.35991211 121.4196875 120.91904297 122.1953125 121.49511719 C122.99710938 122.09485352 123.79890625 122.69458984 124.625 123.3125 C126.32498049 124.57494669 128.02551598 125.83664631 129.7265625 127.09765625 C130.59571289 127.74234863 131.46486328 128.38704102 132.36035156 129.05126953 C136.55277199 132.14633981 140.77392806 135.20111049 145 138.25 C145.75877441 138.79825439 146.51754883 139.34650879 147.29931641 139.91137695 C150.17546443 141.98523797 153.04910435 144.03273623 156 146 C154.52521115 150.27371608 152.27753612 153.69836146 149.625 157.3125 C149.18583252 157.91787598 148.74666504 158.52325195 148.29418945 159.14697266 C146.86983361 161.10324459 145.43597286 163.05224277 144 165 C143.5270752 165.64469238 143.05415039 166.28938477 142.56689453 166.95361328 C135.01905803 177.22328421 127.144087 187.19719849 119 197 C118.29746094 197.84820312 117.59492188 198.69640625 116.87109375 199.5703125 C110.64123063 206.90120288 104.36593354 211.70925514 95.5625 215.625 C93.93843836 216.36639127 92.3147367 217.10857161 90.69140625 217.8515625 C89.90596436 218.2036377 89.12052246 218.55571289 88.3112793 218.91845703 C86.0473885 219.97782497 83.87450654 221.14936367 81.6796875 222.34375 C79.24417173 223.57137873 78.32999287 224.02648418 75.56640625 223.8046875 C74.57447266 223.34449219 74.57447266 223.34449219 73.5625 222.875 C72.80195313 222.56691406 72.04140625 222.25882813 71.2578125 221.94140625 C70.51273437 221.63074219 69.76765625 221.32007813 69 221 C55.68062617 216.62067281 42.70206354 218.51203787 30.0625 223.8125 C26.76215372 224.11253148 24.63888872 222.59764203 21.75 221.0625 C20.50435819 220.40799332 19.25824489 219.75438336 18.01171875 219.1015625 C17.35993652 218.75641602 16.7081543 218.41126953 16.03662109 218.05566406 C13.96565061 216.9821953 11.87491754 215.96506711 9.76953125 214.9609375 C-1.77645093 209.43998968 -8.64157143 203.82886947 -16.2734375 193.609375 C-18.55398777 190.56312874 -20.91989569 187.59839876 -23.32104492 184.64672852 C-28.3664479 178.44176656 -33.19414766 172.10975543 -37.875 165.625 C-38.39811768 164.90030518 -38.92123535 164.17561035 -39.46020508 163.42895508 C-42.1452485 159.6784522 -44.78395808 155.89667716 -47.3828125 152.0859375 C-47.88441895 151.35165527 -48.38602539 150.61737305 -48.90283203 149.86083984 C-50 148 -50 148 -50 146 C-48.64916992 144.80175781 -48.64916992 144.80175781 -46.73046875 143.453125 C-46.01544189 142.94450928 -45.30041504 142.43589355 -44.5637207 141.91186523 C-43.77956787 141.36344971 -42.99541504 140.81503418 -42.1875 140.25 C-40.53828892 139.08051722 -38.8898783 137.90990499 -37.2421875 136.73828125 C-36.38206055 136.12807129 -35.52193359 135.51786133 -34.63574219 134.88916016 C-29.52262176 131.22434672 -24.49021027 127.44807503 -19.4597168 123.67089844 C-15.113079 120.43930255 -10.76378774 117.58064793 -6 115 C-4.68 116.32 -3.36 117.64 -2 119 C-1.12977335 115.98673278 -0.86571719 113.28527759 -0.84178162 110.15313721 C-0.8319928 109.18001083 -0.82220398 108.20688446 -0.81211853 107.20426941 C-0.80636307 106.14331558 -0.8006076 105.08236176 -0.79467773 103.98925781 C-0.78477814 102.86701309 -0.77487854 101.74476837 -0.76467896 100.58851624 C-0.73307542 96.87674066 -0.70831092 93.16495229 -0.68359375 89.453125 C-0.66302324 86.88051011 -0.64202675 84.3078986 -0.62062073 81.73529053 C-0.5710541 75.65452426 -0.52578616 69.57373988 -0.48259836 63.49292541 C-0.43318363 56.56911252 -0.37828124 49.64534656 -0.32291877 42.72157907 C-0.20917474 28.4810968 -0.10231925 14.24056872 0 0 Z " fill="#3C201A" transform="translate(94,37)"/>
<path d="M0 0 C6.94172388 -0.02529373 13.88343594 -0.04284304 20.82519531 -0.05493164 C23.18815556 -0.05996959 25.55111268 -0.06680008 27.9140625 -0.07543945 C31.30469535 -0.08752854 34.69528709 -0.09323359 38.0859375 -0.09765625 C39.14743011 -0.10281754 40.20892273 -0.10797882 41.30258179 -0.11329651 C42.77388046 -0.11340981 42.77388046 -0.11340981 44.27490234 -0.11352539 C45.14094086 -0.115746 46.00697937 -0.11796661 46.89926147 -0.12025452 C49 0 49 0 51 1 C51.804375 1.12375 52.60875 1.2475 53.4375 1.375 C56.36461137 2.0889296 57.20107994 2.62596269 59 5 C59.34851074 7.41795349 59.34851074 7.41795349 59.31054688 10.32592773 C59.30349731 11.41865494 59.29644775 12.51138214 59.28918457 13.63722229 C59.26594116 14.82814987 59.24269775 16.01907745 59.21875 17.24609375 C59.20614136 18.4944249 59.19353271 19.74275604 59.18054199 21.02891541 C59.14336864 24.35723787 59.0929054 27.68474788 59.03411865 31.0127182 C58.98002477 34.16348126 58.93820524 37.31440979 58.89453125 40.46533203 C58.76848911 49.04465898 58.61770087 57.62355994 58.46088409 66.2023735 C58.13857813 83.84340383 57.94863606 101.46856912 58.15085602 119.11226082 C58.17952261 121.70384333 58.20370044 124.29542729 58.22625732 126.8870697 C58.24133166 128.5939026 58.25640734 130.30073549 58.27148438 132.00756836 C58.27875675 132.84524467 58.28602913 133.68292097 58.29352188 134.54598141 C58.33996061 139.50626391 58.4188279 144.46476415 58.5208416 149.42419624 C58.57738108 152.52332384 58.60465858 155.62224424 58.62469864 158.72180176 C58.64023259 160.15379092 58.66807392 161.58571257 58.70968246 163.0171814 C58.99468211 173.05599285 57.26124131 179.12052657 51 187 C50.54528824 187.61691711 50.09057648 188.23383423 49.62208557 188.8694458 C48.52103113 190.3425786 47.35701446 191.7681068 46.1875 193.1875 C45.43855469 194.10917969 44.68960938 195.03085938 43.91796875 195.98046875 C42.96857422 196.98013672 42.96857422 196.98013672 42 198 C41.34 198 40.68 198 40 198 C38.97388051 199.65071396 37.97691857 201.31970006 37 203 C35.3125 204.8125 35.3125 204.8125 34 206 C31.89660964 205.05710088 30.25356999 204.26606474 28.65234375 202.5859375 C23.61694817 197.75291007 14.99438791 194.21082375 8 194 C5.99059253 194.63775078 3.9893197 195.30210919 2 196 C1.9845388 194.47098053 1.9845388 194.47098053 1.96876526 192.91107178 C1.83643832 179.85734853 1.70029599 166.80366658 1.5625 153.75 C1.55147877 152.70217346 1.54045753 151.65434692 1.52910233 150.57476807 C1.2496544 124.0479515 0.92773301 97.52380749 0.4375 71 C0.00040047 47.33124212 -0.12169403 23.6722965 0 0 Z " fill="#D35632" transform="translate(137,37)"/>
<path d="M0 0 C7.26 0 14.52 0 22 0 C22.40233795 9.66467113 22.71980426 19.33113508 23 29 C23.02404907 29.82729614 23.04809814 30.65459229 23.07287598 31.50695801 C24.06499182 66.42776827 24.10736237 101.35358972 24.12293625 136.28580093 C24.12499782 139.93364937 24.12876056 143.58149292 24.13284302 147.2293396 C24.13873165 153.04428704 24.13882264 158.85920771 24.13438225 164.67415619 C24.13334486 166.8488539 24.13390229 169.02355301 24.13614082 171.19824982 C24.13870106 174.2102362 24.13488257 177.22214982 24.12939453 180.23413086 C24.13142159 181.11025371 24.13344866 181.98637655 24.13553715 182.88904858 C24.11796756 188.013665 23.73619281 192.92710222 23 198 C18.76243279 196.45995821 16.59772828 193.30368937 14 189.8125 C13.57460937 189.26013672 13.14921875 188.70777344 12.7109375 188.13867188 C5 177.9559768 5 177.9559768 5 173 C4.34 173 3.68 173 3 173 C-1.3814349 165.00729658 -2.69641798 158.68012038 -2.375 149.625 C-2.36082031 148.61050781 -2.34664063 147.59601563 -2.33203125 146.55078125 C-2.24092699 141.57648878 -2.04032233 136.6119467 -1.76567078 131.64482117 C-0.96882411 117.02789346 -0.78468228 102.42910379 -0.68359375 87.79296875 C-0.66296329 85.24465139 -0.64196552 82.69633699 -0.62062073 80.14802551 C-0.57157004 74.18823834 -0.52614905 68.22843094 -0.48259836 62.26860172 C-0.43269096 55.46773335 -0.37797668 48.66690609 -0.32291877 41.86607778 C-0.21004435 27.91075579 -0.10364483 13.95539343 0 0 Z " fill="#DE5934" transform="translate(94,37)"/>
<path d="M0 0 C6.27 0 12.54 0 19 0 C19.70274881 31.36670705 20.31166482 62.73417543 20.81948471 94.10466385 C20.93502837 101.2054096 21.05986952 108.30590447 21.19272614 115.40634632 C21.3931175 126.15118298 21.55944685 136.89538154 21.65647125 147.64169025 C21.70196118 152.61730472 21.76409335 157.59131579 21.86865234 162.56607056 C21.96566832 167.21869786 22.01523183 171.86938586 22.02765656 176.52298546 C22.04028024 178.21673048 22.06992011 179.9104506 22.11815643 181.60355568 C22.4660194 194.33618433 22.4660194 194.33618433 18.80822754 198.48748779 C16.27851905 200.25908846 13.75273757 201.61428056 11 203 C9.23285085 204.55682429 9.23285085 204.55682429 8 206 C4.19135794 204.50374776 2.13640646 202.48155126 0 199 C0.27909726 196.99171321 0.62606354 194.99280773 1 193 C1.93947584 182.38354667 2.07756221 171.66618831 2.0546875 161.01489258 C2.05343369 159.98836232 2.05217987 158.96183207 2.05088806 157.90419483 C2.02065018 146.56081189 1.83322912 135.22041918 1.62960815 123.87903404 C1.56036684 120.01776217 1.49386462 116.15645075 1.42797852 112.29512024 C1.26411508 102.71203282 1.09576625 93.12902485 0.92712402 83.54602051 C0.78404479 75.41111088 0.64297295 67.27617094 0.50436401 59.14118385 C0.43973414 55.39134384 0.3724018 51.64155921 0.30493164 47.89176941 C0.02716761 31.92634234 -0.04999254 15.96770578 0 0 Z " fill="#DA5934" transform="translate(117,37)"/>
<path d="M0 0 C3.63 0 7.26 0 11 0 C11.06785045 18.11135825 10.86810148 36.20511879 10.5 54.3125 C10.17248462 70.54429417 9.92117126 86.76456397 10 103 C11.65 103.33 13.3 103.66 15 104 C14.67 105.98 14.34 107.96 14 110 C14.99 110.33 15.98 110.66 17 111 C17.25 117.625 17.25 117.625 15 121 C15.99 121.33 16.98 121.66 18 122 C18 146.42 18 170.84 18 196 C14.7 195.34 11.4 194.68 8 194 C4.51092153 194.71170815 4.51092153 194.71170815 2 196 C1.9845388 194.47098053 1.9845388 194.47098053 1.96876526 192.91107178 C1.83643832 179.85734853 1.70029599 166.80366658 1.5625 153.75 C1.55147877 152.70217346 1.54045753 151.65434692 1.52910233 150.57476807 C1.2496544 124.0479515 0.92773301 97.52380749 0.4375 71 C0.00040047 47.33124212 -0.12169403 23.6722965 0 0 Z " fill="#E55C35" transform="translate(137,37)"/>
<path d="M0 0 C2.88003366 1.35349565 5.36624164 2.89784064 7.9140625 4.80078125 C8.666875 5.35991211 9.4196875 5.91904297 10.1953125 6.49511719 C10.99710938 7.09485352 11.79890625 7.69458984 12.625 8.3125 C14.32498049 9.57494669 16.02551598 10.83664631 17.7265625 12.09765625 C18.59571289 12.74234863 19.46486328 13.38704102 20.36035156 14.05126953 C24.55277199 17.14633981 28.77392806 20.20111049 33 23.25 C33.75877441 23.79825439 34.51754883 24.34650879 35.29931641 24.91137695 C38.17546443 26.98523797 41.04910435 29.03273623 44 31 C42.52521115 35.27371608 40.27753612 38.69836146 37.625 42.3125 C37.18583252 42.91787598 36.74666504 43.52325195 36.29418945 44.14697266 C34.86983361 46.10324459 33.43597286 48.05224277 32 50 C31.29061279 50.96703857 31.29061279 50.96703857 30.56689453 51.95361328 C24.89860547 59.66595089 19.08126984 67.24501829 13.0625 74.6875 C12.53100342 75.34669434 11.99950684 76.00588867 11.4519043 76.68505859 C8.47332685 80.33481826 5.39341934 83.73156848 2 87 C0.68 86.34 -0.64 85.68 -2 85 C-1.9278125 84.09121094 -1.855625 83.18242187 -1.78125 82.24609375 C-0.91520883 70.51845284 -0.09587164 58.66278623 -2 47 C-3.32 48.65 -4.64 50.3 -6 52 C-5.83338867 51.3709375 -5.66677734 50.741875 -5.49511719 50.09375 C-4.81881713 45.8678751 -4.97666691 41.76927789 -5.078125 37.5 C-5.10537477 35.62501717 -5.13137848 33.75001589 -5.15625 31.875 C-5.19953255 28.93178626 -5.25025607 25.98953562 -5.32226562 23.046875 C-5.38892261 20.19776499 -5.42365005 17.34970574 -5.453125 14.5 C-5.48206848 13.62279297 -5.51101196 12.74558594 -5.54083252 11.84179688 C-5.56088558 7.25670303 -5.4805659 5.58803892 -2.47167969 1.90625 C-1.65602539 1.2771875 -0.84037109 0.648125 0 0 Z " fill="#1D1819" transform="translate(206,152)"/>
<path d="M0 0 C5.80401336 4.03989877 5.80401336 4.03989877 6.65625 8.21484375 C6.6046875 9.44332031 6.553125 10.67179688 6.5 11.9375 C6.47663574 12.61989746 6.45327148 13.30229492 6.42919922 14.00537109 C6.33023527 16.34164574 6.17239825 18.66801403 6 21 C5.9371582 21.88091309 5.87431641 22.76182617 5.80957031 23.66943359 C5.13703535 32.65708982 4.27569817 41.59556166 2.875 50.5 C1.23128725 61.34591564 1.88502733 72.12901651 3 83 C2.01 83 1.02 83 0 83 C-0.66 81.35 -1.32 79.7 -2 78 C-2.99 79.65 -3.98 81.3 -5 83 C-8.24782636 79.89403273 -11.05931368 76.5407626 -13.8125 73 C-14.27825439 72.4033252 -14.74400879 71.80665039 -15.22387695 71.19189453 C-43 35.44170009 -43 35.44170009 -43 31 C-41.64916992 29.80175781 -41.64916992 29.80175781 -39.73046875 28.453125 C-39.01536133 27.94450928 -38.30025391 27.43589355 -37.56347656 26.91186523 C-36.7794043 26.36344971 -35.99533203 25.81503418 -35.1875 25.25 C-33.53965418 24.08042734 -31.8925436 22.90981824 -30.24609375 21.73828125 C-29.38612793 21.12807129 -28.52616211 20.51786133 -27.64013672 19.88916016 C-22.50377891 16.21381923 -17.44176378 12.43704858 -12.37182617 8.67089844 C-8.31391858 5.66698713 -4.23090792 2.75547984 0 0 Z " fill="#221D1F" transform="translate(87,152)"/>
<path d="M0 0 C10.05859375 -0.09765625 10.05859375 -0.09765625 13 0 C14.57960971 1.57960971 14.1377803 3.17577394 14.15148926 5.36929321 C14.15983292 6.31347107 14.16817657 7.25764893 14.17677307 8.23043823 C14.1830497 9.79787277 14.1830497 9.79787277 14.18945312 11.39697266 C14.19774643 12.49158813 14.20603973 13.58620361 14.21458435 14.71398926 C14.23204274 17.10446315 14.24719345 19.49495471 14.26036072 21.88545609 C14.28138928 25.68925646 14.30842586 29.49297201 14.33703613 33.29672241 C14.39181283 40.71982141 14.44010332 48.14294917 14.48697662 55.56610107 C14.55031013 65.57865662 14.61737778 75.59116915 14.69187927 85.60364914 C14.71804215 89.31368512 14.73912256 93.02372565 14.7598877 96.73379517 C14.84546281 109.59131194 15.14228711 122.41032411 15.78160095 135.25268555 C16.06181322 140.96136541 16.11869564 146.66033594 16.0625 152.375 C16.05798828 153.31214844 16.05347656 154.24929687 16.04882812 155.21484375 C16.03730515 157.47663848 16.02029996 159.73827192 16 162 C16 162.33 16 162.66 16 163 C17.485 162.01 17.485 162.01 19 161 C20.77600753 173.65405366 20.09456597 186.31476229 19 199 C19.99 199.66 20.98 200.32 22 201 C18.45344031 208.93733507 10.88423231 212.39433646 3.3125 215.8125 C2.47138672 216.20630859 1.63027344 216.60011719 0.76367188 217.00585938 C-2.80374476 218.6551884 -6.15084093 220.14613916 -10 221 C-10.268125 219.948125 -10.53625 218.89625 -10.8125 217.8125 C-11.77846794 214.05581566 -11.77846794 214.05581566 -13.75 211.4375 C-15 209 -15 209 -14.3125 205.8125 C-13 203 -13 203 -11 201 C-10.59952556 198.67724823 -10.2602896 196.34260643 -10 194 C-9.67 195.32 -9.34 196.64 -9 198 C-4.14616192 193.4495268 0.08224395 188.3742578 4 183 C4.69319336 182.09258057 5.38638672 181.18516113 6.10058594 180.25024414 C9.33932906 174.45747704 8.46684937 167.73367162 8.35546875 161.30078125 C8.34502155 159.81493334 8.33654686 158.32907044 8.32989502 156.84320068 C8.3123372 153.66204038 8.28302034 150.48129669 8.24435425 147.30032349 C8.15302755 139.68874074 8.12533666 132.07677691 8.0906086 124.46476555 C8.07805161 121.84405797 8.06318007 119.22337043 8.04808044 116.60267639 C7.95845329 99.79865961 8.13567004 83.00228459 8.40393448 66.20058823 C8.43691986 64.09945407 8.46788915 61.99830043 8.49813843 59.89712524 C8.76321475 41.58642424 9.2700663 23.29780216 10 5 C8.68 4.67 7.36 4.34 6 4 C6 3.34 6 2.68 6 2 C4.68 1.67 3.36 1.34 2 1 C2 6.28 2 11.56 2 17 C1.67 17 1.34 17 1 17 C0.67 11.39 0.34 5.78 0 0 Z " fill="#231D1E" transform="translate(186,37)"/>
<path d="M0 0 C2.64 0 5.28 0 8 0 C8.70586721 31.36527178 9.31174019 62.73153923 9.81948471 94.10065556 C9.93508791 101.20655882 10.05994082 108.31221331 10.19272614 115.41781521 C10.3930934 126.17609979 10.55942034 136.93374938 10.65647125 147.69350338 C10.70198615 152.67699039 10.76416703 157.65887965 10.86865234 162.64151001 C10.96558102 167.3006159 11.0152216 171.95778756 11.02765656 176.6178627 C11.04029358 178.31522476 11.06997246 180.01256067 11.11815643 181.70928574 C11.18106615 184.01916118 11.18180272 186.32109468 11.16699219 188.6315918 C11.18316589 189.91817184 11.1993396 191.20475189 11.21600342 192.53031921 C9.32197799 197.93463267 4.95916719 199.56612049 0 202 C0.00092179 201.43924806 0.00184359 200.87849611 0.00279331 200.30075169 C0.02536637 186.33592967 0.04165369 172.37111053 0.05181217 158.40627384 C0.05686146 151.65161981 0.06381121 144.89698087 0.07543945 138.14233398 C0.12754672 107.055197 -0.00025215 75.98635983 -0.64744568 44.9052887 C-0.86003388 34.66901223 -1.05344914 24.43418803 -1.09350586 14.19555664 C-1.10000688 13.33508193 -1.10650789 12.47460722 -1.11320591 11.58805752 C-1.11633719 7.58845532 -1.00184763 3.90329242 0 0 Z " fill="#E65C35" transform="translate(128,37)"/>
<path d="M0 0 C2.97 0 5.94 0 9 0 C8.89867835 6.04346249 8.79704538 12.08691963 8.69506836 18.13037109 C8.61684463 22.76639418 8.5390736 27.40242429 8.46193409 32.0384655 C8.23155193 45.86723176 7.99186424 59.69558566 7.7109375 73.5234375 C7.24420542 96.74505546 6.89448452 119.96071423 6.875 143.1875 C6.87261322 144.85410675 6.87261322 144.85410675 6.87017822 146.55438232 C6.86234376 156.90599851 6.88660643 167.24149802 7.40234375 177.58203125 C7.45258698 178.63332466 7.45258698 178.63332466 7.50384521 179.70585632 C7.6564166 182.79180093 7.84153266 185.8696041 8.08349609 188.94995117 C8.51826205 196.15097628 8.51826205 196.15097628 6.89599609 198.80859375 C5.51171875 200.21875 5.51171875 200.21875 3 202 C1.04636955 201.24861622 1.04636955 201.24861622 -1 200 C-1.60482597 198.19995403 -1.60482597 198.19995403 -1.74191284 196.0221405 C-1.79718014 195.21318518 -1.85244743 194.40422985 -1.9093895 193.57076073 C-2.06134036 189.25967859 -2.13887863 184.95967285 -2.12939453 180.64575195 C-2.13114685 179.64853119 -2.13289917 178.65131042 -2.13470459 177.62387085 C-2.13909726 174.32865645 -2.13618409 171.03349621 -2.1328125 167.73828125 C-2.13348863 165.39186086 -2.13446121 163.04544054 -2.13571167 160.69902039 C-2.13718713 155.75368592 -2.13504759 150.80836948 -2.13037109 145.86303711 C-2.12481326 139.70217435 -2.12796376 133.54135611 -2.13380814 127.38049507 C-2.15430548 101.90982605 -2.02355586 76.44718709 -1.5546875 50.98046875 C-1.53527225 49.89849024 -1.51585701 48.81651173 -1.49585342 47.70174599 C-1.20303995 31.79223598 -0.66294735 15.89822023 0 0 Z " fill="#E75D36" transform="translate(168,41)"/>
<path d="M0 0 C2.64663654 0.35765359 4.57262475 0.70692326 6.79309082 2.22962952 C8.46523816 4.68244066 8.3491419 6.36960747 8.31054688 9.32592773 C8.30349731 10.41865494 8.29644775 11.51138214 8.28918457 12.63722229 C8.25431946 14.42361366 8.25431946 14.42361366 8.21875 16.24609375 C8.20614136 17.4944249 8.19353271 18.74275604 8.18054199 20.02891541 C8.14336864 23.35723787 8.0929054 26.68474788 8.03411865 30.0127182 C7.98002477 33.16348126 7.93820524 36.31440979 7.89453125 39.46533203 C7.7685643 48.04421528 7.61510395 56.62260636 7.46177673 65.20103455 C7.14781739 82.87134245 6.95328871 100.53095781 7.08959961 118.20414543 C7.10924835 120.80743841 7.12588534 123.41073388 7.14160156 126.01405334 C7.15226423 127.72738697 7.16300599 129.44072011 7.17382812 131.15405273 C7.1791304 131.99468419 7.18443268 132.83531565 7.18989563 133.70142078 C7.22414915 138.69159954 7.28209016 143.6808598 7.35657883 148.6705904 C7.39805707 151.78249307 7.41902457 154.89430545 7.43494415 158.00643349 C7.44688503 159.44918429 7.46769941 160.89189425 7.49822235 162.33437157 C7.65133863 169.71903348 7.69675134 175.57400744 3.37078857 181.77020264 C2 183 2 183 -1 183 C-0.95875 182.0925 -0.9175 181.185 -0.875 180.25 C-0.86310671 177.02929672 -1.3438149 174.13492598 -1.9921875 170.984375 C-3.50681703 162.02046088 -3.29686107 153.06302369 -3.25 144 C-3.2478952 142.98707886 -3.24579041 141.97415771 -3.24362183 140.93054199 C-3.18520785 116.0334175 -2.60048306 91.14033917 -2.0625 66.25 C-2.04075211 65.23663574 -2.01900421 64.22327148 -1.99659729 63.17919922 C-1.86851603 57.22635681 -1.73659135 51.27361803 -1.59949303 45.32097626 C-1.55760399 43.49443979 -1.51642099 41.66788695 -1.47605324 39.84131622 C-1.18009387 26.55034265 -0.65298171 13.27815437 0 0 Z " fill="#E45B35" transform="translate(188,38)"/>
<path d="M0 0 C0.33 0 0.66 0 1 0 C1.75584848 18.41910281 2.24358237 36.82982391 2.53515625 55.26171875 C2.57838273 57.87848715 2.62179824 60.49525243 2.66539001 63.11201477 C2.7555001 68.54640749 2.84343217 73.98083188 2.92993164 79.4152832 C3.02877046 85.62349724 3.13098493 91.83164865 3.23503023 98.03977746 C3.33674979 104.11324283 3.43615663 110.1867437 3.53457451 116.26026344 C3.57590152 118.79986248 3.6177485 121.33945311 3.66017342 123.87903404 C3.86574887 136.25884974 4.0365174 148.63710645 4.05249023 161.01879883 C4.05464318 161.95953341 4.05679613 162.900268 4.05901432 163.8695097 C4.04077691 187.090504 4.04077691 187.090504 2.30859375 196.92578125 C2.20675781 197.94027344 2.10492188 198.95476562 2 200 C3.62553283 201.70680947 5.29115995 203.37660195 7 205 C7.25631474 209.74182275 3.80185006 214.33168186 1 218 C0.01 218.66 -0.98 219.32 -2 220 C-3.92602539 219.52783203 -3.92602539 219.52783203 -6.09765625 218.5078125 C-6.89494141 218.13615967 -7.69222656 217.76450684 -8.51367188 217.3815918 C-9.7753418 216.75957886 -9.7753418 216.75957886 -11.0625 216.125 C-11.91779297 215.71096924 -12.77308594 215.29693848 -13.65429688 214.87036133 C-21.22840178 211.09410846 -29.61529247 206.55540808 -34 199 C-33.85546875 196.640625 -33.85546875 196.640625 -33.1875 194.25 C-32.86845703 193.05117188 -32.86845703 193.05117188 -32.54296875 191.828125 C-32.36378906 191.22484375 -32.18460937 190.6215625 -32 190 C-30.22293791 192.66559313 -29.12451727 195.0280615 -28 198 C-27.67 197.67 -27.34 197.34 -27 197 C-27.09374994 194.93447717 -27.25236473 192.8718442 -27.4375 190.8125 C-28.48311667 176.99641841 -27.58139999 164.55234994 -25 151 C-24.67 151 -24.34 151 -24 151 C-23.97421875 151.68964844 -23.9484375 152.37929687 -23.921875 153.08984375 C-23.55719656 159.13190248 -22.58730959 163.81572169 -19.83984375 169.22265625 C-19 171 -19 171 -19 173 C-18.34 173 -17.68 173 -17 173 C-16.731875 173.60585937 -16.46375 174.21171875 -16.1875 174.8359375 C-11.93305245 183.93261811 -6.09024865 190.95866472 1 198 C1.02365673 184.08613929 1.0411762 170.17228371 1.05181217 156.25840664 C1.05692877 149.79067184 1.06380855 143.32295123 1.07543945 136.85522461 C1.12975214 105.83102916 0.94609808 74.82852964 0.2892704 43.81066704 C0.26728773 42.77035395 0.24530506 41.73004086 0.22265625 40.65820312 C0.20131811 39.64888796 0.17997997 38.63957279 0.15799522 37.59967232 C-0.09573235 25.0670018 -0.11116812 12.53463288 0 0 Z " fill="#31211F" transform="translate(116,37)"/>
<path d="M0 0 C3.3 0 6.6 0 10 0 C10.1452745 35.01339012 9.77857514 69.99509889 9 105 C8.67 105 8.34 105 8 105 C7.67 110.61 7.34 116.22 7 122 C5.68 122 4.36 122 3 122 C3.33 121.484375 3.66 120.96875 4 120.4375 C5.32010877 117.21973488 5.13242105 114.4429472 5 111 C4.34 110.67 3.68 110.34 3 110 C3 108.02 3 106.04 3 104 C2.01 104 1.02 104 0 104 C-0.33 112.91 -0.66 121.82 -1 131 C-1.33 131 -1.66 131 -2 131 C-2.11497479 104.8494254 -2.03100449 78.70963959 -1.5625 52.5625 C-1.54285187 51.42095459 -1.52320374 50.27940918 -1.50296021 49.10327148 C-1.21589815 32.72553258 -0.6850253 16.36580085 0 0 Z " fill="#D25332" transform="translate(148,37)"/>
<path d="M0 0 C1.32 0 2.64 0 4 0 C5.59945507 44.94931598 6.08004549 89.96144286 6.125 134.9375 C6.1275882 136.12796936 6.13017639 137.31843872 6.13284302 138.54498291 C6.17399404 162.25086777 6.17399404 162.25086777 5 173 C4.34 173 3.68 173 3 173 C-1.3814349 165.00729658 -2.69641798 158.68012038 -2.375 149.625 C-2.36082031 148.61050781 -2.34664063 147.59601563 -2.33203125 146.55078125 C-2.24092699 141.57648878 -2.04032233 136.6119467 -1.76567078 131.64482117 C-0.96882411 117.02789346 -0.78468228 102.42910379 -0.68359375 87.79296875 C-0.66296329 85.24465139 -0.64196552 82.69633699 -0.62062073 80.14802551 C-0.57157004 74.18823834 -0.52614905 68.22843094 -0.48259836 62.26860172 C-0.43269096 55.46773335 -0.37797668 48.66690609 -0.32291877 41.86607778 C-0.21004436 27.91075709 -0.10301094 13.95539674 0 0 Z " fill="#97402A" transform="translate(94,37)"/>
<path d="M0 0 C0.99 0.33 1.98 0.66 3 1 C3.00634791 1.86494756 3.00634791 1.86494756 3.01282406 2.74736881 C3.11692127 16.89224625 3.22566313 31.03708193 3.33933926 45.18188572 C3.39420838 52.02269081 3.44760468 58.86350101 3.49731445 65.7043457 C3.54542496 72.3244996 3.5979297 78.94460989 3.65294075 85.56471062 C3.6730877 88.07162316 3.69184049 90.57854738 3.70907402 93.08548164 C3.81261716 107.99198127 4.14255642 122.85685499 4.88905144 137.74563789 C6.18156124 164.00812439 6.18156124 164.00812439 0 172 C-0.33 172 -0.66 172 -1 172 C-1.91043761 165.80459411 -2.14582137 159.79205834 -2.1328125 153.53515625 C-2.13417709 152.50214386 -2.13554169 151.46913147 -2.13694763 150.40481567 C-2.13899635 146.95734607 -2.13256778 143.50996117 -2.125 140.0625 C-2.12378143 138.8625943 -2.12256287 137.6626886 -2.12130737 136.42642212 C-2.09639702 115.12458327 -1.88009231 93.82556962 -1.59383392 72.5257988 C-1.56311238 70.23319901 -1.53313829 67.94059032 -1.50323486 65.64797974 C-1.21406334 43.75821303 -0.68309952 21.88094433 0 0 Z " fill="#E25C36" transform="translate(197,37)"/>
<path d="M0 0 C5.80401336 4.03989877 5.80401336 4.03989877 6.65625 8.21484375 C6.6046875 9.44332031 6.553125 10.67179688 6.5 11.9375 C6.47663574 12.61989746 6.45327148 13.30229492 6.42919922 14.00537109 C6.33023527 16.34164574 6.17239825 18.66801403 6 21 C5.9057373 22.32136963 5.9057373 22.32136963 5.80957031 23.66943359 C5.13703535 32.65708982 4.27569817 41.59556166 2.875 50.5 C1.23128725 61.34591564 1.88502733 72.12901651 3 83 C2.01 83 1.02 83 0 83 C-3.08359912 75.22396745 -4.14964063 68.50924558 -4.0625 60.171875 C-4.05871338 59.34165833 -4.05492676 58.51144165 -4.05102539 57.65606689 C-4.0388695 55.02065693 -4.02022754 52.3853596 -4 49.75 C-3.97346925 46.26562817 -3.95346611 42.78130939 -3.9375 39.296875 C-3.92920166 38.49481628 -3.92090332 37.69275757 -3.91235352 36.86639404 C-3.79238182 32.80268172 -3.79238182 32.80268172 -5 29 C-4.93625554 27.1427182 -4.79985276 25.28763122 -4.625 23.4375 C-4.52316406 22.35984375 -4.42132813 21.2821875 -4.31640625 20.171875 C-4.21199219 19.12515625 -4.10757813 18.0784375 -4 17 C-3.92652344 16.15953125 -3.85304688 15.3190625 -3.77734375 14.453125 C-2.65892857 2.65892857 -2.65892857 2.65892857 0 0 Z " fill="#100B0C" transform="translate(87,152)"/>
<path d="M0 0 C0.99 0 1.98 0 3 0 C3.75628996 31.29551996 4.09514605 62.57151999 4.0625 93.875 C4.06164398 94.70169567 4.06078796 95.52839134 4.05990601 96.3801384 C4.04854901 106.58678194 4.02852237 116.79338949 4 127 C3.01 127.495 3.01 127.495 2 128 C1.505 125.525 1.505 125.525 1 123 C0.34 123 -0.32 123 -1 123 C-0.67 82.41 -0.34 41.82 0 0 Z " fill="#E05B35" transform="translate(94,37)"/>
<path d="M0 0 C5.63826337 0.63829397 11.44481729 3.1224369 15.11328125 7.546875 C15.50902344 8.15015625 15.90476563 8.7534375 16.3125 9.375 C13.31651561 11.37232292 12.28757493 11.68606679 8.86328125 12.0078125 C8.01572266 12.09160156 7.16816406 12.17539063 6.29492188 12.26171875 C5.41384766 12.34035156 4.53277344 12.41898438 3.625 12.5 C2.28598633 12.62955078 2.28598633 12.62955078 0.91992188 12.76171875 C-1.2819515 12.97366378 -3.48426609 13.17779012 -5.6875 13.375 C-5.3575 15.355 -5.0275 17.335 -4.6875 19.375 C-5.70070312 19.64054687 -6.71390625 19.90609375 -7.7578125 20.1796875 C-9.10940177 20.53635689 -10.46096278 20.89313343 -11.8125 21.25 C-12.47765625 21.42402344 -13.1428125 21.59804688 -13.828125 21.77734375 C-17.83547664 22.8381133 -21.76702899 24.01932311 -25.6875 25.375 C-24.9375 17.625 -24.9375 17.625 -22.6875 15.375 C-20.02083333 15.375 -17.35416667 15.375 -14.6875 15.375 C-14.6875 14.385 -14.6875 13.395 -14.6875 12.375 C-16.0075 11.715 -17.3275 11.055 -18.6875 10.375 C-15.11234889 5.2267824 -11.18314035 2.39811425 -5.125 0.625 C-3.41299139 0.44940937 -1.70447663 0.23783395 0 0 Z " fill="#241D1D" transform="translate(147.6875,235.625)"/>
<path d="M0 0 C0.99 0.33 1.98 0.66 3 1 C3 33.34 3 65.68 3 99 C2.34 98.01 1.68 97.02 1 96 C0.67 100.29 0.34 104.58 0 109 C-0.33 109 -0.66 109 -1 109 C-1.02364501 99.95607788 -1.04117071 90.91216711 -1.05181217 81.86822033 C-1.05693114 77.6643327 -1.06381584 73.46046687 -1.07543945 69.2565918 C-1.13764854 46.15155853 -0.80926607 23.09148464 0 0 Z " fill="#D85733" transform="translate(197,37)"/>
<path d="M0 0 C0.33 0 0.66 0 1 0 C1 2.31 1 4.62 1 7 C1.66 7 2.32 7 3 7 C3.19658808 8.41543415 3.38187546 9.83244031 3.5625 11.25 C3.66691406 12.03890625 3.77132812 12.8278125 3.87890625 13.640625 C4 16 4 16 3.46484375 17.859375 C2.77644597 21.02947569 3.5025757 23.80227238 4 27 C4.27735625 30.28825848 4.45368549 33.57971504 4.625 36.875 C4.6765625 37.74125 4.728125 38.6075 4.78125 39.5 C4.84699219 40.73363281 4.84699219 40.73363281 4.9140625 41.9921875 C4.9548291 42.73839355 4.9955957 43.48459961 5.03759766 44.25341797 C5 46 5 46 4 47 C3.95221351 48.47839456 3.96309002 49.95879392 4 51.4375 C4.05263647 56.65603002 3.84406103 61.84184925 3 67 C2.505 67.495 2.505 67.495 2 68 C1.76298761 70.85877909 1.57780818 73.69883297 1.4375 76.5625 C1.39431641 77.36880859 1.35113281 78.17511719 1.30664062 79.00585938 C1.20024738 81.00368805 1.09959112 83.0018207 1 85 C0.67 85 0.34 85 0 85 C-0.29220701 81.02101098 -0.57655313 77.04153506 -0.85449219 73.06152344 C-0.99547032 71.06417557 -1.14217164 69.06723423 -1.2890625 67.0703125 C-2.32855117 52.07197593 -2.03117404 37.11229833 -1.62768555 22.09472656 C-1.5612826 19.57887573 -1.5022835 17.06291088 -1.44335938 14.546875 C-1.40148872 12.94009245 -1.35918804 11.33332104 -1.31640625 9.7265625 C-1.29969376 8.97774811 -1.28298126 8.22893372 -1.26576233 7.45742798 C-1.11439772 2.22879545 -1.11439772 2.22879545 0 0 Z " fill="#DB5431" transform="translate(140,86)"/>
<path d="M0 0 C0.33 0 0.66 0 1 0 C1 16.83 1 33.66 1 51 C-0.98 51.66 -2.96 52.32 -5 53 C-5 37.82 -5 22.64 -5 7 C-4.34 8.32 -3.68 9.64 -3 11 C-1.06604999 8.09907498 -0.69868059 7.10325263 -0.375 3.8125 C-0.189375 1.9253125 -0.189375 1.9253125 0 0 Z " fill="#EB6138" transform="translate(144,180)"/>
<path d="M0 0 C0.99 0.33 1.98 0.66 3 1 C0.525 2.485 0.525 2.485 -2 4 C2.53832753 5.81602517 2.53832753 5.81602517 7 5 C9.1387261 8.20808915 9.47730962 9.27698497 9 13 C8.01 13.66 7.02 14.32 6 15 C3.97854444 14.31476083 1.96029394 13.61836152 -0.0390625 12.87109375 C-6.17788419 11.06508156 -12.65263128 10.66199551 -19 10 C-19 9.01 -19 8.02 -19 7 C-20.32 6.34 -21.64 5.68 -23 5 C-19.99940216 2.99960144 -19.0112407 2.69866136 -15.5859375 2.40234375 C-14.32136719 2.28342773 -14.32136719 2.28342773 -13.03125 2.16210938 C-12.1546875 2.08798828 -11.278125 2.01386719 -10.375 1.9375 C-8.63246652 1.78382176 -6.89025183 1.62646916 -5.1484375 1.46484375 C-3.99093994 1.36610962 -3.99093994 1.36610962 -2.81005859 1.26538086 C-0.9823889 1.18140614 -0.9823889 1.18140614 0 0 Z " fill="#292121" transform="translate(162,245)"/>
<path d="M0 0 C3.63 0 7.26 0 11 0 C11.05190625 17.40406631 11.05245049 34.80466373 10.78125 52.20703125 C10.76473798 53.27102803 10.76473798 53.27102803 10.74789238 54.3565197 C10.69074778 58.00683624 10.63194506 61.65712418 10.57247925 65.30740356 C10.14974235 91.3931757 9.90461181 117.47321588 9.9375 143.5625 C9.93878403 144.58434576 9.93878403 144.58434576 9.94009399 145.62683487 C9.95111666 153.75125244 9.97064755 161.87562836 10 170 C9.34 170 8.68 170 8 170 C7.89269971 135.52667939 7.89330171 101.05838322 8.40571976 66.58802795 C8.43698075 64.47263668 8.46711614 62.35723185 8.49703979 60.24182129 C8.76110422 41.81657457 9.26338828 23.41230917 10 5 C8.68 4.67 7.36 4.34 6 4 C6 3.34 6 2.68 6 2 C4.68 1.67 3.36 1.34 2 1 C2 6.28 2 11.56 2 17 C1.67 17 1.34 17 1 17 C0.67 11.39 0.34 5.78 0 0 Z " fill="#6F3223" transform="translate(186,37)"/>
<path d="M0 0 C2.55238023 3.88890878 2.4463927 8.08931789 2.6328125 12.5859375 C2.67446533 13.43202072 2.71611816 14.27810394 2.7590332 15.14982605 C2.89069354 17.8911981 3.0084567 20.63294695 3.125 23.375 C3.21059123 25.2447187 3.29636606 27.114429 3.38232422 28.98413086 C3.94618263 41.66221915 4.26470396 54.30891547 4 67 C2.68 67 1.36 67 0 67 C-0.33 66.01 -0.66 65.02 -1 64 C-0.505 63.505 -0.505 63.505 0 63 C0.10829396 61.62960602 0.14899701 60.25376305 0.16113281 58.87915039 C0.17554413 57.56757713 0.17554413 57.56757713 0.19024658 56.22950745 C0.19449646 55.27849655 0.19874634 54.32748566 0.203125 53.34765625 C0.20882507 52.37718857 0.21452515 51.40672089 0.22039795 50.40684509 C0.22986293 48.34977311 0.23638785 46.29268586 0.24023438 44.2355957 C0.24994823 41.0793227 0.28096097 37.92369833 0.3125 34.76757812 C0.3190288 32.77344139 0.32427975 30.77929997 0.328125 28.78515625 C0.3404718 27.83616959 0.3528186 26.88718292 0.36553955 25.90943909 C0.3610379 24.59313759 0.3610379 24.59313759 0.35644531 23.25024414 C0.36009094 22.4760463 0.36373657 21.70184845 0.36749268 20.90419006 C0.24622009 20.27580734 0.12494751 19.64742462 0 19 C-0.99 18.34 -1.98 17.68 -3 17 C-2.69268013 14.35346869 -2.37940678 11.707885 -2.0625 9.0625 C-1.97548828 8.30775391 -1.88847656 7.55300781 -1.79882812 6.77539062 C-1.11328125 1.11328125 -1.11328125 1.11328125 0 0 Z " fill="#D75733" transform="translate(198,132)"/>
<path d="M0 0 C0.99 0 1.98 0 3 0 C3.02483101 4.44742458 3.04292183 8.89481178 3.05493164 13.34228516 C3.05994162 14.85336002 3.06675144 16.36443009 3.07543945 17.87548828 C3.08765176 20.05502512 3.09326178 22.23449753 3.09765625 24.4140625 C3.10289307 25.7232666 3.10812988 27.0324707 3.11352539 28.38134766 C3 32 3 32 2.5 34.8359375 C1.79430502 39.30166355 1.87733404 43.69733118 1.90234375 48.2109375 C1.9037587 49.17907379 1.90517365 50.14721008 1.90663147 51.14468384 C1.91220635 54.22148799 1.92475423 57.29821803 1.9375 60.375 C1.94251825 62.46744686 1.94708059 64.55989487 1.95117188 66.65234375 C1.96216755 71.7682575 1.97941485 76.88411621 2 82 C2.33 82 2.66 82 3 82 C3 86.62 3 91.24 3 96 C2.01 95.34 1.02 94.68 0 94 C-0.28605123 90.97973549 -0.37795795 88.16547516 -0.34057617 85.14404297 C-0.34101425 84.22691528 -0.34145233 83.3097876 -0.34190369 82.36486816 C-0.33980832 79.32376043 -0.31644202 76.2831993 -0.29296875 73.2421875 C-0.28737546 71.13754579 -0.2831041 69.03290018 -0.28010559 66.92825317 C-0.26863584 61.38134021 -0.23915031 55.83466188 -0.20599365 50.2878418 C-0.17533865 44.63072891 -0.16161004 38.97357821 -0.14648438 33.31640625 C-0.11428268 22.21083426 -0.06306061 11.10543662 0 0 Z " fill="#E46138" transform="translate(94,37)"/>
<path d="M0 0 C1.80078125 2.171875 1.80078125 2.171875 3 4 C-0.20406462 6.13604308 -0.99600747 6.24208908 -4.66796875 6.1953125 C-5.56064453 6.18886719 -6.45332031 6.18242187 -7.37304688 6.17578125 C-8.76620117 6.15064453 -8.76620117 6.15064453 -10.1875 6.125 C-11.12787109 6.11597656 -12.06824219 6.10695312 -13.03710938 6.09765625 C-15.35832968 6.07409056 -17.67903644 6.04119116 -20 6 C-19.979375 4.906875 -19.95875 3.81375 -19.9375 2.6875 C-19.81455548 -0.94384191 -19.81455548 -0.94384191 -21 -4 C-12.71167003 -5.95019529 -7.12202549 -4.65812338 0 0 Z " fill="#282425" transform="translate(161,241)"/>
<path d="M0 0 C0.33 0 0.66 0 1 0 C1.14782477 25.01877364 0.76295728 49.99285776 0 75 C-0.33 75 -0.66 75 -1 75 C-1.03425331 74.17767128 -1.03425331 74.17767128 -1.06919861 73.33872986 C-1.30844038 67.61178494 -1.55259881 61.88506436 -1.79956055 56.15844727 C-1.89098119 54.02373486 -1.98116533 51.88896912 -2.07006836 49.75415039 C-2.19837404 46.67839806 -2.33118524 43.60286756 -2.46484375 40.52734375 C-2.52272316 39.10505714 -2.52272316 39.10505714 -2.58177185 37.65403748 C-2.75591229 33.73077649 -2.96483789 29.87393098 -3.56469727 25.99047852 C-4 23 -4 23 -3.5 20.625 C-2.86672564 17.3003096 -3.38392494 14.49974546 -3.94140625 11.18359375 C-4.01104025 8.58856681 -3.31438525 7.20396918 -2 5 C-1.34 5 -0.68 5 0 5 C0 3.35 0 1.7 0 0 Z " fill="#EE6339" transform="translate(146,83)"/>
<path d="M0 0 C3.3 0 6.6 0 10 0 C10.12440048 31.35083607 9.91677188 62.66151876 9 94 C8.67 94 8.34 94 8 94 C7.97638124 86.39979236 7.9588416 78.79958871 7.94818783 71.19935226 C7.94306356 67.6667421 7.93616785 64.13415778 7.92456055 60.6015625 C7.86409899 41.70702011 8.16394855 22.88006767 9 4 C6.69 4 4.38 4 2 4 C1.67 11.26 1.34 18.52 1 26 C0.67 26 0.34 26 0 26 C0 17.42 0 8.84 0 0 Z " fill="#823422" transform="translate(148,37)"/>
<path d="M0 0 C0.99 0.33 1.98 0.66 3 1 C3 30.04 3 59.08 3 89 C2.67 89 2.34 89 2 89 C1.9845388 88.06158768 1.9845388 88.06158768 1.96876526 87.10421753 C1.86043984 80.58272398 1.74586365 74.06136135 1.62768555 67.54003906 C1.58442007 65.10744979 1.54273917 62.67483178 1.50268555 60.2421875 C1.44477968 56.74209951 1.38114377 53.24215499 1.31640625 49.7421875 C1.29969376 48.65759247 1.28298126 47.57299744 1.26576233 46.45553589 C1.16920939 41.51488205 0.86468211 36.87208431 0 32 C-0.07929696 29.47238821 -0.10777159 26.94289762 -0.09765625 24.4140625 C-0.0962413 23.71227875 -0.09482635 23.010495 -0.09336853 22.28744507 C-0.0878129 20.06658496 -0.07526892 17.84582916 -0.0625 15.625 C-0.05747926 14.11067855 -0.05291736 12.5963555 -0.04882812 11.08203125 C-0.03785807 7.38798748 -0.02062449 3.69400394 0 0 Z " fill="#E57D59" transform="translate(197,37)"/>
<path d="M0 0 C0.66 0 1.32 0 2 0 C2 11.22 2 22.44 2 34 C-1.62120288 30.37879712 -3.75839734 26.87909841 -4.1875 21.765625 C-4.1875 19.84273401 -4.10106491 17.92023323 -4 16 C-3.34 16.33 -2.68 16.66 -2 17 C-1.93941406 15.85660156 -1.87882812 14.71320313 -1.81640625 13.53515625 C-1.73201572 12.04425695 -1.64736698 10.55337225 -1.5625 9.0625 C-1.50352539 7.93038086 -1.50352539 7.93038086 -1.44335938 6.77539062 C-1.11328125 1.11328125 -1.11328125 1.11328125 0 0 Z " fill="#E55D35" transform="translate(96,175)"/>
<path d="M0 0 C0.33 0 0.66 0 1 0 C1.33 2.31 1.66 4.62 2 7 C2.88042969 7.03738281 3.76085937 7.07476562 4.66796875 7.11328125 C5.82941406 7.17902344 6.99085938 7.24476563 8.1875 7.3125 C9.33605469 7.37050781 10.48460937 7.42851562 11.66796875 7.48828125 C15.22751138 8.0349402 17.1681707 8.80193711 20 11 C21.3125 13.1875 21.3125 13.1875 22 15 C21.31035156 14.79503906 20.62070313 14.59007812 19.91015625 14.37890625 C13.9050281 12.65727143 8.22590949 11.51032045 2 11 C2.33 13.97 2.66 16.94 3 20 C2.34 20.33 1.68 20.66 1 21 C0.07811539 18.23434618 -0.11785222 16.61716298 -0.09765625 13.76953125 C-0.09282227 12.56586914 -0.09282227 12.56586914 -0.08789062 11.33789062 C-0.07951172 10.50451172 -0.07113281 9.67113281 -0.0625 8.8125 C-0.05798828 7.96751953 -0.05347656 7.12253906 -0.04882812 6.25195312 C-0.03705403 4.16793845 -0.0191189 2.08396023 0 0 Z " fill="#D2C6C1" transform="translate(200,136)"/>
<path d="M0 0 C0.99 0.33 1.98 0.66 3 1 C3 8.26 3 15.52 3 23 C1.68 23 0.36 23 -1 23 C-1.33 22.01 -1.66 21.02 -2 20 C-1.67 19.67 -1.34 19.34 -1 19 C-0.84379445 17.58672053 -0.74943827 16.1664541 -0.68359375 14.74609375 C-0.64169922 13.89208984 -0.59980469 13.03808594 -0.55664062 12.15820312 C-0.51732422 11.26037109 -0.47800781 10.36253906 -0.4375 9.4375 C-0.39431641 8.53580078 -0.35113281 7.63410156 -0.30664062 6.70507812 C-0.20021858 4.47021515 -0.09820012 2.23523692 0 0 Z " fill="#CC502E" transform="translate(199,176)"/>
<path d="M0 0 C4.43458973 1.3937282 6.87378374 3.60582235 10 7 C6.68629 9.20914 5.6553979 9.22481553 1.8125 9.125 C0.91144531 9.10695312 0.01039063 9.08890625 -0.91796875 9.0703125 C-1.60503906 9.04710937 -2.29210937 9.02390625 -3 9 C-2.01 6.03 -1.02 3.06 0 0 Z " fill="#C6462B" transform="translate(154,238)"/>
<path d="M0 0 C0.33 0 0.66 0 1 0 C1.33 10.56 1.66 21.12 2 32 C2.33 32 2.66 32 3 32 C3 36.62 3 41.24 3 46 C2.01 45.34 1.02 44.68 0 44 C-0.36076355 42.08908081 -0.36076355 42.08908081 -0.34057617 39.73388672 C-0.34034958 38.85312469 -0.34012299 37.97236267 -0.33988953 37.06491089 C-0.32440567 36.11278717 -0.30892181 35.16066345 -0.29296875 34.1796875 C-0.28872391 33.20589142 -0.28447906 32.23209534 -0.28010559 31.22879028 C-0.26327786 28.11058195 -0.22561811 24.99301383 -0.1875 21.875 C-0.17245846 19.76433223 -0.15876914 17.65365436 -0.14648438 15.54296875 C-0.11336109 10.36175977 -0.06312151 5.18092561 0 0 Z " fill="#E57E5D" transform="translate(94,87)"/>
<path d="M0 0 C2.475 0.495 2.475 0.495 5 1 C4.85950482 2.47968324 4.71245174 3.95874516 4.5625 5.4375 C4.48128906 6.26121094 4.40007812 7.08492187 4.31640625 7.93359375 C4 10 4 10 3 11 C2.60006314 13.68862664 2.24865457 16.36352217 1.9375 19.0625 C1.84662109 19.82111328 1.75574219 20.57972656 1.66210938 21.36132812 C1.4375626 23.2404301 1.21829022 25.12016095 1 27 C0.67 27 0.34 27 0 27 C0 18.09 0 9.18 0 0 Z " fill="#EF643A" transform="translate(147,140)"/>
<path d="M0 0 C0.33 0 0.66 0 1 0 C1.33 10.23 1.66 20.46 2 31 C2.66 30.34 3.32 29.68 4 29 C4 32.3 4 35.6 4 39 C3.34 38.01 2.68 37.02 2 36 C1.67 40.29 1.34 44.58 1 49 C0.67 49 0.34 49 0 49 C0 32.83 0 16.66 0 0 Z " fill="#EA603A" transform="translate(196,97)"/>
<path d="M0 0 C3.3 0 6.6 0 10 0 C10.33 1.32 10.66 2.64 11 4 C6.545 4.495 6.545 4.495 2 5 C1.67 11.93 1.34 18.86 1 26 C0.67 26 0.34 26 0 26 C0 17.42 0 8.84 0 0 Z " fill="#D05432" transform="translate(166,37)"/>
<path d="M0 0 C0 3.3 0 6.6 0 10 C-4.29625631 9.51178906 -6.6615409 8.70705488 -10 6 C-8.71283353 4.99421411 -7.42011342 3.99553202 -6.125 3 C-5.40570313 2.443125 -4.68640625 1.88625 -3.9453125 1.3125 C-2 0 -2 0 0 0 Z " fill="#C5452B" transform="translate(140,238)"/>
<path d="M0 0 C3.63 0 7.26 0 11 0 C10.67 9.9 10.34 19.8 10 30 C9.67 30 9.34 30 9 30 C9 21.42 9 12.84 9 4 C6.36 4 3.72 4 1 4 C2.32 3.67 3.64 3.34 5 3 C5 2.34 5 1.68 5 1 C3.35 1 1.7 1 0 1 C0 0.67 0 0.34 0 0 Z " fill="#A9442A" transform="translate(117,37)"/>
<path d="M0 0 C0.99 0.33 1.98 0.66 3 1 C3 2.65 3 4.3 3 6 C3.99 6 4.98 6 6 6 C6 9.96 6 13.92 6 18 C2.37879712 14.37879712 0.24160266 10.87909841 -0.1875 5.765625 C-0.1875 3.84273401 -0.10106491 1.92023323 0 0 Z " fill="#E15C35" transform="translate(92,191)"/>
<path d="M0 0 C2.97 0 5.94 0 9 0 C9.33 1.98 9.66 3.96 10 6 C6.7 6 3.4 6 0 6 C0 4.02 0 2.04 0 0 Z " fill="#545257" transform="translate(141,241)"/>
<path d="M0 0 C0.99 0.33 1.98 0.66 3 1 C2.8584453 4.04192013 2.71190099 7.08346347 2.5625 10.125 C2.52318359 10.9809375 2.48386719 11.836875 2.44335938 12.71875 C2.21843598 17.21721792 1.86459117 21.56806207 1 26 C0.67 26 0.34 26 0 26 C0 17.42 0 8.84 0 0 Z " fill="#E45D38" transform="translate(197,37)"/>
<path d="M0 0 C1.485 0.99 1.485 0.99 3 2 C3.84379768 7.12629771 3.46479466 12.37851 1 17 C0.67 17 0.34 17 0 17 C0 11.39 0 5.78 0 0 Z " fill="#DA5530" transform="translate(94,131)"/>
<path d="M0 0 C2.49118953 3.7367843 2.2065226 5.74451819 2.125 10.1875 C2.10695312 11.45980469 2.08890625 12.73210937 2.0703125 14.04296875 C2.03550781 15.50669922 2.03550781 15.50669922 2 17 C1.01 17 0.02 17 -1 17 C-1.02684679 14.35409986 -1.04676357 11.70846904 -1.0625 9.0625 C-1.07087891 8.30775391 -1.07925781 7.55300781 -1.08789062 6.77539062 C-1.09652441 4.85005687 -1.05224333 2.92464419 -1 1 C-0.67 0.67 -0.34 0.34 0 0 Z " fill="#D04F2F" transform="translate(138,64)"/>
<path d="M0 0 C3.3 0 6.6 0 10 0 C10 1.65 10 3.3 10 5 C8.68 4.67 7.36 4.34 6 4 C6 3.34 6 2.68 6 2 C4.68 1.67 3.36 1.34 2 1 C2 6.28 2 11.56 2 17 C1.67 17 1.34 17 1 17 C0.67 11.39 0.34 5.78 0 0 Z " fill="#A64128" transform="translate(186,37)"/>
<path d="M0 0 C0.33 0 0.66 0 1 0 C1.39476516 3.08113762 1.76231457 6.16493504 2.125 9.25 C2.23714844 10.12269531 2.34929687 10.99539062 2.46484375 11.89453125 C2.56152344 12.73886719 2.65820312 13.58320313 2.7578125 14.453125 C2.8520752 15.22817383 2.94633789 16.00322266 3.04345703 16.80175781 C2.99297286 19.35546289 2.28837662 20.82233985 1 23 C-0.23402862 18.22907044 -0.11265112 13.57530554 -0.0625 8.6875 C-0.05798828 7.85154297 -0.05347656 7.01558594 -0.04882812 6.15429688 C-0.03710548 4.10283351 -0.01917203 2.05140727 0 0 Z " fill="#B74729" transform="translate(92,173)"/>
<path d="M0 0 C1.82976016 3.10996778 2.20629302 5.18182882 1.9765625 8.765625 C1.89921875 10.09980469 1.89921875 10.09980469 1.8203125 11.4609375 C1.75585938 12.38132813 1.69140625 13.30171875 1.625 14.25 C1.56828125 15.18585938 1.5115625 16.12171875 1.453125 17.0859375 C1.31197212 19.39143448 1.1605965 21.69578928 1 24 C0.67 24 0.34 24 0 24 C-2.13672496 6.41017488 -2.13672496 6.41017488 0 0 Z " fill="#D55531" transform="translate(94,165)"/>
<path d="M0 0 C2.64 0 5.28 0 8 0 C7.67 1.65 7.34 3.3 7 5 C4.69 5 2.38 5 0 5 C0 3.35 0 1.7 0 0 Z " fill="#DA5431" transform="translate(98,37)"/>
<path d="M0 0 C2.97 0 5.94 0 9 0 C6.75 2.5 6.75 2.5 4 5 C2.68 5 1.36 5 0 5 C0 3.35 0 1.7 0 0 Z " fill="#DF542F" transform="translate(107,37)"/>
<path d="M0 0 C2.64 0 5.28 0 8 0 C8.33 1.65 8.66 3.3 9 5 C7.35 5 5.7 5 4 5 C3.67 4.01 3.34 3.02 3 2 C2.01 1.34 1.02 0.68 0 0 Z " fill="#DD542F" transform="translate(178,37)"/>
<path d="M0 0 C1.65 0.33 3.3 0.66 5 1 C4.21654285 2.17219543 3.42297164 3.33763668 2.625 4.5 C2.18414062 5.1496875 1.74328125 5.799375 1.2890625 6.46875 C0.86367187 6.9740625 0.43828125 7.479375 0 8 C-0.66 8 -1.32 8 -2 8 C-1.34 5.36 -0.68 2.72 0 0 Z " fill="#262224" transform="translate(215,224)"/>
<path d="M0 0 C3.63 0.33 7.26 0.66 11 1 C10.67 1.99 10.34 2.98 10 4 C6.7 4 3.4 4 0 4 C0 2.68 0 1.36 0 0 Z " fill="#CFCECB" transform="translate(201,143)"/>
<path d="M0 0 C0.99 0.33 1.98 0.66 3 1 C3.33 3.64 3.66 6.28 4 9 C3.01 9.66 2.02 10.32 1 11 C-0.28317892 7.15046324 -0.06643637 4.05261865 0 0 Z " fill="#D05331" transform="translate(92,191)"/>
<path d="M0 0 C0.99 0.33 1.98 0.66 3 1 C3 3.97 3 6.94 3 10 C2.01 10.495 2.01 10.495 1 11 C0.67 7.37 0.34 3.74 0 0 Z " fill="#BD4A2C" transform="translate(199,176)"/>
<path d="M0 0 C0.33 0 0.66 0 1 0 C1 5.94 1 11.88 1 18 C0.01 17.67 -0.98 17.34 -2 17 C-1.505 15.515 -1.505 15.515 -1 14 C-0.77439324 11.60745424 -0.59151405 9.21071877 -0.4375 6.8125 C-0.35371094 5.54019531 -0.26992187 4.26789063 -0.18359375 2.95703125 C-0.12300781 1.98121094 -0.06242188 1.00539063 0 0 Z " fill="#F5663D" transform="translate(146,95)"/>
<path d="M0 0 C1.65 0 3.3 0 5 0 C4.34 0.66 3.68 1.32 3 2 C2.835 2.825 2.67 3.65 2.5 4.5 C2 7 2 7 0 9 C0 6.03 0 3.06 0 0 Z " fill="#D84F2F" transform="translate(137,42)"/>
<path d="M0 0 C0.99 0.33 1.98 0.66 3 1 C2.21654285 2.17219543 1.42297164 3.33763668 0.625 4.5 C0.18414062 5.1496875 -0.25671875 5.799375 -0.7109375 6.46875 C-1.13632813 6.9740625 -1.56171875 7.479375 -2 8 C-2.66 8 -3.32 8 -4 8 C-2.87548273 5.0280615 -1.77706209 2.66559313 0 0 Z " fill="#282426" transform="translate(224,215)"/>
<path d="M0 0 C2.31 0 4.62 0 7 0 C6.01 0.495 6.01 0.495 5 1 C5 1.99 5 2.98 5 4 C3.35 4 1.7 4 0 4 C0 2.68 0 1.36 0 0 Z " fill="#D74D2B" transform="translate(137,37)"/>
<path d="M0 0 C2.31 0 4.62 0 7 0 C7.33 1.32 7.66 2.64 8 4 C3.545 3.01 3.545 3.01 -1 2 C-0.67 1.34 -0.34 0.68 0 0 Z " fill="#141112" transform="translate(160,248)"/>
<path d="M0 0 C0 3.3 0 6.6 0 10 C-0.33 10 -0.66 10 -1 10 C-1 8.02 -1 6.04 -1 4 C-1.99 4 -2.98 4 -4 4 C-4 3.01 -4 2.02 -4 1 C-2 0 -2 0 0 0 Z " fill="#AC4834" transform="translate(140,238)"/>
<path d="M0 0 C2.56995074 1.28497537 2.90434463 2.49912373 4.125 5.0625 C4.47820312 5.79597656 4.83140625 6.52945313 5.1953125 7.28515625 C5.46085937 7.85105469 5.72640625 8.41695312 6 9 C5.01 9.495 5.01 9.495 4 10 C1.16625119 6.79663178 0.4794463 4.21912747 0 0 Z " fill="#2D282A" transform="translate(69,215)"/>
<path d="M0 0 C0.33 0 0.66 0 1 0 C0.67 4.29 0.34 8.58 0 13 C-0.33 13 -0.66 13 -1 13 C-1.2236337 11.58566794 -1.42826476 10.16832382 -1.625 8.75 C-1.74101562 7.96109375 -1.85703125 7.1721875 -1.9765625 6.359375 C-2.00319395 3.67847541 -1.36592084 2.27305911 0 0 Z " fill="#E05532" transform="translate(154,172)"/>
<path d="M0 0 C1.98 0 3.96 0 6 0 C6 0.99 6 1.98 6 3 C3.69 3.33 1.38 3.66 -1 4 C-0.67 2.68 -0.34 1.36 0 0 Z " fill="#121112" transform="translate(127,248)"/>
<path d="M0 0 C0.99 0.33 1.98 0.66 3 1 C2.34 3.64 1.68 6.28 1 9 C0.67 9 0.34 9 0 9 C0 6.03 0 3.06 0 0 Z " fill="#802111" transform="translate(151,237)"/>
</svg>
