<?xml version="1.0" encoding="UTF-8"?>
<svg version="1.1" xmlns="http://www.w3.org/2000/svg" width="298" height="294">
<path d="M0 0 C98.34 0 196.68 0 298 0 C298 97.02 298 194.04 298 294 C199.66 294 101.32 294 0 294 C0 196.98 0 99.96 0 0 Z " fill="#EFEDEC" transform="translate(0,0)"/>
<path d="M0 0 C6.31590951 1.54739783 11.18763508 5.23052969 16.5 8.8125 C24.46159424 14.0997955 32.49654144 19.18038426 40.75 24 C41.67055176 24.53874756 42.59110352 25.07749512 43.53955078 25.63256836 C45.26803646 26.64372142 46.99670285 27.65456565 48.72558594 28.66503906 C69.07567292 40.60946539 76.18537014 53.50030011 85 75 C85.37672852 75.85940186 85.75345703 76.71880371 86.14160156 77.60424805 C87.44594115 81.24460197 86.50404457 84.23027445 85.46972656 87.86181641 C84.49913691 92.27991629 84.76512433 96.87035554 84.75 101.375 C84.74387695 102.45467041 84.73775391 103.53434082 84.73144531 104.64672852 C84.77250888 111.85176325 85.45544621 118.03842729 87.734375 124.90234375 C88.13777941 129.60675102 86.06757149 132.86185182 84 137 C83.34644273 138.49552889 82.70301396 139.99552912 82.0703125 141.5 C74.6864233 158.67715927 67.10268987 168.9590128 50.42089844 177.94165039 C44.32232656 181.22925852 38.3873864 184.72294592 32.5 188.375 C31.62770752 188.91487549 30.75541504 189.45475098 29.85668945 190.01098633 C25.4457793 192.76611874 21.09726732 195.58914345 16.80859375 198.53125 C15.57689453 199.37357178 15.57689453 199.37357178 14.3203125 200.23291016 C12.76633203 201.30381924 11.22027649 202.38634804 9.68359375 203.48193359 C8.99265625 203.95969238 8.30171875 204.43745117 7.58984375 204.9296875 C6.69060181 205.56753174 6.69060181 205.56753174 5.77319336 206.21826172 C4 207 4 207 1.91040039 206.79882812 C-1.3042595 205.45462785 -2.71470804 202.47457272 -4.5 199.625 C-4.92216797 198.97104248 -5.34433594 198.31708496 -5.77929688 197.64331055 C-7.19849695 195.43649562 -8.59913792 193.21849488 -10 191 C-11.08272531 189.3056009 -12.16607542 187.61160091 -13.25 185.91796875 C-15.35045502 182.62270781 -17.44849314 179.32601177 -19.53125 176.01953125 C-19.95986328 175.33995361 -20.38847656 174.66037598 -20.83007812 173.96020508 C-21.98332213 172.02794378 -22.99365955 170.01268089 -24 168 C-21.03 164.535 -21.03 164.535 -18 161 C-20.17655434 160.9845388 -20.17655434 160.9845388 -22.39707947 160.96876526 C-36.03867869 160.87121904 -49.68023234 160.76856275 -63.3217535 160.66066074 C-70.33582305 160.60531291 -77.34989768 160.55182841 -84.36401367 160.50268555 C-91.12671934 160.45529895 -97.88936697 160.40277928 -104.65200996 160.34705925 C-107.23850771 160.32660065 -109.82501989 160.30789352 -112.41154289 160.29092598 C-116.02042768 160.26695931 -119.62921201 160.23689453 -123.23803711 160.20532227 C-124.3191275 160.1995668 -125.4002179 160.19381134 -126.5140686 160.18788147 C-127.49148514 160.17809265 -128.46890167 160.16830383 -129.47593689 160.15821838 C-130.33043899 160.15176583 -131.18494108 160.14531328 -132.06533718 160.1386652 C-134 160 -134 160 -135 159 C-135.09770201 157.5728638 -135.12631695 156.1409257 -135.12698364 154.71044922 C-135.12980347 153.78496277 -135.13262329 152.85947632 -135.13552856 151.90594482 C-135.13249222 150.37082245 -135.13249222 150.37082245 -135.12939453 148.8046875 C-135.13114685 147.733255 -135.13289917 146.66182251 -135.13470459 145.55792236 C-135.13912553 141.99693203 -135.13618426 138.43599089 -135.1328125 134.875 C-135.13348547 132.41259756 -135.13445544 129.95019518 -135.13571167 127.48779297 C-135.13718897 122.31932952 -135.13503305 117.15088332 -135.13037109 111.98242188 C-135.1246738 105.34059273 -135.12795263 98.69880398 -135.13394356 92.05697632 C-135.1375483 86.96996758 -135.13641099 81.8829685 -135.13381577 76.79595947 C-135.13314625 74.3462117 -135.13397575 71.89646307 -135.13629532 69.44671631 C-135.13882042 66.0295579 -135.13498326 62.61246593 -135.12939453 59.1953125 C-135.13141876 58.17189758 -135.13344299 57.14848267 -135.13552856 56.09405518 C-135.13270874 55.16856873 -135.12988892 54.24308228 -135.12698364 53.28955078 C-135.12660662 52.48059357 -135.12622959 51.67163635 -135.12584114 50.83816528 C-135 49 -135 49 -134 48 C-132.48224154 47.89208716 -130.95952031 47.85317288 -129.43797302 47.84178162 C-128.45214233 47.8319928 -127.46631165 47.82220398 -126.4506073 47.81211853 C-124.8149456 47.80348534 -124.8149456 47.80348534 -123.14624023 47.79467773 C-121.43426956 47.77982834 -121.43426956 47.77982834 -119.68771362 47.76467896 C-115.89469516 47.73295372 -112.10166414 47.70826311 -108.30859375 47.68359375 C-105.68685063 47.66303373 -103.0651109 47.64203753 -100.44337463 47.62062073 C-94.23501452 47.57064422 -88.02662841 47.52572386 -81.81821734 47.48259836 C-74.75179224 47.43326827 -67.68541423 47.37833451 -60.61903465 47.32291877 C-46.079401 47.20902265 -31.53972049 47.1022003 -17 47 C-17.65730103 46.29661751 -17.65730103 46.29661751 -18.32788086 45.57902527 C-18.88870361 44.95764175 -19.44952637 44.33625824 -20.02734375 43.69604492 C-20.58929443 43.08274826 -21.15124512 42.4694516 -21.73022461 41.83757019 C-23 40 -23 40 -22.5625 36.86328125 C-21.12126698 34.22222174 -19.67811703 31.68450588 -18 29.1875 C-14.32015514 23.57130072 -10.91911541 17.82141159 -7.55273438 12.0144043 C-5.16303347 7.91033196 -2.67844971 3.92223556 0 0 Z " fill="#C95F34" transform="translate(172,43)"/>
<path d="M0 0 C6.31590951 1.54739783 11.18763508 5.23052969 16.5 8.8125 C24.46159424 14.0997955 32.49654144 19.18038426 40.75 24 C41.67055176 24.53874756 42.59110352 25.07749512 43.53955078 25.63256836 C45.26803646 26.64372142 46.99670285 27.65456565 48.72558594 28.66503906 C69.07567292 40.60946539 76.18537014 53.50030011 85 75 C85.37672852 75.85940186 85.75345703 76.71880371 86.14160156 77.60424805 C87.44594115 81.24460197 86.50404457 84.23027445 85.46972656 87.86181641 C84.49913691 92.27991629 84.76512433 96.87035554 84.75 101.375 C84.74387695 102.45467041 84.73775391 103.53434082 84.73144531 104.64672852 C84.77250888 111.85176325 85.45544621 118.03842729 87.734375 124.90234375 C88.13777941 129.60675102 86.06757149 132.86185182 84 137 C83.34644273 138.49552889 82.70301396 139.99552912 82.0703125 141.5 C74.6864233 158.67715927 67.10268987 168.9590128 50.42089844 177.94165039 C44.32232656 181.22925852 38.3873864 184.72294592 32.5 188.375 C31.62770752 188.91487549 30.75541504 189.45475098 29.85668945 190.01098633 C25.4457793 192.76611874 21.09726732 195.58914345 16.80859375 198.53125 C15.57689453 199.37357178 15.57689453 199.37357178 14.3203125 200.23291016 C12.76633203 201.30381924 11.22027649 202.38634804 9.68359375 203.48193359 C8.6471875 204.19857178 8.6471875 204.19857178 7.58984375 204.9296875 C6.99034912 205.35491699 6.39085449 205.78014648 5.77319336 206.21826172 C4 207 4 207 1.91040039 206.79882812 C-1.3042595 205.45462785 -2.71470804 202.47457272 -4.5 199.625 C-4.92216797 198.97104248 -5.34433594 198.31708496 -5.77929688 197.64331055 C-7.19849695 195.43649562 -8.59913792 193.21849488 -10 191 C-11.08272531 189.3056009 -12.16607542 187.61160091 -13.25 185.91796875 C-15.35045502 182.62270781 -17.44849314 179.32601177 -19.53125 176.01953125 C-19.95986328 175.33995361 -20.38847656 174.66037598 -20.83007812 173.96020508 C-21.98332213 172.02794378 -22.99365955 170.01268089 -24 168 C-22.02 165.69 -20.04 163.38 -18 161 C-39.285 160.505 -39.285 160.505 -61 160 C-61 159.67 -61 159.34 -61 159 C-57.77211225 158.63346987 -54.54259638 158.28398093 -51.3125 157.9375 C-50.40048828 157.83373047 -49.48847656 157.72996094 -48.54882812 157.62304688 C-47.66259766 157.52958984 -46.77636719 157.43613281 -45.86328125 157.33984375 C-45.05157471 157.25081787 -44.23986816 157.16179199 -43.40356445 157.07006836 C-40.78085291 156.99361146 -38.55364125 157.42898475 -36 158 C-34.14751826 158.08933954 -32.2921276 158.13015891 -30.4375 158.125 C-29.04337891 158.12886719 -29.04337891 158.12886719 -27.62109375 158.1328125 C-25.0960128 158.09670309 -25.0960128 158.09670309 -23.10546875 157.4921875 C-20.01671833 156.77014195 -17.03936399 156.9471505 -13.875 157 C-9.27274665 157.26438564 -9.27274665 157.26438564 -5 156 C-3.55151418 155.91657841 -2.09929131 155.89267139 -0.6484375 155.90234375 C0.20234375 155.90556641 1.053125 155.90878906 1.9296875 155.91210938 C2.81914062 155.92048828 3.70859375 155.92886719 4.625 155.9375 C5.5221875 155.94201172 6.419375 155.94652344 7.34375 155.95117188 C9.56252831 155.96297389 11.78127243 155.98090961 14 156 C14 150.72 14 145.44 14 140 C20 142 20 142 22 143 C22 142.34 22 141.68 22 141 C23.65 141.66 25.3 142.32 27 143 C27 138.05 27 133.1 27 128 C25.02 127.34 23.04 126.68 21 126 C19.30792999 125.0436126 17.63183107 124.05589069 16 123 C16 123.99 16 124.98 16 126 C17.485 126.99 17.485 126.99 19 128 C19.29296875 130.3828125 19.29296875 130.3828125 19.1875 133.125 C19.14689453 134.49011719 19.14689453 134.49011719 19.10546875 135.8828125 C19.07066406 136.58148438 19.03585938 137.28015625 19 138 C17.35 137.34 15.7 136.68 14 136 C14.061875 134.783125 14.12375 133.56625 14.1875 132.3125 C14.1875 128.40258304 13.48344958 126.12730688 11 123 C9.515 122.01 9.515 122.01 8 121 C6.38214873 118.36034793 6 117.15987325 6 114 C8.97 114.66 11.94 115.32 15 116 C15.33 117.32 15.66 118.64 16 120 C18.29847487 121.57314972 18.29847487 121.57314972 21.0625 122.75 C21.98160156 123.17796875 22.90070313 123.6059375 23.84765625 124.046875 C24.55792969 124.36140625 25.26820313 124.6759375 26 125 C26.495 123.515 26.495 123.515 27 122 C26.236875 121.71125 25.47375 121.4225 24.6875 121.125 C22 120 22 120 19 118 C19 117.34 19 116.68 19 116 C19.66 116 20.32 116 21 116 C21 115.34 21 114.68 21 114 C22.98 114.66 24.96 115.32 27 116 C26.31114204 112.78938622 26.31114204 112.78938622 23.4375 111.625 C22.633125 111.08875 21.82875 110.5525 21 110 C20.6875 107.3125 20.6875 107.3125 21 105 C22.65 105.33 24.3 105.66 26 106 C26.495 104.515 26.495 104.515 27 103 C25.35 102.34 23.7 101.68 22 101 C22.33 98.69 22.66 96.38 23 94 C18.71 91.69 14.42 89.38 10 87 C10.495 85.02 10.495 85.02 11 83 C8.29065524 81.64532762 5.92224064 81.67679257 2.8984375 81.46484375 C1.68671875 81.37783203 0.475 81.29082031 -0.7734375 81.20117188 C-2.04445312 81.11416016 -3.31546875 81.02714844 -4.625 80.9375 C-5.90375 80.84662109 -7.1825 80.75574219 -8.5 80.66210938 C-11.66641994 80.43762438 -14.83306591 80.21709077 -18 80 C-18.33 78.35 -18.66 76.7 -19 75 C-6.39682657 74.19554212 3.42488546 75.81525068 15.18994141 80.35498047 C17.42526208 81.15154335 19.65729218 81.63639702 22 82 C21.89386164 79.54775306 21.89386164 79.54775306 21 77 C18.52363988 75.62533375 18.52363988 75.62533375 16 75 C19 73 19 73 21 73 C20.89207179 70.0957107 20.89207179 70.0957107 20 67 C17.57327433 65.21030974 17.57327433 65.21030974 15 64 C14.67 63.34 14.34 62.68 14 62 C15.98 62 17.96 62 20 62 C15.30806339 56.854005 9.66913506 52.22304502 3 50 C0.9132439 50 -1.17353303 50.00130333 -3.26025391 50.01342773 C-13.6282458 49.95607111 -13.6282458 49.95607111 -17.96484375 46.93359375 C-19.89180791 44.70695704 -21.52828477 42.54719943 -23 40 C-21.78137746 35.9515953 -20.35489363 32.69153644 -18 29.1875 C-14.32015514 23.57130072 -10.91911541 17.82141159 -7.55273438 12.0144043 C-5.16303347 7.91033196 -2.67844971 3.92223556 0 0 Z " fill="#C95F35" transform="translate(172,43)"/>
<path d="M0 0 C3.81208602 -0.14680981 7.6234332 -0.23457102 11.4375 -0.3125 C12.50677734 -0.35439453 13.57605469 -0.39628906 14.67773438 -0.43945312 C22.15217044 -0.55374114 26.88955121 0.70053195 33 5 C33.86753906 5.57105469 34.73507813 6.14210938 35.62890625 6.73046875 C36.26699219 7.21128906 36.90507812 7.69210938 37.5625 8.1875 C38.22378906 8.67605469 38.88507813 9.16460937 39.56640625 9.66796875 C40.03949219 10.10753906 40.51257813 10.54710938 41 11 C41 11.66 41 12.32 41 13 C39.35 13.33 37.7 13.66 36 14 C36.969375 14.5775 37.93875 15.155 38.9375 15.75 C42 18 42 18 43.0625 20.0625 C43 22 43 22 41.6875 23.6875 C40 25 40 25 38 26 C40.475 26.99 40.475 26.99 43 28 C43 29.65 43 31.3 43 33 C37.59149245 32.66886688 33.20912339 31.3949418 28.125 29.5 C19.54696732 26.37569724 11.05474678 26.11409188 2 26 C2.33 27.65 2.66 29.3 3 31 C4.19496094 30.98839844 5.38992187 30.97679688 6.62109375 30.96484375 C28.22260447 30.81506964 28.22260447 30.81506964 33 34 C32.67 35.32 32.34 36.64 32 38 C32.85464844 38.37511719 33.70929688 38.75023437 34.58984375 39.13671875 C35.69457031 39.64847656 36.79929688 40.16023438 37.9375 40.6875 C39.03964844 41.18636719 40.14179688 41.68523437 41.27734375 42.19921875 C44 44 44 44 44.94140625 46.51953125 C45 49 45 49 44 52 C45.32 52.66 46.64 53.32 48 54 C47.67 55.32 47.34 56.64 47 58 C45.35 57.34 43.7 56.68 42 56 C42.11341534 58.40877257 42.11341534 58.40877257 43 61 C44.64142963 62.0409066 46.30712215 63.04504326 48 64 C48 64.99 48 65.98 48 67 C45.03 66.01 45.03 66.01 42 65 C42 65.66 42 66.32 42 67 C41.34 67 40.68 67 40 67 C42.48952921 69.66735273 44.63408134 71.55746343 48 73 C47.505 74.98 47.505 74.98 47 77 C43.37 75.02 39.74 73.04 36 71 C36 69.68 36 68.36 36 67 C33.03 66.34 30.06 65.68 27 65 C28.92391649 70.31411494 28.92391649 70.31411494 33 74 C34.9399821 76.35569254 36.01665537 78.00252816 35.96484375 81.10546875 C35.71660074 83.08092371 35.36491375 85.04273536 35 87 C36.32 87.33 37.64 87.66 39 88 C39.08096803 86.54257537 39.13917774 85.08387193 39.1875 83.625 C39.22230469 82.81289062 39.25710937 82.00078125 39.29296875 81.1640625 C39.19628906 80.44992188 39.09960938 79.73578125 39 79 C38.01 78.34 37.02 77.68 36 77 C36.495 75.02 36.495 75.02 37 73 C40.63 74.98 44.26 76.96 48 79 C48 83.95 48 88.9 48 94 C46.35 93.34 44.7 92.68 43 92 C43 92.66 43 93.32 43 94 C37.25 92.125 37.25 92.125 35 91 C35 96.28 35 101.56 35 107 C33.68 107 32.36 107 31 107 C31 106.34 31 105.68 31 105 C30.34 105 29.68 105 29 105 C28.76925781 104.16855469 28.53851563 103.33710938 28.30078125 102.48046875 C27.97464844 101.39378906 27.64851563 100.30710937 27.3125 99.1875 C26.99925781 98.10855469 26.68601563 97.02960938 26.36328125 95.91796875 C24.76983432 92.50735312 23.35013286 91.58339613 20 90 C20 90.66 20 91.32 20 92 C18.25 91.9375 18.25 91.9375 16 91 C14.47043965 88.76067964 13.28342377 86.39572437 12 84 C11.34 83.67 10.68 83.34 10 83 C10.33 83.721875 10.66 84.44375 11 85.1875 C12.00603529 88.01697427 12.16977402 90.02895466 12 93 C6.92499572 92.15781179 4.99171681 88.90119872 2 85 C1.56816406 84.44183594 1.13632813 83.88367188 0.69140625 83.30859375 C-0.4375 81.75 -0.4375 81.75 -2 79 C-1.67 78.01 -1.34 77.02 -1 76 C3.455 75.505 3.455 75.505 8 75 C4.7 73.35 1.4 71.7 -2 70 C0.08668076 61.65327696 0.08668076 61.65327696 2.6875 59.79296875 C4.4251953 58.80150147 6.21056606 57.89471697 8 57 C7.34 56.01 6.68 55.02 6 54 C3.19438238 53.71943824 1.53421737 53.73289132 -1 55 C-0.43450607 51.06946815 0.71382558 48.46592463 2.9375 45.1875 C3.46214844 44.39730469 3.98679688 43.60710937 4.52734375 42.79296875 C5.01332031 42.20128906 5.49929687 41.60960937 6 41 C6.66 41 7.32 41 8 41 C8 40.01 8 39.02 8 38 C5.69 38 3.38 38 1 38 C1 37.01 1 36.02 1 35 C0.34 34.67 -0.32 34.34 -1 34 C-1.8515625 31.93359375 -1.8515625 31.93359375 -2.625 29.4375 C-2.88539063 28.61121094 -3.14578125 27.78492187 -3.4140625 26.93359375 C-3.70410156 25.97646484 -3.70410156 25.97646484 -4 25 C-3.360625 24.71125 -2.72125 24.4225 -2.0625 24.125 C0.15206079 23.17176549 0.15206079 23.17176549 1 21 C0.15115234 20.83564453 0.15115234 20.83564453 -0.71484375 20.66796875 C-1.81505859 20.43013672 -1.81505859 20.43013672 -2.9375 20.1875 C-3.66839844 20.03667969 -4.39929688 19.88585937 -5.15234375 19.73046875 C-5.76207031 19.48941406 -6.37179688 19.24835938 -7 19 C-7.33 18.01 -7.66 17.02 -8 16 C-6.71034824 14.62437146 -5.37310707 13.29233607 -4 12 C-3.34 12 -2.68 12 -2 12 C-2 11.01 -2 10.02 -2 9 C1.3 9 4.6 9 8 9 C8.33 9.99 8.66 10.98 9 12 C7.02 12 5.04 12 3 12 C3 13.32 3 14.64 3 16 C9.66957927 17.64006048 16.15182898 18.51358785 23 19 C22.67 17.68 22.34 16.36 22 15 C18.37 14.34 14.74 13.68 11 13 C10.67 12.01 10.34 11.02 10 10 C16.435 9.505 16.435 9.505 23 9 C21.535625 8.195625 20.07125 7.39125 18.5625 6.5625 C14.125 4.125 14.125 4.125 13 3 C10.19176801 2.71602148 7.38353365 2.55153335 4.56640625 2.37890625 C2 2 2 2 0 0 Z " fill="#9F93A1" transform="translate(151,92)"/>
<path d="M0 0 C6.31596584 1.54741163 11.18753309 5.23060605 16.5 8.8125 C26.95815427 15.75522365 37.62939617 22.22655503 48.48291016 28.52783203 C52.6776402 30.98119984 56.8392501 33.48955688 61 36 C55.9281544 40.25380599 50.33194389 44.88935204 44 47 C43.16082031 47.32742187 42.32164062 47.65484375 41.45703125 47.9921875 C36.89252383 49.32285746 32.4122888 49.71705645 27.6875 50.125 C26.78837891 50.21136719 25.88925781 50.29773438 24.96289062 50.38671875 C19.28470579 50.90403711 13.70099517 51.08135977 8 51 C8 50.34 8 49.68 8 49 C7.34515625 49.04713135 6.6903125 49.0942627 6.015625 49.14282227 C-12.81299422 50.32459736 -12.81299422 50.32459736 -18.30859375 46.99609375 C-20.23180938 44.74116753 -21.7234858 42.66955666 -23 40 C-21.78137746 35.9515953 -20.35489363 32.69153644 -18 29.1875 C-14.32015514 23.57130072 -10.91911541 17.82141159 -7.55273438 12.0144043 C-5.16303347 7.91033196 -2.67844971 3.92223556 0 0 Z " fill="#BD552E" transform="translate(172,43)"/>
<path d="M0 0 C0.97814163 -0.00315216 1.95628326 -0.00630432 2.96406555 -0.009552 C4.01514999 -0.00752777 5.06623444 -0.00550354 6.14916992 -0.00341797 C7.23671066 -0.00437469 8.3242514 -0.00533142 9.44474792 -0.00631714 C11.74539243 -0.00699747 14.04603887 -0.00515341 16.34667969 -0.00097656 C19.85575721 0.00435822 23.36470584 -0.00091855 26.8737793 -0.00732422 C29.11140979 -0.00666311 31.3490402 -0.00538126 33.58666992 -0.00341797 C34.63168167 -0.0054422 35.67669342 -0.00746643 36.75337219 -0.009552 C50.73720429 0.03508081 50.73720429 0.03508081 56.25463867 3.12939453 C58.86432737 4.57508766 61.16284973 5.45593623 64.06713867 6.12939453 C65.05713867 6.62439453 65.05713867 6.62439453 66.06713867 7.12939453 C66.06713867 8.44939453 66.06713867 9.76939453 66.06713867 11.12939453 C67.05713867 12.11939453 67.05713867 12.11939453 68.06713867 13.12939453 C67.50019287 13.46036133 66.93324707 13.79132813 66.34912109 14.13232422 C56.19801299 20.06835806 46.07287202 26.03712057 36.12963867 32.31689453 C35.35958496 32.80279053 34.58953125 33.28868652 33.79614258 33.78930664 C30.04710836 36.17349428 26.34454463 38.60722366 22.69213867 41.13720703 C22.00498779 41.61005127 21.31783691 42.08289551 20.60986328 42.57006836 C19.32641355 43.45919473 18.05058516 44.35946573 16.78417969 45.27270508 C14.51790953 46.84523884 12.73143092 48.07942025 9.93823242 48.28955078 C6.95977453 46.44278253 5.38898155 43.66230756 3.56713867 40.75439453 C3.1449707 40.10043701 2.72280273 39.44647949 2.2878418 38.77270508 C0.86864172 36.56589015 -0.53199924 34.34788941 -1.93286133 32.12939453 C-3.01558664 30.43499543 -4.09893674 28.74099544 -5.18286133 27.04736328 C-7.28331635 23.75210234 -9.38135446 20.4554063 -11.46411133 17.14892578 C-11.89272461 16.46934814 -12.32133789 15.78977051 -12.76293945 15.08959961 C-13.92388308 13.1444376 -14.946975 11.16805036 -15.93286133 9.12939453 C-14.86093949 7.80755833 -13.77483438 6.49721526 -12.68286133 5.19189453 C-12.07958008 4.46099609 -11.47629883 3.73009766 -10.85473633 2.97705078 C-7.65191422 -0.1020851 -4.29744822 0.00398372 0 0 Z " fill="#BD562E" transform="translate(163.932861328125,201.87060546875)"/>
<path d="M0 0 C0.66 0.99 1.32 1.98 2 3 C1.67 3.66 1.34 4.32 1 5 C1.66 5 2.32 5 3 5 C3.33 4.34 3.66 3.68 4 3 C5.5625 4.625 5.5625 4.625 7 7 C6.76957615 9.76508617 6.2273322 12.20599969 5.46582031 14.86572266 C4.50158662 19.283611 4.76478066 23.87171096 4.75 28.375 C4.74460205 29.45177002 4.7392041 30.52854004 4.73364258 31.63793945 C4.77915034 38.93398549 5.49755367 45.29446571 7.63671875 52.29296875 C8 55 8 55 6.765625 57.80859375 C5 60 5 60 2.0625 60.875 C-3.08336378 61.08503526 -5.64766529 59.65386263 -10 57 C-10.763125 56.7525 -11.52625 56.505 -12.3125 56.25 C-18.10853931 53.55416776 -23.2592528 48.80393525 -26 43 C-26.495 41.515 -26.495 41.515 -27 40 C-27.33 39.34 -27.66 38.68 -28 38 C-28.84267893 29.04352685 -28.45116456 21.43201027 -23 14 C-22.01 13.34 -21.02 12.68 -20 12 C-19.34 11.01 -18.68 10.02 -18 9 C-17.01 8.67 -16.02 8.34 -15 8 C-12.12291546 6.18333414 -12.12291546 6.18333414 -10.25 4.4375 C-7.26891389 2.53291721 -4.46960891 2.45825023 -1 2 C-0.67 1.34 -0.34 0.68 0 0 Z " fill="#BA542C" transform="translate(252,116)"/>
<path d="M0 0 C3.81208602 -0.14680981 7.6234332 -0.23457102 11.4375 -0.3125 C12.50677734 -0.35439453 13.57605469 -0.39628906 14.67773438 -0.43945312 C22.15217044 -0.55374114 26.88955121 0.70053195 33 5 C33.86753906 5.57105469 34.73507813 6.14210938 35.62890625 6.73046875 C36.26699219 7.21128906 36.90507812 7.69210938 37.5625 8.1875 C38.22378906 8.67605469 38.88507813 9.16460937 39.56640625 9.66796875 C40.03949219 10.10753906 40.51257813 10.54710938 41 11 C41 11.66 41 12.32 41 13 C39.35 13.33 37.7 13.66 36 14 C36.969375 14.5775 37.93875 15.155 38.9375 15.75 C42 18 42 18 43.0625 20.0625 C43 22 43 22 41.6875 23.6875 C40 25 40 25 38 26 C40.475 26.99 40.475 26.99 43 28 C43 29.65 43 31.3 43 33 C37.59149245 32.66886688 33.20912339 31.3949418 28.125 29.5 C19.54696732 26.37569724 11.05474678 26.11409188 2 26 C2.33 27.65 2.66 29.3 3 31 C4.19496094 30.98839844 5.38992187 30.97679688 6.62109375 30.96484375 C28.22260447 30.81506964 28.22260447 30.81506964 33 34 C32.67 35.32 32.34 36.64 32 38 C32.94875 38.433125 33.8975 38.86625 34.875 39.3125 C38 41 38 41 40 44 C40.33957563 48.07490752 40.31332486 49.53001271 38 53 C36.68 53 35.36 53 34 53 C34 53.66 34 54.32 34 55 C27.55380413 55.45236462 24.31722545 54.72205782 19 51 C17 48 17 48 17 44 C19.38564077 44.57584432 21.66682784 45.22227595 24 46 C24 44.35 24 42.7 24 41 C23.236875 40.855625 22.47375 40.71125 21.6875 40.5625 C19 40 19 40 16 39 C15.67 39.99 15.34 40.98 15 42 C13.02 42 11.04 42 9 42 C9 41.01 9 40.02 9 39 C6.36 38.67 3.72 38.34 1 38 C1 37.01 1 36.02 1 35 C0.34 34.67 -0.32 34.34 -1 34 C-1.8515625 31.93359375 -1.8515625 31.93359375 -2.625 29.4375 C-2.88539063 28.61121094 -3.14578125 27.78492187 -3.4140625 26.93359375 C-3.70410156 25.97646484 -3.70410156 25.97646484 -4 25 C-3.360625 24.71125 -2.72125 24.4225 -2.0625 24.125 C0.15206079 23.17176549 0.15206079 23.17176549 1 21 C0.15115234 20.83564453 0.15115234 20.83564453 -0.71484375 20.66796875 C-1.81505859 20.43013672 -1.81505859 20.43013672 -2.9375 20.1875 C-3.66839844 20.03667969 -4.39929688 19.88585937 -5.15234375 19.73046875 C-5.76207031 19.48941406 -6.37179688 19.24835938 -7 19 C-7.33 18.01 -7.66 17.02 -8 16 C-6.71034824 14.62437146 -5.37310707 13.29233607 -4 12 C-3.34 12 -2.68 12 -2 12 C-2 11.01 -2 10.02 -2 9 C1.3 9 4.6 9 8 9 C8.33 9.99 8.66 10.98 9 12 C7.02 12 5.04 12 3 12 C3 13.32 3 14.64 3 16 C9.66957927 17.64006048 16.15182898 18.51358785 23 19 C22.67 17.68 22.34 16.36 22 15 C18.37 14.34 14.74 13.68 11 13 C10.67 12.01 10.34 11.02 10 10 C16.435 9.505 16.435 9.505 23 9 C21.535625 8.195625 20.07125 7.39125 18.5625 6.5625 C14.125 4.125 14.125 4.125 13 3 C10.19176801 2.71602148 7.38353365 2.55153335 4.56640625 2.37890625 C2 2 2 2 0 0 Z " fill="#BCCFDE" transform="translate(151,92)"/>
<path d="M0 0 C-0.90241058 5.6722951 -0.90241058 5.6722951 -1.53125 7.78393555 C-2.1671874 10.79039586 -2.09241522 13.63511169 -2.0625 16.70703125 C-2.05476563 18.01607422 -2.04703125 19.32511719 -2.0390625 20.67382812 C-2.02045347 22.74065508 -2.00005014 24.80745919 -1.97949219 26.87426758 C-1.96125582 28.88098809 -1.94932191 30.8877627 -1.9375 32.89453125 C-1.92589844 34.08925049 -1.91429687 35.28396973 -1.90234375 36.51489258 C-2.00222507 40.07940704 -2.4290119 43.48274703 -3 47 C-9.92006392 47.41723915 -14.37840154 44.80898796 -20 41 C-24.96633759 36.51554467 -27.73169188 32.11237414 -28.3125 25.375 C-28 22 -28 22 -26.8984375 20.30078125 C-24.05993012 18.35587805 -21.70418031 18.71175702 -18.3125 18.8125 C-17.13300781 18.83957031 -15.95351562 18.86664063 -14.73828125 18.89453125 C-13.83464844 18.92933594 -12.93101562 18.96414062 -12 19 C-11.79503906 17.86820313 -11.59007812 16.73640625 -11.37890625 15.5703125 C-11.10693028 14.08851239 -10.83478613 12.60674315 -10.5625 11.125 C-10.42779297 10.37863281 -10.29308594 9.63226563 -10.15429688 8.86328125 C-9.11328125 3.2265625 -9.11328125 3.2265625 -8 1 C-2.47058824 -1.23529412 -2.47058824 -1.23529412 0 0 Z " fill="#A44422" transform="translate(259,123)"/>
<path d="M0 0 C0.66 0.33 1.32 0.66 2 1 C1.67 1.99 1.34 2.98 1 4 C3.97065509 3.65772428 3.97065509 3.65772428 7 3 C7.33 2.34 7.66 1.68 8 1 C12 2 12 2 16 3 C16 4.65 16 6.3 16 8 C13.61435923 7.42415568 11.33317216 6.77772405 9 6 C10.72976235 11.24501815 10.72976235 11.24501815 14.6875 14.875 C18.54074634 16.1836497 21.95062318 16.65091579 26 17 C26 16.34 26 15.68 26 15 C27.65 14.67 29.3 14.34 31 14 C31 16.31 31 18.62 31 21 C30.01 20.67 29.02 20.34 28 20 C28 22.64 28 25.28 28 28 C21.08336373 26.90109517 14.57263201 25.43430815 8 23 C8 23.66 8 24.32 8 25 C3.38 25.33 -1.24 25.66 -6 26 C-5 22 -5 22 -2.4375 20.25 C-1.633125 19.8375 -0.82875 19.425 0 19 C-0.66 18.01 -1.32 17.02 -2 16 C-4.80561762 15.71943824 -6.46578263 15.73289132 -9 17 C-8.43450607 13.06946815 -7.28617442 10.46592463 -5.0625 7.1875 C-4.53785156 6.39730469 -4.01320312 5.60710937 -3.47265625 4.79296875 C-2.74369141 3.90544922 -2.74369141 3.90544922 -2 3 C-1.34 3 -0.68 3 0 3 C0 2.01 0 1.02 0 0 Z " fill="#93A4C9" transform="translate(159,130)"/>
<path d="M0 0 C4.24235832 0.48950288 5.54560351 2.19335707 8.25 5.375 C8.58 4.055 8.91 2.735 9.25 1.375 C12.99193048 2.62231016 13.37562494 3.77633621 15.3125 7.125 C15.81910156 7.98609375 16.32570312 8.8471875 16.84765625 9.734375 C18.25 12.375 18.25 12.375 19.30078125 15.08984375 C20.43883953 17.82961369 21.77783633 18.80929635 24.25 20.375 C23.92 22.025 23.59 23.675 23.25 25.375 C21.27 25.375 19.29 25.375 17.25 25.375 C17.25 26.035 17.25 26.695 17.25 27.375 C15.5 27.3125 15.5 27.3125 13.25 26.375 C11.72043965 24.13567964 10.53342377 21.77072437 9.25 19.375 C8.59 19.045 7.93 18.715 7.25 18.375 C7.745 19.4578125 7.745 19.4578125 8.25 20.5625 C9.25603529 23.39197427 9.41977402 25.40395466 9.25 28.375 C4.17499572 27.53281179 2.24171681 24.27619872 -0.75 20.375 C-1.18183594 19.81683594 -1.61367187 19.25867188 -2.05859375 18.68359375 C-3.1875 17.125 -3.1875 17.125 -4.75 14.375 C-4.42 13.385 -4.09 12.395 -3.75 11.375 C0.705 10.88 0.705 10.88 5.25 10.375 C1.95 8.725 -1.35 7.075 -4.75 5.375 C-3.52647059 0.48088235 -3.52647059 0.48088235 0 0 Z " fill="#BDD0E1" transform="translate(153.75,156.625)"/>
<path d="M0 0 C0.95310059 0.01047363 1.90620117 0.02094727 2.88818359 0.03173828 C4.43505859 0.04140625 4.43505859 0.04140625 6.01318359 0.05126953 C7.63353516 0.07640625 7.63353516 0.07640625 9.28662109 0.10205078 C10.37458984 0.11107422 11.46255859 0.12009766 12.58349609 0.12939453 C15.27642261 0.15301669 17.96891365 0.18595522 20.66162109 0.22705078 C18.68162109 1.21705078 18.68162109 1.21705078 16.66162109 2.22705078 C17.36287109 2.24123047 18.06412109 2.25541016 18.78662109 2.27001953 C27.51758997 2.70894052 32.52164561 5.0870753 38.66162109 11.22705078 C34.04162109 11.22705078 29.42162109 11.22705078 24.66162109 11.22705078 C25.44639201 13.38068836 25.44639201 13.38068836 27.40380859 13.82470703 C28.10763672 13.97810547 28.81146484 14.13150391 29.53662109 14.28955078 C31.9890735 14.83705399 34.26873748 15.42942291 36.66162109 16.22705078 C37.34912109 18.28955078 37.34912109 18.28955078 37.66162109 20.22705078 C30.35051115 20.59602268 24.44905288 20.04257804 17.66162109 17.22705078 C17.66162109 15.90705078 17.66162109 14.58705078 17.66162109 13.22705078 C19.31162109 12.89705078 20.96162109 12.56705078 22.66162109 12.22705078 C22.66162109 11.56705078 22.66162109 10.90705078 22.66162109 10.22705078 C19.36162109 10.22705078 16.06162109 10.22705078 12.66162109 10.22705078 C12.66162109 11.21705078 12.66162109 12.20705078 12.66162109 13.22705078 C8.53118631 17.79226817 8.53118631 17.79226817 5.66162109 19.22705078 C6.2038909 15.43116212 7.86289673 13.75493085 10.66162109 11.22705078 C9.48599609 10.67017578 8.31037109 10.11330078 7.09912109 9.53955078 C2.94937302 7.47577233 -0.63442626 5.00501526 -4.33837891 2.22705078 C-2.33837891 0.22705078 -2.33837891 0.22705078 0 0 Z " fill="#888FB1" transform="translate(136.33837890625,90.77294921875)"/>
<path d="M0 0 C3.81208602 -0.14680981 7.6234332 -0.23457102 11.4375 -0.3125 C12.50677734 -0.35439453 13.57605469 -0.39628906 14.67773438 -0.43945312 C22.15217044 -0.55374114 26.88955121 0.70053195 33 5 C33.86753906 5.57105469 34.73507813 6.14210938 35.62890625 6.73046875 C36.26699219 7.21128906 36.90507812 7.69210938 37.5625 8.1875 C38.22378906 8.67605469 38.88507813 9.16460937 39.56640625 9.66796875 C40.03949219 10.10753906 40.51257813 10.54710938 41 11 C41 11.66 41 12.32 41 13 C39.35 13.33 37.7 13.66 36 14 C36.969375 14.5775 37.93875 15.155 38.9375 15.75 C42 18 42 18 43.0625 20.0625 C43 22 43 22 41.6875 23.6875 C40 25 40 25 38 26 C40.475 26.99 40.475 26.99 43 28 C43 29.65 43 31.3 43 33 C35.91296261 32.45484328 29.67203894 30.39081395 23 28 C23 27.67 23 27.34 23 27 C26.3 27 29.6 27 33 27 C33.33 22.71 33.66 18.42 34 14 C32.68 13.608125 31.36 13.21625 30 12.8125 C24.42844667 10.96116496 19.57104327 8.21825978 15.12109375 4.37890625 C12.44503523 2.6392218 10.54279869 2.56984738 7.375 2.4375 C2.20897616 2.20897616 2.20897616 2.20897616 0 0 Z " fill="#8D99B9" transform="translate(151,92)"/>
<path d="M0 0 C0.33 0.66 0.66 1.32 1 2 C1.66 2.33 2.32 2.66 3 3 C1.59503292 5.38889434 0.18893357 7.77711188 -1.21850586 10.16455078 C-2.40861509 12.18400158 -3.59692246 14.20451532 -4.78344727 16.22607422 C-7.36004909 20.60167545 -9.93672423 24.96352713 -12.71484375 29.21484375 C-13.09705078 29.80434814 -13.47925781 30.39385254 -13.87304688 31.0012207 C-14.87012758 32.52222616 -15.88560084 34.03112968 -16.90234375 35.5390625 C-18.28754703 37.91241704 -18.28754703 37.91241704 -17.32421875 40.1328125 C-16.66873047 41.05707031 -16.66873047 41.05707031 -16 42 C-15.29875 43.0725 -14.5975 44.145 -13.875 45.25 C-13.25625 46.1575 -12.6375 47.065 -12 48 C-15.96 48 -19.92 48 -24 48 C-23.85678116 38.84701388 -23.0091133 32.61879949 -18 25 C-17.04370419 23.28388006 -16.08800393 21.56739454 -15.14355469 19.84472656 C-6.62506981 4.41671321 -6.62506981 4.41671321 0 0 Z " fill="#D5D2CF" transform="translate(168,43)"/>
<path d="M0 0 C17.6273717 -0.83608087 17.6273717 -0.83608087 24 4 C25.12758089 7.38274266 24.81750262 8.76778223 24.0625 12.1875 C23.86785156 13.08855469 23.67320312 13.98960938 23.47265625 14.91796875 C23.23869141 15.94857422 23.23869141 15.94857422 23 17 C11.96965735 17.18115526 1.00948323 16.614687 -10 16 C-9.34 15.01 -8.68 14.02 -8 13 C-6.68 13 -5.36 13 -4 13 C-4 12.01 -4 11.02 -4 10 C2.93 10 9.86 10 17 10 C16.67 9.01 16.34 8.02 16 7 C15.01 6.67 14.02 6.34 13 6 C13 5.34 13 4.68 13 4 C9.04 3.67 5.08 3.34 1 3 C0.67 2.01 0.34 1.02 0 0 Z " fill="#C4D8E7" transform="translate(161,102)"/>
<path d="M0 0 C0.98136932 -0.00637985 1.96273865 -0.0127597 2.97384644 -0.01933289 C4.02806793 -0.02044571 5.08228943 -0.02155853 6.16845703 -0.02270508 C7.80332565 -0.02769768 7.80332565 -0.02769768 9.47122192 -0.03279114 C11.77605772 -0.03785198 14.08090084 -0.04019972 16.38574219 -0.04003906 C19.90588501 -0.04222368 23.42571347 -0.06038343 26.94580078 -0.0793457 C29.18668513 -0.08228019 31.42757096 -0.08426461 33.66845703 -0.08520508 C35.24371658 -0.09598335 35.24371658 -0.09598335 36.85079956 -0.10697937 C41.98237981 -0.09099436 46.25262734 0.07868393 51.05126953 2.14526367 C50.72126953 2.80526367 50.39126953 3.46526367 50.05126953 4.14526367 C30.72238565 8.82580058 8.70632909 6.71766844 -10.94873047 5.14526367 C-10.19873047 3.20776367 -10.19873047 3.20776367 -8.94873047 1.14526367 C-5.96533163 0.09983102 -3.14140113 0.01390326 0 0 Z " fill="#6E1F07" transform="translate(163.94873046875,201.854736328125)"/>
<path d="M0 0 C0.77209305 -0.00570007 1.5441861 -0.01140015 2.3396759 -0.01727295 C3.95552229 -0.02663538 5.57138702 -0.03322157 7.18725586 -0.03710938 C9.64925958 -0.04689379 12.11045411 -0.07802994 14.57226562 -0.109375 C16.15233886 -0.11589972 17.73241798 -0.12115227 19.3125 -0.125 C20.04075485 -0.1373468 20.7690097 -0.1496936 21.51933289 -0.16241455 C26.24073207 -0.14191619 29.40713877 0.79771988 33.45703125 3.203125 C33.45703125 3.533125 33.45703125 3.863125 33.45703125 4.203125 C27.31788934 5.99888614 21.86470864 6.47345515 15.48828125 6.3984375 C14.10690979 6.39419266 14.10690979 6.39419266 12.69763184 6.38986206 C9.78396073 6.37875275 6.87060794 6.35366578 3.95703125 6.328125 C1.97005655 6.31808323 -0.01692301 6.30895948 -2.00390625 6.30078125 C-6.85038127 6.27884379 -11.69662122 6.24437861 -16.54296875 6.203125 C-17.20296875 4.883125 -17.86296875 3.563125 -18.54296875 2.203125 C-15.06123706 -1.27860669 -4.76211629 0.02802397 0 0 Z " fill="#6F2309" transform="translate(173.54296875,85.796875)"/>
<path d="M0 0 C3.3 0 6.6 0 10 0 C10.33 0.99 10.66 1.98 11 3 C9.02 3 7.04 3 5 3 C5 4.32 5 5.64 5 7 C11.66957927 8.64006048 18.15182898 9.51358785 25 10 C24.73323796 8.01508358 24.73323796 8.01508358 24 6 C23.01 5.67 22.02 5.34 21 5 C22.32 5 23.64 5 25 5 C25 5.66 25 6.32 25 7 C26.32 7.33 27.64 7.66 29 8 C29 8.99 29 9.98 29 11 C22.07 11 15.14 11 8 11 C8 11.99 8 12.98 8 14 C6.35 14.66 4.7 15.32 3 16 C3.66 17.98 4.32 19.96 5 22 C4.34 22 3.68 22 3 22 C3.99 23.65 4.98 25.3 6 27 C3.6875 26.5625 3.6875 26.5625 1 25 C-0.36075884 22.09244107 -1.21362959 19.10712212 -2 16 C-1.360625 15.71125 -0.72125 15.4225 -0.0625 15.125 C2.15206079 14.17176549 2.15206079 14.17176549 3 12 C2.43410156 11.89042969 1.86820313 11.78085938 1.28515625 11.66796875 C0.55167969 11.50941406 -0.18179688 11.35085937 -0.9375 11.1875 C-1.66839844 11.03667969 -2.39929688 10.88585937 -3.15234375 10.73046875 C-3.76207031 10.48941406 -4.37179688 10.24835938 -5 10 C-5.33 9.01 -5.66 8.02 -6 7 C-4.71034824 5.62437146 -3.37310707 4.29233607 -2 3 C-1.34 3 -0.68 3 0 3 C0 2.01 0 1.02 0 0 Z " fill="#8DA0C8" transform="translate(149,101)"/>
<path d="M0 0 C0.66 0.33 1.32 0.66 2 1 C1.67 1.99 1.34 2.98 1 4 C3.97065509 3.65772428 3.97065509 3.65772428 7 3 C7.33 2.34 7.66 1.68 8 1 C12 2 12 2 16 3 C16 4.65 16 6.3 16 8 C13.61435923 7.42415568 11.33317216 6.77772405 9 6 C11.09591149 11.60332217 11.09591149 11.60332217 15 16 C11.87709365 15.51421457 9.00419641 15.0013988 6 14 C4.52413385 13.88312662 3.04293388 13.82498258 1.5625 13.8125 C0.41974609 13.79123047 0.41974609 13.79123047 -0.74609375 13.76953125 C-3.25709312 14.02628855 -4.82206812 14.75612808 -7 16 C-7.66 16.33 -8.32 16.66 -9 17 C-8.43450607 13.06946815 -7.28617442 10.46592463 -5.0625 7.1875 C-4.53785156 6.39730469 -4.01320312 5.60710937 -3.47265625 4.79296875 C-2.74369141 3.90544922 -2.74369141 3.90544922 -2 3 C-1.34 3 -0.68 3 0 3 C0 2.01 0 1.02 0 0 Z " fill="#95A0C2" transform="translate(159,130)"/>
<path d="M0 0 C-0.99 5.61 -1.98 11.22 -3 17 C-6.54817708 16.93489583 -10.09635417 16.86979167 -13.64453125 16.8046875 C-17.1338024 16.72418082 -17.1338024 16.72418082 -20 19 C-19.27236572 11.3598401 -15.42033052 7.06446126 -9.78125 2.296875 C-5.94597609 -0.49547355 -4.83588372 -1.20897093 0 0 Z " fill="#B24D27" transform="translate(251,126)"/>
<path d="M0 0 C3.465 1.98 3.465 1.98 7 4 C6.67 6.31 6.34 8.62 6 11 C7.32 11.66 8.64 12.32 10 13 C9.67 14.32 9.34 15.64 9 17 C6.525 16.01 6.525 16.01 4 15 C4.11341534 17.40877257 4.11341534 17.40877257 5 20 C6.64142963 21.0409066 8.30712215 22.04504326 10 23 C10 23.99 10 24.98 10 26 C8.02 25.34 6.04 24.68 4 24 C4 24.66 4 25.32 4 26 C3.34 26 2.68 26 2 26 C4.48952921 28.66735273 6.63408134 30.55746343 10 32 C9.67 33.32 9.34 34.64 9 36 C5.37 34.02 1.74 32.04 -2 30 C-2 25.71 -2 21.42 -2 17 C-1.34 17 -0.68 17 0 17 C0.19493195 14.72979256 0.38070418 12.45879711 0.5625 10.1875 C0.66691406 8.92292969 0.77132812 7.65835938 0.87890625 6.35546875 C1.19597178 3.00418816 1.19597178 3.00418816 0 0 Z " fill="#72D3AA" transform="translate(189,133)"/>
<path d="M0 0 C0.33 0.99 0.66 1.98 1 3 C1.639375 2.835 2.27875 2.67 2.9375 2.5 C6.97586652 1.84067485 10.91807258 1.91996221 15 2 C15 1.34 15 0.68 15 0 C22.05751057 0.74289585 28.43295784 2.21398211 35 5 C31.23375329 6.25541557 29.62811066 5.37061958 26 4 C26.350625 4.598125 26.70125 5.19625 27.0625 5.8125 C28 8 28 8 27 11 C26.34 10.67 25.68 10.34 25 10 C25 9.01 25 8.02 25 7 C23.35 7 21.7 7 20 7 C19.67 8.65 19.34 10.3 19 12 C19.61875 12.2475 20.2375 12.495 20.875 12.75 C23.35068687 14.20628639 23.95125002 15.37812506 25 18 C24.34 18 23.68 18 23 18 C22.67 18.66 22.34 19.32 22 20 C19.49409851 18.74704926 19.23409562 17.75316815 18.0625 15.25 C15.7661896 10.49405883 15.7661896 10.49405883 13 6 C12.34 6 11.68 6 11 6 C10.67 6.99 10.34 7.98 10 9 C6.125 7.25 6.125 7.25 5 5 C2.47266765 4.34444881 2.47266765 4.34444881 0 4 C0 2.68 0 1.36 0 0 Z " fill="#8E8DA7" transform="translate(152,153)"/>
<path d="M0 0 C-0.16298584 0.72469482 -0.32597168 1.44938965 -0.49389648 2.19604492 C-0.9699033 4.83325585 -1.11490366 7.18993341 -1.09765625 9.86328125 C-1.09443359 10.74951172 -1.09121094 11.63574219 -1.08789062 12.54882812 C-1.07951172 13.46083984 -1.07113281 14.37285156 -1.0625 15.3125 C-1.05798828 16.24384766 -1.05347656 17.17519531 -1.04882812 18.13476562 C-1.03709234 20.42324373 -1.02067363 22.71158808 -1 25 C-5.37012601 22.42933764 -7.67281438 20.71460073 -9.3125 15.875 C-9.61800781 15.00617188 -9.92351562 14.13734375 -10.23828125 13.2421875 C-10.48964844 12.50226563 -10.74101562 11.76234375 -11 11 C-11.33 10.34 -11.66 9.68 -12 9 C-11.01 9 -10.02 9 -9 9 C-8.65099442 5.28263359 -8.65099442 5.28263359 -10.5 2.1875 C-10.995 1.795625 -11.49 1.40375 -12 1 C-8.0186217 -0.3271261 -4.14954773 -0.06915913 0 0 Z " fill="#95A0C1" transform="translate(186,173)"/>
<path d="M0 0 C4.24235832 0.48950288 5.54560351 2.19335707 8.25 5.375 C8.58 4.055 8.91 2.735 9.25 1.375 C13.01806529 2.63102176 13.46246507 3.88512567 15.4375 7.25 C15.96730469 8.13429687 16.49710938 9.01859375 17.04296875 9.9296875 C18.25 12.375 18.25 12.375 18.25 15.375 C13.53596212 14.89560632 9.58420699 14.40665952 5.25 12.375 C5.25 11.715 5.25 11.055 5.25 10.375 C1.95 8.725 -1.35 7.075 -4.75 5.375 C-3.52647059 0.48088235 -3.52647059 0.48088235 0 0 Z " fill="#9FA1BB" transform="translate(153.75,156.625)"/>
<path d="M0 0 C3.81208602 -0.14680981 7.6234332 -0.23457102 11.4375 -0.3125 C12.50677734 -0.35439453 13.57605469 -0.39628906 14.67773438 -0.43945312 C22.13500731 -0.55347871 26.89722167 0.71454801 33 5 C33.99 5.66 34.98 6.32 36 7 C36 7.99 36 8.98 36 10 C31.00993014 11.23621066 28.10483126 10.67737855 23.375 8.75 C22.26898438 8.31171875 21.16296875 7.8734375 20.0234375 7.421875 C17 6 17 6 14.953125 4.36328125 C12.3851223 2.57081537 10.47771708 2.56712834 7.375 2.4375 C2.20897616 2.20897616 2.20897616 2.20897616 0 0 Z " fill="#B1BCCB" transform="translate(151,92)"/>
<path d="M0 0 C13.27550618 -0.84737273 23.6515239 1.0956407 36 6 C35.67 6.66 35.34 7.32 35 8 C34.34 8 33.68 8 33 8 C33 9.65 33 11.3 33 13 C31.68 12.67 30.36 12.34 29 12 C29.33 10.68 29.66 9.36 30 8 C27.29065524 6.64532762 24.92224064 6.67679257 21.8984375 6.46484375 C20.08085937 6.33432617 20.08085937 6.33432617 18.2265625 6.20117188 C16.95554688 6.11416016 15.68453125 6.02714844 14.375 5.9375 C13.09625 5.84662109 11.8175 5.75574219 10.5 5.66210938 C7.33358006 5.43762438 4.16693409 5.21709077 1 5 C0.67 3.35 0.34 1.7 0 0 Z " fill="#C06442" transform="translate(153,118)"/>
<path d="M0 0 C3.96 1.98 7.92 3.96 12 6 C12 10.95 12 15.9 12 21 C9.525 20.01 9.525 20.01 7 19 C7 19.66 7 20.32 7 21 C5.02 20.34 3.04 19.68 1 19 C0.67 17.35 0.34 15.7 0 14 C0.99 14.33 1.98 14.66 3 15 C3.08096803 13.54257537 3.13917774 12.08387193 3.1875 10.625 C3.22230469 9.81289062 3.25710937 9.00078125 3.29296875 8.1640625 C3.19628906 7.44992188 3.09960938 6.73578125 3 6 C2.01 5.34 1.02 4.68 0 4 C0 2.68 0 1.36 0 0 Z " fill="#6EDAB0" transform="translate(187,165)"/>
<path d="M0 0 C0.495 1.485 0.495 1.485 1 3 C-0.0390625 4.9453125 -0.0390625 4.9453125 -1.625 7.125 C-4.27033907 10.90056477 -6.60404767 14.70367482 -8.7734375 18.76953125 C-10 21 -10 21 -11.3515625 23.07421875 C-15.98522707 30.40407995 -15.60194199 34.21359393 -17 44 C-39.44 44 -61.88 44 -85 44 C-85 43.67 -85 43.34 -85 43 C-63.55 42.67 -42.1 42.34 -20 42 C-18.34989018 37.87472544 -17.83068861 36.38055052 -17.75 32.3125 C-17.20943492 26.10058269 -14.40126076 22.08729345 -11 17 C-9.59797808 14.71179441 -8.20213968 12.42066027 -6.8125 10.125 C-4.67424166 6.62449818 -2.52405417 3.2351654 0 0 Z " fill="#E0E3E0" transform="translate(161,47)"/>
<path d="M0 0 C-1.98 0.99 -1.98 0.99 -4 2 C-3.29875 2.01417969 -2.5975 2.02835937 -1.875 2.04296875 C6.77165989 2.47765138 11.97017922 4.88795439 18 11 C14.28997805 10.74975996 10.58260503 10.47115412 6.875 10.1875 C5.82828125 10.11724609 4.7815625 10.04699219 3.703125 9.97460938 C-6.43733532 9.17235777 -6.43733532 9.17235777 -11 6 C-11.33 5.01 -11.66 4.02 -12 3 C-7.89542386 0.01485372 -5.02254631 -0.2954439 0 0 Z " fill="#C05F3A" transform="translate(157,91)"/>
<path d="M0 0 C0.33 0.66 0.66 1.32 1 2 C0.18310547 3.84423828 0.18310547 3.84423828 -1.1328125 6.0703125 C-1.60976562 6.885 -2.08671875 7.6996875 -2.578125 8.5390625 C-3.08859375 9.39242187 -3.5990625 10.24578125 -4.125 11.125 C-4.61226562 11.95515625 -5.09953125 12.7853125 -5.6015625 13.640625 C-9.57008604 20.37444952 -9.57008604 20.37444952 -11.55371094 23.26074219 C-12.0284082 23.95586914 -12.50310547 24.65099609 -12.9921875 25.3671875 C-13.42644043 25.9741748 -13.86069336 26.58116211 -14.30810547 27.20654297 C-15.23954824 29.03436161 -15.23954824 29.03436161 -14.25830078 31.02392578 C-12.5467488 33.71179962 -10.79509702 36.36719104 -9 39 C-12.3 39 -15.6 39 -19 39 C-20.761539 35.476922 -19.06296504 31.64706972 -18 28 C-16.375 24.4375 -16.375 24.4375 -15 22 C-14.34 22 -13.68 22 -13 22 C-12.896875 21.484375 -12.79375 20.96875 -12.6875 20.4375 C-10.73230267 13.50543676 -7.26250883 6.79434794 -3 1 C-2.01 0.67 -1.02 0.34 0 0 Z " fill="#C7C3BF" transform="translate(165,52)"/>
<path d="M0 0 C0.66 0 1.32 0 2 0 C2 5.94 2 11.88 2 18 C-23.65839548 20.41085595 -49.25211958 20.20709178 -75 20 C-75 19.67 -75 19.34 -75 19 C-71.77211225 18.63346987 -68.54259638 18.28398093 -65.3125 17.9375 C-64.40048828 17.83373047 -63.48847656 17.72996094 -62.54882812 17.62304688 C-61.66259766 17.52958984 -60.77636719 17.43613281 -59.86328125 17.33984375 C-59.05157471 17.25081787 -58.23986816 17.16179199 -57.40356445 17.07006836 C-54.78085291 16.99361146 -52.55364125 17.42898475 -50 18 C-48.14751826 18.08933954 -46.2921276 18.13015891 -44.4375 18.125 C-43.50808594 18.12757813 -42.57867187 18.13015625 -41.62109375 18.1328125 C-39.0960128 18.09670309 -39.0960128 18.09670309 -37.10546875 17.4921875 C-34.01671833 16.77014195 -31.03936399 16.9471505 -27.875 17 C-23.27274665 17.26438564 -23.27274665 17.26438564 -19 16 C-17.55151418 15.91657841 -16.09929131 15.89267139 -14.6484375 15.90234375 C-13.37226563 15.90717773 -13.37226563 15.90717773 -12.0703125 15.91210938 C-11.18085938 15.92048828 -10.29140625 15.92886719 -9.375 15.9375 C-8.4778125 15.94201172 -7.580625 15.94652344 -6.65625 15.95117188 C-4.43747169 15.96297389 -2.21872757 15.98090961 0 16 C0 10.72 0 5.44 0 0 Z " fill="#CF6F48" transform="translate(186,183)"/>
<path d="M0 0 C1.65322266 0.01740234 1.65322266 0.01740234 3.33984375 0.03515625 C4.99693359 0.04869141 4.99693359 0.04869141 6.6875 0.0625 C7.54214844 0.07410156 8.39679688 0.08570313 9.27734375 0.09765625 C9.27734375 3.72765625 9.27734375 7.35765625 9.27734375 11.09765625 C5.31734375 11.09765625 1.35734375 11.09765625 -2.72265625 11.09765625 C-4.34917147 7.84462581 -3.83718781 4.70540023 -3.72265625 1.09765625 C-2.72265625 0.09765625 -2.72265625 0.09765625 0 0 Z " fill="#1A1514" transform="translate(238.72265625,143.90234375)"/>
<path d="M0 0 C17.6273717 -0.83608087 17.6273717 -0.83608087 24 4 C25.12758089 7.38274266 24.81750262 8.76778223 24.0625 12.1875 C23.86785156 13.08855469 23.67320312 13.98960938 23.47265625 14.91796875 C23.31667969 15.60503906 23.16070312 16.29210937 23 17 C21.0625 16.625 21.0625 16.625 19 16 C18.67 15.34 18.34 14.68 18 14 C18.99 13.01 19.98 12.02 21 11 C20.0409375 10.8453125 20.0409375 10.8453125 19.0625 10.6875 C18.381875 10.460625 17.70125 10.23375 17 10 C16.67 9.01 16.34 8.02 16 7 C15.01 6.67 14.02 6.34 13 6 C13 5.34 13 4.68 13 4 C9.04 3.67 5.08 3.34 1 3 C0.67 2.01 0.34 1.02 0 0 Z " fill="#B7CBDC" transform="translate(161,102)"/>
<path d="M0 0 C3.77545388 1.09068668 6.47043472 1.9083091 9 5 C6.40208982 7.75072843 3.99956605 10.00028079 0.8125 12.0625 C-1.92549296 13.94867293 -2.90505605 14.93415694 -4 18 C-4.33 17.01 -4.66 16.02 -5 15 C-5.66 14.67 -6.32 14.34 -7 14 C-6.44010697 10.00987629 -5.24330232 7.4744948 -2.9375 4.1875 C-2.38964844 3.39730469 -1.84179688 2.60710938 -1.27734375 1.79296875 C-0.64505859 0.90544922 -0.64505859 0.90544922 0 0 Z " fill="#C96036" transform="translate(172,43)"/>
<path d="M0 0 C0.33 0 0.66 0 1 0 C1.33 4.29 1.66 8.58 2 13 C2.66 11.68 3.32 10.36 4 9 C4.33 9 4.66 9 5 9 C5 13.29 5 17.58 5 22 C4.34 22 3.68 22 3 22 C2.67 21.34 2.34 20.68 2 20 C2 25.28 2 30.56 2 36 C-2.84075411 31.15924589 -2.20358306 22.90281728 -2.25 16.4375 C-2.25918457 15.72972412 -2.26836914 15.02194824 -2.27783203 14.29272461 C-2.24859327 9.24085094 -1.37775342 4.86040789 0 0 Z " fill="#C46039" transform="translate(251,130)"/>
<path d="M0 0 C0.99 0.66 1.98 1.32 3 2 C3 5 3 5 1.5625 6.875 C-0.20599673 9.28015555 -0.4530887 11.10918314 -1 14 C-3 15 -3 15 -6 16 C-5.649375 16.61875 -5.29875 17.2375 -4.9375 17.875 C-4.628125 18.57625 -4.31875 19.2775 -4 20 C-4.33 20.66 -4.66 21.32 -5 22 C-6.32 22 -7.64 22 -9 22 C-11.20067421 22.93283296 -11.20067421 22.93283296 -13 24 C-12.43128637 19.84689387 -11.06281623 17.16175221 -8.75 13.6875 C-8.12480469 12.73617187 -7.49960938 11.78484375 -6.85546875 10.8046875 C-6.24316406 9.87914063 -5.63085938 8.95359375 -5 8 C-4.0152485 6.44101376 -3.03528079 4.87898369 -2.0625 3.3125 C-1.381875 2.219375 -0.70125 1.12625 0 0 Z " fill="#C65D34" transform="translate(163,58)"/>
<path d="M0 0 C0.67095703 0.58007812 0.67095703 0.58007812 1.35546875 1.171875 C1.96003906 1.69265625 2.56460938 2.2134375 3.1875 2.75 C3.82300781 3.29785156 4.45851562 3.84570312 5.11328125 4.41015625 C6.6625797 5.71567275 8.26264654 6.96070933 9.875 8.1875 C12 10 12 10 13 13 C8.64981504 16.02096178 8.64981504 16.02096178 6.0625 15.9375 C2.96817768 14.53098985 1.97108367 12.31700536 0.25 9.4375 C-0.67039063 7.91962891 -0.67039063 7.91962891 -1.609375 6.37109375 C-2.06828125 5.58863281 -2.5271875 4.80617187 -3 4 C-2.34 3.67 -1.68 3.34 -1 3 C-0.67 2.01 -0.34 1.02 0 0 Z " fill="#CA6137" transform="translate(168,234)"/>
<path d="M0 0 C5.70820358 -0.57082036 9.17675001 1.32475608 14 4 C15.33054011 4.6722241 16.66312072 5.34047289 18 6 C18 7.65 18 9.3 18 11 C16.26969709 10.71515154 14.54079286 10.42180062 12.8125 10.125 C11.84957031 9.96257812 10.88664063 9.80015625 9.89453125 9.6328125 C7.03147103 9.00688031 4.60122658 8.35556878 2 7 C0.6875 3.375 0.6875 3.375 0 0 Z " fill="#BFD3E2" transform="translate(169,147)"/>
<path d="M0 0 C1.32 0 2.64 0 4 0 C4 0.66 4 1.32 4 2 C5.32 2.33 6.64 2.66 8 3 C8 3.99 8 4.98 8 6 C1.07 6 -5.86 6 -13 6 C-13 6.99 -13 7.98 -13 9 C-14.65 9.66 -16.3 10.32 -18 11 C-17.34 12.98 -16.68 14.96 -16 17 C-16.66 17 -17.32 17 -18 17 C-17.01 18.65 -16.02 20.3 -15 22 C-17.3125 21.5625 -17.3125 21.5625 -20 20 C-21.36075884 17.09244107 -22.21362959 14.10712212 -23 11 C-22.360625 10.7525 -21.72125 10.505 -21.0625 10.25 C-18.50980961 9.03378366 -18.50980961 9.03378366 -18 5 C-10.74 5 -3.48 5 4 5 C3.67 3.68 3.34 2.36 3 1 C2.01 0.67 1.02 0.34 0 0 Z " fill="#BCCFE0" transform="translate(170,106)"/>
<path d="M0 0 C4.455 0.99 4.455 0.99 9 2 C8 6 8 6 7 8 C7.01382865 10.05714832 7.01382865 10.05714832 8 12 C10.49034386 13.29660434 10.49034386 13.29660434 13 14 C13 17.3 13 20.6 13 24 C10.525 23.01 10.525 23.01 8 22 C8.0928125 20.1746875 8.0928125 20.1746875 8.1875 18.3125 C8.1875 14.40258304 7.48344958 12.12730688 5 9 C4.01 8.34 3.02 7.68 2 7 C0.38214873 4.36034793 0 3.15987325 0 0 Z " fill="#C66745" transform="translate(178,157)"/>
<path d="M0 0 C0.99 0 1.98 0 3 0 C3 1.98 3 3.96 3 6 C2.01 6 1.02 6 0 6 C0.33 6.66 0.66 7.32 1 8 C3.32716 8.37400786 5.66117862 8.70764733 8 9 C9 10 9 10 9.0625 12.5625 C9.041875 13.366875 9.02125 14.17125 9 15 C1.91296261 14.45484328 -4.32796106 12.39081395 -11 10 C-11 9.67 -11 9.34 -11 9 C-7.7 9 -4.4 9 -1 9 C-0.67 6.03 -0.34 3.06 0 0 Z " fill="#98A6C9" transform="translate(185,110)"/>
<path d="M0 0 C0.66 0.33 1.32 0.66 2 1 C2 2.32 2 3.64 2 5 C2.66 4.67 3.32 4.34 4 4 C4 2.68 4 1.36 4 0 C5.65 0.33 7.3 0.66 9 1 C9 2.98 9 4.96 9 7 C8.01 7 7.02 7 6 7 C6 9.31 6 11.62 6 14 C4.68 14 3.36 14 2 14 C2 13.34 2 12.68 2 12 C2.66 12 3.32 12 4 12 C4 11.01 4 10.02 4 9 C3.01 9 2.02 9 1 9 C1.66 9.66 2.32 10.32 3 11 C1.35 11.33 -0.3 11.66 -2 12 C-2.98120464 8.94736336 -2.98120464 7.05263664 -2 4 C-1.34 4 -0.68 4 0 4 C0 2.68 0 1.36 0 0 Z " fill="#CD7F64" transform="translate(97,164)"/>
<path d="M0 0 C2.22889496 -0.05428973 4.45817471 -0.09292338 6.6875 -0.125 C8.54955078 -0.15980469 8.54955078 -0.15980469 10.44921875 -0.1953125 C13.86515547 -0.00741719 16.06141843 0.2662914 19 2 C19.8125 4.125 19.8125 4.125 20 6 C12.68889006 6.3689719 6.78743178 5.81552726 0 3 C0 2.01 0 1.02 0 0 Z " fill="#C4623D" transform="translate(154,105)"/>
<path d="M0 0 C4.22445666 1.40815222 5.62112979 4.47952617 7.9375 8.0625 C8.36740234 8.70638672 8.79730469 9.35027344 9.24023438 10.01367188 C12.20251894 14.52227798 14.66390605 19.13810609 17 24 C15.68 24 14.36 24 13 24 C11.47607422 22.31933594 11.47607422 22.31933594 10.0546875 19.984375 C9.53519531 19.14519531 9.01570312 18.30601562 8.48046875 17.44140625 C7.95066406 16.55324219 7.42085937 15.66507813 6.875 14.75 C6.33746094 13.87730469 5.79992187 13.00460938 5.24609375 12.10546875 C3.01680773 8.46411628 0.86477199 4.8432896 -1 1 C-0.67 0.67 -0.34 0.34 0 0 Z " fill="#C65D34" transform="translate(149,210)"/>
<path d="M0 0 C16.83 0 33.66 0 51 0 C51 0.33 51 0.66 51 1 C49.71834961 0.99887207 48.43669922 0.99774414 47.11621094 0.99658203 C42.35973869 1.00025381 37.60428239 1.04304902 32.84814453 1.09765625 C30.78994285 1.11582162 28.7316191 1.12338378 26.67333984 1.12011719 C23.71355662 1.11726163 20.75630745 1.15255921 17.796875 1.1953125 C16.87694763 1.18621857 15.95702026 1.17712463 15.00921631 1.16775513 C12.53122579 1.22409814 10.38789178 1.33361663 8 2 C5.40650267 4.73164431 5.40650267 4.73164431 4 8 C3.01 9.485 3.01 9.485 2 11 C0 8 0 8 0 0 Z " fill="#B84F27" transform="translate(38,91)"/>
<path d="M0 0 C9.41002278 -0.3690205 9.41002278 -0.3690205 14 2 C14 2.99 14 3.98 14 5 C13.360625 5.12375 12.72125 5.2475 12.0625 5.375 C11.381875 5.58125 10.70125 5.7875 10 6 C9.67 6.66 9.34 7.32 9 8 C2.54719562 7.5129959 2.54719562 7.5129959 0 5.125 C-1 3 -1 3 0 0 Z " fill="#C9DAE7" transform="translate(150,168)"/>
<path d="M0 0 C1.5 1.64453125 1.5 1.64453125 3 3.8125 C4.84382365 6.44859162 6.65698675 8.78947857 9 11 C4.80716882 10.35155914 0.73500079 9.48783354 -3.375 8.4375 C-4.43460938 8.16808594 -5.49421875 7.89867187 -6.5859375 7.62109375 C-7.38257813 7.41613281 -8.17921875 7.21117187 -9 7 C-7.51191431 2.53574293 -4.79253508 0 0 0 Z " fill="#C46340" transform="translate(165,135)"/>
<path d="M0 0 C3.75376152 1.25125384 4.24073289 2.5652404 6 6 C6 6.66 6 7.32 6 8 C7.32 8.33 8.64 8.66 10 9 C10 8.34 10 7.68 10 7 C10.99 7.33 11.98 7.66 13 8 C12.67 9.65 12.34 11.3 12 13 C10.0625 12.6875 10.0625 12.6875 8 12 C7.67 11.01 7.34 10.02 7 9 C6.34 9 5.68 9 5 9 C4.67 10.65 4.34 12.3 4 14 C-0.24822374 13.52797514 -2.19989709 11.03344482 -5 8 C-4.67 7.34 -4.34 6.68 -4 6 C-3.3503125 6.7115625 -3.3503125 6.7115625 -2.6875 7.4375 C-0.97690387 9.23686957 -0.97690387 9.23686957 2 10 C1.34 6.7 0.68 3.4 0 0 Z " fill="#BC725D" transform="translate(161,175)"/>
<path d="M0 0 C1.80307617 0.00483398 1.80307617 0.00483398 3.64257812 0.00976562 C4.88845703 0.01814453 6.13433594 0.02652344 7.41796875 0.03515625 C8.68318359 0.03966797 9.94839844 0.04417969 11.25195312 0.04882812 C14.36983985 0.06059374 17.48763008 0.07703353 20.60546875 0.09765625 C20.60546875 0.42765625 20.60546875 0.75765625 20.60546875 1.09765625 C19.40921875 1.20078125 18.21296875 1.30390625 16.98046875 1.41015625 C13.87349335 1.7699113 12.42079801 2.20153354 9.60546875 3.78515625 C6.09562358 5.32071351 4.42093753 4.83914063 0.83984375 3.71484375 C-3.15217807 2.61215241 -7.27747182 2.41824694 -11.39453125 2.09765625 C-11.39453125 1.76765625 -11.39453125 1.43765625 -11.39453125 1.09765625 C-7.53246051 0.18948827 -3.96304469 -0.0187822 0 0 Z " fill="#7A2A0F" transform="translate(171.39453125,85.90234375)"/>
<path d="M0 0 C3.53164047 -0.32105822 5.35715051 -0.48213712 8.25 1.6875 C10 4 10 4 11 6.625 C12.23098163 9.54858138 13.22279499 9.69818515 16 11 C17.25 13.125 17.25 13.125 18 15 C17.34 15 16.68 15 16 15 C15.67 15.66 15.34 16.32 15 17 C12.49409851 15.74704926 12.23409562 14.75316815 11.0625 12.25 C8.7661896 7.49405883 8.7661896 7.49405883 6 3 C5.34 3 4.68 3 4 3 C3.67 3.99 3.34 4.98 3 6 C2.01 5.67 1.02 5.34 0 5 C0 3.35 0 1.7 0 0 Z " fill="#B87467" transform="translate(159,156)"/>
<path d="M0 0 C6.08293854 -0.23854661 11.721494 0.5009255 17.72265625 1.48828125 C22.13366341 2.17700823 26.55325721 2.61856382 31 3 C31 3.33 31 3.66 31 4 C27.37 4 23.74 4 20 4 C20.33 4.99 20.66 5.98 21 7 C18.36 7 15.72 7 13 7 C13 6.67 13 6.34 13 6 C14.65 5.67 16.3 5.34 18 5 C18 4.34 18 3.68 18 3 C14.7 3 11.4 3 8 3 C8 3.99 8 4.98 8 6 C3.86956522 10.56521739 3.86956522 10.56521739 1 12 C1.54226981 8.20411134 3.20127563 6.52788007 6 4 C4.02 3.01 2.04 2.02 0 1 C0 0.67 0 0.34 0 0 Z " fill="#968391" transform="translate(141,98)"/>
<path d="M0 0 C1.03125 0.165 2.0625 0.33 3.125 0.5 C8.45091376 1.19092935 13.76109011 1.02844386 19.12109375 0.9375 C22 1 22 1 23 2 C24.55948542 2.15686249 26.12542668 2.25076639 27.69140625 2.31640625 C29.10776367 2.37924805 29.10776367 2.37924805 30.55273438 2.44335938 C32.04256836 2.50233398 32.04256836 2.50233398 33.5625 2.5625 C35.05813477 2.62727539 35.05813477 2.62727539 36.58398438 2.69335938 C39.0558415 2.79980298 41.5278031 2.90181928 44 3 C44 3.33 44 3.66 44 4 C28.96750982 4.10369435 13.99309175 4.19944734 -1 3 C-0.67 2.01 -0.34 1.02 0 0 Z " fill="#883115" transform="translate(154,204)"/>
<path d="M0 0 C2.97 0.33 5.94 0.66 9 1 C9 1.99 9 2.98 9 4 C-1.90945418 6.32644675 -12.88616817 6.61579502 -24 7 C-24 6.34 -24 5.68 -24 5 C-22.70964844 4.95101562 -21.41929687 4.90203125 -20.08984375 4.8515625 C-18.37237653 4.77648197 -16.65492959 4.70093646 -14.9375 4.625 C-14.08994141 4.5940625 -13.24238281 4.563125 -12.36914062 4.53125 C-7.26321829 4.29468217 -2.85208127 3.61955494 2 2 C1.34 1.34 0.68 0.68 0 0 Z " fill="#A34421" transform="translate(204,87)"/>
<path d="M0 0 C0 2.31 0 4.62 0 7 C-0.99 6.67 -1.98 6.34 -3 6 C-3.33 6.99 -3.66 7.98 -4 9 C-4.59167969 8.73445312 -5.18335938 8.46890625 -5.79296875 8.1953125 C-9.8349177 6.38863385 -13.8699437 4.59873147 -18 3 C-15 1 -15 1 -12.51953125 1.2421875 C-11.17955078 1.55542969 -11.17955078 1.55542969 -9.8125 1.875 C-8.91144531 2.07867187 -8.01039063 2.28234375 -7.08203125 2.4921875 C-6.39496094 2.65976563 -5.70789063 2.82734375 -5 3 C-5 2.34 -5 1.68 -5 1 C-1.125 0 -1.125 0 0 0 Z " fill="#B0A0A5" transform="translate(190,144)"/>
<path d="M0 0 C0.33 0 0.66 0 1 0 C1 6.93 1 13.86 1 21 C1.66 21 2.32 21 3 21 C3 22.98 3 24.96 3 27 C3.66 27 4.32 27 5 27 C4.625 29.9375 4.625 29.9375 4 33 C3.01 33.495 3.01 33.495 2 34 C1.34 34.99 0.68 35.98 0 37 C0 24.79 0 12.58 0 0 Z " fill="#C36744" transform="translate(37,92)"/>
<path d="M0 0 C1.87343202 0.08725574 3.74954453 0.13028297 5.625 0.125 C6.54539063 0.12757813 7.46578125 0.13015625 8.4140625 0.1328125 C10.7677468 0.01192841 12.73190749 -0.41579435 15 -1 C17.25 -0.5625 17.25 -0.5625 19 0 C15.93228809 2.04514127 15.34431952 2.24827274 11.89575195 2.22705078 C11.07512772 2.22689972 10.25450348 2.22674866 9.40901184 2.22659302 C8.0870002 2.21110916 8.0870002 2.21110916 6.73828125 2.1953125 C5.83248825 2.1924826 4.92669525 2.18965271 3.99345398 2.18673706 C1.09966842 2.17553964 -1.79380794 2.15043589 -4.6875 2.125 C-6.64908407 2.11496963 -8.610673 2.10584388 -10.57226562 2.09765625 C-15.3816296 2.07560173 -20.19076237 2.04107489 -25 2 C-25 1.67 -25 1.34 -25 1 C-21.95923996 0.63571093 -18.91787324 0.28328105 -15.875 -0.0625 C-14.59109375 -0.2181543 -14.59109375 -0.2181543 -13.28125 -0.37695312 C-8.58497223 -0.90076872 -4.66632817 -0.96659655 0 0 Z " fill="#DC7441" transform="translate(136,201)"/>
<path d="M0 0 C3.9517002 -0.3763524 5.82294633 -0.09508438 9.375 1.8125 C10.24125 2.534375 11.1075 3.25625 12 4 C12 4.99 12 5.98 12 7 C7.58937864 8.0257259 5.07369424 8.03684712 1 6 C1 5.34 1 4.68 1 4 C0.34 4 -0.32 4 -1 4 C-0.67 2.68 -0.34 1.36 0 0 Z " fill="#BBCEDD" transform="translate(175,95)"/>
<path d="M0 0 C1.32 0.33 2.64 0.66 4 1 C3.34 1 2.68 1 2 1 C2.33 1.721875 2.66 2.44375 3 3.1875 C4.00603529 6.01697427 4.16977402 8.02895466 4 11 C0.4628562 10.43867066 -0.99261679 9.30442253 -3.25 6.5625 C-4.03117188 5.63630859 -4.03117188 5.63630859 -4.828125 4.69140625 C-6 3 -6 3 -6 1 C-3.03 1.495 -3.03 1.495 0 2 C0 1.34 0 0.68 0 0 Z " fill="#B4B8C5" transform="translate(159,174)"/>
<path d="M0 0 C2 2 2 2 2.1953125 3.9453125 C2.13020833 5.96354167 2.06510417 7.98177083 2 10 C-0.97 10 -3.94 10 -7 10 C-6.67 7.03 -6.34 4.06 -6 1 C-5.01 1 -4.02 1 -3 1 C-2.34 1.99 -1.68 2.98 -1 4 C-0.67 2.68 -0.34 1.36 0 0 Z " fill="#3B393F" transform="translate(243,145)"/>
<path d="M0 0 C1.67542976 0.28604898 3.34385343 0.61781233 5 1 C5 1.99 5 2.98 5 4 C5.99 4.33 6.98 4.66 8 5 C8.33 6.65 8.66 8.3 9 10 C5.5972424 10.38888658 4.17301329 10.10380798 1.1875 8.3125 C-1 6 -1 6 -1.375 3.3125 C-1 1 -1 1 0 0 Z " fill="#98A7CB" transform="translate(172,159)"/>
<path d="M0 0 C0 0.66 0 1.32 0 2 C1.32 1.67 2.64 1.34 4 1 C4.33 2.98 4.66 4.96 5 7 C3.56344146 7.08131463 2.1255517 7.13933559 0.6875 7.1875 C-0.51326172 7.23970703 -0.51326172 7.23970703 -1.73828125 7.29296875 C-4 7 -4 7 -5.79296875 5.61328125 C-7 4 -7 4 -7 2 C-4 0 -4 0 0 0 Z " fill="#CDE0EC" transform="translate(179,139)"/>
<path d="M0 0 C0.33 0.66 0.66 1.32 1 2 C0.34 2 -0.32 2 -1 2 C-1.33 2.66 -1.66 3.32 -2 4 C-2.66 3.67 -3.32 3.34 -4 3 C-4 4.32 -4 5.64 -4 7 C-2.02463255 6.65213292 -2.02463255 6.65213292 0 6 C0.33 5.34 0.66 4.68 1 4 C1 5.65 1 7.3 1 9 C-0.32 9.33 -1.64 9.66 -3 10 C-3.33 19.24 -3.66 28.48 -4 38 C-4.33 38 -4.66 38 -5 38 C-5 25.79 -5 13.58 -5 1 C-3.35 0.67 -1.7 0.34 0 0 Z " fill="#C15227" transform="translate(42,128)"/>
<path d="M0 0 C0.66 0 1.32 0 2 0 C2 1.32 2 2.64 2 4 C7.94 4.99 7.94 4.99 14 6 C14 6.33 14 6.66 14 7 C10.37 7 6.74 7 3 7 C3 7.66 3 8.32 3 9 C1.68428397 8.7452486 0.37239624 8.47065859 -0.9375 8.1875 C-2.03384766 7.96126953 -2.03384766 7.96126953 -3.15234375 7.73046875 C-3.76207031 7.48941406 -4.37179688 7.24835938 -5 7 C-5.33 6.01 -5.66 5.02 -6 4 C-4.35 3.67 -2.7 3.34 -1 3 C-0.67 2.01 -0.34 1.02 0 0 Z " fill="#98A7CB" transform="translate(149,104)"/>
<path d="M0 0 C3.76806529 1.25602176 4.21246507 2.51012567 6.1875 5.875 C6.98220703 7.20144531 6.98220703 7.20144531 7.79296875 8.5546875 C9 11 9 11 9 14 C7.68 14 6.36 14 5 14 C5 11.69 5 9.38 5 7 C2.69 7 0.38 7 -2 7 C-1.125 1.125 -1.125 1.125 0 0 Z " fill="#939ABA" transform="translate(163,158)"/>
<path d="M0 0 C0.99 0.103125 1.98 0.20625 3 0.3125 C5 3.3125 5 3.3125 5 7.3125 C2.03 6.9825 -0.94 6.6525 -4 6.3125 C-4.33 4.9925 -4.66 3.6725 -5 2.3125 C-3 0.3125 -3 0.3125 0 0 Z " fill="#AFBBCB" transform="translate(154,156.6875)"/>
<path d="M0 0 C5.26053037 -0.31563182 8.44573816 0.33409063 13 3 C13 3.33 13 3.66 13 4 C6.84629161 5.823321 1.40353322 6.2361959 -5 6 C-3.68 5.67 -2.36 5.34 -1 5 C-0.67 3.35 -0.34 1.7 0 0 Z " fill="#872F11" transform="translate(194,86)"/>
<path d="M0 0 C3.63094642 2.64960955 5.89851796 5.01824456 8 9 C4.7 9 1.4 9 -2 9 C-2.33 8.34 -2.66 7.68 -3 7 C-2.06421005 4.64018187 -1.06652192 2.30368736 0 0 Z " fill="#C0BDB8" transform="translate(148,82)"/>
<path d="M0 0 C1.216875 0.33 2.43375 0.66 3.6875 1 C6.87210604 1.80322213 9.6972843 2.20641973 13 2 C13 1.34 13 0.68 13 0 C14.9375 0.8125 14.9375 0.8125 17 2 C17.33 2.99 17.66 3.98 18 5 C16.824375 5.2165625 16.824375 5.2165625 15.625 5.4375 C13.03578982 5.87798925 13.03578982 5.87798925 11 7 C8.65234375 6.07421875 8.65234375 6.07421875 5.9375 4.6875 C5.03902344 4.23761719 4.14054688 3.78773437 3.21484375 3.32421875 C1 2 1 2 0 0 Z " fill="#A49CA9" transform="translate(174,100)"/>
<path d="M0 0 C2.87525669 -0.05425013 5.74947646 -0.09379277 8.625 -0.125 C9.43324219 -0.14175781 10.24148437 -0.15851563 11.07421875 -0.17578125 C15.80093815 -0.21420986 19.55387702 0.17262906 24 2 C23.67 2.66 23.34 3.32 23 4 C20.36 4 17.72 4 15 4 C15 3.67 15 3.34 15 3 C7.575 2.01 7.575 2.01 0 1 C0 0.67 0 0.34 0 0 Z " fill="#973919" transform="translate(191,202)"/>
<path d="M0 0 C1.32 0.33 2.64 0.66 4 1 C4 2.32 4 3.64 4 5 C6.64 5 9.28 5 12 5 C12 3.35 12 1.7 12 0 C12.99 0.66 13.98 1.32 15 2 C14.67 3.65 14.34 5.3 14 7 C12.02 7 10.04 7 8 7 C8 7.66 8 8.32 8 9 C6.140625 8.75390625 6.140625 8.75390625 4 8 C2.734375 6.15234375 2.734375 6.15234375 1.75 3.9375 C1.41484375 3.20402344 1.0796875 2.47054687 0.734375 1.71484375 C0.49203125 1.14894531 0.2496875 0.58304688 0 0 Z " fill="#ACB5C5" transform="translate(163,175)"/>
<path d="M0 0 C2.475 0.99 2.475 0.99 5 2 C5 6.95 5 11.9 5 17 C4.34 16.67 3.68 16.34 3 16 C3 13.69 3 11.38 3 9 C2.67 9.66 2.34 10.32 2 11 C1.34 11 0.68 11 0 11 C0 7.37 0 3.74 0 0 Z " fill="#81C093" transform="translate(194,169)"/>
<path d="M0 0 C0.99 0.99 1.98 1.98 3 3 C2.01 3.495 2.01 3.495 1 4 C1 9.94 1 15.88 1 22 C1.66 22 2.32 22 3 22 C3 23.65 3 25.3 3 27 C3.66 27.33 4.32 27.66 5 28 C3.35 28 1.7 28 0 28 C-0.02505615 27.43490723 -0.0501123 26.86981445 -0.07592773 26.28759766 C-0.19179956 23.73316258 -0.31456537 21.1791045 -0.4375 18.625 C-0.47681641 17.73554688 -0.51613281 16.84609375 -0.55664062 15.9296875 C-0.61948242 14.65351563 -0.61948242 14.65351563 -0.68359375 13.3515625 C-0.72025146 12.56604004 -0.75690918 11.78051758 -0.79467773 10.97119141 C-0.890891 8.92476504 -0.890891 8.92476504 -2 7 C-1.34 7 -0.68 7 0 7 C0 4.69 0 2.38 0 0 Z " fill="#BB552D" transform="translate(40,174)"/>
<path d="M0 0 C0.66 1.32 1.32 2.64 2 4 C2.66 4 3.32 4 4 4 C4.96891192 9.37305699 4.96891192 9.37305699 5 12 C3.5625 14 3.5625 14 2 15 C1.34 14.67 0.68 14.34 0 14 C0 9.38 0 4.76 0 0 Z " fill="#B6522E" transform="translate(252,148)"/>
<path d="M0 0 C6.51791392 -0.3540919 11.17521449 -0.03901852 17 3 C16.01 3.33 15.02 3.66 14 4 C13.67 4.66 13.34 5.32 13 6 C12.236875 5.649375 11.47375 5.29875 10.6875 4.9375 C7.95240621 3.67639116 7.95240621 3.67639116 5 5 C4.67 4.34 4.34 3.68 4 3 C1.98330173 1.86649466 1.98330173 1.86649466 0 1 C0 0.67 0 0.34 0 0 Z " fill="#9AA9CD" transform="translate(155,143)"/>
<path d="M0 0 C0.33 0 0.66 0 1 0 C1.66 2.97 2.32 5.94 3 9 C7 7.5 7 7.5 8 5 C7.67 8.3 7.34 11.6 7 15 C5.35 15 3.7 15 2 15 C0.53329887 9.77487721 -0.22577402 5.4185766 0 0 Z " fill="#993C1B" transform="translate(249,155)"/>
<path d="M0 0 C0.90105469 0.02707031 1.80210937 0.05414063 2.73046875 0.08203125 C3.76107422 0.13423828 3.76107422 0.13423828 4.8125 0.1875 C4.8125 0.5175 4.8125 0.8475 4.8125 1.1875 C1.8425 1.1875 -1.1275 1.1875 -4.1875 1.1875 C-3.8575 5.4775 -3.5275 9.7675 -3.1875 14.1875 C-4.5075 12.8675 -5.8275 11.5475 -7.1875 10.1875 C-7.5175 10.1875 -7.8475 10.1875 -8.1875 10.1875 C-8.55372304 3.71755966 -8.55372304 3.71755966 -7 1.46875 C-4.56032766 -0.25584597 -2.95622728 -0.11517769 0 0 Z " fill="#9E401F" transform="translate(239.1875,141.8125)"/>
<path d="M0 0 C3.96 0 7.92 0 12 0 C10.02 2.97 10.02 2.97 8 6 C5.36 5.01 2.72 4.02 0 3 C0 2.01 0 1.02 0 0 Z " fill="#D5D3CF" transform="translate(143,203)"/>
<path d="M0 0 C3.3 0.99 6.6 1.98 10 3 C9.67 3.66 9.34 4.32 9 5 C8.34 5 7.68 5 7 5 C7 6.65 7 8.3 7 10 C5.68 9.67 4.36 9.34 3 9 C3.33 7.68 3.66 6.36 4 5 C1.70370006 3.85185003 -0.07698086 3.69230191 -2.625 3.4375 C-3.44226563 3.35371094 -4.25953125 3.26992187 -5.1015625 3.18359375 C-5.72804687 3.12300781 -6.35453125 3.06242187 -7 3 C-7 2.67 -7 2.34 -7 2 C-4.69 2 -2.38 2 0 2 C0 1.34 0 0.68 0 0 Z " fill="#B7684E" transform="translate(179,121)"/>
<path d="M0 0 C7.92 0 15.84 0 24 0 C24 0.33 24 0.66 24 1 C22.88625 1.103125 21.7725 1.20625 20.625 1.3125 C19.42875 1.539375 18.2325 1.76625 17 2 C16.01 3.485 16.01 3.485 15 5 C14.34 4.34 13.68 3.68 13 3 C10.40293907 2.61195187 10.40293907 2.61195187 7.5 2.5 C2.22222222 2.22222222 2.22222222 2.22222222 0 0 Z " fill="#7F819E" transform="translate(151,92)"/>
<path d="M0 0 C0.33 0 0.66 0 1 0 C1.33 2.31 1.66 4.62 2 7 C2.66 7 3.32 7 4 7 C4.34833144 11.87664009 3.41685712 14.77050005 1 19 C0.67 19 0.34 19 0 19 C-0.1938211 16.02111874 -0.38035102 13.04209754 -0.5625 10.0625 C-0.61857422 9.21236328 -0.67464844 8.36222656 -0.73242188 7.48632812 C-0.80493164 6.27299805 -0.80493164 6.27299805 -0.87890625 5.03515625 C-0.9260376 4.2862915 -0.97316895 3.53742676 -1.02172852 2.76586914 C-1 1 -1 1 0 0 Z " fill="#B24C27" transform="translate(252,126)"/>
<path d="M0 0 C3.465 1.98 3.465 1.98 7 4 C6.625 6.9375 6.625 6.9375 6 10 C5.01 10.495 5.01 10.495 4 11 C3.34 10.67 2.68 10.34 2 10 C1.61250787 7.67504723 1.28241883 5.3400417 1 3 C0.67 2.01 0.34 1.02 0 0 Z " fill="#9A9AAF" transform="translate(189,133)"/>
<path d="M0 0 C1.65 0.33 3.3 0.66 5 1 C5 2.65 5 4.3 5 6 C3.741875 5.87625 2.48375 5.7525 1.1875 5.625 C0.12595703 5.52058594 0.12595703 5.52058594 -0.95703125 5.4140625 C-3 5 -3 5 -6 3 C-4.35 3 -2.7 3 -1 3 C-0.67 2.01 -0.34 1.02 0 0 Z " fill="#9290A9" transform="translate(189,119)"/>
<path d="M0 0 C0.66 0.66 1.32 1.32 2 2 C1.625 4.625 1.625 4.625 1 7 C3.475 7.99 3.475 7.99 6 9 C6 9.66 6 10.32 6 11 C3.5 12.625 3.5 12.625 1 14 C1.33 12.68 1.66 11.36 2 10 C1.34 10 0.68 10 0 10 C0 8.02 0 6.04 0 4 C-0.66 3.67 -1.32 3.34 -2 3 C-1.34 2.01 -0.68 1.02 0 0 Z " fill="#BF582F" transform="translate(40,109)"/>
<path d="M0 0 C4 4.5 4 4.5 4 9 C4.99 9.33 5.98 9.66 7 10 C6.67 10.99 6.34 11.98 6 13 C6.99 13.33 7.98 13.66 9 14 C7.02 14 5.04 14 3 14 C3.33 13.01 3.66 12.02 4 11 C3.34 10.67 2.68 10.34 2 10 C2 8.02 2 6.04 2 4 C1.34 4 0.68 4 0 4 C0 2.68 0 1.36 0 0 Z " fill="#B57868" transform="translate(146,117)"/>
<path d="M0 0 C2.9375 0.75 2.9375 0.75 6 2 C6.875 4.125 6.875 4.125 7 6 C6.34 6 5.68 6 5 6 C5.99 7.65 6.98 9.3 8 11 C5.6875 10.5625 5.6875 10.5625 3 9 C1.63924116 6.09244107 0.78637041 3.10712212 0 0 Z " fill="#A29DA9" transform="translate(147,117)"/>
<path d="M0 0 C-0.66 1.65 -1.32 3.3 -2 5 C-2.33 4.34 -2.66 3.68 -3 3 C-4.670625 3.061875 -4.670625 3.061875 -6.375 3.125 C-10 3 -10 3 -12 1 C-8.0186217 -0.3271261 -4.14954773 -0.06915913 0 0 Z " fill="#8E94B1" transform="translate(186,173)"/>
<path d="M0 0 C2.50298434 2.93828597 3.46930939 5.17902761 4 9 C3.34 9 2.68 9 2 9 C1.67 9.99 1.34 10.98 1 12 C-1 10 -1 10 -1.1875 6.5625 C-1 3 -1 3 0 0 Z " fill="#C05931" transform="translate(39,96)"/>
<path d="M0 0 C0.89674777 2.51089376 1.13172674 3.64535109 0.1875 6.1875 C-1 8 -1 8 -3 9 C-3.91031272 11.34386809 -3.91031272 11.34386809 -4.625 14.0625 C-4.88539063 14.98160156 -5.14578125 15.90070313 -5.4140625 16.84765625 C-5.60742188 17.55792969 -5.80078125 18.26820312 -6 19 C-6.33 19 -6.66 19 -7 19 C-7.78324637 12.86457011 -6.04466493 9.93037433 -2.41015625 5.015625 C-0.82752116 2.95709827 -0.82752116 2.95709827 0 0 Z " fill="#D0CCC9" transform="translate(153,66)"/>
<path d="M0 0 C0.99 0.33 1.98 0.66 3 1 C3 1.66 3 2.32 3 3 C4.65 2.34 6.3 1.68 8 1 C9.32 2.32 10.64 3.64 12 5 C9.36 5.33 6.72 5.66 4 6 C2.68 4.02 1.36 2.04 0 0 Z " fill="#9990A8" transform="translate(157,145)"/>
<path d="M0 0 C0.33 0.66 0.66 1.32 1 2 C0.67 2.66 0.34 3.32 0 4 C-0.38923527 6.36950521 -0.7380578 8.7457572 -1.0625 11.125 C-1.23910156 12.40632813 -1.41570312 13.68765625 -1.59765625 15.0078125 C-1.73042969 15.99523437 -1.86320313 16.98265625 -2 18 C-2.99 17.67 -3.98 17.34 -5 17 C-4.690625 16.195625 -4.38125 15.39125 -4.0625 14.5625 C-2.9858126 10.95243048 -2.59805251 7.69137182 -2.34375 3.953125 C-2 2 -2 2 0 0 Z " fill="#DDDBD7" transform="translate(146,73)"/>
<path d="M0 0 C0.66 0 1.32 0 2 0 C2 4.95 2 9.9 2 15 C-0.77458464 10.83812305 -1.41714582 6.3836904 -0.5625 1.5 C-0.376875 1.005 -0.19125 0.51 0 0 Z " fill="#8E9F74" transform="translate(126,119)"/>
<path d="M0 0 C4.99911924 0.47610659 7.97832683 2.03162219 12 5 C11.67 5.99 11.34 6.98 11 8 C10.34 7.67 9.68 7.34 9 7 C9 6.01 9 5.02 9 4 C6.69 4 4.38 4 2 4 C1.34 2.68 0.68 1.36 0 0 Z " fill="#8F99B9" transform="translate(168,156)"/>
<path d="M0 0 C3.3 0.33 6.6 0.66 10 1 C10 1.99 10 2.98 10 4 C11.65 3.67 13.3 3.34 15 3 C14.67 3.99 14.34 4.98 14 6 C12.02 6 10.04 6 8 6 C8 5.01 8 4.02 8 3 C5.36 2.67 2.72 2.34 0 2 C0 1.34 0 0.68 0 0 Z " fill="#A9BED6" transform="translate(152,128)"/>
<path d="M0 0 C2 1 2 1 2.8125 2.875 C3 5 3 5 1.6875 6.625 C1.130625 7.07875 0.57375 7.5325 0 8 C-0.66 8.66 -1.32 9.32 -2 10 C-4.125 9.625 -4.125 9.625 -6 9 C-6 8.34 -6 7.68 -6 7 C-3.35261084 5.5393715 -2.10551666 5 1 5 C0.67 3.35 0.34 1.7 0 0 Z " fill="#9D7B82" transform="translate(191,109)"/>
<path d="M0 0 C4.95 0 9.9 0 15 0 C15 0.33 15 0.66 15 1 C5.58997722 3.29612756 5.58997722 3.29612756 1 3 C0.67 2.01 0.34 1.02 0 0 Z " fill="#B2C5D7" transform="translate(161,102)"/>
<path d="M0 0 C0 0.99 0 1.98 0 3 C-6.93 2.505 -6.93 2.505 -14 2 C-14 1.67 -14 1.34 -14 1 C-9.32798795 -0.20568053 -4.78503708 -0.09382426 0 0 Z " fill="#883215" transform="translate(174,86)"/>
<path d="M0 0 C3.96 0.33 7.92 0.66 12 1 C11.67 1.66 11.34 2.32 11 3 C4.95724466 4.36817102 4.95724466 4.36817102 1.5625 3.0625 C1.046875 2.711875 0.53125 2.36125 0 2 C0 1.34 0 0.68 0 0 Z " fill="#842E0F" transform="translate(195,203)"/>
<path d="M0 0 C1.32 0 2.64 0 4 0 C4 0.66 4 1.32 4 2 C5.32 2.33 6.64 2.66 8 3 C8 3.99 8 4.98 8 6 C4.7 6 1.4 6 -2 6 C-2 5.67 -2 5.34 -2 5 C-0.02 5 1.96 5 4 5 C3.73323796 3.01508358 3.73323796 3.01508358 3 1 C2.01 0.67 1.02 0.34 0 0 Z " fill="#B5A2A2" transform="translate(170,106)"/>
<path d="M0 0 C1.37562854 1.28965176 2.70766393 2.62689293 4 4 C4 4.66 4 5.32 4 6 C1.69 6 -0.62 6 -3 6 C-1.125 1.125 -1.125 1.125 0 0 Z " fill="#B4AEAA" transform="translate(150,84)"/>
<path d="M0 0 C0.66 0 1.32 0 2 0 C2.66 2.64 3.32 5.28 4 8 C2.35 8 0.7 8 -1 8 C-1.125 2.25 -1.125 2.25 0 0 Z " fill="#A7492A" transform="translate(256,163)"/>
<path d="M0 0 C2.14729141 0.28073073 4.29283193 0.57488499 6.4375 0.875 C7.63246094 1.03742188 8.82742187 1.19984375 10.05859375 1.3671875 C11.51458984 1.68042969 11.51458984 1.68042969 13 2 C13.33 2.66 13.66 3.32 14 4 C9.545 3.01 9.545 3.01 5 2 C5 2.66 5 3.32 5 4 C2.525 3.01 2.525 3.01 0 2 C0 1.34 0 0.68 0 0 Z " fill="#A78687" transform="translate(173,155)"/>
<path d="M0 0 C2.475 0.495 2.475 0.495 5 1 C4.67 2.98 4.34 4.96 4 7 C2.68 6.34 1.36 5.68 0 5 C0 3.35 0 1.7 0 0 Z " fill="#C66A3F" transform="translate(193,148)"/>
<path d="M0 0 C2.31 0.33 4.62 0.66 7 1 C7 2.65 7 4.3 7 6 C5.1875 5.8125 5.1875 5.8125 3 5 C1.25 2.4375 1.25 2.4375 0 0 Z " fill="#B1989A" transform="translate(168,132)"/>
<path d="M0 0 C0.66 0.33 1.32 0.66 2 1 C1.67 1.66 1.34 2.32 1 3 C0.34 2.67 -0.32 2.34 -1 2 C-1.33 4.31 -1.66 6.62 -2 9 C-2.66 9 -3.32 9 -4 9 C-4.33 7.02 -4.66 5.04 -5 3 C-2.625 1.4375 -2.625 1.4375 0 0 Z " fill="#9C3E1D" transform="translate(257,122)"/>
<path d="M0 0 C1.65 0 3.3 0 5 0 C5 0.66 5 1.32 5 2 C7.31 2 9.62 2 12 2 C11.67 3.65 11.34 5.3 11 7 C7.37 5.02 3.74 3.04 0 1 C0 0.67 0 0.34 0 0 Z " fill="#B7674A" transform="translate(175,92)"/>
<path d="M0 0 C5.28 0 10.56 0 16 0 C14.68 1.32 13.36 2.64 12 4 C11.01 4 10.02 4 9 4 C9 3.34 9 2.68 9 2 C6.03 1.67 3.06 1.34 0 1 C0 0.67 0 0.34 0 0 Z " fill="#8D8090" transform="translate(134,91)"/>
<path d="M0 0 C5.61 0.66 11.22 1.32 17 2 C17 2.33 17 2.66 17 3 C14.54159395 3.02691685 12.08348118 3.04679802 9.625 3.0625 C8.92632812 3.07087891 8.22765625 3.07925781 7.5078125 3.08789062 C2.2265625 3.11328125 2.2265625 3.11328125 0 2 C0 1.34 0 0.68 0 0 Z " fill="#671E05" transform="translate(169,89)"/>
<path d="M0 0 C0.99 0.33 1.98 0.66 3 1 C2.67 2.65 2.34 4.3 2 6 C0.125 5.75 0.125 5.75 -2 5 C-3.25 2.9375 -3.25 2.9375 -4 1 C-2.68 1.33 -1.36 1.66 0 2 C0 1.34 0 0.68 0 0 Z " fill="#AC7772" transform="translate(171,182)"/>
<path d="M0 0 C1.98 0.66 3.96 1.32 6 2 C5.67 3.32 5.34 4.64 5 6 C1.535 4.02 1.535 4.02 -2 2 C-1.34 1.34 -0.68 0.68 0 0 Z " fill="#70DFB4" transform="translate(193,163)"/>
<path d="M0 0 C0.99 0.33 1.98 0.66 3 1 C3 2.98 3 4.96 3 7 C1.68 6.67 0.36 6.34 -1 6 C-0.67 5.67 -0.34 5.34 0 5 C-0.66 4.67 -1.32 4.34 -2 4 C-1.34 2.68 -0.68 1.36 0 0 Z " fill="#A4B5D7" transform="translate(165,164)"/>
<path d="M0 0 C2.875 -0.125 2.875 -0.125 6 0 C6.66 0.66 7.32 1.32 8 2 C6.35 2 4.7 2 3 2 C3.33 3.65 3.66 5.3 4 7 C3.34 7 2.68 7 2 7 C1.34 4.69 0.68 2.38 0 0 Z " fill="#ADC0D6" transform="translate(169,147)"/>
<path d="M0 0 C0.66 0.66 1.32 1.32 2 2 C2.66 1.67 3.32 1.34 4 1 C6.125 1.9375 6.125 1.9375 8 3 C7.16855469 3.30744141 7.16855469 3.30744141 6.3203125 3.62109375 C5.59585938 3.89050781 4.87140625 4.15992188 4.125 4.4375 C3.04605469 4.83775391 3.04605469 4.83775391 1.9453125 5.24609375 C-0.03648845 5.97916854 -0.03648845 5.97916854 -2 7 C-1.125 2.25 -1.125 2.25 0 0 Z " fill="#9C8390" transform="translate(152,140)"/>
<path d="M0 0 C1.32 0.33 2.64 0.66 4 1 C3.9071875 2.1446875 3.9071875 2.1446875 3.8125 3.3125 C3.74101915 6.04525312 3.74101915 6.04525312 5.5 7.8125 C5.995 8.204375 6.49 8.59625 7 9 C3.34683329 7.75023244 2.21934164 7.32901247 0 4 C0 2.68 0 1.36 0 0 Z " fill="#B6C1D3" transform="translate(168,136)"/>
<path d="M0 0 C0.66 0.33 1.32 0.66 2 1 C2.40729228 3.32156597 2.74438677 5.6568787 3 8 C2.01 8.495 2.01 8.495 1 9 C0.34 8.67 -0.32 8.34 -1 8 C-0.67 5.36 -0.34 2.72 0 0 Z " fill="#B36C5B" transform="translate(187,171)"/>
<path d="M0 0 C2.0625 0.4375 2.0625 0.4375 4 1 C4.33 2.65 4.66 4.3 5 6 C4.01 6 3.02 6 2 6 C2 5.34 2 4.68 2 4 C1.34 4 0.68 4 0 4 C-0.33 3.01 -0.66 2.02 -1 1 C-0.67 0.67 -0.34 0.34 0 0 Z " fill="#A1B3D7" transform="translate(176,163)"/>
<path d="M0 0 C0.66 1.32 1.32 2.64 2 4 C2.66 4 3.32 4 4 4 C3.625 6.9375 3.625 6.9375 3 10 C2.01 10.495 2.01 10.495 1 11 C0.67 7.37 0.34 3.74 0 0 Z " fill="#B24A25" transform="translate(252,148)"/>
<path d="M0 0 C0.99 0.33 1.98 0.66 3 1 C3 2.32 3 3.64 3 5 C2.34 5 1.68 5 1 5 C0.67 5.99 0.34 6.98 0 8 C-0.66 7.34 -1.32 6.68 -2 6 C-1.64644564 3.73725212 -1.02455574 2.04911148 0 0 Z " fill="#A1ADC8" transform="translate(167,131)"/>
<path d="M0 0 C0.66 0 1.32 0 2 0 C2.33 1.32 2.66 2.64 3 4 C5.97 4 8.94 4 12 4 C12 4.33 12 4.66 12 5 C8.37 5 4.74 5 1 5 C0.34 3.68 -0.32 2.36 -1 1 C-0.67 0.67 -0.34 0.34 0 0 Z " fill="#7B2F17" transform="translate(156,87)"/>
<path d="M0 0 C2.55028983 1.27514492 2.93081711 2.40341297 4 5 C4 5.99 4 6.98 4 8 C2.68 8 1.36 8 0 8 C0 5.36 0 2.72 0 0 Z " fill="#9E98AD" transform="translate(168,164)"/>
<path d="M0 0 C1.32 0 2.64 0 4 0 C4 2.97 4 5.94 4 9 C3.67 7.68 3.34 6.36 3 5 C2.01 4.67 1.02 4.34 0 4 C0 2.68 0 1.36 0 0 Z " fill="#C57A61" transform="translate(99,154)"/>
<path d="M0 0 C2.31 1.98 4.62 3.96 7 6 C2.70600835 7.07349791 1.80504787 6.79682816 -2 5 C-1.01 4.67 -0.02 4.34 1 4 C0.67 2.68 0.34 1.36 0 0 Z " fill="#C0765F" transform="translate(167,139)"/>
<path d="M0 0 C2 3 2 3 1.625 5.6875 C1.41875 6.450625 1.2125 7.21375 1 8 C-0.9375 7.625 -0.9375 7.625 -3 7 C-3.33 6.34 -3.66 5.68 -4 5 C-3.525625 4.54625 -3.05125 4.0925 -2.5625 3.625 C-0.90972192 2.06741796 -0.90972192 2.06741796 0 0 Z " fill="#B6CADD" transform="translate(183,111)"/>
<path d="M0 0 C2.64 0 5.28 0 8 0 C6.515 1.98 6.515 1.98 5 4 C3.02 3.34 1.04 2.68 -1 2 C-0.67 1.34 -0.34 0.68 0 0 Z " fill="#C7C6C3" transform="translate(147,203)"/>
<path d="M0 0 C0.99 0.33 1.98 0.66 3 1 C3 2.65 3 4.3 3 6 C3.66 6.33 4.32 6.66 5 7 C3.35 7 1.7 7 0 7 C0 4.69 0 2.38 0 0 Z " fill="#B04D28" transform="translate(40,195)"/>
<path d="M0 0 C1.98 0 3.96 0 6 0 C5.01 0.33 4.02 0.66 3 1 C3 2.98 3 4.96 3 7 C1.68 5.68 0.36 4.36 -1 3 C-0.67 2.01 -0.34 1.02 0 0 Z " fill="#BFB8BF" transform="translate(150,168)"/>
<path d="M0 0 C1.98 0.99 3.96 1.98 6 3 C6 3.33 6 3.66 6 4 C3.03 4 0.06 4 -3 4 C-2.01 2.68 -1.02 1.36 0 0 Z " fill="#C67155" transform="translate(154,164)"/>
<path d="M0 0 C0 1.65 0 3.3 0 5 C-2.97 4.505 -2.97 4.505 -6 4 C-6 3.34 -6 2.68 -6 2 C-3 0 -3 0 0 0 Z " fill="#C1684C" transform="translate(190,146)"/>
<path d="M0 0 C1.9375 0.8125 1.9375 0.8125 4 2 C4.33 2.99 4.66 3.98 5 5 C2.23735711 5.59732819 -0.16032769 6 -3 6 C-3 5.34 -3 4.68 -3 4 C-1.35 4 0.3 4 2 4 C1.34 2.68 0.68 1.36 0 0 Z " fill="#9C7679" transform="translate(187,100)"/>
<path d="M0 0 C1.98 0.99 1.98 0.99 4 2 C4 5.3 4 8.6 4 12 C1.22917166 9.22917166 1.46903579 6.81929143 1 3 C0.67 2.01 0.34 1.02 0 0 Z " fill="#CE5932" transform="translate(187,169)"/>
<path d="M0 0 C0.66 0.66 1.32 1.32 2 2 C1.34 2 0.68 2 0 2 C-0.33 2.99 -0.66 3.98 -1 5 C-4.875 3.25 -4.875 3.25 -6 1 C-3.125 0.375 -3.125 0.375 0 0 Z " fill="#BB6244" transform="translate(192,104)"/>
<path d="M0 0 C1.98362069 2.91708924 1.9876191 4.12380904 1.625 7.75 C1.41875 8.8225 1.2125 9.895 1 11 C-1.08997373 7.60379269 -1.2632246 4.94836905 -1 1 C-0.67 0.67 -0.34 0.34 0 0 Z " fill="#979C70" transform="translate(126,99)"/>
<path d="M0 0 C2.1519437 3.22791555 2.20086443 4.28400809 2 8 C0.0625 7.625 0.0625 7.625 -2 7 C-2.33 6.34 -2.66 5.68 -3 5 C-2.01 5 -1.02 5 0 5 C0 3.35 0 1.7 0 0 Z " fill="#A7A0AE" transform="translate(161,177)"/>
<path d="M0 0 C2 2 2 2 4 5 C2.35 5.33 0.7 5.66 -1 6 C-1.625 4.125 -1.625 4.125 -2 2 C-1.34 1.34 -0.68 0.68 0 0 Z " fill="#D27450" transform="translate(96,170)"/>
<path d="M0 0 C1.9375 0.8125 1.9375 0.8125 4 2 C4.33 2.99 4.66 3.98 5 5 C2.69 4.67 0.38 4.34 -2 4 C-1.34 3.67 -0.68 3.34 0 3 C0 2.01 0 1.02 0 0 Z " fill="#B76852" transform="translate(194,122)"/>
<path d="M0 0 C1.32 0.66 2.64 1.32 4 2 C4 2.66 4 3.32 4 4 C3.01 4.66 2.02 5.32 1 6 C0.01 5.67 -0.98 5.34 -2 5 C-1.34 5 -0.68 5 0 5 C0 3.35 0 1.7 0 0 Z " fill="#C36442" transform="translate(173,183)"/>
<path d="M0 0 C1.485 0.99 1.485 0.99 3 2 C2.67 3.65 2.34 5.3 2 7 C1.01 7 0.02 7 -1 7 C-0.67 4.69 -0.34 2.38 0 0 Z " fill="#ABC0D8" transform="translate(175,175)"/>
<path d="M0 0 C1.32 0.33 2.64 0.66 4 1 C3.67 2.65 3.34 4.3 3 6 C2.01 5.67 1.02 5.34 0 5 C0 3.35 0 1.7 0 0 Z " fill="#A9675B" transform="translate(159,156)"/>
<path d="M0 0 C0.99 0 1.98 0 3 0 C3.66 1.32 4.32 2.64 5 4 C2.69 3.67 0.38 3.34 -2 3 C-1.34 2.01 -0.68 1.02 0 0 Z " fill="#BF6D54" transform="translate(162,135)"/>
<path d="M0 0 C0.33 0.99 0.66 1.98 1 3 C3.00016466 4.20882096 3.00016466 4.20882096 5 5 C1.625 4.6875 1.625 4.6875 -2 4 C-2.66 3.01 -3.32 2.02 -4 1 C-2.68 0.67 -1.36 0.34 0 0 Z " fill="#918FA9" transform="translate(153,105)"/>
<path d="M0 0 C0.66 0.66 1.32 1.32 2 2 C0.6875 4.5 0.6875 4.5 -1 7 C-1.99 7 -2.98 7 -4 7 C-4 4 -4 4 -2 1.8125 C-1.34 1.214375 -0.68 0.61625 0 0 Z " fill="#C4BEB9" transform="translate(162,56)"/>
<path d="M0 0 C1.65 1.65 3.3 3.3 5 5 C4.34 5.66 3.68 6.32 3 7 C2.34 6.67 1.68 6.34 1 6 C0.375 2.9375 0.375 2.9375 0 0 Z " fill="#C86A4B" transform="translate(171,166)"/>
<path d="M0 0 C1.875 0.25 1.875 0.25 4 1 C5.25 3.0625 5.25 3.0625 6 5 C5.34 5.66 4.68 6.32 4 7 C3.34 5.68 2.68 4.36 2 3 C1.01 3 0.02 3 -1 3 C-0.67 2.01 -0.34 1.02 0 0 Z " fill="#9C7171" transform="translate(163,156)"/>
<path d="M0 0 C0.99 0.33 1.98 0.66 3 1 C2.67 2.98 2.34 4.96 2 7 C1.01 7 0.02 7 -1 7 C-0.649375 6.21625 -0.29875 5.4325 0.0625 4.625 C0.371875 3.75875 0.68125 2.8925 1 2 C0.67 1.34 0.34 0.68 0 0 Z " fill="#A67B7B" transform="translate(193,136)"/>
<path d="M0 0 C0.66 0 1.32 0 2 0 C1.649375 0.61875 1.29875 1.2375 0.9375 1.875 C0.4734375 2.926875 0.4734375 2.926875 0 4 C0.33 4.66 0.66 5.32 1 6 C-0.65 5.67 -2.3 5.34 -4 5 C-4 4.34 -4 3.68 -4 3 C-3.01 2.67 -2.02 2.34 -1 2 C-0.67 1.34 -0.34 0.68 0 0 Z " fill="#B1B9C7" transform="translate(152,113)"/>
</svg>
