<?xml version="1.0" encoding="UTF-8"?>
<svg version="1.1" xmlns="http://www.w3.org/2000/svg" width="295" height="298">
<path d="M0 0 C97.35 0 194.7 0 295 0 C295 98.34 295 196.68 295 298 C197.65 298 100.3 298 0 298 C0 199.66 0 101.32 0 0 Z " fill="#EEECEB" transform="translate(0,0)"/>
<path d="M0 0 C0.66 0 1.32 0 2 0 C2.10744589 11.13304709 2.1097883 22.26067714 1.77954102 33.38964844 C1.75772609 34.12701925 1.73591116 34.86439007 1.71343517 35.62410545 C1.69088822 36.38614092 1.66834127 37.14817638 1.64511108 37.93330383 C0.87182795 64.18715432 0.8456641 90.43708732 0.86962891 116.70043945 C0.87538991 123.09711008 0.87198729 129.49373931 0.86605644 135.89040852 C0.86241932 140.91033737 0.86360272 145.93025661 0.86618423 150.95018578 C0.86684146 153.30887037 0.86606836 155.66755589 0.86370468 158.0262394 C0.85269871 172.05088325 1.13885742 186.00044867 2 200 C2.61359375 200.28617188 3.2271875 200.57234375 3.859375 200.8671875 C6.39351266 202.20824575 8.05359133 203.91456214 10 206 C24.09598642 199.91748531 34.30662058 180.38259295 40 167 C41.14028023 163.40560532 41.18754241 159.93546796 41.28125 156.1796875 C41.29965942 155.52098663 41.31806885 154.86228577 41.33703613 154.18362427 C41.39554265 152.08083681 41.44836681 149.97796668 41.5 147.875 C42.11464277 123.22035726 42.11464277 123.22035726 45.3125 118.8125 C48 117 48 117 49.7890625 117.125 C52.88335832 118.34959764 55.40593726 120.22373764 58.0625 122.1875 C58.95485352 122.83658325 58.95485352 122.83658325 59.86523438 123.4987793 C61.18467029 124.46067224 62.50176793 125.42577827 63.81689453 126.39355469 C66.1845855 128.13582785 68.5589514 129.86877756 70.93359375 131.6015625 C72.62281491 132.83796931 74.31162079 134.0749437 76 135.3125 C76.80058838 135.89862061 77.60117676 136.48474121 78.42602539 137.08862305 C82.73845895 140.26575263 86.92688864 143.52088405 91 147 C86.32383333 154.45818989 80.94127739 161.28324994 75.46435547 168.15625 C73.55074699 170.56564834 71.65645684 172.98987044 69.76196289 175.41430664 C63.15873323 183.85635153 56.48233639 192.23201245 49.4375 200.3125 C48.77621094 201.07175781 48.11492187 201.83101562 47.43359375 202.61328125 C40.73107064 209.18670279 33.27274726 213.05946352 24.75 216.875 C23.67492187 217.37257812 22.59984375 217.87015625 21.4921875 218.3828125 C13.52245021 222 13.52245021 222 9 222 C6.78125 221.16015625 6.78125 221.16015625 4.5 220.0625 C-5.16623772 215.44455424 -18.09456101 215.34049245 -28.4296875 217.82421875 C-30.72362387 218.7620134 -32.83369652 219.80329203 -35 221 C-37.21606445 222.22412109 -37.21606445 222.22412109 -40 223 C-43.07104492 222.10058594 -43.07104492 222.10058594 -46.48046875 220.484375 C-47.09336258 220.19451721 -47.70625641 219.90465942 -48.33772278 219.60601807 C-49.63545525 218.98584942 -50.92883854 218.35650868 -52.21801758 217.71875 C-54.15172513 216.76759696 -56.1014011 215.85901217 -58.05664062 214.953125 C-70.3745108 209.07364503 -78.22313765 200.26150458 -86.65869141 189.66650391 C-88.78113732 187.02947883 -90.9500322 184.43125036 -93.11206055 181.82666016 C-102.1963048 170.87016495 -110.97729323 159.76840761 -119 148 C-116.09693382 144.0170493 -112.91087959 141.25037293 -108.875 138.5 C-107.63488802 137.63487187 -106.3953341 136.76894342 -105.15625 135.90234375 C-104.49238281 135.44069824 -103.82851562 134.97905273 -103.14453125 134.50341797 C-99.19113692 131.73190131 -95.28589035 128.89351172 -91.375 126.0625 C-90.60526855 125.50691406 -89.83553711 124.95132813 -89.04248047 124.37890625 C-84.91776127 121.41171431 -84.91776127 121.41171431 -80.88525391 118.32202148 C-79 117 -79 117 -77 117.0625 C-74.08304772 118.42982138 -72.87114869 119.29006052 -71 122 C-69.86662698 128.079576 -69.95668487 134.34982111 -69.96484375 140.51171875 C-69.97918348 155.62117359 -69.95575555 168.20158226 -61 181 C-60.06607422 182.5778125 -60.06607422 182.5778125 -59.11328125 184.1875 C-54.19469886 192.27171089 -47.82601403 198.55204213 -41 205 C-40.34 205.66 -39.68 206.32 -39 207 C-38.51789063 206.4946875 -38.03578125 205.989375 -37.5390625 205.46875 C-36.59160156 204.49421875 -36.59160156 204.49421875 -35.625 203.5 C-34.99851562 202.8503125 -34.37203125 202.200625 -33.7265625 201.53125 C-32 200 -32 200 -30 200 C-30 197.69 -30 195.38 -30 193 C-29.67 193 -29.34 193 -29 193 C-29 194.65 -29 196.3 -29 198 C-28.2575 197.67 -27.515 197.34 -26.75 197 C-24 196 -24 196 -20 196 C-20 186.1 -20 176.2 -20 166 C-19.67 166 -19.34 166 -19 166 C-19 175.57 -19 185.14 -19 195 C-15.37 195 -11.74 195 -8 195 C-4.8450565 195.91227282 -1.9910976 196.7592484 1 198 C0.67 197.34 0.34 196.68 0 196 C-0.98771731 187.70684868 -1.14589383 179.37751744 -1.12939453 171.03564453 C-1.13202301 169.35649208 -1.13202301 169.35649208 -1.13470459 167.64341736 C-1.13907261 163.97319952 -1.13619772 160.30303077 -1.1328125 156.6328125 C-1.13348821 154.03197216 -1.13446044 151.43113188 -1.13571167 148.83029175 C-1.13752525 143.3751372 -1.13515551 137.91999623 -1.13037109 132.46484375 C-1.12558958 126.95148833 -1.12550033 121.43816002 -1.13037109 115.92480469 C-1.15489545 87.50959964 -1.12732021 59.11144062 -0.22045898 30.70825195 C0.10159085 20.47219402 0.09835307 10.23964783 0 0 Z " fill="#1C1B1C" transform="translate(161,38)"/>
<path d="M0 0 C1.25554687 -0.03738281 2.51109375 -0.07476562 3.8046875 -0.11328125 C7.125 0.3125 7.125 0.3125 9.0703125 2.20703125 C10.125 4.3125 10.125 4.3125 10.125 6.3125 C10.785 6.3125 11.445 6.3125 12.125 6.3125 C12.125 4.6625 12.125 3.0125 12.125 1.3125 C14.56358919 4.97038379 14.32732636 7.54533655 14.18432617 11.75634766 C14.16669755 12.5188319 14.14906893 13.28131615 14.13090611 14.06690598 C14.06954679 16.62046547 13.99360043 19.17338899 13.91796875 21.7265625 C13.8719873 23.54120422 13.82702651 25.35587206 13.78302002 27.17056274 C13.68702191 31.05955527 13.58501264 34.94832457 13.47824097 38.83703613 C13.2253746 48.06487015 13.00284876 57.29345509 12.77911568 66.52203369 C12.72827994 68.61351429 12.67706248 70.70498565 12.62547112 72.79644775 C12.06398631 95.57731128 11.73736952 118.35867957 11.49086094 141.14486885 C11.28611069 159.88013968 10.83607873 178.58994144 10.125 197.3125 C9.19723755 197.48881958 9.19723755 197.48881958 8.25073242 197.66870117 C7.0341394 197.91583862 7.0341394 197.91583862 5.79296875 198.16796875 C4.98883545 198.32676514 4.18470215 198.48556152 3.35620117 198.64916992 C-0.00619448 199.64880106 -1.62199872 201.69414716 -3.875 204.3125 C-5.83250089 206.03585007 -7.85177761 207.66569108 -9.875 209.3125 C-11.36379247 204.28525406 -10.52355548 199.55542268 -9.9519043 194.44335938 C-8.76672479 182.67816749 -8.60064286 171.03400796 -8.64453125 159.21875 C-8.64547655 157.0398409 -8.64564382 154.86093134 -8.64509583 152.68202209 C-8.6464398 146.91241747 -8.66082287 141.14291647 -8.67816925 135.37334061 C-8.69069421 130.59351227 -8.69468053 125.81369038 -8.69899368 121.03384876 C-8.72191803 98.30342704 -8.81518318 75.57544967 -9.17578125 52.84765625 C-9.18890413 52.0105801 -9.20202702 51.17350395 -9.21554756 50.31106186 C-9.33756096 42.6231509 -9.47232524 34.93576551 -9.64726162 27.24886417 C-9.69318441 25.18764387 -9.73502352 23.12638558 -9.77531433 21.06504822 C-9.82439436 18.61186189 -9.88169128 16.15881906 -9.94917297 13.70606995 C-9.96932968 12.64621384 -9.98948639 11.58635773 -10.01025391 10.49438477 C-10.03246002 9.58245865 -10.05466614 8.67053253 -10.07754517 7.73097229 C-9.48065854 0.60390141 -6.46025879 0.12550605 0 0 Z " fill="#D1CFD5" transform="translate(130.875,36.6875)"/>
<path d="M0 0 C0.66 0 1.32 0 2 0 C2.33 1.32 2.66 2.64 3 4 C3.66 4 4.32 4 5 4 C6.2981424 2.8509288 6.2981424 2.8509288 7 0 C8.45823212 -0.0270043 9.91660675 -0.04639787 11.375 -0.0625 C12.18710938 -0.07410156 12.99921875 -0.08570313 13.8359375 -0.09765625 C16 0 16 0 18 1 C18.93233658 18.51534397 19.32034319 36.02607494 19.5625 53.5625 C19.57778936 54.64143021 19.57778936 54.64143021 19.5933876 55.74215698 C19.96576486 82.0599051 20.13474128 108.37806651 20.18122482 134.69831467 C20.18744111 137.47370829 20.1973308 140.24906593 20.20828247 143.02444458 C20.34766518 180.53815952 20.34766518 180.53815952 18 198 C9.42751886 193.96939892 3.94947153 183.26711414 0 175 C-0.93033408 170.59733532 -1.12560882 166.39999046 -1.12698364 161.90727234 C-1.12854363 161.21681456 -1.13010362 160.52635678 -1.13171089 159.81497604 C-1.13568191 157.51424256 -1.13254648 155.2135757 -1.12939453 152.9128418 C-1.13075024 151.25842755 -1.13253113 149.6040136 -1.13470459 147.94960022 C-1.13925696 143.46655273 -1.13749886 138.9835283 -1.1343255 134.50048041 C-1.1317927 129.8110954 -1.13414182 125.12171236 -1.13571167 120.43232727 C-1.13752977 112.5631983 -1.13513553 104.69407872 -1.13037109 96.82495117 C-1.12491971 87.71579319 -1.12669892 78.60665757 -1.1321975 69.49750012 C-1.1367276 61.68086578 -1.13737997 53.86423818 -1.13475883 46.04760295 C-1.1331967 41.37681608 -1.13300073 36.70603973 -1.13629532 32.03525352 C-1.13917286 27.64975493 -1.13720054 23.26428535 -1.13140106 18.8787899 C-1.13007323 17.26503548 -1.13046796 15.65127865 -1.13266373 14.03752518 C-1.13537411 11.84425307 -1.13199563 9.65107545 -1.12698364 7.45780945 C-1.12660662 6.22763438 -1.12622959 4.99745932 -1.12584114 3.73000622 C-1 1 -1 1 0 0 Z " fill="#CFCDD3" transform="translate(95,37)"/>
<path d="M0 0 C3.04386724 -0.08226668 5.07175348 0.02391783 8 1 C8.66 0.67 9.32 0.34 10 0 C10.06963857 15.39786052 9.95941402 30.79087111 9.78125 46.1875 C9.77026276 47.14139618 9.75927551 48.09529236 9.74795532 49.07809448 C9.65562013 57.05447285 9.56021239 65.03081396 9.46356201 73.00714111 C8.71205236 120.28968285 8.71205236 120.28968285 9.5 167.5625 C9.54868369 169.00193608 9.59685702 170.44138951 9.64453125 171.88085938 C9.75727801 175.25412267 9.87642937 178.62711348 10 182 C11.32 181.67 12.64 181.34 14 181 C6.32952716 193.42307129 6.32952716 193.42307129 2 198 C1.34 198 0.68 198 0 198 C-1.8813415 185.80607783 -2.28053558 173.92795953 -2.23046875 161.609375 C-2.22965162 159.64162208 -2.22962104 157.67386869 -2.23031616 155.70611572 C-2.2292755 150.46845576 -2.21508015 145.23091347 -2.19743729 139.99328613 C-2.18746235 136.73771062 -2.18120523 133.48214928 -2.17623901 130.2265625 C-2.1330448 102.14935831 -1.96935259 74.07438667 -1.5625 46 C-1.55270992 45.30341782 -1.54291985 44.60683563 -1.5328331 43.8891449 C-1.32640285 29.23831709 -1.07749207 14.61687405 0 0 Z " fill="#CFCCD3" transform="translate(181,37)"/>
<path d="M0 0 C7.75 -0.125 7.75 -0.125 10 1 C10.10813578 11.5852916 10.05092664 22.15521723 9.71343517 32.73639774 C8.81386787 61.10416458 8.84632045 89.47309649 8.87143153 117.85215992 C8.87579132 123.36464824 8.87265308 128.87711385 8.8678025 134.38960075 C8.86268698 140.45354512 8.86326472 146.51747526 8.86618423 152.5814209 C8.86684474 155.12007655 8.86605626 157.65873305 8.86370468 160.1973877 C8.85453821 172.83493171 8.85143242 185.40587054 10 198 C1.25 196.125 1.25 196.125 -1 195 C-2.04164749 178.68362429 -2.15754033 162.40813022 -2.125 146.0625 C-2.12361592 144.70418309 -2.12238686 143.34586601 -2.12130737 141.98754883 C-2.10411803 123.60416659 -1.90937283 105.23256952 -1.4284668 86.85498047 C-0.95091766 68.46791527 -0.69407649 50.07871506 -0.4375 31.6875 C-0.41514525 30.09545878 -0.39277596 28.50341776 -0.37039185 26.91137695 C-0.24445975 17.94095107 -0.12094425 8.97049463 0 0 Z " fill="#D8D6DB" transform="translate(152,38)"/>
<path d="M0 0 C2.375 0.1875 2.375 0.1875 5 1 C6.3125 3.5625 6.3125 3.5625 7 6 C7.66 6 8.32 6 9 6 C9 4.35 9 2.7 9 1 C11.43858919 4.65788379 11.20232636 7.23283655 11.05932617 11.44384766 C11.04169755 12.2063319 11.02406893 12.96881615 11.00590611 13.75440598 C10.94454679 16.30796547 10.86860043 18.86088899 10.79296875 21.4140625 C10.7469873 23.22870422 10.70202651 25.04337206 10.65802002 26.85806274 C10.56202191 30.74705527 10.46001264 34.63582457 10.35324097 38.52453613 C10.1003746 47.75237015 9.87784876 56.98095509 9.65411568 66.20953369 C9.60327994 68.30101429 9.55206248 70.39248565 9.50047112 72.48394775 C8.93898631 95.26481128 8.61236952 118.04617957 8.36586094 140.83236885 C8.16111069 159.56763968 7.71107873 178.27744144 7 197 C2.545 197.99 2.545 197.99 -2 199 C-1.92894547 197.83266862 -1.85789093 196.66533724 -1.78468323 195.46263218 C-1.14100567 184.42738357 -0.86379381 173.44820327 -0.90234375 162.39624023 C-0.90427051 160.73480779 -0.90573071 159.07337476 -0.9067688 157.41194153 C-0.90989147 153.87910778 -0.9160999 150.34629893 -0.92483521 146.81347466 C-0.93852911 141.21818616 -0.94428654 135.62290543 -0.94897461 130.02760315 C-0.95999529 118.16422455 -0.97956158 106.30086554 -1 94.4375 C-1.0220867 81.59291947 -1.0426238 68.7483467 -1.05341816 55.90375096 C-1.05837596 50.34936319 -1.06819654 44.79501247 -1.08184814 39.24063957 C-1.08933769 35.78434305 -1.0926291 32.32805152 -1.0948143 28.87174797 C-1.09667642 27.2778849 -1.10025739 25.6840227 -1.10574722 24.090168 C-1.13268787 16.01067734 -1.07320681 8.0225508 0 0 Z " fill="#DDDBE0" transform="translate(134,37)"/>
<path d="M0 0 C0.66 0 1.32 0 2 0 C2.33 1.32 2.66 2.64 3 4 C3.66 4 4.32 4 5 4 C6.2981424 2.8509288 6.2981424 2.8509288 7 0 C7.66 0.33 8.32 0.66 9 1 C8.99476318 2.29542725 8.98952637 3.59085449 8.98413086 4.92553711 C8.87130337 35.85542095 9.09575249 66.76306055 9.64428711 97.68725586 C10.00728449 118.30652302 10.18929462 138.89380802 9.62768555 159.51049805 C9.56107332 161.99061839 9.50207515 164.47085327 9.44335938 166.95117188 C9.40149169 168.55990761 9.35919119 170.16863215 9.31640625 171.77734375 C9.29969376 172.50340317 9.28298126 173.22946259 9.26576233 173.9775238 C9.13776092 178.40089196 8.70111812 182.64037836 8 187 C1.21804381 179.0069802 -1.12376576 172.42280276 -1.12698364 161.90727234 C-1.12854363 161.21681456 -1.13010362 160.52635678 -1.13171089 159.81497604 C-1.13568191 157.51424256 -1.13254648 155.2135757 -1.12939453 152.9128418 C-1.13075024 151.25842755 -1.13253113 149.6040136 -1.13470459 147.94960022 C-1.13925696 143.46655273 -1.13749886 138.9835283 -1.1343255 134.50048041 C-1.1317927 129.8110954 -1.13414182 125.12171236 -1.13571167 120.43232727 C-1.13752977 112.5631983 -1.13513553 104.69407872 -1.13037109 96.82495117 C-1.12491971 87.71579319 -1.12669892 78.60665757 -1.1321975 69.49750012 C-1.1367276 61.68086578 -1.13737997 53.86423818 -1.13475883 46.04760295 C-1.1331967 41.37681608 -1.13300073 36.70603973 -1.13629532 32.03525352 C-1.13917286 27.64975493 -1.13720054 23.26428535 -1.13140106 18.8787899 C-1.13007323 17.26503548 -1.13046796 15.65127865 -1.13266373 14.03752518 C-1.13537411 11.84425307 -1.13199563 9.65107545 -1.12698364 7.45780945 C-1.12660662 6.22763438 -1.12622959 4.99745932 -1.12584114 3.73000622 C-1 1 -1 1 0 0 Z " fill="#E5E3E8" transform="translate(95,37)"/>
<path d="M0 0 C0.33 0 0.66 0 1 0 C1.33 18.48 1.66 36.96 2 56 C2.33 56 2.66 56 3 56 C3.02712153 57.916588 3.04645097 59.8332873 3.0625 61.75 C3.07410156 62.81734375 3.08570313 63.8846875 3.09765625 64.984375 C3.01510087 67.53368501 2.74617558 69.57933591 2 72 C2.66 72 3.32 72 4 72 C4.99512468 77.41972862 5.32925196 82.77421238 5.62109375 88.26953125 C5.74613281 89.17058594 5.87117187 90.07164062 6 91 C6.66 91.33 7.32 91.66 8 92 C7.505 92.495 7.505 92.495 7 93 C5.99335171 98.73572263 5.92685733 104.5994172 5.82421875 110.40625 C5.81222443 111.06173828 5.8002301 111.71722656 5.78787231 112.39257812 C5.73946105 115.11183502 5.69188377 117.83063868 5.67407227 120.55029297 C5.6078387 129.0628344 4.97908505 136.3181394 1 144 C0.67 144 0.34 144 0 144 C-1.8573545 96.01010909 -1.02992259 48.00027082 0 0 Z " fill="#A9A5AD" transform="translate(198,67)"/>
<path d="M0 0 C0 2.64 0 5.28 0 8 C3.63 8 7.26 8 11 8 C11 5.36 11 2.72 11 0 C15.51478398 0.53115106 18.34666857 2.36620292 22 5 C21.01 6.32 20.02 7.64 19 9 C23.81209901 11.29045014 23.81209901 11.29045014 29 12 C30.31626692 15.61973402 31 18.09567131 31 22 C28.56854505 21.04967782 26.18306751 20.09087047 23.84375 18.9296875 C13.92922387 14.46815074 1.10526956 14.25427361 -9.40234375 16.8359375 C-11.71609142 17.76143657 -13.82230501 18.79699914 -16 20 C-17.65975032 20.68370397 -19.32504345 21.35444383 -21 22 C-20.71788123 20.3733152 -20.42397625 18.74867104 -20.125 17.125 C-19.96257812 16.22007812 -19.80015625 15.31515625 -19.6328125 14.3828125 C-19 12 -19 12 -17 10 C-17 10.66 -17 11.32 -17 12 C-14.36 11.01 -11.72 10.02 -9 9 C-9.99 7.68 -10.98 6.36 -12 5 C-7.80991378 1.48938722 -5.59849738 0 0 0 Z " fill="#1F1C1D" transform="translate(142,239)"/>
<path d="M0 0 C0.66 0 1.32 0 2 0 C2 3.3 2 6.6 2 10 C1.34 10 0.68 10 0 10 C0.06493652 11.04494629 0.12987305 12.08989258 0.19677734 13.16650391 C1.13914647 29.41982599 1.37259584 45.68661027 1.59233475 61.96218491 C1.62528097 64.39575353 1.65966725 66.82929936 1.69406128 69.2628479 C2.18080179 104.51976886 1.73181654 139.74962922 1 175 C0.67 175 0.34 175 0 175 C-0.85064032 170.58017239 -1.12560716 166.40540386 -1.12698364 161.90727234 C-1.12854363 161.21681456 -1.13010362 160.52635678 -1.13171089 159.81497604 C-1.13568191 157.51424256 -1.13254648 155.2135757 -1.12939453 152.9128418 C-1.13075024 151.25842755 -1.13253113 149.6040136 -1.13470459 147.94960022 C-1.13925696 143.46655273 -1.13749886 138.9835283 -1.1343255 134.50048041 C-1.1317927 129.8110954 -1.13414182 125.12171236 -1.13571167 120.43232727 C-1.13752977 112.5631983 -1.13513553 104.69407872 -1.13037109 96.82495117 C-1.12491971 87.71579319 -1.12669892 78.60665757 -1.1321975 69.49750012 C-1.1367276 61.68086578 -1.13737997 53.86423818 -1.13475883 46.04760295 C-1.1331967 41.37681608 -1.13300073 36.70603973 -1.13629532 32.03525352 C-1.13917286 27.64975493 -1.13720054 23.26428535 -1.13140106 18.8787899 C-1.13007323 17.26503548 -1.13046796 15.65127865 -1.13266373 14.03752518 C-1.13537411 11.84425307 -1.13199563 9.65107545 -1.12698364 7.45780945 C-1.12660662 6.22763438 -1.12622959 4.99745932 -1.12584114 3.73000622 C-1 1 -1 1 0 0 Z " fill="#969199" transform="translate(95,37)"/>
<path d="M0 0 C0.33 0 0.66 0 1 0 C1.26444541 8.3901897 1.52543001 16.78047763 1.78230286 25.17090225 C1.90175241 29.06922831 2.02228114 32.96751402 2.14550781 36.86572266 C2.67307705 53.5786811 3.18645469 70.27604999 3 87 C-0.62233843 82.43270372 -1.1423271 79.08258503 -1.31640625 73.3046875 C-1.33727798 72.64405304 -1.35814972 71.98341858 -1.37965393 71.30276489 C-1.44564832 69.16029233 -1.50455198 67.01770425 -1.5625 64.875 C-1.60463299 63.40885354 -1.64678795 61.9427077 -1.68896484 60.4765625 C-2.42918185 33.98610192 -2.42918185 33.98610192 -1.25390625 25.2890625 C-0.72763111 20.54448972 -0.61950307 15.76788361 -0.4375 11 C-0.39431641 9.93910156 -0.35113281 8.87820312 -0.30664062 7.78515625 C-0.20144004 5.19020849 -0.09929881 2.59517916 0 0 Z " fill="#DFDCE0" transform="translate(92,123)"/>
<path d="M0 0 C0.33 0 0.66 0 1 0 C1.33 4.95 1.66 9.9 2 15 C2.33 15 2.66 15 3 15 C3.08767743 19.49987562 3.14062009 23.999529 3.1875 28.5 C3.21263672 29.7684375 3.23777344 31.036875 3.26367188 32.34375 C3.31804804 39.30389891 3.03406252 44.69297241 0 51 C-0.33 51 -0.66 51 -1 51 C-1.02529373 44.05827612 -1.04284304 37.11656406 -1.05493164 30.17480469 C-1.05996959 27.81184444 -1.06680008 25.44888732 -1.07543945 23.0859375 C-1.08752854 19.69530465 -1.09323359 16.30471291 -1.09765625 12.9140625 C-1.10281754 11.85256989 -1.10797882 10.79107727 -1.11329651 9.69741821 C-1.11337204 8.71655243 -1.11344757 7.73568665 -1.11352539 6.72509766 C-1.115746 5.85905914 -1.11796661 4.99302063 -1.12025452 4.10073853 C-1 2 -1 2 0 0 Z " fill="#E0DDE2" transform="translate(200,158)"/>
<path d="M0 0 C0.99 0.33 1.98 0.66 3 1 C3.02886338 5.47915328 3.04675187 9.95828291 3.0625 14.4375 C3.07087891 15.71689453 3.07925781 16.99628906 3.08789062 18.31445312 C3.09111328 19.52939453 3.09433594 20.74433594 3.09765625 21.99609375 C3.10289307 23.12200928 3.10812988 24.2479248 3.11352539 25.40795898 C3 28 3 28 2 29 C1.76807135 30.51469448 1.58784762 32.03754562 1.4375 33.5625 C1.35371094 34.38878906 1.26992187 35.21507812 1.18359375 36.06640625 C1.12300781 36.70449219 1.06242188 37.34257812 1 38 C0.67 38 0.34 38 0 38 C0 25.46 0 12.92 0 0 Z " fill="#ECEAF0" transform="translate(152,190)"/>
<path d="M0 0 C0 2.64 0 5.28 0 8 C-1.62418745 8.08090971 -3.24951745 8.13914995 -4.875 8.1875 C-6.23238281 8.23970703 -6.23238281 8.23970703 -7.6171875 8.29296875 C-8.79667969 8.14794922 -8.79667969 8.14794922 -10 8 C-10.66 7.01 -11.32 6.02 -12 5 C-7.80991378 1.48938722 -5.59849738 0 0 0 Z " fill="#CCCAD3" transform="translate(142,239)"/>
<path d="M0 0 C0.33 0 0.66 0 1 0 C1.1953125 2.05078125 1.390625 4.1015625 1.5859375 6.15234375 C1.72257813 6.76207031 1.85921875 7.37179688 2 8 C2.66 8.33 3.32 8.66 4 9 C3.67 9.33 3.34 9.66 3 10 C1.36230304 18.25245732 0.57406382 26.61564678 0 35 C-0.33 35 -0.66 35 -1 35 C-1.0247636 30.65836985 -1.04289015 26.3167774 -1.05493164 21.97509766 C-1.05995288 20.49885339 -1.06677116 19.02261408 -1.07543945 17.54638672 C-1.08760189 15.42153702 -1.09325046 13.29675322 -1.09765625 11.171875 C-1.10289307 9.8940918 -1.10812988 8.61630859 -1.11352539 7.29980469 C-1.02194632 4.6379064 -0.80108514 2.51690418 0 0 Z " fill="#C4C2C4" transform="translate(202,150)"/>
<path d="M0 0 C0.33 0 0.66 0 1 0 C1.79706768 3.49992696 2.11863027 6.7142231 2.09765625 10.30078125 C2.09282227 11.76547852 2.09282227 11.76547852 2.08789062 13.25976562 C2.07951172 14.26716797 2.07113281 15.27457031 2.0625 16.3125 C2.05798828 17.33923828 2.05347656 18.36597656 2.04882812 19.42382812 C2.03708184 21.94927882 2.02065565 24.47460905 2 27 C1.34 27.33 0.68 27.66 0 28 C-0.87799269 22.72507567 -1.15314453 17.65526902 -1.125 12.3125 C-1.12886719 11.56677734 -1.13273437 10.82105469 -1.13671875 10.05273438 C-1.13043485 6.53060854 -0.94707645 3.38718555 0 0 Z " fill="#D5D3D6" transform="translate(91,150)"/>
<path d="M0 0 C4.51478398 0.53115106 7.34666857 2.36620292 11 5 C10.01 6.485 10.01 6.485 9 8 C6.8359375 8.29296875 6.8359375 8.29296875 4.375 8.1875 C3.55773437 8.16042969 2.74046875 8.13335937 1.8984375 8.10546875 C1.27195313 8.07066406 0.64546875 8.03585938 0 8 C0 5.36 0 2.72 0 0 Z " fill="#D4D3DB" transform="translate(153,239)"/>
<path d="M0 0 C0.33 0 0.66 0 1 0 C1 2.64 1 5.28 1 8 C-2.3 8 -5.6 8 -9 8 C-9 6.02 -9 4.04 -9 2 C-6.36 2 -3.72 2 -1 2 C-0.67 1.34 -0.34 0.68 0 0 Z " fill="#454248" transform="translate(152,239)"/>
<path d="M0 0 C1.62477811 2.96162086 2.51695886 5.69266927 3.1875 9 C3.36667969 9.845625 3.54585938 10.69125 3.73046875 11.5625 C4.00334098 14.03021411 3.76424119 15.65849506 3 18 C-0.24201565 11.92122066 -0.33278764 6.81598387 0 0 Z " fill="#D9D6DB" transform="translate(91,192)"/>
<path d="M0 0 C2.99324263 1.0975223 3.84610901 1.67682892 5.25 4.625 C5.4975 5.40875 5.745 6.1925 6 7 C2.7 6.01 -0.6 5.02 -4 4 C-2.68 2.68 -1.36 1.36 0 0 Z " fill="#100F10" transform="translate(163,245)"/>
<path d="M0 0 C0.66 0.33 1.32 0.66 2 1 C1.67 4.96 1.34 8.92 1 13 C-0.32 11.35 -1.64 9.7 -3 8 C-2.505 7.05125 -2.01 6.1025 -1.5 5.125 C0.14424369 2.27721834 0.14424369 2.27721834 0 0 Z " fill="#DADAE0" transform="translate(102,211)"/>
<path d="M0 0 C1.65 0 3.3 0 5 0 C4.1875 3.4375 4.1875 3.4375 3 7 C2.01 7.33 1.02 7.66 0 8 C0 5.36 0 2.72 0 0 Z " fill="#E6E4E7" transform="translate(114,37)"/>
<path d="M0 0 C2.46800047 1.15173355 4.04783565 2.04783565 6 4 C2.7 4.66 -0.6 5.32 -4 6 C-1.125 1.125 -1.125 1.125 0 0 Z " fill="#111112" transform="translate(129,245)"/>
<path d="M0 0 C0.33 0 0.66 0 1 0 C1.38133299 1.9914056 1.71325582 3.99279077 2 6 C1.67 6.33 1.34 6.66 1 7 C0.76472227 9.34987262 0.58613583 11.70556039 0.4375 14.0625 C0.35371094 15.35285156 0.26992187 16.64320313 0.18359375 17.97265625 C0.12300781 18.97167969 0.06242187 19.97070312 0 21 C-0.33 21 -0.66 21 -1 21 C-1.0270203 18.24993392 -1.04684883 15.50013454 -1.0625 12.75 C-1.07087891 11.97269531 -1.07925781 11.19539062 -1.08789062 10.39453125 C-1.09111328 9.64042969 -1.09433594 8.88632813 -1.09765625 8.109375 C-1.10289307 7.41811523 -1.10812988 6.72685547 -1.11352539 6.01464844 C-0.99437971 3.90026102 -0.57618237 2.03358485 0 0 Z " fill="#BCBABD" transform="translate(91,150)"/>
<path d="M0 0 C0.66 0 1.32 0 2 0 C2 3.3 2 6.6 2 10 C0 9 0 9 -1 8 C-1.125 4.5 -1.125 4.5 -1 1 C-0.67 0.67 -0.34 0.34 0 0 Z " fill="#8F8683" transform="translate(95,37)"/>
<path d="M0 0 C1.32 0 2.64 0 4 0 C4 3.3 4 6.6 4 10 C3.67 10 3.34 10 3 10 C3 8.35 3 6.7 3 5 C2.01 4.67 1.02 4.34 0 4 C0 2.68 0 1.36 0 0 Z " fill="#F5F4F8" transform="translate(128,38)"/>
<path d="M0 0 C2 3 2 3 1.75 6.0625 C1 9 1 9 -1 11 C-1.125 3.375 -1.125 3.375 0 0 Z " fill="#E2DFE5" transform="translate(200,198)"/>
<path d="M0 0 C0 1.98 0 3.96 0 6 C-2.31 6 -4.62 6 -7 6 C-5.68 5.67 -4.36 5.34 -3 5 C-3 3.68 -3 2.36 -3 1 C-1 0 -1 0 0 0 Z " fill="#E4E4EA" transform="translate(141,241)"/>
<path d="M0 0 C0.99 0.33 1.98 0.66 3 1 C1.02 3.97 1.02 3.97 -1 7 C-1.66 6.67 -2.32 6.34 -3 6 C-2.42655063 3.13275314 -2.1385485 2.1385485 0 0 Z " fill="#C5C5CB" transform="translate(192,218)"/>
<path d="M0 0 C0.66 0.33 1.32 0.66 2 1 C2.125 3.875 2.125 3.875 2 7 C1.34 7.66 0.68 8.32 0 9 C-0.87890625 2.84765625 -0.87890625 2.84765625 -1 1 C-0.67 0.67 -0.34 0.34 0 0 Z " fill="#E4E1E7" transform="translate(163,62)"/>
<path d="M0 0 C-1.65 1.65 -3.3 3.3 -5 5 C-5.33 3.35 -5.66 1.7 -6 0 C-3 -1 -3 -1 0 0 Z " fill="#C2C1C6" transform="translate(126,241)"/>
</svg>
