<?xml version="1.0" encoding="UTF-8"?>
<svg version="1.1" xmlns="http://www.w3.org/2000/svg" width="298" height="295">
<path d="M0 0 C98.34 0 196.68 0 298 0 C298 97.35 298 194.7 298 295 C199.66 295 101.32 295 0 295 C0 197.65 0 100.3 0 0 Z " fill="#EFEDEC" transform="translate(0,0)"/>
<path d="M0 0 C4.27371608 1.47478885 7.69836146 3.72246388 11.3125 6.375 C11.91787598 6.81416748 12.52325195 7.25333496 13.14697266 7.70581055 C15.10324459 9.13016639 17.05224277 10.56402714 19 12 C19.64469238 12.4729248 20.28938477 12.94584961 20.95361328 13.43310547 C31.22328421 20.98094197 41.19719849 28.855913 51 37 C52.27230469 38.05380859 52.27230469 38.05380859 53.5703125 39.12890625 C62.17155925 46.43833077 66.72657061 53.90167614 71.3125 64.25 C71.84939453 65.43335937 72.38628906 66.61671875 72.93945312 67.8359375 C78.17851849 79.43719699 78.17851849 79.43719699 77.2578125 82.33984375 C76.88398438 83.19707031 76.51015625 84.05429688 76.125 84.9375 C70.97488344 96.87640658 72.07430668 109.79073362 76 122 C76.4228125 122.969375 76.845625 123.93875 77.28125 124.9375 C78.25522556 129.08748282 77.16806919 130.6834458 75.125 134.375 C74.46106229 135.60222839 73.79835115 136.83012097 73.13671875 138.05859375 C72.78528809 138.69780762 72.43385742 139.33702148 72.07177734 139.99560547 C70.97487119 142.04699488 69.95761321 144.12273484 68.95703125 146.22265625 C62.91044566 158.91141319 56.14064301 165.97587462 45.05078125 174.42724609 C42.92676822 176.0561618 40.82109049 177.70650436 38.71875 179.36328125 C30.98026385 185.45283329 23.16690344 191.41624364 15.1875 197.1875 C14.44081055 197.72810059 13.69412109 198.26870117 12.92480469 198.82568359 C2.92701808 206 2.92701808 206 0 206 C-1.19824219 204.64916992 -1.19824219 204.64916992 -2.546875 202.73046875 C-3.05549072 202.01544189 -3.56410645 201.30041504 -4.08813477 200.5637207 C-4.63655029 199.77956787 -5.18496582 198.99541504 -5.75 198.1875 C-6.91948278 196.53828892 -8.09009501 194.8898783 -9.26171875 193.2421875 C-9.87192871 192.38206055 -10.48213867 191.52193359 -11.11083984 190.63574219 C-14.77565328 185.52262176 -18.55192497 180.49021027 -22.32910156 175.4597168 C-25.56069745 171.113079 -28.41935207 166.76378774 -31 162 C-29.68 160.68 -28.36 159.36 -27 158 C-30.01326722 157.12977335 -32.71472241 156.86571719 -35.84686279 156.84178162 C-36.81998917 156.8319928 -37.79311554 156.82220398 -38.79573059 156.81211853 C-39.85668442 156.80636307 -40.91763824 156.8006076 -42.01074219 156.79467773 C-43.13298691 156.78477814 -44.25523163 156.77487854 -45.41148376 156.76467896 C-49.12325934 156.73307542 -52.83504771 156.70831092 -56.546875 156.68359375 C-59.11948989 156.66302324 -61.6921014 156.64202675 -64.26470947 156.62062073 C-70.34547574 156.5710541 -76.42626012 156.52578616 -82.50707459 156.48259836 C-90.1102201 156.42833529 -97.71331119 156.36750164 -105.31640625 156.30664062 C-118.87756234 156.19811572 -132.43876826 156.09952809 -146 156 C-146 121.02 -146 86.04 -146 50 C-137.57726562 49.93941406 -129.15453125 49.87882812 -120.4765625 49.81640625 C-114.47715117 49.77078694 -108.47774713 49.72454915 -102.47834778 49.67741489 C-94.69847375 49.61637509 -86.91859739 49.55681465 -79.13867188 49.50268555 C-72.32409187 49.45526773 -65.50956665 49.40274786 -58.69504929 49.34705925 C-56.08984025 49.32661436 -53.48461702 49.30790488 -50.87938309 49.29092598 C-47.24196469 49.26692918 -43.60464479 49.23686818 -39.96728516 49.20532227 C-38.8804393 49.1995668 -37.79359344 49.19381134 -36.67381287 49.18788147 C-35.19300484 49.17319824 -35.19300484 49.17319824 -33.68228149 49.15821838 C-32.39084952 49.14853956 -32.39084952 49.14853956 -31.07332802 49.1386652 C-28.93791668 49.13001265 -28.93791668 49.13001265 -27 48 C-28.32 46.68 -29.64 45.36 -31 44 C-29.64650435 41.11996634 -28.10215936 38.63375836 -26.19921875 36.0859375 C-25.64008789 35.333125 -25.08095703 34.5803125 -24.50488281 33.8046875 C-23.90514648 33.00289062 -23.30541016 32.20109375 -22.6875 31.375 C-21.42505331 29.67501951 -20.16335369 27.97448402 -18.90234375 26.2734375 C-17.93530518 24.96971191 -17.93530518 24.96971191 -16.94873047 23.63964844 C-13.85366019 19.44722801 -10.79888951 15.22607194 -7.75 11 C-6.92761841 9.86183838 -6.92761841 9.86183838 -6.08862305 8.70068359 C-4.01476203 5.82453557 -1.96726377 2.95089565 0 0 Z " fill="#34211D" transform="translate(183,45)"/>
<path d="M0 0 C16.15826755 -0.03473029 32.30527256 -0.05938116 48.4609375 0.21875 C49.73983353 0.24063385 51.01872955 0.2625177 52.33638 0.2850647 C57.0555647 0.3676122 61.77471397 0.45199558 66.49381638 0.53911591 C84.03067418 0.86201404 101.55133425 1.05007139 119.09088898 0.84914398 C121.68433118 0.82047706 124.27777479 0.79629847 126.87127686 0.77374268 C128.57971192 0.75866749 130.28814698 0.74359181 131.99658203 0.72851562 C132.83523552 0.72124325 133.67388901 0.71397087 134.53795624 0.70647812 C139.50138705 0.66006492 144.46303304 0.58123504 149.42561245 0.4791584 C152.52437288 0.422621 155.62292611 0.39534236 158.72211647 0.37530136 C160.15397213 0.35976662 161.58576022 0.3319239 163.01709557 0.29031754 C173.05594599 0.00531812 179.12049462 1.73873331 187 8 C187.61691711 8.45471176 188.23383423 8.90942352 188.8694458 9.37791443 C190.3425786 10.47896887 191.7681068 11.64298554 193.1875 12.8125 C194.10917969 13.56144531 195.03085938 14.31039062 195.98046875 15.08203125 C196.64691406 15.71496094 197.31335938 16.34789063 198 17 C198 17.66 198 18.32 198 19 C199.65071396 20.02611949 201.31970006 21.02308143 203 22 C204.8125 23.6875 204.8125 23.6875 206 25 C204.84826645 27.46800047 203.95216435 29.04783565 202 31 C197.69655239 37.08095858 194.09836661 43.37658768 194 51 C194.63650963 53.00980097 195.30049373 55.01124777 196 57 C194.98065369 57.01030746 193.96130737 57.02061493 192.91107178 57.03123474 C179.85734853 57.16356168 166.80366658 57.29970401 153.75 57.4375 C152.70217346 57.44852123 151.65434692 57.45954247 150.57476807 57.47089767 C124.0479515 57.7503456 97.52380749 58.07226699 71 58.5625 C47.32754702 58.99966777 23.6774222 59.08108706 0 59 C0 39.53 0 20.06 0 0 Z " fill="#DC5834" transform="translate(37,99)"/>
<path d="M0 0 C10.74483666 -0.20039136 21.48903522 -0.36672071 32.23534393 -0.46374512 C37.2109584 -0.50923504 42.18496947 -0.57136721 47.15972424 -0.67592621 C51.81235154 -0.77294218 56.46303954 -0.82250569 61.11663914 -0.83493042 C62.81038416 -0.84755411 64.50410428 -0.87719397 66.19720936 -0.9254303 C78.92983801 -1.27329326 78.92983801 -1.27329326 83.08114147 2.3844986 C84.85274214 4.91420708 86.20793423 7.43998856 87.59365368 10.19272614 C89.15047797 11.95987529 89.15047797 11.95987529 90.59365368 13.19272614 C89.09740144 17.0013682 87.07520494 19.05631968 83.59365368 21.19272614 C81.58540354 20.91336525 79.58650176 20.56644748 77.59365368 20.19272614 C74.46912625 19.91815329 71.33998628 19.77629595 68.20693493 19.63413239 C66.83702152 19.57075432 66.83702152 19.57075432 65.4394331 19.50609589 C54.5545211 19.04736468 43.67340544 19.08328059 32.78115368 19.13022614 C30.70888916 19.13526103 28.63662343 19.13982035 26.5643568 19.14389801 C21.5740915 19.15472343 16.58388674 19.17187335 11.59365368 19.19272614 C12.75090954 19.20818733 12.75090954 19.20818733 13.9315443 19.22396088 C21.22833011 19.32223691 28.52503765 19.42479195 35.82169628 19.53206539 C39.57231441 19.58705735 43.32294058 19.64043719 47.07363415 19.69004059 C50.69820918 19.73803692 54.32269828 19.79038835 57.9471693 19.84566689 C59.32491425 19.86593192 60.7026826 19.88466937 62.08047009 19.90180016 C68.99104826 19.98868421 75.75813533 20.13034745 82.59365368 21.19272614 C81.05361189 25.43029334 77.89734304 27.59499786 74.40615368 30.19272614 C73.57760876 30.83081207 73.57760876 30.83081207 72.73232555 31.48178864 C68.28837731 34.84700844 63.67317858 37.67402427 58.6659193 40.14340973 C57.2337215 40.86862016 55.82814899 41.64800411 54.44839001 42.46860504 C47.60141818 46.3555948 42.05421726 46.84145879 34.28115368 46.56772614 C32.75264782 46.5464566 32.75264782 46.5464566 31.19326305 46.52475739 C26.2015461 46.43372303 21.21956858 46.23393832 16.23504162 45.95839691 C1.61925641 45.16149717 -12.97837983 44.97740056 -27.61337757 44.87631989 C-30.16169493 44.85568942 -32.71000933 44.83469166 -35.25832081 44.81334686 C-41.21810798 44.76429617 -47.17791538 44.71887519 -53.13774461 44.6753245 C-59.93861297 44.62541709 -66.73944023 44.57070281 -73.54026854 44.51564491 C-87.49559053 44.40277048 -101.45095289 44.29637097 -115.40634632 44.19272614 C-115.40634632 30.33272614 -115.40634632 16.47272614 -115.40634632 2.19272614 C-84.03920448 1.49857085 -52.67236612 0.88106447 -21.30168247 0.37324142 C-14.20093672 0.25769776 -7.10044186 0.13285661 0 0 Z " fill="#DB5834" transform="translate(152.40634632110596,156.8072738647461)"/>
<path d="M0 0 C4.27371608 1.47478885 7.69836146 3.72246388 11.3125 6.375 C11.91787598 6.81416748 12.52325195 7.25333496 13.14697266 7.70581055 C15.10324459 9.13016639 17.05224277 10.56402714 19 12 C19.64469238 12.4729248 20.28938477 12.94584961 20.95361328 13.43310547 C28.69003616 19.11909633 36.28874492 24.95687977 43.75 31 C44.41757324 31.53987549 45.08514648 32.07975098 45.77294922 32.63598633 C49.01522224 35.28507929 52.10774987 37.96167663 55 41 C54.34 42.65 53.68 44.3 53 46 C51.74509766 45.89171875 51.74509766 45.89171875 50.46484375 45.78125 C33.67776947 44.3716234 33.67776947 44.3716234 17 46 C16.505 46.99 16.505 46.99 16 48 C8.66885841 48.39536851 1.33617499 48.71431074 -6 49 C-6.96502441 49.0422168 -7.93004883 49.08443359 -8.92431641 49.12792969 C-11.6370398 49.23807671 -14.34832147 49.31195052 -17.0625 49.375 C-17.88782227 49.41302734 -18.71314453 49.45105469 -19.56347656 49.49023438 C-24.01654283 49.55324072 -25.47997283 49.42903902 -29.05859375 46.4765625 C-29.69925781 45.65929687 -30.33992187 44.84203125 -31 44 C-29.64650435 41.11996634 -28.10215936 38.63375836 -26.19921875 36.0859375 C-25.64008789 35.333125 -25.08095703 34.5803125 -24.50488281 33.8046875 C-23.90514648 33.00289062 -23.30541016 32.20109375 -22.6875 31.375 C-21.42505331 29.67501951 -20.16335369 27.97448402 -18.90234375 26.2734375 C-18.25765137 25.40428711 -17.61295898 24.53513672 -16.94873047 23.63964844 C-13.85366019 19.44722801 -10.79888951 15.22607194 -7.75 11 C-7.20174561 10.24122559 -6.65349121 9.48245117 -6.08862305 8.70068359 C-4.01476203 5.82453557 -1.96726377 2.95089565 0 0 Z " fill="#211D1E" transform="translate(183,45)"/>
<path d="M0 0 C0.66193359 0.01998047 1.32386719 0.03996094 2.00585938 0.06054688 C3.53477685 0.11092083 5.06330356 0.17408538 6.59130859 0.24707031 C9.77502328 0.39674432 12.95919273 0.50748442 16.14453125 0.6171875 C22.53507449 0.84285397 28.92390277 1.1000329 35.3125 1.375 C35.3125 2.035 35.3125 2.695 35.3125 3.375 C43.20400047 4.37525163 50.99052068 4.49508681 58.9375 4.4375 C60.13246094 4.43298828 61.32742187 4.42847656 62.55859375 4.42382812 C65.47661647 4.41215603 68.39453037 4.39578326 71.3125 4.375 C71.3125 5.035 71.3125 5.695 71.3125 6.375 C69.9925 7.035 68.6725 7.695 67.3125 8.375 C68.3025 8.705 69.2925 9.035 70.3125 9.375 C70.3125 8.715 70.3125 8.055 70.3125 7.375 C70.9725 7.375 71.6325 7.375 72.3125 7.375 C72.08413618 10.94635633 71.50887948 12.18590556 68.890625 14.70703125 C67.79161914 15.5475877 66.68121781 16.37336274 65.5625 17.1875 C64.95269287 17.64761475 64.34288574 18.10772949 63.71459961 18.58178711 C62.34651055 19.61353534 60.97442822 20.64000254 59.59912109 21.66210938 C57.12534937 23.51519313 54.68060134 25.40254962 52.23828125 27.296875 C44.17822028 33.53246284 36.09437332 39.70187087 27.625 45.375 C27.00761963 45.79015869 26.39023926 46.20531738 25.75415039 46.63305664 C21.57261185 49.375 21.57261185 49.375 19.3125 49.375 C18.11425781 48.02416992 18.11425781 48.02416992 16.765625 46.10546875 C16.25700928 45.39044189 15.74839355 44.67541504 15.22436523 43.9387207 C14.67594971 43.15456787 14.12753418 42.37041504 13.5625 41.5625 C12.39301722 39.91328892 11.22240499 38.2648783 10.05078125 36.6171875 C9.44057129 35.75706055 8.83036133 34.89693359 8.20166016 34.01074219 C4.53684672 28.89762176 0.76057503 23.86521027 -3.01660156 18.8347168 C-6.24819745 14.488079 -9.10685207 10.13878774 -11.6875 5.375 C-7.89086209 0.85892414 -5.88242293 -0.24165629 0 0 Z " fill="#221E1F" transform="translate(163.6875,201.625)"/>
<path d="M0 0 C5.15019641 0.86214742 7.78213259 4.06298025 10.80126953 8.15136719 C13.42244199 12.19363152 15.47948606 16.53838996 17.5625 20.875 C18.2433667 22.28507324 18.2433667 22.28507324 18.93798828 23.72363281 C22.12903161 30.61290517 22.12903161 30.61290517 21 34 C19.989375 34.0825 18.97875 34.165 17.9375 34.25 C13.62213084 34.84006068 10.65261803 36.68916002 7 39 C6.319375 38.195625 5.63875 37.39125 4.9375 36.5625 C1.51522698 33.57711289 -0.5428126 33.26218749 -5 33 C-3.68 32.67 -2.36 32.34 -1 32 C-5.256344 27.46905316 -9.94718101 23.61901451 -15 20 C-15.73318703 19.3773526 -15.73318703 19.3773526 -16.48118591 18.74212646 C-23.03956365 13.77525691 -29.90050937 14.37971693 -37.796875 14.546875 C-39.28105924 14.5592031 -40.76526543 14.569094 -42.2494812 14.57673645 C-45.42455128 14.59734266 -48.59896019 14.63282387 -51.77374268 14.6802063 C-56.80137655 14.75443374 -61.82886476 14.79346453 -66.85693359 14.82397461 C-68.12692231 14.83173684 -68.12692231 14.83173684 -69.42256737 14.83965588 C-71.14568499 14.85006738 -72.86880347 14.86033817 -74.59192276 14.87047005 C-77.20989236 14.88680975 -79.82782571 14.90620669 -82.44577026 14.9261322 C-99.13692082 15.04621639 -115.81870016 14.86932752 -132.50752258 14.59651184 C-134.58031117 14.56321781 -136.65311942 14.53199815 -138.72595215 14.50158691 C-158.82472845 14.20378633 -178.91033266 13.6576751 -199 13 C-199 11.68 -199 10.36 -199 9 C-198.41821456 8.99576806 -197.83642912 8.99153612 -197.23701382 8.98717594 C-182.96695882 8.88308729 -168.69694459 8.77434641 -154.42696285 8.66066074 C-147.5256235 8.60578727 -140.62427907 8.55239007 -133.72290039 8.50268555 C-127.04439079 8.45458174 -120.3659282 8.40207671 -113.68747139 8.34705925 C-111.15823007 8.32690947 -108.62897717 8.30815701 -106.09971428 8.29092598 C-91.96231464 8.19360443 -77.86302779 7.91833275 -63.74182129 7.21716309 C-58.0142153 6.93709379 -52.29605295 6.88141558 -46.5625 6.9375 C-45.61697266 6.94201172 -44.67144531 6.94652344 -43.69726562 6.95117188 C-41.4647599 6.96250439 -39.23242727 6.9785882 -37 7 C-36.67 6.01 -36.34 5.02 -36 4 C-23.77074342 2.04769212 -12.11988884 2.90843213 0 5 C0 3.35 0 1.7 0 0 Z " fill="#2E201F" transform="translate(236,86)"/>
<path d="M0 0 C31.35164198 -0.11428302 62.66075576 0.0832058 94 1 C94 1.33 94 1.66 94 2 C86.27889509 2.02348362 78.55779902 2.0410941 70.83666706 2.05181217 C67.24892705 2.0569641 63.66121199 2.06391604 60.07348633 2.07543945 C43.69066111 2.12671509 27.35793876 2.02446457 11 1 C10.67 1.99 10.34 2.98 10 4 C9.01 4 8.02 4 7 4 C6.67 4.66 6.34 5.32 6 6 C5.34 6 4.68 6 4 6 C4 6.66 4 7.32 4 8 C16.62485899 8.31827788 29.24986453 8.63038689 41.875 8.9375 C42.81619186 8.96039848 43.75738373 8.98329697 44.72709656 9.00688934 C71.89986989 9.66631965 99.07194038 10.2369754 126.25 10.625 C126.96731041 10.63524578 127.68462082 10.64549156 128.42366791 10.65604782 C136.94902657 10.77724382 145.47445945 10.89232787 154 11 C154 11.33 154 11.66 154 12 C173.8 12.495 173.8 12.495 194 13 C194.99 15.97 194.99 15.97 196 19 C194.47098053 19.0154612 194.47098053 19.0154612 192.91107178 19.03123474 C179.85734853 19.16356168 166.80366658 19.29970401 153.75 19.4375 C152.70217346 19.44852123 151.65434692 19.45954247 150.57476807 19.47089767 C124.0479515 19.7503456 97.52380749 20.07226699 71 20.5625 C47.33071717 20.99960922 23.6727871 21.11073549 0 21 C0 14.07 0 7.14 0 0 Z " fill="#CB5030" transform="translate(37,137)"/>
<path d="M0 0 C3.63560265 -0.00746182 7.27114337 -0.02072983 10.90672302 -0.03552246 C16.63718356 -0.05784466 22.36744714 -0.06453581 28.09794617 -0.05846214 C30.21603438 -0.05830695 32.33412923 -0.06307165 34.45219421 -0.07299232 C37.34533755 -0.0852426 40.23783413 -0.07881102 43.13096619 -0.06726074 C43.98101604 -0.07490952 44.8310659 -0.08255829 45.70687485 -0.09043884 C51.4863292 -0.03811715 51.4863292 -0.03811715 53.61688614 1.82844257 C54.03306576 2.31572425 54.44924538 2.80300592 54.8780365 3.30505371 C53.38178426 7.11369577 51.35958776 9.16864725 47.8780365 11.30505371 C45.86999788 11.0241765 43.87115637 10.67732282 41.8780365 10.30505371 C38.6868295 10.03294432 35.49096081 9.89253235 32.29161072 9.75036621 C31.36778028 9.70832062 30.44394985 9.66627502 29.49212456 9.62295532 C19.74727837 9.21080258 10.01294452 9.1520232 0.260849 9.18005371 C-1.15943415 9.18188156 -1.15943415 9.18188156 -2.60840988 9.18374634 C-25.74247851 9.21789234 -48.86692995 9.7130992 -71.99427795 10.23217773 C-81.72680891 10.45023376 -91.4594859 10.66140628 -101.192276 10.86755371 C-102.21498848 10.88936707 -103.23770096 10.91118042 -104.29140472 10.93365479 C-119.90465258 11.26304375 -135.50490144 11.43615182 -151.1219635 11.30505371 C-151.1219635 8.33505371 -151.1219635 5.36505371 -151.1219635 2.30505371 C-100.75115694 0.97700583 -50.38953498 0.07616794 0 0 Z " fill="#E75D36" transform="translate(188.12196350097656,166.6949462890625)"/>
<path d="M0 0 C2.93507672 -0.0110611 5.8699911 -0.02888781 8.80499268 -0.05255127 C12.87455034 -0.08472611 16.94377574 -0.09228153 21.01345825 -0.09695435 C22.83188232 -0.11540657 22.83188232 -0.11540657 24.68704224 -0.13423157 C26.34340698 -0.1297979 26.34340698 -0.1297979 28.03323364 -0.12527466 C28.99395279 -0.12892029 29.95467194 -0.13256592 30.94450378 -0.13632202 C33.74840678 0.29144889 34.62302037 1.04111936 36.353302 3.23117065 C28.7922765 7.88750833 22.83012036 8.91569128 14.040802 8.60617065 C13.0217981 8.59199097 12.00279419 8.57781128 10.95291138 8.5632019 C5.96119442 8.47216755 0.9792169 8.27238284 -4.00531006 7.99684143 C-18.62109527 7.19994169 -33.21873151 7.01584508 -47.85372925 6.9147644 C-50.4020466 6.89413394 -52.95036101 6.87313618 -55.49867249 6.85179138 C-61.45845965 6.80274069 -67.41826706 6.7573197 -73.37809628 6.71376902 C-80.17896464 6.66386161 -86.97979191 6.60914733 -93.78062022 6.55408943 C-107.7359409 6.44121501 -121.69130126 6.33418159 -135.646698 6.23117065 C-135.646698 4.91117065 -135.646698 3.59117065 -135.646698 2.23117065 C-90.46122105 0.62331215 -45.21198815 0.16539504 0 0 Z " fill="#9F432B" transform="translate(172.64669799804688,194.76882934570313)"/>
<path d="M0 0 C0 0.33 0 0.66 0 1 C-6.60917612 1.99483413 -13.05701532 2.14508075 -19.734375 2.1328125 C-21.47121048 2.13485939 -21.47121048 2.13485939 -23.24313354 2.13694763 C-27.07878379 2.13898994 -30.91435742 2.1325927 -34.75 2.125 C-36.08974188 2.12361826 -37.42948392 2.12238867 -38.76922607 2.12130737 C-83.17633191 2.07929566 -127.61957556 1.5792119 -172 0 C-172 -0.99 -172 -1.98 -172 -3 C-171.41821456 -3.00423194 -170.83642912 -3.00846388 -170.23701382 -3.01282406 C-155.96695882 -3.11691271 -141.69694459 -3.22565359 -127.42696285 -3.33933926 C-120.5256235 -3.39421273 -113.62427907 -3.44760993 -106.72290039 -3.49731445 C-100.04439079 -3.54541826 -93.3659282 -3.59792329 -86.68747139 -3.65294075 C-84.15823007 -3.67309053 -81.62897717 -3.69184299 -79.09971428 -3.70907402 C-65.09993198 -3.80544822 -51.13510753 -4.06503678 -37.15113831 -4.75575256 C-9.33746819 -6.12292996 -9.33746819 -6.12292996 0 0 Z " fill="#E35C36" transform="translate(209,98)"/>
<path d="M0 0 C17.82 0 35.64 0 54 0 C53.34 2.97 52.68 5.94 52 9 C19.32365624 9.18846161 -13.33070301 8.64170728 -46 8 C-46 7.67 -46 7.34 -46 7 C-44.56274129 6.83126522 -43.12518162 6.66509263 -41.6875 6.5 C-40.88699219 6.4071875 -40.08648437 6.314375 -39.26171875 6.21875 C-36.50075073 5.95171337 -33.77296326 6 -31 6 C-30.67 5.34 -30.34 4.68 -30 4 C-27.67038557 3.64159778 -25.33634657 3.31151288 -23 3 C-22.113125 2.62875 -21.22625 2.2575 -20.3125 1.875 C-17.62210412 0.85701237 -16.65996124 1.05614279 -14 2 C-11.89381604 2.55751928 -10.18115464 3 -8 3 C-7.67 2.34 -7.34 1.68 -7 1 C-6.34 1 -5.68 1 -5 1 C-5 1.66 -5 2.32 -5 3 C-3.35 2.34 -1.7 1.68 0 1 C0 0.67 0 0.34 0 0 Z " fill="#E96037" transform="translate(179,140)"/>
<path d="M0 0 C1.47968324 0.14049518 2.95874516 0.28754826 4.4375 0.4375 C5.67306641 0.55931641 5.67306641 0.55931641 6.93359375 0.68359375 C9 1 9 1 10 2 C12.79086849 2.0639976 15.55765753 2.06611863 18.34765625 2.02734375 C20.08528437 2.01468391 21.82291469 2.00232397 23.56054688 1.99023438 C26.30337371 1.96553304 29.04608615 1.93770137 31.78881836 1.90405273 C34.4334379 1.87361073 37.07791593 1.85599109 39.72265625 1.83984375 C40.5313063 1.82638412 41.33995636 1.8129245 42.17311096 1.79905701 C46.09659032 1.78199542 49.53608326 2.03019596 53.32983398 3.07250977 C56.81847873 3.95412763 57.78073037 4.01447817 61 3 C60.67 3.99 60.34 4.98 60 6 C60.66 6 61.32 6 62 6 C62 6.66 62 7.32 62 8 C61.18845459 7.99476318 60.37690918 7.98952637 59.54077148 7.98413086 C55.83968896 7.96325662 52.13861887 7.95030664 48.4375 7.9375 C47.16068359 7.92912109 45.88386719 7.92074219 44.56835938 7.91210938 C43.32763672 7.90888672 42.08691406 7.90566406 40.80859375 7.90234375 C39.67220459 7.89710693 38.53581543 7.89187012 37.36499023 7.88647461 C33.82580161 8.00587697 30.47549422 8.31431412 27 9 C26.67 9.66 26.34 10.32 26 11 C18.66885841 11.39536851 11.33617499 11.71431074 4 12 C2.55246338 12.0633252 2.55246338 12.0633252 1.07568359 12.12792969 C-1.6370398 12.23807671 -4.34832147 12.31195052 -7.0625 12.375 C-7.88782227 12.41302734 -8.71314453 12.45105469 -9.56347656 12.49023438 C-14.01654283 12.55324072 -15.47997283 12.42903902 -19.05859375 9.4765625 C-19.69925781 8.65929687 -20.33992187 7.84203125 -21 7 C-19.25 3.125 -19.25 3.125 -17 2 C-17 2.66 -17 3.32 -17 4 C-15.10256258 3.76282032 -13.20524071 3.52466993 -11.30859375 3.28125 C-9.78217478 3.09529033 -8.25331585 2.92827734 -6.72265625 2.78125 C-4.80720654 2.58728041 -2.9016866 2.30026631 -1 2 C-0.67 1.34 -0.34 0.68 0 0 Z " fill="#100B0C" transform="translate(173,82)"/>
<path d="M0 0 C0.66193359 0.01998047 1.32386719 0.03996094 2.00585938 0.06054688 C3.53477685 0.11092083 5.06330356 0.17408538 6.59130859 0.24707031 C9.77502328 0.39674432 12.95919273 0.50748442 16.14453125 0.6171875 C22.53507449 0.84285397 28.92390277 1.1000329 35.3125 1.375 C35.3125 2.035 35.3125 2.695 35.3125 3.375 C43.20400047 4.37525163 50.99052068 4.49508681 58.9375 4.4375 C60.13246094 4.43298828 61.32742187 4.42847656 62.55859375 4.42382812 C65.47661647 4.41215603 68.39453037 4.39578326 71.3125 4.375 C71.3125 5.035 71.3125 5.695 71.3125 6.375 C69.6625 6.705 68.0125 7.035 66.3125 7.375 C66.3125 8.035 66.3125 8.695 66.3125 9.375 C58.70776369 10.44322383 51.1653654 10.52853568 43.4987793 10.50537109 C41.35523608 10.49995002 39.21189673 10.5053762 37.06835938 10.51171875 C35.70312454 10.51105897 34.33788983 10.50977989 32.97265625 10.5078125 C31.74168213 10.50668457 30.51070801 10.50555664 29.24243164 10.50439453 C26.3125 10.375 26.3125 10.375 24.3125 9.375 C22.39136263 9.74095454 22.39136263 9.74095454 20.25 10.375 C14.5618004 11.73980151 9.50075833 11.19250214 3.875 9.75 C-0.33802608 9.1334596 -4.48357251 9.84440721 -8.6875 10.375 C-9.6775 8.725 -10.6675 7.075 -11.6875 5.375 C-7.89086209 0.85892414 -5.88242293 -0.24165629 0 0 Z " fill="#100B0C" transform="translate(163.6875,201.625)"/>
<path d="M0 0 C24.68511732 -0.15101484 49.32632972 0.25116636 74 1 C74 1.33 74 1.66 74 2 C70.7 2.33 67.4 2.66 64 3 C64.99 3.66 65.98 4.32 67 5 C67 5.66 67 6.32 67 7 C67.99 7.495 67.99 7.495 69 8 C61.01489477 8.77466862 53.12237506 9.14884121 45.1015625 9.1328125 C43.48367325 9.13424759 43.48367325 9.13424759 41.83309937 9.13571167 C39.57606955 9.1363865 37.31903771 9.13458136 35.06201172 9.13037109 C31.61291168 9.12498111 28.16393998 9.13035601 24.71484375 9.13671875 C22.51041638 9.13605846 20.30598909 9.13477832 18.1015625 9.1328125 C17.0764859 9.13483673 16.0514093 9.13686096 14.99526978 9.13894653 C10.21747754 9.12328886 5.69700096 9.00145669 1 8 C1.33 7.34 1.66 6.68 2 6 C2.99 6 3.98 6 5 6 C3.63016497 2.83884224 3.0109362 2.0072908 0 0 Z " fill="#DD5532" transform="translate(84,148)"/>
<path d="M0 0 C1.13242315 0.00128403 1.13242315 0.00128403 2.28772354 0.00259399 C11.56684016 0.0139044 20.84591946 0.03386046 30.125 0.0625 C29.795 1.7125 29.465 3.3625 29.125 5.0625 C-10.475 4.7325 -50.075 4.4025 -90.875 4.0625 C-90.875 3.0725 -90.875 2.0825 -90.875 1.0625 C-60.57965719 0.34828288 -30.30283038 -0.03460709 0 0 Z " fill="#DF5A35" transform="translate(127.875,196.9375)"/>
<path d="M0 0 C22.77 0 45.54 0 69 0 C69.99 2.97 69.99 2.97 71 6 C47.24 6 23.48 6 -1 6 C-1 5.67 -1 5.34 -1 5 C0.65 4.67 2.3 4.34 4 4 C2.68 3.34 1.36 2.68 0 2 C0 1.34 0 0.68 0 0 Z " fill="#E95F37" transform="translate(162,150)"/>
<path d="M0 0 C32.67 0 65.34 0 99 0 C98.01 0.66 97.02 1.32 96 2 C100.29 2.33 104.58 2.66 109 3 C109 3.33 109 3.66 109 4 C99.95607788 4.02364501 90.91216711 4.04117071 81.86822033 4.05181217 C77.6643327 4.05693114 73.46046687 4.06381584 69.2565918 4.07543945 C46.15155853 4.13764854 23.09148464 3.80926607 0 3 C0 2.01 0 1.02 0 0 Z " fill="#D85733" transform="translate(37,95)"/>
<path d="M0 0 C28.36027241 -0.13042435 56.70627255 0.04607135 85.0625 0.5 C86.18340656 0.51793673 86.18340656 0.51793673 87.3269577 0.53623581 C96.55141544 0.68443071 105.77575518 0.83905973 115 1 C115 1.33 115 1.66 115 2 C105.29821771 2.7609241 95.73524288 3.13500337 86 3 C86 3.66 86 4.32 86 5 C90.455 5.99 90.455 5.99 95 7 C95 7.33 95 7.66 95 8 C92.12505989 8.30436997 89.25521003 8.56913342 86.375 8.8125 C85.56675781 8.90208984 84.75851563 8.99167969 83.92578125 9.08398438 C79.56381025 9.42088457 76.89024059 9.41381279 73.4140625 6.57421875 C71 4 71 4 71 3 C47.57 2.34 24.14 1.68 0 1 C0 0.67 0 0.34 0 0 Z " fill="#A9462C" transform="translate(76,147)"/>
<path d="M0 0 C0 0.66 0 1.32 0 2 C-2.66206869 3.33103434 -4.81468866 3.21409463 -7.79296875 3.31640625 C-8.9747168 3.35838135 -10.15646484 3.40035645 -11.37402344 3.44360352 C-12.6324707 3.48283936 -13.89091797 3.5220752 -15.1875 3.5625 C-17.08870605 3.62618774 -17.08870605 3.62618774 -19.02832031 3.69116211 C-27.68923978 3.96687803 -36.33531793 4.13262268 -45 4 C-45 4.99 -45 5.98 -45 7 C-49.29 7 -53.58 7 -58 7 C-58 6.67 -58 6.34 -58 6 C-59.134375 5.87625 -60.26875 5.7525 -61.4375 5.625 C-62.613125 5.41875 -63.78875 5.2125 -65 5 C-65.33 4.34 -65.66 3.68 -66 3 C-61.82413677 1.85592639 -57.68507989 1.67011771 -53.37890625 1.46484375 C-52.10568008 1.40024208 -52.10568008 1.40024208 -50.80673218 1.33433533 C-48.05887203 1.19710057 -45.31074647 1.06675121 -42.5625 0.9375 C-41.17214035 0.87021698 -41.17214035 0.87021698 -39.75369263 0.80157471 C-26.49670041 0.16391593 -13.27418708 -0.29607852 0 0 Z " fill="#D65733" transform="translate(198,93)"/>
<path d="M0 0 C24.68511732 -0.15101484 49.32632972 0.25116636 74 1 C74 1.33 74 1.66 74 2 C72.39318359 2.09087891 72.39318359 2.09087891 70.75390625 2.18359375 C69.35675609 2.26798537 67.95962143 2.35263406 66.5625 2.4375 C65.85544922 2.47681641 65.14839844 2.51613281 64.41992188 2.55664062 C60.91309581 2.47624438 60.91309581 2.47624438 58 4 C56.03259218 4.07561137 54.0625028 4.08306735 52.09375 4.0625 C50.87429687 4.05476562 49.65484375 4.04703125 48.3984375 4.0390625 C45.83072601 4.01333393 43.26301756 3.98729997 40.6953125 3.9609375 C32.70846223 3.90988627 32.70846223 3.90988627 24.7578125 4.56640625 C21 5 21 5 18.375 3.9375 C14.85629679 2.54853821 12.50561153 3.85270895 9 5 C7.68 5 6.36 5 5 5 C4.34 4.01 3.68 3.02 3 2 C2.01 1.34 1.02 0.68 0 0 Z " fill="#ED6238" transform="translate(84,148)"/>
<path d="M0 0 C3 1 3 1 4 3 C4.08342159 4.44848582 4.10732861 5.90070869 4.09765625 7.3515625 C4.09443359 8.20234375 4.09121094 9.053125 4.08789062 9.9296875 C4.07951172 10.81914062 4.07113281 11.70859375 4.0625 12.625 C4.05798828 13.5221875 4.05347656 14.419375 4.04882812 15.34375 C4.03702591 17.56256648 4.02056155 19.78125018 4 22 C2.906875 21.979375 1.81375 21.95875 0.6875 21.9375 C-2.94384191 21.81455548 -2.94384191 21.81455548 -6 23 C-7.16672724 15.0221083 -7.12968306 9.89231878 -2.375 3.125 C-1.59125 2.09375 -0.8075 1.0625 0 0 Z " fill="#42231F" transform="translate(243,132)"/>
<path d="M0 0 C4.44742458 -0.02483101 8.89481178 -0.04292183 13.34228516 -0.05493164 C14.85336002 -0.05994162 16.36443009 -0.06675144 17.87548828 -0.07543945 C20.05502512 -0.08765176 22.23449753 -0.09326178 24.4140625 -0.09765625 C26.37786865 -0.10551147 26.37786865 -0.10551147 28.38134766 -0.11352539 C32 0 32 0 34.8795166 0.5 C37.83623971 0.97376043 40.55665635 1.12067786 43.54638672 1.11352539 C44.60703339 1.11344986 45.66768005 1.11337433 46.76046753 1.11329651 C47.88881012 1.10813522 49.01715271 1.10297394 50.1796875 1.09765625 C51.3475882 1.0962413 52.51548889 1.09482635 53.71878052 1.09336853 C57.43754674 1.08778498 61.15625207 1.07523544 64.875 1.0625 C67.4010408 1.05748288 69.92708254 1.05292034 72.453125 1.04882812 C78.63543733 1.03782093 84.81771431 1.02109913 91 1 C91 0.67 91 0.34 91 0 C93.64 0 96.28 0 99 0 C99 0.66 99 1.32 99 2 C94.26179078 3.21310263 89.65743286 3.13379425 84.8034668 3.11352539 C83.42711815 3.11374443 83.42711815 3.11374443 82.02296448 3.1139679 C78.99835829 3.11327275 75.97381414 3.10549897 72.94921875 3.09765625 C70.84886204 3.09579066 68.74850489 3.09436742 66.64814758 3.09336853 C61.1260355 3.08955449 55.60394981 3.07973368 50.08184814 3.06866455 C44.44454302 3.05842652 38.80723362 3.05386578 33.16992188 3.04882812 C22.11326967 3.03811043 11.05663703 3.02104735 0 3 C0 2.01 0 1.02 0 0 Z " fill="#E56E48" transform="translate(37,198)"/>
<path d="M0 0 C0.66 0.33 1.32 0.66 2 1 C1.54625 1.53625 1.0925 2.0725 0.625 2.625 C-1.14318496 4.95453012 -1.14318496 4.95453012 -1.875 7.875 C-3.23923849 11.66455135 -5.40360769 13.94923904 -8 17 C-8.33 17.825 -8.66 18.65 -9 19.5 C-10.36113333 22.90283333 -12.63649531 25.22288199 -15 28 C-15.69937532 29.31647119 -16.36729133 30.65022151 -17 32 C-17.66 32.86625 -18.32 33.7325 -19 34.625 C-21.56345556 38.95083126 -22.26040972 43.0758858 -23 48 C-18.545 47.505 -18.545 47.505 -14 47 C-13.67 47.66 -13.34 48.32 -13 49 C-15.76565382 49.92188461 -17.38283702 50.11785222 -20.23046875 50.09765625 C-21.03291016 50.09443359 -21.83535156 50.09121094 -22.66210938 50.08789062 C-23.49548828 50.07951172 -24.32886719 50.07113281 -25.1875 50.0625 C-26.4549707 50.05573242 -26.4549707 50.05573242 -27.74804688 50.04882812 C-29.83206155 50.03705403 -31.91603977 50.0191189 -34 50 C-34 49.67 -34 49.34 -34 49 C-31.69 49 -29.38 49 -27 49 C-26.5196682 47.41701974 -26.04078388 45.83360022 -25.5625 44.25 C-25.29566406 43.36828125 -25.02882812 42.4865625 -24.75390625 41.578125 C-23.98228961 39.09102482 -23.98228961 39.09102482 -23.58984375 36.859375 C-22.85882717 34.55497835 -21.70828272 33.69596337 -20 32 C-18.94323423 30.09286803 -17.9483175 28.15081357 -17 26.1875 C-16.505 25.17042969 -16.01 24.15335938 -15.5 23.10546875 C-14.48094849 20.99571367 -13.46948743 18.88227886 -12.46484375 16.765625 C-10.75882497 13.54466155 -8.56999937 11.56999937 -6 9 C-4.553029 6.72052514 -3.29728824 4.3709061 -2 2 C-1.34 1.34 -0.68 0.68 0 0 Z " fill="#CBCAC6" transform="translate(170,45)"/>
<path d="M0 0 C29.37 0 58.74 0 89 0 C89 0.33 89 0.66 89 1 C88.37439178 1.01030746 87.74878357 1.02061493 87.10421753 1.03123474 C80.58272398 1.13956016 74.06136135 1.25413635 67.54003906 1.37231445 C65.10744979 1.41557993 62.67483178 1.45726083 60.2421875 1.49731445 C56.74209951 1.55522032 53.24215499 1.61885623 49.7421875 1.68359375 C48.11529495 1.70866249 48.11529495 1.70866249 46.45553589 1.73423767 C41.51488205 1.83079061 36.87208431 2.13531789 32 3 C29.47238821 3.07929696 26.94289762 3.10777159 24.4140625 3.09765625 C23.71227875 3.0962413 23.010495 3.09482635 22.28744507 3.09336853 C20.06658496 3.0878129 17.84582916 3.07526892 15.625 3.0625 C14.11067855 3.05747926 12.5963555 3.05291736 11.08203125 3.04882812 C7.38798748 3.03785807 3.69400394 3.02062449 0 3 C0 2.01 0 1.02 0 0 Z " fill="#E57A55" transform="translate(37,95)"/>
<path d="M0 0 C0.33 0.66 0.66 1.32 1 2 C0.00390625 4.3828125 0.00390625 4.3828125 -1.4375 7.125 C-1.91058594 8.03507812 -2.38367188 8.94515625 -2.87109375 9.8828125 C-3.24363281 10.58148438 -3.61617187 11.28015625 -4 12 C-4.66 12 -5.32 12 -6 12 C-7.20242574 14.39889887 -8.39644427 16.80167672 -9.5859375 19.20703125 C-12.57094966 25.23025546 -15.55947686 31.21992112 -19 37 C-19.66 37 -20.32 37 -21 37 C-21.12375 38.27875 -21.2475 39.5575 -21.375 40.875 C-21.75 44.75 -21.75 44.75 -24 47 C-24.9549627 35.64655463 -21.17831839 29.60938495 -14.40234375 20.90234375 C-13.09646197 19.13085509 -12.0392403 17.37367798 -11 15.4375 C-9.05967815 12.10257182 -6.94481951 9.50472795 -4.39453125 6.64453125 C-2.64375998 4.57989623 -1.29422156 2.37273952 0 0 Z " fill="#E1E0DE" transform="translate(168,43)"/>
<path d="M0 0 C0.66 0 1.32 0 2 0 C2.26554688 1.08539063 2.53109375 2.17078125 2.8046875 3.2890625 C3.16133082 4.73440647 3.5181088 6.17971722 3.875 7.625 C4.04902344 8.33785156 4.22304688 9.05070313 4.40234375 9.78515625 C5.42854338 13.92796216 6.58790729 17.96726678 8 22 C1.25 21.125 1.25 21.125 -1 20 C-1.921875 16.98046875 -1.921875 16.98046875 -2.75 13.1875 C-3.03359375 11.94355469 -3.3171875 10.69960937 -3.609375 9.41796875 C-4.00549108 5.95195304 -3.98913392 4.77057939 -2 2 C-1.34 1.34 -0.68 0.68 0 0 Z " fill="#232021" transform="translate(253,151)"/>
<path d="M0 0 C2.4375 0.375 2.4375 0.375 5 1 C6 3 6 3 5.2578125 5.64453125 C4.88398438 6.68996094 4.51015625 7.73539063 4.125 8.8125 C2.8024289 12.53512145 1.67684614 16.10453447 1 20 C-1.38564077 19.42415568 -3.66682784 18.77772405 -6 18 C-6.21755666 12.5610835 -6.10428384 8.12919186 -4 3 C-3.34 3 -2.68 3 -2 3 C-2 3.99 -2 4.98 -2 6 C-1.34 6 -0.68 6 0 6 C0.66 4.35 1.32 2.7 2 1 C1.34 0.67 0.68 0.34 0 0 Z M-3 6 C-4.35439668 8.70879335 -4.06501451 11.00933268 -4 14 C-2.57055055 11.64561267 -1.91338739 10.51967567 -2.375 7.75 C-2.58125 7.1725 -2.7875 6.595 -3 6 Z " fill="#1D1B1C" transform="translate(254,124)"/>
<path d="M0 0 C6.27 0 12.54 0 19 0 C16 3 16 3 12.4375 3.125 C11.303125 3.08375 10.16875 3.0425 9 3 C8.01 3.495 8.01 3.495 7 4 C6.67 5.65 6.34 7.3 6 9 C13.92 9 21.84 9 30 9 C30 9.33 30 9.66 30 10 C20.1 10 10.2 10 0 10 C0 6.7 0 3.4 0 0 Z " fill="#A83F27" transform="translate(37,159)"/>
<path d="M0 0 C1.485 0.99 1.485 0.99 3 2 C3.144375 3.11375 3.28875 4.2275 3.4375 5.375 C4.06638393 9.42780754 4.84677812 10.51564337 8 13 C8.66 13.33 9.32 13.66 10 14 C10 16.31 10 18.62 10 21 C9.34 21 8.68 21 8 21 C7.67 21.99 7.34 22.98 7 24 C5.4375 25.6875 5.4375 25.6875 4 27 C2.69880096 20.46873881 1.7356225 14.06219193 1.34375 7.41015625 C0.98550543 4.89837333 0.25810421 3.18646337 -1 1 C-0.67 0.67 -0.34 0.34 0 0 Z " fill="#272224" transform="translate(245,130)"/>
<path d="M0 0 C3.63 0 7.26 0 11 0 C10.67 0.99 10.34 1.98 10 3 C9.01 3 8.02 3 7 3 C6.67 3.66 6.34 4.32 6 5 C5.34 5 4.68 5 4 5 C4 5.66 4 6.32 4 7 C11.26 7.33 18.52 7.66 26 8 C26 8.33 26 8.66 26 9 C17.42 9 8.84 9 0 9 C0 6.03 0 3.06 0 0 Z " fill="#AD4229" transform="translate(37,138)"/>
<path d="M0 0 C11.55 0 23.1 0 35 0 C31.71967785 2.18688143 30.89459391 2.20572165 27.125 2.0625 C24.52558817 1.97108338 22.27694884 1.93993881 19.73046875 2.4921875 C15.87473623 3.20927652 12.09927888 3.10512626 8.1875 3.0625 C7.00510742 3.05573242 7.00510742 3.05573242 5.79882812 3.04882812 C3.86585239 3.03711312 1.93291607 3.01917998 0 3 C0 2.01 0 1.02 0 0 Z " fill="#E75E36" transform="translate(174,197)"/>
<path d="M0 0 C3.3 0 6.6 0 10 0 C9.01 0.66 8.02 1.32 7 2 C11.29 2.33 15.58 2.66 20 3 C20 3.33 20 3.66 20 4 C3.83 4 -12.34 4 -29 4 C-29 3.67 -29 3.34 -29 3 C-14.15 2.505 -14.15 2.505 1 2 C0.67 1.34 0.34 0.68 0 0 Z " fill="#EA5F39" transform="translate(126,95)"/>
<path d="M0 0 C3 1 3 1 4 3 C4.13559318 6.00474497 4.04299016 8.99068847 4 12 C1.03 11.01 -1.94 10.02 -5 9 C-3.7508258 5.54074837 -2.32472205 2.85306797 0 0 Z " fill="#CA472C" transform="translate(243,132)"/>
<path d="M0 0 C3.3 0 6.6 0 10 0 C9.33035714 7.09821429 9.33035714 7.09821429 6 10 C4.99421411 8.71283353 3.99553202 7.42011342 3 6.125 C2.443125 5.40570313 1.88625 4.68640625 1.3125 3.9453125 C0 2 0 2 0 0 Z " fill="#B5452F" transform="translate(238,155)"/>
<path d="M0 0 C6.93 0 13.86 0 21 0 C21 0.66 21 1.32 21 2 C18.59940183 3.20029908 17.10639351 3.11459743 14.4296875 3.09765625 C13.53378906 3.09443359 12.63789063 3.09121094 11.71484375 3.08789062 C10.77769531 3.07951172 9.84054688 3.07113281 8.875 3.0625 C7.93011719 3.05798828 6.98523438 3.05347656 6.01171875 3.04882812 C3.67441613 3.03702357 1.33723939 3.02055759 -1 3 C-0.67 2.01 -0.34 1.02 0 0 Z " fill="#C24B2C" transform="translate(177,93)"/>
<path d="M0 0 C0.33 0 0.66 0 1 0 C1 2.64 1 5.28 1 8 C1.66 8 2.32 8 3 8 C3.33 6.68 3.66 5.36 4 4 C4 5.32 4 6.64 4 8 C4.99 8 5.98 8 7 8 C7 5.36 7 2.72 7 0 C7.33 0 7.66 0 8 0 C8.48229332 2.49943204 8.96089426 4.99948243 9.4375 7.5 C9.57220703 8.19609375 9.70691406 8.8921875 9.84570312 9.609375 C10.75371019 14.39302198 11.43896713 19.1631341 12 24 C9.7522025 21.94766315 8.9977758 20.99332739 8 18 C7.87020561 14.99396204 7.95636827 12.01058969 8 9 C4.7 9 1.4 9 -2 9 C-1.34 8.67 -0.68 8.34 0 8 C0 5.36 0 2.72 0 0 Z " fill="#171518" transform="translate(240,146)"/>
<path d="M0 0 C0 3.3 0 6.6 0 10 C-1.98 10 -3.96 10 -6 10 C-6 7.03 -6 4.06 -6 1 C-4 0 -4 0 0 0 Z " fill="#545257" transform="translate(247,144)"/>
<path d="M0 0 C0 0.66 0 1.32 0 2 C-5.36439644 4.68219822 -9.01006953 5.3152595 -15 5 C-15 3.66666667 -15 2.33333333 -15 1 C-10.03926578 -0.32286246 -5.08888488 -0.08893197 0 0 Z " fill="#D95833" transform="translate(206,198)"/>
<path d="M0 0 C5.61 0 11.22 0 17 0 C17 0.99 17 1.98 17 3 C11.39 3 5.78 3 0 3 C0 2.01 0 1.02 0 0 Z " fill="#D14F2F" transform="translate(64,155)"/>
<path d="M0 0 C0.66 0 1.32 0 2 0 C2 1.65 2 3.3 2 5 C6.455 4.505 6.455 4.505 11 4 C11.33 4.66 11.66 5.32 12 6 C9.23434618 6.92188461 7.61716298 7.11785222 4.76953125 7.09765625 C3.96708984 7.09443359 3.16464844 7.09121094 2.33789062 7.08789062 C1.50451172 7.07951172 0.67113281 7.07113281 -0.1875 7.0625 C-1.03248047 7.05798828 -1.87746094 7.05347656 -2.74804688 7.04882812 C-4.83206155 7.03705403 -6.91603977 7.0191189 -9 7 C-9 6.67 -9 6.34 -9 6 C-6.69 6 -4.38 6 -2 6 C-1.34 4.02 -0.68 2.04 0 0 Z " fill="#C9B8B0" transform="translate(145,88)"/>
<path d="M0 0 C7.59 0.33 15.18 0.66 23 1 C23 1.33 23 1.66 23 2 C15.30881404 2.75166913 7.72772107 3.13690844 0 3 C0 2.01 0 1.02 0 0 Z " fill="#DF5C37" transform="translate(37,95)"/>
<path d="M0 0 C0.66 0.33 1.32 0.66 2 1 C1.608125 1.495 1.21625 1.99 0.8125 2.5 C-0.95788342 4.8514782 -0.95788342 4.8514782 -2.1015625 6.90625 C-4.85260703 11.66289473 -7.18730771 14.31384616 -12 17 C-10.96818001 14.59242002 -10.02293972 13.02217506 -8.125 11.1875 C-6.24005488 9.24711532 -5.16760692 7.70458636 -3.875 5.375 C-2 2 -2 2 0 0 Z " fill="#D3D1CE" transform="translate(170,45)"/>
<path d="M0 0 C0 0.33 0 0.66 0 1 C-4.77092956 2.23402862 -9.42469446 2.11265112 -14.3125 2.0625 C-15.14845703 2.05798828 -15.98441406 2.05347656 -16.84570312 2.04882812 C-18.89716649 2.03710548 -20.94859273 2.01917203 -23 2 C-23 1.67 -23 1.34 -23 1 C-20.4803886 0.63400603 -17.96006672 0.28199149 -15.4375 -0.0625 C-14.73302734 -0.16626953 -14.02855469 -0.27003906 -13.30273438 -0.37695312 C-8.60571341 -1.0046656 -4.66067698 -0.87579081 0 0 Z " fill="#B74729" transform="translate(196,201)"/>
<path d="M0 0 C7.42857143 -0.28571429 7.42857143 -0.28571429 11 2 C11 2.33 11 2.66 11 3 C5.72 3 0.44 3 -5 3 C-4.34 2.34 -3.68 1.68 -3 1 C-2.01 1.33 -1.02 1.66 0 2 C0 1.34 0 0.68 0 0 Z " fill="#DA542F" transform="translate(136,198)"/>
<path d="M0 0 C2.475 0.495 2.475 0.495 5 1 C5 2.98 5 4.96 5 7 C3.35 7.33 1.7 7.66 0 8 C0 5.36 0 2.72 0 0 Z " fill="#D95330" transform="translate(37,189)"/>
<path d="M0 0 C0 2.31 0 4.62 0 7 C-1.65 7 -3.3 7 -5 7 C-5 5.02 -5 3.04 -5 1 C-1.125 0 -1.125 0 0 0 Z " fill="#E85B32" transform="translate(42,160)"/>
<path d="M0 0 C0.33 0.99 0.66 1.98 1 3 C0.01 4.485 0.01 4.485 -1 6 C-1.66 6 -2.32 6 -3 6 C-3.12375 7.27875 -3.2475 8.5575 -3.375 9.875 C-3.75 13.75 -3.75 13.75 -6 16 C-5.84653748 8.94072393 -5.1246795 4.99327746 0 0 Z " fill="#D7D5D3" transform="translate(150,74)"/>
<path d="M0 0 C0.99 0.33 1.98 0.66 3 1 C3.33 1.99 3.66 2.98 4 4 C3.67 4.66 3.34 5.32 3 6 C2.34 6 1.68 6 1 6 C1 6.66 1 7.32 1 8 C0.34 8 -0.32 8 -1 8 C-1.625 5.125 -1.625 5.125 -2 2 C-1.34 1.34 -0.68 0.68 0 0 Z " fill="#C1442A" transform="translate(243,132)"/>
<path d="M0 0 C1.32 0 2.64 0 4 0 C4 1.65 4 3.3 4 5 C3.01 5.33 2.02 5.66 1 6 C0.34 6.99 -0.32 7.98 -1 9 C-1.09765625 2.84765625 -1.09765625 2.84765625 -1 1 C-0.67 0.67 -0.34 0.34 0 0 Z " fill="#DD542F" transform="translate(38,108)"/>
<path d="M0 0 C5.94 0 11.88 0 18 0 C17.67 0.99 17.34 1.98 17 3 C15.35 3 13.7 3 12 3 C12 2.67 12 2.34 12 2 C8.04 1.67 4.08 1.34 0 1 C0 0.67 0 0.34 0 0 Z " fill="#F4663D" transform="translate(95,148)"/>
<path d="M0 0 C1.62580966 0.11398665 3.25067157 0.24155659 4.875 0.375 C5.77992188 0.44460937 6.68484375 0.51421875 7.6171875 0.5859375 C10 1 10 1 12 3 C7.15507803 4.51403812 3.7408989 3.36602172 -1 2 C-0.67 1.34 -0.34 0.68 0 0 Z " fill="#1B1718" transform="translate(165,210)"/>
<path d="M0 0 C1.65 0 3.3 0 5 0 C5 2.31 5 4.62 5 7 C4.34 5.68 3.68 4.36 3 3 C2.34 4.65 1.68 6.3 1 8 C0.67 8 0.34 8 0 8 C0 5.36 0 2.72 0 0 Z " fill="#D6512E" transform="translate(37,99)"/>
<path d="M0 0 C-0.33 0.99 -0.66 1.98 -1 3 C-1.33 3 -1.66 3 -2 3 C-2.66 4.98 -3.32 6.96 -4 9 C-5.65 9 -7.3 9 -9 9 C-9 8.34 -9 7.68 -9 7 C-7.35 7 -5.7 7 -4 7 C-4 5.02 -4 3.04 -4 1 C-2 0 -2 0 0 0 Z " fill="#C65030" transform="translate(46,160)"/>
<path d="M0 0 C3.625 -0.1875 3.625 -0.1875 7 0 C7 0.99 7 1.98 7 3 C4.03 3 1.06 3 -2 3 C-1.34 2.01 -0.68 1.02 0 0 Z " fill="#E55D36" transform="translate(133,144)"/>
<path d="M0 0 C1.98 0 3.96 0 6 0 C5.67 1.65 5.34 3.3 5 5 C3.68 4.67 2.36 4.34 1 4 C1.33 3.34 1.66 2.68 2 2 C1.34 2 0.68 2 0 2 C0 1.34 0 0.68 0 0 Z " fill="#CB472B" transform="translate(242,156)"/>
<path d="M0 0 C0.33 0.66 0.66 1.32 1 2 C1.99 2 2.98 2 4 2 C4 3.65 4 5.3 4 7 C2.68 7 1.36 7 0 7 C0 4.69 0 2.38 0 0 Z " fill="#D74D2B" transform="translate(37,151)"/>
<path d="M0 0 C0.66 0 1.32 0 2 0 C2.66 1.98 3.32 3.96 4 6 C3.01 6.495 3.01 6.495 2 7 C2 6.01 2 5.02 2 4 C1.34 4 0.68 4 0 4 C0 4.66 0 5.32 0 6 C-1.32 5.67 -2.64 5.34 -4 5 C-3.34 4.34 -2.68 3.68 -2 3 C-1.01 3 -0.02 3 1 3 C0.67 2.01 0.34 1.02 0 0 Z " fill="#1A1618" transform="translate(234,205)"/>
<path d="M0 0 C0.66 0.66 1.32 1.32 2 2 C3.32 2 4.64 2 6 2 C6.33 2.99 6.66 3.98 7 5 C4.69 5 2.38 5 0 5 C0 3.35 0 1.7 0 0 Z " fill="#D84F2F" transform="translate(42,153)"/>
<path d="M0 0 C0.33 0.99 0.66 1.98 1 3 C-3.01804691 3.84098656 -6.01803543 4.05404945 -10 3 C-10 2.67 -10 2.34 -10 2 C-3.375 0 -3.375 0 0 0 Z " fill="#DB5734" transform="translate(201,94)"/>
<path d="M0 0 C0.66 0 1.32 0 2 0 C2 0.66 2 1.32 2 2 C5.96 2 9.92 2 14 2 C14 2.33 14 2.66 14 3 C9.05 3 4.1 3 -1 3 C-0.67 2.01 -0.34 1.02 0 0 Z " fill="#D2CCC7" transform="translate(52,92)"/>
<path d="M0 0 C0.33 0 0.66 0 1 0 C1 2.64 1 5.28 1 8 C-0.32 7.34 -1.64 6.68 -3 6 C-2.67 4.68 -2.34 3.36 -2 2 C-1.34 2 -0.68 2 0 2 C0 1.34 0 0.68 0 0 Z " fill="#D34D2E" transform="translate(246,136)"/>
<path d="M0 0 C1.98 0 3.96 0 6 0 C6 0.99 6 1.98 6 3 C4.02 3 2.04 3 0 3 C0 2.01 0 1.02 0 0 Z " fill="#E4643C" transform="translate(37,198)"/>
<path d="M0 0 C-0.66 1.32 -1.32 2.64 -2 4 C-3.65 3.67 -5.3 3.34 -7 3 C-7 2.34 -7 1.68 -7 1 C-4 0 -4 0 0 0 Z " fill="#E35C37" transform="translate(171,196)"/>
<path d="M0 0 C1.485 0.99 1.485 0.99 3 2 C3.29296875 4.3828125 3.29296875 4.3828125 3.1875 7.125 C3.16042969 8.03507813 3.13335937 8.94515625 3.10546875 9.8828125 C3.07066406 10.58148438 3.03585938 11.28015625 3 12 C2.67 12 2.34 12 2 12 C1.66269158 10.56342755 1.33030409 9.12569907 1 7.6875 C0.814375 6.88699219 0.62875 6.08648437 0.4375 5.26171875 C0 3 0 3 0 0 Z " fill="#7E2B1B" transform="translate(245,130)"/>
<path d="M0 0 C1.98 0 3.96 0 6 0 C6 0.99 6 1.98 6 3 C4.02 3 2.04 3 0 3 C0 2.01 0 1.02 0 0 Z " fill="#E4653F" transform="translate(37,95)"/>
<path d="M0 0 C1.32 0.66 2.64 1.32 4 2 C4 2.66 4 3.32 4 4 C4.99 4.33 5.98 4.66 7 5 C4.36 5 1.72 5 -1 5 C-0.67 3.35 -0.34 1.7 0 0 Z " fill="#D7D9D7" transform="translate(43,90)"/>
<path d="M0 0 C3.34249629 0.59687434 5.46436342 1.73603877 8 4 C8 4.66 8 5.32 8 6 C5.0280615 4.87548273 2.66559313 3.77706209 0 2 C0 1.34 0 0.68 0 0 Z " fill="#2B2729" transform="translate(218,71)"/>
<path d="M0 0 C-0.66 1.32 -1.32 2.64 -2 4 C-4.97 3.505 -4.97 3.505 -8 3 C-5.22569089 1.15046059 -3.35957737 0 0 0 Z " fill="#2C2829" transform="translate(232,214)"/>
<path d="M0 0 C1.98 0 3.96 0 6 0 C6.33 0.99 6.66 1.98 7 3 C4.36 3 1.72 3 -1 3 C-0.67 2.01 -0.34 1.02 0 0 Z " fill="#CF5131" transform="translate(192,200)"/>
<path d="M0 0 C2.31 0 4.62 0 7 0 C7 0.66 7 1.32 7 2 C5.02 2.33 3.04 2.66 1 3 C0.67 2.01 0.34 1.02 0 0 Z " fill="#CE5030" transform="translate(191,93)"/>
<path d="M0 0 C0.33 0.66 0.66 1.32 1 2 C-0.98 4.97 -0.98 4.97 -3 8 C-4 5 -4 5 -3.1875 2.875 C-2 1 -2 1 0 0 Z " fill="#D9D7D6" transform="translate(155,66)"/>
</svg>
