<?xml version="1.0" encoding="UTF-8"?>
<svg version="1.1" xmlns="http://www.w3.org/2000/svg" width="298" height="295">
<path d="M0 0 C98.34 0 196.68 0 298 0 C298 97.35 298 194.7 298 295 C199.66 295 101.32 295 0 295 C0 197.65 0 100.3 0 0 Z " fill="#EFEEEC" transform="translate(0,0)"/>
<path d="M0 0 C3.74032016 0.60335849 6.7242062 1.67463434 10.10546875 3.37109375 C11.08016113 3.85803711 12.05485352 4.34498047 13.05908203 4.84667969 C14.60764893 5.63413574 14.60764893 5.63413574 16.1875 6.4375 C17.25597168 6.97665039 18.32444336 7.51580078 19.42529297 8.07128906 C28.07057936 12.46307904 36.57640167 17.06531378 44.99658203 21.87255859 C46.95058692 22.97219235 48.92131593 24.03201118 50.90234375 25.08203125 C63.87484761 32.03073679 70.55603612 39.31562879 76 53 C76.41378906 53.97324219 76.82757813 54.94648437 77.25390625 55.94921875 C80 62.50348432 80 62.50348432 80 66 C79.29617187 66.20753906 78.59234375 66.41507812 77.8671875 66.62890625 C63.14105239 71.10369652 63.14105239 71.10369652 51 80 C51.84820312 79.48050781 52.69640625 78.96101563 53.5703125 78.42578125 C72.6361255 67 72.6361255 67 82 67 C83.7890625 68.71484375 83.7890625 68.71484375 85.625 70.9375 C86.54152344 72.03384766 86.54152344 72.03384766 87.4765625 73.15234375 C87.97929687 73.76207031 88.48203125 74.37179688 89 75 C89.33 75.33 89.66 75.66 90 76 C90.36690919 81.83776731 90.44271267 87.67736459 90.51489258 93.52539062 C90.5464069 95.4944699 90.59402912 97.46336304 90.65844727 99.43164062 C91.25349898 117.86426086 91.25349898 117.86426086 86.40234375 123.90625 C83.47062893 126.42934085 82.42808582 126.96754756 78.49609375 127.265625 C77.34238281 126.84796875 76.18867188 126.4303125 75 126 C74.36723145 125.77119141 73.73446289 125.54238281 73.08251953 125.30664062 C71.03822494 124.52412589 69.05505865 123.6557736 67.0625 122.75 C66.36318359 122.43861084 65.66386719 122.12722168 64.94335938 121.80639648 C60.01765357 119.57135174 55.46440406 117.06927779 51 114 C54.03249254 117.24877046 57.56325847 119.03900141 61.5 121 C62.15742188 121.34289062 62.81484375 121.68578125 63.4921875 122.0390625 C69.12354151 124.86552754 74.89240107 126.50564771 81 128 C72.32573068 152.78628297 62.8843419 162.32617937 40 174.8125 C38.70563315 175.52212307 37.41136298 176.23192251 36.1171875 176.94189453 C29.09704485 180.7877406 22.06548802 184.61301372 15 188.375 C14.34386719 188.7253833 13.68773437 189.0757666 13.01171875 189.43676758 C4.35559469 194 4.35559469 194 0 194 C-1.69780134 189.55525001 -3.38822287 185.10778838 -5.07202148 180.65771484 C-5.64522169 179.1458892 -6.2203915 177.63480873 -6.79760742 176.12451172 C-7.62944718 173.94694328 -8.45404402 171.76674683 -9.27734375 169.5859375 C-9.66332985 168.58244766 -9.66332985 168.58244766 -10.05711365 167.5586853 C-11.18449093 164.55352769 -12.03763813 161.76446252 -12.54516602 158.58837891 C-12.69526123 157.73421387 -12.84535645 156.88004883 -13 156 C-13.66 155.67 -14.32 155.34 -15 155 C-14.67 154.67 -14.34 154.34 -14 154 C-14.60721862 153.99576806 -15.21443724 153.99153612 -15.84005642 153.98717594 C-30.59476729 153.88400489 -45.34943105 153.77538773 -60.10405636 153.66066074 C-67.23919451 153.60531254 -74.37433767 153.55182799 -81.50952148 153.50268555 C-88.3889354 153.4552995 -95.26829456 153.40277982 -102.14764595 153.34705925 C-104.77880131 153.32660041 -107.40997086 153.30789332 -110.04115105 153.29092598 C-113.71230098 153.26695984 -117.38335212 153.23689498 -121.05444336 153.20532227 C-122.15423523 153.1995668 -123.2540271 153.19381134 -124.387146 153.18788147 C-125.38139084 153.17809265 -126.37563568 153.16830383 -127.40000916 153.15821838 C-128.26925994 153.15176583 -129.13851072 153.14531328 -130.03410244 153.1386652 C-132 153 -132 153 -133 152 C-134.39890456 140.90147601 -134.14729882 129.62456021 -134.1328125 118.4609375 C-134.13348814 116.60397326 -134.13446032 114.74700911 -134.13571167 112.89004517 C-134.13717568 109.02239123 -134.13507569 105.15476058 -134.13037109 101.28710938 C-134.12466657 96.36074666 -134.1279657 91.43443836 -134.13394356 86.50807762 C-134.13757755 82.68166706 -134.13639774 78.85526915 -134.13381577 75.02885818 C-134.13315475 73.21340554 -134.13394562 71.3979517 -134.13629532 69.58250046 C-134.13886983 67.03592687 -134.13491513 64.48943843 -134.12939453 61.94287109 C-134.13243088 60.84835884 -134.13243088 60.84835884 -134.13552856 59.73173523 C-134.11044146 53.40203377 -133.53137508 47.37650099 -133 41 C-74.095 40.505 -74.095 40.505 -14 40 C-13.01 36.37 -12.02 32.74 -11 29 C-10.14123184 26.51281736 -9.24535066 24.03791172 -8.30078125 21.58203125 C-8.0608696 20.95391037 -7.82095795 20.32578949 -7.57377625 19.67863464 C-6.82491832 17.72133295 -6.06889335 15.76690014 -5.3125 13.8125 C-4.79574045 12.46568021 -4.27946128 11.118676 -3.76367188 9.77148438 C-2.51463118 6.51218362 -1.25915807 3.25540766 0 0 Z " fill="#9E7079" transform="translate(172,51)"/>
<path d="M0 0 C1.7890625 1.71484375 1.7890625 1.71484375 3.625 3.9375 C4.54152344 5.03384766 4.54152344 5.03384766 5.4765625 6.15234375 C5.97929687 6.76207031 6.48203125 7.37179688 7 8 C7.495 8.495 7.495 8.495 8 9 C8.36690919 14.83776731 8.44271267 20.67736459 8.51489258 26.52539062 C8.5464069 28.4944699 8.59402912 30.46336304 8.65844727 32.43164062 C9.25349898 50.86426086 9.25349898 50.86426086 4.40234375 56.90625 C1.46801612 59.4321935 0.42897995 59.9679937 -3.5078125 60.26171875 C-4.66023438 59.84535156 -5.81265625 59.42898437 -7 59 C-7.62745117 58.77650879 -8.25490234 58.55301758 -8.90136719 58.32275391 C-10.93135751 57.55785194 -12.89796222 56.70497908 -14.875 55.8125 C-15.57173828 55.50368896 -16.26847656 55.19487793 -16.98632812 54.87670898 C-22.36202999 52.4320148 -27.28573694 49.57498282 -32 46 C-27.96127563 35.44191344 -27.96127563 35.44191344 -25 31 C-22 34 -22 34 -19 37 C-16.67182036 37.36760731 -14.3381615 37.70241581 -12 38 C-12 37.34 -12 36.68 -12 36 C-9.69 36 -7.38 36 -5 36 C-4.01 41.445 -4.01 41.445 -3 47 C-2.34 47 -1.68 47 -1 47 C-1.16242188 46.24847656 -1.32484375 45.49695313 -1.4921875 44.72265625 C-2.18867827 39.61684317 -2.14443338 34.58410736 -2.125 29.4375 C-2.13080078 27.89545898 -2.13080078 27.89545898 -2.13671875 26.32226562 C-2.13542969 25.32775391 -2.13414062 24.33324219 -2.1328125 23.30859375 C-2.13168457 22.40939209 -2.13055664 21.51019043 -2.12939453 20.58374023 C-1.99833145 17.96668248 -1.57879488 15.55227276 -1 13 C-1.66 13 -2.32 13 -3 13 C-3.66 16.63 -4.32 20.26 -5 24 C-5.94101563 23.84660156 -6.88203125 23.69320312 -7.8515625 23.53515625 C-14.84845008 22.35068963 -14.84845008 22.35068963 -21.265625 24.4921875 C-22.73161613 26.26418649 -23.93416302 27.96475891 -25 30 C-25.66 29.34 -26.32 28.68 -27 28 C-26.34 27.67 -25.68 27.34 -25 27 C-25.598125 26.29875 -26.19625 25.5975 -26.8125 24.875 C-29.00326457 21.99570943 -30.61950076 19.34226132 -32 16 C-30.67623293 12.0286988 -28.28881998 11.06035692 -24.8125 9.125 C-24.19334717 8.77566406 -23.57419434 8.42632812 -22.9362793 8.06640625 C-16.0906671 4.3238045 -7.88273029 0 0 0 Z " fill="#A98089" transform="translate(254,118)"/>
<path d="M0 0 C0.33 1.32 0.66 2.64 1 4 C0.01 4 -0.98 4 -2 4 C-1 1 -1 1 0 0 Z M55 3 C55.99 3.33 56.98 3.66 58 4 C57.83773926 4.71623535 57.67547852 5.4324707 57.50830078 6.17041016 C57.01058743 8.94106232 56.87073892 11.46223498 56.8671875 14.2734375 C56.86589844 15.2634375 56.86460937 16.2534375 56.86328125 17.2734375 C56.86714844 18.29695312 56.87101562 19.32046875 56.875 20.375 C56.87113281 21.39078125 56.86726563 22.4065625 56.86328125 23.453125 C56.87015185 28.74348607 57.07516872 33.78864911 58 39 C56.02 38.505 56.02 38.505 54 38 C52.82428549 34.32589215 52.92633254 30.83070817 53 27 C50.69 27 48.38 27 46 27 C46 27.66 46 28.32 46 29 C42.8125 29.375 42.8125 29.375 39 29 C36.8596502 27.18811972 35.61011698 25.34198833 34 23 C34 23.66 34 24.32 34 25 C33.401875 25.556875 32.80375 26.11375 32.1875 26.6875 C29.44148196 29.59043336 28.26008983 32.21973052 27 36 C27.19513752 38.83073081 27.19513752 38.83073081 28 41 C26.68 40.34 25.36 39.68 24 39 C22.768606 41.46278801 22.92840804 43.2795055 23 46 C23.99 45.01 24.98 44.02 26 43 C26.495 45.97 26.495 45.97 27 49 C24 51 24 51 22 52 C21.505 52.99 21.505 52.99 21 54 C21 52.68 21 51.36 21 50 C20.34 50.66 19.68 51.32 19 52 C19.3185177 54.10820797 19.3185177 54.10820797 20 56 C19.01 56.495 19.01 56.495 18 57 C18 57.99 18 58.98 18 60 C16.68212715 61.02028865 15.34789347 62.01971384 14 63 C13.67 63.99 13.34 64.98 13 66 C13.66 66 14.32 66 15 66 C15.33 65.34 15.66 64.68 16 64 C16.66 64.33 17.32 64.66 18 65 C17.5020163 68.73487777 17.12508244 70.81237635 15 74 C13.35 73.34 11.7 72.68 10 72 C10.33 73.32 10.66 74.64 11 76 C7.75034611 77.08321796 7.12734894 76.85931992 4 76 C2.63199181 75.92291277 1.26076408 75.89196391 -0.109375 75.90234375 C-1.24052734 75.90717773 -1.24052734 75.90717773 -2.39453125 75.91210938 C-3.17183594 75.92048828 -3.94914063 75.92886719 -4.75 75.9375 C-5.54277344 75.94201172 -6.33554688 75.94652344 -7.15234375 75.95117188 C-9.10159508 75.96291435 -11.05080738 75.98084854 -13 76 C-12.67 75.01 -12.34 74.02 -12 73 C-11.443125 73.268125 -10.88625 73.53625 -10.3125 73.8125 C-9.1678125 73.9053125 -9.1678125 73.9053125 -8 74 C-5.22877725 71.64573501 -5.22877725 71.64573501 -3 69 C-3 70.32 -3 71.64 -3 73 C-2.855625 71.906875 -2.71125 70.81375 -2.5625 69.6875 C-2 66 -2 66 -1 63 C-0.34 63 0.32 63 1 63 C1.33 62.34 1.66 61.68 2 61 C3.65 61 5.3 61 7 61 C7 61.99 7 62.98 7 64 C8.98 63.505 8.98 63.505 11 63 C9.515 62.505 9.515 62.505 8 62 C9 60 9 60 12 59 C12.33 57.35 12.66 55.7 13 54 C13.66 54 14.32 54 15 54 C15 53.01 15 52.02 15 51 C14.34 50.67 13.68 50.34 13 50 C14.485 49.071875 14.485 49.071875 16 48.125 C18.30459546 46.25860227 18.93528263 45.41558705 19.3984375 42.44140625 C19.37712652 39.93736616 19.26107778 37.48990843 19 35 C17.82665207 35.99736989 17.82665207 35.99736989 17.5625 37.875 C17 40 17 40 15 43 C13.02 42.67 11.04 42.34 9 42 C8.67 43.65 8.34 45.3 8 47 C5.37886292 47 3.49064888 46.68707555 1 46 C3 43 3 43 5 42 C5 40.68 5 39.36 5 38 C6.10593377 34.51205503 7.32270986 32.45418263 10 30 C10.66 29.01 11.32 28.02 12 27 C12.33 28.32 12.66 29.64 13 31 C13.66 31 14.32 31 15 31 C15 30.34 15 29.68 15 29 C15.66 29 16.32 29 17 29 C17 28.34 17 27.68 17 27 C20.63 26.67 24.26 26.34 28 26 C27.505 21.545 27.505 21.545 27 17 C23.37 17 19.74 17 16 17 C16.33 18.65 16.66 20.3 17 22 C15.35 23.32 13.7 24.64 12 26 C12 25.34 12 24.68 12 24 C11.01 23.67 10.02 23.34 9 23 C8.67 22.01 8.34 21.02 8 20 C8.33 19.34 8.66 18.68 9 18 C2.73 17.67 -3.54 17.34 -10 17 C-10 16.67 -10 16.34 -10 16 C-11.65 15.67 -13.3 15.34 -15 15 C-15 12.69 -15 10.38 -15 8 C-14.01 8 -13.02 8 -12 8 C-12.99 8.495 -12.99 8.495 -14 9 C-14 10.65 -14 12.3 -14 14 C-12.68 14 -11.36 14 -10 14 C-10.33 12.68 -10.66 11.36 -11 10 C-8 8 -8 8 -5 8 C-4.67 8.66 -4.34 9.32 -4 10 C-3.67 8.35 -3.34 6.7 -3 5 C-2.34 5.33 -1.68 5.66 -1 6 C-1 6.33 -1 6.66 -1 7 C-0.34 6.67 0.32 6.34 1 6 C1 6.66 1 7.32 1 8 C1.66 8.33 2.32 8.66 3 9 C3.33333333 10.33333333 3.66666667 11.66666667 4 13 C6.60089885 14.30044943 8.39873708 14.0490345 11.3046875 13.95703125 C12.36300781 13.93576172 13.42132813 13.91449219 14.51171875 13.89257812 C16.74640871 13.83937122 18.9808498 13.77434495 21.21484375 13.69726562 C22.27574219 13.67986328 23.33664063 13.66246094 24.4296875 13.64453125 C25.40147949 13.61721924 26.37327148 13.58990723 27.37451172 13.56176758 C30.7127347 14.11896585 31.8694869 15.44911519 34 18 C34.5775 17.154375 35.155 16.30875 35.75 15.4375 C37.86663283 13.25951549 38.83831502 13.00796584 41.93359375 12.85546875 C50.05665468 13.52832734 50.05665468 13.52832734 53 15 C52.95875 13.948125 52.9175 12.89625 52.875 11.8125 C52.99147875 8.25989827 53.47208068 6.15133359 55 3 Z " fill="#9C6F77" transform="translate(196,127)"/>
<path d="M0 0 C2.375 -0.1875 2.375 -0.1875 5 0 C5.66 0.99 6.32 1.98 7 3 C7.515625 2.608125 8.03125 2.21625 8.5625 1.8125 C12.29297149 0.5690095 14.54214908 2.39456921 18 4 C19.32 4 20.64 4 22 4 C22 4.66 22 5.32 22 6 C25.465 5.505 25.465 5.505 29 5 C30.50559539 6.96382007 31.89131683 8.78263366 33 11 C32.375 13.5 32.375 13.5 31 16 C28.375 17.3125 28.375 17.3125 26 18 C26.825 18.391875 27.65 18.78375 28.5 19.1875 C29.325 19.785625 30.15 20.38375 31 21 C31.3125 23.6875 31.3125 23.6875 31 26 C31.99 26 32.98 26 34 26 C33.505 24.02 33.505 24.02 33 22 C36.75 20.875 36.75 20.875 39 22 C38.953125 25.23046875 38.953125 25.23046875 38 29 C35.49802496 30.84596939 33.51698153 32.04364877 30.75 33.3125 C29.74646484 33.81233398 29.74646484 33.81233398 28.72265625 34.32226562 C19.21779878 39 19.21779878 39 15 39 C13.30219866 34.55525001 11.61177713 30.10778838 9.92797852 25.65771484 C9.35477831 24.1458892 8.7796085 22.63480873 8.20239258 21.12451172 C7.37055282 18.94694328 6.54595598 16.76674683 5.72265625 14.5859375 C5.33667015 13.58244766 5.33667015 13.58244766 4.94288635 12.5586853 C3.81550907 9.55352769 2.96236187 6.76446252 2.45483398 3.58837891 C2.30473877 2.73421387 2.15464355 1.88004883 2 1 C1.34 0.67 0.68 0.34 0 0 Z " fill="#9A6D76" transform="translate(157,206)"/>
<path d="M0 0 C1.65 0.33 3.3 0.66 5 1 C4.69707031 1.69222656 4.39414063 2.38445313 4.08203125 3.09765625 C0.58424962 11.26632166 -2.28663244 19.54814871 -5 28 C-4.34 28 -3.68 28 -3 28 C-2.67 27.34 -2.34 26.68 -2 26 C-1.67 26.33 -1.34 26.66 -1 27 C0.32 26.01 1.64 25.02 3 24 C5.51083114 25.25541557 5.87125446 26.50063488 7 29 C7.66 28.34 8.32 27.68 9 27 C9.495 27.99 9.495 27.99 10 29 C10.66 27.68 11.32 26.36 12 25 C12.66 25 13.32 25 14 25 C14.495 25.99 14.495 25.99 15 27 C15.66 26.34 16.32 25.68 17 25 C17.99 25.99 17.99 25.99 19 27 C19.7425 26.649375 20.485 26.29875 21.25 25.9375 C24.21135857 24.92794594 25.12953867 25.04317956 28 26 C28.99 26 29.98 26 31 26 C31 26.99 31 27.98 31 29 C31.99 28.01 32.98 27.02 34 26 C34.495 27.485 34.495 27.485 35 29 C35.99 28.505 35.99 28.505 37 28 C37 28.66 37 29.32 37 30 C37.66 30 38.32 30 39 30 C39.495 31.98 39.495 31.98 40 34 C38.02 34.66 36.04 35.32 34 36 C33.34 35.34 32.68 34.68 32 34 C31.649375 34.515625 31.29875 35.03125 30.9375 35.5625 C29 37 29 37 25.375 36.8125 C24.26125 36.544375 23.1475 36.27625 22 36 C21.67 35.34 21.34 34.68 21 34 C20.0925 34.309375 19.185 34.61875 18.25 34.9375 C15 36 15 36 12.6875 36.5 C12.130625 36.665 11.57375 36.83 11 37 C10.505 37.99 10.505 37.99 10 39 C7.9375 39.625 7.9375 39.625 6 40 C6 40.33 6 40.66 6 41 C3.69 41 1.38 41 -1 41 C-1 39 -1 37 -1 35 C-1.33 35.99 -1.66 36.98 -2 38 C-3.98 38.33 -5.96 38.66 -8 39 C-7.67 36.69 -7.34 34.38 -7 32 C-7.99 35.3 -8.98 38.6 -10 42 C-34.75 42 -59.5 42 -85 42 C-85 41.67 -85 41.34 -85 41 C-49.855 40.505 -49.855 40.505 -14 40 C-13.01 36.37 -12.02 32.74 -11 29 C-10.14123184 26.51281736 -9.24535066 24.03791172 -8.30078125 21.58203125 C-8.0608696 20.95391037 -7.82095795 20.32578949 -7.57377625 19.67863464 C-6.82491832 17.72133295 -6.06889335 15.76690014 -5.3125 13.8125 C-4.79574045 12.46568021 -4.27946128 11.118676 -3.76367188 9.77148438 C-2.51463118 6.51218362 -1.25915807 3.25540766 0 0 Z " fill="#9F727B" transform="translate(172,51)"/>
<path d="M0 0 C2.375 -0.1875 2.375 -0.1875 5 0 C5.66 0.99 6.32 1.98 7 3 C7.515625 2.608125 8.03125 2.21625 8.5625 1.8125 C12.29297149 0.5690095 14.54214908 2.39456921 18 4 C19.32 4 20.64 4 22 4 C22 4.66 22 5.32 22 6 C25.465 5.505 25.465 5.505 29 5 C30.50559539 6.96382007 31.89131683 8.78263366 33 11 C32.34 11.99 31.68 12.98 31 14 C30.67 13.34 30.34 12.68 30 12 C29.01 12 28.02 12 27 12 C26.01 11.34 25.02 10.68 24 10 C23.67 10.66 23.34 11.32 23 12 C22 12 21 12 20 12 C19.67 12.66 19.34 13.32 19 14 C16 16 16 16 12 16 C12 14.35 12 12.7 12 11 C11.01 11.495 11.01 11.495 10 12 C10.23710693 12.65073486 10.47421387 13.30146973 10.71850586 13.97192383 C11.79192426 16.91862962 12.86471922 19.86556202 13.9375 22.8125 C14.31068359 23.83666016 14.68386719 24.86082031 15.06835938 25.91601562 C15.42607422 26.89892578 15.78378906 27.88183594 16.15234375 28.89453125 C16.48226318 29.80050049 16.81218262 30.70646973 17.15209961 31.63989258 C17.7910856 33.41849251 18.40236124 35.20708373 19 37 C18.67 37.66 18.34 38.32 18 39 C17.01 39 16.02 39 15 39 C13.30219866 34.55525001 11.61177713 30.10778838 9.92797852 25.65771484 C9.35477831 24.1458892 8.7796085 22.63480873 8.20239258 21.12451172 C7.37055282 18.94694328 6.54595598 16.76674683 5.72265625 14.5859375 C5.33667015 13.58244766 5.33667015 13.58244766 4.94288635 12.5586853 C3.81550907 9.55352769 2.96236187 6.76446252 2.45483398 3.58837891 C2.30473877 2.73421387 2.15464355 1.88004883 2 1 C1.34 0.67 0.68 0.34 0 0 Z " fill="#A1757E" transform="translate(157,206)"/>
<path d="M0 0 C0.99 0.33 1.98 0.66 3 1 C2.83773926 1.71623535 2.67547852 2.4324707 2.50830078 3.17041016 C2.01058743 5.94106232 1.87073892 8.46223498 1.8671875 11.2734375 C1.86589844 12.2634375 1.86460937 13.2534375 1.86328125 14.2734375 C1.86908203 15.80871094 1.86908203 15.80871094 1.875 17.375 C1.87113281 18.39078125 1.86726563 19.4065625 1.86328125 20.453125 C1.87015185 25.74348607 2.07516872 30.78864911 3 36 C1.68 35.67 0.36 35.34 -1 35 C-2.17571451 31.32589215 -2.07366746 27.83070817 -2 24 C-4.31 24 -6.62 24 -9 24 C-9 24.66 -9 25.32 -9 26 C-15.45330376 26.36528134 -15.45330376 26.36528134 -17.7421875 24.8359375 C-19.52660384 22.23135464 -19.1630359 20.5345878 -18.8125 17.4375 C-18.71582031 16.46683594 -18.61914062 15.49617187 -18.51953125 14.49609375 C-18 12 -18 12 -16 10 C-13.25 9.98828125 -13.25 9.98828125 -10 10.3125 C-8.9275 10.41175781 -7.855 10.51101562 -6.75 10.61328125 C-4 11 -4 11 -2 12 C-2.04125 10.948125 -2.0825 9.89625 -2.125 8.8125 C-2.00852125 5.25989827 -1.52791932 3.15133359 0 0 Z " fill="#692432" transform="translate(251,130)"/>
<path d="M0 0 C0.33 1.32 0.66 2.64 1 4 C0.01 4 -0.98 4 -2 4 C-1 1 -1 1 0 0 Z M-3 5 C-2.34 5.33 -1.68 5.66 -1 6 C-1 6.33 -1 6.66 -1 7 C-0.34 6.67 0.32 6.34 1 6 C1 6.66 1 7.32 1 8 C1.66 8.33 2.32 8.66 3 9 C3.33333333 10.33333333 3.66666667 11.66666667 4 13 C6.60089885 14.30044943 8.39873708 14.0490345 11.3046875 13.95703125 C12.36300781 13.93576172 13.42132813 13.91449219 14.51171875 13.89257812 C16.74640871 13.83937122 18.9808498 13.77434495 21.21484375 13.69726562 C22.27574219 13.67986328 23.33664063 13.66246094 24.4296875 13.64453125 C25.40147949 13.61721924 26.37327148 13.58990723 27.37451172 13.56176758 C30.7127347 14.11896585 31.8694869 15.44911519 34 18 C34.66 17.34 35.32 16.68 36 16 C36.33 16 36.66 16 37 16 C37.125 19.375 37.125 19.375 37 23 C36.34 23.66 35.68 24.32 35 25 C34.67 25 34.34 25 34 25 C32.32260138 25.98189187 30.65532623 26.98133771 29 28 C27.19769832 24.17010894 26.80377759 21.21878192 27 17 C23.37 17 19.74 17 16 17 C16.33 18.65 16.66 20.3 17 22 C15.35 23.32 13.7 24.64 12 26 C12 25.34 12 24.68 12 24 C11.01 23.67 10.02 23.34 9 23 C8.67 22.01 8.34 21.02 8 20 C8.33 19.34 8.66 18.68 9 18 C2.73 17.67 -3.54 17.34 -10 17 C-10 16.67 -10 16.34 -10 16 C-11.65 15.67 -13.3 15.34 -15 15 C-15 12.69 -15 10.38 -15 8 C-14.01 8 -13.02 8 -12 8 C-12.99 8.495 -12.99 8.495 -14 9 C-14 10.65 -14 12.3 -14 14 C-12.68 14 -11.36 14 -10 14 C-10.33 12.68 -10.66 11.36 -11 10 C-8 8 -8 8 -5 8 C-4.67 8.66 -4.34 9.32 -4 10 C-3.67 8.35 -3.34 6.7 -3 5 Z " fill="#9B6E77" transform="translate(196,127)"/>
<path d="M0 0 C1.09658936 3.28976808 0.79953138 4.71303767 0 8 C1.65 8 3.3 8 5 8 C5.33 6.68 5.66 5.36 6 4 C6.66 4.33 7.32 4.66 8 5 C7.34 6.65 6.68 8.3 6 10 C8.91652174 10.16681109 8.91652174 10.16681109 12 10 C12.66 9.34 13.32 8.68 14 8 C14.66 8.33 15.32 8.66 16 9 C16.33 8.34 16.66 7.68 17 7 C18.66666667 6.66666667 20.33333333 6.33333333 22 6 C22.33 5.34 22.66 4.68 23 4 C24.32 4.33 25.64 4.66 27 5 C27.33 4.34 27.66 3.68 28 3 C28.53625 3.28875 29.0725 3.5775 29.625 3.875 C32.35280484 5.16711808 35.12612718 6.08558592 38 7 C37.67 7.99 37.34 8.98 37 10 C39.73032273 9.71703381 42.45892148 9.42396118 45.1875 9.125 C45.95642578 9.04636719 46.72535156 8.96773437 47.51757812 8.88671875 C51.65780704 8.42471896 55.19233501 7.8160807 59 6 C59 6.99 59 7.98 59 9 C57.10646634 10.89353366 55.15473199 12.4198632 53 14 C52.34 13.67 51.68 13.34 51 13 C51 12.34 51 11.68 51 11 C44.34590999 11.59699702 44.34590999 11.59699702 37.75 12.625 C34.61503719 13.05249493 32.07916107 12.65982023 29 12 C28.67 12.66 28.34 13.32 28 14 C24.04 14 20.08 14 16 14 C16 13.34 16 12.68 16 12 C15.15236084 12.01571045 15.15236084 12.01571045 14.28759766 12.03173828 C11.73344347 12.07324788 9.17936018 12.0993096 6.625 12.125 C5.73554688 12.14175781 4.84609375 12.15851563 3.9296875 12.17578125 C3.07890625 12.18222656 2.228125 12.18867187 1.3515625 12.1953125 C0.17327881 12.21102295 0.17327881 12.21102295 -1.02880859 12.22705078 C-3 12 -3 12 -5 10 C-4.34 10 -3.68 10 -3 10 C-2.87625 9.278125 -2.7525 8.55625 -2.625 7.8125 C-2.0095069 5.04278106 -1.11555626 2.6029646 0 0 Z " fill="#946870" transform="translate(165,81)"/>
<path d="M0 0 C1.65 0.33 3.3 0.66 5 1 C4.5510437 2.05356689 4.5510437 2.05356689 4.09301758 3.12841797 C0.7491514 11.05399585 -2.33302063 19.05612846 -5.3125 27.125 C-5.9940918 28.9503125 -5.9940918 28.9503125 -6.68945312 30.8125 C-7.11806641 31.97007813 -7.54667969 33.12765625 -7.98828125 34.3203125 C-8.37540283 35.36461426 -8.76252441 36.40891602 -9.16137695 37.48486328 C-10.10543688 39.87434121 -10.10543688 39.87434121 -10 42 C-34.75 42 -59.5 42 -85 42 C-85 41.67 -85 41.34 -85 41 C-49.855 40.505 -49.855 40.505 -14 40 C-13.01 36.37 -12.02 32.74 -11 29 C-10.14123184 26.51281736 -9.24535066 24.03791172 -8.30078125 21.58203125 C-8.0608696 20.95391037 -7.82095795 20.32578949 -7.57377625 19.67863464 C-6.82491832 17.72133295 -6.06889335 15.76690014 -5.3125 13.8125 C-4.79574045 12.46568021 -4.27946128 11.118676 -3.76367188 9.77148438 C-2.51463118 6.51218362 -1.25915807 3.25540766 0 0 Z " fill="#AB878D" transform="translate(172,51)"/>
<path d="M0 0 C1.82421875 1.75 1.82421875 1.75 3.6875 4 C4.31011719 4.7425 4.93273437 5.485 5.57421875 6.25 C6.04472656 6.8275 6.51523437 7.405 7 8 C5.16015625 8.59375 5.16015625 8.59375 3 9 C1.32260138 8.01810813 -0.34467377 7.01866229 -2 6 C-4.99332739 6.9977758 -5.94766315 7.7522025 -8 10 C-8.99 9.67 -9.98 9.34 -11 9 C-11.66 10.98 -12.32 12.96 -13 15 C-13.66 15 -14.32 15 -15 15 C-15 15.66 -15 16.32 -15 17 C-16.62626404 18.38232443 -18.2925002 19.71937515 -20 21 C-20 19.02 -20 17.04 -20 15 C-21.485 17.475 -21.485 17.475 -23 20 C-25.09845357 17.73367014 -26.01618762 16.64750486 -25.9375 13.5 C-24.32701733 9.20537956 -21.73665824 7.37093522 -17.6875 5.33203125 C-16.470625 4.83058594 -15.25375 4.32914062 -14 3.8125 C-12.783125 3.30332031 -11.56625 2.79414062 -10.3125 2.26953125 C-6.62763577 0.85728965 -3.93096371 0 0 0 Z " fill="#A27981" transform="translate(254,118)"/>
<path d="M0 0 C2.475 1.485 2.475 1.485 5 3 C5.33 2.34 5.66 1.68 6 1 C10.38889325 1.66498383 13.9811485 3.18757677 18 5 C18 5.33 18 5.66 18 6 C16.02 6 14.04 6 12 6 C12.66 6.66 13.32 7.32 14 8 C16.10820797 7.6814823 16.10820797 7.6814823 18 7 C18 7.66 18 8.32 18 9 C17.34 9 16.68 9 16 9 C16.495 9.99 16.495 9.99 17 11 C18.98 10.34 20.96 9.68 23 9 C23.99 10.65 24.98 12.3 26 14 C23.20803989 17.28465896 19.76803183 19.01321958 16 21 C15.34 21 14.68 21 14 21 C14.33 18.69 14.66 16.38 15 14 C14.01 13.67 13.02 13.34 12 13 C12 12.34 12 11.68 12 11 C11.34 11 10.68 11 10 11 C10.495 12.98 10.495 12.98 11 15 C10.01 15.33 9.02 15.66 8 16 C6.94595055 12.01803543 7.15901344 9.01804691 8 5 C5.69 4.67 3.38 4.34 1 4 C0.67 4.99 0.34 5.98 0 7 C-0.66 6.34 -1.32 5.68 -2 5 C-6.51054008 3.97019443 -10.97225053 3.81277699 -15.5859375 3.68359375 C-16.63861313 3.6524221 -16.63861313 3.6524221 -17.71255493 3.62062073 C-19.93327958 3.55573676 -22.15411276 3.4965277 -24.375 3.4375 C-25.88933371 3.39425646 -27.40365683 3.3506404 -28.91796875 3.30664062 C-32.61186655 3.20011914 -36.30588354 3.09868323 -40 3 C-40 3.66 -40 4.32 -40 5 C-41.65 5 -43.3 5 -45 5 C-41.75996413 1.67096127 -38.86766189 1.62459059 -34.47383118 1.53329468 C-33.19707771 1.52841537 -33.19707771 1.52841537 -31.89453125 1.5234375 C-31.01472092 1.50785797 -30.13491058 1.49227844 -29.22843933 1.47622681 C-26.42313486 1.42875024 -23.61807923 1.40094866 -20.8125 1.375 C-17.99638308 1.33854852 -15.18040848 1.29799474 -12.36442566 1.25234985 C-10.6128115 1.22505302 -8.86109253 1.20373244 -7.10932922 1.18881226 C-3.24229319 1.51840334 -3.24229319 1.51840334 0 0 Z " fill="#956A71" transform="translate(203,201)"/>
<path d="M0 0 C1.2065625 0.0309375 1.2065625 0.0309375 2.4375 0.0625 C3.67955879 3.78867637 3.02086663 4.80186064 1.6015625 8.39453125 C1.19679687 9.44060547 0.79203125 10.48667969 0.375 11.56445312 C-0.058125 12.65693359 -0.49125 13.74941406 -0.9375 14.875 C-1.7837833 17.02532893 -2.62509557 19.17762223 -3.4609375 21.33203125 C-3.83911621 22.28698486 -4.21729492 23.24193848 -4.60693359 24.22583008 C-5.59730051 27.1658079 -6.13435579 29.99432218 -6.5625 33.0625 C-8.5425 33.0625 -10.5225 33.0625 -12.5625 33.0625 C-13.74521666 23.7540818 -10.24453897 16.34932737 -6.5625 8.0625 C-6.01592497 6.76474452 -5.47031782 5.46658088 -4.92578125 4.16796875 C-3.12957809 0.07633117 -3.12957809 0.07633117 0 0 Z " fill="#D1CBC8" transform="translate(165.5625,58.9375)"/>
<path d="M0 0 C4.10472658 0.1096972 8.20852148 0.24036976 12.3125 0.375 C13.47974609 0.4059375 14.64699219 0.436875 15.84960938 0.46875 C16.96787109 0.50742188 18.08613281 0.54609375 19.23828125 0.5859375 C20.7857605 0.63306885 20.7857605 0.63306885 22.36450195 0.68115234 C25 1 25 1 28 3 C27.01 3.33 26.02 3.66 25 4 C24.34 4.66 23.68 5.32 23 6 C22.67 5.67 22.34 5.34 22 5 C22.33 5.66 22.66 6.32 23 7 C23.33 8.32 23.66 9.64 24 11 C20.37 11 16.74 11 13 11 C13.66 9.68 14.32 8.36 15 7 C15.36784131 5.6757713 15.71202981 4.34386088 16 3 C14.27735506 6.29549466 12.70554068 9.33118845 12 13 C12.66 13.33 13.32 13.66 14 14 C13.01 14.33 12.02 14.66 11 15 C10.67 13.68 10.34 12.36 10 11 C9.01 11 8.02 11 7 11 C7 10.34 7 9.68 7 9 C7.99 8.67 8.98 8.34 10 8 C9.67 6.68 9.34 5.36 9 4 C8.01 4 7.02 4 6 4 C6.33 6.64 6.66 9.28 7 12 C7.99 12 8.98 12 10 12 C9.25 16.75 9.25 16.75 7 19 C7 18.34 7 17.68 7 17 C6.21625 17.185625 5.4325 17.37125 4.625 17.5625 C2 18 2 18 0 17 C0 15.68 0 14.36 0 13 C1.32 13 2.64 13 4 13 C4 12.34 4 11.68 4 11 C3.01 10.67 2.02 10.34 1 10 C1.33 9.01 1.66 8.02 2 7 C2.33 7.33 2.66 7.66 3 8 C3.66 7.67 4.32 7.34 5 7 C4.34 6.34 3.68 5.68 3 5 C2.375 2.875 2.375 2.875 2 1 C1.67 1.99 1.34 2.98 1 4 C0.67 2.68 0.34 1.36 0 0 Z " fill="#A87B84" transform="translate(180,143)"/>
<path d="M0 0 C0.33 0 0.66 0 1 0 C1.33 1.98 1.66 3.96 2 6 C3.32 4.02 4.64 2.04 6 0 C7.14237655 3.52090684 6.95528861 6.52308176 6.625 10.1875 C6.53476562 11.25355469 6.44453125 12.31960937 6.3515625 13.41796875 C6 16 6 16 5 17 C5.66 17.33 6.32 17.66 7 18 C7 19.65 7 21.3 7 23 C7.66 23 8.32 23 9 23 C9 23.66 9 24.32 9 25 C10.32 25.33 11.64 25.66 13 26 C11.75325341 28.49349318 10.30039894 29.46640071 8 31 C7.34 31 6.68 31 6 31 C6 35.29 6 39.58 6 44 C4.515 44.495 4.515 44.495 3 45 C2.505 43.515 2.505 43.515 2 42 C1.67 41.34 1.34 40.68 1 40 C1.66 40 2.32 40 3 40 C3.66 38.68 4.32 37.36 5 36 C4.01 36 3.02 36 2 36 C1.30109153 31.63182208 0.69119423 27.426216 1 23 C1.66 22.34 2.32 21.68 3 21 C2.34 20.67 1.68 20.34 1 20 C1.66 20 2.32 20 3 20 C2.938125 18.576875 2.938125 18.576875 2.875 17.125 C3 14 3 14 5 12 C4.360625 11.855625 3.72125 11.71125 3.0625 11.5625 C1 11 1 11 0 10 C-0.07205511 8.31391034 -0.08386068 6.62499341 -0.0625 4.9375 C-0.05347656 4.01839844 -0.04445312 3.09929687 -0.03515625 2.15234375 C-0.02355469 1.44207031 -0.01195312 0.73179688 0 0 Z " fill="#A77A81" transform="translate(38,104)"/>
<path d="M0 0 C2.31 0 4.62 0 7 0 C7.14695313 1.24716797 7.14695313 1.24716797 7.296875 2.51953125 C7.44640625 3.60621094 7.5959375 4.69289062 7.75 5.8125 C7.88921875 6.89144531 8.0284375 7.97039062 8.171875 9.08203125 C8.7631922 12.06768503 8.7631922 12.06768503 10.875 13.875 C13.67871516 15.35931979 15.87700004 15.21293182 19 15 C13.9059081 22.68490153 13.9059081 22.68490153 10.125 24 C9.42375 24 8.7225 24 8 24 C8 23.01 8 22.02 8 21 C7.525625 20.525625 7.05125 20.05125 6.5625 19.5625 C4.74896408 17.74896408 4.42906705 16.48858887 4 14 C3.67 14.66 3.34 15.32 3 16 C2.01 15.67 1.02 15.34 0 15 C0.33 14.34 0.66 13.68 1 13 C3.5625 12.375 3.5625 12.375 6 12 C3.67861566 10.21431974 1.34515607 8.58089989 -1.125 7 C-4 5 -4 5 -6 2 C-4.02 2 -2.04 2 0 2 C0 1.34 0 0.68 0 0 Z " fill="#A98089" transform="translate(242,154)"/>
<path d="M0 0 C1 2 1 2 2 4 C1.34 4.66 0.68 5.32 0 6 C-0.99 5.67 -1.98 5.34 -3 5 C-3.66 5.66 -4.32 6.32 -5 7 C-4.34 7 -3.68 7 -3 7 C-3.020625 7.763125 -3.04125 8.52625 -3.0625 9.3125 C-3.12942841 12.10185786 -3.12942841 12.10185786 -2 15 C-2.66 15 -3.32 15 -4 15 C-3.51515724 19.64586892 -3.51515724 19.64586892 -2 24 C-2 24.99 -2 25.98 -2 27 C-1.34 27.66 -0.68 28.32 0 29 C-0.66 29.99 -1.32 30.98 -2 32 C-2.45139459 34.0492094 -2.45139459 34.0492094 -2.625 36.1875 C-2.74875 37.445625 -2.8725 38.70375 -3 40 C-3.99 39.34 -4.98 38.68 -6 38 C-6.31206719 34.4112273 -5.89558232 31.45438896 -5 28 C-5.33 27.67 -5.66 27.34 -6 27 C-6.04080783 25.00041636 -6.04254356 22.99954746 -6 21 C-8.51083114 22.25541557 -8.87125446 23.50063488 -10 26 C-10.05449838 24.27119018 -10.09301688 22.54187288 -10.125 20.8125 C-10.14820313 19.84957031 -10.17140625 18.88664062 -10.1953125 17.89453125 C-9.99122096 14.86989467 -9.14212867 12.77853992 -8 10 C-8.33 9.34 -8.66 8.68 -9 8 C-8.34 8 -7.68 8 -7 8 C-7 5.69 -7 3.38 -7 1 C-3.375 -1.125 -3.375 -1.125 0 0 Z " fill="#A77A82" transform="translate(48,163)"/>
<path d="M0 0 C0.99 1.0209375 0.99 1.0209375 2 2.0625 C7.54994799 7.58109236 13.03307986 12.37139576 20 16 C19.67 16.66 19.34 17.32 19 18 C17.02 18 15.04 18 13 18 C13 17.34 13 16.68 13 16 C12.34 16 11.68 16 11 16 C10.896875 15.360625 10.79375 14.72125 10.6875 14.0625 C10.460625 13.381875 10.23375 12.70125 10 12 C9.01 11.67 8.02 11.34 7 11 C6.67 10.67 6.34 10.34 6 10 C6.33 11.32 6.66 12.64 7 14 C6.01 14.495 6.01 14.495 5 15 C4.34 14.34 3.68 13.68 3 13 C3 12.34 3 11.68 3 11 C2.34 10.67 1.68 10.34 1 10 C0.67 11.98 0.34 13.96 0 16 C0.66 16.33 1.32 16.66 2 17 C1.67 17.99 1.34 18.98 1 20 C-1.64 18.35 -4.28 16.7 -7 15 C-2.96127563 4.44191344 -2.96127563 4.44191344 0 0 Z " fill="#AB828A" transform="translate(229,149)"/>
<path d="M0 0 C1 2 1 2 0.4375 4.4375 C-0.34146478 7.23185709 -0.34146478 7.23185709 2 10 C2.103125 9.360625 2.20625 8.72125 2.3125 8.0625 C2.539375 7.381875 2.76625 6.70125 3 6 C3.99 5.67 4.98 5.34 6 5 C6 6.98 6 8.96 6 11 C6.66 10.01 7.32 9.02 8 8 C8.66 8 9.32 8 10 8 C10 7.34 10 6.68 10 6 C10.66 6 11.32 6 12 6 C12.66 4.68 13.32 3.36 14 2 C14.66 2 15.32 2 16 2 C16 2.66 16 3.32 16 4 C17.32 3.34 18.64 2.68 20 2 C19 5 19 5 17.1796875 6.140625 C16.41914063 6.50671875 15.65859375 6.8728125 14.875 7.25 C10.02067056 9.80450405 6.67389635 12.98346047 3 17 C1.66666667 18.33333333 0.33333333 19.66666667 -1 21 C-1.33 20.34 -1.66 19.68 -2 19 C-1.34 18.67 -0.68 18.34 0 18 C-0.598125 17.29875 -1.19625 16.5975 -1.8125 15.875 C-4.00326457 12.99570943 -5.61950076 10.34226132 -7 7 C-5.66667905 3.00003714 -3.5042173 2.16217663 0 0 Z " fill="#AB828A" transform="translate(229,127)"/>
<path d="M0 0 C1.93166016 0.01740234 1.93166016 0.01740234 3.90234375 0.03515625 C5.19269531 0.04417969 6.48304688 0.05320313 7.8125 0.0625 C8.81152344 0.07410156 9.81054688 0.08570313 10.83984375 0.09765625 C10.83984375 3.72765625 10.83984375 7.35765625 10.83984375 11.09765625 C5.88984375 10.76765625 0.93984375 10.43765625 -4.16015625 10.09765625 C-4.2578125 3.1640625 -4.2578125 3.1640625 -4.16015625 1.09765625 C-3.16015625 0.09765625 -3.16015625 0.09765625 0 0 Z " fill="#0F0D0D" transform="translate(238.16015625,142.90234375)"/>
<path d="M0 0 C2.475 0.99 2.475 0.99 5 2 C4.67 2.99 4.34 3.98 4 5 C3.80154832 6.83016552 3.63817103 8.66429914 3.5 10.5 C3.26621969 13.60593842 2.98926426 16.03220722 2 19 C1.65772583 20.33106622 1.32248257 21.66400079 1 23 C1.66 23.33 2.32 23.66 3 24 C2.67 24.66 2.34 25.32 2 26 C2.99 26 3.98 26 5 26 C4.67 26.99 4.34 27.98 4 29 C3.01 29.33 2.02 29.66 1 30 C1.99 30.99 2.98 31.98 4 33 C3.67 33.66 3.34 34.32 3 35 C4.485 34.505 4.485 34.505 6 34 C7 35 7 35 7.0625 38.5625 C7.041875 39.696875 7.02125 40.83125 7 42 C6.319375 41.0409375 6.319375 41.0409375 5.625 40.0625 C4.16078274 37.90297594 4.16078274 37.90297594 2 37 C1.79029441 41.14093698 1.79029441 41.14093698 3 45 C2.34 45 1.68 45 1 45 C1.14109986 47.10448938 1.28804175 49.2085877 1.4375 51.3125 C1.51871094 52.48425781 1.59992187 53.65601563 1.68359375 54.86328125 C1.8867371 58.02590958 1.8867371 58.02590958 3 61 C2.01 61.99 1.02 62.98 0 64 C0 42.88 0 21.76 0 0 Z " fill="#9B6C74" transform="translate(38,114)"/>
<path d="M0 0 C0.66 0.33 1.32 0.66 2 1 C1.67 23.77 1.34 46.54 1 70 C0.67 70 0.34 70 0 70 C-1.05618458 57.21511422 -1.15455764 44.47298316 -1.13037109 31.65039062 C-1.1249444 28.21480023 -1.13038183 24.77933678 -1.13671875 21.34375 C-1.13605903 19.15104138 -1.13478008 16.95833284 -1.1328125 14.765625 C-1.13483673 13.74277405 -1.13686096 12.7199231 -1.13894653 11.66607666 C-1.13579437 10.71698425 -1.13264221 9.76789185 -1.12939453 8.79003906 C-1.12859894 7.95893616 -1.12780334 7.12783325 -1.12698364 6.27154541 C-1.00308985 4.05527269 -0.61538275 2.12747808 0 0 Z " fill="#DBD8D5" transform="translate(37,95)"/>
<path d="M0 0 C1.98 0 3.96 0 6 0 C6 0.66 6 1.32 6 2 C6.66 2.33 7.32 2.66 8 3 C8 3.66 8 4.32 8 5 C7.01 5.495 7.01 5.495 6 6 C6.33 6.66 6.66 7.32 7 8 C4.75 8.75 4.75 8.75 2 9 C-0.3125 7.0625 -0.3125 7.0625 -2 5 C-2.226875 5.763125 -2.45375 6.52625 -2.6875 7.3125 C-4.28367034 10.58084879 -5.83319161 11.3374256 -9 13 C-9.66 13.66 -10.32 14.32 -11 15 C-11.66 14.34 -12.32 13.68 -13 13 C-12.7578125 10.8359375 -12.7578125 10.8359375 -12.125 8.375 C-11.92132813 7.55773437 -11.71765625 6.74046875 -11.5078125 5.8984375 C-11.34023437 5.27195313 -11.17265625 4.64546875 -11 4 C-8.419053 3.4838106 -5.84987184 2.97611597 -3.25 2.5625 C-2.13625 2.2840625 -2.13625 2.2840625 -1 2 C-0.67 1.34 -0.34 0.68 0 0 Z " fill="#A5767F" transform="translate(197,175)"/>
<path d="M0 0 C2.475 1.485 2.475 1.485 5 3 C5.33 2.34 5.66 1.68 6 1 C10.38889325 1.66498383 13.9811485 3.18757677 18 5 C18 5.33 18 5.66 18 6 C17.0925 5.9175 16.185 5.835 15.25 5.75 C11.89958592 5.68975201 11.89958592 5.68975201 9.625 8 C9.08875 8.66 8.5525 9.32 8 10 C8 8.35 8 6.7 8 5 C5.69 4.67 3.38 4.34 1 4 C0.67 4.99 0.34 5.98 0 7 C-0.66 6.34 -1.32 5.68 -2 5 C-6.51054008 3.97019443 -10.97225053 3.81277699 -15.5859375 3.68359375 C-16.63861313 3.6524221 -16.63861313 3.6524221 -17.71255493 3.62062073 C-19.93327958 3.55573676 -22.15411276 3.4965277 -24.375 3.4375 C-25.88933371 3.39425646 -27.40365683 3.3506404 -28.91796875 3.30664062 C-32.61186655 3.20011914 -36.30588354 3.09868323 -40 3 C-40 3.66 -40 4.32 -40 5 C-41.65 5 -43.3 5 -45 5 C-41.75996413 1.67096127 -38.86766189 1.62459059 -34.47383118 1.53329468 C-33.19707771 1.52841537 -33.19707771 1.52841537 -31.89453125 1.5234375 C-31.01472092 1.50785797 -30.13491058 1.49227844 -29.22843933 1.47622681 C-26.42313486 1.42875024 -23.61807923 1.40094866 -20.8125 1.375 C-17.99638308 1.33854852 -15.18040848 1.29799474 -12.36442566 1.25234985 C-10.6128115 1.22505302 -8.86109253 1.20373244 -7.10932922 1.18881226 C-3.24229319 1.51840334 -3.24229319 1.51840334 0 0 Z " fill="#815A60" transform="translate(203,201)"/>
<path d="M0 0 C1.48006002 3.93716478 2.95889497 7.87478859 4.4375 11.8125 C5.06881836 13.49182617 5.06881836 13.49182617 5.71289062 15.20507812 C6.11572266 16.27822266 6.51855469 17.35136719 6.93359375 18.45703125 C7.30540771 19.44678955 7.67722168 20.43654785 8.06030273 21.45629883 C8.73872425 23.29274305 9.38090525 25.14271574 10 27 C9.67 27.66 9.34 28.32 9 29 C8.01 29 7.02 29 6 29 C4.57157089 25.33547148 3.14752324 21.66927431 1.72753906 18.00146484 C1.00558153 16.13939585 0.28014762 14.27867593 -0.4453125 12.41796875 C-1.12207031 10.66806641 -1.12207031 10.66806641 -1.8125 8.8828125 C-2.23144531 7.80402832 -2.65039062 6.72524414 -3.08203125 5.61376953 C-4 3 -4 3 -4 1 C-2 0 -2 0 0 0 Z " fill="#A97F88" transform="translate(166,216)"/>
<path d="M0 0 C3.63 0 7.26 0 11 0 C11.66 2.97 12.32 5.94 13 9 C10.24921116 9.91692961 8.64051087 10.10886083 5.8125 10.0625 C3.9253125 10.0315625 3.9253125 10.0315625 2 10 C2.66 9.01 3.32 8.02 4 7 C3.01 6.67 2.02 6.34 1 6 C1 7.32 1 8.64 1 10 C-0.32 9.67 -1.64 9.34 -3 9 C-2 6 -1 3 0 0 Z " fill="#A57981" transform="translate(212,144)"/>
<path d="M0 0 C0.66 -0.66 1.32 -1.32 2 -2 C2.33 -2 2.66 -2 3 -2 C3.125 1.375 3.125 1.375 3 5 C2.34 5.66 1.68 6.32 1 7 C0.67 7 0.34 7 0 7 C-1.67739862 7.98189187 -3.34467377 8.98133771 -5 10 C-6.82941851 6.23355012 -7.23162684 4.03077875 -6 0 C-5.67 -0.33 -5.34 -0.66 -5 -1 C-15.23 -1.33 -25.46 -1.66 -36 -2 C-36 -2.33 -36 -2.66 -36 -3 C-31.67761437 -3.24261206 -27.35499005 -3.45740379 -23.0300293 -3.64697266 C-21.56025752 -3.71525887 -20.09081256 -3.79101868 -18.62182617 -3.87451172 C-16.50482044 -3.99351712 -14.38807803 -4.08521764 -12.26953125 -4.171875 C-10.99698486 -4.2347168 -9.72443848 -4.29755859 -8.41333008 -4.36230469 C-4.41047931 -3.93742588 -2.84527938 -2.7668381 0 0 Z " fill="#A47980" transform="translate(230,145)"/>
<path d="M0 0 C1.31484717 3.00752399 0.94436828 4.15657936 -0.1796875 7.3203125 C-1.00669635 9.21966296 -1.86462541 11.10245066 -2.73046875 12.984375 C-5.22692186 18.73449924 -5.31798401 22.17984007 -6 29 C-23.82 29 -41.64 29 -60 29 C-60 28.67 -60 28.34 -60 28 C-34.755 27.505 -34.755 27.505 -9 27 C-8.15555663 24.4666699 -7.72130192 22.30295314 -7.3125 19.6875 C-5.97795397 12.70441032 -2.94421661 6.4254287 0 0 Z " fill="#E2E2DE" transform="translate(159,63)"/>
<path d="M0 0 C1.55549828 0.04236634 3.11071399 0.09603952 4.66552734 0.15869141 C5.89316299 0.19623032 5.89316299 0.19623032 7.14559937 0.23452759 C9.76463633 0.31682831 12.38293038 0.41337772 15.00146484 0.51025391 C16.7748718 0.56848325 18.54830942 0.62578674 20.32177734 0.68212891 C24.67376863 0.82242189 29.02514632 0.97549718 33.37646484 1.13525391 C33.87146484 2.12525391 33.87146484 2.12525391 34.37646484 3.13525391 C33.71646484 3.13525391 33.05646484 3.13525391 32.37646484 3.13525391 C32.04646484 3.79525391 31.71646484 4.45525391 31.37646484 5.13525391 C31.37646484 4.14525391 31.37646484 3.15525391 31.37646484 2.13525391 C27.74646484 2.13525391 24.11646484 2.13525391 20.37646484 2.13525391 C20.70646484 3.78525391 21.03646484 5.43525391 21.37646484 7.13525391 C19.72646484 8.45525391 18.07646484 9.77525391 16.37646484 11.13525391 C16.37646484 10.47525391 16.37646484 9.81525391 16.37646484 9.13525391 C15.38646484 8.80525391 14.39646484 8.47525391 13.37646484 8.13525391 C13.04646484 7.14525391 12.71646484 6.15525391 12.37646484 5.13525391 C12.70646484 4.47525391 13.03646484 3.81525391 13.37646484 3.13525391 C7.10646484 2.80525391 0.83646484 2.47525391 -5.62353516 2.13525391 C-3.62353516 0.13525391 -3.62353516 0.13525391 0 0 Z " fill="#956770" transform="translate(191.62353515625,141.86474609375)"/>
<path d="M0 0 C3 1 3 1 4.1875 3.0625 C4.455625 3.701875 4.72375 4.34125 5 5 C5.66 4.34 6.32 3.68 7 3 C8 6 8 6 7 9 C4 10 4 10 0.625 9.375 C-3.4756352 8.95079636 -4.78350742 9.5632632 -8 12 C-9 9 -9 9 -9 5 C-8.360625 4.87625 -7.72125 4.7525 -7.0625 4.625 C-6.381875 4.41875 -5.70125 4.2125 -5 4 C-4.67 3.34 -4.34 2.68 -4 2 C-3.67 2.33 -3.34 2.66 -3 3 C-2.01 2.01 -1.02 1.02 0 0 Z " fill="#A3767F" transform="translate(174,75)"/>
<path d="M0 0 C2.31 0 4.62 0 7 0 C7.33 3.63 7.66 7.26 8 11 C2.13741138 9.32497468 -2.55475199 7.16787202 -6 2 C-4.02 2 -2.04 2 0 2 C0 1.34 0 0.68 0 0 Z " fill="#966E74" transform="translate(242,154)"/>
<path d="M0 0 C-0.33 3.63 -0.66 7.26 -1 11 C-5.29 10.34 -9.58 9.68 -14 9 C-9.48371532 3.35464415 -9.48371532 3.35464415 -5.875 1.6875 C-5.19179687 1.36136719 -4.50859375 1.03523437 -3.8046875 0.69921875 C-2 0 -2 0 0 0 Z " fill="#936A72" transform="translate(250,131)"/>
<path d="M0 0 C0.66 0 1.32 0 2 0 C11.71300865 26.9576474 11.71300865 26.9576474 16 39 C15.34 39 14.68 39 14 39 C0 7.32494279 0 7.32494279 0 0 Z " fill="#DED7D6" transform="translate(157,207)"/>
<path d="M0 0 C0 1.65 0 3.3 0 5 C-0.66 5 -1.32 5 -2 5 C-2.33 5.99 -2.66 6.98 -3 8 C-4.32 8 -5.64 8 -7 8 C-6.01 9.485 -6.01 9.485 -5 11 C-3.68 10.67 -2.36 10.34 -1 10 C-1.33 11.65 -1.66 13.3 -2 15 C-4.33333333 15 -6.66666667 15 -9 15 C-9.09764874 10.21521178 -8.77112541 5.72314313 -8 1 C-2.25 0 -2.25 0 0 0 Z " fill="#A17881" transform="translate(261,128)"/>
<path d="M0 0 C1.0725 0.09796875 2.145 0.1959375 3.25 0.296875 C4.3225 0.38453125 5.395 0.4721875 6.5 0.5625 C9.25 1.046875 9.25 1.046875 11.25 3.046875 C6.63 3.376875 2.01 3.706875 -2.75 4.046875 C-2.75 6.686875 -2.75 9.326875 -2.75 12.046875 C1.54 12.376875 5.83 12.706875 10.25 13.046875 C10.25 13.376875 10.25 13.706875 10.25 14.046875 C8.27 14.046875 6.29 14.046875 4.25 14.046875 C4.25 14.706875 4.25 15.366875 4.25 16.046875 C-2.20330376 16.41215634 -2.20330376 16.41215634 -4.4921875 14.8828125 C-6.27660384 12.27822964 -5.9130359 10.5814628 -5.5625 7.484375 C-5.46582031 6.51371094 -5.36914062 5.54304687 -5.26953125 4.54296875 C-4.52171127 0.95005924 -3.70411374 0.0631383 0 0 Z " fill="#563C40" transform="translate(237.75,139.953125)"/>
<path d="M0 0 C1.09658936 3.28976808 0.79953138 4.71303767 0 8 C1.65 8 3.3 8 5 8 C5.33 6.68 5.66 5.36 6 4 C6.66 4.33 7.32 4.66 8 5 C7.34 6.65 6.68 8.3 6 10 C11.28 10.33 16.56 10.66 22 11 C22 11.33 22 11.66 22 12 C17.87505849 12.05784708 13.75022056 12.09354407 9.625 12.125 C8.449375 12.14175781 7.27375 12.15851563 6.0625 12.17578125 C4.38027344 12.18544922 4.38027344 12.18544922 2.6640625 12.1953125 C1.62717285 12.20578613 0.5902832 12.21625977 -0.47802734 12.22705078 C-3 12 -3 12 -5 10 C-4.34 10 -3.68 10 -3 10 C-2.87625 9.278125 -2.7525 8.55625 -2.625 7.8125 C-2.0095069 5.04278106 -1.11555626 2.6029646 0 0 Z " fill="#865C63" transform="translate(165,81)"/>
<path d="M0 0 C-0.33 2.31 -0.66 4.62 -1 7 C-3 6 -3 6 -4 5 C-4.6496875 5.99 -4.6496875 5.99 -5.3125 7 C-5.869375 7.66 -6.42625 8.32 -7 9 C-7.99 9 -8.98 9 -10 9 C-12 7 -12 7 -12.125 4.375 C-12.08375 3.59125 -12.0425 2.8075 -12 2 C-11.443125 1.87625 -10.88625 1.7525 -10.3125 1.625 C-7.91529254 1.03879694 -7.91529254 1.03879694 -5.4375 -0.125 C-3 -1 -3 -1 0 0 Z " fill="#996B74" transform="translate(189,72)"/>
<path d="M0 0 C1.423125 0.2784375 1.423125 0.2784375 2.875 0.5625 C5.89868793 1.28686632 5.89868793 1.28686632 8 0 C8.61875 0.94875 9.2375 1.8975 9.875 2.875 C11.81970969 5.94445109 11.81970969 5.94445109 14 8 C10.41608962 9.19463679 8.92081925 8.97360642 5.25 7.75 C1.1748583 5.55569293 1.40500464 4.21501391 0 0 Z " fill="#9A7279" transform="translate(238,168)"/>
<path d="M0 0 C1.98 0 3.96 0 6 0 C6 0.66 6 1.32 6 2 C6.66 2.33 7.32 2.66 8 3 C8 3.66 8 4.32 8 5 C7.01 5.495 7.01 5.495 6 6 C6.33 6.66 6.66 7.32 7 8 C5.35 8.33 3.7 8.66 2 9 C1.34 7.35 0.68 5.7 0 4 C-1.98 4 -3.96 4 -6 4 C-6 3.67 -6 3.34 -6 3 C-5.195625 2.87625 -4.39125 2.7525 -3.5625 2.625 C-2.716875 2.41875 -1.87125 2.2125 -1 2 C-0.67 1.34 -0.34 0.68 0 0 Z " fill="#DB8464" transform="translate(197,175)"/>
<path d="M0 0 C1.485 0.99 1.485 0.99 3 2 C3 2.66 3 3.32 3 4 C3.66 4.66 4.32 5.32 5 6 C5.6837045 7.32467746 6.34964186 8.65863633 7 10 C7.99 11.485 7.99 11.485 9 13 C6.69 13.66 4.38 14.32 2 15 C1.46467177 13.44240657 0.94734622 11.87861955 0.4375 10.3125 C0.14746094 9.44238281 -0.14257812 8.57226562 -0.44140625 7.67578125 C-1.05141961 4.75368926 -0.77703633 2.85599447 0 0 Z " fill="#A0737C" transform="translate(173,229)"/>
<path d="M0 0 C0.4125 0.37511719 0.825 0.75023437 1.25 1.13671875 C5.03048531 4.48683631 8.87181446 7.32308868 13.203125 9.921875 C14.83223276 10.89933966 16.41922942 11.94615294 18 13 C17.67 13.66 17.34 14.32 17 15 C15.02 15 13.04 15 11 15 C11 14.34 11 13.68 11 13 C10.34 13 9.68 13 9 13 C8.896875 12.360625 8.79375 11.72125 8.6875 11.0625 C8.460625 10.381875 8.23375 9.70125 8 9 C7.01 8.67 6.02 8.34 5 8 C0 2.53488372 0 2.53488372 0 0 Z " fill="#B18992" transform="translate(231,152)"/>
<path d="M0 0 C-2.38151214 2.63219763 -4.96303641 4.19228358 -8 6 C-9.68477344 7.31037934 -11.35648543 8.63823078 -13 10 C-13.33 8.35 -13.66 6.7 -14 5 C-6.42694805 -1.56331169 -6.42694805 -1.56331169 0 0 Z " fill="#9A7279" transform="translate(252,120)"/>
<path d="M0 0 C3.63 0 7.26 0 11 0 C11.33 1.65 11.66 3.3 12 5 C11.0409375 5.37125 11.0409375 5.37125 10.0625 5.75 C7.83648408 6.784099 7.83648408 6.784099 7.4375 8.875 C7.293125 9.57625 7.14875 10.2775 7 11 C5.4375 13.25 5.4375 13.25 4 15 C4.60825035 10.65535464 5.26167392 6.32448133 6 2 C3.03 1.505 3.03 1.505 0 1 C0 0.67 0 0.34 0 0 Z " fill="#A1757C" transform="translate(76,92)"/>
<path d="M0 0 C0.63164062 0.36351562 1.26328125 0.72703125 1.9140625 1.1015625 C10.25618117 5.78949662 18.90585273 9.96861758 28 13 C28 13.66 28 14.32 28 15 C21.4548558 13.48958211 15.51168644 10.99806271 9.5 8.0625 C8.79359375 7.72669922 8.0871875 7.39089844 7.359375 7.04492188 C4.4499903 5.58741035 2.33253218 4.51029539 0.53125 1.74609375 C0.3559375 1.16988281 0.180625 0.59367188 0 0 Z " fill="#DFD9D6" transform="translate(222,164)"/>
<path d="M0 0 C0.99 0.33 1.98 0.66 3 1 C3.6875 3.0625 3.6875 3.0625 4 5 C5.32 5.33 6.64 5.66 8 6 C8.08159574 10.16138263 7.98248524 13.9472484 7 18 C4.32605002 14.82803641 3.07468783 11.81147851 1.8125 7.875 C1.46832031 6.82054687 1.12414062 5.76609375 0.76953125 4.6796875 C0 2 0 2 0 0 Z " fill="#94676E" transform="translate(166,216)"/>
<path d="M0 0 C0.33 0.66 0.66 1.32 1 2 C1.66 2 2.32 2 3 2 C3.12375 2.61875 3.2475 3.2375 3.375 3.875 C3.87197356 6.19120832 3.87197356 6.19120832 6 8 C5.38245741 9.31602523 4.75571258 10.62773556 4.125 11.9375 C3.77695312 12.66839844 3.42890625 13.39929688 3.0703125 14.15234375 C2 16 2 16 0 17 C0 11.39 0 5.78 0 0 Z " fill="#9C6F76" transform="translate(39,94)"/>
<path d="M0 0 C0.66 0.33 1.32 0.66 2 1 C-0.04471126 6.60120371 -1.86232737 11.56677932 -6 16 C-5.47275413 10.85935281 -3.8074944 3.8074944 0 0 Z M-7 16 C-6 18 -6 18 -6.55859375 20.1640625 C-6.84863281 20.97617188 -7.13867188 21.78828125 -7.4375 22.625 C-7.72496094 23.44226563 -8.01242188 24.25953125 -8.30859375 25.1015625 C-8.53675781 25.72804688 -8.76492187 26.35453125 -9 27 C-10.53271273 22.41201223 -9.02911182 20.22055258 -7 16 Z " fill="#D7D4D0" transform="translate(163,59)"/>
<path d="M0 0 C1.32 0 2.64 0 4 0 C4 2.64 4 5.28 4 8 C1.36 7.67 -1.28 7.34 -4 7 C-3.67 5.35 -3.34 3.7 -3 2 C-2.01 2 -1.02 2 0 2 C0 1.34 0 0.68 0 0 Z " fill="#9F767F" transform="translate(257,160)"/>
<path d="M0 0 C3 1 3 1 5 4 C5.99 4.33 6.98 4.66 8 5 C8.226875 4.360625 8.45375 3.72125 8.6875 3.0625 C10 1 10 1 12.625 0.25 C13.40875 0.1675 14.1925 0.085 15 0 C9.9059081 7.68490153 9.9059081 7.68490153 6.125 9 C5.42375 9 4.7225 9 4 9 C4 8.01 4 7.02 4 6 C3.02149805 4.97895449 2.02019573 3.9793879 1 3 C0.67 2.01 0.34 1.02 0 0 Z " fill="#A17A82" transform="translate(246,169)"/>
<path d="M0 0 C0 2.64 0 5.28 0 8 C-0.66 8 -1.32 8 -2 8 C-2.66 7.01 -3.32 6.02 -4 5 C-5.32 5.99 -6.64 6.98 -8 8 C-8 5.69 -8 3.38 -8 1 C-5.29120665 -0.35439668 -2.99066732 -0.06501451 0 0 Z " fill="#414047" transform="translate(244,144)"/>
<path d="M0 0 C0.66 0 1.32 0 2 0 C2 0.66 2 1.32 2 2 C3.32 1.34 4.64 0.68 6 0 C5 3 5 3 3.1796875 4.17578125 C2.41914063 4.55089844 1.65859375 4.92601562 0.875 5.3125 C-3.69018637 7.70830981 -7.20237112 10.52557358 -11 14 C-10.22976993 10.22031427 -8.97047577 8.52040369 -6 6 C-5.34 6 -4.68 6 -4 6 C-4 5.34 -4 4.68 -4 4 C-3.34 4 -2.68 4 -2 4 C-1.34 2.68 -0.68 1.36 0 0 Z " fill="#B28B93" transform="translate(243,129)"/>
<path d="M0 0 C2.442877 3.6643155 2.07844476 5.68553809 2 10 C2.33 10.66 2.66 11.32 3 12 C2.34 12 1.68 12 1 12 C1.14109986 14.10448938 1.28804175 16.2085877 1.4375 18.3125 C1.51871094 19.48425781 1.59992187 20.65601563 1.68359375 21.86328125 C1.8867371 25.02590958 1.8867371 25.02590958 3 28 C2.01 28.99 1.02 29.98 0 31 C0 20.77 0 10.54 0 0 Z " fill="#95646C" transform="translate(38,147)"/>
<path d="M0 0 C0.66 0 1.32 0 2 0 C2.33 0.99 2.66 1.98 3 3 C3.99 2.34 4.98 1.68 6 1 C5.67 2.98 5.34 4.96 5 7 C4.34 6.67 3.68 6.34 3 6 C2.34 6.66 1.68 7.32 1 8 C0.34 8 -0.32 8 -1 8 C-2.33333333 6.66666667 -3.66666667 5.33333333 -5 4 C-4.01 3.34 -3.02 2.68 -2 2 C-1.34 1.34 -0.68 0.68 0 0 Z " fill="#A87982" transform="translate(49,144)"/>
<path d="M0 0 C0.99 0.33 1.98 0.66 3 1 C2.34 4.96 1.68 8.92 1 13 C0.01 13 -0.98 13 -2 13 C-2.16682272 8.07872966 -2.24828052 4.49656104 0 0 Z " fill="#672230" transform="translate(251,130)"/>
<path d="M0 0 C3.7910119 1.44950455 7.3874638 3.15172566 11 5 C10.360625 5.268125 9.72125 5.53625 9.0625 5.8125 C6.66868314 6.88667752 6.66868314 6.88667752 6 10 C5.67 9.01 5.34 8.02 5 7 C4.34 6.71125 3.68 6.4225 3 6.125 C1 5 1 5 0.25 2.375 C0.1675 1.59125 0.085 0.8075 0 0 Z " fill="#956C73" transform="translate(224,168)"/>
<path d="M0 0 C1.65 0 3.3 0 5 0 C5.99 2.97 6.98 5.94 8 9 C6.68 9.33 5.36 9.66 4 10 C3.87882813 9.36191406 3.75765625 8.72382813 3.6328125 8.06640625 C3.46523437 7.24011719 3.29765625 6.41382813 3.125 5.5625 C2.96257812 4.73878906 2.80015625 3.91507813 2.6328125 3.06640625 C2.42398438 2.38449219 2.21515625 1.70257813 2 1 C1.34 0.67 0.68 0.34 0 0 Z " fill="#A47B84" transform="translate(157,206)"/>
<path d="M0 0 C1.9453125 -0.29296875 1.9453125 -0.29296875 4.125 -0.1875 C5.40375 -0.125625 6.6825 -0.06375 8 0 C8.33 1.65 8.66 3.3 9 5 C7.35 4.67 5.7 4.34 4 4 C3.67 4.99 3.34 5.98 3 7 C2.34 6.01 1.68 5.02 1 4 C0.01 3.67 -0.98 3.34 -2 3 C-1.34 2.01 -0.68 1.02 0 0 Z " fill="#9F717B" transform="translate(195,205)"/>
<path d="M0 0 C4.84659077 0.59104765 8.60748167 1.97944157 13 4 C13 4.33 13 4.66 13 5 C12.0925 4.9175 11.185 4.835 10.25 4.75 C6.89958592 4.68975201 6.89958592 4.68975201 4.625 7 C4.08875 7.66 3.5525 8.32 3 9 C3 7.35 3 5.7 3 4 C2.01 3.67 1.02 3.34 0 3 C0 2.01 0 1.02 0 0 Z " fill="#8D626A" transform="translate(208,202)"/>
<path d="M0 0 C1.98 0 3.96 0 6 0 C7.125 7.625 7.125 7.625 6 11 C4.35 10.67 2.7 10.34 1 10 C1.33 9.01 1.66 8.02 2 7 C2.33 7.33 2.66 7.66 3 8 C3.66 7.67 4.32 7.34 5 7 C4.34 6.34 3.68 5.68 3 5 C2.375 2.875 2.375 2.875 2 1 C1.67 1.99 1.34 2.98 1 4 C0.67 2.68 0.34 1.36 0 0 Z " fill="#AD8088" transform="translate(180,143)"/>
<path d="M0 0 C-11.22 -0.33 -22.44 -0.66 -34 -1 C-34 -1.33 -34 -1.66 -34 -2 C-29.6407335 -2.21718359 -25.28116613 -2.41401147 -20.92016602 -2.59204102 C-19.43684354 -2.65546136 -17.95374761 -2.72443412 -16.47094727 -2.79907227 C-14.33905728 -2.90541696 -12.20714915 -2.99174743 -10.07421875 -3.07421875 C-8.79119873 -3.13182373 -7.50817871 -3.18942871 -6.1862793 -3.2487793 C-3 -3 -3 -3 0 0 Z " fill="#67444A" transform="translate(228,144)"/>
<path d="M0 0 C0.66 0.33 1.32 0.66 2 1 C1.67 2.65 1.34 4.3 1 6 C0.34 6 -0.32 6 -1 6 C-1 6.66 -1 7.32 -1 8 C-3.31 7.67 -5.62 7.34 -8 7 C-3.76744186 1.25581395 -3.76744186 1.25581395 0 0 Z " fill="#8D656C" transform="translate(244,133)"/>
<path d="M0 0 C0.7425 0.474375 1.485 0.94875 2.25 1.4375 C4.61050015 2.77869327 6.36648477 3.512312 9 4 C8.34 5.32 7.68 6.64 7 8 C4.125 7.75 4.125 7.75 1 7 C-0.4375 5.125 -0.4375 5.125 -1 3 C-0.67 2.01 -0.34 1.02 0 0 Z " fill="#92686F" transform="translate(219,78)"/>
<path d="M0 0 C1.32 0.33 2.64 0.66 4 1 C4 1.99 4 2.98 4 4 C4.99 3.67 5.98 3.34 7 3 C7.99 3.66 8.98 4.32 10 5 C5.38 5 0.76 5 -4 5 C-4 3.68 -4 2.36 -4 1 C-3.34 1 -2.68 1 -2 1 C-1.67 1.66 -1.34 2.32 -1 3 C-0.67 2.01 -0.34 1.02 0 0 Z " fill="#070506" transform="translate(238,148)"/>
<path d="M0 0 C1.95901454 0.11382653 3.9172338 0.24141125 5.875 0.375 C6.96554688 0.44460937 8.05609375 0.51421875 9.1796875 0.5859375 C12 1 12 1 14 3 C9.05 3.33 4.1 3.66 -1 4 C-0.67 2.68 -0.34 1.36 0 0 Z " fill="#54373D" transform="translate(235,140)"/>
<path d="M0 0 C3.3 0 6.6 0 10 0 C9.67 0.66 9.34 1.32 9 2 C8.01 2 7.02 2 6 2 C5.67 2.66 5.34 3.32 5 4 C4.01 4.33 3.02 4.66 2 5 C1.67 5.99 1.34 6.98 1 8 C0.26919734 6.02253397 -0.39421747 4.01927511 -1 2 C-0.67 1.34 -0.34 0.68 0 0 Z " fill="#93666F" transform="translate(163,204)"/>
<path d="M0 0 C0.66 0.99 1.32 1.98 2 3 C2.99 3 3.98 3 5 3 C4.01 4.485 4.01 4.485 3 6 C1.0546875 6.29296875 1.0546875 6.29296875 -1.125 6.1875 C-2.40375 6.125625 -3.6825 6.06375 -5 6 C-5 6.66 -5 7.32 -5 8 C-6.65 8 -8.3 8 -10 8 C-7.75 5.5 -7.75 5.5 -5 3 C-3.68 3 -2.36 3 -1 3 C-0.67 2.01 -0.34 1.02 0 0 Z " fill="#A97982" transform="translate(202,170)"/>
<path d="M0 0 C0.66 0.33 1.32 0.66 2 1 C2 1.66 2 2.32 2 3 C2.99 3.33 3.98 3.66 5 4 C5 4.99 5 5.98 5 7 C2.69 7 0.38 7 -2 7 C-2.125 4.625 -2.125 4.625 -2 2 C-1.34 1.34 -0.68 0.68 0 0 Z " fill="#956B72" transform="translate(204,84)"/>
<path d="M0 0 C2.475 0.99 2.475 0.99 5 2 C4.67 3.65 4.34 5.3 4 7 C3.4225 6.814375 2.845 6.62875 2.25 6.4375 C-0.20692525 5.95976454 -1.64397534 6.24270636 -4 7 C-3.34 6.01 -2.68 5.02 -2 4 C-1.31822584 2.67432801 -0.64808564 1.34246312 0 0 Z " fill="#9F737A" transform="translate(196,62)"/>
<path d="M0 0 C1.0326802 2.78823655 1.04509293 3.8677274 0.0625 6.75 C-0.288125 7.4925 -0.63875 8.235 -1 9 C-1.33 9 -1.66 9 -2 9 C-1.125 2.25 -1.125 2.25 0 0 Z M-3 9 C-2.67 9 -2.34 9 -2 9 C-2.33 12.3 -2.66 15.6 -3 19 C-3.66 19 -4.32 19 -5 19 C-5.17942163 15.05272412 -5.09350689 12.4019487 -3 9 Z " fill="#CDC8C4" transform="translate(158,73)"/>
<path d="M0 0 C2.31 0 4.62 0 7 0 C6.67 0.66 6.34 1.32 6 2 C4.66666667 2.33333333 3.33333333 2.66666667 2 3 C0.31008021 3.9601817 -1.36209288 4.95355934 -3 6 C-3.99 4.68 -4.98 3.36 -6 2 C-4.02 2 -2.04 2 0 2 C0 1.34 0 0.68 0 0 Z " fill="#876067" transform="translate(242,154)"/>
<path d="M0 0 C2.3431213 0.25561323 4.67843403 0.59270772 7 1 C7.33 1.66 7.66 2.32 8 3 C8.66 2.67 9.32 2.34 10 2 C10 3.65 10 5.3 10 7 C8.6078125 6.505 8.6078125 6.505 7.1875 6 C4.07970709 4.85032996 4.07970709 4.85032996 1 5 C0.67 3.35 0.34 1.7 0 0 Z " fill="#9E7079" transform="translate(178,215)"/>
<path d="M0 0 C-0.61277612 2.96175123 -1.25372522 4.38058783 -3 7 C-3 6.34 -3 5.68 -3 5 C-5.31 5 -7.62 5 -10 5 C-9.67 4.34 -9.34 3.68 -9 3 C-8.01 3 -7.02 3 -6 3 C-6 2.34 -6 1.68 -6 1 C-3 0 -3 0 0 0 Z " fill="#A47781" transform="translate(172,212)"/>
<path d="M0 0 C2.9375 0.75 2.9375 0.75 6 2 C6.875 4.125 6.875 4.125 7 6 C6.05125 5.79375 5.1025 5.5875 4.125 5.375 C2.578125 5.189375 2.578125 5.189375 1 5 C0.34 5.66 -0.32 6.32 -1 7 C-1.04254356 5.00045254 -1.04080783 2.99958364 -1 1 C-0.67 0.67 -0.34 0.34 0 0 Z " fill="#A37882" transform="translate(253,152)"/>
<path d="M0 0 C0.99 0 1.98 0 3 0 C3 3.3 3 6.6 3 10 C2.34 10 1.68 10 1 10 C-0.60725635 6.78548731 -0.05748185 3.56387464 0 0 Z " fill="#7D3142" transform="translate(249,143)"/>
<path d="M0 0 C0.66 0 1.32 0 2 0 C1.67 3.3 1.34 6.6 1 10 C-0.32 10 -1.64 10 -3 10 C-2.01 6.7 -1.02 3.4 0 0 Z " fill="#A17680" transform="translate(161,81)"/>
<path d="M0 0 C0.99 0.33 1.98 0.66 3 1 C2.01 3.31 1.02 5.62 0 8 C-1.32 7.34 -2.64 6.68 -4 6 C-3.01 5.67 -2.02 5.34 -1 5 C-1.33 3.68 -1.66 2.36 -2 1 C-1.34 0.67 -0.68 0.34 0 0 Z " fill="#A57F85" transform="translate(250,179)"/>
<path d="M0 0 C2.31 0 4.62 0 7 0 C7.66 1.98 8.32 3.96 9 6 C8.34 6 7.68 6 7 6 C6.34 5.34 5.68 4.68 5 4 C4.34 4 3.68 4 3 4 C1 2 1 2 0 0 Z " fill="#AC8089" transform="translate(212,144)"/>
<path d="M0 0 C3 2 3 2 3.6875 4.125 C3.8421875 5.053125 3.8421875 5.053125 4 6 C2.68 5.67 1.36 5.34 0 5 C0 4.34 0 3.68 0 3 C-0.99 3.33 -1.98 3.66 -3 4 C-3.66 3.34 -4.32 2.68 -5 2 C-2.6875 0.875 -2.6875 0.875 0 0 Z " fill="#90666D" transform="translate(225,210)"/>
<path d="M0 0 C0.99 0 1.98 0 3 0 C3 2.31 3 4.62 3 7 C1.0625 6.6875 1.0625 6.6875 -1 6 C-1.33 5.01 -1.66 4.02 -2 3 C-1.34 3 -0.68 3 0 3 C0 2.01 0 1.02 0 0 Z " fill="#A1747C" transform="translate(216,197)"/>
<path d="M0 0 C0.99 0 1.98 0 3 0 C3.33 0.99 3.66 1.98 4 3 C4.66 2.01 5.32 1.02 6 0 C6 1.98 6 3.96 6 6 C4.35 5.67 2.7 5.34 1 5 C0.67 3.35 0.34 1.7 0 0 Z " fill="#A57780" transform="translate(130,190)"/>
<path d="M0 0 C0.33 0 0.66 0 1 0 C1 2.64 1 5.28 1 8 C-1.97 7.505 -1.97 7.505 -5 7 C-5 6.34 -5 5.68 -5 5 C-3.35 4.34 -1.7 3.68 0 3 C-0.66 2.67 -1.32 2.34 -2 2 C-1.34 2 -0.68 2 0 2 C0 1.34 0 0.68 0 0 Z " fill="#9C757A" transform="translate(248,134)"/>
<path d="M0 0 C0.66 1.32 1.32 2.64 2 4 C0.02 4.66 -1.96 5.32 -4 6 C-4.66 4.68 -5.32 3.36 -6 2 C-2.25 0.875 -2.25 0.875 0 2 C0 1.34 0 0.68 0 0 Z " fill="#A47881" transform="translate(210,81)"/>
<path d="M0 0 C0.33 0.99 0.66 1.98 1 3 C2.65 3 4.3 3 6 3 C6 3.33 6 3.66 6 4 C2.04 4 -1.92 4 -6 4 C-6 3.34 -6 2.68 -6 2 C-4.02 1.34 -2.04 0.68 0 0 Z " fill="#956A70" transform="translate(156,199)"/>
<path d="M0 0 C0.33 0.66 0.66 1.32 1 2 C1.66 2.33 2.32 2.66 3 3 C3 3.66 3 4.32 3 5 C2.34 5.66 1.68 6.32 1 7 C-1.125 6.625 -1.125 6.625 -3 6 C-3 5.01 -3 4.02 -3 3 C-2.01 3 -1.02 3 0 3 C0 2.01 0 1.02 0 0 Z " fill="#F79352" transform="translate(202,175)"/>
<path d="M0 0 C2 1 2 1 3.125 4.0625 C3.41375 5.031875 3.7025 6.00125 4 7 C3.01 7.66 2.02 8.32 1 9 C-1.09230769 4.56923077 -1.09230769 4.56923077 -0.625 1.6875 C-0.41875 1.130625 -0.2125 0.57375 0 0 Z " fill="#804954" transform="translate(224,146)"/>
<path d="M0 0 C1.32 0.33 2.64 0.66 4 1 C3.67 1.99 3.34 2.98 3 4 C2.65179959 5.66362417 2.31595508 7.32995171 2 9 C1.34 9 0.68 9 0 9 C0 6.03 0 3.06 0 0 Z " fill="#9E7078" transform="translate(39,115)"/>
<path d="M0 0 C0.33 1.65 0.66 3.3 1 5 C0.01 5.33 -0.98 5.66 -2 6 C-2.66 5.67 -3.32 5.34 -4 5 C-4.625 2.9375 -4.625 2.9375 -5 1 C-2 0 -2 0 0 0 Z " fill="#A57D85" transform="translate(247,101)"/>
<path d="M0 0 C0.66 0.33 1.32 0.66 2 1 C1.34 2.98 0.68 4.96 0 7 C-1.65 7.33 -3.3 7.66 -5 8 C-3.8141763 4.62496331 -2.72426311 2.35277269 0 0 Z " fill="#A57D85" transform="translate(247,188)"/>
<path d="M0 0 C0.33 0 0.66 0 1 0 C1.125 3.375 1.125 3.375 1 7 C0.34 7.66 -0.32 8.32 -1 9 C-2.1875 6.75 -2.1875 6.75 -3 4 C-1.6875 1.6875 -1.6875 1.6875 0 0 Z " fill="#7E5D62" transform="translate(232,143)"/>
<path d="M0 0 C2.97 0 5.94 0 9 0 C6 3 6 3 2.8125 3.1875 C1.4203125 3.0946875 1.4203125 3.0946875 0 3 C0 2.01 0 1.02 0 0 Z " fill="#976E73" transform="translate(135,93)"/>
<path d="M0 0 C2.475 0.99 2.475 0.99 5 2 C3.6875 4 3.6875 4 2 6 C1.01 6 0.02 6 -1 6 C-1.33 5.01 -1.66 4.02 -2 3 C-1.34 2.01 -0.68 1.02 0 0 Z " fill="#9F717A" transform="translate(180,75)"/>
<path d="M0 0 C2.1875 1.4375 2.1875 1.4375 4 3 C1.29120665 4.35439668 -1.00933268 4.06501451 -4 4 C-3.67 3.01 -3.34 2.02 -3 1 C-2.01 0.67 -1.02 0.34 0 0 Z " fill="#9C7379" transform="translate(224,214)"/>
<path d="M0 0 C0.66 0 1.32 0 2 0 C2.33 1.65 2.66 3.3 3 5 C0.525 6.485 0.525 6.485 -2 8 C-1.125 2.25 -1.125 2.25 0 0 Z " fill="#A3767E" transform="translate(175,57)"/>
<path d="M0 0 C3.63 0.66 7.26 1.32 11 2 C7 4 7 4 4.9375 3.8125 C3 3 3 3 0 0 Z " fill="#B38B94" transform="translate(250,166)"/>
<path d="M0 0 C0.66 1.32 1.32 2.64 2 4 C2.66 4 3.32 4 4 4 C4.66 5.32 5.32 6.64 6 8 C4.68 8.33 3.36 8.66 2 9 C1.34 6.03 0.68 3.06 0 0 Z " fill="#90666F" transform="translate(173,235)"/>
<path d="M0 0 C3.68802044 1.22934015 4.72356973 2.93859378 7 6 C6.01 6.33 5.02 6.66 4 7 C3.34 5.68 2.68 4.36 2 3 C1.34 3 0.68 3 0 3 C0 2.01 0 1.02 0 0 Z " fill="#A47B84" transform="translate(175,236)"/>
<path d="M0 0 C0.66 0 1.32 0 2 0 C2.33 1.65 2.66 3.3 3 5 C1.68 5.33 0.36 5.66 -1 6 C-1.33 4.68 -1.66 3.36 -2 2 C-1.34 2 -0.68 2 0 2 C0 1.34 0 0.68 0 0 Z " fill="#AF838D" transform="translate(162,210)"/>
<path d="M0 0 C0.99 0 1.98 0 3 0 C3 0.66 3 1.32 3 2 C3.99 1.67 4.98 1.34 6 1 C5.67 2.98 5.34 4.96 5 7 C1.98672434 5.49336217 1.38943382 2.96833589 0 0 Z " fill="#9F7A80" transform="translate(225,209)"/>
<path d="M0 0 C1.32 0.99 2.64 1.98 4 3 C3.67 3.66 3.34 4.32 3 5 C0.4375 5.625 0.4375 5.625 -2 6 C-1.49396008 3.83125748 -1.00016187 2.00032373 0 0 Z " fill="#AC7E86" transform="translate(43,127)"/>
<path d="M0 0 C1.0013988 3.00419641 1.51421457 5.87709365 2 9 C0.68 9 -0.64 9 -2 9 C-1.125 2.25 -1.125 2.25 0 0 Z " fill="#B7B1AE" transform="translate(157,83)"/>
<path d="M0 0 C0.66 0.33 1.32 0.66 2 1 C0.68 4.3 -0.64 7.6 -2 11 C-3.26426661 7.20720018 -2.40145184 5.65934648 -1 2 C-0.67 1.34 -0.34 0.68 0 0 Z " fill="#DED6D5" transform="translate(171,50)"/>
<path d="M0 0 C2.31 0.33 4.62 0.66 7 1 C6.01 2.485 6.01 2.485 5 4 C3.35 3.67 1.7 3.34 0 3 C0 2.01 0 1.02 0 0 Z " fill="#A47981" transform="translate(191,213)"/>
<path d="M0 0 C5.75 0.75 5.75 0.75 8 3 C5.36 3 2.72 3 0 3 C0 2.01 0 1.02 0 0 Z " fill="#865D64" transform="translate(208,202)"/>
<path d="M0 0 C0 2.62113708 -0.31292445 4.50935112 -1 7 C-2.32 6.67 -3.64 6.34 -5 6 C-5 5.34 -5 4.68 -5 4 C-3.37373596 2.61767557 -1.7074998 1.28062485 0 0 Z " fill="#8F676E" transform="translate(245,155)"/>
<path d="M0 0 C2 2 2 2 2.125 4.625 C2.08375 5.40875 2.0425 6.1925 2 7 C0.68 6.67 -0.64 6.34 -2 6 C-1.34 4.02 -0.68 2.04 0 0 Z " fill="#AA7E87" transform="translate(211,147)"/>
<path d="M0 0 C1.65 0 3.3 0 5 0 C4.67 0.99 4.34 1.98 4 3 C2.35 3.33 0.7 3.66 -1 4 C-0.67 2.68 -0.34 1.36 0 0 Z " fill="#4D3036" transform="translate(235,140)"/>
<path d="M0 0 C0.66 0.33 1.32 0.66 2 1 C1.814375 1.61875 1.62875 2.2375 1.4375 2.875 C0.76313824 5.04160178 0.76313824 5.04160178 2 7 C0.68 7.33 -0.64 7.66 -2 8 C-1.49396008 5.83125748 -1.00016187 4.00032373 0 2 C-0.66 1.67 -1.32 1.34 -2 1 C-1.34 0.67 -0.68 0.34 0 0 Z " fill="#936870" transform="translate(233,116)"/>
<path d="M0 0 C2.31 0.66 4.62 1.32 7 2 C7 2.66 7 3.32 7 4 C4.69 3.67 2.38 3.34 0 3 C0 2.01 0 1.02 0 0 Z " fill="#A37881" transform="translate(213,82)"/>
</svg>
