<?xml version="1.0" encoding="UTF-8"?>
<svg version="1.1" xmlns="http://www.w3.org/2000/svg" width="295" height="298">
<path d="M0 0 C97.35 0 194.7 0 295 0 C295 98.34 295 196.68 295 298 C197.65 298 100.3 298 0 298 C0 199.66 0 101.32 0 0 Z " fill="#EFEEEC" transform="translate(0,0)"/>
<path d="M0 0 C1.85696424 -0.00067564 3.71392839 -0.00164782 5.57089233 -0.00289917 C9.43854627 -0.00436318 13.30617692 -0.00226319 17.17382812 0.00244141 C22.10019084 0.00814593 27.02649914 0.0048468 31.95285988 -0.00113106 C35.77927044 -0.00476505 39.60566835 -0.00358524 43.43207932 -0.00100327 C45.24753196 -0.00034225 47.0629858 -0.00113312 48.87843704 -0.00348282 C51.42501063 -0.00605733 53.97149907 -0.00210263 56.51806641 0.00341797 C57.24774124 0.00139374 57.97741608 -0.00063049 58.72920227 -0.00271606 C65.05890373 0.02237104 71.08443651 0.60143742 77.4609375 1.1328125 C77.4609375 39.4128125 77.4609375 77.6928125 77.4609375 117.1328125 C80.4309375 117.7928125 83.4009375 118.4528125 86.4609375 119.1328125 C83.4609375 120.1328125 83.4609375 120.1328125 80.4609375 119.1328125 C80.4609375 119.7928125 80.4609375 120.4528125 80.4609375 121.1328125 C81.16766602 121.28919189 81.87439453 121.44557129 82.60253906 121.60668945 C90.76890841 123.51798153 98.42238968 126.23220615 106.2109375 129.3203125 C107.396875 129.78373047 108.5828125 130.24714844 109.8046875 130.72460938 C112.69271972 131.85420262 115.57798373 132.99033471 118.4609375 134.1328125 C117.85757901 137.87313266 116.78630316 140.8570187 115.08984375 144.23828125 C114.60290039 145.21297363 114.11595703 146.18766602 113.61425781 147.19189453 C112.82680176 148.74046143 112.82680176 148.74046143 112.0234375 150.3203125 C111.48428711 151.38878418 110.94513672 152.45725586 110.38964844 153.55810547 C105.99785846 162.20339186 101.39562372 170.70921417 96.58837891 179.12939453 C95.48874515 181.08339942 94.42892632 183.05412843 93.37890625 185.03515625 C86.43020071 198.00766011 79.14530871 204.68884862 65.4609375 210.1328125 C64.00107422 210.75349609 64.00107422 210.75349609 62.51171875 211.38671875 C55.95745318 214.1328125 55.95745318 214.1328125 52.4609375 214.1328125 C52.265 213.4521875 52.0690625 212.7715625 51.8671875 212.0703125 C49.86350381 205.57561364 47.35862599 199.5180194 44.3359375 193.4453125 C43.98724609 192.73826172 43.63855469 192.03121094 43.27929688 191.30273438 C41.57324137 187.57257507 41.57324137 187.57257507 38.4609375 185.1328125 C38.98042969 185.98101562 39.49992187 186.82921875 40.03515625 187.703125 C51.4609375 206.768938 51.4609375 206.768938 51.4609375 216.1328125 C49.74609375 217.921875 49.74609375 217.921875 47.5234375 219.7578125 C46.42708984 220.67433594 46.42708984 220.67433594 45.30859375 221.609375 C44.69886719 222.11210937 44.08914062 222.61484375 43.4609375 223.1328125 C43.1309375 223.4628125 42.8009375 223.7928125 42.4609375 224.1328125 C36.62317019 224.49972169 30.78357291 224.57552517 24.93554688 224.64770508 C22.9664676 224.6792194 20.99757446 224.72684162 19.02929688 224.79125977 C0.59667664 225.38631148 0.59667664 225.38631148 -5.4453125 220.53515625 C-7.96840335 217.60344143 -8.50661006 216.56089832 -8.8046875 212.62890625 C-8.38703125 211.47519531 -7.969375 210.32148438 -7.5390625 209.1328125 C-7.31025391 208.50004395 -7.08144531 207.86727539 -6.84570312 207.21533203 C-6.06318839 205.17103744 -5.1948361 203.18787115 -4.2890625 201.1953125 C-3.97767334 200.49599609 -3.66628418 199.79667969 -3.34545898 199.07617188 C-1.11041424 194.15046607 1.39165971 189.59721656 4.4609375 185.1328125 C1.21216704 188.16530504 -0.57806391 191.69607097 -2.5390625 195.6328125 C-2.88195312 196.29023438 -3.22484375 196.94765625 -3.578125 197.625 C-6.40459004 203.25635401 -8.04471021 209.02521357 -9.5390625 215.1328125 C-34.28728056 206.47186447 -44.02138093 196.73178989 -56.4140625 174.0078125 C-57.12697758 172.70674809 -57.84011354 171.40580469 -58.5534668 170.10498047 C-60.55507092 166.45106046 -62.54801357 162.79249468 -64.5390625 159.1328125 C-65.02358887 158.24400391 -65.50811523 157.35519531 -66.00732422 156.43945312 C-75.5390625 138.92166385 -75.5390625 138.92166385 -75.5390625 134.1328125 C-70.61178486 132.27515472 -65.68216143 130.42391802 -60.75024414 128.57861328 C-59.0724984 127.9498441 -57.39540947 127.31931948 -55.71899414 126.68701172 C-53.31045969 125.77891083 -50.89964055 124.87713103 -48.48828125 123.9765625 C-47.36313362 123.5500238 -47.36313362 123.5500238 -46.21525574 123.11486816 C-43.18933912 121.99059272 -40.79477529 121.1328125 -37.5390625 121.1328125 C-37.2090625 120.4728125 -36.8790625 119.8128125 -36.5390625 119.1328125 C-36.2090625 119.4628125 -35.8790625 119.7928125 -35.5390625 120.1328125 C-35.53483056 119.52559388 -35.53059862 118.91837526 -35.52623844 118.29275608 C-35.42306739 103.53804521 -35.31445023 88.78338145 -35.19972324 74.02875614 C-35.14437504 66.89361799 -35.09089049 59.75847483 -35.04174805 52.62329102 C-34.994362 45.7438771 -34.94184232 38.86451794 -34.88612175 31.98516655 C-34.86566291 29.35401119 -34.84695582 26.72284164 -34.82998848 24.09166145 C-34.80602234 20.42051152 -34.77595748 16.74946038 -34.74438477 13.07836914 C-34.7386293 11.97857727 -34.73287384 10.8787854 -34.72694397 9.7456665 C-34.71226074 8.25429924 -34.71226074 8.25429924 -34.69728088 6.73280334 C-34.69082833 5.86355256 -34.68437578 4.99430178 -34.6777277 4.09871006 C-34.5390625 2.1328125 -34.5390625 2.1328125 -33.5390625 1.1328125 C-22.44053851 -0.26609206 -11.16362271 -0.01448632 0 0 Z " fill="#9E7079" transform="translate(125.5390625,37.8671875)"/>
<path d="M0 0 C0.69867188 0.28875 1.39734375 0.5775 2.1171875 0.875 C3.02726562 1.24625 3.93734375 1.6175 4.875 2 C5.77992188 2.37125 6.68484375 2.7425 7.6171875 3.125 C11.80500933 4.6628231 14.81017994 3.24142817 19 2 C19.66 2.99 20.32 3.98 21 5 C24.3 3.35 27.6 1.7 31 0 C34.88953976 3.38485675 36.85572491 7.12834925 39.0625 11.6875 C39.41248047 12.39994873 39.76246094 13.11239746 40.12304688 13.84643555 C46 26.00569661 46 26.00569661 46 32 C44.28515625 33.7890625 44.28515625 33.7890625 42.0625 35.625 C41.33160156 36.23601562 40.60070312 36.84703125 39.84765625 37.4765625 C39.23792969 37.97929687 38.62820312 38.48203125 38 39 C37.67 39.33 37.34 39.66 37 40 C31.16223269 40.36690919 25.32263541 40.44271267 19.47460938 40.51489258 C17.5055301 40.5464069 15.53663696 40.59402912 13.56835938 40.65844727 C-4.86426086 41.25349898 -4.86426086 41.25349898 -10.90625 36.40234375 C-13.4321935 33.46801612 -13.9679937 32.42897995 -14.26171875 28.4921875 C-13.84535156 27.33976562 -13.42898437 26.18734375 -13 25 C-12.77650879 24.37254883 -12.55301758 23.74509766 -12.32275391 23.09863281 C-11.55785194 21.06864249 -10.70497908 19.10203778 -9.8125 17.125 C-9.50368896 16.42826172 -9.19487793 15.73152344 -8.87670898 15.01367188 C-6.4320148 9.63797001 -3.57498282 4.71426306 0 0 Z " fill="#A88088" transform="translate(131,222)"/>
<path d="M0 0 C0.99 0.33 1.98 0.66 3 1 C4.32 1 5.64 1 7 1 C7.99 1.66 8.98 2.32 10 3 C8 5 8 5 5 6 C5.66 6.33 6.32 6.66 7 7 C7.71800781 6.52175781 8.43601563 6.04351562 9.17578125 5.55078125 C12.81359478 3.55325432 15.08727141 3.82025086 19.1875 4.1875 C20.41855469 4.28417969 21.64960938 4.38085938 22.91796875 4.48046875 C26 5 26 5 28 7 C28.01171875 9.75 28.01171875 9.75 27.6875 13 C27.58824219 14.0725 27.48898438 15.145 27.38671875 16.25 C27 19 27 19 26 21 C29.63 21.33 33.26 21.66 37 22 C37.495 23.98 37.495 23.98 38 26 C36.62521484 25.75636719 36.62521484 25.75636719 35.22265625 25.5078125 C29.97632206 24.7607873 24.72636319 24.8547749 19.4375 24.875 C18.42236328 24.87113281 17.40722656 24.86726563 16.36132812 24.86328125 C11.46478506 24.86967778 6.8112233 24.96373652 2 26 C1.34 28.31 0.68 30.62 0 33 C-3.95941302 31.32486372 -7.03109732 29.10699118 -10 26 C-9.79109078 20.36641483 -7.86964347 15.78718493 -5.5625 10.75 C-5.24990234 10.04359375 -4.93730469 9.3371875 -4.61523438 8.609375 C-3.25057221 5.56268739 -1.85545793 2.78318689 0 0 Z " fill="#A27981" transform="translate(127,228)"/>
<path d="M0 0 C0.33 0 0.66 0 1 0 C1 1.65 1 3.3 1 5 C-0.98 5.99 -2.96 6.98 -5 8 C-3.68 7.67 -2.36 7.34 -1 7 C-0.58182461 13.5514144 -2.06311837 19.12623674 -5 25 C-4.814375 25.598125 -4.62875 26.19625 -4.4375 26.8125 C-3.85282349 29.73588253 -4.82766306 31.31052114 -6 34 C-6.2236068 36.9254644 -6.2236068 36.9254644 -5 39 C-5.9375 41.625 -5.9375 41.625 -7 44 C-7.99 44 -8.98 44 -10 44 C-11.625 41.3125 -11.625 41.3125 -13 38 C-12.1875 35.125 -12.1875 35.125 -11 33 C-11.66 32.34 -12.32 31.68 -13 31 C-12.34 30.67 -11.68 30.34 -11 30 C-11 29.01 -11 28.02 -11 27 C-10.34 27 -9.68 27 -9 27 C-9 26.01 -9 25.02 -9 24 C-9.66 23.67 -10.32 23.34 -11 23 C-11 22.34 -11 21.68 -11 21 C-12.95633975 18.58878141 -12.95633975 18.58878141 -16.625 18.875 C-18.295625 18.936875 -18.295625 18.936875 -20 19 C-20 19.99 -20 20.98 -20 22 C-19.01 22.33 -18.02 22.66 -17 23 C-18.65 23.66 -20.3 24.32 -22 25 C-22 25.99 -22 26.98 -22 28 C-20.68 27.67 -19.36 27.34 -18 27 C-18.37125 27.928125 -18.7425 28.85625 -19.125 29.8125 C-19.41375 30.864375 -19.7025 31.91625 -20 33 C-19.34 33.99 -18.68 34.98 -18 36 C-18.99 36 -19.98 36 -21 36 C-22.01540112 40.10223585 -22.01540112 40.10223585 -21 44 C-22.32 44 -23.64 44 -25 44 C-26.60871674 40.98156906 -28.21113049 37.95983439 -29.8125 34.9375 C-30.49022461 33.66616211 -30.49022461 33.66616211 -31.18164062 32.36914062 C-38 19.47895757 -38 19.47895757 -38 15 C-33.07272236 13.14234222 -28.14309893 11.29110552 -23.21118164 9.44580078 C-21.5334359 8.8170316 -19.85634697 8.18650698 -18.17993164 7.55419922 C-15.77139719 6.64609833 -13.36057805 5.74431853 -10.94921875 4.84375 C-10.19912033 4.55939087 -9.44902191 4.27503174 -8.67619324 3.98205566 C-5.65027662 2.85778022 -3.25571279 2 0 2 C0 1.34 0 0.68 0 0 Z M-13 44 C-12.01 44.33 -11.02 44.66 -10 45 C-10.99 45 -11.98 45 -13 45 C-13 44.67 -13 44.34 -13 44 Z " fill="#9B6E77" transform="translate(88,157)"/>
<path d="M0 0 C0.33 0 0.66 0 1 0 C1 25.41 1 50.82 1 77 C3.97 77.66 6.94 78.32 10 79 C7 80 7 80 4 79 C4 79.66 4 80.32 4 81 C4.70672852 81.15637939 5.41345703 81.31275879 6.14160156 81.47387695 C14.30797091 83.38516903 21.96145218 86.09939365 29.75 89.1875 C30.9359375 89.65091797 32.121875 90.11433594 33.34375 90.59179688 C36.23178222 91.72139012 39.11704623 92.85752221 42 94 C41.67 95.65 41.34 97.3 41 99 C39.94643311 98.5510437 39.94643311 98.5510437 38.87158203 98.09301758 C30.94600415 94.7491514 22.94387154 91.66697937 14.875 88.6875 C13.0496875 88.0059082 13.0496875 88.0059082 11.1875 87.31054688 C10.02992188 86.88193359 8.87234375 86.45332031 7.6796875 86.01171875 C6.63538574 85.62459717 5.59108398 85.23747559 4.51513672 84.83862305 C2.12565879 83.89456312 2.12565879 83.89456312 0 84 C0 68.82 0 53.64 0 38 C-2.64 38.33 -5.28 38.66 -8 39 C-7.67 39.99 -7.34 40.98 -7 42 C-7.33 42.99 -7.66 43.98 -8 45 C-6.515 45.495 -6.515 45.495 -5 46 C-5.99 46.66 -6.98 47.32 -8 48 C-8.391875 47.505 -8.78375 47.01 -9.1875 46.5 C-11.55091715 44.54406857 -13.01435003 44.75792027 -16 45 C-14.625 43.5 -14.625 43.5 -13 42 C-12.34 42 -11.68 42 -11 42 C-11 41.34 -11 40.68 -11 40 C-12.32 40 -13.64 40 -15 40 C-14.67 40.66 -14.34 41.32 -14 42 C-15.485 42.495 -15.485 42.495 -17 43 C-17.66 42.67 -18.32 42.34 -19 42 C-19.66 43.98 -20.32 45.96 -21 48 C-21.99 47.34 -22.98 46.68 -24 46 C-24.33 47.32 -24.66 48.64 -25 50 C-25.99 49.67 -26.98 49.34 -28 49 C-27.34 49 -26.68 49 -26 49 C-26.33 47.35 -26.66 45.7 -27 44 C-27.99 44.66 -28.98 45.32 -30 46 C-31.65 44.35 -33.3 42.7 -35 41 C-32.87219421 38.65941363 -30.88437779 37.29299694 -28 36 C-27.67 36.33 -27.34 36.66 -27 37 C-27 36.01 -27 35.02 -27 34 C-25.02 34 -23.04 34 -21 34 C-21.33 35.98 -21.66 37.96 -22 40 C-22.66 40 -23.32 40 -24 40 C-24 40.66 -24 41.32 -24 42 C-20.88667752 41.33131686 -20.88667752 41.33131686 -19.8125 38.9375 C-19.544375 38.298125 -19.27625 37.65875 -19 37 C-18.67 37.66 -18.34 38.32 -18 39 C-16.02 38.01 -14.04 37.02 -12 36 C-12.33 34.68 -12.66 33.36 -13 32 C-13.99 32 -14.98 32 -16 32 C-16 31.34 -16 30.68 -16 30 C-17.98 30.33 -19.96 30.66 -22 31 C-21.01 30.01 -20.02 29.02 -19 28 C-19.99 28.33 -20.98 28.66 -22 29 C-23.33106622 29.34227417 -24.66400079 29.67751743 -26 30 C-25.67 28.35 -25.34 26.7 -25 25 C-24.01 24.67 -23.02 24.34 -22 24 C-21.38932856 22.14255793 -21.38932856 22.14255793 -21 20 C-20.36345658 18.6520257 -19.70394612 17.31403276 -19 16 C-17.0625 16.375 -17.0625 16.375 -15 17 C-14.67 17.66 -14.34 18.32 -14 19 C-14 18.34 -14 17.68 -14 17 C-10.60085025 18.13304992 -9.94745549 19.12518475 -8 22 C-7.01 20.35 -6.02 18.7 -5 17 C-3.68 18.32 -2.36 19.64 -1 21 C-1.66 21 -2.32 21 -3 21 C-3.37552165 27.31268603 -3.37552165 27.31268603 -1 33 C-1.66 33.66 -2.32 34.32 -3 35 C-2.01 35.495 -2.01 35.495 -1 36 C-0.67 36.33 -0.34 36.66 0 37 C0 24.79 0 12.58 0 0 Z " fill="#A0717A" transform="translate(202,78)"/>
<path d="M0 0 C2 2 2 2 2.1953125 3.9453125 C2.13020833 5.96354167 2.06510417 7.98177083 2 10 C2.66 10 3.32 10 4 10 C4.33 9.01 4.66 8.02 5 7 C6.98 6.67 8.96 6.34 11 6 C11.495 6.99 11.495 6.99 12 8 C11.34 8.33 10.68 8.66 10 9 C10.495 9.99 10.495 9.99 11 11 C10.34 11 9.68 11 9 11 C9 11.66 9 12.32 9 13 C9.763125 13 10.52625 13 11.3125 13 C13.20833333 13 15.10416667 13 17 13 C17 13.66 17 14.32 17 15 C15.865625 15.12375 14.73125 15.2475 13.5625 15.375 C12.386875 15.58125 11.21125 15.7875 10 16 C9.67 16.66 9.34 17.32 9 18 C8.505 18.495 8.505 18.495 8 19 C7.34 19.99 6.68 20.98 6 22 C5.01 22 4.02 22 3 22 C3 23.98 3 25.96 3 28 C3.99 27.67 4.98 27.34 6 27 C6 27.99 6 28.98 6 30 C6.31088368 31.67099977 6.64080332 33.33871537 7 35 C5.35 35 3.7 35 2 35 C2.495 37.475 2.495 37.475 3 40 C2.01 40.66 1.02 41.32 0 42 C-0.66 41.01 -1.32 40.02 -2 39 C-2.33 39.33 -2.66 39.66 -3 40 C-4.66617115 40.04063832 -6.33388095 40.042721 -8 40 C-8.33 40.66 -8.66 41.32 -9 42 C-9.67546875 41.62746094 -10.3509375 41.25492188 -11.046875 40.87109375 C-11.93890625 40.39800781 -12.8309375 39.92492187 -13.75 39.4375 C-15.07257813 38.72400391 -15.07257813 38.72400391 -16.421875 37.99609375 C-18.8697224 36.87235859 -18.8697224 36.87235859 -21.125 37 C-23.98652224 38.52614519 -24.80692887 40.70915481 -26.25 43.5625 C-26.77078125 44.57441406 -27.2915625 45.58632812 -27.828125 46.62890625 C-28.21484375 47.41136719 -28.6015625 48.19382813 -29 49 C-29.33 49 -29.66 49 -30 49 C-31.04745167 43.76274165 -31.04745167 43.76274165 -31 41 C-29.1875 38.5 -29.1875 38.5 -27 37 C-26.34 37 -25.68 37 -25 37 C-24.67 35.68 -24.34 34.36 -24 33 C-24.928125 32.9071875 -24.928125 32.9071875 -25.875 32.8125 C-28 32 -28 32 -29.25 29.4375 C-29.4975 28.633125 -29.745 27.82875 -30 27 C-29.401875 26.566875 -28.80375 26.13375 -28.1875 25.6875 C-26.29216913 24.22538761 -24.6471407 22.72949773 -23 21 C-22.01 22.32 -21.02 23.64 -20 25 C-21.65 25.99 -23.3 26.98 -25 28 C-21.61981469 29.04005702 -18.5219721 29.08004482 -15 29 C-15 27.68 -15 26.36 -15 25 C-13 22.75 -13 22.75 -11 21 C-11.66 20.67 -12.32 20.34 -13 20 C-12.67 19.34 -12.34 18.68 -12 18 C-9.03 18 -6.06 18 -3 18 C-2.67 19.32 -2.34 20.64 -2 22 C-3.32 22.99 -4.64 23.98 -6 25 C-6.99 24.34 -7.98 23.68 -9 23 C-9.33 24.32 -9.66 25.64 -10 27 C-8.68 27 -7.36 27 -6 27 C-6.33 27.99 -6.66 28.98 -7 30 C-7.66 30 -8.32 30 -9 30 C-9 32.64 -9 35.28 -9 38 C-4.545 37.505 -4.545 37.505 0 37 C-0.08378906 35.92105469 -0.16757813 34.84210938 -0.25390625 33.73046875 C-1.051957 22.38921 -0.81676893 11.33423964 0 0 Z " fill="#9C6E77" transform="translate(151,186)"/>
<path d="M0 0 C0.66 0 1.32 0 2 0 C2 0.66 2 1.32 2 2 C3.32 2.66 4.64 3.32 6 4 C4.68 4.33 3.36 4.66 2 5 C1.67 6.32 1.34 7.64 1 9 C3.97 9.495 3.97 9.495 7 10 C6.34 10.66 5.68 11.32 5 12 C5.99 12.99 6.98 13.98 8 15 C6.125 19.875 6.125 19.875 5 21 C7.475 21.99 7.475 21.99 10 23 C9.34 23.33 8.68 23.66 8 24 C8 24.66 8 25.32 8 26 C8.66 26.33 9.32 26.66 10 27 C9.319375 27.7425 8.63875 28.485 7.9375 29.25 C5.71913243 31.72185721 5.71913243 31.72185721 6.3125 34 C6.539375 34.66 6.76625 35.32 7 36 C6.68197057 37.66965451 6.35015049 39.33678518 6 41 C6.33 41.66 6.66 42.32 7 43 C5.35 43 3.7 43 2 43 C2 43.66 2 44.32 2 45 C1.01 45.495 1.01 45.495 0 46 C0 46.99 0 47.98 0 49 C-0.31088368 50.67099977 -0.64080332 52.33871537 -1 54 C-1.66 54 -2.32 54 -3 54 C-4.4571334 51.65450274 -5.03332363 50.3866798 -4.79296875 47.59765625 C-4.59316406 46.76105469 -4.39335937 45.92445313 -4.1875 45.0625 C-3.99542969 44.22847656 -3.80335938 43.39445312 -3.60546875 42.53515625 C-3.40566406 41.69855469 -3.20585937 40.86195313 -3 40 C-1.06858587 31.36776134 -2.24221889 23.84232579 -6 16 C-5.34 16 -4.68 16 -4 16 C-4 15.34 -4 14.68 -4 14 C-4.99 14.33 -5.98 14.66 -7 15 C-5.97953467 11.938604 -5.18909411 10.17828874 -2.8125 7.9375 C-2.214375 7.298125 -1.61625 6.65875 -1 6 C-1.3185177 3.89179203 -1.3185177 3.89179203 -2 2 C-1.34 1.34 -0.68 0.68 0 0 Z " fill="#A0737C" transform="translate(212,166)"/>
<path d="M0 0 C0.02486762 4.42911406 0.04293889 8.85819025 0.05493164 13.28735352 C0.05993555 14.7915925 0.06674073 16.29582668 0.07543945 17.80004883 C0.08767884 19.97218009 0.09326786 22.14424659 0.09765625 24.31640625 C0.10289307 25.62037354 0.10812988 26.92434082 0.11352539 28.26782227 C0.00240136 31.92105465 -0.4408567 35.3917784 -1 39 C-1.0633117 41.14500031 -1.0866101 43.29170098 -1.0625 45.4375 C-1.04896484 47.01337891 -1.04896484 47.01337891 -1.03515625 48.62109375 C-1.02355469 49.40613281 -1.01195313 50.19117188 -1 51 C-3 49.66666667 -5 48.33333333 -7 47 C-9.15274948 47.30840599 -9.15274948 47.30840599 -11 48 C-11 47.34 -11 46.68 -11 46 C-11.66 46 -12.32 46 -13 46 C-13 45.01 -13 44.02 -13 43 C-13.66 42.67 -14.32 42.34 -15 42 C-12.25 37.125 -12.25 37.125 -10 36 C-9.16666667 34.08333333 -9.16666667 34.08333333 -9 32 C-9.66 31.34 -10.32 30.68 -11 30 C-10.34 30 -9.68 30 -9 30 C-9.20625 29.443125 -9.4125 28.88625 -9.625 28.3125 C-10.10675882 25.34165395 -9.12558152 23.74360495 -8 21 C-8.33 20.01 -8.66 19.02 -9 18 C-8.34 17.34 -7.68 16.68 -7 16 C-5.54929981 11.16433271 -4.74592038 7.08159232 -5 2 C-6.98 2.33 -8.96 2.66 -11 3 C-7.74003139 -0.25996861 -4.40088745 -1.46696248 0 0 Z " fill="#996C75" transform="translate(91,163)"/>
<path d="M0 0 C0.33 0 0.66 0 1 0 C1 1.65 1 3.3 1 5 C-0.98 5.99 -2.96 6.98 -5 8 C-3.68 7.67 -2.36 7.34 -1 7 C-0.58182461 13.5514144 -2.06311837 19.12623674 -5 25 C-4.814375 25.598125 -4.62875 26.19625 -4.4375 26.8125 C-3.85282349 29.73588253 -4.82766306 31.31052114 -6 34 C-6.2236068 36.9254644 -6.2236068 36.9254644 -5 39 C-5.9375 41.625 -5.9375 41.625 -7 44 C-7.99 44 -8.98 44 -10 44 C-11.625 41.3125 -11.625 41.3125 -13 38 C-12.1875 35.125 -12.1875 35.125 -11 33 C-11.66 32.34 -12.32 31.68 -13 31 C-12.34 30.67 -11.68 30.34 -11 30 C-11 29.01 -11 28.02 -11 27 C-10.34 27 -9.68 27 -9 27 C-9 26.01 -9 25.02 -9 24 C-9.66 23.67 -10.32 23.34 -11 23 C-11 22.34 -11 21.68 -11 21 C-11.66 20.34 -12.32 19.68 -13 19 C-11.02 18.67 -9.04 18.34 -7 18 C-7.33 16.68 -7.66 15.36 -8 14 C-9.32 14 -10.64 14 -12 14 C-12.66 14.66 -13.32 15.32 -14 16 C-14.33 14.68 -14.66 13.36 -15 12 C-13.35 12 -11.7 12 -10 12 C-10.33 11.34 -10.66 10.68 -11 10 C-11.65073486 10.23710693 -12.30146973 10.47421387 -12.97192383 10.71850586 C-15.91862962 11.79192426 -18.86556202 12.86471922 -21.8125 13.9375 C-23.34874023 14.49727539 -23.34874023 14.49727539 -24.91601562 15.06835938 C-26.39038086 15.60493164 -26.39038086 15.60493164 -27.89453125 16.15234375 C-28.80050049 16.48226318 -29.70646973 16.81218262 -30.63989258 17.15209961 C-32.41849251 17.7910856 -34.20708373 18.40236124 -36 19 C-36.66 18.67 -37.32 18.34 -38 18 C-38 17.01 -38 16.02 -38 15 C-33.07272236 13.14234222 -28.14309893 11.29110552 -23.21118164 9.44580078 C-21.5334359 8.8170316 -19.85634697 8.18650698 -18.17993164 7.55419922 C-15.77139719 6.64609833 -13.36057805 5.74431853 -10.94921875 4.84375 C-10.19912033 4.55939087 -9.44902191 4.27503174 -8.67619324 3.98205566 C-5.65027662 2.85778022 -3.25571279 2 0 2 C0 1.34 0 0.68 0 0 Z M-13 44 C-12.01 44.33 -11.02 44.66 -10 45 C-10.99 45 -11.98 45 -13 45 C-13 44.67 -13 44.34 -13 44 Z " fill="#A2767F" transform="translate(88,157)"/>
<path d="M0 0 C1.45599609 0.14501953 1.45599609 0.14501953 2.94140625 0.29296875 C5.4375 0.8125 5.4375 0.8125 7.4375 2.8125 C7.44921875 5.5625 7.44921875 5.5625 7.125 8.8125 C7.02574219 9.885 6.92648438 10.9575 6.82421875 12.0625 C6.4375 14.8125 6.4375 14.8125 5.4375 16.8125 C9.0675 17.1425 12.6975 17.4725 16.4375 17.8125 C16.9325 19.7925 16.9325 19.7925 17.4375 21.8125 C16.06271484 21.56886719 16.06271484 21.56886719 14.66015625 21.3203125 C9.41382206 20.5732873 4.16386319 20.6672749 -1.125 20.6875 C-2.14013672 20.68363281 -3.15527344 20.67976563 -4.20117188 20.67578125 C-9.09771494 20.68217778 -13.7512767 20.77623652 -18.5625 21.8125 C-18.2325 20.4925 -17.9025 19.1725 -17.5625 17.8125 C-13.88839215 16.63678549 -10.39320817 16.73883254 -6.5625 16.8125 C-6.5625 14.5025 -6.5625 12.1925 -6.5625 9.8125 C-7.2225 9.8125 -7.8825 9.8125 -8.5625 9.8125 C-8.92778134 3.35919624 -8.92778134 3.35919624 -7.3984375 1.0703125 C-4.79385464 -0.71410384 -3.0970878 -0.3505359 0 0 Z " fill="#682330" transform="translate(147.5625,232.1875)"/>
<path d="M0 0 C0.33 1.32 0.66 2.64 1 4 C1.66 3.67 2.32 3.34 3 3 C2.67 2.34 2.34 1.68 2 1 C4.375 1.25 4.375 1.25 7 2 C8.3125 4.0625 8.3125 4.0625 9 6 C7.02 6.99 7.02 6.99 5 8 C5.66 8.33 6.32 8.66 7 9 C7.144375 9.598125 7.28875 10.19625 7.4375 10.8125 C8.10600597 13.41224542 9.31063312 14.94337945 11 17 C11.66 16.01 12.32 15.02 13 14 C14.32 14.33 15.64 14.66 17 15 C17 15.66 17 16.32 17 17 C17.66 17.33 18.32 17.66 19 18 C18.67 18.99 18.34 19.98 18 21 C16.35 20.67 14.7 20.34 13 20 C12.01 22.475 12.01 22.475 11 25 C10.34 25 9.68 25 9 25 C8.67 25.66 8.34 26.32 8 27 C7.34 27 6.68 27 6 27 C5.67 26.34 5.34 25.68 5 25 C5 25.66 5 26.32 5 27 C5.66 27.66 6.32 28.32 7 29 C4.69 29.66 2.38 30.32 0 31 C-0.28875 30.360625 -0.5775 29.72125 -0.875 29.0625 C-1.82823451 26.84793921 -1.82823451 26.84793921 -4 26 C-4 26.99 -4 27.98 -4 29 C-4.66 28.67 -5.32 28.34 -6 28 C-4.68 25.69 -3.36 23.38 -2 21 C-3.65 21.33 -5.3 21.66 -7 22 C-6.6390625 21.32453125 -6.278125 20.6490625 -5.90625 19.953125 C-5.21015625 18.61507812 -5.21015625 18.61507812 -4.5 17.25 C-4.0359375 16.36828125 -3.571875 15.4865625 -3.09375 14.578125 C-1.50301437 10.82853386 -1.91407089 7.80075187 -3 4 C-2.01 3.67 -1.02 3.34 0 3 C0 2.01 0 1.02 0 0 Z " fill="#A3757D" transform="translate(109,178)"/>
<path d="M0 0 C0.33 0.66 0.66 1.32 1 2 C3.52733235 2.65555119 3.52733235 2.65555119 6 3 C5.01 3.66 4.02 4.32 3 5 C2.74969023 7.58380177 2.74969023 7.58380177 3 10 C3.99 9.67 4.98 9.34 6 9 C6.33 9.99 6.66 10.98 7 12 C4.03 11.505 4.03 11.505 1 11 C0.85484323 14.10367497 0.76599147 17.20648027 0.6875 20.3125 C0.64560547 21.19357422 0.60371094 22.07464844 0.56054688 22.98242188 C0.51420618 25.41994228 0.51388656 27.60970257 1 30 C3.34196848 32.20162663 3.34196848 32.20162663 6 33 C5.04402516 45.95597484 5.04402516 45.95597484 2 49 C2.0446707 54.93003488 2.89078104 59.86302955 6 65 C5.01 65 4.02 65 3 65 C1.515 65.495 1.515 65.495 0 66 C-0.66 65.67 -1.32 65.34 -2 65 C-1.505 62.03 -1.505 62.03 -1 59 C-0.34 59 0.32 59 1 59 C0.505 57.515 0.505 57.515 0 56 C-1.1865126 51.91405167 -1.14865179 48.23657606 -1 44 C-2.65 44 -4.3 44 -6 44 C-6.33 43.34 -6.66 42.68 -7 42 C-6.34 42 -5.68 42 -5 42 C-4.67 41.34 -4.34 40.68 -4 40 C-3.01 40 -2.02 40 -1 40 C-1 38.02 -1 36.04 -1 34 C-1.33 34.66 -1.66 35.32 -2 36 C-3.65 36 -5.3 36 -7 36 C-7.66 37.98 -8.32 39.96 -9 42 C-11.475 42.495 -11.475 42.495 -14 43 C-13.5359375 41.63875 -13.5359375 41.63875 -13.0625 40.25 C-11.95068008 37.21740222 -11.95068008 37.21740222 -11.75 34.8125 C-10.53793831 31.88335092 -7.75591139 31.34983415 -5 30 C-3.59533047 27.94906855 -3.59533047 27.94906855 -3 26 C-2.34 26 -1.68 26 -1 26 C-1.00523682 25.28344238 -1.01047363 24.56688477 -1.01586914 23.82861328 C-1.03660667 20.59408438 -1.04964984 17.35956944 -1.0625 14.125 C-1.07506836 12.43310547 -1.07506836 12.43310547 -1.08789062 10.70703125 C-1.09111328 9.63066406 -1.09433594 8.55429688 -1.09765625 7.4453125 C-1.10289307 6.45031738 -1.10812988 5.45532227 -1.11352539 4.43017578 C-1 2 -1 2 0 0 Z " fill="#946970" transform="translate(203,160)"/>
<path d="M0 0 C3.6963262 3.68282251 3.45653414 7.64904114 3.4765625 12.5625 C3.49214203 13.39080322 3.50772156 14.21910645 3.52377319 15.07250977 C3.57122718 17.71499694 3.59902439 20.35722189 3.625 23 C3.66155569 25.64259127 3.70225047 28.28503622 3.74765015 30.92749023 C3.7747521 32.57014408 3.796157 34.21290424 3.81118774 35.85571289 C3.83059812 40.03823172 3.83059812 40.03823172 4.63485718 44.11743164 C4.75535431 44.7386792 4.87585144 45.35992676 5 46 C4.34 46.66 3.68 47.32 3 48 C2.67 48.66 2.34 49.32 2 50 C2.66 50.33 3.32 50.66 4 51 C3.33501617 55.38889325 1.81242323 58.9811485 0 63 C-0.33 63 -0.66 63 -1 63 C-1 61.02 -1 59.04 -1 57 C-1.66 57.66 -2.32 58.32 -3 59 C-2.6814823 61.10820797 -2.6814823 61.10820797 -2 63 C-4.35438733 64.42944945 -5.48032433 65.08661261 -8.25 64.625 C-8.8275 64.41875 -9.405 64.2125 -10 64 C-9.7215625 63.071875 -9.7215625 63.071875 -9.4375 62.125 C-8.76313824 59.95839822 -8.76313824 59.95839822 -10 58 C-8.68 57.34 -7.36 56.68 -6 56 C-6.61875 55.855625 -7.2375 55.71125 -7.875 55.5625 C-10 55 -10 55 -12 54 C-14.475 56.475 -14.475 56.475 -17 59 C-20 54.25 -20 54.25 -20 52 C-19.01 51.34 -18.02 50.68 -17 50 C-17.185625 48.906875 -17.37125 47.81375 -17.5625 46.6875 C-18 43 -18 43 -17 40 C-15.515 39.505 -15.515 39.505 -14 39 C-12.23537317 42.08809695 -12 43.23312136 -12 47 C-11.7018576 48.34164079 -11.37756808 49.67851173 -11 51 C-10.34 51 -9.68 51 -9 51 C-9 51.66 -9 52.32 -9 53 C-7.68 52.01 -6.36 51.02 -5 50 C-4.34 50.33 -3.68 50.66 -3 51 C-3.33 51.33 -3.66 51.66 -4 52 C-2.68 52.33 -1.36 52.66 0 53 C-0.01160156 52.09636719 -0.02320312 51.19273437 -0.03515625 50.26171875 C-0.04417969 49.08222656 -0.05320312 47.90273437 -0.0625 46.6875 C-0.07410156 45.51574219 -0.08570312 44.34398437 -0.09765625 43.13671875 C0 40 0 40 1 37 C1.15269181 34.56219623 1.25682697 32.14716099 1.31640625 29.70703125 C1.33718735 29.00100266 1.35796844 28.29497406 1.37937927 27.56755066 C1.44467491 25.31596449 1.50366647 23.06426338 1.5625 20.8125 C1.60570425 19.2844934 1.64931916 17.75649836 1.69335938 16.22851562 C1.80033574 12.48579438 1.90165922 8.7429577 2 5 C1.34 5 0.68 5 0 5 C0 3.35 0 1.7 0 0 Z " fill="#956A71" transform="translate(89,158)"/>
<path d="M0 0 C0.33 0 0.66 0 1 0 C1 25.41 1 50.82 1 77 C3.97 77.66 6.94 78.32 10 79 C7 80 7 80 4 79 C4 79.66 4 80.32 4 81 C4.70672852 81.15637939 5.41345703 81.31275879 6.14160156 81.47387695 C14.30797091 83.38516903 21.96145218 86.09939365 29.75 89.1875 C30.9359375 89.65091797 32.121875 90.11433594 33.34375 90.59179688 C36.23178222 91.72139012 39.11704623 92.85752221 42 94 C41.67 95.65 41.34 97.3 41 99 C39.94643311 98.5510437 39.94643311 98.5510437 38.87158203 98.09301758 C30.94600415 94.7491514 22.94387154 91.66697937 14.875 88.6875 C13.0496875 88.0059082 13.0496875 88.0059082 11.1875 87.31054688 C10.02992188 86.88193359 8.87234375 86.45332031 7.6796875 86.01171875 C6.63538574 85.62459717 5.59108398 85.23747559 4.51513672 84.83862305 C2.12565879 83.89456312 2.12565879 83.89456312 0 84 C0 56.28 0 28.56 0 0 Z " fill="#A77D86" transform="translate(202,78)"/>
<path d="M0 0 C0.33 0 0.66 0 1 0 C1.33 17.49 1.66 34.98 2 53 C4.97 52.505 4.97 52.505 8 52 C10.9296875 52.63671875 10.9296875 52.63671875 13.875 53.6875 C14.92300781 54.06132812 15.97101563 54.43515625 17.05078125 54.8203125 C20.12857333 56.05142933 22.99203098 57.48992355 25.91015625 59.05078125 C30.07667716 60.94323841 34.56538433 61.92395355 39 63 C39 63.66 39 64.32 39 65 C35.7 64.34 32.4 63.68 29 63 C29 63.66 29 64.32 29 65 C29.66 65 30.32 65 31 65 C31 65.66 31 66.32 31 67 C25.50661581 66.41605759 20.77170598 65.03872136 15.625 63.0625 C14.90183594 62.79759766 14.17867187 62.53269531 13.43359375 62.25976562 C8.12676222 60.25352444 8.12676222 60.25352444 7 58 C4.69 57.34 2.38 56.68 0 56 C0 37.52 0 19.04 0 0 Z " fill="#E0DFDB" transform="translate(203,99)"/>
<path d="M0 0 C2 2 2 2 2.1953125 3.9453125 C2.13020833 5.96354167 2.06510417 7.98177083 2 10 C2.66 10 3.32 10 4 10 C4.33 9.01 4.66 8.02 5 7 C6.98 6.67 8.96 6.34 11 6 C11.33 6.66 11.66 7.32 12 8 C11.01 8.495 11.01 8.495 10 9 C10.33 9.66 10.66 10.32 11 11 C10.34 11 9.68 11 9 11 C9 11.66 9 12.32 9 13 C9.763125 13 10.52625 13 11.3125 13 C13.20833333 13 15.10416667 13 17 13 C17 13.66 17 14.32 17 15 C15.865625 15.12375 14.73125 15.2475 13.5625 15.375 C11.7990625 15.684375 11.7990625 15.684375 10 16 C9.67 16.66 9.34 17.32 9 18 C8.67 18.33 8.34 18.66 8 19 C7.34 19.99 6.68 20.98 6 22 C5.01 22 4.02 22 3 22 C3 23.98 3 25.96 3 28 C3.99 27.67 4.98 27.34 6 27 C6 27.99 6 28.98 6 30 C6.31088368 31.67099977 6.64080332 33.33871537 7 35 C5.35 35 3.7 35 2 35 C2.33 36.65 2.66 38.3 3 40 C2.01 40.66 1.02 41.32 0 42 C-0.66 41.01 -1.32 40.02 -2 39 C-2.495 39.495 -2.495 39.495 -3 40 C-4.66617115 40.04063832 -6.33388095 40.042721 -8 40 C-8.33 40.66 -8.66 41.32 -9 42 C-9.66 41.01 -10.32 40.02 -11 39 C-7.14213034 37.18453193 -4.23294004 36.90619523 0 37 C-0.12568359 35.38158203 -0.12568359 35.38158203 -0.25390625 33.73046875 C-1.051957 22.38921 -0.81676893 11.33423964 0 0 Z " fill="#9A6E77" transform="translate(151,186)"/>
<path d="M0 0 C0.66 0 1.32 0 2 0 C2 11.88 2 23.76 2 36 C-0.97 36.66 -3.94 37.32 -7 38 C-8.28317892 34.15046324 -8.06643637 31.05261865 -8 27 C-7.67 27.66 -7.34 28.32 -7 29 C-6.01 28.01 -5.02 27.02 -4 26 C-5.32 26 -6.64 26 -8 26 C-7.67 24.68 -7.34 23.36 -7 22 C-6.071875 22.309375 -6.071875 22.309375 -5.125 22.625 C-4.42375 22.74875 -3.7225 22.8725 -3 23 C-2.34 22.34 -1.68 21.68 -1 21 C-1 20.01 -1 19.02 -1 18 C-2.093125 17.87625 -3.18625 17.7525 -4.3125 17.625 C-8 17 -8 17 -11 15 C-10.6875 13.125 -10.6875 13.125 -10 11 C-6.5647952 8.70986347 -5.014669 8.82157027 -1 9 C-0.67 6.03 -0.34 3.06 0 0 Z " fill="#A77B83" transform="translate(149,187)"/>
<path d="M0 0 C0.33 0 0.66 0 1 0 C2.05422629 5.90295733 2.04949314 11.54441139 1.87890625 17.52734375 C1.85529526 18.51626114 1.83168427 19.50517853 1.80735779 20.52406311 C1.731191 23.66203879 1.64696618 26.79973785 1.5625 29.9375 C1.50923221 32.07355447 1.45649219 34.20962218 1.40429688 36.34570312 C1.27564001 41.56397074 1.14037841 46.78203525 1 52 C2.32 52.33 3.64 52.66 5 53 C3.68 53 2.36 53 1 53 C1 53.99 1 54.98 1 56 C1.804375 56.144375 2.60875 56.28875 3.4375 56.4375 C6 57 6 57 7 58 C7.33 57.34 7.66 56.68 8 56 C8.66 56 9.32 56 10 56 C10.33 54.35 10.66 52.7 11 51 C11.99 51.33 12.98 51.66 14 52 C13.79375 52.5775 13.5875 53.155 13.375 53.75 C12.8968199 56.61908059 13.38178728 57.6112098 15 60 C17.03317007 61.73425773 17.03317007 61.73425773 19 63 C15.535 63.495 15.535 63.495 12 64 C11.66781808 67.00259517 11.66781808 67.00259517 13.5 68.6875 C13.995 69.120625 14.49 69.55375 15 70 C13.02 69.67 11.04 69.34 9 69 C8.67 67.68 8.34 66.36 8 65 C6.68 64.67 5.36 64.34 4 64 C2.875 59.25 2.875 59.25 4 57 C3.01 57 2.02 57 1 57 C1 65.91 1 74.82 1 84 C0.67 84 0.34 84 0 84 C0 56.28 0 28.56 0 0 Z " fill="#A37C82" transform="translate(91,78)"/>
<path d="M0 0 C6.93359375 -0.09765625 6.93359375 -0.09765625 9 0 C10 1 10 1 10.09765625 4.16015625 C10.08605469 5.44792969 10.07445312 6.73570312 10.0625 8.0625 C10.05347656 9.35285156 10.04445312 10.64320313 10.03515625 11.97265625 C10.02355469 12.97167969 10.01195312 13.97070312 10 15 C6.37 15 2.74 15 -1 15 C-0.67 10.05 -0.34 5.1 0 0 Z " fill="#090708" transform="translate(142,234)"/>
<path d="M0 0 C1.32 0.66 2.64 1.32 4 2 C4 3.32 4 4.64 4 6 C4.66 6 5.32 6 6 6 C6.33 5.01 6.66 4.02 7 3 C7.99 3.33 8.98 3.66 10 4 C9.67 4.33 9.34 4.66 9 5 C9.33 5.66 9.66 6.32 10 7 C10.4125 6.54625 10.825 6.0925 11.25 5.625 C13.06408095 3.94049626 14.75285627 3.00734029 17 2 C17 3.98 17 5.96 17 8 C11.06 8.495 11.06 8.495 5 9 C5.99 9 6.98 9 8 9 C8.66 11.64 9.32 14.28 10 17 C8.63875 17.433125 8.63875 17.433125 7.25 17.875 C4.67797092 18.76531776 2.38653234 19.71494413 0 21 C-2 18 -2 18 -3 16 C-1.35 16 0.3 16 2 16 C1.77183594 15.34773437 1.54367188 14.69546875 1.30859375 14.0234375 C-0.3485464 8.98513695 -1.52613509 5.27210302 0 0 Z M-2 21 C0 22 0 22 0 22 Z " fill="#A67982" transform="translate(135,178)"/>
<path d="M0 0 C3.41174642 0.00541899 6.8233647 -0.00000204 10.23510742 -0.00634766 C12.40242542 -0.00568788 14.56974334 -0.0044088 16.73706055 -0.00244141 C17.75777145 -0.00446564 18.77848236 -0.00648987 19.8301239 -0.00857544 C21.23848259 -0.0038472 21.23848259 -0.0038472 22.67529297 0.00097656 C23.50212082 0.00177216 24.32894867 0.00256775 25.18083191 0.00338745 C27.1940918 0.13037109 27.1940918 0.13037109 29.1940918 1.13037109 C29.1940918 1.79037109 29.1940918 2.45037109 29.1940918 3.13037109 C-2.4859082 2.63537109 -2.4859082 2.63537109 -34.8059082 2.13037109 C-34.8059082 1.80037109 -34.8059082 1.47037109 -34.8059082 1.13037109 C-23.22606505 -0.13718935 -11.63339111 -0.02208926 0 0 Z " fill="#DBD8D4" transform="translate(168.805908203125,35.86962890625)"/>
<path d="M0 0 C1.32 1.32 2.64 2.64 4 4 C4.66 3.01 5.32 2.02 6 1 C7.32 1.33 8.64 1.66 10 2 C10 2.66 10 3.32 10 4 C10.66 4.33 11.32 4.66 12 5 C11.67 5.99 11.34 6.98 11 8 C9.35 7.67 7.7 7.34 6 7 C5.34 8.65 4.68 10.3 4 12 C3.34 12 2.68 12 2 12 C1.67 12.66 1.34 13.32 1 14 C0.34 14 -0.32 14 -1 14 C-1.33 13.34 -1.66 12.68 -2 12 C-2.99 12.495 -2.99 12.495 -4 13 C-4.66 10.69 -5.32 8.38 -6 6 C-4.35 5.67 -2.7 5.34 -1 5 C-0.67 3.35 -0.34 1.7 0 0 Z " fill="#A57680" transform="translate(116,191)"/>
<path d="M0 0 C0.33 1.32 0.66 2.64 1 4 C-2.93716478 5.48006002 -6.87478859 6.95889497 -10.8125 8.4375 C-11.93205078 8.85837891 -13.05160156 9.27925781 -14.20507812 9.71289062 C-15.27822266 10.11572266 -16.35136719 10.51855469 -17.45703125 10.93359375 C-18.44678955 11.30540771 -19.43654785 11.67722168 -20.45629883 12.06030273 C-22.29274305 12.73872425 -24.14271574 13.38090525 -26 14 C-26.66 13.67 -27.32 13.34 -28 13 C-28 12.01 -28 11.02 -28 10 C-24.33547148 8.57157089 -20.66927431 7.14752324 -17.00146484 5.72753906 C-15.13939585 5.00558153 -13.27867593 4.28014762 -11.41796875 3.5546875 C-10.25136719 3.10351562 -9.08476563 2.65234375 -7.8828125 2.1875 C-6.80402832 1.76855469 -5.72524414 1.34960938 -4.61376953 0.91796875 C-2 0 -2 0 0 0 Z " fill="#A97E87" transform="translate(78,162)"/>
<path d="M0 0 C2.9972351 2.9972351 2.41582289 6.40734798 2.51953125 10.4375 C2.55925301 11.6913147 2.55925301 11.6913147 2.59977722 12.97045898 C2.65248909 14.73895316 2.7000652 16.5076067 2.74291992 18.27636719 C2.81224012 20.98982721 2.90813802 23.70149496 3.00585938 26.4140625 C3.05370573 28.13016387 3.09998268 29.84630986 3.14453125 31.5625 C3.17561478 32.37710693 3.2066983 33.19171387 3.23872375 34.03100586 C3.28051758 36.31640625 3.28051758 36.31640625 3 40 C2.01 40.66 1.02 41.32 0 42 C-0.66 41.01 -1.32 40.02 -2 39 C-2.495 39.495 -2.495 39.495 -3 40 C-4.66617115 40.04063832 -6.33388095 40.042721 -8 40 C-8.33 40.66 -8.66 41.32 -9 42 C-9.66 41.01 -10.32 40.02 -11 39 C-7.14213034 37.18453193 -4.23294004 36.90619523 0 37 C-0.12568359 35.38158203 -0.12568359 35.38158203 -0.25390625 33.73046875 C-1.051957 22.38921 -0.81676893 11.33423964 0 0 Z " fill="#8C656C" transform="translate(151,186)"/>
<path d="M0 0 C6.06326924 0.38496948 10.41888367 1.43890671 15.86328125 4.08984375 C18.82207448 5.35017067 21.82975628 5.56486851 25 6 C27.4375 7.4375 27.4375 7.4375 29 9 C29 9.66 29 10.32 29 11 C29.66 11 30.32 11 31 11 C31 11.66 31 12.32 31 13 C25.50661581 12.41605759 20.77170598 11.03872136 15.625 9.0625 C14.90183594 8.79759766 14.17867187 8.53269531 13.43359375 8.25976562 C8.12676222 6.25352444 8.12676222 6.25352444 7 4 C4.6859378 3.26924352 2.35171131 2.59861742 0 2 C0 1.34 0 0.68 0 0 Z " fill="#CAC5C1" transform="translate(203,153)"/>
<path d="M0 0 C3.6963262 3.68282251 3.45653414 7.64904114 3.4765625 12.5625 C3.49214203 13.39080322 3.50772156 14.21910645 3.52377319 15.07250977 C3.57122718 17.71499694 3.59902439 20.35722189 3.625 23 C3.66155569 25.64259127 3.70225047 28.28503622 3.74765015 30.92749023 C3.7747521 32.57014408 3.796157 34.21290424 3.81118774 35.85571289 C3.83059812 40.03823172 3.83059812 40.03823172 4.63485718 44.11743164 C4.75535431 44.7386792 4.87585144 45.35992676 5 46 C4.34 46.66 3.68 47.32 3 48 C2.67 48.66 2.34 49.32 2 50 C2.66 50.33 3.32 50.66 4 51 C3.33501617 55.38889325 1.81242323 58.9811485 0 63 C-0.33 63 -0.66 63 -1 63 C-0.95875 62.0925 -0.9175 61.185 -0.875 60.25 C-0.99531556 57.1217954 -1.3914708 55.61385994 -3 53 C-2.01 53 -1.02 53 0 53 C-0.01160156 52.09636719 -0.02320312 51.19273437 -0.03515625 50.26171875 C-0.04869141 48.49248047 -0.04869141 48.49248047 -0.0625 46.6875 C-0.07410156 45.51574219 -0.08570312 44.34398437 -0.09765625 43.13671875 C0 40 0 40 1 37 C1.15269181 34.56219623 1.25682697 32.14716099 1.31640625 29.70703125 C1.33718735 29.00100266 1.35796844 28.29497406 1.37937927 27.56755066 C1.44467491 25.31596449 1.50366647 23.06426338 1.5625 20.8125 C1.60570425 19.2844934 1.64931916 17.75649836 1.69335938 16.22851562 C1.80033574 12.48579438 1.90165922 8.7429577 2 5 C1.34 5 0.68 5 0 5 C0 3.35 0 1.7 0 0 Z " fill="#815A60" transform="translate(89,158)"/>
<path d="M0 0 C1.62938774 0.59223134 3.25341128 1.19923628 4.875 1.8125 C6.23238281 2.31716797 6.23238281 2.31716797 7.6171875 2.83203125 C10 4 10 4 12 7 C12 7.99 12 8.98 12 10 C4.57142857 13.28571429 4.57142857 13.28571429 1 14 C0.67 13.34 0.34 12.68 0 12 C2 10 2 10 5 9 C2.525 8.01 2.525 8.01 0 7 C-0.66 7.66 -1.32 8.32 -2 9 C-2.6875 6.75 -2.6875 6.75 -3 4 C-1.51953125 1.828125 -1.51953125 1.828125 0 0 Z " fill="#AB828A" transform="translate(131,222)"/>
<path d="M0 0 C0.33 0 0.66 0 1 0 C1 25.41 1 50.82 1 77 C3.97 77.66 6.94 78.32 10 79 C7.07175348 79.97608217 5.04386724 80.08226668 2 80 C1.34 81.32 0.68 82.64 0 84 C0 56.28 0 28.56 0 0 Z " fill="#AD9193" transform="translate(202,78)"/>
<path d="M0 0 C0.33 0 0.66 0 1 0 C1 1.98 1 3.96 1 6 C1.66 6 2.32 6 3 6 C3 8.31 3 10.62 3 13 C-0.63 13.33 -4.26 13.66 -8 14 C-6.42383191 8.48341169 -4.07768576 4.07768576 0 0 Z " fill="#876066" transform="translate(138,236)"/>
<path d="M0 0 C5.64535585 4.51628468 5.64535585 4.51628468 7.3125 8.125 C7.63863281 8.80820313 7.96476563 9.49140625 8.30078125 10.1953125 C9 12 9 12 9 14 C5.37 13.67 1.74 13.34 -2 13 C-1.34 8.71 -0.68 4.42 0 0 Z " fill="#926970" transform="translate(155,236)"/>
<path d="M0 0 C2.19050021 0.09017996 4.378466 0.24666208 6.5625 0.4375 C7.76003906 0.53933594 8.95757812 0.64117187 10.19140625 0.74609375 C11.11824219 0.82988281 12.04507813 0.91367188 13 1 C13.33 3.64 13.66 6.28 14 9 C11.36 9 8.72 9 6 9 C4.66667905 6.3333581 5.32897967 4.83319697 6 2 C5.01 2.33 4.02 2.66 3 3 C3.33 4.65 3.66 6.3 4 8 C2.0625 7.3125 2.0625 7.3125 0 6 C-0.8125 3.4375 -0.8125 3.4375 -1 1 C-0.67 0.67 -0.34 0.34 0 0 Z " fill="#A27982" transform="translate(153,252)"/>
<path d="M0 0 C1.45599609 0.14501953 1.45599609 0.14501953 2.94140625 0.29296875 C5.4375 0.8125 5.4375 0.8125 7.4375 2.8125 C7.484375 5.5625 7.484375 5.5625 7.1875 8.8125 C7.09984375 9.885 7.0121875 10.9575 6.921875 12.0625 C6.4375 14.8125 6.4375 14.8125 4.4375 16.8125 C4.1075 12.1925 3.7775 7.5725 3.4375 2.8125 C0.7975 2.8125 -1.8425 2.8125 -4.5625 2.8125 C-4.8925 7.1025 -5.2225 11.3925 -5.5625 15.8125 C-5.8925 15.8125 -6.2225 15.8125 -6.5625 15.8125 C-6.5625 13.8325 -6.5625 11.8525 -6.5625 9.8125 C-7.2225 9.8125 -7.8825 9.8125 -8.5625 9.8125 C-8.92778134 3.35919624 -8.92778134 3.35919624 -7.3984375 1.0703125 C-4.79385464 -0.71410384 -3.0970878 -0.3505359 0 0 Z " fill="#563C41" transform="translate(147.5625,232.1875)"/>
<path d="M0 0 C0 0.66 0 1.32 0 2 C-26.9576474 11.71300865 -26.9576474 11.71300865 -39 16 C-39 15.34 -39 14.68 -39 14 C-35.25310443 12.40925103 -31.50193273 10.82882749 -27.75 9.25 C-26.70585938 8.8065625 -25.66171875 8.363125 -24.5859375 7.90625 C-5.75045956 0 -5.75045956 0 0 0 Z " fill="#DED7D6" transform="translate(88,157)"/>
<path d="M0 0 C11.52164009 -0.55353075 11.52164009 -0.55353075 17 3 C17 3.66 17 4.32 17 5 C17.66 5 18.32 5 19 5 C19 5.66 19 6.32 19 7 C17.7934375 6.7525 17.7934375 6.7525 16.5625 6.5 C13.07099337 5.81873041 10.00354989 6.22302525 6.4375 6.5 C4.64119141 6.63921875 4.64119141 6.63921875 2.80859375 6.78125 C1.88175781 6.8534375 0.95492187 6.925625 0 7 C0.33 6.01 0.66 5.02 1 4 C1.99 4 2.98 4 4 4 C4 3.34 4 2.68 4 2 C2.68 1.34 1.36 0.68 0 0 Z " fill="#AA7F86" transform="translate(106,38)"/>
<path d="M0 0 C1.32 0 2.64 0 4 0 C5.625 2 5.625 2 7 4 C7.66 4 8.32 4 9 4 C9 7 9 7 7.25 8.82421875 C6.5075 9.43910156 5.765 10.05398438 5 10.6875 C3.88625 11.62142578 3.88625 11.62142578 2.75 12.57421875 C2.1725 13.04472656 1.595 13.51523437 1 14 C0.06576355 10.98968256 -0.04449911 10.13349732 1 7 C0.34 6.34 -0.32 5.68 -1 5 C-0.625 2.375 -0.625 2.375 0 0 Z " fill="#A37C84" transform="translate(168,247)"/>
<path d="M0 0 C-0.99 0.99 -1.98 1.98 -3 3 C-2.01 3.66 -1.02 4.32 0 5 C-0.99 5.495 -0.99 5.495 -2 6 C-1.67 8.64 -1.34 11.28 -1 14 C-3.01781565 12.17435726 -4.09944573 10.79637302 -5.3125 8.3125 C-6.1478125 7.1678125 -6.1478125 7.1678125 -7 6 C-10.12635209 5.58253392 -10.12635209 5.58253392 -13 6 C-13 5.01 -13 4.02 -13 3 C-12.030625 2.87625 -11.06125 2.7525 -10.0625 2.625 C-9.051875 2.41875 -8.04125 2.2125 -7 2 C-6.67 1.34 -6.34 0.68 -6 0 C-6.66 -0.33 -7.32 -0.66 -8 -1 C-4.59745511 -2.2151946 -3.06748874 -1.86240388 0 0 Z " fill="#976D74" transform="translate(172,217)"/>
<path d="M0 0 C0.33 0.66 0.66 1.32 1 2 C3.52733235 2.65555119 3.52733235 2.65555119 6 3 C5.01 3.66 4.02 4.32 3 5 C2.74969023 7.58380177 2.74969023 7.58380177 3 10 C3.99 9.67 4.98 9.34 6 9 C6.33 9.99 6.66 10.98 7 12 C4.03 11.505 4.03 11.505 1 11 C0.67 16.28 0.34 21.56 0 27 C-0.33 27 -0.66 27 -1 27 C-1.02892385 22.87501462 -1.04677267 18.75005515 -1.0625 14.625 C-1.07087891 13.449375 -1.07925781 12.27375 -1.08789062 11.0625 C-1.09111328 9.94101563 -1.09433594 8.81953125 -1.09765625 7.6640625 C-1.10289307 6.62717285 -1.10812988 5.5902832 -1.11352539 4.52197266 C-1 2 -1 2 0 0 Z " fill="#865D64" transform="translate(203,160)"/>
<path d="M0 0 C11.55 0 23.1 0 35 0 C34.01 0.33 33.02 0.66 32 1 C31.67 1.66 31.34 2.32 31 3 C30.33333333 4.33333333 29.66666667 5.66666667 29 7 C26.69 7 24.38 7 22 7 C22.9590625 6.319375 22.9590625 6.319375 23.9375 5.625 C26.09702406 4.16078274 26.09702406 4.16078274 27 2 C22.85906302 1.79029441 22.85906302 1.79029441 19 3 C19 2.34 19 1.68 19 1 C14.71 1 10.42 1 6 1 C6 1.66 6 2.32 6 3 C3.13275314 2.42655063 2.1385485 2.1385485 0 0 Z " fill="#97676F" transform="translate(117,38)"/>
<path d="M0 0 C6.88934329 1.35677883 13.2117951 3.39590109 19.75 5.9375 C20.66910156 6.28490234 21.58820313 6.63230469 22.53515625 6.99023438 C26.93424902 8.68047914 31.06302788 10.361567 35 13 C33 14 33 14 30.38964844 13.22729492 C29.3071582 12.81584229 28.22466797 12.40438965 27.109375 11.98046875 C25.92472656 11.53509766 24.74007812 11.08972656 23.51953125 10.63085938 C22.26291269 10.15002211 21.00640318 9.66889977 19.75 9.1875 C17.30757233 8.26358062 14.86487295 7.34037914 12.421875 6.41796875 C11.33487305 6.00313232 10.24787109 5.5882959 9.12792969 5.16088867 C6.10489441 4.03893014 3.06490277 3.00119005 0 2 C0 1.34 0 0.68 0 0 Z " fill="#DFD7D6" transform="translate(206,157)"/>
<path d="M0 0 C3.34888409 1.03905109 4.11738758 2.190067 6 5.23828125 C6.6819343 6.58875232 7.34784209 7.94740053 8 9.3125 C8.34740234 10.02148438 8.69480469 10.73046875 9.05273438 11.4609375 C12.07178545 17.79358121 14.23161975 24.20569695 16 31 C15.34 31.33 14.68 31.66 14 32 C13.72027344 31.06800781 13.44054687 30.13601562 13.15234375 29.17578125 C10.33661859 20.11404833 6.72862575 12.254251 2 4 C1.32194715 2.67242079 0.64996533 1.34155406 0 0 Z " fill="#DBD6D3" transform="translate(163,222)"/>
<path d="M0 0 C1.2065625 0.0309375 1.2065625 0.0309375 2.4375 0.0625 C3.0625 3.4375 3.0625 3.4375 3.4375 7.0625 C2.7775 7.7225 2.1175 8.3825 1.4375 9.0625 C1.7675 9.7225 2.0975 10.3825 2.4375 11.0625 C-0.23861698 10.69338042 -1.4056469 10.21394437 -3.375 8.3125 C-4.5625 6.0625 -4.5625 6.0625 -4.3125 3.375 C-3.24356312 0.0791113 -3.24356312 0.0791113 0 0 Z " fill="#9B6D77" transform="translate(75.5625,176.9375)"/>
<path d="M0 0 C0.66 0 1.32 0 2 0 C2 0.66 2 1.32 2 2 C3.32 2.66 4.64 3.32 6 4 C4.68 4.33 3.36 4.66 2 5 C1.67 6.32 1.34 7.64 1 9 C3.97 9.495 3.97 9.495 7 10 C4.6875 12.5 4.6875 12.5 2 15 C1.01 15 0.02 15 -1 15 C-2.23367942 11.29896173 -1.5463808 8.82466559 -1 5 C-1.33 4.01 -1.66 3.02 -2 2 C-1.34 1.34 -0.68 0.68 0 0 Z " fill="#A57982" transform="translate(212,166)"/>
<path d="M0 0 C0.66 0.33 1.32 0.66 2 1 C1.39671875 2.02738281 0.7934375 3.05476562 0.171875 4.11328125 C-4.32241285 11.86974882 -8.3853893 19.36995629 -11 28 C-11.66 28 -12.32 28 -13 28 C-11.47981963 21.41255175 -8.95141523 15.5170085 -5.9375 9.5 C-5.40866211 8.44039062 -5.40866211 8.44039062 -4.86914062 7.359375 C-3.44883254 4.57805062 -2.22219949 2.22219949 0 0 Z " fill="#DED9D6" transform="translate(129,222)"/>
<path d="M0 0 C2.31 0.33 4.62 0.66 7 1 C7 3.31 7 5.62 7 8 C2.545 8.495 2.545 8.495 -2 9 C-1.34 6.03 -0.68 3.06 0 0 Z " fill="#A07780" transform="translate(128,253)"/>
<path d="M0 0 C5.28 0 10.56 0 16 0 C16 1.32 16 2.64 16 4 C14.7934375 3.9690625 14.7934375 3.9690625 13.5625 3.9375 C11.06645115 3.70366379 11.06645115 3.70366379 10 5 C8.33382885 5.04063832 6.66611905 5.042721 5 5 C4.67 4.01 4.34 3.02 4 2 C3.34 1.67 2.68 1.34 2 1 C1.67 1.66 1.34 2.32 1 3 C0.67 2.01 0.34 1.02 0 0 Z " fill="#9A6C73" transform="translate(94,39)"/>
<path d="M0 0 C0.66 0.66 1.32 1.32 2 2 C1.625 4.125 1.625 4.125 1 6 C1.66 6.33 2.32 6.66 3 7 C2.01 7.495 2.01 7.495 1 8 C1 8.99 1 9.98 1 11 C0.68911632 12.67099977 0.35919668 14.33871537 0 16 C-0.66 16 -1.32 16 -2 16 C-4.09563315 12.63760354 -4.09603793 10.70503656 -3.25 6.875 C-3.06953125 6.00617188 -2.8890625 5.13734375 -2.703125 4.2421875 C-2 2 -2 2 0 0 Z " fill="#A27780" transform="translate(211,204)"/>
<path d="M0 0 C9.24 0 18.48 0 28 0 C28 0.33 28 0.66 28 1 C21.944416 3.54971958 15.26124037 4.08708012 9 2 C7.66893378 1.65772583 6.33599921 1.32248257 5 1 C4.67 1.66 4.34 2.32 4 3 C2.68 2.01 1.36 1.02 0 0 Z " fill="#986871" transform="translate(153,38)"/>
<path d="M0 0 C0 0.66 0 1.32 0 2 C0.99 2.33 1.98 2.66 3 3 C0.47211993 5.79872437 -1.20411134 7.45773019 -5 8 C-5 7.01 -5 6.02 -5 5 C-5.66 5 -6.32 5 -7 5 C-7.33 3.68 -7.66 2.36 -8 1 C-5.29120665 -0.35439668 -2.99066732 -0.06501451 0 0 Z " fill="#9C6E77" transform="translate(231,171)"/>
<path d="M0 0 C-0.33 0.66 -0.66 1.32 -1 2 C-2.65 2 -4.3 2 -6 2 C-6 2.99 -6 3.98 -6 5 C-7.21236328 5.19916016 -7.21236328 5.19916016 -8.44921875 5.40234375 C-9.51785156 5.57894531 -10.58648437 5.75554687 -11.6875 5.9375 C-12.74324219 6.11152344 -13.79898438 6.28554687 -14.88671875 6.46484375 C-17.60249604 6.93167121 -20.30124235 7.44422616 -23 8 C-21.11572614 4.23145228 -15.87069472 3.62033838 -12.0625 2.3125 C-11.12986328 1.97927734 -10.19722656 1.64605469 -9.23632812 1.30273438 C-8.34494141 0.99271484 -7.45355469 0.68269531 -6.53515625 0.36328125 C-5.30357788 -0.06537231 -5.30357788 -0.06537231 -4.04711914 -0.50268555 C-2 -1 -2 -1 0 0 Z " fill="#91656C" transform="translate(79,167)"/>
<path d="M0 0 C0.33 0.99 0.66 1.98 1 3 C0.34 3.66 -0.32 4.32 -1 5 C0.32 6.32 1.64 7.64 3 9 C1.54054712 8.91291331 0.08234132 8.80473093 -1.375 8.6875 C-2.18710938 8.62949219 -2.99921875 8.57148438 -3.8359375 8.51171875 C-6 8 -6 8 -8 5 C-7.34 5 -6.68 5 -6 5 C-6 4.01 -6 3.02 -6 2 C-4.02 1.34 -2.04 0.68 0 0 Z " fill="#A57B82" transform="translate(149,224)"/>
<path d="M0 0 C0.66 0.66 1.32 1.32 2 2 C1.38125 2.28875 0.7625 2.5775 0.125 2.875 C-2.13325765 3.93720042 -2.13325765 3.93720042 -4 6 C-4.66 6 -5.32 6 -6 6 C-7.69774938 7.29352333 -9.36739286 8.62517293 -11 10 C-11.66 7.69 -12.32 5.38 -13 3 C-12.31292969 2.86722656 -11.62585937 2.73445312 -10.91796875 2.59765625 C-9.56638672 2.33275391 -9.56638672 2.33275391 -8.1875 2.0625 C-6.84751953 1.80146484 -6.84751953 1.80146484 -5.48046875 1.53515625 C-2.88602829 1.02258847 -2.88602829 1.02258847 0 0 Z " fill="#9E737C" transform="translate(64,172)"/>
<path d="M0 0 C2.31 0 4.62 0 7 0 C8.35439668 2.70879335 8.06501451 5.00933268 8 8 C5.36 8 2.72 8 0 8 C0 7.34 0 6.68 0 6 C0.99 5.34 1.98 4.68 3 4 C2.01 2.68 1.02 1.36 0 0 Z " fill="#413F47" transform="translate(143,236)"/>
<path d="M0 0 C0.99 0.33 1.98 0.66 3 1 C2.55269531 1.40089844 2.10539063 1.80179688 1.64453125 2.21484375 C-3.07669272 6.65420361 -6.14540018 11.19871649 -9 17 C-9.66 16.67 -10.32 16.34 -11 16 C-10.34 15.01 -9.68 14.02 -9 13 C-9.66 13 -10.32 13 -11 13 C-10.67 12.34 -10.34 11.68 -10 11 C-9.67 10.01 -9.34 9.02 -9 8 C-7.66666667 7.66666667 -6.33333333 7.33333333 -5 7 C-4.67 6.01 -4.34 5.02 -4 4 C-2.70644173 2.62804426 -1.37701298 1.28817344 0 0 Z " fill="#B18A93" transform="translate(139,232)"/>
<path d="M0 0 C0.33 0.66 0.66 1.32 1 2 C0.34 1.67 -0.32 1.34 -1 1 C-0.67 0.67 -0.34 0.34 0 0 Z M-3 1 C-2.34 1.66 -1.68 2.32 -1 3 C-2.485 5.475 -2.485 5.475 -4 8 C-3.34 8.33 -2.68 8.66 -2 9 C-1.01 9.66 -0.02 10.32 1 11 C0.67 12.32 0.34 13.64 0 15 C-2.64 12.69 -5.28 10.38 -8 8 C-7.67 6.68 -7.34 5.36 -7 4 C-6.34 4 -5.68 4 -5 4 C-4.34 3.01 -3.68 2.02 -3 1 Z " fill="#A07A81" transform="translate(125,246)"/>
<path d="M0 0 C-0.33 0.99 -0.66 1.98 -1 3 C-5.455 3.495 -5.455 3.495 -10 4 C-9.25 1.0625 -9.25 1.0625 -8 -2 C-4.48279551 -3.99308254 -2.79937847 -2.49944506 0 0 Z " fill="#966E75" transform="translate(140,246)"/>
<path d="M0 0 C0.33 0.66 0.66 1.32 1 2 C1.66 2 2.32 2 3 2 C3.33 3.32 3.66 4.64 4 6 C0.37 6 -3.26 6 -7 6 C-6.34 5.67 -5.68 5.34 -5 5 C-4.34786708 2.97536745 -4.34786708 2.97536745 -4 1 C-2.68 0.67 -1.36 0.34 0 0 Z " fill="#100D0E" transform="translate(148,243)"/>
<path d="M0 0 C0.66 0 1.32 0 2 0 C2 1.98 2 3.96 2 6 C0.741875 6.185625 -0.51625 6.37125 -1.8125 6.5625 C-2.87404297 6.71912109 -2.87404297 6.71912109 -3.95703125 6.87890625 C-6 7 -6 7 -9 6 C-8.67 4.35 -8.34 2.7 -8 1 C-7.01 1.33 -6.02 1.66 -5 2 C-5.33 2.33 -5.66 2.66 -6 3 C-5.67 3.66 -5.34 4.32 -5 5 C-4.54625 4.54625 -4.0925 4.0925 -3.625 3.625 C-2.41666667 2.41666667 -1.20833333 1.20833333 0 0 Z " fill="#AC7F87" transform="translate(150,180)"/>
<path d="M0 0 C4.55384615 -0.36923077 4.55384615 -0.36923077 6.8125 1.5 C7.204375 1.995 7.59625 2.49 8 3 C7.67 3.66 7.34 4.32 7 5 C6.34 5 5.68 5 5 5 C4.67 5.66 4.34 6.32 4 7 C3.34 7 2.68 7 2 7 C1.67 6.34 1.34 5.68 1 5 C0.01 5.495 0.01 5.495 -1 6 C-0.67 4.02 -0.34 2.04 0 0 Z " fill="#EF8D57" transform="translate(113,198)"/>
<path d="M0 0 C0.33 0 0.66 0 1 0 C1 1.65 1 3.3 1 5 C-3.455 6.485 -3.455 6.485 -8 8 C-8.33 6.68 -8.66 5.36 -9 4 C-6.03 3.34 -3.06 2.68 0 2 C0 1.34 0 0.68 0 0 Z " fill="#AA8089" transform="translate(88,157)"/>
<path d="M0 0 C0.33 0 0.66 0 1 0 C1.21684869 4.52002296 1.41374327 9.04030365 1.59204102 13.56201172 C1.65554235 15.10066042 1.72452973 16.63909276 1.79907227 18.17724609 C1.90516922 20.38605641 1.99162696 22.59488916 2.07421875 24.8046875 C2.1302552 25.83914505 2.1302552 25.83914505 2.18742371 26.89450073 C2.2487793 28.83544922 2.2487793 28.83544922 2 32 C1.01 32.66 0.02 33.32 -1 34 C-0.67 22.78 -0.34 11.56 0 0 Z " fill="#67444A" transform="translate(152,194)"/>
<path d="M0 0 C0.66 0 1.32 0 2 0 C2 1.32 2 2.64 2 4 C2.99 3.67 3.98 3.34 5 3 C5.99 3.66 6.98 4.32 8 5 C7.01 5 6.02 5 5 5 C5 5.66 5 6.32 5 7 C4.01 7 3.02 7 2 7 C1.67 9.64 1.34 12.28 1 15 C0.67 15 0.34 15 0 15 C0 10.05 0 5.1 0 0 Z " fill="#966A72" transform="translate(153,172)"/>
<path d="M0 0 C6.35051546 -0.36637589 6.35051546 -0.36637589 9.4375 1.375 C11 3 11 3 11 5 C11.66 5 12.32 5 13 5 C13 5.66 13 6.32 13 7 C10.69 6.67 8.38 6.34 6 6 C5.67 4.35 5.34 2.7 5 1 C3.35 1 1.7 1 0 1 C0 0.67 0 0.34 0 0 Z " fill="#C8C3BF" transform="translate(221,159)"/>
<path d="M0 0 C-0.33 0.99 -0.66 1.98 -1 3 C-4.63 3.66 -8.26 4.32 -12 5 C-11.67 3.68 -11.34 2.36 -11 1 C-7.32589215 -0.17571451 -3.83070817 -0.07366746 0 0 Z " fill="#662330" transform="translate(141,249)"/>
<path d="M0 0 C3.63 0 7.26 0 11 0 C11 0.99 11 1.98 11 3 C7.04 3 3.08 3 -1 3 C-0.67 2.01 -0.34 1.02 0 0 Z " fill="#7B2E3F" transform="translate(141,249)"/>
<path d="M0 0 C1.32 0.33 2.64 0.66 4 1 C3.88617347 2.95901454 3.75858875 4.9172338 3.625 6.875 C3.55539063 7.96554688 3.48578125 9.05609375 3.4140625 10.1796875 C3 13 3 13 1 15 C0.67 10.05 0.34 5.1 0 0 Z " fill="#513439" transform="translate(151,234)"/>
<path d="M0 0 C0.99 0.33 1.98 0.66 3 1 C2.33501617 5.38889325 0.81242323 8.9811485 -1 13 C-1.33 13 -1.66 13 -2 13 C-1.95875 12.0925 -1.9175 11.185 -1.875 10.25 C-1.99531556 7.1217954 -2.3914708 5.61385994 -4 3 C-3.01 3 -2.02 3 -1 3 C-0.67 2.01 -0.34 1.02 0 0 Z " fill="#8D626A" transform="translate(90,208)"/>
<path d="M0 0 C0.99 0.66 1.98 1.32 3 2 C2.01 3.485 2.01 3.485 1 5 C1.99 5.33 2.98 5.66 4 6 C0.25 8 0.25 8 -2 8 C-2 7.34 -2 6.68 -2 6 C-2.99 5.67 -3.98 5.34 -5 5 C-5.6875 2.9375 -5.6875 2.9375 -6 1 C-3.525 1.495 -3.525 1.495 -1 2 C-0.67 1.34 -0.34 0.68 0 0 Z M-2 4 C-1 6 -1 6 -1 6 Z " fill="#A37980" transform="translate(179,232)"/>
<path d="M0 0 C0.99 0 1.98 0 3 0 C2.67 3.3 2.34 6.6 2 10 C-0.31 9.67 -2.62 9.34 -5 9 C-4.34 8.67 -3.68 8.34 -3 8 C-2.67 7.34 -2.34 6.68 -2 6 C-1.34 5.34 -0.68 4.68 0 4 C-0.33 3.01 -0.66 2.02 -1 1 C-0.67 0.67 -0.34 0.34 0 0 Z " fill="#9D777E" transform="translate(84,221)"/>
<path d="M0 0 C0.66 0 1.32 0 2 0 C2 0.99 2 1.98 2 3 C2.99 3 3.98 3 5 3 C4.67 4.65 4.34 6.3 4 8 C-0.95 6.02 -0.95 6.02 -6 4 C-3 3 -3 3 1 3 C0.67 2.01 0.34 1.02 0 0 Z " fill="#976B74" transform="translate(136,218)"/>
<path d="M0 0 C3.96 0 7.92 0 12 0 C11.67 0.99 11.34 1.98 11 3 C8.23735711 3.59732819 5.83967231 4 3 4 C2.01 2.68 1.02 1.36 0 0 Z " fill="#996D74" transform="translate(189,39)"/>
<path d="M0 0 C4.37934119 0.51958285 8.68803391 1.05675742 13 2 C13 2.99 13 3.98 13 5 C13.66 5.33 14.32 5.66 15 6 C9.45949887 5.43174347 4.96284034 3.37113483 0 1 C0 0.67 0 0.34 0 0 Z " fill="#C3BEBA" transform="translate(213,158)"/>
<path d="M0 0 C2.31 0 4.62 0 7 0 C7 3.76687864 6.76462683 4.91190305 5 8 C4.01 8 3.02 8 2 8 C2.33 6.02 2.66 4.04 3 2 C2.01 1.34 1.02 0.68 0 0 Z " fill="#A27781" transform="translate(135,252)"/>
<path d="M0 0 C1.98 0 3.96 0 6 0 C4.68 2.64 3.36 5.28 2 8 C1.01 7.01 0.02 6.02 -1 5 C-0.6875 2.3125 -0.6875 2.3125 0 0 Z " fill="#9A7278" transform="translate(214,220)"/>
<path d="M0 0 C0.66 0 1.32 0 2 0 C1.125 5.75 1.125 5.75 0 8 C-0.99 8 -1.98 8 -3 8 C-3 7.01 -3 6.02 -3 5 C-3.99 4.67 -4.98 4.34 -6 4 C-4.02 3.34 -2.04 2.68 0 2 C0 1.34 0 0.68 0 0 Z " fill="#9B6F78" transform="translate(226,202)"/>
<path d="M0 0 C4.8 3.44615385 4.8 3.44615385 5.8125 6.25 C5.874375 6.8275 5.93625 7.405 6 8 C3.69 7.67 1.38 7.34 -1 7 C-0.67 4.69 -0.34 2.38 0 0 Z " fill="#8C646B" transform="translate(155,236)"/>
<path d="M0 0 C6.52307692 -0.36923077 6.52307692 -0.36923077 8.9375 1.5 C9.288125 1.995 9.63875 2.49 10 3 C9.38125 3.144375 8.7625 3.28875 8.125 3.4375 C5.96741678 3.93152225 5.96741678 3.93152225 4 5 C3.01 5 2.02 5 1 5 C0.67 3.35 0.34 1.7 0 0 Z " fill="#AA7D85" transform="translate(162,41)"/>
<path d="M0 0 C3.58770251 1.42893505 4.96510596 3.01508697 6.8125 6.375 C7.25207031 7.14585937 7.69164062 7.91671875 8.14453125 8.7109375 C9.11623296 11.31101605 8.95272312 12.43992191 8 15 C7.04078278 13.25048432 6.08266183 11.50036756 5.125 9.75 C4.59132812 8.77546875 4.05765625 7.8009375 3.5078125 6.796875 C2.29580534 4.54869592 1.12452433 2.2927195 0 0 Z " fill="#E4E0DD" transform="translate(163,222)"/>
<path d="M0 0 C3.63 0 7.26 0 11 0 C10.01 0.33 9.02 0.66 8 1 C8.33 1.99 8.66 2.98 9 4 C7.68 3.67 6.36 3.34 5 3 C4.67 3.66 4.34 4.32 4 5 C3.67 3.68 3.34 2.36 3 1 C2.34 1 1.68 1 1 1 C0.67 1.66 0.34 2.32 0 3 C0 2.01 0 1.02 0 0 Z " fill="#9F7078" transform="translate(140,186)"/>
<path d="M0 0 C1.5 1.375 1.5 1.375 3 3 C3 3.66 3 4.32 3 5 C3.66 5 4.32 5 5 5 C5 5.66 5 6.32 5 7 C4.01 7.495 4.01 7.495 3 8 C3.33 8.66 3.66 9.32 4 10 C3.01 10.33 2.02 10.66 1 11 C-0.28317892 7.15046324 -0.06643637 4.05261865 0 0 Z " fill="#A87C84" transform="translate(141,214)"/>
<path d="M0 0 C0.89203125 0.01804688 1.7840625 0.03609375 2.703125 0.0546875 C3.71632812 0.08949219 3.71632812 0.08949219 4.75 0.125 C5.08 0.785 5.41 1.445 5.75 2.125 C0.40370398 3.1274305 -3.87374766 2.97388195 -9.25 2.125 C-6.03817851 0.21891902 -3.71117397 -0.09766247 0 0 Z " fill="#AB7F86" transform="translate(184.25,41.875)"/>
<path d="M0 0 C1.98 0.99 1.98 0.99 4 2 C3.67 3.32 3.34 4.64 3 6 C3.66 6.33 4.32 6.66 5 7 C4.67 8.32 4.34 9.64 4 11 C2.68 10.67 1.36 10.34 0 10 C0.29296875 7.98177083 0.5859375 5.96354167 0.87890625 3.9453125 C1.1684297 1.91859333 1.1684297 1.91859333 0 0 Z " fill="#9E737B" transform="translate(207,191)"/>
<path d="M0 0 C0.33 0 0.66 0 1 0 C1.33 2.31 1.66 4.62 2 7 C1.401875 7.28875 0.80375 7.5775 0.1875 7.875 C-2.19327792 9.04742026 -2.19327792 9.04742026 -5 11 C-5.33 9.35 -5.66 7.7 -6 6 C-4.35 5.67 -2.7 5.34 -1 5 C-0.67 3.35 -0.34 1.7 0 0 Z " fill="#CC7F6D" transform="translate(116,191)"/>
<path d="M0 0 C2.625 0.9375 2.625 0.9375 5 2 C4.01 3.485 4.01 3.485 3 5 C0.03 4.505 0.03 4.505 -3 4 C-2.67 3.01 -2.34 2.02 -2 1 C-1.34 0.67 -0.68 0.34 0 0 Z " fill="#9F737A" transform="translate(115,38)"/>
<path d="M0 0 C0.99 0.33 1.98 0.66 3 1 C2.01 3.31 1.02 5.62 0 8 C-1.32 7.67 -2.64 7.34 -4 7 C-2.68 4.69 -1.36 2.38 0 0 Z " fill="#A0757D" transform="translate(231,193)"/>
<path d="M0 0 C4.455 0.99 4.455 0.99 9 2 C6.07175348 2.97608217 4.04386724 3.08226668 1 3 C0.34 4.32 -0.32 5.64 -1 7 C-0.67 4.69 -0.34 2.38 0 0 Z " fill="#B5ADA9" transform="translate(203,155)"/>
<path d="M0 0 C1.41687119 4.25061356 0.19320039 6.71851625 -1 11 C-2.76462683 7.91190305 -3 6.76687864 -3 3 C-1.5 1.25 -1.5 1.25 0 0 Z " fill="#B28B93" transform="translate(128,250)"/>
<path d="M0 0 C-0.33 0.66 -0.66 1.32 -1 2 C-2.65 2 -4.3 2 -6 2 C-6.33 2.66 -6.66 3.32 -7 4 C-7.66 3.01 -8.32 2.02 -9 1 C-5.57367167 -0.61798838 -3.61944899 -1.34053666 0 0 Z " fill="#7F4852" transform="translate(149,224)"/>
<path d="M0 0 C-0.99 0.66 -1.98 1.32 -3 2 C-4.19232613 4.05003955 -4.19232613 4.05003955 -5 6 C-5.99 5.67 -6.98 5.34 -8 5 C-7.34 4.34 -6.68 3.68 -6 3 C-6.33 2.01 -6.66 1.02 -7 0 C-2.25 -1.125 -2.25 -1.125 0 0 Z " fill="#A2747C" transform="translate(101,82)"/>
<path d="M0 0 C2.41793589 1.20896794 2.79103206 1.58206411 4 4 C4.66 4.33 5.32 4.66 6 5 C3.36 5 0.72 5 -2 5 C-1.34 3.35 -0.68 1.7 0 0 Z " fill="#9D767B" transform="translate(155,244)"/>
<path d="M0 0 C0.33 0 0.66 0 1 0 C1 1.65 1 3.3 1 5 C0.34 5 -0.32 5 -1 5 C-1 5.66 -1 6.32 -1 7 C-1.99 7 -2.98 7 -4 7 C-2.92598892 4.08482708 -2.22189824 2.22189824 0 0 Z " fill="#8E666D" transform="translate(137,237)"/>
<path d="M0 0 C4.875 1.75 4.875 1.75 6 4 C3.03 3.67 0.06 3.34 -3 3 C-2.01 2.01 -1.02 1.02 0 0 Z " fill="#7F5D63" transform="translate(146,229)"/>
<path d="M0 0 C0.99 0.495 0.99 0.495 2 1 C3.231394 4.69418201 2.64432764 7.2056261 2 11 C1.34 11 0.68 11 0 11 C0 7.37 0 3.74 0 0 Z " fill="#986D74" transform="translate(92,181)"/>
<path d="M0 0 C0.99 0 1.98 0 3 0 C3 2.97 3 5.94 3 9 C2.01 8.67 1.02 8.34 0 8 C-0.33 7.01 -0.66 6.02 -1 5 C-0.34 5 0.32 5 1 5 C0.67 3.35 0.34 1.7 0 0 Z " fill="#A67680" transform="translate(178,139)"/>
<path d="M0 0 C0.66 0.99 1.32 1.98 2 3 C-1.75 6 -1.75 6 -4 6 C-3.6875 4.125 -3.6875 4.125 -3 2 C-2.01 1.34 -1.02 0.68 0 0 Z " fill="#91676E" transform="translate(83,223)"/>
<path d="M0 0 C3.9492568 0.55105909 7.34920174 1.38935371 11 3 C10.67 3.66 10.34 4.32 10 5 C8.35 4.67 6.7 4.34 5 4 C5 3.34 5 2.68 5 2 C3.35 1.67 1.7 1.34 0 1 C0 0.67 0 0.34 0 0 Z " fill="#91646D" transform="translate(209,164)"/>
<path d="M0 0 C2.64 0 5.28 0 8 0 C8 0.99 8 1.98 8 3 C4.37673261 4.2077558 3.35853631 3.54311128 0 2 C0 1.34 0 0.68 0 0 Z " fill="#A47D84" transform="translate(103,246)"/>
<path d="M0 0 C0.99 0.33 1.98 0.66 3 1 C2.67 1.66 2.34 2.32 2 3 C2.66 3.33 3.32 3.66 4 4 C3.67 4.99 3.34 5.98 3 7 C2.01 6.67 1.02 6.34 0 6 C0 4 0 2 0 0 Z " fill="#A67780" transform="translate(113,141)"/>
<path d="M0 0 C0.99 0 1.98 0 3 0 C3 0.66 3 1.32 3 2 C3.99 2.33 4.98 2.66 6 3 C5.34 3.66 4.68 4.32 4 5 C3.01 5 2.02 5 1 5 C0.67 3.35 0.34 1.7 0 0 Z " fill="#A27B83" transform="translate(177,247)"/>
<path d="M0 0 C0.99 0.33 1.98 0.66 3 1 C2.25 5.75 2.25 5.75 0 8 C0 5.36 0 2.72 0 0 Z " fill="#865D64" transform="translate(90,208)"/>
<path d="M0 0 C6.4 -0.49230769 6.4 -0.49230769 9.4375 2 C10.2109375 2.99 10.2109375 2.99 11 4 C8.03 3.505 8.03 3.505 5 3 C5 2.34 5 1.68 5 1 C3.35 1 1.7 1 0 1 C0 0.67 0 0.34 0 0 Z " fill="#D3CFCB" transform="translate(221,159)"/>
<path d="M0 0 C1.65 0.33 3.3 0.66 5 1 C4.67 1.99 4.34 2.98 4 4 C2.35 3.67 0.7 3.34 -1 3 C-0.67 2.01 -0.34 1.02 0 0 Z " fill="#A07179" transform="translate(106,39)"/>
</svg>
